<svg width="600" height="450" xmlns="http://www.w3.org/2000/svg" xmlns:xlink="http://www.w3.org/1999/xlink" version="1.1" baseProfile="full" viewBox="0 0 600 450">
<rect width="600" height="450" x="0" y="0" fill="none"></rect>
<path d="M60 380.5L540 380.5" fill="transparent" stroke="#E0E6F1" class="zr27-cls-134"></path>
<path d="M60 316.5L540 316.5" fill="transparent" stroke="#E0E6F1" class="zr27-cls-134"></path>
<path d="M60 252.5L540 252.5" fill="transparent" stroke="#E0E6F1" class="zr27-cls-134"></path>
<path d="M60 188.5L540 188.5" fill="transparent" stroke="#E0E6F1" class="zr27-cls-134"></path>
<path d="M60 124.5L540 124.5" fill="transparent" stroke="#E0E6F1" class="zr27-cls-134"></path>
<path d="M60 60.5L540 60.5" fill="transparent" stroke="#E0E6F1" class="zr27-cls-134"></path>
<path d="M60 380.5L540 380.5" fill="transparent" stroke="#6E7079" stroke-linecap="round" class="zr27-cls-134"></path>
<path d="M60.5 380L60.5 385" fill="transparent" stroke="#6E7079" class="zr27-cls-134"></path>
<path d="M180.5 380L180.5 385" fill="transparent" stroke="#6E7079" class="zr27-cls-134"></path>
<path d="M300.5 380L300.5 385" fill="transparent" stroke="#6E7079" class="zr27-cls-134"></path>
<path d="M420.5 380L420.5 385" fill="transparent" stroke="#6E7079" class="zr27-cls-134"></path>
<path d="M540.5 380L540.5 385" fill="transparent" stroke="#6E7079" class="zr27-cls-134"></path>
<text dominant-baseline="central" text-anchor="end" style="font-size:12px;font-family:sans-serif;" transform="translate(52 380)" fill="#6E7079">0</text>
<text dominant-baseline="central" text-anchor="end" style="font-size:12px;font-family:sans-serif;" transform="translate(52 316)" fill="#6E7079">200</text>
<text dominant-baseline="central" text-anchor="end" style="font-size:12px;font-family:sans-serif;" transform="translate(52 252)" fill="#6E7079">400</text>
<text dominant-baseline="central" text-anchor="end" style="font-size:12px;font-family:sans-serif;" transform="translate(52 188)" fill="#6E7079">600</text>
<text dominant-baseline="central" text-anchor="end" style="font-size:12px;font-family:sans-serif;" transform="translate(52 124)" fill="#6E7079">800</text>
<text dominant-baseline="central" text-anchor="end" style="font-size:12px;font-family:sans-serif;" transform="translate(52 60)" fill="#6E7079">1,000</text>
<text dominant-baseline="central" text-anchor="middle" style="font-size:12px;font-family:sans-serif;" y="6" transform="translate(60 388)" fill="#6E7079">2019-10-10</text>
<text dominant-baseline="central" text-anchor="middle" style="font-size:12px;font-family:sans-serif;" y="6" transform="translate(180 388)" fill="#6E7079">2019-10-12</text>
<text dominant-baseline="central" text-anchor="middle" style="font-size:12px;font-family:sans-serif;" y="6" transform="translate(300 388)" fill="#6E7079">2019-10-14</text>
<text dominant-baseline="central" text-anchor="middle" style="font-size:12px;font-family:sans-serif;" y="6" transform="translate(420 388)" fill="#6E7079">2019-10-16</text>
<text dominant-baseline="central" text-anchor="middle" style="font-size:12px;font-family:sans-serif;" y="6" transform="translate(540 388)" fill="#6E7079">2019-10-18</text>
<g clip-path="url(#zr27-c0)">
<path d="M60 316C60 316 83.8 253.9 120 200.8C143.8 165.9 149.2 140 180 140C209.2 140 216 162.4 240 194.4C276 242.4 260.3 300 300 300C320.3 300 333.2 298.3 360 284C393.2 266.3 390 236 420 236C450 236 452 257.9 480 284C512 313.9 540 348 540 348L540 380L480 380L420 380L360 380L300 380L240 380L180 380L120 380L60 380Z" fill="url(#zr27-g0)" fill-opacity="0.7" class="zr27-cls-136"></path>
<path d="M60 316C60 316 83.8 253.9 120 200.8C143.8 165.9 149.2 140 180 140C209.2 140 216 162.4 240 194.4C276 242.4 260.3 300 300 300C320.3 300 333.2 298.3 360 284C393.2 266.3 390 236 420 236C450 236 452 257.9 480 284C512 313.9 540 348 540 348" fill="transparent" stroke="#5470C6" stroke-width="5" stroke-linejoin="bevel" class="zr27-cls-137"></path>
</g>
<path d="M120.5 380L120.5 60" fill="transparent" stroke="#5470c6" stroke-dasharray="4,2" ecmeta_series_index="0" ecmeta_data_index="0" ecmeta_ssr_type="chart" class="zr27-cls-138"></path>
<path d="M240.5 380L240.5 60" fill="transparent" stroke="#5470c6" stroke-dasharray="4,2" ecmeta_series_index="0" ecmeta_data_index="1" ecmeta_ssr_type="chart" class="zr27-cls-138"></path>
<path d="M420.5 380L420.5 60" fill="transparent" stroke="#5470c6" stroke-dasharray="4,2" ecmeta_series_index="0" ecmeta_data_index="2" ecmeta_ssr_type="chart" class="zr27-cls-138"></path>
<path d="M480.5 380L480.5 60" fill="transparent" stroke="#5470c6" stroke-dasharray="4,2" ecmeta_series_index="0" ecmeta_data_index="3" ecmeta_ssr_type="chart" class="zr27-cls-138"></path>
<defs >
<clipPath id="zr27-c0">
<path d="M57 57.5l486 0l0 325l-486 0Z" fill="#000" class="zr27-cls-135"></path>
</clipPath>
<linearGradient gradientUnits="userSpaceOnUse" x1="110" y1="0" x2="490" y2="0" id="zr27-g0">
<stop offset="2.63%" stop-color="rgb(0,0,0)" stop-opacity="0"></stop>
<stop offset="2.63%" stop-color="rgb(0,0,180)" stop-opacity="0.4"></stop>
<stop offset="34.21%" stop-color="rgb(0,0,180)" stop-opacity="0.4"></stop>
<stop offset="34.21%" stop-color="rgb(0,0,0)" stop-opacity="0"></stop>
<stop offset="65.79%" stop-color="rgb(0,0,0)" stop-opacity="0"></stop>
<stop offset="65.79%" stop-color="rgb(0,0,180)" stop-opacity="0.4"></stop>
<stop offset="97.37%" stop-color="rgb(0,0,180)" stop-opacity="0.4"></stop>
<stop offset="97.37%" stop-color="rgb(0,0,0)" stop-opacity="0"></stop>
</linearGradient>
</defs>
<style ><![CDATA[
.zr27-cls-134:hover {
pointer-events:none;
}
.zr27-cls-135:hover {
cursor:pointer;
fill:rgba(0,0,0,1);
}
.zr27-cls-136:hover {
cursor:pointer;
fill:[object Object];
}
.zr27-cls-137:hover {
cursor:pointer;
}
.zr27-cls-138:hover {
cursor:pointer;
stroke-width:3;
}

]]>

</style>
</svg>