<svg width="600" height="450" xmlns="http://www.w3.org/2000/svg" xmlns:xlink="http://www.w3.org/1999/xlink" version="1.1" baseProfile="full" viewBox="0 0 600 450">
<rect width="600" height="450" x="0" y="0" fill="none"></rect>
<path d="M60 380.5L540 380.5" fill="transparent" stroke="#E0E6F1" class="zr28-cls-139"></path>
<path d="M60 326.5L540 326.5" fill="transparent" stroke="#E0E6F1" class="zr28-cls-139"></path>
<path d="M60 273.5L540 273.5" fill="transparent" stroke="#E0E6F1" class="zr28-cls-139"></path>
<path d="M60 220.5L540 220.5" fill="transparent" stroke="#E0E6F1" class="zr28-cls-139"></path>
<path d="M60 166.5L540 166.5" fill="transparent" stroke="#E0E6F1" class="zr28-cls-139"></path>
<path d="M60 113.5L540 113.5" fill="transparent" stroke="#E0E6F1" class="zr28-cls-139"></path>
<path d="M60 60.5L540 60.5" fill="transparent" stroke="#E0E6F1" class="zr28-cls-139"></path>
<path d="M60 380.5L540 380.5" fill="transparent" stroke="#6E7079" stroke-linecap="round" class="zr28-cls-139"></path>
<path d="M60.5 380L60.5 385" fill="transparent" stroke="#6E7079" class="zr28-cls-139"></path>
<path d="M140.5 380L140.5 385" fill="transparent" stroke="#6E7079" class="zr28-cls-139"></path>
<path d="M220.5 380L220.5 385" fill="transparent" stroke="#6E7079" class="zr28-cls-139"></path>
<path d="M300.5 380L300.5 385" fill="transparent" stroke="#6E7079" class="zr28-cls-139"></path>
<path d="M380.5 380L380.5 385" fill="transparent" stroke="#6E7079" class="zr28-cls-139"></path>
<path d="M460.5 380L460.5 385" fill="transparent" stroke="#6E7079" class="zr28-cls-139"></path>
<path d="M540.5 380L540.5 385" fill="transparent" stroke="#6E7079" class="zr28-cls-139"></path>
<text dominant-baseline="central" text-anchor="end" style="font-size:12px;font-family:sans-serif;" transform="translate(52 380)" fill="#6E7079">0</text>
<text dominant-baseline="central" text-anchor="end" style="font-size:12px;font-family:sans-serif;" transform="translate(52 326.6667)" fill="#6E7079">50</text>
<text dominant-baseline="central" text-anchor="end" style="font-size:12px;font-family:sans-serif;" transform="translate(52 273.3333)" fill="#6E7079">100</text>
<text dominant-baseline="central" text-anchor="end" style="font-size:12px;font-family:sans-serif;" transform="translate(52 220)" fill="#6E7079">150</text>
<text dominant-baseline="central" text-anchor="end" style="font-size:12px;font-family:sans-serif;" transform="translate(52 166.6667)" fill="#6E7079">200</text>
<text dominant-baseline="central" text-anchor="end" style="font-size:12px;font-family:sans-serif;" transform="translate(52 113.3333)" fill="#6E7079">250</text>
<text dominant-baseline="central" text-anchor="end" style="font-size:12px;font-family:sans-serif;" transform="translate(52 60)" fill="#6E7079">300</text>
<text dominant-baseline="central" text-anchor="middle" style="font-size:12px;font-family:sans-serif;" y="6" transform="translate(60 388)" fill="#6E7079">Mon</text>
<text dominant-baseline="central" text-anchor="middle" style="font-size:12px;font-family:sans-serif;" y="6" transform="translate(140 388)" fill="#6E7079">Tue</text>
<text dominant-baseline="central" text-anchor="middle" style="font-size:12px;font-family:sans-serif;" y="6" transform="translate(220 388)" fill="#6E7079">Wed</text>
<text dominant-baseline="central" text-anchor="middle" style="font-size:12px;font-family:sans-serif;" y="6" transform="translate(300 388)" fill="#6E7079">Thu</text>
<text dominant-baseline="central" text-anchor="middle" style="font-size:12px;font-family:sans-serif;" y="6" transform="translate(380 388)" fill="#6E7079">Fri</text>
<text dominant-baseline="central" text-anchor="middle" style="font-size:12px;font-family:sans-serif;" y="6" transform="translate(460 388)" fill="#6E7079">Sat</text>
<text dominant-baseline="central" text-anchor="middle" style="font-size:12px;font-family:sans-serif;" y="6" transform="translate(540 388)" fill="#6E7079">Sun</text>
<g clip-path="url(#zr28-c0)">
<path d="M60 220L140 134.7L220 141.1L300 147.5L380 236L460 223.2L540 102.7L540 380L460 380L380 380L300 380L220 380L140 380L60 380Z" fill="#5470c6" fill-opacity="0.7" class="zr28-cls-141"></path>
<path d="M60 220L140 134.7L220 141.1L300 147.5L380 236L460 223.2L540 102.7" fill="transparent" stroke="#5470c6" stroke-width="2" stroke-linejoin="bevel" class="zr28-cls-142"></path>
</g>
<path d="M1 0A1 1 0 1 1 1 -0.1A1 1 0 0 1 1 0" transform="matrix(2,0,0,2,60,220)" fill="#fff" stroke="#5470c6" ecmeta_series_index="0" ecmeta_data_index="0" ecmeta_ssr_type="chart" class="zr28-cls-143"></path>
<path d="M1 0A1 1 0 1 1 1 -0.1A1 1 0 0 1 1 0" transform="matrix(2,0,0,2,140,134.6667)" fill="#fff" stroke="#5470c6" ecmeta_series_index="0" ecmeta_data_index="1" ecmeta_ssr_type="chart" class="zr28-cls-143"></path>
<path d="M1 0A1 1 0 1 1 1 -0.1A1 1 0 0 1 1 0" transform="matrix(2,0,0,2,220,141.0667)" fill="#fff" stroke="#5470c6" ecmeta_series_index="0" ecmeta_data_index="2" ecmeta_ssr_type="chart" class="zr28-cls-143"></path>
<path d="M1 0A1 1 0 1 1 1 -0.1A1 1 0 0 1 1 0" transform="matrix(2,0,0,2,300,147.4667)" fill="#fff" stroke="#5470c6" ecmeta_series_index="0" ecmeta_data_index="3" ecmeta_ssr_type="chart" class="zr28-cls-143"></path>
<path d="M1 0A1 1 0 1 1 1 -0.1A1 1 0 0 1 1 0" transform="matrix(2,0,0,2,380,236)" fill="#fff" stroke="#5470c6" ecmeta_series_index="0" ecmeta_data_index="4" ecmeta_ssr_type="chart" class="zr28-cls-143"></path>
<path d="M1 0A1 1 0 1 1 1 -0.1A1 1 0 0 1 1 0" transform="matrix(2,0,0,2,460,223.2)" fill="#fff" stroke="#5470c6" ecmeta_series_index="0" ecmeta_data_index="5" ecmeta_ssr_type="chart" class="zr28-cls-143"></path>
<path d="M1 0A1 1 0 1 1 1 -0.1A1 1 0 0 1 1 0" transform="matrix(2,0,0,2,540,102.6667)" fill="#fff" stroke="#5470c6" ecmeta_series_index="0" ecmeta_data_index="6" ecmeta_ssr_type="chart" class="zr28-cls-143"></path>
<defs >
<clipPath id="zr28-c0">
<path d="M59 59l482 0l0 322l-482 0Z" fill="#000" class="zr28-cls-140"></path>
</clipPath>
</defs>
<style ><![CDATA[
.zr28-cls-139:hover {
pointer-events:none;
}
.zr28-cls-140:hover {
cursor:pointer;
fill:rgba(0,0,0,1);
}
.zr28-cls-141:hover {
cursor:pointer;
fill:rgba(92,123,217,1);
}
.zr28-cls-142:hover {
cursor:pointer;
}
.zr28-cls-143:hover {
cursor:pointer;
fill:rgba(255,255,255,1);
}

]]>

</style>
</svg>