<svg width="600" height="450" xmlns="http://www.w3.org/2000/svg" xmlns:xlink="http://www.w3.org/1999/xlink" version="1.1" baseProfile="full" viewBox="0 0 600 450">
<rect width="600" height="450" x="0" y="0" fill="none"></rect>
<path d="M60 380.5L540 380.5" fill="transparent" stroke="#E0E6F1" class="zr32-cls-155"></path>
<path d="M60 326.5L540 326.5" fill="transparent" stroke="#E0E6F1" class="zr32-cls-155"></path>
<path d="M60 273.5L540 273.5" fill="transparent" stroke="#E0E6F1" class="zr32-cls-155"></path>
<path d="M60 220.5L540 220.5" fill="transparent" stroke="#E0E6F1" class="zr32-cls-155"></path>
<path d="M60 166.5L540 166.5" fill="transparent" stroke="#E0E6F1" class="zr32-cls-155"></path>
<path d="M60 113.5L540 113.5" fill="transparent" stroke="#E0E6F1" class="zr32-cls-155"></path>
<path d="M60 60.5L540 60.5" fill="transparent" stroke="#E0E6F1" class="zr32-cls-155"></path>
<path d="M60 380.5L540 380.5" fill="transparent" stroke="#6E7079" stroke-linecap="round" class="zr32-cls-155"></path>
<path d="M60.5 380L60.5 385" fill="transparent" stroke="#6E7079" class="zr32-cls-155"></path>
<path d="M128.5 380L128.5 385" fill="transparent" stroke="#6E7079" class="zr32-cls-155"></path>
<path d="M197.5 380L197.5 385" fill="transparent" stroke="#6E7079" class="zr32-cls-155"></path>
<path d="M265.5 380L265.5 385" fill="transparent" stroke="#6E7079" class="zr32-cls-155"></path>
<path d="M334.5 380L334.5 385" fill="transparent" stroke="#6E7079" class="zr32-cls-155"></path>
<path d="M403.5 380L403.5 385" fill="transparent" stroke="#6E7079" class="zr32-cls-155"></path>
<path d="M471.5 380L471.5 385" fill="transparent" stroke="#6E7079" class="zr32-cls-155"></path>
<path d="M540.5 380L540.5 385" fill="transparent" stroke="#6E7079" class="zr32-cls-155"></path>
<text dominant-baseline="central" text-anchor="end" style="font-size:12px;font-family:sans-serif;" transform="translate(52 380)" fill="#6E7079">0</text>
<text dominant-baseline="central" text-anchor="end" style="font-size:12px;font-family:sans-serif;" transform="translate(52 326.6667)" fill="#6E7079">50</text>
<text dominant-baseline="central" text-anchor="end" style="font-size:12px;font-family:sans-serif;" transform="translate(52 273.3333)" fill="#6E7079">100</text>
<text dominant-baseline="central" text-anchor="end" style="font-size:12px;font-family:sans-serif;" transform="translate(52 220)" fill="#6E7079">150</text>
<text dominant-baseline="central" text-anchor="end" style="font-size:12px;font-family:sans-serif;" transform="translate(52 166.6667)" fill="#6E7079">200</text>
<text dominant-baseline="central" text-anchor="end" style="font-size:12px;font-family:sans-serif;" transform="translate(52 113.3333)" fill="#6E7079">250</text>
<text dominant-baseline="central" text-anchor="end" style="font-size:12px;font-family:sans-serif;" transform="translate(52 60)" fill="#6E7079">300</text>
<text dominant-baseline="central" text-anchor="middle" style="font-size:12px;font-family:sans-serif;" y="6" transform="translate(94.2857 388)" fill="#6E7079">Mon</text>
<text dominant-baseline="central" text-anchor="middle" style="font-size:12px;font-family:sans-serif;" y="6" transform="translate(162.8571 388)" fill="#6E7079">Tue</text>
<text dominant-baseline="central" text-anchor="middle" style="font-size:12px;font-family:sans-serif;" y="6" transform="translate(231.4286 388)" fill="#6E7079">Wed</text>
<text dominant-baseline="central" text-anchor="middle" style="font-size:12px;font-family:sans-serif;" y="6" transform="translate(300 388)" fill="#6E7079">Thu</text>
<text dominant-baseline="central" text-anchor="middle" style="font-size:12px;font-family:sans-serif;" y="6" transform="translate(368.5714 388)" fill="#6E7079">Fri</text>
<text dominant-baseline="central" text-anchor="middle" style="font-size:12px;font-family:sans-serif;" y="6" transform="translate(437.1429 388)" fill="#6E7079">Sat</text>
<text dominant-baseline="central" text-anchor="middle" style="font-size:12px;font-family:sans-serif;" y="6" transform="translate(505.7143 388)" fill="#6E7079">Sun</text>
<g clip-path="url(#zr32-c0)">
<path d="M94.3 220L162.9 134.7L231.4 141.1L300 147.5L368.6 236L437.1 223.2L505.7 102.7" fill="transparent" stroke="#5470c6" stroke-width="2" stroke-linejoin="bevel" class="zr32-cls-157"></path>
</g>
<path d="M1 0A1 1 0 1 1 1 -0.1A1 1 0 0 1 1 0" transform="matrix(10,0,0,10,94.2857,220)" fill="#5470c6" ecmeta_series_index="0" ecmeta_data_index="0" ecmeta_ssr_type="chart" class="zr32-cls-158"></path>
<path d="M0 -1L1 1L-1 1Z" transform="matrix(15,0,0,15,162.8571,134.6667)" fill="#5470c6" ecmeta_series_index="0" ecmeta_data_index="1" ecmeta_ssr_type="chart" class="zr32-cls-158"></path>
<path d="M0 -1L1 0L0 1L-1 0Z" transform="matrix(5,0,0,5,231.4286,141.0667)" fill="#5470c6" ecmeta_series_index="0" ecmeta_data_index="2" ecmeta_ssr_type="chart" class="zr32-cls-158"></path>
<path d="M0 -1L1 1L-1 1Z" transform="matrix(15,0,0,15,300,147.4667)" fill="#5470c6" ecmeta_series_index="0" ecmeta_data_index="3" ecmeta_ssr_type="chart" class="zr32-cls-158"></path>
<path d="M1 0A1 1 0 1 1 1 -0.1A1 1 0 0 1 1 0" transform="matrix(10,0,0,10,368.5714,236)" fill="#5470c6" ecmeta_series_index="0" ecmeta_data_index="4" ecmeta_ssr_type="chart" class="zr32-cls-158"></path>
<path d="M0 -1L1 1L-1 1Z" transform="matrix(15,0,0,15,437.1429,223.2)" fill="#5470c6" ecmeta_series_index="0" ecmeta_data_index="5" ecmeta_ssr_type="chart" class="zr32-cls-158"></path>
<path d="M0 -1L1 0L0 1L-1 0Z" transform="matrix(5,0,0,5,505.7143,102.6667)" fill="#5470c6" ecmeta_series_index="0" ecmeta_data_index="6" ecmeta_ssr_type="chart" class="zr32-cls-158"></path>
<defs >
<clipPath id="zr32-c0">
<path d="M59 59l482 0l0 322l-482 0Z" fill="#000" class="zr32-cls-156"></path>
</clipPath>
</defs>
<style ><![CDATA[
.zr32-cls-155:hover {
pointer-events:none;
}
.zr32-cls-156:hover {
cursor:pointer;
fill:rgba(0,0,0,1);
}
.zr32-cls-157:hover {
cursor:pointer;
}
.zr32-cls-158:hover {
cursor:pointer;
fill:rgba(92,123,217,1);
}

]]>

</style>
</svg>