<svg width="600" height="450" xmlns="http://www.w3.org/2000/svg" xmlns:xlink="http://www.w3.org/1999/xlink" version="1.1" baseProfile="full" viewBox="0 0 600 450">
<rect width="600" height="450" x="0" y="0" id="0" fill="none"></rect>
<path d="M56.2 416.5L576 416.5" fill="none" stroke="#E0E6F1"></path>
<path d="M56.2 345.5L576 345.5" fill="none" stroke="#E0E6F1"></path>
<path d="M56.2 274.5L576 274.5" fill="none" stroke="#E0E6F1"></path>
<path d="M56.2 202.5L576 202.5" fill="none" stroke="#E0E6F1"></path>
<path d="M56.2 131.5L576 131.5" fill="none" stroke="#E0E6F1"></path>
<path d="M56.2 60.5L576 60.5" fill="none" stroke="#E0E6F1"></path>
<path d="M56.2 416.5L576 416.5" fill="none" stroke="#6E7079" stroke-linecap="round"></path>
<path d="M56.5 416.5L56.5 421.5" fill="none" stroke="#6E7079"></path>
<path d="M143.5 416.5L143.5 421.5" fill="none" stroke="#6E7079"></path>
<path d="M229.5 416.5L229.5 421.5" fill="none" stroke="#6E7079"></path>
<path d="M316.5 416.5L316.5 421.5" fill="none" stroke="#6E7079"></path>
<path d="M402.5 416.5L402.5 421.5" fill="none" stroke="#6E7079"></path>
<path d="M489.5 416.5L489.5 421.5" fill="none" stroke="#6E7079"></path>
<path d="M576.5 416.5L576.5 421.5" fill="none" stroke="#6E7079"></path>
<text dominant-baseline="central" text-anchor="end" style="font-size:12px;font-family:sans-serif;" transform="translate(48.24 416.5)" fill="#6E7079">0</text>
<text dominant-baseline="central" text-anchor="end" style="font-size:12px;font-family:sans-serif;" transform="translate(48.24 345.2)" fill="#6E7079">300</text>
<text dominant-baseline="central" text-anchor="end" style="font-size:12px;font-family:sans-serif;" transform="translate(48.24 273.9)" fill="#6E7079">600</text>
<text dominant-baseline="central" text-anchor="end" style="font-size:12px;font-family:sans-serif;" transform="translate(48.24 202.6)" fill="#6E7079">900</text>
<text dominant-baseline="central" text-anchor="end" style="font-size:12px;font-family:sans-serif;" transform="translate(48.24 131.3)" fill="#6E7079">1,200</text>
<text dominant-baseline="central" text-anchor="end" style="font-size:12px;font-family:sans-serif;" transform="translate(48.24 60)" fill="#6E7079">1,500</text>
<text dominant-baseline="central" text-anchor="middle" style="font-size:12px;font-family:sans-serif;" y="6" transform="translate(56.24 424.5)" fill="#6E7079">Mon</text>
<text dominant-baseline="central" text-anchor="middle" style="font-size:12px;font-family:sans-serif;" y="6" transform="translate(142.8667 424.5)" fill="#6E7079">Tue</text>
<text dominant-baseline="central" text-anchor="middle" style="font-size:12px;font-family:sans-serif;" y="6" transform="translate(229.4933 424.5)" fill="#6E7079">Wed</text>
<text dominant-baseline="central" text-anchor="middle" style="font-size:12px;font-family:sans-serif;" y="6" transform="translate(316.12 424.5)" fill="#6E7079">Thu</text>
<text dominant-baseline="central" text-anchor="middle" style="font-size:12px;font-family:sans-serif;" y="6" transform="translate(402.7467 424.5)" fill="#6E7079">Fri</text>
<text dominant-baseline="central" text-anchor="middle" style="font-size:12px;font-family:sans-serif;" y="6" transform="translate(489.3733 424.5)" fill="#6E7079">Sat</text>
<text dominant-baseline="central" text-anchor="middle" style="font-size:12px;font-family:sans-serif;" y="6" transform="translate(576 424.5)" fill="#6E7079">Sun</text>
<g clip-path="url(#zr27-c0)">
<path d="M56.2 383.2C56.2 383.2 100.2 361.4 142.9 361.4C186.8 361.4 186.8 392.5 229.5 392.5C273.5 392.5 273.1 353.8 316.1 353.8C359.7 353.8 361.4 395.1 402.7 395.1C448 395.1 442.5 335.7 489.4 335.7C529.2 335.7 576 357.1 576 357.1L576 416.5L489.4 416.5L402.7 416.5L316.1 416.5L229.5 416.5L142.9 416.5L56.2 416.5Z" fill="url(#zr27-g0)" fill-opacity="0.8"></path>
</g>
<g clip-path="url(#zr27-c1)">
<path d="M56.2 354.7C56.2 354.7 100.9 294.3 142.9 294.3C187.6 294.3 185.7 366.1 229.5 366.1C272.3 366.1 270.2 298.1 316.1 298.1C356.8 298.1 364.5 342.8 402.7 342.8C451.2 342.8 439.6 254.9 489.4 254.9C526.2 254.9 576 283.4 576 283.4L576 357.1C576 357.1 529.2 335.7 489.4 335.7C442.5 335.7 448 395.1 402.7 395.1C361.4 395.1 359.7 353.8 316.1 353.8C273.1 353.8 273.5 392.5 229.5 392.5C186.8 392.5 186.8 361.4 142.9 361.4C100.2 361.4 56.2 383.2 56.2 383.2Z" fill="url(#zr27-g1)" fill-opacity="0.8"></path>
</g>
<g clip-path="url(#zr27-c2)">
<path d="M56.2 278.7C56.2 278.7 102.9 263 142.9 263C189.5 263 191.6 318.3 229.5 318.3C278.2 318.3 270.2 218.8 316.1 218.8C356.9 218.8 358.8 297.7 402.7 297.7C445.4 297.7 440.3 224 489.4 224C526.9 224 576 231.1 576 231.1L576 283.4C576 283.4 526.2 254.9 489.4 254.9C439.6 254.9 451.2 342.8 402.7 342.8C364.5 342.8 356.8 298.1 316.1 298.1C270.2 298.1 272.3 366.1 229.5 366.1C185.7 366.1 187.6 294.3 142.9 294.3C100.9 294.3 56.2 354.7 56.2 354.7Z" fill="url(#zr27-g2)" fill-opacity="0.8"></path>
</g>
<g clip-path="url(#zr27-c3)">
<path d="M56.2 226.4C56.2 226.4 104.1 167.4 142.9 167.4C190.7 167.4 183.8 263.4 229.5 263.4C270.4 263.4 271.5 186.9 316.1 186.9C358.1 186.9 361.6 252.5 402.7 252.5C448.2 252.5 440.5 169.3 489.4 169.3C527.1 169.3 576 202.6 576 202.6L576 231.1C576 231.1 526.9 224 489.4 224C440.3 224 445.4 297.7 402.7 297.7C358.8 297.7 356.9 218.8 316.1 218.8C270.2 218.8 278.2 318.3 229.5 318.3C191.6 318.3 189.5 263 142.9 263C102.9 263 56.2 278.7 56.2 278.7Z" fill="url(#zr27-g3)" fill-opacity="0.8"></path>
</g>
<g clip-path="url(#zr27-c4)">
<path d="M56.2 174.1C56.2 174.1 105.2 95.7 142.9 95.7C191.8 95.7 181.8 220.4 229.5 220.4C268.5 220.4 270.6 131.3 316.1 131.3C357.2 131.3 363.3 202.6 402.7 202.6C449.9 202.6 441.7 100.4 489.4 100.4C528.3 100.4 576 166.9 576 166.9L576 202.6C576 202.6 527.1 169.3 489.4 169.3C440.5 169.3 448.2 252.5 402.7 252.5C361.6 252.5 358.1 186.9 316.1 186.9C271.5 186.9 270.4 263.4 229.5 263.4C183.8 263.4 190.7 167.4 142.9 167.4C104.1 167.4 56.2 226.4 56.2 226.4Z" fill="url(#zr27-g4)" fill-opacity="0.8"></path>
</g>
<g clip-path="url(#zr27-c0)">
<path d="M56.2 383.2C56.2 383.2 100.2 361.4 142.9 361.4C186.8 361.4 186.8 392.5 229.5 392.5C273.5 392.5 273.1 353.8 316.1 353.8C359.7 353.8 361.4 395.1 402.7 395.1C448 395.1 442.5 335.7 489.4 335.7C529.2 335.7 576 357.1 576 357.1" fill="none" stroke="#80ffa5" stroke-width="0" stroke-linejoin="bevel"></path>
</g>
<g clip-path="url(#zr27-c1)">
<path d="M56.2 354.7C56.2 354.7 100.9 294.3 142.9 294.3C187.6 294.3 185.7 366.1 229.5 366.1C272.3 366.1 270.2 298.1 316.1 298.1C356.8 298.1 364.5 342.8 402.7 342.8C451.2 342.8 439.6 254.9 489.4 254.9C526.2 254.9 576 283.4 576 283.4" fill="none" stroke="#00ddff" stroke-width="0" stroke-linejoin="bevel"></path>
</g>
<g clip-path="url(#zr27-c2)">
<path d="M56.2 278.7C56.2 278.7 102.9 263 142.9 263C189.5 263 191.6 318.3 229.5 318.3C278.2 318.3 270.2 218.8 316.1 218.8C356.9 218.8 358.8 297.7 402.7 297.7C445.4 297.7 440.3 224 489.4 224C526.9 224 576 231.1 576 231.1" fill="none" stroke="#37a2ff" stroke-width="0" stroke-linejoin="bevel"></path>
</g>
<g clip-path="url(#zr27-c3)">
<path d="M56.2 226.4C56.2 226.4 104.1 167.4 142.9 167.4C190.7 167.4 183.8 263.4 229.5 263.4C270.4 263.4 271.5 186.9 316.1 186.9C358.1 186.9 361.6 252.5 402.7 252.5C448.2 252.5 440.5 169.3 489.4 169.3C527.1 169.3 576 202.6 576 202.6" fill="none" stroke="#ff0087" stroke-width="0" stroke-linejoin="bevel"></path>
</g>
<g clip-path="url(#zr27-c4)">
<path d="M56.2 174.1C56.2 174.1 105.2 95.7 142.9 95.7C191.8 95.7 181.8 220.4 229.5 220.4C268.5 220.4 270.6 131.3 316.1 131.3C357.2 131.3 363.3 202.6 402.7 202.6C449.9 202.6 441.7 100.4 489.4 100.4C528.3 100.4 576 166.9 576 166.9" fill="none" stroke="#ffbf00" stroke-width="0" stroke-linejoin="bevel"></path>
</g>
<path d="M-5 -5l364.4 0l0 23.2l-364.4 0Z" transform="translate(122.8 5)" fill="rgb(0,0,0)" fill-opacity="0" stroke="#ccc" stroke-width="0"></path>
<path d="M0 7L25 7" transform="translate(122.8 4.6)" fill="#000" stroke="#80ffa5" stroke-width="0" stroke-linecap="butt" stroke-miterlimit="10"></path>
<path d="M18.1 7A5.6 5.6 0 1 1 18.1 6.4A5.6 5.6 0 0 1 18.1 7" transform="translate(122.8 4.6)" fill="#fff" stroke="#80ffa5" stroke-width="2" stroke-linecap="butt" stroke-miterlimit="10"></path>
<text dominant-baseline="central" text-anchor="start" style="font-size:12px;font-family:sans-serif;" xml:space="preserve" x="30" y="7" transform="translate(122.8 4.6)" fill="#333">Line 1</text>
<path d="M0 7L25 7" transform="translate(195.68 4.6)" fill="#000" stroke="#00ddff" stroke-width="0" stroke-linecap="butt" stroke-miterlimit="10"></path>
<path d="M18.1 7A5.6 5.6 0 1 1 18.1 6.4A5.6 5.6 0 0 1 18.1 7" transform="translate(195.68 4.6)" fill="#fff" stroke="#00ddff" stroke-width="2" stroke-linecap="butt" stroke-miterlimit="10"></path>
<text dominant-baseline="central" text-anchor="start" style="font-size:12px;font-family:sans-serif;" xml:space="preserve" x="30" y="7" transform="translate(195.68 4.6)" fill="#333">Line 2</text>
<path d="M0 7L25 7" transform="translate(268.56 4.6)" fill="#000" stroke="#37a2ff" stroke-width="0" stroke-linecap="butt" stroke-miterlimit="10"></path>
<path d="M18.1 7A5.6 5.6 0 1 1 18.1 6.4A5.6 5.6 0 0 1 18.1 7" transform="translate(268.56 4.6)" fill="#fff" stroke="#37a2ff" stroke-width="2" stroke-linecap="butt" stroke-miterlimit="10"></path>
<text dominant-baseline="central" text-anchor="start" style="font-size:12px;font-family:sans-serif;" xml:space="preserve" x="30" y="7" transform="translate(268.56 4.6)" fill="#333">Line 3</text>
<path d="M0 7L25 7" transform="translate(341.44 4.6)" fill="#000" stroke="#ff0087" stroke-width="0" stroke-linecap="butt" stroke-miterlimit="10"></path>
<path d="M18.1 7A5.6 5.6 0 1 1 18.1 6.4A5.6 5.6 0 0 1 18.1 7" transform="translate(341.44 4.6)" fill="#fff" stroke="#ff0087" stroke-width="2" stroke-linecap="butt" stroke-miterlimit="10"></path>
<text dominant-baseline="central" text-anchor="start" style="font-size:12px;font-family:sans-serif;" xml:space="preserve" x="30" y="7" transform="translate(341.44 4.6)" fill="#333">Line 4</text>
<path d="M0 7L25 7" transform="translate(414.32 4.6)" fill="#000" stroke="#ffbf00" stroke-width="0" stroke-linecap="butt" stroke-miterlimit="10"></path>
<path d="M18.1 7A5.6 5.6 0 1 1 18.1 6.4A5.6 5.6 0 0 1 18.1 7" transform="translate(414.32 4.6)" fill="#fff" stroke="#ffbf00" stroke-width="2" stroke-linecap="butt" stroke-miterlimit="10"></path>
<text dominant-baseline="central" text-anchor="start" style="font-size:12px;font-family:sans-serif;" xml:space="preserve" x="30" y="7" transform="translate(414.32 4.6)" fill="#333">Line 5</text>
<path d="M-14 -15l28 0l0 30l-28 0Z" transform="translate(586.0216 15)" fill="none" stroke="#ccc" stroke-width="0"></path>
<path d="M-5 -5l242 0l0 28l-242 0Z" transform="translate(5 5)" fill="rgb(0,0,0)" fill-opacity="0" stroke="#ccc" stroke-width="0"></path>
<path d="M-6.5 -1.6L-0.1 4.3L6.5 -1.4M-6.5 3.8L-6.5 7.5L6.2 7.5L6.2 3.8M-0.1 4.2L-0.1 -7.5" transform="translate(586.0216 15)" fill="none" stroke="#666"></path>
<text dominant-baseline="central" text-anchor="start" style="font-size:18px;font-family:sans-serif;font-weight:bold;" xml:space="preserve" y="9" transform="translate(5 5)" fill="#464646">Gradient Stacked Area Chart</text>
<defs >
<clipPath id="zr27-c0">
<path d="M55 59l522 0l0 358.5l-522 0Z" fill="#000"></path>
</clipPath>
<linearGradient gradientUnits="objectBoundingBox" x1="0" y1="0" x2="0" y2="1" id="zr27-g0">
<stop offset="0%" stop-color="rgb(128, 255, 165)"></stop>
<stop offset="100%" stop-color="rgb(1, 191, 236)"></stop>
</linearGradient>
<clipPath id="zr27-c1">
<path d="M55 59l522 0l0 358.5l-522 0Z" fill="#000"></path>
</clipPath>
<linearGradient gradientUnits="objectBoundingBox" x1="0" y1="0" x2="0" y2="1" id="zr27-g1">
<stop offset="0%" stop-color="rgb(0, 221, 255)"></stop>
<stop offset="100%" stop-color="rgb(77, 119, 255)"></stop>
</linearGradient>
<clipPath id="zr27-c2">
<path d="M55 59l522 0l0 358.5l-522 0Z" fill="#000"></path>
</clipPath>
<linearGradient gradientUnits="objectBoundingBox" x1="0" y1="0" x2="0" y2="1" id="zr27-g2">
<stop offset="0%" stop-color="rgb(55, 162, 255)"></stop>
<stop offset="100%" stop-color="rgb(116, 21, 219)"></stop>
</linearGradient>
<clipPath id="zr27-c3">
<path d="M55 59l522 0l0 358.5l-522 0Z" fill="#000"></path>
</clipPath>
<linearGradient gradientUnits="objectBoundingBox" x1="0" y1="0" x2="0" y2="1" id="zr27-g3">
<stop offset="0%" stop-color="rgb(255, 0, 135)"></stop>
<stop offset="100%" stop-color="rgb(135, 0, 157)"></stop>
</linearGradient>
<clipPath id="zr27-c4">
<path d="M55 59l522 0l0 358.5l-522 0Z" fill="#000"></path>
</clipPath>
<linearGradient gradientUnits="objectBoundingBox" x1="0" y1="0" x2="0" y2="1" id="zr27-g4">
<stop offset="0%" stop-color="rgb(255, 191, 0)"></stop>
<stop offset="100%" stop-color="rgb(224, 62, 76)"></stop>
</linearGradient>
</defs>
</svg>