<svg width="600" height="450" xmlns="http://www.w3.org/2000/svg" xmlns:xlink="http://www.w3.org/1999/xlink" version="1.1" baseProfile="full" viewBox="0 0 600 450">
<rect width="600" height="450" x="0" y="0" fill="none"></rect>
<path d="M60 380.5L540 380.5" fill="transparent" stroke="#E0E6F1" class="zr35-cls-175"></path>
<path d="M60 326.5L540 326.5" fill="transparent" stroke="#E0E6F1" class="zr35-cls-175"></path>
<path d="M60 273.5L540 273.5" fill="transparent" stroke="#E0E6F1" class="zr35-cls-175"></path>
<path d="M60 220.5L540 220.5" fill="transparent" stroke="#E0E6F1" class="zr35-cls-175"></path>
<path d="M60 166.5L540 166.5" fill="transparent" stroke="#E0E6F1" class="zr35-cls-175"></path>
<path d="M60 113.5L540 113.5" fill="transparent" stroke="#E0E6F1" class="zr35-cls-175"></path>
<path d="M60 60.5L540 60.5" fill="transparent" stroke="#E0E6F1" class="zr35-cls-175"></path>
<path d="M60 380.5L540 380.5" fill="transparent" stroke="#6E7079" stroke-linecap="round" class="zr35-cls-175"></path>
<path d="M60.5 380L60.5 385" fill="transparent" stroke="#6E7079" class="zr35-cls-175"></path>
<path d="M138.5 380L138.5 385" fill="transparent" stroke="#6E7079" class="zr35-cls-175"></path>
<path d="M217.5 380L217.5 385" fill="transparent" stroke="#6E7079" class="zr35-cls-175"></path>
<path d="M296.5 380L296.5 385" fill="transparent" stroke="#6E7079" class="zr35-cls-175"></path>
<path d="M375.5 380L375.5 385" fill="transparent" stroke="#6E7079" class="zr35-cls-175"></path>
<path d="M453.5 380L453.5 385" fill="transparent" stroke="#6E7079" class="zr35-cls-175"></path>
<path d="M532.5 380L532.5 385" fill="transparent" stroke="#6E7079" class="zr35-cls-175"></path>
<text dominant-baseline="central" text-anchor="end" style="font-size:12px;font-family:sans-serif;" transform="translate(52 380)" fill="#6E7079">0</text>
<text dominant-baseline="central" text-anchor="end" style="font-size:12px;font-family:sans-serif;" transform="translate(52 326.6667)" fill="#6E7079">100</text>
<text dominant-baseline="central" text-anchor="end" style="font-size:12px;font-family:sans-serif;" transform="translate(52 273.3333)" fill="#6E7079">200</text>
<text dominant-baseline="central" text-anchor="end" style="font-size:12px;font-family:sans-serif;" transform="translate(52 220)" fill="#6E7079">300</text>
<text dominant-baseline="central" text-anchor="end" style="font-size:12px;font-family:sans-serif;" transform="translate(52 166.6667)" fill="#6E7079">400</text>
<text dominant-baseline="central" text-anchor="end" style="font-size:12px;font-family:sans-serif;" transform="translate(52 113.3333)" fill="#6E7079">500</text>
<text dominant-baseline="central" text-anchor="end" style="font-size:12px;font-family:sans-serif;" transform="translate(52 60)" fill="#6E7079">600</text>
<text dominant-baseline="central" text-anchor="middle" style="font-size:12px;font-family:sans-serif;" y="6" transform="translate(60 388)" fill="#6E7079">1968/09/04</text>
<text dominant-baseline="central" text-anchor="middle" style="font-size:12px;font-family:sans-serif;" y="6" transform="translate(138.72 388)" fill="#6E7079">1969/07/29</text>
<text dominant-baseline="central" text-anchor="middle" style="font-size:12px;font-family:sans-serif;" y="6" transform="translate(217.44 388)" fill="#6E7079">1970/06/22</text>
<text dominant-baseline="central" text-anchor="middle" style="font-size:12px;font-family:sans-serif;" y="6" transform="translate(296.16 388)" fill="#6E7079">1971/05/16</text>
<text dominant-baseline="central" text-anchor="middle" style="font-size:12px;font-family:sans-serif;" y="6" transform="translate(374.88 388)" fill="#6E7079">1972/04/08</text>
<text dominant-baseline="central" text-anchor="middle" style="font-size:12px;font-family:sans-serif;" y="6" transform="translate(453.6 388)" fill="#6E7079">1973/03/02</text>
<text dominant-baseline="central" text-anchor="middle" style="font-size:12px;font-family:sans-serif;" y="6" transform="translate(532.32 388)" fill="#6E7079">1974/01/24</text>
<g clip-path="url(#zr35-c0)">
<path d="M60 309.3L60.2 304.6L60.5 301.2L60.7 299L61 295.3L61.2 291.1L61.4 294.5L61.7 292.2L61.9 287.6L62.2 282.5L62.4 281L62.6 280.3L62.9 277.4L63.1 281L63.4 283.3L63.8 286.9L64.1 286.1L64.3 289.2L64.6 292.6L65 296.8L65.3 301.8L65.5 304L65.8 301.4L66 297.4L66.2 298.8L66.5 295.4L66.7 294L67 295.5L67.4 299.7L67.7 294.9L67.9 291.6L68.2 292.4L68.6 295.8L68.9 296.6L69.1 291.8L69.4 296.3L69.6 298.9L69.8 300.9L70.1 302.4L70.3 301L70.6 299.8L70.8 303L71 301.2L71.3 297.7L71.5 301.1L71.8 306.2L72 302.3L72.2 306.9L72.5 302.3L72.7 306L73 309.9L73.2 312.4L73.4 311.5L73.7 307.2L73.9 302.7L74.2 297.6L74.4 299.4L74.6 302.4L74.9 297.9L75.1 297.1L75.4 295.8L75.6 297.7L75.8 294.8L76.1 297.1L76.6 299.8L76.8 298.1L77 297L77.5 295.6L77.8 293.3L78 291.9L78.2 287.6L78.5 289.5L78.7 285.7L79 280.8L79.2 286.1L79.4 281.3L79.7 276.2L79.9 278L80.2 279.1L80.4 275.3L80.6 280.3L80.9 282.9L81.1 280.8L81.4 276L81.6 272.7L82.1 267.8L82.3 269.9L82.8 270.5L83 267.8L83.3 271L83.5 266.6L83.8 262.8L84 267.5L84.2 264.1L84.5 267.8L85 265L85.2 268.9L85.4 267.4L85.7 270.6L85.9 272.8L86.2 276.4L86.4 274.9L86.6 271.8L87.1 268.3L87.6 265.8L87.8 267L88.1 269.5L88.3 267L88.6 270.7L88.8 266.3L89 263.3L89.3 259.7L89.5 264.2L89.8 262.9L90.5 262.8L90.7 265.6L91 270.8L91.2 269.6L91.4 273.6L91.7 277.4L91.9 279.9L92.2 278.2L92.9 274.6L93.1 272.8L93.4 275.7L93.6 273.9L93.8 276.9L94.3 273.6L94.6 272.5L94.8 269.8L95 267.8L95.3 270.1L95.5 268.6L95.8 273.9L96 277.6L96.2 279.7L96.5 282.2L96.7 280.7L97 276.2L97.2 278.3L97.4 276.5L97.7 279.9L97.9 285.2L98.4 290.4L98.6 291.8L98.9 286.9L99.1 289.5L99.4 286.2L99.6 285.3L99.8 281.5L100.1 278.2L100.3 282.9L100.6 281L100.8 282.7L101 281.5L101.3 280.1L101.5 276L101.8 272.9L102 277L102.2 279.7L102.5 284.7L102.7 283.1L103 286.3L103.2 288L103.4 293L103.7 295.6L103.9 297L104.4 302.3L104.6 306.6L104.9 302.6L105.1 304L105.4 303.3L105.6 304.3L105.8 300L106.3 304.1L106.6 302.9L107 297.7L107.3 292.5L107.5 293.7L107.8 294.9L108 291.8L108.2 287.7L108.5 282.5L108.7 279.5L109 284.3L109.2 288.3L109.4 283.6L109.7 288.6L110.2 289.6L110.4 287.9L110.6 290.3L111.1 289.5L111.4 288.7L111.6 285.1L111.8 289.4L112.1 288.7L112.3 291.3L112.6 288.4L112.8 286.8L113 291.4L113.3 294.6L113.5 296.9L113.8 298.8L114 300.4L114.2 297.6L115 296.5L115.2 291.5L115.4 292.2L115.7 296.5L115.9 299L116.2 295.1L116.4 298L116.6 301.3L116.9 306.5L117.1 310.4L117.4 307.1L117.6 308.9L117.8 306L118.1 302.5L118.6 307.5L118.8 306.3L119 301.1L119.3 306.1L119.8 303.4L120 301.8L120.2 305.5L120.5 310.4L120.7 305.8L121 308.2L121.2 307.2L121.7 301.7L121.9 300.5L122.2 303.6L122.4 301.1L122.6 300.3L122.9 299.4L123.1 300.4L123.4 302.5L123.6 304.2L123.8 308.5L124.1 305.7L124.3 309.2L124.6 313.8L124.8 312.1L125 309.2L125.3 308.4L125.5 313.1L125.8 317.5L126 314.8L126.2 318.4L126.5 316.2L126.7 313.6L127 309.6L127.2 305.2L127.4 302L127.7 298.3L128.2 296.7L128.4 293.6L128.9 289.8L129.1 295.2L129.4 294.4L129.6 295.6L129.8 300.1L130.1 299.1L130.3 302.4L130.6 306.9L130.8 311.3L131 308.1L131.3 303.1L131.5 302.4L131.8 299.6L132 304.4L132.2 300.2L132.5 303.7L132.7 308.9L133 311.3L133.2 310.4L133.4 312.5L133.7 313.4L134.2 317.7L134.4 316.8L134.6 321.2L134.9 318.4L135.1 319.3L135.4 324.2L135.6 327.7L135.8 326.6L136.1 322.5L136.6 318.3L136.8 321.4L137 318.2L137.3 323.2L137.8 326.6L138 322L138.2 321.2L138.5 319.1L138.7 321.5L139 322.4L139.2 327.3L139.4 324.8L139.7 328.5L139.9 329.4L140.2 331.7L140.4 332.8L140.6 329.2L140.9 326.9L141.1 331.1L141.4 327.4L141.6 331.2L141.8 332.7L142.1 337.4L142.3 335L142.6 338.4L142.8 342.9L143 339.7L143.3 335.6L143.8 339.3L144 341.1L144.2 343.6L144.5 346.2L144.7 351.3L145.2 355.7L145.4 351.2L145.7 353.6L145.9 357.3L146.2 358.5L146.4 361.2L146.6 362.5L147.1 360.8L147.4 358.6L147.6 360.2L147.8 358.8L148.1 357.1L148.3 359.4L148.6 354.5L148.8 359.8L149 364L149.3 366.8L149.5 369.1L149.8 364L150.2 365.1L150.5 361.4L151 357.8L151.2 356.2L151.7 357.6L151.9 362.3L152.2 359L152.4 357.9L152.6 361.7L152.9 356.4L153.1 357.2L153.6 360.4L153.8 364.8L154.1 363.2L154.3 367.3L154.6 363.9L155 360.4L155.3 357.4L155.5 359.3L155.8 355.5L156 351L156.2 346.4L156.5 351.4L156.7 348.5L157 345.5L157.2 343.8L157.4 347.8L157.9 343.9L158.2 340.8L158.4 338.2L158.6 336.1L158.9 332.7L159.1 331.1L159.4 328.6L159.6 332L159.8 330.7L160.1 335.2L160.3 332.6L160.6 329.2L160.8 334.2L161.3 330.6L161.5 329.6L161.8 327.6L162 329L162.2 329.7L162.5 333.3L162.7 330.3L163 327.5L163.2 331.4L163.4 334.5L163.7 335.3L163.9 331L164.2 332.3L164.4 334.9L164.9 337.6L165.1 341.1L165.4 338.9L165.6 342.2L165.8 344.8L166.1 344.1L166.3 347.5L166.6 344.2L166.8 342.7L167 338.2L167.3 334.6L167.5 330L167.8 331.2L168 333.1L168.2 337.9L168.5 339.2L168.7 343.9L169.4 346.2L169.7 342.5L169.9 338.9L170.2 344.2L170.4 347.2L170.6 348.9L170.9 350.5L171.1 348.3L171.4 352.8L171.6 357.3L171.8 360.2L172.3 361.1L172.6 365.2L172.8 367.4L173.3 372.4L173.5 371.1L174 374.5L174.5 375.1L174.7 371.5L175 369.2L175.2 371.9L175.4 370.5L175.7 365.4L175.9 363.3L176.4 362.3L176.9 361.3L177.1 362.3L177.4 363.2L177.6 366.3L177.8 363.5L178.1 364.5L178.3 363.8L178.8 358.3L179 355.8L179.3 356.5L179.5 354.6L179.8 355.9L180 359.2L180.2 360.3L180.5 362.9L180.7 360.1L181.2 356.8L181.4 353.3L181.7 348.5L181.9 350.4L182.2 352.1L182.4 351.3L182.6 350.4L182.9 349.3L183.1 353.6L183.4 352.4L183.6 356.9L183.8 359.6L184.3 358.9L184.8 354.2L185.5 351.2L185.8 353.4L186 356.4L186.2 352L186.5 356.9L186.7 352.4L187 348.4L187.2 343.8L187.4 342L187.7 340.4L187.9 338.5L188.2 333.2L188.4 328L188.6 322.9L188.9 323.6L189.1 318.2L189.4 314L189.6 312.6L190.1 314L190.3 312L190.6 310.2L190.8 314.1L191 312.7L191.5 313.5L191.8 318.6L192 319.5L192.2 317.7L192.5 312.8L192.7 317.5L193 319.6L193.2 317.1L193.4 311.8L193.7 316.8L193.9 318.4L194.2 316.4L194.9 316.9L195.4 321.8L195.6 320.7L195.8 319.6L196.1 315.3L196.3 310.9L196.6 307.3L196.8 311.3L197 309.3L197.5 308.1L197.8 311.3L198 308.2L198.2 304.6L198.5 302.6L198.7 298.9L199 300.8L199.2 299.4L199.4 302.9L199.9 303.5L200.4 305.8L200.6 302L200.9 305.5L201.1 304.5L201.4 307L201.6 311.1L201.8 315.4L202.1 319.5L202.3 317.1L202.8 319.4L203 318.1L203.5 314.9L203.8 315.7L204.2 314.9L204.5 319.8L204.7 325L205 330.2L205.2 326.7L205.4 322.8L205.7 325.6L205.9 322.9L206.2 326.1L206.4 329.2L206.6 326.2L206.9 324.3L207.1 321.6L207.4 320.2L207.6 319.1L207.8 317.1L208.1 320.5L208.3 323.1L208.6 325.6L208.8 327.7L209 322.4L209.5 319.1L209.8 320.5L210 317.4L210.2 313.5L210.5 312.6L210.7 316.2L211 314.7L211.2 309.6L211.4 305.4L211.7 304L212.2 305.9L212.6 308.2L212.9 305.2L213.1 310.4L213.4 305.7L213.6 304.6L213.8 307.5L214.1 304.3L214.3 307.3L214.6 302.5L214.8 305.4L215 302.5L215.3 297.9L215.5 302.3L215.8 306L216.2 310.7L216.5 309.3L216.7 313.1L217 310.7L217.2 313.3L217.4 312.4L217.7 310.2L217.9 307.1L218.2 303.8L218.4 307.9L218.6 304.5L219.1 302.4L219.4 303.9L219.6 307.8L219.8 305.8L220.1 303L220.3 300.4L220.6 305.6L220.8 304.6L221.3 309L221.5 304.1L221.8 307.3L222 308.2L222.2 305.6L222.5 302.7L222.7 304.2L223 299.4L223.2 302.4L223.4 301.6L223.9 297.6L224.4 294.5L224.6 295.6L224.9 293.8L225.4 297.6L225.6 294.7L226.1 296.6L226.3 292.5L226.6 288.4L226.8 287.2L227.3 284.1L227.5 279.8L227.8 275.7L228 273.9L228.2 272.7L228.5 273.5L228.7 270.2L229 266.2L229.2 261.3L229.4 257.6L229.7 258.4L229.9 263.5L230.2 265.1L230.4 260.6L230.6 261.8L230.9 266.1L231.4 261.1L231.6 257.9L231.8 255.2L232.3 254.7L232.6 254L232.8 257.5L233 259.7L233.5 265.3L234 269.7L234.2 272.5L234.5 267.5L235 273L235.2 268.5L235.4 263.7L235.7 262.4L236.2 263.8L236.4 265.5L236.6 267.9L236.9 266.4L237.1 268.6L237.4 265.8L237.6 261.9L237.8 260.5L238.3 261.4L238.6 259L238.8 260.8L239 263L239.3 267.5L239.5 262.5L239.8 259.4L240 260.5L240.2 265.6L240.5 264.5L240.7 266.5L241 271.8L241.2 267.4L241.7 271.9L241.9 276.1L242.2 278.7L242.4 282.9L242.6 285.4L242.9 282.3L243.1 278.8L243.4 281.1L243.6 286.4L243.8 287.9L244.1 285L244.3 284.1L244.6 280.3L245 276.8L245.3 273.3L245.5 271L245.8 268.2L246 264.8L246.2 267.3L246.5 266.4L246.7 261.8L247 259.5L247.2 260.9L247.4 264.9L247.7 267.4L247.9 265.1L248.2 261.9L248.4 259.5L248.6 258.7L248.9 263.6L249.1 259L249.4 256.7L249.6 254.5L249.8 256.1L250.1 252.5L250.3 257.3L250.6 254.2L250.8 256.8L251.3 255.4L251.8 258.3L252.2 261L252.5 266L252.7 270.5L253 274L253.2 268.8L253.4 273.9L253.7 271.6L253.9 267.3L254.2 264L254.4 268.4L254.6 263.4L254.9 259.8L255.1 255.1L255.4 256.8L255.8 258.9L256.1 256.4L256.3 258.4L256.6 262.2L257 263.2L257.3 265.9L257.5 263.1L257.8 258.6L258 261.7L258.2 256.5L258.5 253L258.7 251.3L259 249L259.2 253.2L259.4 258L259.7 255.7L259.9 252.2L260.2 250.8L260.4 247L260.6 243.7L261.1 246.3L261.4 242.7L261.6 246.1L261.8 249L262.1 252.8L262.3 256.4L262.6 257.4L262.8 256.3L263 254.5L263.3 253.2L263.5 255.5L263.8 258.1L264 263.2L264.2 268.5L264.5 269.5L265 273.9L265.2 274.9L265.7 270.5L266.2 275.1L266.6 276.3L266.9 274.1L267.1 269.5L267.4 271.1L267.8 275.8L268.1 276.8L268.3 271.7L268.6 270.7L268.8 273.3L269 268.7L269.3 267L269.5 270L269.8 271.5L270 275.6L270.2 271.6L270.7 269.2L271 264.1L271.2 260.9L271.4 262.9L271.7 264.7L271.9 264L272.2 260.4L272.4 263.2L272.6 259.1L272.9 264L273.1 265.3L273.4 261.8L273.6 265.8L274.1 261.1L274.3 264.3L274.6 261.6L274.8 260.7L275.3 265.2L275.5 269.1L275.8 264.8L276 259.9L276.2 261.5L276.5 262.6L276.7 259.5L277 258L277.2 254.8L277.4 260L277.7 257.3L277.9 252L278.2 254.2L278.4 255.3L278.6 251.8L278.9 250.8L279.1 255.6L279.4 257.9L279.6 260.3L279.8 265.4L280.1 263.1L280.3 264.3L280.6 266.9L281 268.1L281.3 270.5L281.5 271.5L281.8 269.9L282 265L282.2 267.5L282.5 264.3L282.7 265.2L283 261.5L283.2 257.6L283.4 259.5L283.7 254.9L283.9 257.5L284.2 260.8L284.4 261.8L284.6 259.4L284.9 261L285.1 263L285.4 258.5L285.6 255.3L285.8 260.4L286.1 261.9L286.3 267.2L286.6 266.5L287 263.4L287.3 264.3L287.5 263.1L287.8 258.2L288.2 255.4L288.5 252.6L288.7 250.2L289 255.3L289.2 251.4L289.4 249.1L289.7 253.3L289.9 258.1L290.2 261.4L290.4 258.4L290.6 255.7L290.9 253.2L291.1 252.1L291.4 249.2L291.8 247.7L292.1 250.9L292.3 249L292.6 246L292.8 242.1L293 237.7L293.3 240.7L293.8 241.8L294 244.4L294.2 239.7L294.5 243.5L294.7 238.3L295 233.9L295.2 230.5L295.4 227.9L295.7 224.1L295.9 226.2L296.2 222.9L296.4 221.2L296.9 223.1L297.1 224.5L297.4 222.1L297.6 225.7L297.8 220.6L298.1 218.5L298.8 220L299 217.2L299.3 215.7L299.5 212.1L299.8 213.1L300 208.1L300.2 206.7L300.5 210.6L300.7 207.4L301.2 210.6L301.4 213.3L301.7 211.4L301.9 213.2L302.2 209.6L302.4 206.6L303.1 204.9L303.4 209L303.6 210L303.8 206L304.1 205.2L304.6 200.7L304.8 202.8L305 205.8L305.3 203.6L305.5 201.5L306 199.3L306.2 202.5L306.5 205.1L306.7 201.5L307 196.8L307.4 195.3L307.7 198.6L307.9 201.6L308.2 204.3L308.4 200.4L308.6 201.1L309.1 195.9L309.4 201.1L309.6 204.7L309.8 206.9L310.1 207.7L310.3 204.5L310.6 202.3L310.8 207.1L311 204.2L311.3 207.5L311.5 211.7L311.8 216.6L312 212.9L312.2 215.5L312.5 220.5L312.7 221.9L313 224.6L313.2 220.3L313.7 225L313.9 229.4L314.2 225.6L314.4 229.5L314.6 226.5L314.9 223.5L315.1 220.2L315.4 216.7L315.6 214L315.8 210.2L316.3 211.1L316.6 206.5L316.8 207.3L317 204.5L317.3 202.4L317.5 205.1L317.8 201.1L318 204.2L318.2 199.7L318.5 197.7L318.7 195.8L319 199.3L319.2 203.2L319.4 205.3L319.7 202.1L319.9 200L320.2 199L320.4 194.8L320.6 192.3L320.9 187.4L321.1 185.4L321.4 190.4L321.6 193.2L321.8 188L322.1 187.1L322.3 189.8L322.6 185.6L322.8 182.2L323.3 177.9L323.5 177.1L323.8 179.8L324 175.4L324.2 170.7L324.5 169L324.7 168.2L325 165.3L325.2 170L325.4 166.3L325.7 169.9L325.9 172.6L326.2 171.5L326.4 170L326.6 169L327.1 170.4L327.4 173.2L327.6 177.6L327.8 174.7L328.1 179.6L328.6 181.5L328.8 185.6L329 184L329.3 186.9L329.5 184.7L329.8 180.7L330 178.7L330.2 175.9L331 171.5L331.4 170.4L331.7 166.8L332.2 169.9L332.4 171.2L332.6 176.3L332.9 178L333.1 181.4L333.4 185.8L333.6 184.7L333.8 189.8L334.1 187.3L334.3 188.6L334.6 193.6L335 194.4L335.3 192.2L335.5 195.3L335.8 191.1L336.2 188.9L336.5 183.7L336.7 185.7L337 189.4L337.2 187.1L337.4 188.5L337.7 191.1L337.9 196.2L338.2 192L338.4 188L338.6 183.2L338.9 178.7L339.1 180.7L339.4 178.7L339.6 174.4L339.8 175.3L340.1 173.4L340.3 177.1L340.6 175.4L340.8 171.7L341 168.4L341.5 173.6L341.8 178.8L342 176.5L342.5 173.9L342.7 172.3L343 171.2L343.2 172.6L343.4 174L343.7 177.1L344.2 179.9L344.4 185.1L344.9 186.2L345.1 187.3L345.4 191.6L345.6 187.3L345.8 185L346.1 186L346.3 188L346.6 191.3L346.8 189.9L347.3 187L347.5 183.5L347.8 188.4L348 192.8L348.2 193.8L348.5 192.2L348.7 197.2L349 193.9L349.2 189.9L349.4 188.2L349.7 184.5L349.9 182.1L350.2 185.7L350.4 187.7L350.6 184.6L350.9 181.2L351.1 182.5L351.6 187.1L351.8 184.3L352.1 183.3L352.3 186.7L352.6 187.5L352.8 189.6L353 187.4L353.3 189.2L353.5 193.9L353.8 198L354 199.4L354.2 194.5L354.5 197.6L355 198.8L355.2 196.6L355.4 200.6L355.9 197.3L356.2 192.3L356.4 195.1L356.6 200.4L356.9 202.5L357.1 207.6L357.4 203.9L357.6 203.1L357.8 199.2L358.3 198.5L358.8 203L359 205.9L359.3 200.9L359.8 203L360 198.6L360.2 203.9L360.5 201L360.7 203.6L361 200.2L361.2 198.9L361.4 203.1L361.7 200.7L361.9 198.7L362.4 201.4L362.9 200.7L363.1 205.9L363.4 205L363.6 207.7L364.1 212.3L364.6 208.1L364.8 210L365 205.7L365.3 204.7L365.5 205.4L365.8 208.6L366.2 212.6L366.5 214.6L366.7 215.6L367 217.4L367.2 216.6L367.4 219.6L367.7 218.4L368.2 213.8L368.4 211.8L368.6 209.9L369.4 209.9L369.6 207.9L369.8 207.1L370.6 207.4L371 211.8L371.3 208L371.5 210.5L371.8 211.8L372 215.7L372.5 213.5L372.7 212.7L373 211.4L373.2 208.4L373.4 203.2L373.7 200.3L373.9 201.6L374.2 204.7L374.4 208.4L374.6 212.4L375.1 215.9L375.4 214.8L375.6 210L376.1 207.5L376.3 205.6L376.6 202.8L376.8 197.9L377 200.7L377.3 195.6L377.5 196.3L377.8 198.8L378 199.7L378.2 198.1L378.5 199.7L378.7 202.6L379 198.7L379.2 195.1L379.4 196.1L379.7 200.6L379.9 196.6L380.2 192.5L380.4 197.1L380.6 199.9L380.9 195.8L381.1 196.6L381.4 195.3L381.6 198.3L381.8 196.8L382.1 198.4L382.6 202.1L382.8 201L383.3 206.1L384 207.7L384.5 212.2L384.7 217.2L385 220.2L385.2 219.2L385.7 222.4L385.9 220.2L386.2 219.4L386.4 222.4L386.6 226L387.1 225.2L387.4 228L387.8 230L388.6 229.1L388.8 223.9L389 222.4L389.3 227.1L389.5 227.8L389.8 225.5L390 224.4L390.2 223.3L390.5 225.4L390.7 221L391 222.6L391.2 224L391.4 221.3L391.7 219.6L391.9 223.1L392.2 218.4L392.4 217.3L392.6 212.6L393.4 210.5L393.8 212.8L394.1 216.7L394.3 213.7L394.6 215.5L395 210.5L395.5 211.5L395.8 215.4L396 211L396.2 206.4L396.5 210.9L396.7 212.9L397 208.4L397.2 213.3L397.4 209.1L397.7 207.1L397.9 204.7L398.2 209.7L398.4 206.2L398.6 210.2L398.9 214.1L399.1 217.2L399.4 220.2L399.6 218.8L399.8 223.6L400.1 226.3L400.3 229.3L400.6 232.3L400.8 234.9L401 238.3L401.5 236.2L401.8 239.5L402 238.3L402.2 240.6L402.5 241.4L402.7 239.9L403 237.1L403.2 232L403.4 228.4L403.7 227.5L403.9 225.4L404.2 227.8L404.4 225.8L404.6 228.8L405.4 226.1L405.6 221.7L405.8 223.7L406.1 229L406.3 227L406.6 231.8L406.8 229.1L407 231.1L407.3 228.7L407.5 232.2L408 228.8L408.2 227.3L408.5 223.2L408.7 227.4L409 222.4L409.2 221.4L409.4 219.9L409.7 214.9L409.9 212.1L410.2 213.5L410.4 212L410.6 215.3L410.9 219.5L411.1 216.9L411.4 218L411.6 216.6L411.8 220.8L412.1 225.6L412.3 228.1L412.6 223.6L412.8 226.6L413.3 221.1L413.5 218.6L413.8 216.1L414 213.9L414.2 212.4L414.5 210L414.7 206.6L415 211.2L415.2 206.1L415.4 203.3L415.7 206.5L415.9 210.5L416.2 215.2L416.4 214.4L416.6 211.4L417.1 213.8L417.4 212.3L417.6 213.4L417.8 209.7L418.1 204.7L418.3 207.7L418.6 211.3L419 214.7L419.3 217.2L419.5 222.2L419.8 223.9L420 218.9L420.2 217.8L420.5 222L420.7 216.9L421 217.6L421.2 212.8L421.4 211.6L421.7 213.3L421.9 216.7L422.2 213.7L422.4 208.7L422.6 212L422.9 213.4L423.1 209.5L423.4 206.6L423.6 202L423.8 205.5L424.1 200.5L424.3 197.1L424.6 193.2L424.8 191.3L425 194L425.5 189L425.8 192.5L426 190.5L426.2 186.4L426.5 187.8L427 191.5L427.2 187.5L427.4 189.6L427.7 187.8L427.9 186L428.2 187.7L428.4 191.3L428.6 192.4L428.9 193.8L429.1 189.5L429.4 193.7L429.6 195.7L429.8 197.2L430.1 196.1L430.3 192.5L430.6 195.4L431 192L431.5 197.3L431.8 192.6L432 193.4L432.2 190.1L432.5 194.8L433 200L433.2 202.8L433.4 201.4L433.7 205.3L433.9 206.2L434.2 207L434.4 203.6L434.6 206.3L434.9 205.3L435.1 202.2L435.4 206.2L435.6 204.5L435.8 209.4L436.1 207.2L436.6 208.9L436.8 210.7L437 215.3L437.3 216.4L437.5 221.4L437.8 219.7L438.2 223.5L438.5 227.6L438.7 224.9L439.2 226.8L439.4 221.8L439.7 223.8L439.9 220.5L440.2 216.4L440.4 221L440.6 226.1L440.9 227.7L441.1 231.9L441.4 234.4L441.6 235.1L441.8 239.4L442.1 236.4L442.3 237.7L442.6 242.2L442.8 238.4L443 237L443.8 235.4L444 231.5L444.2 226.8L444.5 231.6L444.7 232.7L445 227.7L445.2 232.6L445.4 237.1L445.7 240.8L445.9 238.7L446.4 241.5L446.6 237.6L446.9 236.3L447.4 237.6L447.6 241.3L447.8 239.3L448.1 236.3L448.6 231L448.8 226.3L449 222.2L449.3 227.2L449.5 222.6L450 221.7L450.2 222.6L450.7 219.5L451 215.8L451.2 218.3L451.4 213.4L451.7 214.4L451.9 217.7L452.2 219.5L452.6 218.8L452.9 215.2L453.1 216.6L453.4 215.2L453.6 217.9L453.8 216.7L454.1 214L454.3 216.8L454.6 214.2L455 216.9L455.3 213.8L455.5 211.6L456 206.9L456.2 201.6L456.5 203.3L456.7 204.8L457 208.4L457.2 210.7L457.4 207.6L457.9 211.2L458.2 210.5L458.4 215L458.6 214.2L458.9 209.2L459.1 205.2L459.4 208.3L459.6 206.5L459.8 203.8L460.1 200.1L460.3 203.8L460.6 201.8L460.8 200.4L461 196.5L461.3 198.2L461.5 197.5L461.8 201.4L462 196.9L462.2 201.3L462.5 198.1L463 196.4L463.2 200.3L463.7 205.5L463.9 209.2L464.2 212.7L464.6 211.5L464.9 206.6L465.1 203.2L465.4 200.7L465.6 202.7L465.8 197.8L466.3 193.4L466.8 194.6L467 193.4L467.3 191.4L467.5 187L468 191.1L468.2 195.5L468.5 190.9L468.7 195.3L469 200.6L469.2 198.3L469.4 197.4L469.7 195.2L469.9 189.9L470.4 188.1L470.6 188.9L470.9 185.2L471.1 181.6L471.6 183.4L471.8 188.7L472.1 189.7L472.3 188.6L472.6 187.6L472.8 188.3L473 183.8L473.3 181.8L473.5 181.1L473.8 179L474 182.9L474.2 181.6L474.5 179.6L474.7 177.3L475 180.7L475.2 179.8L475.4 175L475.7 172.1L475.9 167.9L476.2 169.5L476.4 168.5L476.6 171.6L476.9 168.3L477.1 170.3L477.4 174L477.6 175.5L477.8 172.5L478.1 177.4L478.6 175.6L478.8 179.2L479 180.3L479.3 175L479.5 172L479.8 169.5L480 173.5L480.2 172.8L480.5 174.4L480.7 178.6L481 173.6L481.2 174.6L481.4 170.9L481.7 175.1L481.9 175.8L482.2 173.9L482.6 171.2L482.9 175.5L483.1 171.5L483.4 173L483.6 176.4L483.8 178.1L484.1 176.3L484.3 177.2L484.6 174.6L484.8 177.1L485 172.5L485.3 175.8L485.5 178L485.8 173.9L486 172L486.2 168.5L486.5 166.8L486.7 164.9L487 161L487.4 159.9L487.7 156.8L487.9 159.4L488.4 161.9L488.9 162.9L489.4 165.9L489.6 162.3L489.8 160.4L490.1 157.9L490.3 159.3L490.6 157.2L490.8 154.8L491 151.9L491.3 156.8L491.5 160.3L491.8 163.8L492 160.3L492.2 161L492.5 162.3L492.7 164.5L493 163.8L493.4 160.3L493.7 157.1L493.9 157.8L494.2 152.8L494.4 152L494.6 147.2L494.9 143.2L495.1 139.6L495.4 144.8L495.6 146.6L495.8 149.9L496.1 148.9L496.6 147.7L496.8 148.8L497 149.5L497.3 148.5L497.5 143.8L497.8 147.7L498 150.2L498.2 148.2L498.5 153.2L498.7 152.4L499 147L499.2 142.8L499.4 144.1L499.9 140.2L500.2 138.5L500.4 133.5L500.6 128.2L500.9 131.1L501.1 134.7L501.4 139L501.6 140.4L501.8 144.4L502.3 143.8L502.6 145.7L503 147.3L503.3 150.9L503.5 155.3L503.8 152.2L504 153.8L504.2 152.9L504.5 148.1L504.7 150.5L505 146.1L505.2 150.2L505.4 151.6L505.7 156.8L505.9 154.4L506.4 158.8L506.6 162.5L506.9 159.7L507.1 163.1L507.6 167.2L507.8 165.2L508.1 164.5L508.3 159.7L508.6 162.4L509 158.4L509.3 160.2L509.5 165.1L509.8 167.3L510 165.6L510.2 161.5L510.5 158L510.7 156.7L511 152.4L511.2 148.4L511.7 144.4L512.2 139.5L512.4 134.6L512.6 133.9L512.9 129.5L513.1 133.3L513.6 137.4L513.8 135L514.3 130.6L514.6 126.9L514.8 123.3L515 125.5L515.3 120.9L515.5 124L515.8 128L516 133.2L516.2 129.3L516.5 128.6L516.7 130.4L517 127.3L517.2 123.4L517.4 128.2L517.7 126.8L517.9 129.5L518.2 127.8L518.4 129.2L518.6 131.8L518.9 135L519.4 131.2L519.6 133L519.8 130.7L520.1 126.7L520.6 130.8L521 127.4L521.3 124.4L521.5 126.2L521.8 123L522 120.3L522.2 115.7L522.7 112.2L523 110.8L523.2 114.3L523.4 116.1L523.7 118.3L523.9 119.5L524.2 120.6L524.6 121.5L524.9 119.9L525.4 122.6L525.6 127.7L526.1 132.3L526.3 136.9L526.6 137.6L526.8 134.9L527 140.1L527.3 140.8L527.5 138.5L527.8 139.8L528.2 138.9L528.5 138.2L528.7 136.2L529 137.6L529.2 135.4L529.4 138.1L529.7 132.9L529.9 136.4L530.2 131.1L530.4 134.7L530.6 139.9L530.9 145.2L531.1 140.4L531.4 135.2L531.6 131.6L531.8 129.2L532.1 133.1L532.3 135.5L532.6 136.6L532.8 131.7L533 133.1L533.3 129.5L533.5 128.4L533.8 126.2L534 124.2L534.2 129.3L534.5 126.2L534.7 121.4L535 122.7L535.2 126.4L535.4 127.3L535.7 130.7L535.9 126.1L536.2 128.6L536.4 123.8L536.6 127.6L536.9 128.5L537.1 132.4L537.4 136.8L537.6 134.4L537.8 138.2L538.1 143.3L538.3 141.7L538.6 140.9L538.8 141.9L539 137.6L539.3 141.5L539.5 143L539.8 140.9L540 142.1L540 380L539.3 380L538.6 380L537.8 380L537.1 380L536.4 380L535.7 380L535 380L534.2 380L533.5 380L532.8 380L532.1 380L531.4 380L530.6 380L529.9 380L529.2 380L528.5 380L527.8 380L527 380L526.3 380L525.6 380L524.9 380L524.2 380L523.4 380L522.7 380L522 380L521.3 380L520.6 380L519.8 380L519.1 380L518.4 380L517.7 380L517 380L516.2 380L515.5 380L514.8 380L514.1 380L513.4 380L512.6 380L511.9 380L511.2 380L510.5 380L509.8 380L509 380L508.3 380L507.6 380L506.9 380L506.2 380L505.4 380L504.7 380L504 380L503.3 380L502.6 380L501.8 380L501.1 380L500.4 380L499.7 380L499 380L498.2 380L497.5 380L496.8 380L496.1 380L495.4 380L494.6 380L493.9 380L493.2 380L492.5 380L491.8 380L491 380L490.3 380L489.6 380L488.9 380L488.2 380L487.4 380L486.7 380L486 380L485.3 380L484.6 380L483.8 380L483.1 380L482.4 380L481.7 380L481 380L480.2 380L479.5 380L478.8 380L478.1 380L477.4 380L476.6 380L475.9 380L475.2 380L474.5 380L473.8 380L473 380L472.3 380L471.6 380L470.9 380L470.2 380L469.4 380L468.7 380L468 380L467.3 380L466.6 380L465.8 380L465.1 380L464.4 380L463.7 380L463 380L462.2 380L461.5 380L460.8 380L460.1 380L459.4 380L458.6 380L457.9 380L457.2 380L456.5 380L455.8 380L455 380L454.3 380L453.6 380L452.9 380L452.2 380L451.4 380L450.7 380L450 380L449.3 380L448.6 380L447.8 380L447.1 380L446.4 380L445.7 380L445 380L444.2 380L443.5 380L442.8 380L442.1 380L441.4 380L440.6 380L439.9 380L439.2 380L438.5 380L437.8 380L437 380L436.3 380L435.6 380L434.9 380L434.2 380L433.4 380L432.7 380L432 380L431.3 380L430.6 380L429.8 380L429.1 380L428.4 380L427.7 380L427 380L426.2 380L425.5 380L424.8 380L424.1 380L423.4 380L422.6 380L421.9 380L421.2 380L420.5 380L419.8 380L419 380L418.3 380L417.6 380L416.9 380L416.2 380L415.4 380L414.7 380L414 380L413.3 380L412.6 380L411.8 380L411.1 380L410.4 380L409.7 380L409 380L408.2 380L407.5 380L406.8 380L406.1 380L405.4 380L404.6 380L403.9 380L403.2 380L402.5 380L401.8 380L401 380L400.3 380L399.6 380L398.9 380L398.2 380L397.4 380L396.7 380L396 380L395.3 380L394.6 380L393.8 380L393.1 380L392.4 380L391.7 380L391 380L390.2 380L389.5 380L388.8 380L388.1 380L387.4 380L386.6 380L385.9 380L385.2 380L384.5 380L383.8 380L383 380L382.3 380L381.6 380L380.9 380L380.2 380L379.4 380L378.7 380L378 380L377.3 380L376.6 380L375.8 380L375.1 380L374.4 380L373.7 380L373 380L372.2 380L371.5 380L370.8 380L370.1 380L369.4 380L368.6 380L367.9 380L367.2 380L366.5 380L365.8 380L365 380L364.3 380L363.6 380L362.9 380L362.2 380L361.4 380L360.7 380L360 380L359.3 380L358.6 380L357.8 380L357.1 380L356.4 380L355.7 380L355 380L354.2 380L353.5 380L352.8 380L352.1 380L351.4 380L350.6 380L349.9 380L349.2 380L348.5 380L347.8 380L347 380L346.3 380L345.6 380L344.9 380L344.2 380L343.4 380L342.7 380L342 380L341.3 380L340.6 380L339.8 380L339.1 380L338.4 380L337.7 380L337 380L336.2 380L335.5 380L334.8 380L334.1 380L333.4 380L332.6 380L331.9 380L331.2 380L330.5 380L329.8 380L329 380L328.3 380L327.6 380L326.9 380L326.2 380L325.4 380L324.7 380L324 380L323.3 380L322.6 380L321.8 380L321.1 380L320.4 380L319.7 380L319 380L318.2 380L317.5 380L316.8 380L316.1 380L315.4 380L314.6 380L313.9 380L313.2 380L312.5 380L311.8 380L311 380L310.3 380L309.6 380L308.9 380L308.2 380L307.4 380L306.7 380L306 380L305.3 380L304.6 380L303.8 380L303.1 380L302.4 380L301.7 380L301 380L300.2 380L299.5 380L298.8 380L298.1 380L297.4 380L296.6 380L295.9 380L295.2 380L294.5 380L293.8 380L293 380L292.3 380L291.6 380L290.9 380L290.2 380L289.4 380L288.7 380L288 380L287.3 380L286.6 380L285.8 380L285.1 380L284.4 380L283.7 380L283 380L282.2 380L281.5 380L280.8 380L280.1 380L279.4 380L278.6 380L277.9 380L277.2 380L276.5 380L275.8 380L275 380L274.3 380L273.6 380L272.9 380L272.2 380L271.4 380L270.7 380L270 380L269.3 380L268.6 380L267.8 380L267.1 380L266.4 380L265.7 380L265 380L264.2 380L263.5 380L262.8 380L262.1 380L261.4 380L260.6 380L259.9 380L259.2 380L258.5 380L257.8 380L257 380L256.3 380L255.6 380L254.9 380L254.2 380L253.4 380L252.7 380L252 380L251.3 380L250.6 380L249.8 380L249.1 380L248.4 380L247.7 380L247 380L246.2 380L245.5 380L244.8 380L244.1 380L243.4 380L242.6 380L241.9 380L241.2 380L240.5 380L239.8 380L239 380L238.3 380L237.6 380L236.9 380L236.2 380L235.4 380L234.7 380L234 380L233.3 380L232.6 380L231.8 380L231.1 380L230.4 380L229.7 380L229 380L228.2 380L227.5 380L226.8 380L226.1 380L225.4 380L224.6 380L223.9 380L223.2 380L222.5 380L221.8 380L221 380L220.3 380L219.6 380L218.9 380L218.2 380L217.4 380L216.7 380L216 380L215.3 380L214.6 380L213.8 380L213.1 380L212.4 380L211.7 380L211 380L210.2 380L209.5 380L208.8 380L208.1 380L207.4 380L206.6 380L205.9 380L205.2 380L204.5 380L203.8 380L203 380L202.3 380L201.6 380L200.9 380L200.2 380L199.4 380L198.7 380L198 380L197.3 380L196.6 380L195.8 380L195.1 380L194.4 380L193.7 380L193 380L192.2 380L191.5 380L190.8 380L190.1 380L189.4 380L188.6 380L187.9 380L187.2 380L186.5 380L185.8 380L185 380L184.3 380L183.6 380L182.9 380L182.2 380L181.4 380L180.7 380L180 380L179.3 380L178.6 380L177.8 380L177.1 380L176.4 380L175.7 380L175 380L174.2 380L173.5 380L172.8 380L172.1 380L171.4 380L170.6 380L169.9 380L169.2 380L168.5 380L167.8 380L167 380L166.3 380L165.6 380L164.9 380L164.2 380L163.4 380L162.7 380L162 380L161.3 380L160.6 380L159.8 380L159.1 380L158.4 380L157.7 380L157 380L156.2 380L155.5 380L154.8 380L154.1 380L153.4 380L152.6 380L151.9 380L151.2 380L150.5 380L149.8 380L149 380L148.3 380L147.6 380L146.9 380L146.2 380L145.4 380L144.7 380L144 380L143.3 380L142.6 380L141.8 380L141.1 380L140.4 380L139.7 380L139 380L138.2 380L137.5 380L136.8 380L136.1 380L135.4 380L134.6 380L133.9 380L133.2 380L132.5 380L131.8 380L131 380L130.3 380L129.6 380L128.9 380L128.2 380L127.4 380L126.7 380L126 380L125.3 380L124.6 380L123.8 380L123.1 380L122.4 380L121.7 380L121 380L120.2 380L119.5 380L118.8 380L118.1 380L117.4 380L116.6 380L115.9 380L115.2 380L114.5 380L113.8 380L113 380L112.3 380L111.6 380L110.9 380L110.2 380L109.4 380L108.7 380L108 380L107.3 380L106.6 380L105.8 380L105.1 380L104.4 380L103.7 380L103 380L102.2 380L101.5 380L100.8 380L100.1 380L99.4 380L98.6 380L97.9 380L97.2 380L96.5 380L95.8 380L95 380L94.3 380L93.6 380L92.9 380L92.2 380L91.4 380L90.7 380L90 380L89.3 380L88.6 380L87.8 380L87.1 380L86.4 380L85.7 380L85 380L84.2 380L83.5 380L82.8 380L82.1 380L81.4 380L80.6 380L79.9 380L79.2 380L78.5 380L77.8 380L77 380L76.3 380L75.6 380L74.9 380L74.2 380L73.4 380L72.7 380L72 380L71.3 380L70.6 380L69.8 380L69.1 380L68.4 380L67.7 380L67 380L66.2 380L65.5 380L64.8 380L64.1 380L63.4 380L62.6 380L61.9 380L61.2 380L60.5 380Z" fill="url(#zr35-g0)" fill-opacity="0.7" class="zr35-cls-177"></path>
<path d="M60 309.3L60.2 304.6L60.5 301.2L60.7 299L61 295.3L61.2 291.1L61.4 294.5L61.7 292.2L61.9 287.6L62.2 282.5L62.4 281L62.6 280.3L62.9 277.4L63.1 281L63.4 283.3L63.8 286.9L64.1 286.1L64.3 289.2L64.6 292.6L65 296.8L65.3 301.8L65.5 304L65.8 301.4L66 297.4L66.2 298.8L66.5 295.4L66.7 294L67 295.5L67.4 299.7L67.7 294.9L67.9 291.6L68.2 292.4L68.6 295.8L68.9 296.6L69.1 291.8L69.4 296.3L69.6 298.9L69.8 300.9L70.1 302.4L70.3 301L70.6 299.8L70.8 303L71 301.2L71.3 297.7L71.5 301.1L71.8 306.2L72 302.3L72.2 306.9L72.5 302.3L72.7 306L73 309.9L73.2 312.4L73.4 311.5L73.7 307.2L73.9 302.7L74.2 297.6L74.4 299.4L74.6 302.4L74.9 297.9L75.1 297.1L75.4 295.8L75.6 297.7L75.8 294.8L76.1 297.1L76.6 299.8L76.8 298.1L77 297L77.5 295.6L77.8 293.3L78 291.9L78.2 287.6L78.5 289.5L78.7 285.7L79 280.8L79.2 286.1L79.4 281.3L79.7 276.2L79.9 278L80.2 279.1L80.4 275.3L80.6 280.3L80.9 282.9L81.1 280.8L81.4 276L81.6 272.7L82.1 267.8L82.3 269.9L82.8 270.5L83 267.8L83.3 271L83.5 266.6L83.8 262.8L84 267.5L84.2 264.1L84.5 267.8L85 265L85.2 268.9L85.4 267.4L85.7 270.6L85.9 272.8L86.2 276.4L86.4 274.9L86.6 271.8L87.1 268.3L87.6 265.8L87.8 267L88.1 269.5L88.3 267L88.6 270.7L88.8 266.3L89 263.3L89.3 259.7L89.5 264.2L89.8 262.9L90.5 262.8L90.7 265.6L91 270.8L91.2 269.6L91.4 273.6L91.7 277.4L91.9 279.9L92.2 278.2L92.9 274.6L93.1 272.8L93.4 275.7L93.6 273.9L93.8 276.9L94.3 273.6L94.6 272.5L94.8 269.8L95 267.8L95.3 270.1L95.5 268.6L95.8 273.9L96 277.6L96.2 279.7L96.5 282.2L96.7 280.7L97 276.2L97.2 278.3L97.4 276.5L97.7 279.9L97.9 285.2L98.4 290.4L98.6 291.8L98.9 286.9L99.1 289.5L99.4 286.2L99.6 285.3L99.8 281.5L100.1 278.2L100.3 282.9L100.6 281L100.8 282.7L101 281.5L101.3 280.1L101.5 276L101.8 272.9L102 277L102.2 279.7L102.5 284.7L102.7 283.1L103 286.3L103.2 288L103.4 293L103.7 295.6L103.9 297L104.4 302.3L104.6 306.6L104.9 302.6L105.1 304L105.4 303.3L105.6 304.3L105.8 300L106.3 304.1L106.6 302.9L107 297.7L107.3 292.5L107.5 293.7L107.8 294.9L108 291.8L108.2 287.7L108.5 282.5L108.7 279.5L109 284.3L109.2 288.3L109.4 283.6L109.7 288.6L110.2 289.6L110.4 287.9L110.6 290.3L111.1 289.5L111.4 288.7L111.6 285.1L111.8 289.4L112.1 288.7L112.3 291.3L112.6 288.4L112.8 286.8L113 291.4L113.3 294.6L113.5 296.9L113.8 298.8L114 300.4L114.2 297.6L115 296.5L115.2 291.5L115.4 292.2L115.7 296.5L115.9 299L116.2 295.1L116.4 298L116.6 301.3L116.9 306.5L117.1 310.4L117.4 307.1L117.6 308.9L117.8 306L118.1 302.5L118.6 307.5L118.8 306.3L119 301.1L119.3 306.1L119.8 303.4L120 301.8L120.2 305.5L120.5 310.4L120.7 305.8L121 308.2L121.2 307.2L121.7 301.7L121.9 300.5L122.2 303.6L122.4 301.1L122.6 300.3L122.9 299.4L123.1 300.4L123.4 302.5L123.6 304.2L123.8 308.5L124.1 305.7L124.3 309.2L124.6 313.8L124.8 312.1L125 309.2L125.3 308.4L125.5 313.1L125.8 317.5L126 314.8L126.2 318.4L126.5 316.2L126.7 313.6L127 309.6L127.2 305.2L127.4 302L127.7 298.3L128.2 296.7L128.4 293.6L128.9 289.8L129.1 295.2L129.4 294.4L129.6 295.6L129.8 300.1L130.1 299.1L130.3 302.4L130.6 306.9L130.8 311.3L131 308.1L131.3 303.1L131.5 302.4L131.8 299.6L132 304.4L132.2 300.2L132.5 303.7L132.7 308.9L133 311.3L133.2 310.4L133.4 312.5L133.7 313.4L134.2 317.7L134.4 316.8L134.6 321.2L134.9 318.4L135.1 319.3L135.4 324.2L135.6 327.7L135.8 326.6L136.1 322.5L136.6 318.3L136.8 321.4L137 318.2L137.3 323.2L137.8 326.6L138 322L138.2 321.2L138.5 319.1L138.7 321.5L139 322.4L139.2 327.3L139.4 324.8L139.7 328.5L139.9 329.4L140.2 331.7L140.4 332.8L140.6 329.2L140.9 326.9L141.1 331.1L141.4 327.4L141.6 331.2L141.8 332.7L142.1 337.4L142.3 335L142.6 338.4L142.8 342.9L143 339.7L143.3 335.6L143.8 339.3L144 341.1L144.2 343.6L144.5 346.2L144.7 351.3L145.2 355.7L145.4 351.2L145.7 353.6L145.9 357.3L146.2 358.5L146.4 361.2L146.6 362.5L147.1 360.8L147.4 358.6L147.6 360.2L147.8 358.8L148.1 357.1L148.3 359.4L148.6 354.5L148.8 359.8L149 364L149.3 366.8L149.5 369.1L149.8 364L150.2 365.1L150.5 361.4L151 357.8L151.2 356.2L151.7 357.6L151.9 362.3L152.2 359L152.4 357.9L152.6 361.7L152.9 356.4L153.1 357.2L153.6 360.4L153.8 364.8L154.1 363.2L154.3 367.3L154.6 363.9L155 360.4L155.3 357.4L155.5 359.3L155.8 355.5L156 351L156.2 346.4L156.5 351.4L156.7 348.5L157 345.5L157.2 343.8L157.4 347.8L157.9 343.9L158.2 340.8L158.4 338.2L158.6 336.1L158.9 332.7L159.1 331.1L159.4 328.6L159.6 332L159.8 330.7L160.1 335.2L160.3 332.6L160.6 329.2L160.8 334.2L161.3 330.6L161.5 329.6L161.8 327.6L162 329L162.2 329.7L162.5 333.3L162.7 330.3L163 327.5L163.2 331.4L163.4 334.5L163.7 335.3L163.9 331L164.2 332.3L164.4 334.9L164.9 337.6L165.1 341.1L165.4 338.9L165.6 342.2L165.8 344.8L166.1 344.1L166.3 347.5L166.6 344.2L166.8 342.7L167 338.2L167.3 334.6L167.5 330L167.8 331.2L168 333.1L168.2 337.9L168.5 339.2L168.7 343.9L169.4 346.2L169.7 342.5L169.9 338.9L170.2 344.2L170.4 347.2L170.6 348.9L170.9 350.5L171.1 348.3L171.4 352.8L171.6 357.3L171.8 360.2L172.3 361.1L172.6 365.2L172.8 367.4L173.3 372.4L173.5 371.1L174 374.5L174.5 375.1L174.7 371.5L175 369.2L175.2 371.9L175.4 370.5L175.7 365.4L175.9 363.3L176.4 362.3L176.9 361.3L177.1 362.3L177.4 363.2L177.6 366.3L177.8 363.5L178.1 364.5L178.3 363.8L178.8 358.3L179 355.8L179.3 356.5L179.5 354.6L179.8 355.9L180 359.2L180.2 360.3L180.5 362.9L180.7 360.1L181.2 356.8L181.4 353.3L181.7 348.5L181.9 350.4L182.2 352.1L182.4 351.3L182.6 350.4L182.9 349.3L183.1 353.6L183.4 352.4L183.6 356.9L183.8 359.6L184.3 358.9L184.8 354.2L185.5 351.2L185.8 353.4L186 356.4L186.2 352L186.5 356.9L186.7 352.4L187 348.4L187.2 343.8L187.4 342L187.7 340.4L187.9 338.5L188.2 333.2L188.4 328L188.6 322.9L188.9 323.6L189.1 318.2L189.4 314L189.6 312.6L190.1 314L190.3 312L190.6 310.2L190.8 314.1L191 312.7L191.5 313.5L191.8 318.6L192 319.5L192.2 317.7L192.5 312.8L192.7 317.5L193 319.6L193.2 317.1L193.4 311.8L193.7 316.8L193.9 318.4L194.2 316.4L194.9 316.9L195.4 321.8L195.6 320.7L195.8 319.6L196.1 315.3L196.3 310.9L196.6 307.3L196.8 311.3L197 309.3L197.5 308.1L197.8 311.3L198 308.2L198.2 304.6L198.5 302.6L198.7 298.9L199 300.8L199.2 299.4L199.4 302.9L199.9 303.5L200.4 305.8L200.6 302L200.9 305.5L201.1 304.5L201.4 307L201.6 311.1L201.8 315.4L202.1 319.5L202.3 317.1L202.8 319.4L203 318.1L203.5 314.9L203.8 315.7L204.2 314.9L204.5 319.8L204.7 325L205 330.2L205.2 326.7L205.4 322.8L205.7 325.6L205.9 322.9L206.2 326.1L206.4 329.2L206.6 326.2L206.9 324.3L207.1 321.6L207.4 320.2L207.6 319.1L207.8 317.1L208.1 320.5L208.3 323.1L208.6 325.6L208.8 327.7L209 322.4L209.5 319.1L209.8 320.5L210 317.4L210.2 313.5L210.5 312.6L210.7 316.2L211 314.7L211.2 309.6L211.4 305.4L211.7 304L212.2 305.9L212.6 308.2L212.9 305.2L213.1 310.4L213.4 305.7L213.6 304.6L213.8 307.5L214.1 304.3L214.3 307.3L214.6 302.5L214.8 305.4L215 302.5L215.3 297.9L215.5 302.3L215.8 306L216.2 310.7L216.5 309.3L216.7 313.1L217 310.7L217.2 313.3L217.4 312.4L217.7 310.2L217.9 307.1L218.2 303.8L218.4 307.9L218.6 304.5L219.1 302.4L219.4 303.9L219.6 307.8L219.8 305.8L220.1 303L220.3 300.4L220.6 305.6L220.8 304.6L221.3 309L221.5 304.1L221.8 307.3L222 308.2L222.2 305.6L222.5 302.7L222.7 304.2L223 299.4L223.2 302.4L223.4 301.6L223.9 297.6L224.4 294.5L224.6 295.6L224.9 293.8L225.4 297.6L225.6 294.7L226.1 296.6L226.3 292.5L226.6 288.4L226.8 287.2L227.3 284.1L227.5 279.8L227.8 275.7L228 273.9L228.2 272.7L228.5 273.5L228.7 270.2L229 266.2L229.2 261.3L229.4 257.6L229.7 258.4L229.9 263.5L230.2 265.1L230.4 260.6L230.6 261.8L230.9 266.1L231.4 261.1L231.6 257.9L231.8 255.2L232.3 254.7L232.6 254L232.8 257.5L233 259.7L233.5 265.3L234 269.7L234.2 272.5L234.5 267.5L235 273L235.2 268.5L235.4 263.7L235.7 262.4L236.2 263.8L236.4 265.5L236.6 267.9L236.9 266.4L237.1 268.6L237.4 265.8L237.6 261.9L237.8 260.5L238.3 261.4L238.6 259L238.8 260.8L239 263L239.3 267.5L239.5 262.5L239.8 259.4L240 260.5L240.2 265.6L240.5 264.5L240.7 266.5L241 271.8L241.2 267.4L241.7 271.9L241.9 276.1L242.2 278.7L242.4 282.9L242.6 285.4L242.9 282.3L243.1 278.8L243.4 281.1L243.6 286.4L243.8 287.9L244.1 285L244.3 284.1L244.6 280.3L245 276.8L245.3 273.3L245.5 271L245.8 268.2L246 264.8L246.2 267.3L246.5 266.4L246.7 261.8L247 259.5L247.2 260.9L247.4 264.9L247.7 267.4L247.9 265.1L248.2 261.9L248.4 259.5L248.6 258.7L248.9 263.6L249.1 259L249.4 256.7L249.6 254.5L249.8 256.1L250.1 252.5L250.3 257.3L250.6 254.2L250.8 256.8L251.3 255.4L251.8 258.3L252.2 261L252.5 266L252.7 270.5L253 274L253.2 268.8L253.4 273.9L253.7 271.6L253.9 267.3L254.2 264L254.4 268.4L254.6 263.4L254.9 259.8L255.1 255.1L255.4 256.8L255.8 258.9L256.1 256.4L256.3 258.4L256.6 262.2L257 263.2L257.3 265.9L257.5 263.1L257.8 258.6L258 261.7L258.2 256.5L258.5 253L258.7 251.3L259 249L259.2 253.2L259.4 258L259.7 255.7L259.9 252.2L260.2 250.8L260.4 247L260.6 243.7L261.1 246.3L261.4 242.7L261.6 246.1L261.8 249L262.1 252.8L262.3 256.4L262.6 257.4L262.8 256.3L263 254.5L263.3 253.2L263.5 255.5L263.8 258.1L264 263.2L264.2 268.5L264.5 269.5L265 273.9L265.2 274.9L265.7 270.5L266.2 275.1L266.6 276.3L266.9 274.1L267.1 269.5L267.4 271.1L267.8 275.8L268.1 276.8L268.3 271.7L268.6 270.7L268.8 273.3L269 268.7L269.3 267L269.5 270L269.8 271.5L270 275.6L270.2 271.6L270.7 269.2L271 264.1L271.2 260.9L271.4 262.9L271.7 264.7L271.9 264L272.2 260.4L272.4 263.2L272.6 259.1L272.9 264L273.1 265.3L273.4 261.8L273.6 265.8L274.1 261.1L274.3 264.3L274.6 261.6L274.8 260.7L275.3 265.2L275.5 269.1L275.8 264.8L276 259.9L276.2 261.5L276.5 262.6L276.7 259.5L277 258L277.2 254.8L277.4 260L277.7 257.3L277.9 252L278.2 254.2L278.4 255.3L278.6 251.8L278.9 250.8L279.1 255.6L279.4 257.9L279.6 260.3L279.8 265.4L280.1 263.1L280.3 264.3L280.6 266.9L281 268.1L281.3 270.5L281.5 271.5L281.8 269.9L282 265L282.2 267.5L282.5 264.3L282.7 265.2L283 261.5L283.2 257.6L283.4 259.5L283.7 254.9L283.9 257.5L284.2 260.8L284.4 261.8L284.6 259.4L284.9 261L285.1 263L285.4 258.5L285.6 255.3L285.8 260.4L286.1 261.9L286.3 267.2L286.6 266.5L287 263.4L287.3 264.3L287.5 263.1L287.8 258.2L288.2 255.4L288.5 252.6L288.7 250.2L289 255.3L289.2 251.4L289.4 249.1L289.7 253.3L289.9 258.1L290.2 261.4L290.4 258.4L290.6 255.7L290.9 253.2L291.1 252.1L291.4 249.2L291.8 247.7L292.1 250.9L292.3 249L292.6 246L292.8 242.1L293 237.7L293.3 240.7L293.8 241.8L294 244.4L294.2 239.7L294.5 243.5L294.7 238.3L295 233.9L295.2 230.5L295.4 227.9L295.7 224.1L295.9 226.2L296.2 222.9L296.4 221.2L296.9 223.1L297.1 224.5L297.4 222.1L297.6 225.7L297.8 220.6L298.1 218.5L298.8 220L299 217.2L299.3 215.7L299.5 212.1L299.8 213.1L300 208.1L300.2 206.7L300.5 210.6L300.7 207.4L301.2 210.6L301.4 213.3L301.7 211.4L301.9 213.2L302.2 209.6L302.4 206.6L303.1 204.9L303.4 209L303.6 210L303.8 206L304.1 205.2L304.6 200.7L304.8 202.8L305 205.8L305.3 203.6L305.5 201.5L306 199.3L306.2 202.5L306.5 205.1L306.7 201.5L307 196.8L307.4 195.3L307.7 198.6L307.9 201.6L308.2 204.3L308.4 200.4L308.6 201.1L309.1 195.9L309.4 201.1L309.6 204.7L309.8 206.9L310.1 207.7L310.3 204.5L310.6 202.3L310.8 207.1L311 204.2L311.3 207.5L311.5 211.7L311.8 216.6L312 212.9L312.2 215.5L312.5 220.5L312.7 221.9L313 224.6L313.2 220.3L313.7 225L313.9 229.4L314.2 225.6L314.4 229.5L314.6 226.5L314.9 223.5L315.1 220.2L315.4 216.7L315.6 214L315.8 210.2L316.3 211.1L316.6 206.5L316.8 207.3L317 204.5L317.3 202.4L317.5 205.1L317.8 201.1L318 204.2L318.2 199.7L318.5 197.7L318.7 195.8L319 199.3L319.2 203.2L319.4 205.3L319.7 202.1L319.9 200L320.2 199L320.4 194.8L320.6 192.3L320.9 187.4L321.1 185.4L321.4 190.4L321.6 193.2L321.8 188L322.1 187.1L322.3 189.8L322.6 185.6L322.8 182.2L323.3 177.9L323.5 177.1L323.8 179.8L324 175.4L324.2 170.7L324.5 169L324.7 168.2L325 165.3L325.2 170L325.4 166.3L325.7 169.9L325.9 172.6L326.2 171.5L326.4 170L326.6 169L327.1 170.4L327.4 173.2L327.6 177.6L327.8 174.7L328.1 179.6L328.6 181.5L328.8 185.6L329 184L329.3 186.9L329.5 184.7L329.8 180.7L330 178.7L330.2 175.9L331 171.5L331.4 170.4L331.7 166.8L332.2 169.9L332.4 171.2L332.6 176.3L332.9 178L333.1 181.4L333.4 185.8L333.6 184.7L333.8 189.8L334.1 187.3L334.3 188.6L334.6 193.6L335 194.4L335.3 192.2L335.5 195.3L335.8 191.1L336.2 188.9L336.5 183.7L336.7 185.7L337 189.4L337.2 187.1L337.4 188.5L337.7 191.1L337.9 196.2L338.2 192L338.4 188L338.6 183.2L338.9 178.7L339.1 180.7L339.4 178.7L339.6 174.4L339.8 175.3L340.1 173.4L340.3 177.1L340.6 175.4L340.8 171.7L341 168.4L341.5 173.6L341.8 178.8L342 176.5L342.5 173.9L342.7 172.3L343 171.2L343.2 172.6L343.4 174L343.7 177.1L344.2 179.9L344.4 185.1L344.9 186.2L345.1 187.3L345.4 191.6L345.6 187.3L345.8 185L346.1 186L346.3 188L346.6 191.3L346.8 189.9L347.3 187L347.5 183.5L347.8 188.4L348 192.8L348.2 193.8L348.5 192.2L348.7 197.2L349 193.9L349.2 189.9L349.4 188.2L349.7 184.5L349.9 182.1L350.2 185.7L350.4 187.7L350.6 184.6L350.9 181.2L351.1 182.5L351.6 187.1L351.8 184.3L352.1 183.3L352.3 186.7L352.6 187.5L352.8 189.6L353 187.4L353.3 189.2L353.5 193.9L353.8 198L354 199.4L354.2 194.5L354.5 197.6L355 198.8L355.2 196.6L355.4 200.6L355.9 197.3L356.2 192.3L356.4 195.1L356.6 200.4L356.9 202.5L357.1 207.6L357.4 203.9L357.6 203.1L357.8 199.2L358.3 198.5L358.8 203L359 205.9L359.3 200.9L359.8 203L360 198.6L360.2 203.9L360.5 201L360.7 203.6L361 200.2L361.2 198.9L361.4 203.1L361.7 200.7L361.9 198.7L362.4 201.4L362.9 200.7L363.1 205.9L363.4 205L363.6 207.7L364.1 212.3L364.6 208.1L364.8 210L365 205.7L365.3 204.7L365.5 205.4L365.8 208.6L366.2 212.6L366.5 214.6L366.7 215.6L367 217.4L367.2 216.6L367.4 219.6L367.7 218.4L368.2 213.8L368.4 211.8L368.6 209.9L369.4 209.9L369.6 207.9L369.8 207.1L370.6 207.4L371 211.8L371.3 208L371.5 210.5L371.8 211.8L372 215.7L372.5 213.5L372.7 212.7L373 211.4L373.2 208.4L373.4 203.2L373.7 200.3L373.9 201.6L374.2 204.7L374.4 208.4L374.6 212.4L375.1 215.9L375.4 214.8L375.6 210L376.1 207.5L376.3 205.6L376.6 202.8L376.8 197.9L377 200.7L377.3 195.6L377.5 196.3L377.8 198.8L378 199.7L378.2 198.1L378.5 199.7L378.7 202.6L379 198.7L379.2 195.1L379.4 196.1L379.7 200.6L379.9 196.6L380.2 192.5L380.4 197.1L380.6 199.9L380.9 195.8L381.1 196.6L381.4 195.3L381.6 198.3L381.8 196.8L382.1 198.4L382.6 202.1L382.8 201L383.3 206.1L384 207.7L384.5 212.2L384.7 217.2L385 220.2L385.2 219.2L385.7 222.4L385.9 220.2L386.2 219.4L386.4 222.4L386.6 226L387.1 225.2L387.4 228L387.8 230L388.6 229.1L388.8 223.9L389 222.4L389.3 227.1L389.5 227.8L389.8 225.5L390 224.4L390.2 223.3L390.5 225.4L390.7 221L391 222.6L391.2 224L391.4 221.3L391.7 219.6L391.9 223.1L392.2 218.4L392.4 217.3L392.6 212.6L393.4 210.5L393.8 212.8L394.1 216.7L394.3 213.7L394.6 215.5L395 210.5L395.5 211.5L395.8 215.4L396 211L396.2 206.4L396.5 210.9L396.7 212.9L397 208.4L397.2 213.3L397.4 209.1L397.7 207.1L397.9 204.7L398.2 209.7L398.4 206.2L398.6 210.2L398.9 214.1L399.1 217.2L399.4 220.2L399.6 218.8L399.8 223.6L400.1 226.3L400.3 229.3L400.6 232.3L400.8 234.9L401 238.3L401.5 236.2L401.8 239.5L402 238.3L402.2 240.6L402.5 241.4L402.7 239.9L403 237.1L403.2 232L403.4 228.4L403.7 227.5L403.9 225.4L404.2 227.8L404.4 225.8L404.6 228.8L405.4 226.1L405.6 221.7L405.8 223.7L406.1 229L406.3 227L406.6 231.8L406.8 229.1L407 231.1L407.3 228.7L407.5 232.2L408 228.8L408.2 227.3L408.5 223.2L408.7 227.4L409 222.4L409.2 221.4L409.4 219.9L409.7 214.9L409.9 212.1L410.2 213.5L410.4 212L410.6 215.3L410.9 219.5L411.1 216.9L411.4 218L411.6 216.6L411.8 220.8L412.1 225.6L412.3 228.1L412.6 223.6L412.8 226.6L413.3 221.1L413.5 218.6L413.8 216.1L414 213.9L414.2 212.4L414.5 210L414.7 206.6L415 211.2L415.2 206.1L415.4 203.3L415.7 206.5L415.9 210.5L416.2 215.2L416.4 214.4L416.6 211.4L417.1 213.8L417.4 212.3L417.6 213.4L417.8 209.7L418.1 204.7L418.3 207.7L418.6 211.3L419 214.7L419.3 217.2L419.5 222.2L419.8 223.9L420 218.9L420.2 217.8L420.5 222L420.7 216.9L421 217.6L421.2 212.8L421.4 211.6L421.7 213.3L421.9 216.7L422.2 213.7L422.4 208.7L422.6 212L422.9 213.4L423.1 209.5L423.4 206.6L423.6 202L423.8 205.5L424.1 200.5L424.3 197.1L424.6 193.2L424.8 191.3L425 194L425.5 189L425.8 192.5L426 190.5L426.2 186.4L426.5 187.8L427 191.5L427.2 187.5L427.4 189.6L427.7 187.8L427.9 186L428.2 187.7L428.4 191.3L428.6 192.4L428.9 193.8L429.1 189.5L429.4 193.7L429.6 195.7L429.8 197.2L430.1 196.1L430.3 192.5L430.6 195.4L431 192L431.5 197.3L431.8 192.6L432 193.4L432.2 190.1L432.5 194.8L433 200L433.2 202.8L433.4 201.4L433.7 205.3L433.9 206.2L434.2 207L434.4 203.6L434.6 206.3L434.9 205.3L435.1 202.2L435.4 206.2L435.6 204.5L435.8 209.4L436.1 207.2L436.6 208.9L436.8 210.7L437 215.3L437.3 216.4L437.5 221.4L437.8 219.7L438.2 223.5L438.5 227.6L438.7 224.9L439.2 226.8L439.4 221.8L439.7 223.8L439.9 220.5L440.2 216.4L440.4 221L440.6 226.1L440.9 227.7L441.1 231.9L441.4 234.4L441.6 235.1L441.8 239.4L442.1 236.4L442.3 237.7L442.6 242.2L442.8 238.4L443 237L443.8 235.4L444 231.5L444.2 226.8L444.5 231.6L444.7 232.7L445 227.7L445.2 232.6L445.4 237.1L445.7 240.8L445.9 238.7L446.4 241.5L446.6 237.6L446.9 236.3L447.4 237.6L447.6 241.3L447.8 239.3L448.1 236.3L448.6 231L448.8 226.3L449 222.2L449.3 227.2L449.5 222.6L450 221.7L450.2 222.6L450.7 219.5L451 215.8L451.2 218.3L451.4 213.4L451.7 214.4L451.9 217.7L452.2 219.5L452.6 218.8L452.9 215.2L453.1 216.6L453.4 215.2L453.6 217.9L453.8 216.7L454.1 214L454.3 216.8L454.6 214.2L455 216.9L455.3 213.8L455.5 211.6L456 206.9L456.2 201.6L456.5 203.3L456.7 204.8L457 208.4L457.2 210.7L457.4 207.6L457.9 211.2L458.2 210.5L458.4 215L458.6 214.2L458.9 209.2L459.1 205.2L459.4 208.3L459.6 206.5L459.8 203.8L460.1 200.1L460.3 203.8L460.6 201.8L460.8 200.4L461 196.5L461.3 198.2L461.5 197.5L461.8 201.4L462 196.9L462.2 201.3L462.5 198.1L463 196.4L463.2 200.3L463.7 205.5L463.9 209.2L464.2 212.7L464.6 211.5L464.9 206.6L465.1 203.2L465.4 200.7L465.6 202.7L465.8 197.8L466.3 193.4L466.8 194.6L467 193.4L467.3 191.4L467.5 187L468 191.1L468.2 195.5L468.5 190.9L468.7 195.3L469 200.6L469.2 198.3L469.4 197.4L469.7 195.2L469.9 189.9L470.4 188.1L470.6 188.9L470.9 185.2L471.1 181.6L471.6 183.4L471.8 188.7L472.1 189.7L472.3 188.6L472.6 187.6L472.8 188.3L473 183.8L473.3 181.8L473.5 181.1L473.8 179L474 182.9L474.2 181.6L474.5 179.6L474.7 177.3L475 180.7L475.2 179.8L475.4 175L475.7 172.1L475.9 167.9L476.2 169.5L476.4 168.5L476.6 171.6L476.9 168.3L477.1 170.3L477.4 174L477.6 175.5L477.8 172.5L478.1 177.4L478.6 175.6L478.8 179.2L479 180.3L479.3 175L479.5 172L479.8 169.5L480 173.5L480.2 172.8L480.5 174.4L480.7 178.6L481 173.6L481.2 174.6L481.4 170.9L481.7 175.1L481.9 175.8L482.2 173.9L482.6 171.2L482.9 175.5L483.1 171.5L483.4 173L483.6 176.4L483.8 178.1L484.1 176.3L484.3 177.2L484.6 174.6L484.8 177.1L485 172.5L485.3 175.8L485.5 178L485.8 173.9L486 172L486.2 168.5L486.5 166.8L486.7 164.9L487 161L487.4 159.9L487.7 156.8L487.9 159.4L488.4 161.9L488.9 162.9L489.4 165.9L489.6 162.3L489.8 160.4L490.1 157.9L490.3 159.3L490.6 157.2L490.8 154.8L491 151.9L491.3 156.8L491.5 160.3L491.8 163.8L492 160.3L492.2 161L492.5 162.3L492.7 164.5L493 163.8L493.4 160.3L493.7 157.1L493.9 157.8L494.2 152.8L494.4 152L494.6 147.2L494.9 143.2L495.1 139.6L495.4 144.8L495.6 146.6L495.8 149.9L496.1 148.9L496.6 147.7L496.8 148.8L497 149.5L497.3 148.5L497.5 143.8L497.8 147.7L498 150.2L498.2 148.2L498.5 153.2L498.7 152.4L499 147L499.2 142.8L499.4 144.1L499.9 140.2L500.2 138.5L500.4 133.5L500.6 128.2L500.9 131.1L501.1 134.7L501.4 139L501.6 140.4L501.8 144.4L502.3 143.8L502.6 145.7L503 147.3L503.3 150.9L503.5 155.3L503.8 152.2L504 153.8L504.2 152.9L504.5 148.1L504.7 150.5L505 146.1L505.2 150.2L505.4 151.6L505.7 156.8L505.9 154.4L506.4 158.8L506.6 162.5L506.9 159.7L507.1 163.1L507.6 167.2L507.8 165.2L508.1 164.5L508.3 159.7L508.6 162.4L509 158.4L509.3 160.2L509.5 165.1L509.8 167.3L510 165.6L510.2 161.5L510.5 158L510.7 156.7L511 152.4L511.2 148.4L511.7 144.4L512.2 139.5L512.4 134.6L512.6 133.9L512.9 129.5L513.1 133.3L513.6 137.4L513.8 135L514.3 130.6L514.6 126.9L514.8 123.3L515 125.5L515.3 120.9L515.5 124L515.8 128L516 133.2L516.2 129.3L516.5 128.6L516.7 130.4L517 127.3L517.2 123.4L517.4 128.2L517.7 126.8L517.9 129.5L518.2 127.8L518.4 129.2L518.6 131.8L518.9 135L519.4 131.2L519.6 133L519.8 130.7L520.1 126.7L520.6 130.8L521 127.4L521.3 124.4L521.5 126.2L521.8 123L522 120.3L522.2 115.7L522.7 112.2L523 110.8L523.2 114.3L523.4 116.1L523.7 118.3L523.9 119.5L524.2 120.6L524.6 121.5L524.9 119.9L525.4 122.6L525.6 127.7L526.1 132.3L526.3 136.9L526.6 137.6L526.8 134.9L527 140.1L527.3 140.8L527.5 138.5L527.8 139.8L528.2 138.9L528.5 138.2L528.7 136.2L529 137.6L529.2 135.4L529.4 138.1L529.7 132.9L529.9 136.4L530.2 131.1L530.4 134.7L530.6 139.9L530.9 145.2L531.1 140.4L531.4 135.2L531.6 131.6L531.8 129.2L532.1 133.1L532.3 135.5L532.6 136.6L532.8 131.7L533 133.1L533.3 129.5L533.5 128.4L533.8 126.2L534 124.2L534.2 129.3L534.5 126.2L534.7 121.4L535 122.7L535.2 126.4L535.4 127.3L535.7 130.7L535.9 126.1L536.2 128.6L536.4 123.8L536.6 127.6L536.9 128.5L537.1 132.4L537.4 136.8L537.6 134.4L537.8 138.2L538.1 143.3L538.3 141.7L538.6 140.9L538.8 141.9L539 137.6L539.3 141.5L539.5 143L539.8 140.9L540 142.1" fill="transparent" stroke="rgb(255, 70, 131" stroke-width="2" stroke-linejoin="bevel" class="zr35-cls-178"></path>
</g>
<path d="M0 0l480 0l0 30l-480 0Z" transform="matrix(1,0,0,-1,62.8,442.5)" fill="rgb(47,69,84)" fill-opacity="0" class="zr35-cls-175"></path>
<g clip-path="url(#zr35-c1)">
<polygon points="480 0 0 0 0 7.8 1 8.1 2 8.8 3 9.4 4 8.7 5 8.5 6 7.8 7.1 7.9 8.1 7.2 9.1 6.1 10.1 7 11.1 6.4 12.1 6.1 13.1 7.7 14.1 8 15.1 7.8 16.1 7.8 17.1 9.4 18.1 9.2 19.2 9.6 20.2 10 21.2 9.3 22.2 9.2 23.2 9.9 24.2 11.1 25.2 11.1 26.2 11.9 27.2 12.5 28.2 12.3 29.2 11.9 30.2 11.4 31.2 11 32.3 11.4 33.3 11.1 34.3 10.2 35.3 10.6 36.3 11 37.3 11.5 38.3 10.3 39.3 10.9 40.3 11.5 41.3 12.1 42.3 12.4 43.3 12.8 44.4 13 45.4 13.6 46.4 14.2 47.4 14 48.4 13.1 49.4 13.8 50.4 13.9 51.4 14.3 52.4 13.4 53.4 13.9 54.4 14.1 55.4 14.5 56.4 13.6 57.5 13.6 58.5 15.1 59.5 14.4 60.5 14.9 61.5 15.2 62.5 16.1 63.5 16 64.5 16.1 65.5 16 66.5 16.4 67.5 15.7 68.5 15.2 69.6 15.6 70.6 16 71.6 15.5 72.6 16 73.6 17.5 74.6 17.2 75.6 19 76.6 18.8 77.6 18.4 78.6 19 79.6 19.3 80.6 20.8 81.6 20.6 82.7 20.4 83.7 20.4 84.7 21 85.7 21.3 86.7 22.9 87.7 21.8 88.7 22 89.7 22.7 90.7 23.8 91.7 23.5 92.7 24.4 93.7 23.1 94.8 22.4 95.8 22.6 96.8 22.9 97.8 22.7 98.8 22.7 99.8 21.2 100.8 21 101.8 20.3 102.8 20.7 103.8 20 104.8 19.5 105.8 21 106.8 21.6 107.9 22.3 108.9 21.1 109.9 21.2 110.9 20.8 111.9 21.3 112.9 20.7 113.9 19.9 114.9 19.7 115.9 19.6 116.9 18.6 117.9 17 118.9 16.7 120 17 121 17.1 122 17.5 123 16.9 124 19 125 18.8 126 18.5 127 18 128 17.9 129 18.5 130 18.1 131 19.6 132 19.6 133.1 19.3 134.1 18.2 135.1 18.4 136.1 18.8 137.1 18.9 138.1 19.4 139.1 18.8 140.1 18.4 141.1 18.2 142.1 18.2 143.1 18.3 144.1 18.3 145.2 19.2 146.2 18.6 147.2 18.7 148.2 18.3 149.2 19.5 150.2 19.8 151.2 19.4 152.2 18.9 153.2 18.8 154.2 18.9 155.2 19.5 156.2 18.5 157.2 17.9 158.3 17.5 159.3 18.5 160.3 18.5 161.3 17.9 162.3 17.8 163.3 18.3 164.3 17.9 165.3 18 166.3 16.6 167.3 16.6 168.3 15.1 169.3 16.4 170.4 15.8 171.4 15 172.4 15.5 173.4 15.1 174.4 15 175.4 14.4 176.4 13.4 177.4 13.2 178.4 13.3 179.4 13 180.4 14.1 181.4 14.2 182.4 13.9 183.5 13.5 184.5 13 185.5 13.2 186.5 12.5 187.5 13.8 188.5 13.6 189.5 14.4 190.5 14.4 191.5 15.1 192.5 15.1 193.5 14.7 194.5 15.6 195.6 15.9 196.6 16.6 197.6 17 198.6 17.2 199.6 18 200.6 17.3 201.6 19.3 202.6 19.2 203.6 18.4 204.6 17.3 205.6 17.2 206.6 17.4 207.6 17.2 208.7 17.4 209.7 16 210.7 15.9 211.7 15.6 212.7 15.1 213.7 14.9 214.7 15 215.7 14.5 216.7 15.1 217.7 14.7 218.7 14.9 219.7 13.9 220.8 13.8 221.8 12.8 222.8 12.4 223.8 12.2 224.8 12.7 225.8 12.2 226.8 11.1 227.8 10.9 228.8 11.9 229.8 11.4 230.8 11.5 231.8 12.1 232.8 11.7 233.9 12.9 234.9 11.5 235.9 10.5 236.9 9.8 237.9 9.8 238.9 10.5 239.9 10.3 240.9 10.4 241.9 10 242.9 10.1 243.9 9.8 244.9 10.2 246 9.4 247 9.1 248 9.9 249 10.1 250 10.2 251 10.1 252 10.4 253 10.4 254 9.7 255 10.3 256 10.7 257 11.5 258 11.3 259.1 10.5 260.1 10.4 261.1 11 262.1 12.2 263.1 12.1 264.1 12.2 265.1 13.1 266.1 13.4 267.1 14.4 268.1 13.9 269.1 14.4 270.1 16 271.2 17.6 272.2 18 273.2 18.2 274.2 18.4 275.2 17.4 276.2 17.9 277.2 16.7 278.2 16.4 279.2 16.3 280.2 16.2 281.2 15.4 282.2 15.3 283.2 16.4 284.3 16.8 285.3 17 286.3 16.8 287.3 16.6 288.3 16.5 289.3 17 290.3 17 291.3 16.9 292.3 16.6 293.3 16.3 294.3 16 295.3 16.1 296.4 15.5 297.4 15.4 298.4 15.5 299.4 15.5 300.4 15.3 301.4 14.9 302.4 16.5 303.4 15.7 304.4 14.3 305.4 15 306.4 15.1 307.4 16.2 308.4 15.9 309.5 16.3 310.5 16.1 311.5 16.1 312.5 16.7 313.5 17.5 314.5 16.8 315.5 17.3 316.5 18.2 317.5 18.2 318.5 18.5 319.5 17.5 320.5 18.4 321.6 18.4 322.6 19 323.6 19.4 324.6 20.5 325.6 19.9 326.6 20.9 327.6 20.6 328.6 22 329.6 22 330.6 22 331.6 21.9 332.6 20.8 333.6 20 334.7 21 335.7 20 336.7 19.1 337.7 18.3 338.7 18.6 339.7 19.2 340.7 18.6 341.7 19.1 342.7 20 343.7 19.7 344.7 19 345.7 19.2 346.8 20.1 347.8 19.5 348.8 19.1 349.8 17.3 350.8 17.5 351.8 17.7 352.8 17.2 353.8 17.5 354.8 17.5 355.8 16.7 356.8 15.9 357.8 15.9 358.8 15.5 359.9 15.6 360.9 14.9 361.9 14.2 362.9 13.9 363.9 13.7 364.9 13.1 365.9 12.6 366.9 13.1 367.9 12.6 368.9 12.5 369.9 11.9 370.9 10.7 372 10.8 373 11.6 374 11.4 375 11.2 376 11.6 377 11.4 378 11.7 379 12.7 380 12.2 381 13.9 382 13.6 383 12.8 384 12.9 385.1 12 386.1 12.4 387.1 12.7 388.1 12.1 389.1 11.9 390.1 11 391.1 11.4 392.1 10.9 393.1 9.6 394.1 9.2 395.1 8.4 396.1 9.2 397.2 9.7 398.2 9.1 399.2 8.9 400.2 10 401.2 10.8 402.2 10 403.2 10.4 404.2 10.2 405.2 11.5 406.2 11.3 407.2 12.2 408.2 12.5 409.2 12.4 410.3 13.3 411.3 13.3 412.3 14 413.3 15.1 414.3 14.2 415.3 13.7 416.3 14.6 417.3 14.6 418.3 13.8 419.3 14.1 420.3 14.1 421.3 13.6 422.4 12.7 423.4 11.9 424.4 12.7 425.4 12.2 426.4 13 427.4 12.8 428.4 12.6 429.4 12.8 430.4 12.6 431.4 12.3 432.4 12.5 433.4 13.5 434.4 12.2 435.5 12.5 436.5 13 437.5 12.3 438.5 12.6 439.5 12.2 440.5 11.1 441.5 12 442.5 10.9 443.5 11.3 444.5 12.6 445.5 11.6 446.5 12.3 447.6 13.2 448.6 13.6 449.6 14.5 450.6 14.7 451.6 14 452.6 14 453.6 13.1 454.6 13.8 455.6 14.8 456.6 15.5 457.6 14.2 458.6 16.1 459.6 15.7 460.7 15.9 461.7 15.1 462.7 15.1 463.7 14.3 464.7 14.1 465.7 14.6 466.7 14.3 467.7 14.3 468.7 13.9 469.7 13.2 470.7 12.1 471.7 12.5 472.8 11.5 473.8 11.6 474.8 11.7 475.8 10.9 476.8 10.8 477.8 9.6 478.8 10 479.8 9.9" transform="matrix(1,0,0,-1,62.8,442.5)" fill="#d2dbee" fill-opacity="0.2" class="zr35-cls-175"></polygon>
</g>
<g clip-path="url(#zr35-c2)">
<polygon points="480 0 0 0 0 7.8 1 8.1 2 8.8 3 9.4 4 8.7 5 8.5 6 7.8 7.1 7.9 8.1 7.2 9.1 6.1 10.1 7 11.1 6.4 12.1 6.1 13.1 7.7 14.1 8 15.1 7.8 16.1 7.8 17.1 9.4 18.1 9.2 19.2 9.6 20.2 10 21.2 9.3 22.2 9.2 23.2 9.9 24.2 11.1 25.2 11.1 26.2 11.9 27.2 12.5 28.2 12.3 29.2 11.9 30.2 11.4 31.2 11 32.3 11.4 33.3 11.1 34.3 10.2 35.3 10.6 36.3 11 37.3 11.5 38.3 10.3 39.3 10.9 40.3 11.5 41.3 12.1 42.3 12.4 43.3 12.8 44.4 13 45.4 13.6 46.4 14.2 47.4 14 48.4 13.1 49.4 13.8 50.4 13.9 51.4 14.3 52.4 13.4 53.4 13.9 54.4 14.1 55.4 14.5 56.4 13.6 57.5 13.6 58.5 15.1 59.5 14.4 60.5 14.9 61.5 15.2 62.5 16.1 63.5 16 64.5 16.1 65.5 16 66.5 16.4 67.5 15.7 68.5 15.2 69.6 15.6 70.6 16 71.6 15.5 72.6 16 73.6 17.5 74.6 17.2 75.6 19 76.6 18.8 77.6 18.4 78.6 19 79.6 19.3 80.6 20.8 81.6 20.6 82.7 20.4 83.7 20.4 84.7 21 85.7 21.3 86.7 22.9 87.7 21.8 88.7 22 89.7 22.7 90.7 23.8 91.7 23.5 92.7 24.4 93.7 23.1 94.8 22.4 95.8 22.6 96.8 22.9 97.8 22.7 98.8 22.7 99.8 21.2 100.8 21 101.8 20.3 102.8 20.7 103.8 20 104.8 19.5 105.8 21 106.8 21.6 107.9 22.3 108.9 21.1 109.9 21.2 110.9 20.8 111.9 21.3 112.9 20.7 113.9 19.9 114.9 19.7 115.9 19.6 116.9 18.6 117.9 17 118.9 16.7 120 17 121 17.1 122 17.5 123 16.9 124 19 125 18.8 126 18.5 127 18 128 17.9 129 18.5 130 18.1 131 19.6 132 19.6 133.1 19.3 134.1 18.2 135.1 18.4 136.1 18.8 137.1 18.9 138.1 19.4 139.1 18.8 140.1 18.4 141.1 18.2 142.1 18.2 143.1 18.3 144.1 18.3 145.2 19.2 146.2 18.6 147.2 18.7 148.2 18.3 149.2 19.5 150.2 19.8 151.2 19.4 152.2 18.9 153.2 18.8 154.2 18.9 155.2 19.5 156.2 18.5 157.2 17.9 158.3 17.5 159.3 18.5 160.3 18.5 161.3 17.9 162.3 17.8 163.3 18.3 164.3 17.9 165.3 18 166.3 16.6 167.3 16.6 168.3 15.1 169.3 16.4 170.4 15.8 171.4 15 172.4 15.5 173.4 15.1 174.4 15 175.4 14.4 176.4 13.4 177.4 13.2 178.4 13.3 179.4 13 180.4 14.1 181.4 14.2 182.4 13.9 183.5 13.5 184.5 13 185.5 13.2 186.5 12.5 187.5 13.8 188.5 13.6 189.5 14.4 190.5 14.4 191.5 15.1 192.5 15.1 193.5 14.7 194.5 15.6 195.6 15.9 196.6 16.6 197.6 17 198.6 17.2 199.6 18 200.6 17.3 201.6 19.3 202.6 19.2 203.6 18.4 204.6 17.3 205.6 17.2 206.6 17.4 207.6 17.2 208.7 17.4 209.7 16 210.7 15.9 211.7 15.6 212.7 15.1 213.7 14.9 214.7 15 215.7 14.5 216.7 15.1 217.7 14.7 218.7 14.9 219.7 13.9 220.8 13.8 221.8 12.8 222.8 12.4 223.8 12.2 224.8 12.7 225.8 12.2 226.8 11.1 227.8 10.9 228.8 11.9 229.8 11.4 230.8 11.5 231.8 12.1 232.8 11.7 233.9 12.9 234.9 11.5 235.9 10.5 236.9 9.8 237.9 9.8 238.9 10.5 239.9 10.3 240.9 10.4 241.9 10 242.9 10.1 243.9 9.8 244.9 10.2 246 9.4 247 9.1 248 9.9 249 10.1 250 10.2 251 10.1 252 10.4 253 10.4 254 9.7 255 10.3 256 10.7 257 11.5 258 11.3 259.1 10.5 260.1 10.4 261.1 11 262.1 12.2 263.1 12.1 264.1 12.2 265.1 13.1 266.1 13.4 267.1 14.4 268.1 13.9 269.1 14.4 270.1 16 271.2 17.6 272.2 18 273.2 18.2 274.2 18.4 275.2 17.4 276.2 17.9 277.2 16.7 278.2 16.4 279.2 16.3 280.2 16.2 281.2 15.4 282.2 15.3 283.2 16.4 284.3 16.8 285.3 17 286.3 16.8 287.3 16.6 288.3 16.5 289.3 17 290.3 17 291.3 16.9 292.3 16.6 293.3 16.3 294.3 16 295.3 16.1 296.4 15.5 297.4 15.4 298.4 15.5 299.4 15.5 300.4 15.3 301.4 14.9 302.4 16.5 303.4 15.7 304.4 14.3 305.4 15 306.4 15.1 307.4 16.2 308.4 15.9 309.5 16.3 310.5 16.1 311.5 16.1 312.5 16.7 313.5 17.5 314.5 16.8 315.5 17.3 316.5 18.2 317.5 18.2 318.5 18.5 319.5 17.5 320.5 18.4 321.6 18.4 322.6 19 323.6 19.4 324.6 20.5 325.6 19.9 326.6 20.9 327.6 20.6 328.6 22 329.6 22 330.6 22 331.6 21.9 332.6 20.8 333.6 20 334.7 21 335.7 20 336.7 19.1 337.7 18.3 338.7 18.6 339.7 19.2 340.7 18.6 341.7 19.1 342.7 20 343.7 19.7 344.7 19 345.7 19.2 346.8 20.1 347.8 19.5 348.8 19.1 349.8 17.3 350.8 17.5 351.8 17.7 352.8 17.2 353.8 17.5 354.8 17.5 355.8 16.7 356.8 15.9 357.8 15.9 358.8 15.5 359.9 15.6 360.9 14.9 361.9 14.2 362.9 13.9 363.9 13.7 364.9 13.1 365.9 12.6 366.9 13.1 367.9 12.6 368.9 12.5 369.9 11.9 370.9 10.7 372 10.8 373 11.6 374 11.4 375 11.2 376 11.6 377 11.4 378 11.7 379 12.7 380 12.2 381 13.9 382 13.6 383 12.8 384 12.9 385.1 12 386.1 12.4 387.1 12.7 388.1 12.1 389.1 11.9 390.1 11 391.1 11.4 392.1 10.9 393.1 9.6 394.1 9.2 395.1 8.4 396.1 9.2 397.2 9.7 398.2 9.1 399.2 8.9 400.2 10 401.2 10.8 402.2 10 403.2 10.4 404.2 10.2 405.2 11.5 406.2 11.3 407.2 12.2 408.2 12.5 409.2 12.4 410.3 13.3 411.3 13.3 412.3 14 413.3 15.1 414.3 14.2 415.3 13.7 416.3 14.6 417.3 14.6 418.3 13.8 419.3 14.1 420.3 14.1 421.3 13.6 422.4 12.7 423.4 11.9 424.4 12.7 425.4 12.2 426.4 13 427.4 12.8 428.4 12.6 429.4 12.8 430.4 12.6 431.4 12.3 432.4 12.5 433.4 13.5 434.4 12.2 435.5 12.5 436.5 13 437.5 12.3 438.5 12.6 439.5 12.2 440.5 11.1 441.5 12 442.5 10.9 443.5 11.3 444.5 12.6 445.5 11.6 446.5 12.3 447.6 13.2 448.6 13.6 449.6 14.5 450.6 14.7 451.6 14 452.6 14 453.6 13.1 454.6 13.8 455.6 14.8 456.6 15.5 457.6 14.2 458.6 16.1 459.6 15.7 460.7 15.9 461.7 15.1 462.7 15.1 463.7 14.3 464.7 14.1 465.7 14.6 466.7 14.3 467.7 14.3 468.7 13.9 469.7 13.2 470.7 12.1 471.7 12.5 472.8 11.5 473.8 11.6 474.8 11.7 475.8 10.9 476.8 10.8 477.8 9.6 478.8 10 479.8 9.9" transform="matrix(1,0,0,-1,62.8,442.5)" fill="#8fb0f7" fill-opacity="0.2" class="zr35-cls-175"></polygon>
</g>
<g clip-path="url(#zr35-c3)">
<polygon points="480 0 0 0 0 7.8 1 8.1 2 8.8 3 9.4 4 8.7 5 8.5 6 7.8 7.1 7.9 8.1 7.2 9.1 6.1 10.1 7 11.1 6.4 12.1 6.1 13.1 7.7 14.1 8 15.1 7.8 16.1 7.8 17.1 9.4 18.1 9.2 19.2 9.6 20.2 10 21.2 9.3 22.2 9.2 23.2 9.9 24.2 11.1 25.2 11.1 26.2 11.9 27.2 12.5 28.2 12.3 29.2 11.9 30.2 11.4 31.2 11 32.3 11.4 33.3 11.1 34.3 10.2 35.3 10.6 36.3 11 37.3 11.5 38.3 10.3 39.3 10.9 40.3 11.5 41.3 12.1 42.3 12.4 43.3 12.8 44.4 13 45.4 13.6 46.4 14.2 47.4 14 48.4 13.1 49.4 13.8 50.4 13.9 51.4 14.3 52.4 13.4 53.4 13.9 54.4 14.1 55.4 14.5 56.4 13.6 57.5 13.6 58.5 15.1 59.5 14.4 60.5 14.9 61.5 15.2 62.5 16.1 63.5 16 64.5 16.1 65.5 16 66.5 16.4 67.5 15.7 68.5 15.2 69.6 15.6 70.6 16 71.6 15.5 72.6 16 73.6 17.5 74.6 17.2 75.6 19 76.6 18.8 77.6 18.4 78.6 19 79.6 19.3 80.6 20.8 81.6 20.6 82.7 20.4 83.7 20.4 84.7 21 85.7 21.3 86.7 22.9 87.7 21.8 88.7 22 89.7 22.7 90.7 23.8 91.7 23.5 92.7 24.4 93.7 23.1 94.8 22.4 95.8 22.6 96.8 22.9 97.8 22.7 98.8 22.7 99.8 21.2 100.8 21 101.8 20.3 102.8 20.7 103.8 20 104.8 19.5 105.8 21 106.8 21.6 107.9 22.3 108.9 21.1 109.9 21.2 110.9 20.8 111.9 21.3 112.9 20.7 113.9 19.9 114.9 19.7 115.9 19.6 116.9 18.6 117.9 17 118.9 16.7 120 17 121 17.1 122 17.5 123 16.9 124 19 125 18.8 126 18.5 127 18 128 17.9 129 18.5 130 18.1 131 19.6 132 19.6 133.1 19.3 134.1 18.2 135.1 18.4 136.1 18.8 137.1 18.9 138.1 19.4 139.1 18.8 140.1 18.4 141.1 18.2 142.1 18.2 143.1 18.3 144.1 18.3 145.2 19.2 146.2 18.6 147.2 18.7 148.2 18.3 149.2 19.5 150.2 19.8 151.2 19.4 152.2 18.9 153.2 18.8 154.2 18.9 155.2 19.5 156.2 18.5 157.2 17.9 158.3 17.5 159.3 18.5 160.3 18.5 161.3 17.9 162.3 17.8 163.3 18.3 164.3 17.9 165.3 18 166.3 16.6 167.3 16.6 168.3 15.1 169.3 16.4 170.4 15.8 171.4 15 172.4 15.5 173.4 15.1 174.4 15 175.4 14.4 176.4 13.4 177.4 13.2 178.4 13.3 179.4 13 180.4 14.1 181.4 14.2 182.4 13.9 183.5 13.5 184.5 13 185.5 13.2 186.5 12.5 187.5 13.8 188.5 13.6 189.5 14.4 190.5 14.4 191.5 15.1 192.5 15.1 193.5 14.7 194.5 15.6 195.6 15.9 196.6 16.6 197.6 17 198.6 17.2 199.6 18 200.6 17.3 201.6 19.3 202.6 19.2 203.6 18.4 204.6 17.3 205.6 17.2 206.6 17.4 207.6 17.2 208.7 17.4 209.7 16 210.7 15.9 211.7 15.6 212.7 15.1 213.7 14.9 214.7 15 215.7 14.5 216.7 15.1 217.7 14.7 218.7 14.9 219.7 13.9 220.8 13.8 221.8 12.8 222.8 12.4 223.8 12.2 224.8 12.7 225.8 12.2 226.8 11.1 227.8 10.9 228.8 11.9 229.8 11.4 230.8 11.5 231.8 12.1 232.8 11.7 233.9 12.9 234.9 11.5 235.9 10.5 236.9 9.8 237.9 9.8 238.9 10.5 239.9 10.3 240.9 10.4 241.9 10 242.9 10.1 243.9 9.8 244.9 10.2 246 9.4 247 9.1 248 9.9 249 10.1 250 10.2 251 10.1 252 10.4 253 10.4 254 9.7 255 10.3 256 10.7 257 11.5 258 11.3 259.1 10.5 260.1 10.4 261.1 11 262.1 12.2 263.1 12.1 264.1 12.2 265.1 13.1 266.1 13.4 267.1 14.4 268.1 13.9 269.1 14.4 270.1 16 271.2 17.6 272.2 18 273.2 18.2 274.2 18.4 275.2 17.4 276.2 17.9 277.2 16.7 278.2 16.4 279.2 16.3 280.2 16.2 281.2 15.4 282.2 15.3 283.2 16.4 284.3 16.8 285.3 17 286.3 16.8 287.3 16.6 288.3 16.5 289.3 17 290.3 17 291.3 16.9 292.3 16.6 293.3 16.3 294.3 16 295.3 16.1 296.4 15.5 297.4 15.4 298.4 15.5 299.4 15.5 300.4 15.3 301.4 14.9 302.4 16.5 303.4 15.7 304.4 14.3 305.4 15 306.4 15.1 307.4 16.2 308.4 15.9 309.5 16.3 310.5 16.1 311.5 16.1 312.5 16.7 313.5 17.5 314.5 16.8 315.5 17.3 316.5 18.2 317.5 18.2 318.5 18.5 319.5 17.5 320.5 18.4 321.6 18.4 322.6 19 323.6 19.4 324.6 20.5 325.6 19.9 326.6 20.9 327.6 20.6 328.6 22 329.6 22 330.6 22 331.6 21.9 332.6 20.8 333.6 20 334.7 21 335.7 20 336.7 19.1 337.7 18.3 338.7 18.6 339.7 19.2 340.7 18.6 341.7 19.1 342.7 20 343.7 19.7 344.7 19 345.7 19.2 346.8 20.1 347.8 19.5 348.8 19.1 349.8 17.3 350.8 17.5 351.8 17.7 352.8 17.2 353.8 17.5 354.8 17.5 355.8 16.7 356.8 15.9 357.8 15.9 358.8 15.5 359.9 15.6 360.9 14.9 361.9 14.2 362.9 13.9 363.9 13.7 364.9 13.1 365.9 12.6 366.9 13.1 367.9 12.6 368.9 12.5 369.9 11.9 370.9 10.7 372 10.8 373 11.6 374 11.4 375 11.2 376 11.6 377 11.4 378 11.7 379 12.7 380 12.2 381 13.9 382 13.6 383 12.8 384 12.9 385.1 12 386.1 12.4 387.1 12.7 388.1 12.1 389.1 11.9 390.1 11 391.1 11.4 392.1 10.9 393.1 9.6 394.1 9.2 395.1 8.4 396.1 9.2 397.2 9.7 398.2 9.1 399.2 8.9 400.2 10 401.2 10.8 402.2 10 403.2 10.4 404.2 10.2 405.2 11.5 406.2 11.3 407.2 12.2 408.2 12.5 409.2 12.4 410.3 13.3 411.3 13.3 412.3 14 413.3 15.1 414.3 14.2 415.3 13.7 416.3 14.6 417.3 14.6 418.3 13.8 419.3 14.1 420.3 14.1 421.3 13.6 422.4 12.7 423.4 11.9 424.4 12.7 425.4 12.2 426.4 13 427.4 12.8 428.4 12.6 429.4 12.8 430.4 12.6 431.4 12.3 432.4 12.5 433.4 13.5 434.4 12.2 435.5 12.5 436.5 13 437.5 12.3 438.5 12.6 439.5 12.2 440.5 11.1 441.5 12 442.5 10.9 443.5 11.3 444.5 12.6 445.5 11.6 446.5 12.3 447.6 13.2 448.6 13.6 449.6 14.5 450.6 14.7 451.6 14 452.6 14 453.6 13.1 454.6 13.8 455.6 14.8 456.6 15.5 457.6 14.2 458.6 16.1 459.6 15.7 460.7 15.9 461.7 15.1 462.7 15.1 463.7 14.3 464.7 14.1 465.7 14.6 466.7 14.3 467.7 14.3 468.7 13.9 469.7 13.2 470.7 12.1 471.7 12.5 472.8 11.5 473.8 11.6 474.8 11.7 475.8 10.9 476.8 10.8 477.8 9.6 478.8 10 479.8 9.9" transform="matrix(1,0,0,-1,62.8,442.5)" fill="#d2dbee" fill-opacity="0.2" class="zr35-cls-175"></polygon>
</g>
<g clip-path="url(#zr35-c1)">
<polyline points="0 7.8 1 8.1 2 8.8 3 9.4 4 8.7 5 8.5 6 7.8 7.1 7.9 8.1 7.2 9.1 6.1 10.1 7 11.1 6.4 12.1 6.1 13.1 7.7 14.1 8 15.1 7.8 16.1 7.8 17.1 9.4 18.1 9.2 19.2 9.6 20.2 10 21.2 9.3 22.2 9.2 23.2 9.9 24.2 11.1 25.2 11.1 26.2 11.9 27.2 12.5 28.2 12.3 29.2 11.9 30.2 11.4 31.2 11 32.3 11.4 33.3 11.1 34.3 10.2 35.3 10.6 36.3 11 37.3 11.5 38.3 10.3 39.3 10.9 40.3 11.5 41.3 12.1 42.3 12.4 43.3 12.8 44.4 13 45.4 13.6 46.4 14.2 47.4 14 48.4 13.1 49.4 13.8 50.4 13.9 51.4 14.3 52.4 13.4 53.4 13.9 54.4 14.1 55.4 14.5 56.4 13.6 57.5 13.6 58.5 15.1 59.5 14.4 60.5 14.9 61.5 15.2 62.5 16.1 63.5 16 64.5 16.1 65.5 16 66.5 16.4 67.5 15.7 68.5 15.2 69.6 15.6 70.6 16 71.6 15.5 72.6 16 73.6 17.5 74.6 17.2 75.6 19 76.6 18.8 77.6 18.4 78.6 19 79.6 19.3 80.6 20.8 81.6 20.6 82.7 20.4 83.7 20.4 84.7 21 85.7 21.3 86.7 22.9 87.7 21.8 88.7 22 89.7 22.7 90.7 23.8 91.7 23.5 92.7 24.4 93.7 23.1 94.8 22.4 95.8 22.6 96.8 22.9 97.8 22.7 98.8 22.7 99.8 21.2 100.8 21 101.8 20.3 102.8 20.7 103.8 20 104.8 19.5 105.8 21 106.8 21.6 107.9 22.3 108.9 21.1 109.9 21.2 110.9 20.8 111.9 21.3 112.9 20.7 113.9 19.9 114.9 19.7 115.9 19.6 116.9 18.6 117.9 17 118.9 16.7 120 17 121 17.1 122 17.5 123 16.9 124 19 125 18.8 126 18.5 127 18 128 17.9 129 18.5 130 18.1 131 19.6 132 19.6 133.1 19.3 134.1 18.2 135.1 18.4 136.1 18.8 137.1 18.9 138.1 19.4 139.1 18.8 140.1 18.4 141.1 18.2 142.1 18.2 143.1 18.3 144.1 18.3 145.2 19.2 146.2 18.6 147.2 18.7 148.2 18.3 149.2 19.5 150.2 19.8 151.2 19.4 152.2 18.9 153.2 18.8 154.2 18.9 155.2 19.5 156.2 18.5 157.2 17.9 158.3 17.5 159.3 18.5 160.3 18.5 161.3 17.9 162.3 17.8 163.3 18.3 164.3 17.9 165.3 18 166.3 16.6 167.3 16.6 168.3 15.1 169.3 16.4 170.4 15.8 171.4 15 172.4 15.5 173.4 15.1 174.4 15 175.4 14.4 176.4 13.4 177.4 13.2 178.4 13.3 179.4 13 180.4 14.1 181.4 14.2 182.4 13.9 183.5 13.5 184.5 13 185.5 13.2 186.5 12.5 187.5 13.8 188.5 13.6 189.5 14.4 190.5 14.4 191.5 15.1 192.5 15.1 193.5 14.7 194.5 15.6 195.6 15.9 196.6 16.6 197.6 17 198.6 17.2 199.6 18 200.6 17.3 201.6 19.3 202.6 19.2 203.6 18.4 204.6 17.3 205.6 17.2 206.6 17.4 207.6 17.2 208.7 17.4 209.7 16 210.7 15.9 211.7 15.6 212.7 15.1 213.7 14.9 214.7 15 215.7 14.5 216.7 15.1 217.7 14.7 218.7 14.9 219.7 13.9 220.8 13.8 221.8 12.8 222.8 12.4 223.8 12.2 224.8 12.7 225.8 12.2 226.8 11.1 227.8 10.9 228.8 11.9 229.8 11.4 230.8 11.5 231.8 12.1 232.8 11.7 233.9 12.9 234.9 11.5 235.9 10.5 236.9 9.8 237.9 9.8 238.9 10.5 239.9 10.3 240.9 10.4 241.9 10 242.9 10.1 243.9 9.8 244.9 10.2 246 9.4 247 9.1 248 9.9 249 10.1 250 10.2 251 10.1 252 10.4 253 10.4 254 9.7 255 10.3 256 10.7 257 11.5 258 11.3 259.1 10.5 260.1 10.4 261.1 11 262.1 12.2 263.1 12.1 264.1 12.2 265.1 13.1 266.1 13.4 267.1 14.4 268.1 13.9 269.1 14.4 270.1 16 271.2 17.6 272.2 18 273.2 18.2 274.2 18.4 275.2 17.4 276.2 17.9 277.2 16.7 278.2 16.4 279.2 16.3 280.2 16.2 281.2 15.4 282.2 15.3 283.2 16.4 284.3 16.8 285.3 17 286.3 16.8 287.3 16.6 288.3 16.5 289.3 17 290.3 17 291.3 16.9 292.3 16.6 293.3 16.3 294.3 16 295.3 16.1 296.4 15.5 297.4 15.4 298.4 15.5 299.4 15.5 300.4 15.3 301.4 14.9 302.4 16.5 303.4 15.7 304.4 14.3 305.4 15 306.4 15.1 307.4 16.2 308.4 15.9 309.5 16.3 310.5 16.1 311.5 16.1 312.5 16.7 313.5 17.5 314.5 16.8 315.5 17.3 316.5 18.2 317.5 18.2 318.5 18.5 319.5 17.5 320.5 18.4 321.6 18.4 322.6 19 323.6 19.4 324.6 20.5 325.6 19.9 326.6 20.9 327.6 20.6 328.6 22 329.6 22 330.6 22 331.6 21.9 332.6 20.8 333.6 20 334.7 21 335.7 20 336.7 19.1 337.7 18.3 338.7 18.6 339.7 19.2 340.7 18.6 341.7 19.1 342.7 20 343.7 19.7 344.7 19 345.7 19.2 346.8 20.1 347.8 19.5 348.8 19.1 349.8 17.3 350.8 17.5 351.8 17.7 352.8 17.2 353.8 17.5 354.8 17.5 355.8 16.7 356.8 15.9 357.8 15.9 358.8 15.5 359.9 15.6 360.9 14.9 361.9 14.2 362.9 13.9 363.9 13.7 364.9 13.1 365.9 12.6 366.9 13.1 367.9 12.6 368.9 12.5 369.9 11.9 370.9 10.7 372 10.8 373 11.6 374 11.4 375 11.2 376 11.6 377 11.4 378 11.7 379 12.7 380 12.2 381 13.9 382 13.6 383 12.8 384 12.9 385.1 12 386.1 12.4 387.1 12.7 388.1 12.1 389.1 11.9 390.1 11 391.1 11.4 392.1 10.9 393.1 9.6 394.1 9.2 395.1 8.4 396.1 9.2 397.2 9.7 398.2 9.1 399.2 8.9 400.2 10 401.2 10.8 402.2 10 403.2 10.4 404.2 10.2 405.2 11.5 406.2 11.3 407.2 12.2 408.2 12.5 409.2 12.4 410.3 13.3 411.3 13.3 412.3 14 413.3 15.1 414.3 14.2 415.3 13.7 416.3 14.6 417.3 14.6 418.3 13.8 419.3 14.1 420.3 14.1 421.3 13.6 422.4 12.7 423.4 11.9 424.4 12.7 425.4 12.2 426.4 13 427.4 12.8 428.4 12.6 429.4 12.8 430.4 12.6 431.4 12.3 432.4 12.5 433.4 13.5 434.4 12.2 435.5 12.5 436.5 13 437.5 12.3 438.5 12.6 439.5 12.2 440.5 11.1 441.5 12 442.5 10.9 443.5 11.3 444.5 12.6 445.5 11.6 446.5 12.3 447.6 13.2 448.6 13.6 449.6 14.5 450.6 14.7 451.6 14 452.6 14 453.6 13.1 454.6 13.8 455.6 14.8 456.6 15.5 457.6 14.2 458.6 16.1 459.6 15.7 460.7 15.9 461.7 15.1 462.7 15.1 463.7 14.3 464.7 14.1 465.7 14.6 466.7 14.3 467.7 14.3 468.7 13.9 469.7 13.2 470.7 12.1 471.7 12.5 472.8 11.5 473.8 11.6 474.8 11.7 475.8 10.9 476.8 10.8 477.8 9.6 478.8 10 479.8 9.9" transform="matrix(1,0,0,-1,62.8,442.5)" fill="transparent" stroke="#d2dbee" stroke-width="0.5" class="zr35-cls-175"></polyline>
</g>
<g clip-path="url(#zr35-c2)">
<polyline points="0 7.8 1 8.1 2 8.8 3 9.4 4 8.7 5 8.5 6 7.8 7.1 7.9 8.1 7.2 9.1 6.1 10.1 7 11.1 6.4 12.1 6.1 13.1 7.7 14.1 8 15.1 7.8 16.1 7.8 17.1 9.4 18.1 9.2 19.2 9.6 20.2 10 21.2 9.3 22.2 9.2 23.2 9.9 24.2 11.1 25.2 11.1 26.2 11.9 27.2 12.5 28.2 12.3 29.2 11.9 30.2 11.4 31.2 11 32.3 11.4 33.3 11.1 34.3 10.2 35.3 10.6 36.3 11 37.3 11.5 38.3 10.3 39.3 10.9 40.3 11.5 41.3 12.1 42.3 12.4 43.3 12.8 44.4 13 45.4 13.6 46.4 14.2 47.4 14 48.4 13.1 49.4 13.8 50.4 13.9 51.4 14.3 52.4 13.4 53.4 13.9 54.4 14.1 55.4 14.5 56.4 13.6 57.5 13.6 58.5 15.1 59.5 14.4 60.5 14.9 61.5 15.2 62.5 16.1 63.5 16 64.5 16.1 65.5 16 66.5 16.4 67.5 15.7 68.5 15.2 69.6 15.6 70.6 16 71.6 15.5 72.6 16 73.6 17.5 74.6 17.2 75.6 19 76.6 18.8 77.6 18.4 78.6 19 79.6 19.3 80.6 20.8 81.6 20.6 82.7 20.4 83.7 20.4 84.7 21 85.7 21.3 86.7 22.9 87.7 21.8 88.7 22 89.7 22.7 90.7 23.8 91.7 23.5 92.7 24.4 93.7 23.1 94.8 22.4 95.8 22.6 96.8 22.9 97.8 22.7 98.8 22.7 99.8 21.2 100.8 21 101.8 20.3 102.8 20.7 103.8 20 104.8 19.5 105.8 21 106.8 21.6 107.9 22.3 108.9 21.1 109.9 21.2 110.9 20.8 111.9 21.3 112.9 20.7 113.9 19.9 114.9 19.7 115.9 19.6 116.9 18.6 117.9 17 118.9 16.7 120 17 121 17.1 122 17.5 123 16.9 124 19 125 18.8 126 18.5 127 18 128 17.9 129 18.5 130 18.1 131 19.6 132 19.6 133.1 19.3 134.1 18.2 135.1 18.4 136.1 18.8 137.1 18.9 138.1 19.4 139.1 18.8 140.1 18.4 141.1 18.2 142.1 18.2 143.1 18.3 144.1 18.3 145.2 19.2 146.2 18.6 147.2 18.7 148.2 18.3 149.2 19.5 150.2 19.8 151.2 19.4 152.2 18.9 153.2 18.8 154.2 18.9 155.2 19.5 156.2 18.5 157.2 17.9 158.3 17.5 159.3 18.5 160.3 18.5 161.3 17.9 162.3 17.8 163.3 18.3 164.3 17.9 165.3 18 166.3 16.6 167.3 16.6 168.3 15.1 169.3 16.4 170.4 15.8 171.4 15 172.4 15.5 173.4 15.1 174.4 15 175.4 14.4 176.4 13.4 177.4 13.2 178.4 13.3 179.4 13 180.4 14.1 181.4 14.2 182.4 13.9 183.5 13.5 184.5 13 185.5 13.2 186.5 12.5 187.5 13.8 188.5 13.6 189.5 14.4 190.5 14.4 191.5 15.1 192.5 15.1 193.5 14.7 194.5 15.6 195.6 15.9 196.6 16.6 197.6 17 198.6 17.2 199.6 18 200.6 17.3 201.6 19.3 202.6 19.2 203.6 18.4 204.6 17.3 205.6 17.2 206.6 17.4 207.6 17.2 208.7 17.4 209.7 16 210.7 15.9 211.7 15.6 212.7 15.1 213.7 14.9 214.7 15 215.7 14.5 216.7 15.1 217.7 14.7 218.7 14.9 219.7 13.9 220.8 13.8 221.8 12.8 222.8 12.4 223.8 12.2 224.8 12.7 225.8 12.2 226.8 11.1 227.8 10.9 228.8 11.9 229.8 11.4 230.8 11.5 231.8 12.1 232.8 11.7 233.9 12.9 234.9 11.5 235.9 10.5 236.9 9.8 237.9 9.8 238.9 10.5 239.9 10.3 240.9 10.4 241.9 10 242.9 10.1 243.9 9.8 244.9 10.2 246 9.4 247 9.1 248 9.9 249 10.1 250 10.2 251 10.1 252 10.4 253 10.4 254 9.7 255 10.3 256 10.7 257 11.5 258 11.3 259.1 10.5 260.1 10.4 261.1 11 262.1 12.2 263.1 12.1 264.1 12.2 265.1 13.1 266.1 13.4 267.1 14.4 268.1 13.9 269.1 14.4 270.1 16 271.2 17.6 272.2 18 273.2 18.2 274.2 18.4 275.2 17.4 276.2 17.9 277.2 16.7 278.2 16.4 279.2 16.3 280.2 16.2 281.2 15.4 282.2 15.3 283.2 16.4 284.3 16.8 285.3 17 286.3 16.8 287.3 16.6 288.3 16.5 289.3 17 290.3 17 291.3 16.9 292.3 16.6 293.3 16.3 294.3 16 295.3 16.1 296.4 15.5 297.4 15.4 298.4 15.5 299.4 15.5 300.4 15.3 301.4 14.9 302.4 16.5 303.4 15.7 304.4 14.3 305.4 15 306.4 15.1 307.4 16.2 308.4 15.9 309.5 16.3 310.5 16.1 311.5 16.1 312.5 16.7 313.5 17.5 314.5 16.8 315.5 17.3 316.5 18.2 317.5 18.2 318.5 18.5 319.5 17.5 320.5 18.4 321.6 18.4 322.6 19 323.6 19.4 324.6 20.5 325.6 19.9 326.6 20.9 327.6 20.6 328.6 22 329.6 22 330.6 22 331.6 21.9 332.6 20.8 333.6 20 334.7 21 335.7 20 336.7 19.1 337.7 18.3 338.7 18.6 339.7 19.2 340.7 18.6 341.7 19.1 342.7 20 343.7 19.7 344.7 19 345.7 19.2 346.8 20.1 347.8 19.5 348.8 19.1 349.8 17.3 350.8 17.5 351.8 17.7 352.8 17.2 353.8 17.5 354.8 17.5 355.8 16.7 356.8 15.9 357.8 15.9 358.8 15.5 359.9 15.6 360.9 14.9 361.9 14.2 362.9 13.9 363.9 13.7 364.9 13.1 365.9 12.6 366.9 13.1 367.9 12.6 368.9 12.5 369.9 11.9 370.9 10.7 372 10.8 373 11.6 374 11.4 375 11.2 376 11.6 377 11.4 378 11.7 379 12.7 380 12.2 381 13.9 382 13.6 383 12.8 384 12.9 385.1 12 386.1 12.4 387.1 12.7 388.1 12.1 389.1 11.9 390.1 11 391.1 11.4 392.1 10.9 393.1 9.6 394.1 9.2 395.1 8.4 396.1 9.2 397.2 9.7 398.2 9.1 399.2 8.9 400.2 10 401.2 10.8 402.2 10 403.2 10.4 404.2 10.2 405.2 11.5 406.2 11.3 407.2 12.2 408.2 12.5 409.2 12.4 410.3 13.3 411.3 13.3 412.3 14 413.3 15.1 414.3 14.2 415.3 13.7 416.3 14.6 417.3 14.6 418.3 13.8 419.3 14.1 420.3 14.1 421.3 13.6 422.4 12.7 423.4 11.9 424.4 12.7 425.4 12.2 426.4 13 427.4 12.8 428.4 12.6 429.4 12.8 430.4 12.6 431.4 12.3 432.4 12.5 433.4 13.5 434.4 12.2 435.5 12.5 436.5 13 437.5 12.3 438.5 12.6 439.5 12.2 440.5 11.1 441.5 12 442.5 10.9 443.5 11.3 444.5 12.6 445.5 11.6 446.5 12.3 447.6 13.2 448.6 13.6 449.6 14.5 450.6 14.7 451.6 14 452.6 14 453.6 13.1 454.6 13.8 455.6 14.8 456.6 15.5 457.6 14.2 458.6 16.1 459.6 15.7 460.7 15.9 461.7 15.1 462.7 15.1 463.7 14.3 464.7 14.1 465.7 14.6 466.7 14.3 467.7 14.3 468.7 13.9 469.7 13.2 470.7 12.1 471.7 12.5 472.8 11.5 473.8 11.6 474.8 11.7 475.8 10.9 476.8 10.8 477.8 9.6 478.8 10 479.8 9.9" transform="matrix(1,0,0,-1,62.8,442.5)" fill="transparent" stroke="#8fb0f7" stroke-width="0.5" class="zr35-cls-175"></polyline>
</g>
<g clip-path="url(#zr35-c3)">
<polyline points="0 7.8 1 8.1 2 8.8 3 9.4 4 8.7 5 8.5 6 7.8 7.1 7.9 8.1 7.2 9.1 6.1 10.1 7 11.1 6.4 12.1 6.1 13.1 7.7 14.1 8 15.1 7.8 16.1 7.8 17.1 9.4 18.1 9.2 19.2 9.6 20.2 10 21.2 9.3 22.2 9.2 23.2 9.9 24.2 11.1 25.2 11.1 26.2 11.9 27.2 12.5 28.2 12.3 29.2 11.9 30.2 11.4 31.2 11 32.3 11.4 33.3 11.1 34.3 10.2 35.3 10.6 36.3 11 37.3 11.5 38.3 10.3 39.3 10.9 40.3 11.5 41.3 12.1 42.3 12.4 43.3 12.8 44.4 13 45.4 13.6 46.4 14.2 47.4 14 48.4 13.1 49.4 13.8 50.4 13.9 51.4 14.3 52.4 13.4 53.4 13.9 54.4 14.1 55.4 14.5 56.4 13.6 57.5 13.6 58.5 15.1 59.5 14.4 60.5 14.9 61.5 15.2 62.5 16.1 63.5 16 64.5 16.1 65.5 16 66.5 16.4 67.5 15.7 68.5 15.2 69.6 15.6 70.6 16 71.6 15.5 72.6 16 73.6 17.5 74.6 17.2 75.6 19 76.6 18.8 77.6 18.4 78.6 19 79.6 19.3 80.6 20.8 81.6 20.6 82.7 20.4 83.7 20.4 84.7 21 85.7 21.3 86.7 22.9 87.7 21.8 88.7 22 89.7 22.7 90.7 23.8 91.7 23.5 92.7 24.4 93.7 23.1 94.8 22.4 95.8 22.6 96.8 22.9 97.8 22.7 98.8 22.7 99.8 21.2 100.8 21 101.8 20.3 102.8 20.7 103.8 20 104.8 19.5 105.8 21 106.8 21.6 107.9 22.3 108.9 21.1 109.9 21.2 110.9 20.8 111.9 21.3 112.9 20.7 113.9 19.9 114.9 19.7 115.9 19.6 116.9 18.6 117.9 17 118.9 16.7 120 17 121 17.1 122 17.5 123 16.9 124 19 125 18.8 126 18.5 127 18 128 17.9 129 18.5 130 18.1 131 19.6 132 19.6 133.1 19.3 134.1 18.2 135.1 18.4 136.1 18.8 137.1 18.9 138.1 19.4 139.1 18.8 140.1 18.4 141.1 18.2 142.1 18.2 143.1 18.3 144.1 18.3 145.2 19.2 146.2 18.6 147.2 18.7 148.2 18.3 149.2 19.5 150.2 19.8 151.2 19.4 152.2 18.9 153.2 18.8 154.2 18.9 155.2 19.5 156.2 18.5 157.2 17.9 158.3 17.5 159.3 18.5 160.3 18.5 161.3 17.9 162.3 17.8 163.3 18.3 164.3 17.9 165.3 18 166.3 16.6 167.3 16.6 168.3 15.1 169.3 16.4 170.4 15.8 171.4 15 172.4 15.5 173.4 15.1 174.4 15 175.4 14.4 176.4 13.4 177.4 13.2 178.4 13.3 179.4 13 180.4 14.1 181.4 14.2 182.4 13.9 183.5 13.5 184.5 13 185.5 13.2 186.5 12.5 187.5 13.8 188.5 13.6 189.5 14.4 190.5 14.4 191.5 15.1 192.5 15.1 193.5 14.7 194.5 15.6 195.6 15.9 196.6 16.6 197.6 17 198.6 17.2 199.6 18 200.6 17.3 201.6 19.3 202.6 19.2 203.6 18.4 204.6 17.3 205.6 17.2 206.6 17.4 207.6 17.2 208.7 17.4 209.7 16 210.7 15.9 211.7 15.6 212.7 15.1 213.7 14.9 214.7 15 215.7 14.5 216.7 15.1 217.7 14.7 218.7 14.9 219.7 13.9 220.8 13.8 221.8 12.8 222.8 12.4 223.8 12.2 224.8 12.7 225.8 12.2 226.8 11.1 227.8 10.9 228.8 11.9 229.8 11.4 230.8 11.5 231.8 12.1 232.8 11.7 233.9 12.9 234.9 11.5 235.9 10.5 236.9 9.8 237.9 9.8 238.9 10.5 239.9 10.3 240.9 10.4 241.9 10 242.9 10.1 243.9 9.8 244.9 10.2 246 9.4 247 9.1 248 9.9 249 10.1 250 10.2 251 10.1 252 10.4 253 10.4 254 9.7 255 10.3 256 10.7 257 11.5 258 11.3 259.1 10.5 260.1 10.4 261.1 11 262.1 12.2 263.1 12.1 264.1 12.2 265.1 13.1 266.1 13.4 267.1 14.4 268.1 13.9 269.1 14.4 270.1 16 271.2 17.6 272.2 18 273.2 18.2 274.2 18.4 275.2 17.4 276.2 17.9 277.2 16.7 278.2 16.4 279.2 16.3 280.2 16.2 281.2 15.4 282.2 15.3 283.2 16.4 284.3 16.8 285.3 17 286.3 16.8 287.3 16.6 288.3 16.5 289.3 17 290.3 17 291.3 16.9 292.3 16.6 293.3 16.3 294.3 16 295.3 16.1 296.4 15.5 297.4 15.4 298.4 15.5 299.4 15.5 300.4 15.3 301.4 14.9 302.4 16.5 303.4 15.7 304.4 14.3 305.4 15 306.4 15.1 307.4 16.2 308.4 15.9 309.5 16.3 310.5 16.1 311.5 16.1 312.5 16.7 313.5 17.5 314.5 16.8 315.5 17.3 316.5 18.2 317.5 18.2 318.5 18.5 319.5 17.5 320.5 18.4 321.6 18.4 322.6 19 323.6 19.4 324.6 20.5 325.6 19.9 326.6 20.9 327.6 20.6 328.6 22 329.6 22 330.6 22 331.6 21.9 332.6 20.8 333.6 20 334.7 21 335.7 20 336.7 19.1 337.7 18.3 338.7 18.6 339.7 19.2 340.7 18.6 341.7 19.1 342.7 20 343.7 19.7 344.7 19 345.7 19.2 346.8 20.1 347.8 19.5 348.8 19.1 349.8 17.3 350.8 17.5 351.8 17.7 352.8 17.2 353.8 17.5 354.8 17.5 355.8 16.7 356.8 15.9 357.8 15.9 358.8 15.5 359.9 15.6 360.9 14.9 361.9 14.2 362.9 13.9 363.9 13.7 364.9 13.1 365.9 12.6 366.9 13.1 367.9 12.6 368.9 12.5 369.9 11.9 370.9 10.7 372 10.8 373 11.6 374 11.4 375 11.2 376 11.6 377 11.4 378 11.7 379 12.7 380 12.2 381 13.9 382 13.6 383 12.8 384 12.9 385.1 12 386.1 12.4 387.1 12.7 388.1 12.1 389.1 11.9 390.1 11 391.1 11.4 392.1 10.9 393.1 9.6 394.1 9.2 395.1 8.4 396.1 9.2 397.2 9.7 398.2 9.1 399.2 8.9 400.2 10 401.2 10.8 402.2 10 403.2 10.4 404.2 10.2 405.2 11.5 406.2 11.3 407.2 12.2 408.2 12.5 409.2 12.4 410.3 13.3 411.3 13.3 412.3 14 413.3 15.1 414.3 14.2 415.3 13.7 416.3 14.6 417.3 14.6 418.3 13.8 419.3 14.1 420.3 14.1 421.3 13.6 422.4 12.7 423.4 11.9 424.4 12.7 425.4 12.2 426.4 13 427.4 12.8 428.4 12.6 429.4 12.8 430.4 12.6 431.4 12.3 432.4 12.5 433.4 13.5 434.4 12.2 435.5 12.5 436.5 13 437.5 12.3 438.5 12.6 439.5 12.2 440.5 11.1 441.5 12 442.5 10.9 443.5 11.3 444.5 12.6 445.5 11.6 446.5 12.3 447.6 13.2 448.6 13.6 449.6 14.5 450.6 14.7 451.6 14 452.6 14 453.6 13.1 454.6 13.8 455.6 14.8 456.6 15.5 457.6 14.2 458.6 16.1 459.6 15.7 460.7 15.9 461.7 15.1 462.7 15.1 463.7 14.3 464.7 14.1 465.7 14.6 466.7 14.3 467.7 14.3 468.7 13.9 469.7 13.2 470.7 12.1 471.7 12.5 472.8 11.5 473.8 11.6 474.8 11.7 475.8 10.9 476.8 10.8 477.8 9.6 478.8 10 479.8 9.9" transform="matrix(1,0,0,-1,62.8,442.5)" fill="transparent" stroke="#d2dbee" stroke-width="0.5" class="zr35-cls-175"></polyline>
</g>
<path d="M0 0l480 0l0 30l-480 0Z" transform="matrix(1,0,0,-1,62.8,442.5)" fill="transparent" class="zr35-cls-179"></path>
<path d="M0 0l48 0l0 30l-48 0Z" transform="matrix(1,0,0,-1,62.8,442.5)" fill="rgb(135,175,255)" fill-opacity="0.2" class="zr35-cls-175"></path>
<path d="M3.5 0.5L476.5 0.5A3 3 0 0 1 479.5 3.5L479.5 26.5A3 3 0 0 1 476.5 29.5L3.5 29.5A3 3 0 0 1 0.5 26.5L0.5 3.5A3 3 0 0 1 3.5 0.5" transform="matrix(1,0,0,-1,62.8,442.5)" fill="rgb(0,0,0)" fill-opacity="0" stroke="#d2dbee" class="zr35-cls-175"></path>
<path d="M0 29.5L48 29.5L48 34.5A2 2 0 0 1 46 36.5L2 36.5A2 2 0 0 1 0 34.5L0 29.5" transform="matrix(1,0,0,-1,62.8,442.5)" fill="#D2DBEE" fill-opacity="0.7" class="zr35-cls-175"></path>
<path d="M-2.2 -1.7C-1.9 -1.7 -1.7 -1.5 -1.7 -1.1L-1.7 1.1C-1.7 1.5 -1.9 1.7 -2.2 1.7C-2.6 1.7 -2.8 1.5 -2.8 1.1L-2.8 -1.1C-2.8 -1.5 -2.6 -1.7 -2.2 -1.7ZM0 -1.7C0.4 -1.7 0.6 -1.5 0.6 -1.1L0.6 1.1C0.6 1.5 0.4 1.7 0 1.7C-0.4 1.7 -0.6 1.5 -0.6 1.1L-0.6 -1.1C-0.6 -1.5 -0.4 -1.7 0 -1.7ZM2.2 -1.7C2.6 -1.7 2.8 -1.5 2.8 -1.1L2.8 1.1C2.8 1.5 2.6 1.7 2.2 1.7C1.9 1.7 1.7 1.5 1.7 1.1L1.7 -1.1C1.7 -1.5 1.9 -1.7 2.2 -1.7Z" transform="matrix(1,0,0,-1,86.8,409.5)" fill="#fff" class="zr35-cls-175"></path>
<path d="M0 1.63L0 2M0 0L0 0.38M-0.1 0.38L0.1 0.38A0.1 0.1 0 0 1 0.2 0.47L0.2 1.52A0.1 0.1 0 0 1 0.1 1.62L-0.1 1.63A0.1 0.1 0 0 1 -0.2 1.52L-0.2 0.47A0.1 0.1 0 0 1 -0.1 0.37Z" transform="matrix(15,0,0,-15,63.8,442.5)" fill="#fff" stroke="#ACB8D1" stroke-width="0.06666666666666667" class="zr35-cls-180"></path>
<path d="M0 1.63L0 2M0 0L0 0.38M-0.1 0.38L0.1 0.38A0.1 0.1 0 0 1 0.2 0.47L0.2 1.52A0.1 0.1 0 0 1 0.1 1.62L-0.1 1.63A0.1 0.1 0 0 1 -0.2 1.52L-0.2 0.47A0.1 0.1 0 0 1 -0.1 0.37Z" transform="matrix(15,0,0,-15,109.8,442.5)" fill="#fff" stroke="#ACB8D1" stroke-width="0.06666666666666667" class="zr35-cls-180"></path>
<path d="M-14 -15l108.8 0l0 30l-108.8 0Z" transform="translate(505.2009 15)" fill="transparent" stroke="#ccc" stroke-width="0" class="zr35-cls-175"></path>
<path d="M-74.3 -5l148.6 0l0 28l-148.6 0Z" transform="translate(300 5)" fill="rgb(0,0,0)" fill-opacity="0" stroke="#ccc" stroke-width="0" class="zr35-cls-175"></path>
<path d="M-6.5 -1.6L-0.1 4.3L6.5 -1.4M-6.5 3.8L-6.5 7.5L6.2 7.5L6.2 3.8M-0.1 4.2L-0.1 -7.5" transform="translate(505.2009 15)" fill="transparent" stroke="#666" class="zr35-cls-181"></path>
<path d="M-7 0.9M4.5 -3L7.2 -3L7.2 -5.7M7 -2.6C5.9 -5.6 2.8 -7.9 -0.9 -7.5C-4.6 -7 -7.6 -3.7 -7.5 0.2M-4.5 3L-7.2 3L-7.2 5.7M-7 2.6C-5.9 5.6 -2.8 7.9 0.9 7.5C4.6 7 7.6 3.7 7.5 -0.2" transform="translate(532.1373 15)" fill="transparent" stroke="#666" class="zr35-cls-181"></path>
<path d="M-7.5 -4L-0.5 -4M-4 -0.5L-4 -7.5M0.8 -4L7.5 -4L7.5 7.5L-4 7.5L-4 0.8" transform="translate(560.0952 15)" fill="transparent" stroke="#666" class="zr35-cls-181"></path>
<path d="M-2.8 -7.5L-6 -4.3L-2.7 -1M-5.8 -4.3L6 -4.3L6 7.5L-5.8 7.5L-5.8 0.6" transform="translate(586.5476 15)" fill="transparent" stroke="#666" class="zr35-cls-181"></path>
<text dominant-baseline="central" text-anchor="middle" style="font-size:18px;font-family:sans-serif;font-weight:bold;" xml:space="preserve" y="9" transform="translate(300 5)" fill="#464646">Large Area Chart</text>
<defs >
<clipPath id="zr35-c0">
<path d="M59 59l482 0l0 322l-482 0Z" fill="#000" class="zr35-cls-176"></path>
</clipPath>
<linearGradient gradientUnits="objectBoundingBox" x1="0" y1="0" x2="0" y2="1" id="zr35-g0">
<stop offset="0%" stop-color="rgb(255, 158, 68)"></stop>
<stop offset="100%" stop-color="rgb(255, 70, 131)"></stop>
</linearGradient>
<clipPath id="zr35-c1">
<path d="M0 0l0 0l0 30l0 0Z" transform="matrix(1,0,0,-1,62.8,442.5)" fill="#000" class="zr35-cls-176"></path>
</clipPath>
<clipPath id="zr35-c2">
<path d="M0 0l48 0l0 30l-48 0Z" transform="matrix(1,0,0,-1,62.8,442.5)" fill="#000" class="zr35-cls-176"></path>
</clipPath>
<clipPath id="zr35-c3">
<path d="M48 0l432 0l0 30l-432 0Z" transform="matrix(1,0,0,-1,62.8,442.5)" fill="#000" class="zr35-cls-176"></path>
</clipPath>
</defs>
<style ><![CDATA[
.zr35-cls-175:hover {
pointer-events:none;
}
.zr35-cls-176:hover {
cursor:pointer;
fill:rgba(0,0,0,1);
}
.zr35-cls-177:hover {
cursor:pointer;
fill:[object Object];
}
.zr35-cls-178:hover {
cursor:pointer;
}
.zr35-cls-179:hover {
cursor:pointer;
fill:rgba(0,0,0,0);
}
.zr35-cls-180:hover {
cursor:pointer;
fill:rgba(255,255,255,1);
stroke:#8FB0F7;
}
.zr35-cls-181:hover {
cursor:pointer;
stroke:#3E98C5;
}

]]>

</style>
</svg>