<svg width="600" height="450" xmlns="http://www.w3.org/2000/svg" xmlns:xlink="http://www.w3.org/1999/xlink" version="1.1" baseProfile="full" viewBox="0 0 600 450">
<rect width="600" height="450" x="0" y="0" id="0" fill="none"></rect>
<path d="M60 380.5L540 380.5" fill="none" stroke="#E0E6F1"></path>
<path d="M60 334.5L540 334.5" fill="none" stroke="#E0E6F1"></path>
<path d="M60 288.5L540 288.5" fill="none" stroke="#E0E6F1"></path>
<path d="M60 243.5L540 243.5" fill="none" stroke="#E0E6F1"></path>
<path d="M60 197.5L540 197.5" fill="none" stroke="#E0E6F1"></path>
<path d="M60 151.5L540 151.5" fill="none" stroke="#E0E6F1"></path>
<path d="M60 105.5L540 105.5" fill="none" stroke="#E0E6F1"></path>
<path d="M60 60.5L540 60.5" fill="none" stroke="#E0E6F1"></path>
<path d="M60 380.5L540 380.5" fill="none" stroke="#6E7079" stroke-linecap="round"></path>
<path d="M60.5 380L60.5 385" fill="none" stroke="#6E7079"></path>
<path d="M138.5 380L138.5 385" fill="none" stroke="#6E7079"></path>
<path d="M217.5 380L217.5 385" fill="none" stroke="#6E7079"></path>
<path d="M296.5 380L296.5 385" fill="none" stroke="#6E7079"></path>
<path d="M375.5 380L375.5 385" fill="none" stroke="#6E7079"></path>
<path d="M453.5 380L453.5 385" fill="none" stroke="#6E7079"></path>
<path d="M532.5 380L532.5 385" fill="none" stroke="#6E7079"></path>
<text dominant-baseline="central" text-anchor="end" style="font-size:12px;font-family:sans-serif;" transform="translate(52 380)" fill="#6E7079">0</text>
<text dominant-baseline="central" text-anchor="end" style="font-size:12px;font-family:sans-serif;" transform="translate(52 334.2857)" fill="#6E7079">50</text>
<text dominant-baseline="central" text-anchor="end" style="font-size:12px;font-family:sans-serif;" transform="translate(52 288.5714)" fill="#6E7079">100</text>
<text dominant-baseline="central" text-anchor="end" style="font-size:12px;font-family:sans-serif;" transform="translate(52 242.8571)" fill="#6E7079">150</text>
<text dominant-baseline="central" text-anchor="end" style="font-size:12px;font-family:sans-serif;" transform="translate(52 197.1429)" fill="#6E7079">200</text>
<text dominant-baseline="central" text-anchor="end" style="font-size:12px;font-family:sans-serif;" transform="translate(52 151.4286)" fill="#6E7079">250</text>
<text dominant-baseline="central" text-anchor="end" style="font-size:12px;font-family:sans-serif;" transform="translate(52 105.7143)" fill="#6E7079">300</text>
<text dominant-baseline="central" text-anchor="end" style="font-size:12px;font-family:sans-serif;" transform="translate(52 60)" fill="#6E7079">350</text>
<text dominant-baseline="central" text-anchor="middle" style="font-size:12px;font-family:sans-serif;" y="6" transform="translate(60 388)" fill="#6E7079">1968/09/04</text>
<text dominant-baseline="central" text-anchor="middle" style="font-size:12px;font-family:sans-serif;" y="6" transform="translate(138.72 388)" fill="#6E7079">1969/07/29</text>
<text dominant-baseline="central" text-anchor="middle" style="font-size:12px;font-family:sans-serif;" y="6" transform="translate(217.44 388)" fill="#6E7079">1970/06/22</text>
<text dominant-baseline="central" text-anchor="middle" style="font-size:12px;font-family:sans-serif;" y="6" transform="translate(296.16 388)" fill="#6E7079">1971/05/16</text>
<text dominant-baseline="central" text-anchor="middle" style="font-size:12px;font-family:sans-serif;" y="6" transform="translate(374.88 388)" fill="#6E7079">1972/04/08</text>
<text dominant-baseline="central" text-anchor="middle" style="font-size:12px;font-family:sans-serif;" y="6" transform="translate(453.6 388)" fill="#6E7079">1973/03/02</text>
<text dominant-baseline="central" text-anchor="middle" style="font-size:12px;font-family:sans-serif;" y="6" transform="translate(532.32 388)" fill="#6E7079">1974/01/24</text>
<g clip-path="url(#zr28-c0)">
<path d="M60 214.9L60.2 215.6L60.5 216.3L60.7 217L61 214.6L61.2 210.2L61.4 205.3L61.7 204L61.9 211.5L62.2 203.8L62.4 211.9L62.6 215.8L62.9 214.5L63.1 205.8L63.4 210.5L63.6 214L64.1 207.6L64.3 216.3L64.6 217.2L64.8 215.1L65 209.5L65.3 218.6L65.5 210L65.8 216.9L66 210.6L66.2 213L66.5 218.8L66.7 222.1L67 217.6L67.2 211.9L67.4 220.6L67.7 212.7L68.2 216.2L68.4 217.9L68.6 226.4L68.9 225.2L69.1 219.5L69.4 213.1L69.6 210.9L69.8 204.7L70.1 198.3L70.3 200L70.6 196.7L70.8 201.1L71 208.7L71.3 214.9L71.5 207.4L71.8 216.1L72 213.2L72.5 221.3L72.7 228.2L73 227.5L73.4 232.5L73.7 235.1L73.9 231.6L74.2 240.5L74.4 234.2L74.6 240.9L74.9 234.1L75.1 238.3L75.4 244.9L75.6 247.4L75.8 252.6L76.1 245.8L76.3 245.1L76.6 249.5L76.8 243.7L77 246.9L77.3 242.7L77.5 249.3L77.8 243.3L78 249.6L78.2 257L78.5 260.9L78.7 257.9L79 267L79.2 275L79.4 274L79.7 278L79.9 274.4L80.4 267.4L80.6 265.7L80.9 263.6L81.1 259.2L81.4 261.8L81.6 265.1L81.8 261.7L82.1 259.2L82.3 254.7L82.6 262.6L82.8 271.4L83 263.3L83.3 267.8L83.5 263L83.8 269.4L84 263.2L84.2 265.3L84.7 266.8L85 261.7L85.2 260.6L85.4 252.2L85.7 250.1L85.9 254.8L86.4 261.6L86.6 269.2L86.9 274.3L87.1 266.6L87.4 274.9L87.6 283.1L87.8 278.5L88.1 276.3L88.3 275.2L88.6 271L89 277L89.3 285.5L89.5 276.6L89.8 275L90 282.1L90.2 279.1L90.5 270.2L90.7 267.3L91 268.7L91.2 274.1L91.4 283L91.7 289L91.9 294.3L92.2 300L92.4 297.4L92.6 298.9L92.9 295.7L93.1 288.8L93.4 282.3L93.6 280.5L93.8 289.5L94.1 287L94.3 282.4L94.6 287.8L94.8 285.3L95 283.2L95.3 288.1L95.5 286.8L96 290.1L96.5 291.2L96.7 287.7L97 290.4L97.2 288.6L97.4 295L97.7 291.4L97.9 292.6L98.2 287.6L98.4 286.4L98.6 279.5L98.9 284.5L99.1 291.4L99.4 294.7L99.6 299.5L99.8 301.7L100.1 304.5L100.6 297.3L101 304.3L101.3 297.1L101.5 300L101.8 308.5L102 310.3L102.2 306.4L102.5 300.2L102.7 307.7L103 305.7L103.2 296.8L103.4 301.8L103.7 304L103.9 298.4L104.2 307.1L104.4 313.9L104.6 310.4L104.9 316.5L105.1 318.2L105.6 327.1L105.8 332.5L106.1 323.8L106.3 328.1L106.6 330.7L107 326.3L107.3 329.5L107.5 336.7L108 334.3L108.2 337.7L108.5 340.1L108.7 346L109.2 340.2L109.4 346.6L109.7 354L109.9 350L110.2 347.1L110.4 345.8L110.6 341.5L110.9 336L111.1 330.5L111.4 327.7L111.6 326.8L111.8 320.6L112.1 328.9L112.3 330.8L112.6 323.1L113 323.6L113.3 327.5L113.5 322.9L113.8 315.5L114 324.6L114.2 320.2L114.5 315.9L114.7 309.1L115 315.7L115.2 311.4L115.4 320.5L115.7 323.9L115.9 317.1L116.2 314.6L116.4 310.6L116.6 303.4L116.9 299L117.1 303.8L117.4 308.1L117.6 313.4L117.8 318L118.1 319L118.3 321.5L118.6 315.4L118.8 318.3L119 317.7L119.3 325.2L119.5 327.5L119.8 325.1L120 320.8L120.2 328.7L120.5 320L120.7 321.6L121 323.7L121.2 332.1L121.4 340.5L121.7 345.4L121.9 352.6L122.2 348.2L122.6 352.1L122.9 359.9L123.1 357.8L123.4 364.9L123.8 365.9L124.1 366.7L124.6 359.4L124.8 350.4L125 354.8L125.3 346.5L125.5 352.2L125.8 347.4L126 348.6L126.2 339.8L126.5 336.4L126.7 328.1L127.2 335.8L127.4 342.7L127.7 350.1L127.9 355.9L128.2 349.9L128.4 352.8L128.6 343.8L128.9 346.3L129.1 353.7L129.4 351L129.6 345L129.8 353.4L130.1 355.7L130.3 363.5L130.6 358.4L130.8 363.9L131 356.3L131.3 349L131.8 350.1L132 351.3L132.2 343.9L132.7 341.9L133 335.9L133.2 330.5L133.4 339.6L133.7 333.1L133.9 331.2L134.2 322.8L134.4 317L134.6 319.8L134.9 315.8L135.1 310.8L135.4 316.9L135.6 311.4L135.8 320.3L136.1 316L136.3 320L136.6 315.1L137 321.8L137.3 314.1L137.5 310.7L137.8 313.2L138 314.7L138.2 311.8L138.5 307L138.7 307.7L139 308.9L139.2 316.6L139.4 325.4L139.7 319.7L139.9 318L140.2 315.7L140.4 312.8L140.6 320.3L140.9 316.4L141.1 314.1L141.4 312.6L141.6 309L141.8 302.5L142.1 297.2L142.3 293.3L142.6 288.9L142.8 284.8L143 286.6L143.3 288.7L143.5 284.6L143.8 283.5L144 280.2L144.2 277.4L144.5 270.4L144.7 278.4L145.2 280.4L145.4 285L145.7 282.1L145.9 278.1L146.2 287.2L146.4 291.4L146.6 287.2L146.9 293.4L147.1 286.9L147.4 281.4L147.6 280.2L148.1 288.9L148.3 281L148.6 286.5L148.8 283L149 281.8L149.3 279.9L149.5 275.3L149.8 280.3L150 287.5L150.2 285.9L150.5 282.2L150.7 283.6L151 277L151.2 276.3L151.4 269.2L151.7 273.5L151.9 265.7L152.2 267.7L152.4 260.4L152.6 254.9L152.9 248L153.4 246.7L153.6 240.4L153.8 232.9L154.3 231.9L154.6 240.2L154.8 234.6L155 228.3L155.3 232.4L155.5 228.6L155.8 231.6L156 224.4L156.2 221.2L156.5 224.3L156.7 231.1L157 234.9L157.2 243.7L157.4 250L157.7 248.4L157.9 243.4L158.2 236.2L158.4 232.4L158.6 227.4L158.9 234.3L159.1 229.6L159.4 224.1L159.6 227.5L159.8 230.7L160.1 238.4L160.3 236.2L160.6 237.2L160.8 230.3L161 224.7L161.3 219.2L161.5 213.8L161.8 216.4L162 217.4L162.2 223.7L162.5 221L162.7 218.4L163 212.8L163.2 214.2L163.7 218.4L163.9 223.7L164.2 228.4L164.4 237.1L164.6 241.2L164.9 232.5L165.1 230.6L165.4 238.6L165.6 246.2L165.8 247.1L166.1 248.1L166.3 256.3L166.6 252.7L166.8 243.9L167 245L167.3 246.1L167.5 253.2L167.8 260.9L168 258.8L168.2 263.6L168.5 271.5L168.7 270.8L169 270L169.2 274.1L169.4 271.7L169.9 265.5L170.2 261.4L170.4 254.3L170.6 255L170.9 260.2L171.1 263.1L171.4 267.2L171.6 273.7L171.8 269.9L172.1 267.1L172.3 262L172.6 269.5L172.8 262.6L173 260.3L173.3 255.3L173.5 260L173.8 269.1L174 273.7L174.5 279.4L174.7 276.8L175 274.5L175.2 283.2L175.4 280.6L175.7 279.3L175.9 273.3L176.2 272.4L176.4 263.6L176.6 266.1L176.9 257L177.1 248.9L177.4 243.4L177.6 248.2L177.8 244.7L178.1 243.4L178.3 248.3L178.6 249L178.8 254.3L179.3 260.5L179.5 262.3L180 265.8L180.2 267.6L180.5 275.2L180.7 268.7L181 273.1L181.2 280L181.4 270.9L181.7 279.2L181.9 277.1L182.4 272.6L182.6 264.3L182.9 262.9L183.4 260.2L183.6 266.2L183.8 258.4L184.1 249.9L184.6 242.4L184.8 246.6L185 240.8L185.3 238.2L185.5 246L186 253L186.2 247.5L186.5 253.1L186.7 245.6L187 242.2L187.2 241.4L187.4 243.6L187.7 247.4L187.9 250.7L188.2 246.5L188.4 253.8L188.6 248.9L188.9 246.3L189.1 249.6L189.4 257.3L189.6 260.1L189.8 253L190.1 244.5L190.3 250.7L190.6 253.5L190.8 255.4L191.3 259.3L191.5 260.3L191.8 255L192.2 261.5L192.5 255L192.7 259.5L193 255.6L193.2 261.4L193.4 253.5L193.7 255.1L193.9 261.1L194.2 266.9L194.4 274.1L194.6 268.5L195.1 265.4L195.4 267.3L195.6 264.3L195.8 256.7L196.3 254.7L196.6 260L197 262.1L197.3 253.8L197.8 261.4L198 260.1L198.2 254L198.5 248.4L198.7 246.6L199 245L199.2 250.2L199.4 247.5L199.7 242.6L199.9 234L200.2 231.5L200.4 233.4L200.6 232.1L201.1 226.8L201.4 224.7L201.8 219.5L202.1 222L202.3 216.2L202.6 212L202.8 208.2L203 210L203.3 213.8L203.5 211.3L203.8 214.4L204.2 215.5L204.5 211L204.7 219.8L205.2 215.2L205.4 217L205.7 218.2L205.9 212.5L206.2 213.5L206.4 209.3L206.6 207.4L206.9 203.4L207.4 208.6L207.6 215.8L208.1 224.2L208.3 219.2L208.8 221.1L209 226.5L209.3 232.8L209.5 234.2L209.8 241.7L210 240.5L210.2 244.6L210.5 245.4L210.7 254.1L211 260.1L211.2 255L211.4 263.2L211.7 260.2L211.9 268.5L212.4 269.7L212.6 268.4L212.9 260.8L213.1 262.5L213.4 270.7L213.6 275.2L213.8 280.2L214.3 279.6L214.6 282.1L214.8 285.3L215 291.1L215.3 292.6L215.5 286.7L215.8 295.5L216 301.3L216.2 296.2L216.5 297.5L216.7 299.7L217.2 298L217.4 291.1L217.7 287.7L217.9 284.1L218.2 275.8L218.4 269.7L218.6 264.9L218.9 273.7L219.1 282L219.4 287.1L219.6 293.8L219.8 300.1L220.1 303.2L220.3 294.1L220.6 295.7L220.8 290.3L221 297.6L221.3 293.3L221.5 284.4L221.8 276.5L222 272L222.2 277.5L222.5 275.5L222.7 282.2L223.2 290.3L223.4 295L223.7 298.7L223.9 291.8L224.2 300.8L224.6 309L224.9 304.3L225.1 298.7L225.4 293.1L225.6 291.3L225.8 297.1L226.1 301.8L226.3 309.7L226.6 303.9L226.8 297.9L227 293.9L227.3 296.6L227.5 288.3L227.8 286.3L228 295.3L228.5 293.6L228.7 298.3L229 306.2L229.2 299.6L229.4 304.5L229.7 298.8L229.9 304.2L230.2 305.6L230.4 307.1L230.6 299.5L230.9 295.9L231.1 298.4L231.4 296.3L231.6 290L231.8 293.6L232.1 285L232.3 290.3L232.6 286.2L232.8 281L233 272.1L233.3 264.5L233.5 267.8L233.8 275.9L234 280L234.2 272.3L234.5 264.5L234.7 273L235 281.1L235.2 289.2L235.7 283.8L235.9 275.9L236.2 271.6L236.4 276.4L236.6 285.3L237.1 293.2L237.4 284.2L237.6 283.2L237.8 274.5L238.1 283.5L238.3 287.9L238.6 279.2L238.8 284.4L239 287.8L239.3 282.8L239.5 285.7L239.8 283.9L240 290.4L240.2 291.1L240.5 299.5L240.7 306.9L241.2 315.7L241.4 312.1L241.9 309.8L242.2 310.7L242.4 301.6L242.6 292.6L242.9 295.8L243.1 301L243.4 309.6L243.6 311.8L243.8 304.1L244.1 299.2L244.3 308.3L244.6 311.1L244.8 313.8L245 307.5L245.3 311.9L245.5 305L245.8 297.8L246 288.7L246.2 295.4L246.5 301.1L246.7 296.3L247 300.8L247.2 293.9L247.4 302.2L247.7 299.8L247.9 292.5L248.2 295L248.4 299.5L248.6 298.3L248.9 292.3L249.1 300.7L249.4 292.7L249.6 293.6L249.8 296.5L250.1 288.4L250.3 289.6L250.6 297.8L251.3 295.1L251.5 287.1L251.8 280.1L252 278.5L252.2 286.3L252.5 283.9L252.7 285.4L253 291.7L253.2 284.3L253.4 287L253.9 282.2L254.2 288.4L254.4 294.1L254.6 292L254.9 283.9L255.1 281.6L255.4 289.3L255.6 288.1L255.8 296.5L256.1 301.7L256.3 304.8L256.6 297.3L256.8 298.5L257.3 306.2L257.5 297.4L257.8 306.2L258 305L258.2 311.5L258.5 308.7L258.7 304.9L259 296.4L259.2 299.6L259.4 291.4L259.7 283.4L259.9 274.7L260.2 280.7L260.4 283.3L260.6 274.8L260.9 270.4L261.1 263.5L261.4 258.8L261.6 257L261.8 265.8L262.1 256.9L262.3 248L262.8 254.5L263.3 261.6L263.8 257.5L264 253.5L264.2 254.7L264.5 257L264.7 252.1L265 256.2L265.2 264.3L265.4 260.8L265.7 264.6L265.9 266L266.2 263.2L266.6 257L266.9 251.7L267.1 244.1L267.4 252.2L267.8 260.8L268.1 259.5L268.3 253.7L268.6 251.9L268.8 250L269 255.6L269.3 258.2L269.5 251.8L269.8 245.1L270 240.3L270.2 241.1L270.5 249.7L270.7 244L271 239.9L271.2 235.9L271.7 244L271.9 247.4L272.2 240.3L272.4 232.1L272.6 226.9L272.9 235.5L273.1 240.1L273.4 242.3L273.6 248L273.8 246.2L274.1 242.8L274.3 249.3L274.6 245.1L274.8 250.2L275 258.1L275.3 251.7L275.5 259.4L275.8 253.4L276 256.2L276.2 264.1L276.5 265.5L276.7 264.3L277 272.8L277.2 270.1L277.7 264.6L277.9 273.5L278.2 270.3L278.6 274.1L278.9 277L279.1 281.7L279.4 288L279.6 293.7L280.1 299.7L280.3 300.7L280.6 295.9L280.8 289L281 290.9L281.3 283.4L281.5 286.4L281.8 280.6L282.2 284.2L282.5 279.2L282.7 283.6L283 277.3L283.2 272.5L283.4 273.9L283.7 271.1L284.2 267.6L284.4 272.8L284.6 271.5L284.9 272.3L285.1 268L285.4 276.8L285.6 271.2L285.8 279.3L286.1 270.2L286.3 273.2L286.6 270.8L286.8 264.1L287 267.2L287.3 274.2L287.5 270.3L287.8 263.2L288.2 264.2L288.5 269.7L288.7 278.2L289 269.4L289.2 273.7L289.4 265.1L289.7 269.3L289.9 274.2L290.2 282.2L290.4 280.1L290.6 275.6L290.9 273.2L291.1 278.6L291.4 279.7L291.6 286L291.8 293.2L292.3 300.8L292.6 293.5L292.8 292.2L293 299L293.3 297.7L293.5 299.7L293.8 297.2L294 294.4L294.2 295.7L294.5 287.1L294.7 288L295 280.7L295.2 274.1L295.4 271.4L295.7 272.4L295.9 263.9L296.2 258L296.4 259.3L296.6 250.9L296.9 255.4L297.1 261.1L297.4 259.7L297.6 265.8L297.8 260L298.1 255.5L298.3 252L298.6 245.5L298.8 250L299 255.2L299.3 246.6L299.5 242.4L299.8 236.6L300 232.1L300.2 236.6L300.5 235.5L300.7 234.1L301 231L301.2 234.8L301.4 238.3L301.7 244.5L301.9 236.1L302.4 241.9L302.6 248.5L302.9 253.4L303.1 245.6L303.4 243.2L303.6 245.8L303.8 240.5L304.1 239.8L304.3 241.5L304.6 234.4L305 235.3L305.3 226.4L305.5 224.5L305.8 216.1L306 222.2L306.5 216.3L306.7 207.3L307 202.3L307.2 199.2L307.4 200.9L307.7 208.8L307.9 203.4L308.2 202.7L308.4 200.2L308.6 201.5L308.9 196.2L309.1 200.8L309.4 192.4L309.6 187.2L309.8 189.6L310.1 194L310.3 191.2L310.6 190.3L310.8 199.3L311 196.6L311.3 198.8L311.5 206.5L311.8 207.8L312.2 210.9L312.5 217.7L312.7 208.8L313.2 215.1L313.4 220.2L313.7 215L313.9 211.9L314.4 205.7L315.1 200.6L315.4 202L315.6 202.9L315.8 210.4L316.1 205.7L316.3 203.3L316.6 209.3L316.8 213.6L317 207.1L317.3 201.6L317.8 196.5L318 190.4L318.2 187.7L318.5 182.5L318.7 188.9L319 185.1L319.2 189.1L319.4 190.1L319.7 186.2L319.9 182.5L320.2 176.3L320.4 181.6L320.6 188.5L320.9 196.3L321.1 190.1L321.4 183.4L321.6 181.9L321.8 175.5L322.1 178.7L322.3 187.8L322.6 192.2L322.8 190.4L323 191.2L323.3 195.6L323.5 190.5L323.8 195.2L324 186.4L324.2 190.4L324.5 187.6L324.7 192.6L325 201.6L325.2 197.7L325.4 206.7L325.7 210.6L325.9 212.7L326.4 215.6L326.6 208.6L326.9 209.9L327.1 212.5L327.4 205.8L327.6 208.9L327.8 202.3L328.1 210.5L328.3 211.9L328.6 209.6L328.8 215.5L329 219.8L329.3 215.8L329.5 213.7L329.8 217L330 218.8L330.2 224.5L330.5 219.8L330.7 211.7L331 204.1L331.2 196.2L331.4 198.6L331.9 199.9L332.2 200.7L332.4 203.7L332.9 202.2L333.1 196.8L333.4 200.5L333.6 193.6L333.8 198.2L334.1 196.5L334.3 192.5L334.6 186.3L334.8 183.2L335 184.3L335.3 186L335.8 178.4L336 184.1L336.2 186.1L336.5 187.6L336.7 182.7L337.2 188L337.4 194.2L337.7 201.5L337.9 207.3L338.2 216.1L338.4 219.6L338.6 223.5L339.1 219.6L339.4 218.9L339.6 220.1L340.1 216.1L340.3 208.2L340.6 215.3L340.8 210.3L341 218.9L341.3 219.7L341.8 221.1L342 223.4L342.2 217.2L342.5 208.9L342.7 200.4L343 209.2L343.2 207.5L343.4 213.8L343.7 219.3L343.9 214.3L344.4 206.2L344.6 201.7L344.9 208L345.1 209.2L345.4 211L345.6 208.9L345.8 201.2L346.1 194.4L346.3 203.1L346.6 194.9L347 203.2L347.3 207.8L347.5 202.1L347.8 211.1L348 219.8L348.2 223.2L348.5 222.5L348.7 229.9L349 233.7L349.2 234.6L349.4 227.5L349.7 219.8L349.9 211.5L350.2 219.1L350.4 211.4L350.6 204.9L350.9 199.1L351.1 202.9L351.4 207.1L351.6 208.5L351.8 211.7L352.1 212.7L352.3 213.9L352.6 218.1L352.8 210.5L353 218.1L353.3 223.2L353.5 229.1L353.8 235.1L354 227.2L354.2 224.8L354.5 217L354.7 222.2L355.2 227.2L355.4 231.8L355.7 224.3L356.2 220.2L356.4 218L356.6 226.3L357.1 224.7L357.4 227.1L357.6 222.1L357.8 231.1L358.1 230.4L358.3 233.7L358.6 231.4L358.8 222.7L359 213.8L359.3 221.5L359.5 229.5L359.8 233.9L360 226.8L360.2 234.6L360.5 242.6L360.7 244.8L361 250.8L361.2 257.5L361.4 256L361.9 259L362.2 251.1L362.4 259.3L362.9 253.4L363.1 252.2L363.4 246.5L363.6 254.1L363.8 263.2L364.1 258.3L364.3 263.3L364.6 272.4L364.8 267.9L365 261.6L365.3 268L365.5 273.3L365.8 276.2L366 281.3L366.2 274.8L366.5 283.2L366.7 276.9L367 280.8L367.2 285.1L367.4 282.3L367.7 280.8L367.9 286.9L368.2 280.9L368.4 287.4L368.9 284.8L369.1 280.8L369.4 278.7L369.6 286.9L369.8 284.7L370.1 280.9L370.3 276.4L370.6 273.5L370.8 271.3L371.3 276.5L371.8 280.2L372.2 287.8L372.5 296.3L372.7 289.2L373 290.7L373.2 282.6L373.4 280.6L373.7 278L373.9 275L374.4 279.5L374.6 288.1L374.9 296L375.1 301.6L375.4 302.3L375.6 306L375.8 298.2L376.1 291.6L376.3 293.3L376.6 300.3L376.8 293.1L377 300.7L377.3 295.7L377.5 293.9L377.8 301.2L378 293.9L378.2 296.6L378.5 295.1L378.7 298.2L379 302.5L379.2 304.3L379.4 296.8L379.7 298.5L379.9 304.5L380.2 309.7L380.4 312.4L380.6 309L380.9 305L381.1 311.1L381.4 312.8L381.6 306.2L381.8 310.4L382.1 308.7L382.3 304.3L382.6 297.2L382.8 294.3L383 287.1L383.3 284.2L383.5 275.5L383.8 267.6L384 258.6L384.2 252.4L384.5 254.7L384.7 256.1L385 258L385.2 254.1L385.4 251.7L385.7 246.5L385.9 238L386.2 228.9L386.4 233.7L386.6 231.4L387.1 238.8L387.6 234.9L387.8 243.9L388.1 247.9L388.3 243.5L388.6 240.6L389 249L389.3 257.4L389.5 251.7L389.8 243.9L390 248.7L390.2 252.3L390.5 254.9L390.7 248.9L391 242.6L391.4 235.7L391.7 230.5L391.9 235.4L392.2 231.9L392.6 224.5L392.9 223.2L393.1 222.3L393.4 221.3L393.6 222.3L393.8 226.6L394.1 227.6L394.3 234.2L394.6 231.6L394.8 228.7L395 237.1L395.3 233.2L395.5 224.2L395.8 229.4L396 224.2L396.2 231.2L396.5 222.6L396.7 218.8L397 217.5L397.2 222.2L397.9 223.5L398.2 215.1L398.4 219.5L398.6 210.5L398.9 212.3L399.1 207.9L399.4 203.3L399.6 209.7L399.8 203.3L400.1 195.1L400.3 190.9L400.6 190.2L400.8 185.2L401 189.5L401.3 181.9L401.5 175.7L401.8 184.6L402 186.1L402.2 190.4L402.5 197.1L403 192.1L403.2 198L403.7 190.5L403.9 187.4L404.2 192.9L404.4 198.8L404.6 194.8L404.9 200.5L405.4 208L405.8 200L406.1 198.2L406.3 196.9L406.6 202.2L406.8 208.9L407 213.9L407.3 207.6L407.5 210.7L407.8 203.9L408 207.9L408.2 211.4L408.5 213.8L408.7 206.4L409 212.3L409.2 206.7L409.4 211.8L409.7 220.3L409.9 214.6L410.2 215.4L410.4 212.4L410.6 220.2L410.9 223.6L411.1 230.9L411.4 235.7L411.6 240.9L411.8 235.7L412.1 237.9L412.3 232.3L412.6 229.4L412.8 223.3L413 216L413.3 220.1L413.5 214.4L413.8 208.8L414 205.6L414.2 208.9L414.5 205L414.7 202.9L415 197.7L415.2 205.2L415.4 202.7L415.7 200.2L415.9 208.6L416.2 206.7L416.4 214.3L416.6 208.8L416.9 207.4L417.1 211.5L417.4 206.7L417.6 212L417.8 213.5L418.1 217.9L418.3 220.3L418.8 221.1L419 217.9L419.3 212.6L419.5 220.4L420 217L420.7 210L421 204.8L421.2 200.9L421.4 206.5L421.9 202.3L422.2 206.6L422.4 213.5L422.6 218.1L422.9 225.3L423.1 216.6L423.4 207.8L423.6 204.8L424.1 210.3L424.3 216.1L424.8 213.9L425 206.1L425.3 213.5L425.5 218.6L425.8 211.2L426 219.9L426.5 224.9L426.7 218.7L427 222.3L427.2 220.6L427.4 218.9L427.7 214.4L427.9 208.6L428.2 206.4L428.4 203.6L428.6 208.2L428.9 216.9L429.1 224L429.4 232.1L429.6 223L429.8 230L430.1 226.9L430.3 219.9L430.6 222.4L430.8 227.1L431 224.8L431.3 220.1L431.5 213.5L431.8 221.7L432 220.6L432.2 215.6L432.7 217.3L433 213.8L433.2 215.4L433.4 207.2L433.7 209.2L433.9 214.3L434.4 212.3L434.6 210L435.1 215L435.4 208.9L435.6 201L435.8 193.6L436.1 192.8L436.3 190.2L436.6 182.1L436.8 177.5L437 172.5L437.5 171.1L437.8 168L438 161.9L438.2 161.2L438.5 159L438.7 157L439 165.4L439.2 172.2L439.4 173.4L439.7 171.7L439.9 178.9L440.2 183.2L440.4 182L440.6 183L440.9 190.2L441.1 186.9L441.4 191.3L441.6 185.7L441.8 184.1L442.1 184.9L442.3 177.9L442.6 169.5L442.8 171.9L443 176.3L443.3 171.6L443.8 177.5L444 170.3L444.2 176.4L444.5 178.3L444.7 170.4L445 166L445.2 161.3L445.7 152.8L445.9 154.4L446.2 159.1L446.4 164.2L446.6 155.7L446.9 161.9L447.1 155.4L447.6 159.9L447.8 156.7L448.1 152.4L448.6 155.4L448.8 162.2L449 170.7L449.5 177.7L449.8 183.3L450 175.9L450.2 172.7L450.5 169.9L450.7 161.9L451 154L451.2 154.7L451.4 162.4L451.7 165.2L452.2 170.4L452.4 162.9L452.6 160.5L452.9 163L453.1 156.3L453.4 165.2L453.6 173.4L453.8 177.4L454.1 184.4L454.6 178.9L454.8 181L455 187.8L455.3 196.3L455.5 198.4L455.8 204.1L456 212.7L456.2 204.4L456.5 211.3L456.7 207.4L457.2 200.3L457.4 206.7L457.9 215.6L458.2 207.7L458.4 209.9L458.6 217.7L459.1 226.3L459.4 234.6L459.6 239.1L460.1 241.1L460.3 233.2L460.6 231.3L460.8 226.1L461 230.5L461.3 222L461.5 224L461.8 222.4L462 220.7L462.2 223.8L462.7 230.3L463 235.6L463.2 236.9L463.4 240.5L463.7 246.7L463.9 249.9L464.2 249.1L464.4 242.3L464.6 244.3L464.9 239L465.1 232.4L465.4 235.4L465.8 239.9L466.1 231.8L466.3 234.9L466.8 241.8L467 248.3L467.3 252L467.5 260.6L467.8 255.9L468 251.3L468.2 245.7L468.5 247.9L469 253.6L469.2 245L469.4 242.1L469.7 245.2L469.9 250.9L470.2 250L470.4 253.5L470.6 248.8L470.9 242.3L471.1 247.1L471.4 250.7L471.6 242.8L472.1 243.4L472.3 245L472.6 241.6L472.8 237L473 246.1L473.3 243.2L473.5 235.4L473.8 230.3L474 237.3L474.2 238.4L474.5 239.9L474.7 247.3L475 248.5L475.2 251.2L475.7 251.9L475.9 248.3L476.2 251.8L476.4 258.6L476.6 256L476.9 259.2L477.1 255.7L477.4 256.5L477.6 253.9L477.8 247.6L478.1 246.9L478.3 239.2L478.6 231.1L478.8 228.3L479 226.5L479.3 222.4L479.5 214.5L479.8 216.9L480 211.9L480.2 208.6L480.5 210.7L480.7 204.2L481 195.6L481.2 201.4L481.4 195.1L481.7 198.5L481.9 200.7L482.2 194.3L482.4 203.4L482.6 207.3L482.9 200.3L483.4 199.4L483.6 196.9L483.8 201.6L484.1 198L484.3 196.3L484.6 197.7L484.8 206.8L485 211.4L485.3 220.2L485.5 225.2L485.8 233.6L486 238L486.2 229.3L486.5 226.2L486.7 231.5L487 234.4L487.2 238L487.7 234.4L487.9 227.5L488.2 230.6L488.4 222L488.6 224.8L488.9 221.2L489.1 229.3L489.4 226.7L489.6 231.7L489.8 225.3L490.1 223.7L490.3 231.2L490.6 223.2L490.8 224.5L491 222.1L491.3 227.7L491.5 229L491.8 234.3L492 225.2L492.2 232.4L492.5 230.9L493 234.7L493.2 231.7L493.4 223.2L493.7 225.4L493.9 222.6L494.2 217.1L494.4 212.7L494.6 220.1L494.9 226.3L495.1 223.2L495.4 218.5L495.6 215L495.8 222.8L496.1 219.7L496.3 227.8L496.6 225L496.8 219L497 216.1L497.3 214.4L497.5 221.4L497.8 216.7L498 211.5L498.2 216.2L498.5 217L498.7 210.6L499 217.1L499.2 219.1L499.4 210.3L499.7 218.3L499.9 215.5L500.2 216.4L500.4 207.6L500.6 206.6L500.9 215.4L501.1 207L501.4 201.9L501.6 193.4L501.8 196L502.1 202.5L502.3 203.2L502.6 195.8L502.8 203.7L503 202.6L503.3 208.2L503.5 204.6L503.8 198.6L504 205.6L504.2 197.8L504.5 189.9L504.7 191.2L505 184.3L505.2 188.7L505.4 180.7L505.7 174L505.9 168.4L506.4 171.9L506.6 178.7L506.9 180.2L507.1 174.5L507.4 166.7L507.6 163.2L507.8 166.9L508.1 174.5L508.3 165.6L508.6 168.7L508.8 164.2L509 167.6L509.3 174.3L509.5 169.6L509.8 165.7L510.2 157.6L510.5 155L511 159L511.2 155.6L511.4 156.6L511.7 155.5L511.9 147.7L512.2 143.5L512.4 151.1L512.6 152.2L512.9 151.2L513.4 147.2L513.6 143.5L513.8 139.5L514.1 144L514.3 150.6L514.6 158.8L514.8 155.3L515.3 154.2L515.8 160.9L516 152.9L516.2 146.5L516.5 153.9L516.7 148.1L517 142.5L517.2 144.3L517.4 137.2L517.7 132L517.9 125.1L518.2 123.3L518.4 116.4L518.6 121.8L519.4 122.6L519.6 130L519.8 136.4L520.1 141.2L520.3 146.8L520.6 151.1L520.8 156.4L521 152.7L521.3 144.7L521.5 149.2L522 142.6L522.2 134.3L522.5 137.6L522.7 142.9L523 150.8L523.2 146.9L523.4 147.9L523.7 145.8L523.9 141.1L524.2 143.5L524.4 138.7L524.6 144L524.9 142.3L525.1 134.6L525.4 140.9L525.6 134.1L525.8 136L526.1 128L526.3 125.7L526.6 129.2L526.8 132.8L527 131.4L527.3 128.3L527.5 124.8L527.8 122.5L528 118.2L528.2 119L528.5 123.5L528.7 120.7L529 114.3L529.2 112.3L529.4 103.6L529.7 108.8L529.9 104.6L530.4 105.7L530.6 110L530.9 109.1L531.1 103.6L531.4 96.3L531.6 95.3L531.8 99.3L532.1 96.1L532.3 87.2L532.6 81.9L532.8 79.8L533 78.9L533.3 73.3L533.5 80.8L533.8 87.4L534.2 89.8L534.5 97.1L534.7 99.2L535 104L535.2 109.9L535.4 102.3L535.7 101.5L535.9 98.3L536.2 106.1L536.4 106.9L536.6 99L536.9 103.1L537.1 108.7L537.4 105.4L537.6 99.9L537.8 94.7L538.1 88.1L538.3 80L538.6 84.4L539 92.5L539.3 84.9L539.5 81.7L539.8 78.3L540 81.9L540 380L539.3 380L538.6 380L537.8 380L537.1 380L536.4 380L535.7 380L535 380L534.2 380L533.5 380L532.8 380L532.1 380L531.4 380L530.6 380L529.9 380L529.2 380L528.5 380L527.8 380L527 380L526.3 380L525.6 380L524.9 380L524.2 380L523.4 380L522.7 380L522 380L521.3 380L520.6 380L519.8 380L519.1 380L518.4 380L517.7 380L517 380L516.2 380L515.5 380L514.8 380L514.1 380L513.4 380L512.6 380L511.9 380L511.2 380L510.5 380L509.8 380L509 380L508.3 380L507.6 380L506.9 380L506.2 380L505.4 380L504.7 380L504 380L503.3 380L502.6 380L501.8 380L501.1 380L500.4 380L499.7 380L499 380L498.2 380L497.5 380L496.8 380L496.1 380L495.4 380L494.6 380L493.9 380L493.2 380L492.5 380L491.8 380L491 380L490.3 380L489.6 380L488.9 380L488.2 380L487.4 380L486.7 380L486 380L485.3 380L484.6 380L483.8 380L483.1 380L482.4 380L481.7 380L481 380L480.2 380L479.5 380L478.8 380L478.1 380L477.4 380L476.6 380L475.9 380L475.2 380L474.5 380L473.8 380L473 380L472.3 380L471.6 380L470.9 380L470.2 380L469.4 380L468.7 380L468 380L467.3 380L466.6 380L465.8 380L465.1 380L464.4 380L463.7 380L463 380L462.2 380L461.5 380L460.8 380L460.1 380L459.4 380L458.6 380L457.9 380L457.2 380L456.5 380L455.8 380L455 380L454.3 380L453.6 380L452.9 380L452.2 380L451.4 380L450.7 380L450 380L449.3 380L448.6 380L447.8 380L447.1 380L446.4 380L445.7 380L445 380L444.2 380L443.5 380L442.8 380L442.1 380L441.4 380L440.6 380L439.9 380L439.2 380L438.5 380L437.8 380L437 380L436.3 380L435.6 380L434.9 380L434.2 380L433.4 380L432.7 380L432 380L431.3 380L430.6 380L429.8 380L429.1 380L428.4 380L427.7 380L427 380L426.2 380L425.5 380L424.8 380L424.1 380L423.4 380L422.6 380L421.9 380L421.2 380L420.5 380L419.8 380L419 380L418.3 380L417.6 380L416.9 380L416.2 380L415.4 380L414.7 380L414 380L413.3 380L412.6 380L411.8 380L411.1 380L410.4 380L409.7 380L409 380L408.2 380L407.5 380L406.8 380L406.1 380L405.4 380L404.6 380L403.9 380L403.2 380L402.5 380L401.8 380L401 380L400.3 380L399.6 380L398.9 380L398.2 380L397.4 380L396.7 380L396 380L395.3 380L394.6 380L393.8 380L393.1 380L392.4 380L391.7 380L391 380L390.2 380L389.5 380L388.8 380L388.1 380L387.4 380L386.6 380L385.9 380L385.2 380L384.5 380L383.8 380L383 380L382.3 380L381.6 380L380.9 380L380.2 380L379.4 380L378.7 380L378 380L377.3 380L376.6 380L375.8 380L375.1 380L374.4 380L373.7 380L373 380L372.2 380L371.5 380L370.8 380L370.1 380L369.4 380L368.6 380L367.9 380L367.2 380L366.5 380L365.8 380L365 380L364.3 380L363.6 380L362.9 380L362.2 380L361.4 380L360.7 380L360 380L359.3 380L358.6 380L357.8 380L357.1 380L356.4 380L355.7 380L355 380L354.2 380L353.5 380L352.8 380L352.1 380L351.4 380L350.6 380L349.9 380L349.2 380L348.5 380L347.8 380L347 380L346.3 380L345.6 380L344.9 380L344.2 380L343.4 380L342.7 380L342 380L341.3 380L340.6 380L339.8 380L339.1 380L338.4 380L337.7 380L337 380L336.2 380L335.5 380L334.8 380L334.1 380L333.4 380L332.6 380L331.9 380L331.2 380L330.5 380L329.8 380L329 380L328.3 380L327.6 380L326.9 380L326.2 380L325.4 380L324.7 380L324 380L323.3 380L322.6 380L321.8 380L321.1 380L320.4 380L319.7 380L319 380L318.2 380L317.5 380L316.8 380L316.1 380L315.4 380L314.6 380L313.9 380L313.2 380L312.5 380L311.8 380L311 380L310.3 380L309.6 380L308.9 380L308.2 380L307.4 380L306.7 380L306 380L305.3 380L304.6 380L303.8 380L303.1 380L302.4 380L301.7 380L301 380L300.2 380L299.5 380L298.8 380L298.1 380L297.4 380L296.6 380L295.9 380L295.2 380L294.5 380L293.8 380L293 380L292.3 380L291.6 380L290.9 380L290.2 380L289.4 380L288.7 380L288 380L287.3 380L286.6 380L285.8 380L285.1 380L284.4 380L283.7 380L283 380L282.2 380L281.5 380L280.8 380L280.1 380L279.4 380L278.6 380L277.9 380L277.2 380L276.5 380L275.8 380L275 380L274.3 380L273.6 380L272.9 380L272.2 380L271.4 380L270.7 380L270 380L269.3 380L268.6 380L267.8 380L267.1 380L266.4 380L265.7 380L265 380L264.2 380L263.5 380L262.8 380L262.1 380L261.4 380L260.6 380L259.9 380L259.2 380L258.5 380L257.8 380L257 380L256.3 380L255.6 380L254.9 380L254.2 380L253.4 380L252.7 380L252 380L251.3 380L250.6 380L249.8 380L249.1 380L248.4 380L247.7 380L247 380L246.2 380L245.5 380L244.8 380L244.1 380L243.4 380L242.6 380L241.9 380L241.2 380L240.5 380L239.8 380L239 380L238.3 380L237.6 380L236.9 380L236.2 380L235.4 380L234.7 380L234 380L233.3 380L232.6 380L231.8 380L231.1 380L230.4 380L229.7 380L229 380L228.2 380L227.5 380L226.8 380L226.1 380L225.4 380L224.6 380L223.9 380L223.2 380L222.5 380L221.8 380L221 380L220.3 380L219.6 380L218.9 380L218.2 380L217.4 380L216.7 380L216 380L215.3 380L214.6 380L213.8 380L213.1 380L212.4 380L211.7 380L211 380L210.2 380L209.5 380L208.8 380L208.1 380L207.4 380L206.6 380L205.9 380L205.2 380L204.5 380L203.8 380L203 380L202.3 380L201.6 380L200.9 380L200.2 380L199.4 380L198.7 380L198 380L197.3 380L196.6 380L195.8 380L195.1 380L194.4 380L193.7 380L193 380L192.2 380L191.5 380L190.8 380L190.1 380L189.4 380L188.6 380L187.9 380L187.2 380L186.5 380L185.8 380L185 380L184.3 380L183.6 380L182.9 380L182.2 380L181.4 380L180.7 380L180 380L179.3 380L178.6 380L177.8 380L177.1 380L176.4 380L175.7 380L175 380L174.2 380L173.5 380L172.8 380L172.1 380L171.4 380L170.6 380L169.9 380L169.2 380L168.5 380L167.8 380L167 380L166.3 380L165.6 380L164.9 380L164.2 380L163.4 380L162.7 380L162 380L161.3 380L160.6 380L159.8 380L159.1 380L158.4 380L157.7 380L157 380L156.2 380L155.5 380L154.8 380L154.1 380L153.4 380L152.6 380L151.9 380L151.2 380L150.5 380L149.8 380L149 380L148.3 380L147.6 380L146.9 380L146.2 380L145.4 380L144.7 380L144 380L143.3 380L142.6 380L141.8 380L141.1 380L140.4 380L139.7 380L139 380L138.2 380L137.5 380L136.8 380L136.1 380L135.4 380L134.6 380L133.9 380L133.2 380L132.5 380L131.8 380L131 380L130.3 380L129.6 380L128.9 380L128.2 380L127.4 380L126.7 380L126 380L125.3 380L124.6 380L123.8 380L123.1 380L122.4 380L121.7 380L121 380L120.2 380L119.5 380L118.8 380L118.1 380L117.4 380L116.6 380L115.9 380L115.2 380L114.5 380L113.8 380L113 380L112.3 380L111.6 380L110.9 380L110.2 380L109.4 380L108.7 380L108 380L107.3 380L106.6 380L105.8 380L105.1 380L104.4 380L103.7 380L103 380L102.2 380L101.5 380L100.8 380L100.1 380L99.4 380L98.6 380L97.9 380L97.2 380L96.5 380L95.8 380L95 380L94.3 380L93.6 380L92.9 380L92.2 380L91.4 380L90.7 380L90 380L89.3 380L88.6 380L87.8 380L87.1 380L86.4 380L85.7 380L85 380L84.2 380L83.5 380L82.8 380L82.1 380L81.4 380L80.6 380L79.9 380L79.2 380L78.5 380L77.8 380L77 380L76.3 380L75.6 380L74.9 380L74.2 380L73.4 380L72.7 380L72 380L71.3 380L70.6 380L69.8 380L69.1 380L68.4 380L67.7 380L67 380L66.2 380L65.5 380L64.8 380L64.1 380L63.4 380L62.6 380L61.9 380L61.2 380L60.5 380Z" fill="url(#zr28-g0)" fill-opacity="0.7"></path>
<path d="M60 214.9L60.2 215.6L60.5 216.3L60.7 217L61 214.6L61.2 210.2L61.4 205.3L61.7 204L61.9 211.5L62.2 203.8L62.4 211.9L62.6 215.8L62.9 214.5L63.1 205.8L63.4 210.5L63.6 214L64.1 207.6L64.3 216.3L64.6 217.2L64.8 215.1L65 209.5L65.3 218.6L65.5 210L65.8 216.9L66 210.6L66.2 213L66.5 218.8L66.7 222.1L67 217.6L67.2 211.9L67.4 220.6L67.7 212.7L68.2 216.2L68.4 217.9L68.6 226.4L68.9 225.2L69.1 219.5L69.4 213.1L69.6 210.9L69.8 204.7L70.1 198.3L70.3 200L70.6 196.7L70.8 201.1L71 208.7L71.3 214.9L71.5 207.4L71.8 216.1L72 213.2L72.5 221.3L72.7 228.2L73 227.5L73.4 232.5L73.7 235.1L73.9 231.6L74.2 240.5L74.4 234.2L74.6 240.9L74.9 234.1L75.1 238.3L75.4 244.9L75.6 247.4L75.8 252.6L76.1 245.8L76.3 245.1L76.6 249.5L76.8 243.7L77 246.9L77.3 242.7L77.5 249.3L77.8 243.3L78 249.6L78.2 257L78.5 260.9L78.7 257.9L79 267L79.2 275L79.4 274L79.7 278L79.9 274.4L80.4 267.4L80.6 265.7L80.9 263.6L81.1 259.2L81.4 261.8L81.6 265.1L81.8 261.7L82.1 259.2L82.3 254.7L82.6 262.6L82.8 271.4L83 263.3L83.3 267.8L83.5 263L83.8 269.4L84 263.2L84.2 265.3L84.7 266.8L85 261.7L85.2 260.6L85.4 252.2L85.7 250.1L85.9 254.8L86.4 261.6L86.6 269.2L86.9 274.3L87.1 266.6L87.4 274.9L87.6 283.1L87.8 278.5L88.1 276.3L88.3 275.2L88.6 271L89 277L89.3 285.5L89.5 276.6L89.8 275L90 282.1L90.2 279.1L90.5 270.2L90.7 267.3L91 268.7L91.2 274.1L91.4 283L91.7 289L91.9 294.3L92.2 300L92.4 297.4L92.6 298.9L92.9 295.7L93.1 288.8L93.4 282.3L93.6 280.5L93.8 289.5L94.1 287L94.3 282.4L94.6 287.8L94.8 285.3L95 283.2L95.3 288.1L95.5 286.8L96 290.1L96.5 291.2L96.7 287.7L97 290.4L97.2 288.6L97.4 295L97.7 291.4L97.9 292.6L98.2 287.6L98.4 286.4L98.6 279.5L98.9 284.5L99.1 291.4L99.4 294.7L99.6 299.5L99.8 301.7L100.1 304.5L100.6 297.3L101 304.3L101.3 297.1L101.5 300L101.8 308.5L102 310.3L102.2 306.4L102.5 300.2L102.7 307.7L103 305.7L103.2 296.8L103.4 301.8L103.7 304L103.9 298.4L104.2 307.1L104.4 313.9L104.6 310.4L104.9 316.5L105.1 318.2L105.6 327.1L105.8 332.5L106.1 323.8L106.3 328.1L106.6 330.7L107 326.3L107.3 329.5L107.5 336.7L108 334.3L108.2 337.7L108.5 340.1L108.7 346L109.2 340.2L109.4 346.6L109.7 354L109.9 350L110.2 347.1L110.4 345.8L110.6 341.5L110.9 336L111.1 330.5L111.4 327.7L111.6 326.8L111.8 320.6L112.1 328.9L112.3 330.8L112.6 323.1L113 323.6L113.3 327.5L113.5 322.9L113.8 315.5L114 324.6L114.2 320.2L114.5 315.9L114.7 309.1L115 315.7L115.2 311.4L115.4 320.5L115.7 323.9L115.9 317.1L116.2 314.6L116.4 310.6L116.6 303.4L116.9 299L117.1 303.8L117.4 308.1L117.6 313.4L117.8 318L118.1 319L118.3 321.5L118.6 315.4L118.8 318.3L119 317.7L119.3 325.2L119.5 327.5L119.8 325.1L120 320.8L120.2 328.7L120.5 320L120.7 321.6L121 323.7L121.2 332.1L121.4 340.5L121.7 345.4L121.9 352.6L122.2 348.2L122.6 352.1L122.9 359.9L123.1 357.8L123.4 364.9L123.8 365.9L124.1 366.7L124.6 359.4L124.8 350.4L125 354.8L125.3 346.5L125.5 352.2L125.8 347.4L126 348.6L126.2 339.8L126.5 336.4L126.7 328.1L127.2 335.8L127.4 342.7L127.7 350.1L127.9 355.9L128.2 349.9L128.4 352.8L128.6 343.8L128.9 346.3L129.1 353.7L129.4 351L129.6 345L129.8 353.4L130.1 355.7L130.3 363.5L130.6 358.4L130.8 363.9L131 356.3L131.3 349L131.8 350.1L132 351.3L132.2 343.9L132.7 341.9L133 335.9L133.2 330.5L133.4 339.6L133.7 333.1L133.9 331.2L134.2 322.8L134.4 317L134.6 319.8L134.9 315.8L135.1 310.8L135.4 316.9L135.6 311.4L135.8 320.3L136.1 316L136.3 320L136.6 315.1L137 321.8L137.3 314.1L137.5 310.7L137.8 313.2L138 314.7L138.2 311.8L138.5 307L138.7 307.7L139 308.9L139.2 316.6L139.4 325.4L139.7 319.7L139.9 318L140.2 315.7L140.4 312.8L140.6 320.3L140.9 316.4L141.1 314.1L141.4 312.6L141.6 309L141.8 302.5L142.1 297.2L142.3 293.3L142.6 288.9L142.8 284.8L143 286.6L143.3 288.7L143.5 284.6L143.8 283.5L144 280.2L144.2 277.4L144.5 270.4L144.7 278.4L145.2 280.4L145.4 285L145.7 282.1L145.9 278.1L146.2 287.2L146.4 291.4L146.6 287.2L146.9 293.4L147.1 286.9L147.4 281.4L147.6 280.2L148.1 288.9L148.3 281L148.6 286.5L148.8 283L149 281.8L149.3 279.9L149.5 275.3L149.8 280.3L150 287.5L150.2 285.9L150.5 282.2L150.7 283.6L151 277L151.2 276.3L151.4 269.2L151.7 273.5L151.9 265.7L152.2 267.7L152.4 260.4L152.6 254.9L152.9 248L153.4 246.7L153.6 240.4L153.8 232.9L154.3 231.9L154.6 240.2L154.8 234.6L155 228.3L155.3 232.4L155.5 228.6L155.8 231.6L156 224.4L156.2 221.2L156.5 224.3L156.7 231.1L157 234.9L157.2 243.7L157.4 250L157.7 248.4L157.9 243.4L158.2 236.2L158.4 232.4L158.6 227.4L158.9 234.3L159.1 229.6L159.4 224.1L159.6 227.5L159.8 230.7L160.1 238.4L160.3 236.2L160.6 237.2L160.8 230.3L161 224.7L161.3 219.2L161.5 213.8L161.8 216.4L162 217.4L162.2 223.7L162.5 221L162.7 218.4L163 212.8L163.2 214.2L163.7 218.4L163.9 223.7L164.2 228.4L164.4 237.1L164.6 241.2L164.9 232.5L165.1 230.6L165.4 238.6L165.6 246.2L165.8 247.1L166.1 248.1L166.3 256.3L166.6 252.7L166.8 243.9L167 245L167.3 246.1L167.5 253.2L167.8 260.9L168 258.8L168.2 263.6L168.5 271.5L168.7 270.8L169 270L169.2 274.1L169.4 271.7L169.9 265.5L170.2 261.4L170.4 254.3L170.6 255L170.9 260.2L171.1 263.1L171.4 267.2L171.6 273.7L171.8 269.9L172.1 267.1L172.3 262L172.6 269.5L172.8 262.6L173 260.3L173.3 255.3L173.5 260L173.8 269.1L174 273.7L174.5 279.4L174.7 276.8L175 274.5L175.2 283.2L175.4 280.6L175.7 279.3L175.9 273.3L176.2 272.4L176.4 263.6L176.6 266.1L176.9 257L177.1 248.9L177.4 243.4L177.6 248.2L177.8 244.7L178.1 243.4L178.3 248.3L178.6 249L178.8 254.3L179.3 260.5L179.5 262.3L180 265.8L180.2 267.6L180.5 275.2L180.7 268.7L181 273.1L181.2 280L181.4 270.9L181.7 279.2L181.9 277.1L182.4 272.6L182.6 264.3L182.9 262.9L183.4 260.2L183.6 266.2L183.8 258.4L184.1 249.9L184.6 242.4L184.8 246.6L185 240.8L185.3 238.2L185.5 246L186 253L186.2 247.5L186.5 253.1L186.7 245.6L187 242.2L187.2 241.4L187.4 243.6L187.7 247.4L187.9 250.7L188.2 246.5L188.4 253.8L188.6 248.9L188.9 246.3L189.1 249.6L189.4 257.3L189.6 260.1L189.8 253L190.1 244.5L190.3 250.7L190.6 253.5L190.8 255.4L191.3 259.3L191.5 260.3L191.8 255L192.2 261.5L192.5 255L192.7 259.5L193 255.6L193.2 261.4L193.4 253.5L193.7 255.1L193.9 261.1L194.2 266.9L194.4 274.1L194.6 268.5L195.1 265.4L195.4 267.3L195.6 264.3L195.8 256.7L196.3 254.7L196.6 260L197 262.1L197.3 253.8L197.8 261.4L198 260.1L198.2 254L198.5 248.4L198.7 246.6L199 245L199.2 250.2L199.4 247.5L199.7 242.6L199.9 234L200.2 231.5L200.4 233.4L200.6 232.1L201.1 226.8L201.4 224.7L201.8 219.5L202.1 222L202.3 216.2L202.6 212L202.8 208.2L203 210L203.3 213.8L203.5 211.3L203.8 214.4L204.2 215.5L204.5 211L204.7 219.8L205.2 215.2L205.4 217L205.7 218.2L205.9 212.5L206.2 213.5L206.4 209.3L206.6 207.4L206.9 203.4L207.4 208.6L207.6 215.8L208.1 224.2L208.3 219.2L208.8 221.1L209 226.5L209.3 232.8L209.5 234.2L209.8 241.7L210 240.5L210.2 244.6L210.5 245.4L210.7 254.1L211 260.1L211.2 255L211.4 263.2L211.7 260.2L211.9 268.5L212.4 269.7L212.6 268.4L212.9 260.8L213.1 262.5L213.4 270.7L213.6 275.2L213.8 280.2L214.3 279.6L214.6 282.1L214.8 285.3L215 291.1L215.3 292.6L215.5 286.7L215.8 295.5L216 301.3L216.2 296.2L216.5 297.5L216.7 299.7L217.2 298L217.4 291.1L217.7 287.7L217.9 284.1L218.2 275.8L218.4 269.7L218.6 264.9L218.9 273.7L219.1 282L219.4 287.1L219.6 293.8L219.8 300.1L220.1 303.2L220.3 294.1L220.6 295.7L220.8 290.3L221 297.6L221.3 293.3L221.5 284.4L221.8 276.5L222 272L222.2 277.5L222.5 275.5L222.7 282.2L223.2 290.3L223.4 295L223.7 298.7L223.9 291.8L224.2 300.8L224.6 309L224.9 304.3L225.1 298.7L225.4 293.1L225.6 291.3L225.8 297.1L226.1 301.8L226.3 309.7L226.6 303.9L226.8 297.9L227 293.9L227.3 296.6L227.5 288.3L227.8 286.3L228 295.3L228.5 293.6L228.7 298.3L229 306.2L229.2 299.6L229.4 304.5L229.7 298.8L229.9 304.2L230.2 305.6L230.4 307.1L230.6 299.5L230.9 295.9L231.1 298.4L231.4 296.3L231.6 290L231.8 293.6L232.1 285L232.3 290.3L232.6 286.2L232.8 281L233 272.1L233.3 264.5L233.5 267.8L233.8 275.9L234 280L234.2 272.3L234.5 264.5L234.7 273L235 281.1L235.2 289.2L235.7 283.8L235.9 275.9L236.2 271.6L236.4 276.4L236.6 285.3L237.1 293.2L237.4 284.2L237.6 283.2L237.8 274.5L238.1 283.5L238.3 287.9L238.6 279.2L238.8 284.4L239 287.8L239.3 282.8L239.5 285.7L239.8 283.9L240 290.4L240.2 291.1L240.5 299.5L240.7 306.9L241.2 315.7L241.4 312.1L241.9 309.8L242.2 310.7L242.4 301.6L242.6 292.6L242.9 295.8L243.1 301L243.4 309.6L243.6 311.8L243.8 304.1L244.1 299.2L244.3 308.3L244.6 311.1L244.8 313.8L245 307.5L245.3 311.9L245.5 305L245.8 297.8L246 288.7L246.2 295.4L246.5 301.1L246.7 296.3L247 300.8L247.2 293.9L247.4 302.2L247.7 299.8L247.9 292.5L248.2 295L248.4 299.5L248.6 298.3L248.9 292.3L249.1 300.7L249.4 292.7L249.6 293.6L249.8 296.5L250.1 288.4L250.3 289.6L250.6 297.8L251.3 295.1L251.5 287.1L251.8 280.1L252 278.5L252.2 286.3L252.5 283.9L252.7 285.4L253 291.7L253.2 284.3L253.4 287L253.9 282.2L254.2 288.4L254.4 294.1L254.6 292L254.9 283.9L255.1 281.6L255.4 289.3L255.6 288.1L255.8 296.5L256.1 301.7L256.3 304.8L256.6 297.3L256.8 298.5L257.3 306.2L257.5 297.4L257.8 306.2L258 305L258.2 311.5L258.5 308.7L258.7 304.9L259 296.4L259.2 299.6L259.4 291.4L259.7 283.4L259.9 274.7L260.2 280.7L260.4 283.3L260.6 274.8L260.9 270.4L261.1 263.5L261.4 258.8L261.6 257L261.8 265.8L262.1 256.9L262.3 248L262.8 254.5L263.3 261.6L263.8 257.5L264 253.5L264.2 254.7L264.5 257L264.7 252.1L265 256.2L265.2 264.3L265.4 260.8L265.7 264.6L265.9 266L266.2 263.2L266.6 257L266.9 251.7L267.1 244.1L267.4 252.2L267.8 260.8L268.1 259.5L268.3 253.7L268.6 251.9L268.8 250L269 255.6L269.3 258.2L269.5 251.8L269.8 245.1L270 240.3L270.2 241.1L270.5 249.7L270.7 244L271 239.9L271.2 235.9L271.7 244L271.9 247.4L272.2 240.3L272.4 232.1L272.6 226.9L272.9 235.5L273.1 240.1L273.4 242.3L273.6 248L273.8 246.2L274.1 242.8L274.3 249.3L274.6 245.1L274.8 250.2L275 258.1L275.3 251.7L275.5 259.4L275.8 253.4L276 256.2L276.2 264.1L276.5 265.5L276.7 264.3L277 272.8L277.2 270.1L277.7 264.6L277.9 273.5L278.2 270.3L278.6 274.1L278.9 277L279.1 281.7L279.4 288L279.6 293.7L280.1 299.7L280.3 300.7L280.6 295.9L280.8 289L281 290.9L281.3 283.4L281.5 286.4L281.8 280.6L282.2 284.2L282.5 279.2L282.7 283.6L283 277.3L283.2 272.5L283.4 273.9L283.7 271.1L284.2 267.6L284.4 272.8L284.6 271.5L284.9 272.3L285.1 268L285.4 276.8L285.6 271.2L285.8 279.3L286.1 270.2L286.3 273.2L286.6 270.8L286.8 264.1L287 267.2L287.3 274.2L287.5 270.3L287.8 263.2L288.2 264.2L288.5 269.7L288.7 278.2L289 269.4L289.2 273.7L289.4 265.1L289.7 269.3L289.9 274.2L290.2 282.2L290.4 280.1L290.6 275.6L290.9 273.2L291.1 278.6L291.4 279.7L291.6 286L291.8 293.2L292.3 300.8L292.6 293.5L292.8 292.2L293 299L293.3 297.7L293.5 299.7L293.8 297.2L294 294.4L294.2 295.7L294.5 287.1L294.7 288L295 280.7L295.2 274.1L295.4 271.4L295.7 272.4L295.9 263.9L296.2 258L296.4 259.3L296.6 250.9L296.9 255.4L297.1 261.1L297.4 259.7L297.6 265.8L297.8 260L298.1 255.5L298.3 252L298.6 245.5L298.8 250L299 255.2L299.3 246.6L299.5 242.4L299.8 236.6L300 232.1L300.2 236.6L300.5 235.5L300.7 234.1L301 231L301.2 234.8L301.4 238.3L301.7 244.5L301.9 236.1L302.4 241.9L302.6 248.5L302.9 253.4L303.1 245.6L303.4 243.2L303.6 245.8L303.8 240.5L304.1 239.8L304.3 241.5L304.6 234.4L305 235.3L305.3 226.4L305.5 224.5L305.8 216.1L306 222.2L306.5 216.3L306.7 207.3L307 202.3L307.2 199.2L307.4 200.9L307.7 208.8L307.9 203.4L308.2 202.7L308.4 200.2L308.6 201.5L308.9 196.2L309.1 200.8L309.4 192.4L309.6 187.2L309.8 189.6L310.1 194L310.3 191.2L310.6 190.3L310.8 199.3L311 196.6L311.3 198.8L311.5 206.5L311.8 207.8L312.2 210.9L312.5 217.7L312.7 208.8L313.2 215.1L313.4 220.2L313.7 215L313.9 211.9L314.4 205.7L315.1 200.6L315.4 202L315.6 202.9L315.8 210.4L316.1 205.7L316.3 203.3L316.6 209.3L316.8 213.6L317 207.1L317.3 201.6L317.8 196.5L318 190.4L318.2 187.7L318.5 182.5L318.7 188.9L319 185.1L319.2 189.1L319.4 190.1L319.7 186.2L319.9 182.5L320.2 176.3L320.4 181.6L320.6 188.5L320.9 196.3L321.1 190.1L321.4 183.4L321.6 181.9L321.8 175.5L322.1 178.7L322.3 187.8L322.6 192.2L322.8 190.4L323 191.2L323.3 195.6L323.5 190.5L323.8 195.2L324 186.4L324.2 190.4L324.5 187.6L324.7 192.6L325 201.6L325.2 197.7L325.4 206.7L325.7 210.6L325.9 212.7L326.4 215.6L326.6 208.6L326.9 209.9L327.1 212.5L327.4 205.8L327.6 208.9L327.8 202.3L328.1 210.5L328.3 211.9L328.6 209.6L328.8 215.5L329 219.8L329.3 215.8L329.5 213.7L329.8 217L330 218.8L330.2 224.5L330.5 219.8L330.7 211.7L331 204.1L331.2 196.2L331.4 198.6L331.9 199.9L332.2 200.7L332.4 203.7L332.9 202.2L333.1 196.8L333.4 200.5L333.6 193.6L333.8 198.2L334.1 196.5L334.3 192.5L334.6 186.3L334.8 183.2L335 184.3L335.3 186L335.8 178.4L336 184.1L336.2 186.1L336.5 187.6L336.7 182.7L337.2 188L337.4 194.2L337.7 201.5L337.9 207.3L338.2 216.1L338.4 219.6L338.6 223.5L339.1 219.6L339.4 218.9L339.6 220.1L340.1 216.1L340.3 208.2L340.6 215.3L340.8 210.3L341 218.9L341.3 219.7L341.8 221.1L342 223.4L342.2 217.2L342.5 208.9L342.7 200.4L343 209.2L343.2 207.5L343.4 213.8L343.7 219.3L343.9 214.3L344.4 206.2L344.6 201.7L344.9 208L345.1 209.2L345.4 211L345.6 208.9L345.8 201.2L346.1 194.4L346.3 203.1L346.6 194.9L347 203.2L347.3 207.8L347.5 202.1L347.8 211.1L348 219.8L348.2 223.2L348.5 222.5L348.7 229.9L349 233.7L349.2 234.6L349.4 227.5L349.7 219.8L349.9 211.5L350.2 219.1L350.4 211.4L350.6 204.9L350.9 199.1L351.1 202.9L351.4 207.1L351.6 208.5L351.8 211.7L352.1 212.7L352.3 213.9L352.6 218.1L352.8 210.5L353 218.1L353.3 223.2L353.5 229.1L353.8 235.1L354 227.2L354.2 224.8L354.5 217L354.7 222.2L355.2 227.2L355.4 231.8L355.7 224.3L356.2 220.2L356.4 218L356.6 226.3L357.1 224.7L357.4 227.1L357.6 222.1L357.8 231.1L358.1 230.4L358.3 233.7L358.6 231.4L358.8 222.7L359 213.8L359.3 221.5L359.5 229.5L359.8 233.9L360 226.8L360.2 234.6L360.5 242.6L360.7 244.8L361 250.8L361.2 257.5L361.4 256L361.9 259L362.2 251.1L362.4 259.3L362.9 253.4L363.1 252.2L363.4 246.5L363.6 254.1L363.8 263.2L364.1 258.3L364.3 263.3L364.6 272.4L364.8 267.9L365 261.6L365.3 268L365.5 273.3L365.8 276.2L366 281.3L366.2 274.8L366.5 283.2L366.7 276.9L367 280.8L367.2 285.1L367.4 282.3L367.7 280.8L367.9 286.9L368.2 280.9L368.4 287.4L368.9 284.8L369.1 280.8L369.4 278.7L369.6 286.9L369.8 284.7L370.1 280.9L370.3 276.4L370.6 273.5L370.8 271.3L371.3 276.5L371.8 280.2L372.2 287.8L372.5 296.3L372.7 289.2L373 290.7L373.2 282.6L373.4 280.6L373.7 278L373.9 275L374.4 279.5L374.6 288.1L374.9 296L375.1 301.6L375.4 302.3L375.6 306L375.8 298.2L376.1 291.6L376.3 293.3L376.6 300.3L376.8 293.1L377 300.7L377.3 295.7L377.5 293.9L377.8 301.2L378 293.9L378.2 296.6L378.5 295.1L378.7 298.2L379 302.5L379.2 304.3L379.4 296.8L379.7 298.5L379.9 304.5L380.2 309.7L380.4 312.4L380.6 309L380.9 305L381.1 311.1L381.4 312.8L381.6 306.2L381.8 310.4L382.1 308.7L382.3 304.3L382.6 297.2L382.8 294.3L383 287.1L383.3 284.2L383.5 275.5L383.8 267.6L384 258.6L384.2 252.4L384.5 254.7L384.7 256.1L385 258L385.2 254.1L385.4 251.7L385.7 246.5L385.9 238L386.2 228.9L386.4 233.7L386.6 231.4L387.1 238.8L387.6 234.9L387.8 243.9L388.1 247.9L388.3 243.5L388.6 240.6L389 249L389.3 257.4L389.5 251.7L389.8 243.9L390 248.7L390.2 252.3L390.5 254.9L390.7 248.9L391 242.6L391.4 235.7L391.7 230.5L391.9 235.4L392.2 231.9L392.6 224.5L392.9 223.2L393.1 222.3L393.4 221.3L393.6 222.3L393.8 226.6L394.1 227.6L394.3 234.2L394.6 231.6L394.8 228.7L395 237.1L395.3 233.2L395.5 224.2L395.8 229.4L396 224.2L396.2 231.2L396.5 222.6L396.7 218.8L397 217.5L397.2 222.2L397.9 223.5L398.2 215.1L398.4 219.5L398.6 210.5L398.9 212.3L399.1 207.9L399.4 203.3L399.6 209.7L399.8 203.3L400.1 195.1L400.3 190.9L400.6 190.2L400.8 185.2L401 189.5L401.3 181.9L401.5 175.7L401.8 184.6L402 186.1L402.2 190.4L402.5 197.1L403 192.1L403.2 198L403.7 190.5L403.9 187.4L404.2 192.9L404.4 198.8L404.6 194.8L404.9 200.5L405.4 208L405.8 200L406.1 198.2L406.3 196.9L406.6 202.2L406.8 208.9L407 213.9L407.3 207.6L407.5 210.7L407.8 203.9L408 207.9L408.2 211.4L408.5 213.8L408.7 206.4L409 212.3L409.2 206.7L409.4 211.8L409.7 220.3L409.9 214.6L410.2 215.4L410.4 212.4L410.6 220.2L410.9 223.6L411.1 230.9L411.4 235.7L411.6 240.9L411.8 235.7L412.1 237.9L412.3 232.3L412.6 229.4L412.8 223.3L413 216L413.3 220.1L413.5 214.4L413.8 208.8L414 205.6L414.2 208.9L414.5 205L414.7 202.9L415 197.7L415.2 205.2L415.4 202.7L415.7 200.2L415.9 208.6L416.2 206.7L416.4 214.3L416.6 208.8L416.9 207.4L417.1 211.5L417.4 206.7L417.6 212L417.8 213.5L418.1 217.9L418.3 220.3L418.8 221.1L419 217.9L419.3 212.6L419.5 220.4L420 217L420.7 210L421 204.8L421.2 200.9L421.4 206.5L421.9 202.3L422.2 206.6L422.4 213.5L422.6 218.1L422.9 225.3L423.1 216.6L423.4 207.8L423.6 204.8L424.1 210.3L424.3 216.1L424.8 213.9L425 206.1L425.3 213.5L425.5 218.6L425.8 211.2L426 219.9L426.5 224.9L426.7 218.7L427 222.3L427.2 220.6L427.4 218.9L427.7 214.4L427.9 208.6L428.2 206.4L428.4 203.6L428.6 208.2L428.9 216.9L429.1 224L429.4 232.1L429.6 223L429.8 230L430.1 226.9L430.3 219.9L430.6 222.4L430.8 227.1L431 224.8L431.3 220.1L431.5 213.5L431.8 221.7L432 220.6L432.2 215.6L432.7 217.3L433 213.8L433.2 215.4L433.4 207.2L433.7 209.2L433.9 214.3L434.4 212.3L434.6 210L435.1 215L435.4 208.9L435.6 201L435.8 193.6L436.1 192.8L436.3 190.2L436.6 182.1L436.8 177.5L437 172.5L437.5 171.1L437.8 168L438 161.9L438.2 161.2L438.5 159L438.7 157L439 165.4L439.2 172.2L439.4 173.4L439.7 171.7L439.9 178.9L440.2 183.2L440.4 182L440.6 183L440.9 190.2L441.1 186.9L441.4 191.3L441.6 185.7L441.8 184.1L442.1 184.9L442.3 177.9L442.6 169.5L442.8 171.9L443 176.3L443.3 171.6L443.8 177.5L444 170.3L444.2 176.4L444.5 178.3L444.7 170.4L445 166L445.2 161.3L445.7 152.8L445.9 154.4L446.2 159.1L446.4 164.2L446.6 155.7L446.9 161.9L447.1 155.4L447.6 159.9L447.8 156.7L448.1 152.4L448.6 155.4L448.8 162.2L449 170.7L449.5 177.7L449.8 183.3L450 175.9L450.2 172.7L450.5 169.9L450.7 161.9L451 154L451.2 154.7L451.4 162.4L451.7 165.2L452.2 170.4L452.4 162.9L452.6 160.5L452.9 163L453.1 156.3L453.4 165.2L453.6 173.4L453.8 177.4L454.1 184.4L454.6 178.9L454.8 181L455 187.8L455.3 196.3L455.5 198.4L455.8 204.1L456 212.7L456.2 204.4L456.5 211.3L456.7 207.4L457.2 200.3L457.4 206.7L457.9 215.6L458.2 207.7L458.4 209.9L458.6 217.7L459.1 226.3L459.4 234.6L459.6 239.1L460.1 241.1L460.3 233.2L460.6 231.3L460.8 226.1L461 230.5L461.3 222L461.5 224L461.8 222.4L462 220.7L462.2 223.8L462.7 230.3L463 235.6L463.2 236.9L463.4 240.5L463.7 246.7L463.9 249.9L464.2 249.1L464.4 242.3L464.6 244.3L464.9 239L465.1 232.4L465.4 235.4L465.8 239.9L466.1 231.8L466.3 234.9L466.8 241.8L467 248.3L467.3 252L467.5 260.6L467.8 255.9L468 251.3L468.2 245.7L468.5 247.9L469 253.6L469.2 245L469.4 242.1L469.7 245.2L469.9 250.9L470.2 250L470.4 253.5L470.6 248.8L470.9 242.3L471.1 247.1L471.4 250.7L471.6 242.8L472.1 243.4L472.3 245L472.6 241.6L472.8 237L473 246.1L473.3 243.2L473.5 235.4L473.8 230.3L474 237.3L474.2 238.4L474.5 239.9L474.7 247.3L475 248.5L475.2 251.2L475.7 251.9L475.9 248.3L476.2 251.8L476.4 258.6L476.6 256L476.9 259.2L477.1 255.7L477.4 256.5L477.6 253.9L477.8 247.6L478.1 246.9L478.3 239.2L478.6 231.1L478.8 228.3L479 226.5L479.3 222.4L479.5 214.5L479.8 216.9L480 211.9L480.2 208.6L480.5 210.7L480.7 204.2L481 195.6L481.2 201.4L481.4 195.1L481.7 198.5L481.9 200.7L482.2 194.3L482.4 203.4L482.6 207.3L482.9 200.3L483.4 199.4L483.6 196.9L483.8 201.6L484.1 198L484.3 196.3L484.6 197.7L484.8 206.8L485 211.4L485.3 220.2L485.5 225.2L485.8 233.6L486 238L486.2 229.3L486.5 226.2L486.7 231.5L487 234.4L487.2 238L487.7 234.4L487.9 227.5L488.2 230.6L488.4 222L488.6 224.8L488.9 221.2L489.1 229.3L489.4 226.7L489.6 231.7L489.8 225.3L490.1 223.7L490.3 231.2L490.6 223.2L490.8 224.5L491 222.1L491.3 227.7L491.5 229L491.8 234.3L492 225.2L492.2 232.4L492.5 230.9L493 234.7L493.2 231.7L493.4 223.2L493.7 225.4L493.9 222.6L494.2 217.1L494.4 212.7L494.6 220.1L494.9 226.3L495.1 223.2L495.4 218.5L495.6 215L495.8 222.8L496.1 219.7L496.3 227.8L496.6 225L496.8 219L497 216.1L497.3 214.4L497.5 221.4L497.8 216.7L498 211.5L498.2 216.2L498.5 217L498.7 210.6L499 217.1L499.2 219.1L499.4 210.3L499.7 218.3L499.9 215.5L500.2 216.4L500.4 207.6L500.6 206.6L500.9 215.4L501.1 207L501.4 201.9L501.6 193.4L501.8 196L502.1 202.5L502.3 203.2L502.6 195.8L502.8 203.7L503 202.6L503.3 208.2L503.5 204.6L503.8 198.6L504 205.6L504.2 197.8L504.5 189.9L504.7 191.2L505 184.3L505.2 188.7L505.4 180.7L505.7 174L505.9 168.4L506.4 171.9L506.6 178.7L506.9 180.2L507.1 174.5L507.4 166.7L507.6 163.2L507.8 166.9L508.1 174.5L508.3 165.6L508.6 168.7L508.8 164.2L509 167.6L509.3 174.3L509.5 169.6L509.8 165.7L510.2 157.6L510.5 155L511 159L511.2 155.6L511.4 156.6L511.7 155.5L511.9 147.7L512.2 143.5L512.4 151.1L512.6 152.2L512.9 151.2L513.4 147.2L513.6 143.5L513.8 139.5L514.1 144L514.3 150.6L514.6 158.8L514.8 155.3L515.3 154.2L515.8 160.9L516 152.9L516.2 146.5L516.5 153.9L516.7 148.1L517 142.5L517.2 144.3L517.4 137.2L517.7 132L517.9 125.1L518.2 123.3L518.4 116.4L518.6 121.8L519.4 122.6L519.6 130L519.8 136.4L520.1 141.2L520.3 146.8L520.6 151.1L520.8 156.4L521 152.7L521.3 144.7L521.5 149.2L522 142.6L522.2 134.3L522.5 137.6L522.7 142.9L523 150.8L523.2 146.9L523.4 147.9L523.7 145.8L523.9 141.1L524.2 143.5L524.4 138.7L524.6 144L524.9 142.3L525.1 134.6L525.4 140.9L525.6 134.1L525.8 136L526.1 128L526.3 125.7L526.6 129.2L526.8 132.8L527 131.4L527.3 128.3L527.5 124.8L527.8 122.5L528 118.2L528.2 119L528.5 123.5L528.7 120.7L529 114.3L529.2 112.3L529.4 103.6L529.7 108.8L529.9 104.6L530.4 105.7L530.6 110L530.9 109.1L531.1 103.6L531.4 96.3L531.6 95.3L531.8 99.3L532.1 96.1L532.3 87.2L532.6 81.9L532.8 79.8L533 78.9L533.3 73.3L533.5 80.8L533.8 87.4L534.2 89.8L534.5 97.1L534.7 99.2L535 104L535.2 109.9L535.4 102.3L535.7 101.5L535.9 98.3L536.2 106.1L536.4 106.9L536.6 99L536.9 103.1L537.1 108.7L537.4 105.4L537.6 99.9L537.8 94.7L538.1 88.1L538.3 80L538.6 84.4L539 92.5L539.3 84.9L539.5 81.7L539.8 78.3L540 81.9" fill="none" stroke="rgb(255, 70, 131" stroke-width="2" stroke-linejoin="bevel"></path>
</g>
<path d="M0 0l480 0l0 30l-480 0Z" transform="matrix(1,0,0,-1,62.8,442.5)" fill="rgb(47,69,84)" fill-opacity="0"></path>
<g clip-path="url(#zr28-c1)">
<polygon points="480 0 0 0 0 8.6 1 8.9 2 7.4 3 7.3 4 6.8 5 6 6 6.5 7.1 5.8 8.1 6.5 9.1 7.3 10.1 8.3 11.1 7.7 12.1 7.5 13.1 7.8 14.1 8.4 15.1 7.8 16.1 7.1 17.1 7 18.1 6.7 19.2 7.2 20.2 7.8 21.2 8 22.2 7.3 23.2 7.1 24.2 8.2 25.2 8.7 26.2 9.3 27.2 8.9 28.2 8.6 29.2 8.6 30.2 7.7 31.2 7 32.3 7 33.3 8.4 34.3 8.9 35.3 8.4 36.3 8.4 37.3 8.6 38.3 9.4 39.3 9.7 40.3 8.2 41.3 8 42.3 8.9 43.3 8.4 44.4 8.8 45.4 10 46.4 9.9 47.4 11.1 48.4 11.4 49.4 11.9 50.4 11.2 51.4 12.4 52.4 13.1 53.4 13 54.4 12.5 55.4 13.1 56.4 13.5 57.5 12.1 58.5 12.4 59.5 12.3 60.5 12.5 61.5 11.9 62.5 13.1 63.5 11.7 64.5 11.9 65.5 11.3 66.5 11 67.5 12 68.5 11.6 69.6 12.6 70.6 12.1 71.6 11.7 72.6 12.6 73.6 12.9 74.6 13 75.6 12.9 76.6 13.1 77.6 13.2 78.6 12.9 79.6 12.9 80.6 12.4 81.6 12 82.7 12.1 83.7 11.5 84.7 12 85.7 12.2 86.7 11.6 87.7 12.1 88.7 14.2 89.7 14.6 90.7 14.3 91.7 14.6 92.7 14 93.7 13.7 94.8 13.7 95.8 14.5 96.8 16.1 97.8 15.9 98.8 15 99.8 14.1 100.8 14.8 101.8 15.8 102.8 16.4 103.8 14.8 104.8 15.9 105.8 15.3 106.8 14.4 107.9 14.2 108.9 14.3 109.9 14.4 110.9 14.7 111.9 14.5 112.9 13.9 113.9 15.1 114.9 15.3 115.9 15 116.9 15 117.9 14.5 118.9 14.4 120 14.7 121 15.4 122 15.1 123 15.5 124 14.2 125 13.3 126 13 127 12.5 128 13 129 13.3 130 12.5 131 12.6 132 12.1 133.1 12 134.1 12.4 135.1 12.8 136.1 13.2 137.1 12.5 138.1 12.3 139.1 13.2 140.1 13.5 141.1 14.5 142.1 13.9 143.1 14.2 144.1 15.1 145.2 14 146.2 14.4 147.2 14.8 148.2 14.8 149.2 14.5 150.2 13.5 151.2 14.3 152.2 12.6 153.2 12.9 154.2 14.2 155.2 13.6 156.2 12.3 157.2 13.7 158.3 12.9 159.3 13.6 160.3 14.5 161.3 15 162.3 15.2 163.3 14.4 164.3 14.7 165.3 15.8 166.3 15.8 167.3 15.1 168.3 14.8 169.3 15.7 170.4 16.3 171.4 15 172.4 15.4 173.4 14.5 174.4 15.1 175.4 15.4 176.4 14.7 177.4 13.6 178.4 15.3 179.4 14.1 180.4 14 181.4 14.3 182.4 15.1 183.5 16.5 184.5 16.6 185.5 16.9 186.5 17.4 187.5 17.2 188.5 17 189.5 17.5 190.5 17.8 191.5 17.4 192.5 17.7 193.5 16.6 194.5 16.2 195.6 16.3 196.6 16.5 197.6 17.2 198.6 16.8 199.6 16 200.6 16 201.6 15.7 202.6 16.2 203.6 16.7 204.6 15.9 205.6 15.6 206.6 15.9 207.6 16 208.7 15.5 209.7 14.9 210.7 15.3 211.7 14.1 212.7 14.7 213.7 14 214.7 13.3 215.7 13.4 216.7 13.2 217.7 12.5 218.7 12.9 219.7 13.4 220.8 13.7 221.8 12.8 222.8 13.3 223.8 13.7 224.8 14.8 225.8 14.2 226.8 13.9 227.8 14.1 228.8 13.7 229.8 14.6 230.8 14.2 231.8 15.3 232.8 15.3 233.9 17 234.9 18.4 235.9 18 236.9 17.9 237.9 16.9 238.9 17.1 239.9 16.6 240.9 16.9 241.9 17.9 242.9 18.6 243.9 18.5 244.9 18.5 246 17.8 247 17.4 248 16.6 249 16.9 250 17.4 251 17.2 252 17.1 253 17 254 17.2 255 16.2 256 15.9 257 15.8 258 16.8 259.1 17.7 260.1 17.9 261.1 16.4 262.1 15.7 263.1 16.4 264.1 16 265.1 16.4 266.1 16.8 267.1 16.3 268.1 16.2 269.1 16.5 270.1 17.4 271.2 16.8 272.2 16 273.2 16.1 274.2 15.6 275.2 17.2 276.2 17.5 277.2 17.7 278.2 18.5 279.2 17.7 280.2 17.1 281.2 16.5 282.2 15.6 283.2 15.6 284.3 15.7 285.3 16.6 286.3 17.6 287.3 17.5 288.3 17.5 289.3 17.8 290.3 17.6 291.3 16.9 292.3 17.7 293.3 17.9 294.3 17.9 295.3 17.6 296.4 18.2 297.4 17.2 298.4 16.1 299.4 16 300.4 16.9 301.4 16.6 302.4 17 303.4 16.3 304.4 15.1 305.4 14.2 306.4 14.8 307.4 13.6 308.4 14.4 309.5 14.6 310.5 14.5 311.5 14.7 312.5 14.9 313.5 14.4 314.5 14.8 315.5 15.2 316.5 15.5 317.5 15.4 318.5 15.9 319.5 14.9 320.5 14.5 321.6 13.5 322.6 12.9 323.6 12.4 324.6 13.4 325.6 13.5 326.6 13.3 327.6 12.7 328.6 13.2 329.6 14.5 330.6 15.9 331.6 15.9 332.6 15.6 333.6 14.9 334.7 14.5 335.7 14.1 336.7 13.7 337.7 14.1 338.7 13.6 339.7 14.4 340.7 15.4 341.7 16.8 342.7 17.4 343.7 18.1 344.7 18.4 345.7 18.8 346.8 19 347.8 19.7 348.8 20.5 349.8 20.5 350.8 20 351.8 19.7 352.8 19 353.8 19.6 354.8 20.1 355.8 19.8 356.8 19.8 357.8 19.5 358.8 18.4 359.9 18.9 360.9 18.6 361.9 17.8 362.9 18.6 363.9 18.3 364.9 17.8 365.9 17.5 366.9 17 367.9 16.7 368.9 17.7 369.9 17.2 370.9 17.5 372 16.4 373 16.4 374 16.1 375 15.1 376 15.8 377 15.6 378 16.5 379 15.9 380 15.1 381 15.3 382 16.8 383 18 384 19.7 385.1 18.8 386.1 18.4 387.1 17.7 388.1 18.9 389.1 19.4 390.1 18.7 391.1 19.4 392.1 20.2 393.1 20.1 394.1 21.3 395.1 21.9 396.1 21.2 397.2 22.1 398.2 21.7 399.2 21.2 400.2 21.8 401.2 22 402.2 21.8 403.2 21.5 404.2 21.9 405.2 22.8 406.2 22.8 407.2 23.3 408.2 23.7 409.2 23.7 410.3 23.1 411.3 22.2 412.3 21.5 413.3 21.1 414.3 20.8 415.3 20.8 416.3 21.4 417.3 21.5 418.3 21.5 419.3 20.9 420.3 20.7 421.3 21.6 422.4 20.4 423.4 21.6 424.4 20.8 425.4 21.1 426.4 21.5 427.4 21.3 428.4 21.3 429.4 21.5 430.4 22.4 431.4 21.9 432.4 21.2 433.4 18.8 434.4 17.9 435.5 17.6 436.5 18 437.5 17.7 438.5 18.7 439.5 19.8 440.5 18.8 441.5 18.9 442.5 19.3 443.5 19 444.5 18 445.5 17.5 446.5 17.9 447.6 17.6 448.6 17.4 449.6 16.8 450.6 17.2 451.6 17 452.6 16.7 453.6 17 454.6 17.6 455.6 17.1 456.6 16.5 457.6 14.8 458.6 14.8 459.6 14.1 460.7 14.5 461.7 15 462.7 15.4 463.7 15.6 464.7 15.3 465.7 16.5 466.7 16.1 467.7 16.7 468.7 15.9 469.7 15.7 470.7 15.5 471.7 15.7 472.8 15.7 473.8 14.9 474.8 12.9 475.8 13.5 476.8 14.1 477.8 13.5 478.8 12.3 479.8 11.8" transform="matrix(1,0,0,-1,62.8,442.5)" fill="#d2dbee" fill-opacity="0.2"></polygon>
</g>
<g clip-path="url(#zr28-c2)">
<polygon points="480 0 0 0 0 8.6 1 8.9 2 7.4 3 7.3 4 6.8 5 6 6 6.5 7.1 5.8 8.1 6.5 9.1 7.3 10.1 8.3 11.1 7.7 12.1 7.5 13.1 7.8 14.1 8.4 15.1 7.8 16.1 7.1 17.1 7 18.1 6.7 19.2 7.2 20.2 7.8 21.2 8 22.2 7.3 23.2 7.1 24.2 8.2 25.2 8.7 26.2 9.3 27.2 8.9 28.2 8.6 29.2 8.6 30.2 7.7 31.2 7 32.3 7 33.3 8.4 34.3 8.9 35.3 8.4 36.3 8.4 37.3 8.6 38.3 9.4 39.3 9.7 40.3 8.2 41.3 8 42.3 8.9 43.3 8.4 44.4 8.8 45.4 10 46.4 9.9 47.4 11.1 48.4 11.4 49.4 11.9 50.4 11.2 51.4 12.4 52.4 13.1 53.4 13 54.4 12.5 55.4 13.1 56.4 13.5 57.5 12.1 58.5 12.4 59.5 12.3 60.5 12.5 61.5 11.9 62.5 13.1 63.5 11.7 64.5 11.9 65.5 11.3 66.5 11 67.5 12 68.5 11.6 69.6 12.6 70.6 12.1 71.6 11.7 72.6 12.6 73.6 12.9 74.6 13 75.6 12.9 76.6 13.1 77.6 13.2 78.6 12.9 79.6 12.9 80.6 12.4 81.6 12 82.7 12.1 83.7 11.5 84.7 12 85.7 12.2 86.7 11.6 87.7 12.1 88.7 14.2 89.7 14.6 90.7 14.3 91.7 14.6 92.7 14 93.7 13.7 94.8 13.7 95.8 14.5 96.8 16.1 97.8 15.9 98.8 15 99.8 14.1 100.8 14.8 101.8 15.8 102.8 16.4 103.8 14.8 104.8 15.9 105.8 15.3 106.8 14.4 107.9 14.2 108.9 14.3 109.9 14.4 110.9 14.7 111.9 14.5 112.9 13.9 113.9 15.1 114.9 15.3 115.9 15 116.9 15 117.9 14.5 118.9 14.4 120 14.7 121 15.4 122 15.1 123 15.5 124 14.2 125 13.3 126 13 127 12.5 128 13 129 13.3 130 12.5 131 12.6 132 12.1 133.1 12 134.1 12.4 135.1 12.8 136.1 13.2 137.1 12.5 138.1 12.3 139.1 13.2 140.1 13.5 141.1 14.5 142.1 13.9 143.1 14.2 144.1 15.1 145.2 14 146.2 14.4 147.2 14.8 148.2 14.8 149.2 14.5 150.2 13.5 151.2 14.3 152.2 12.6 153.2 12.9 154.2 14.2 155.2 13.6 156.2 12.3 157.2 13.7 158.3 12.9 159.3 13.6 160.3 14.5 161.3 15 162.3 15.2 163.3 14.4 164.3 14.7 165.3 15.8 166.3 15.8 167.3 15.1 168.3 14.8 169.3 15.7 170.4 16.3 171.4 15 172.4 15.4 173.4 14.5 174.4 15.1 175.4 15.4 176.4 14.7 177.4 13.6 178.4 15.3 179.4 14.1 180.4 14 181.4 14.3 182.4 15.1 183.5 16.5 184.5 16.6 185.5 16.9 186.5 17.4 187.5 17.2 188.5 17 189.5 17.5 190.5 17.8 191.5 17.4 192.5 17.7 193.5 16.6 194.5 16.2 195.6 16.3 196.6 16.5 197.6 17.2 198.6 16.8 199.6 16 200.6 16 201.6 15.7 202.6 16.2 203.6 16.7 204.6 15.9 205.6 15.6 206.6 15.9 207.6 16 208.7 15.5 209.7 14.9 210.7 15.3 211.7 14.1 212.7 14.7 213.7 14 214.7 13.3 215.7 13.4 216.7 13.2 217.7 12.5 218.7 12.9 219.7 13.4 220.8 13.7 221.8 12.8 222.8 13.3 223.8 13.7 224.8 14.8 225.8 14.2 226.8 13.9 227.8 14.1 228.8 13.7 229.8 14.6 230.8 14.2 231.8 15.3 232.8 15.3 233.9 17 234.9 18.4 235.9 18 236.9 17.9 237.9 16.9 238.9 17.1 239.9 16.6 240.9 16.9 241.9 17.9 242.9 18.6 243.9 18.5 244.9 18.5 246 17.8 247 17.4 248 16.6 249 16.9 250 17.4 251 17.2 252 17.1 253 17 254 17.2 255 16.2 256 15.9 257 15.8 258 16.8 259.1 17.7 260.1 17.9 261.1 16.4 262.1 15.7 263.1 16.4 264.1 16 265.1 16.4 266.1 16.8 267.1 16.3 268.1 16.2 269.1 16.5 270.1 17.4 271.2 16.8 272.2 16 273.2 16.1 274.2 15.6 275.2 17.2 276.2 17.5 277.2 17.7 278.2 18.5 279.2 17.7 280.2 17.1 281.2 16.5 282.2 15.6 283.2 15.6 284.3 15.7 285.3 16.6 286.3 17.6 287.3 17.5 288.3 17.5 289.3 17.8 290.3 17.6 291.3 16.9 292.3 17.7 293.3 17.9 294.3 17.9 295.3 17.6 296.4 18.2 297.4 17.2 298.4 16.1 299.4 16 300.4 16.9 301.4 16.6 302.4 17 303.4 16.3 304.4 15.1 305.4 14.2 306.4 14.8 307.4 13.6 308.4 14.4 309.5 14.6 310.5 14.5 311.5 14.7 312.5 14.9 313.5 14.4 314.5 14.8 315.5 15.2 316.5 15.5 317.5 15.4 318.5 15.9 319.5 14.9 320.5 14.5 321.6 13.5 322.6 12.9 323.6 12.4 324.6 13.4 325.6 13.5 326.6 13.3 327.6 12.7 328.6 13.2 329.6 14.5 330.6 15.9 331.6 15.9 332.6 15.6 333.6 14.9 334.7 14.5 335.7 14.1 336.7 13.7 337.7 14.1 338.7 13.6 339.7 14.4 340.7 15.4 341.7 16.8 342.7 17.4 343.7 18.1 344.7 18.4 345.7 18.8 346.8 19 347.8 19.7 348.8 20.5 349.8 20.5 350.8 20 351.8 19.7 352.8 19 353.8 19.6 354.8 20.1 355.8 19.8 356.8 19.8 357.8 19.5 358.8 18.4 359.9 18.9 360.9 18.6 361.9 17.8 362.9 18.6 363.9 18.3 364.9 17.8 365.9 17.5 366.9 17 367.9 16.7 368.9 17.7 369.9 17.2 370.9 17.5 372 16.4 373 16.4 374 16.1 375 15.1 376 15.8 377 15.6 378 16.5 379 15.9 380 15.1 381 15.3 382 16.8 383 18 384 19.7 385.1 18.8 386.1 18.4 387.1 17.7 388.1 18.9 389.1 19.4 390.1 18.7 391.1 19.4 392.1 20.2 393.1 20.1 394.1 21.3 395.1 21.9 396.1 21.2 397.2 22.1 398.2 21.7 399.2 21.2 400.2 21.8 401.2 22 402.2 21.8 403.2 21.5 404.2 21.9 405.2 22.8 406.2 22.8 407.2 23.3 408.2 23.7 409.2 23.7 410.3 23.1 411.3 22.2 412.3 21.5 413.3 21.1 414.3 20.8 415.3 20.8 416.3 21.4 417.3 21.5 418.3 21.5 419.3 20.9 420.3 20.7 421.3 21.6 422.4 20.4 423.4 21.6 424.4 20.8 425.4 21.1 426.4 21.5 427.4 21.3 428.4 21.3 429.4 21.5 430.4 22.4 431.4 21.9 432.4 21.2 433.4 18.8 434.4 17.9 435.5 17.6 436.5 18 437.5 17.7 438.5 18.7 439.5 19.8 440.5 18.8 441.5 18.9 442.5 19.3 443.5 19 444.5 18 445.5 17.5 446.5 17.9 447.6 17.6 448.6 17.4 449.6 16.8 450.6 17.2 451.6 17 452.6 16.7 453.6 17 454.6 17.6 455.6 17.1 456.6 16.5 457.6 14.8 458.6 14.8 459.6 14.1 460.7 14.5 461.7 15 462.7 15.4 463.7 15.6 464.7 15.3 465.7 16.5 466.7 16.1 467.7 16.7 468.7 15.9 469.7 15.7 470.7 15.5 471.7 15.7 472.8 15.7 473.8 14.9 474.8 12.9 475.8 13.5 476.8 14.1 477.8 13.5 478.8 12.3 479.8 11.8" transform="matrix(1,0,0,-1,62.8,442.5)" fill="#8fb0f7" fill-opacity="0.2"></polygon>
</g>
<g clip-path="url(#zr28-c3)">
<polygon points="480 0 0 0 0 8.6 1 8.9 2 7.4 3 7.3 4 6.8 5 6 6 6.5 7.1 5.8 8.1 6.5 9.1 7.3 10.1 8.3 11.1 7.7 12.1 7.5 13.1 7.8 14.1 8.4 15.1 7.8 16.1 7.1 17.1 7 18.1 6.7 19.2 7.2 20.2 7.8 21.2 8 22.2 7.3 23.2 7.1 24.2 8.2 25.2 8.7 26.2 9.3 27.2 8.9 28.2 8.6 29.2 8.6 30.2 7.7 31.2 7 32.3 7 33.3 8.4 34.3 8.9 35.3 8.4 36.3 8.4 37.3 8.6 38.3 9.4 39.3 9.7 40.3 8.2 41.3 8 42.3 8.9 43.3 8.4 44.4 8.8 45.4 10 46.4 9.9 47.4 11.1 48.4 11.4 49.4 11.9 50.4 11.2 51.4 12.4 52.4 13.1 53.4 13 54.4 12.5 55.4 13.1 56.4 13.5 57.5 12.1 58.5 12.4 59.5 12.3 60.5 12.5 61.5 11.9 62.5 13.1 63.5 11.7 64.5 11.9 65.5 11.3 66.5 11 67.5 12 68.5 11.6 69.6 12.6 70.6 12.1 71.6 11.7 72.6 12.6 73.6 12.9 74.6 13 75.6 12.9 76.6 13.1 77.6 13.2 78.6 12.9 79.6 12.9 80.6 12.4 81.6 12 82.7 12.1 83.7 11.5 84.7 12 85.7 12.2 86.7 11.6 87.7 12.1 88.7 14.2 89.7 14.6 90.7 14.3 91.7 14.6 92.7 14 93.7 13.7 94.8 13.7 95.8 14.5 96.8 16.1 97.8 15.9 98.8 15 99.8 14.1 100.8 14.8 101.8 15.8 102.8 16.4 103.8 14.8 104.8 15.9 105.8 15.3 106.8 14.4 107.9 14.2 108.9 14.3 109.9 14.4 110.9 14.7 111.9 14.5 112.9 13.9 113.9 15.1 114.9 15.3 115.9 15 116.9 15 117.9 14.5 118.9 14.4 120 14.7 121 15.4 122 15.1 123 15.5 124 14.2 125 13.3 126 13 127 12.5 128 13 129 13.3 130 12.5 131 12.6 132 12.1 133.1 12 134.1 12.4 135.1 12.8 136.1 13.2 137.1 12.5 138.1 12.3 139.1 13.2 140.1 13.5 141.1 14.5 142.1 13.9 143.1 14.2 144.1 15.1 145.2 14 146.2 14.4 147.2 14.8 148.2 14.8 149.2 14.5 150.2 13.5 151.2 14.3 152.2 12.6 153.2 12.9 154.2 14.2 155.2 13.6 156.2 12.3 157.2 13.7 158.3 12.9 159.3 13.6 160.3 14.5 161.3 15 162.3 15.2 163.3 14.4 164.3 14.7 165.3 15.8 166.3 15.8 167.3 15.1 168.3 14.8 169.3 15.7 170.4 16.3 171.4 15 172.4 15.4 173.4 14.5 174.4 15.1 175.4 15.4 176.4 14.7 177.4 13.6 178.4 15.3 179.4 14.1 180.4 14 181.4 14.3 182.4 15.1 183.5 16.5 184.5 16.6 185.5 16.9 186.5 17.4 187.5 17.2 188.5 17 189.5 17.5 190.5 17.8 191.5 17.4 192.5 17.7 193.5 16.6 194.5 16.2 195.6 16.3 196.6 16.5 197.6 17.2 198.6 16.8 199.6 16 200.6 16 201.6 15.7 202.6 16.2 203.6 16.7 204.6 15.9 205.6 15.6 206.6 15.9 207.6 16 208.7 15.5 209.7 14.9 210.7 15.3 211.7 14.1 212.7 14.7 213.7 14 214.7 13.3 215.7 13.4 216.7 13.2 217.7 12.5 218.7 12.9 219.7 13.4 220.8 13.7 221.8 12.8 222.8 13.3 223.8 13.7 224.8 14.8 225.8 14.2 226.8 13.9 227.8 14.1 228.8 13.7 229.8 14.6 230.8 14.2 231.8 15.3 232.8 15.3 233.9 17 234.9 18.4 235.9 18 236.9 17.9 237.9 16.9 238.9 17.1 239.9 16.6 240.9 16.9 241.9 17.9 242.9 18.6 243.9 18.5 244.9 18.5 246 17.8 247 17.4 248 16.6 249 16.9 250 17.4 251 17.2 252 17.1 253 17 254 17.2 255 16.2 256 15.9 257 15.8 258 16.8 259.1 17.7 260.1 17.9 261.1 16.4 262.1 15.7 263.1 16.4 264.1 16 265.1 16.4 266.1 16.8 267.1 16.3 268.1 16.2 269.1 16.5 270.1 17.4 271.2 16.8 272.2 16 273.2 16.1 274.2 15.6 275.2 17.2 276.2 17.5 277.2 17.7 278.2 18.5 279.2 17.7 280.2 17.1 281.2 16.5 282.2 15.6 283.2 15.6 284.3 15.7 285.3 16.6 286.3 17.6 287.3 17.5 288.3 17.5 289.3 17.8 290.3 17.6 291.3 16.9 292.3 17.7 293.3 17.9 294.3 17.9 295.3 17.6 296.4 18.2 297.4 17.2 298.4 16.1 299.4 16 300.4 16.9 301.4 16.6 302.4 17 303.4 16.3 304.4 15.1 305.4 14.2 306.4 14.8 307.4 13.6 308.4 14.4 309.5 14.6 310.5 14.5 311.5 14.7 312.5 14.9 313.5 14.4 314.5 14.8 315.5 15.2 316.5 15.5 317.5 15.4 318.5 15.9 319.5 14.9 320.5 14.5 321.6 13.5 322.6 12.9 323.6 12.4 324.6 13.4 325.6 13.5 326.6 13.3 327.6 12.7 328.6 13.2 329.6 14.5 330.6 15.9 331.6 15.9 332.6 15.6 333.6 14.9 334.7 14.5 335.7 14.1 336.7 13.7 337.7 14.1 338.7 13.6 339.7 14.4 340.7 15.4 341.7 16.8 342.7 17.4 343.7 18.1 344.7 18.4 345.7 18.8 346.8 19 347.8 19.7 348.8 20.5 349.8 20.5 350.8 20 351.8 19.7 352.8 19 353.8 19.6 354.8 20.1 355.8 19.8 356.8 19.8 357.8 19.5 358.8 18.4 359.9 18.9 360.9 18.6 361.9 17.8 362.9 18.6 363.9 18.3 364.9 17.8 365.9 17.5 366.9 17 367.9 16.7 368.9 17.7 369.9 17.2 370.9 17.5 372 16.4 373 16.4 374 16.1 375 15.1 376 15.8 377 15.6 378 16.5 379 15.9 380 15.1 381 15.3 382 16.8 383 18 384 19.7 385.1 18.8 386.1 18.4 387.1 17.7 388.1 18.9 389.1 19.4 390.1 18.7 391.1 19.4 392.1 20.2 393.1 20.1 394.1 21.3 395.1 21.9 396.1 21.2 397.2 22.1 398.2 21.7 399.2 21.2 400.2 21.8 401.2 22 402.2 21.8 403.2 21.5 404.2 21.9 405.2 22.8 406.2 22.8 407.2 23.3 408.2 23.7 409.2 23.7 410.3 23.1 411.3 22.2 412.3 21.5 413.3 21.1 414.3 20.8 415.3 20.8 416.3 21.4 417.3 21.5 418.3 21.5 419.3 20.9 420.3 20.7 421.3 21.6 422.4 20.4 423.4 21.6 424.4 20.8 425.4 21.1 426.4 21.5 427.4 21.3 428.4 21.3 429.4 21.5 430.4 22.4 431.4 21.9 432.4 21.2 433.4 18.8 434.4 17.9 435.5 17.6 436.5 18 437.5 17.7 438.5 18.7 439.5 19.8 440.5 18.8 441.5 18.9 442.5 19.3 443.5 19 444.5 18 445.5 17.5 446.5 17.9 447.6 17.6 448.6 17.4 449.6 16.8 450.6 17.2 451.6 17 452.6 16.7 453.6 17 454.6 17.6 455.6 17.1 456.6 16.5 457.6 14.8 458.6 14.8 459.6 14.1 460.7 14.5 461.7 15 462.7 15.4 463.7 15.6 464.7 15.3 465.7 16.5 466.7 16.1 467.7 16.7 468.7 15.9 469.7 15.7 470.7 15.5 471.7 15.7 472.8 15.7 473.8 14.9 474.8 12.9 475.8 13.5 476.8 14.1 477.8 13.5 478.8 12.3 479.8 11.8" transform="matrix(1,0,0,-1,62.8,442.5)" fill="#d2dbee" fill-opacity="0.2"></polygon>
</g>
<g clip-path="url(#zr28-c1)">
<polyline points="0 8.6 1 8.9 2 7.4 3 7.3 4 6.8 5 6 6 6.5 7.1 5.8 8.1 6.5 9.1 7.3 10.1 8.3 11.1 7.7 12.1 7.5 13.1 7.8 14.1 8.4 15.1 7.8 16.1 7.1 17.1 7 18.1 6.7 19.2 7.2 20.2 7.8 21.2 8 22.2 7.3 23.2 7.1 24.2 8.2 25.2 8.7 26.2 9.3 27.2 8.9 28.2 8.6 29.2 8.6 30.2 7.7 31.2 7 32.3 7 33.3 8.4 34.3 8.9 35.3 8.4 36.3 8.4 37.3 8.6 38.3 9.4 39.3 9.7 40.3 8.2 41.3 8 42.3 8.9 43.3 8.4 44.4 8.8 45.4 10 46.4 9.9 47.4 11.1 48.4 11.4 49.4 11.9 50.4 11.2 51.4 12.4 52.4 13.1 53.4 13 54.4 12.5 55.4 13.1 56.4 13.5 57.5 12.1 58.5 12.4 59.5 12.3 60.5 12.5 61.5 11.9 62.5 13.1 63.5 11.7 64.5 11.9 65.5 11.3 66.5 11 67.5 12 68.5 11.6 69.6 12.6 70.6 12.1 71.6 11.7 72.6 12.6 73.6 12.9 74.6 13 75.6 12.9 76.6 13.1 77.6 13.2 78.6 12.9 79.6 12.9 80.6 12.4 81.6 12 82.7 12.1 83.7 11.5 84.7 12 85.7 12.2 86.7 11.6 87.7 12.1 88.7 14.2 89.7 14.6 90.7 14.3 91.7 14.6 92.7 14 93.7 13.7 94.8 13.7 95.8 14.5 96.8 16.1 97.8 15.9 98.8 15 99.8 14.1 100.8 14.8 101.8 15.8 102.8 16.4 103.8 14.8 104.8 15.9 105.8 15.3 106.8 14.4 107.9 14.2 108.9 14.3 109.9 14.4 110.9 14.7 111.9 14.5 112.9 13.9 113.9 15.1 114.9 15.3 115.9 15 116.9 15 117.9 14.5 118.9 14.4 120 14.7 121 15.4 122 15.1 123 15.5 124 14.2 125 13.3 126 13 127 12.5 128 13 129 13.3 130 12.5 131 12.6 132 12.1 133.1 12 134.1 12.4 135.1 12.8 136.1 13.2 137.1 12.5 138.1 12.3 139.1 13.2 140.1 13.5 141.1 14.5 142.1 13.9 143.1 14.2 144.1 15.1 145.2 14 146.2 14.4 147.2 14.8 148.2 14.8 149.2 14.5 150.2 13.5 151.2 14.3 152.2 12.6 153.2 12.9 154.2 14.2 155.2 13.6 156.2 12.3 157.2 13.7 158.3 12.9 159.3 13.6 160.3 14.5 161.3 15 162.3 15.2 163.3 14.4 164.3 14.7 165.3 15.8 166.3 15.8 167.3 15.1 168.3 14.8 169.3 15.7 170.4 16.3 171.4 15 172.4 15.4 173.4 14.5 174.4 15.1 175.4 15.4 176.4 14.7 177.4 13.6 178.4 15.3 179.4 14.1 180.4 14 181.4 14.3 182.4 15.1 183.5 16.5 184.5 16.6 185.5 16.9 186.5 17.4 187.5 17.2 188.5 17 189.5 17.5 190.5 17.8 191.5 17.4 192.5 17.7 193.5 16.6 194.5 16.2 195.6 16.3 196.6 16.5 197.6 17.2 198.6 16.8 199.6 16 200.6 16 201.6 15.7 202.6 16.2 203.6 16.7 204.6 15.9 205.6 15.6 206.6 15.9 207.6 16 208.7 15.5 209.7 14.9 210.7 15.3 211.7 14.1 212.7 14.7 213.7 14 214.7 13.3 215.7 13.4 216.7 13.2 217.7 12.5 218.7 12.9 219.7 13.4 220.8 13.7 221.8 12.8 222.8 13.3 223.8 13.7 224.8 14.8 225.8 14.2 226.8 13.9 227.8 14.1 228.8 13.7 229.8 14.6 230.8 14.2 231.8 15.3 232.8 15.3 233.9 17 234.9 18.4 235.9 18 236.9 17.9 237.9 16.9 238.9 17.1 239.9 16.6 240.9 16.9 241.9 17.9 242.9 18.6 243.9 18.5 244.9 18.5 246 17.8 247 17.4 248 16.6 249 16.9 250 17.4 251 17.2 252 17.1 253 17 254 17.2 255 16.2 256 15.9 257 15.8 258 16.8 259.1 17.7 260.1 17.9 261.1 16.4 262.1 15.7 263.1 16.4 264.1 16 265.1 16.4 266.1 16.8 267.1 16.3 268.1 16.2 269.1 16.5 270.1 17.4 271.2 16.8 272.2 16 273.2 16.1 274.2 15.6 275.2 17.2 276.2 17.5 277.2 17.7 278.2 18.5 279.2 17.7 280.2 17.1 281.2 16.5 282.2 15.6 283.2 15.6 284.3 15.7 285.3 16.6 286.3 17.6 287.3 17.5 288.3 17.5 289.3 17.8 290.3 17.6 291.3 16.9 292.3 17.7 293.3 17.9 294.3 17.9 295.3 17.6 296.4 18.2 297.4 17.2 298.4 16.1 299.4 16 300.4 16.9 301.4 16.6 302.4 17 303.4 16.3 304.4 15.1 305.4 14.2 306.4 14.8 307.4 13.6 308.4 14.4 309.5 14.6 310.5 14.5 311.5 14.7 312.5 14.9 313.5 14.4 314.5 14.8 315.5 15.2 316.5 15.5 317.5 15.4 318.5 15.9 319.5 14.9 320.5 14.5 321.6 13.5 322.6 12.9 323.6 12.4 324.6 13.4 325.6 13.5 326.6 13.3 327.6 12.7 328.6 13.2 329.6 14.5 330.6 15.9 331.6 15.9 332.6 15.6 333.6 14.9 334.7 14.5 335.7 14.1 336.7 13.7 337.7 14.1 338.7 13.6 339.7 14.4 340.7 15.4 341.7 16.8 342.7 17.4 343.7 18.1 344.7 18.4 345.7 18.8 346.8 19 347.8 19.7 348.8 20.5 349.8 20.5 350.8 20 351.8 19.7 352.8 19 353.8 19.6 354.8 20.1 355.8 19.8 356.8 19.8 357.8 19.5 358.8 18.4 359.9 18.9 360.9 18.6 361.9 17.8 362.9 18.6 363.9 18.3 364.9 17.8 365.9 17.5 366.9 17 367.9 16.7 368.9 17.7 369.9 17.2 370.9 17.5 372 16.4 373 16.4 374 16.1 375 15.1 376 15.8 377 15.6 378 16.5 379 15.9 380 15.1 381 15.3 382 16.8 383 18 384 19.7 385.1 18.8 386.1 18.4 387.1 17.7 388.1 18.9 389.1 19.4 390.1 18.7 391.1 19.4 392.1 20.2 393.1 20.1 394.1 21.3 395.1 21.9 396.1 21.2 397.2 22.1 398.2 21.7 399.2 21.2 400.2 21.8 401.2 22 402.2 21.8 403.2 21.5 404.2 21.9 405.2 22.8 406.2 22.8 407.2 23.3 408.2 23.7 409.2 23.7 410.3 23.1 411.3 22.2 412.3 21.5 413.3 21.1 414.3 20.8 415.3 20.8 416.3 21.4 417.3 21.5 418.3 21.5 419.3 20.9 420.3 20.7 421.3 21.6 422.4 20.4 423.4 21.6 424.4 20.8 425.4 21.1 426.4 21.5 427.4 21.3 428.4 21.3 429.4 21.5 430.4 22.4 431.4 21.9 432.4 21.2 433.4 18.8 434.4 17.9 435.5 17.6 436.5 18 437.5 17.7 438.5 18.7 439.5 19.8 440.5 18.8 441.5 18.9 442.5 19.3 443.5 19 444.5 18 445.5 17.5 446.5 17.9 447.6 17.6 448.6 17.4 449.6 16.8 450.6 17.2 451.6 17 452.6 16.7 453.6 17 454.6 17.6 455.6 17.1 456.6 16.5 457.6 14.8 458.6 14.8 459.6 14.1 460.7 14.5 461.7 15 462.7 15.4 463.7 15.6 464.7 15.3 465.7 16.5 466.7 16.1 467.7 16.7 468.7 15.9 469.7 15.7 470.7 15.5 471.7 15.7 472.8 15.7 473.8 14.9 474.8 12.9 475.8 13.5 476.8 14.1 477.8 13.5 478.8 12.3 479.8 11.8" transform="matrix(1,0,0,-1,62.8,442.5)" fill="none" stroke="#d2dbee" stroke-width="0.5"></polyline>
</g>
<g clip-path="url(#zr28-c2)">
<polyline points="0 8.6 1 8.9 2 7.4 3 7.3 4 6.8 5 6 6 6.5 7.1 5.8 8.1 6.5 9.1 7.3 10.1 8.3 11.1 7.7 12.1 7.5 13.1 7.8 14.1 8.4 15.1 7.8 16.1 7.1 17.1 7 18.1 6.7 19.2 7.2 20.2 7.8 21.2 8 22.2 7.3 23.2 7.1 24.2 8.2 25.2 8.7 26.2 9.3 27.2 8.9 28.2 8.6 29.2 8.6 30.2 7.7 31.2 7 32.3 7 33.3 8.4 34.3 8.9 35.3 8.4 36.3 8.4 37.3 8.6 38.3 9.4 39.3 9.7 40.3 8.2 41.3 8 42.3 8.9 43.3 8.4 44.4 8.8 45.4 10 46.4 9.9 47.4 11.1 48.4 11.4 49.4 11.9 50.4 11.2 51.4 12.4 52.4 13.1 53.4 13 54.4 12.5 55.4 13.1 56.4 13.5 57.5 12.1 58.5 12.4 59.5 12.3 60.5 12.5 61.5 11.9 62.5 13.1 63.5 11.7 64.5 11.9 65.5 11.3 66.5 11 67.5 12 68.5 11.6 69.6 12.6 70.6 12.1 71.6 11.7 72.6 12.6 73.6 12.9 74.6 13 75.6 12.9 76.6 13.1 77.6 13.2 78.6 12.9 79.6 12.9 80.6 12.4 81.6 12 82.7 12.1 83.7 11.5 84.7 12 85.7 12.2 86.7 11.6 87.7 12.1 88.7 14.2 89.7 14.6 90.7 14.3 91.7 14.6 92.7 14 93.7 13.7 94.8 13.7 95.8 14.5 96.8 16.1 97.8 15.9 98.8 15 99.8 14.1 100.8 14.8 101.8 15.8 102.8 16.4 103.8 14.8 104.8 15.9 105.8 15.3 106.8 14.4 107.9 14.2 108.9 14.3 109.9 14.4 110.9 14.7 111.9 14.5 112.9 13.9 113.9 15.1 114.9 15.3 115.9 15 116.9 15 117.9 14.5 118.9 14.4 120 14.7 121 15.4 122 15.1 123 15.5 124 14.2 125 13.3 126 13 127 12.5 128 13 129 13.3 130 12.5 131 12.6 132 12.1 133.1 12 134.1 12.4 135.1 12.8 136.1 13.2 137.1 12.5 138.1 12.3 139.1 13.2 140.1 13.5 141.1 14.5 142.1 13.9 143.1 14.2 144.1 15.1 145.2 14 146.2 14.4 147.2 14.8 148.2 14.8 149.2 14.5 150.2 13.5 151.2 14.3 152.2 12.6 153.2 12.9 154.2 14.2 155.2 13.6 156.2 12.3 157.2 13.7 158.3 12.9 159.3 13.6 160.3 14.5 161.3 15 162.3 15.2 163.3 14.4 164.3 14.7 165.3 15.8 166.3 15.8 167.3 15.1 168.3 14.8 169.3 15.7 170.4 16.3 171.4 15 172.4 15.4 173.4 14.5 174.4 15.1 175.4 15.4 176.4 14.7 177.4 13.6 178.4 15.3 179.4 14.1 180.4 14 181.4 14.3 182.4 15.1 183.5 16.5 184.5 16.6 185.5 16.9 186.5 17.4 187.5 17.2 188.5 17 189.5 17.5 190.5 17.8 191.5 17.4 192.5 17.7 193.5 16.6 194.5 16.2 195.6 16.3 196.6 16.5 197.6 17.2 198.6 16.8 199.6 16 200.6 16 201.6 15.7 202.6 16.2 203.6 16.7 204.6 15.9 205.6 15.6 206.6 15.9 207.6 16 208.7 15.5 209.7 14.9 210.7 15.3 211.7 14.1 212.7 14.7 213.7 14 214.7 13.3 215.7 13.4 216.7 13.2 217.7 12.5 218.7 12.9 219.7 13.4 220.8 13.7 221.8 12.8 222.8 13.3 223.8 13.7 224.8 14.8 225.8 14.2 226.8 13.9 227.8 14.1 228.8 13.7 229.8 14.6 230.8 14.2 231.8 15.3 232.8 15.3 233.9 17 234.9 18.4 235.9 18 236.9 17.9 237.9 16.9 238.9 17.1 239.9 16.6 240.9 16.9 241.9 17.9 242.9 18.6 243.9 18.5 244.9 18.5 246 17.8 247 17.4 248 16.6 249 16.9 250 17.4 251 17.2 252 17.1 253 17 254 17.2 255 16.2 256 15.9 257 15.8 258 16.8 259.1 17.7 260.1 17.9 261.1 16.4 262.1 15.7 263.1 16.4 264.1 16 265.1 16.4 266.1 16.8 267.1 16.3 268.1 16.2 269.1 16.5 270.1 17.4 271.2 16.8 272.2 16 273.2 16.1 274.2 15.6 275.2 17.2 276.2 17.5 277.2 17.7 278.2 18.5 279.2 17.7 280.2 17.1 281.2 16.5 282.2 15.6 283.2 15.6 284.3 15.7 285.3 16.6 286.3 17.6 287.3 17.5 288.3 17.5 289.3 17.8 290.3 17.6 291.3 16.9 292.3 17.7 293.3 17.9 294.3 17.9 295.3 17.6 296.4 18.2 297.4 17.2 298.4 16.1 299.4 16 300.4 16.9 301.4 16.6 302.4 17 303.4 16.3 304.4 15.1 305.4 14.2 306.4 14.8 307.4 13.6 308.4 14.4 309.5 14.6 310.5 14.5 311.5 14.7 312.5 14.9 313.5 14.4 314.5 14.8 315.5 15.2 316.5 15.5 317.5 15.4 318.5 15.9 319.5 14.9 320.5 14.5 321.6 13.5 322.6 12.9 323.6 12.4 324.6 13.4 325.6 13.5 326.6 13.3 327.6 12.7 328.6 13.2 329.6 14.5 330.6 15.9 331.6 15.9 332.6 15.6 333.6 14.9 334.7 14.5 335.7 14.1 336.7 13.7 337.7 14.1 338.7 13.6 339.7 14.4 340.7 15.4 341.7 16.8 342.7 17.4 343.7 18.1 344.7 18.4 345.7 18.8 346.8 19 347.8 19.7 348.8 20.5 349.8 20.5 350.8 20 351.8 19.7 352.8 19 353.8 19.6 354.8 20.1 355.8 19.8 356.8 19.8 357.8 19.5 358.8 18.4 359.9 18.9 360.9 18.6 361.9 17.8 362.9 18.6 363.9 18.3 364.9 17.8 365.9 17.5 366.9 17 367.9 16.7 368.9 17.7 369.9 17.2 370.9 17.5 372 16.4 373 16.4 374 16.1 375 15.1 376 15.8 377 15.6 378 16.5 379 15.9 380 15.1 381 15.3 382 16.8 383 18 384 19.7 385.1 18.8 386.1 18.4 387.1 17.7 388.1 18.9 389.1 19.4 390.1 18.7 391.1 19.4 392.1 20.2 393.1 20.1 394.1 21.3 395.1 21.9 396.1 21.2 397.2 22.1 398.2 21.7 399.2 21.2 400.2 21.8 401.2 22 402.2 21.8 403.2 21.5 404.2 21.9 405.2 22.8 406.2 22.8 407.2 23.3 408.2 23.7 409.2 23.7 410.3 23.1 411.3 22.2 412.3 21.5 413.3 21.1 414.3 20.8 415.3 20.8 416.3 21.4 417.3 21.5 418.3 21.5 419.3 20.9 420.3 20.7 421.3 21.6 422.4 20.4 423.4 21.6 424.4 20.8 425.4 21.1 426.4 21.5 427.4 21.3 428.4 21.3 429.4 21.5 430.4 22.4 431.4 21.9 432.4 21.2 433.4 18.8 434.4 17.9 435.5 17.6 436.5 18 437.5 17.7 438.5 18.7 439.5 19.8 440.5 18.8 441.5 18.9 442.5 19.3 443.5 19 444.5 18 445.5 17.5 446.5 17.9 447.6 17.6 448.6 17.4 449.6 16.8 450.6 17.2 451.6 17 452.6 16.7 453.6 17 454.6 17.6 455.6 17.1 456.6 16.5 457.6 14.8 458.6 14.8 459.6 14.1 460.7 14.5 461.7 15 462.7 15.4 463.7 15.6 464.7 15.3 465.7 16.5 466.7 16.1 467.7 16.7 468.7 15.9 469.7 15.7 470.7 15.5 471.7 15.7 472.8 15.7 473.8 14.9 474.8 12.9 475.8 13.5 476.8 14.1 477.8 13.5 478.8 12.3 479.8 11.8" transform="matrix(1,0,0,-1,62.8,442.5)" fill="none" stroke="#8fb0f7" stroke-width="0.5"></polyline>
</g>
<g clip-path="url(#zr28-c3)">
<polyline points="0 8.6 1 8.9 2 7.4 3 7.3 4 6.8 5 6 6 6.5 7.1 5.8 8.1 6.5 9.1 7.3 10.1 8.3 11.1 7.7 12.1 7.5 13.1 7.8 14.1 8.4 15.1 7.8 16.1 7.1 17.1 7 18.1 6.7 19.2 7.2 20.2 7.8 21.2 8 22.2 7.3 23.2 7.1 24.2 8.2 25.2 8.7 26.2 9.3 27.2 8.9 28.2 8.6 29.2 8.6 30.2 7.7 31.2 7 32.3 7 33.3 8.4 34.3 8.9 35.3 8.4 36.3 8.4 37.3 8.6 38.3 9.4 39.3 9.7 40.3 8.2 41.3 8 42.3 8.9 43.3 8.4 44.4 8.8 45.4 10 46.4 9.9 47.4 11.1 48.4 11.4 49.4 11.9 50.4 11.2 51.4 12.4 52.4 13.1 53.4 13 54.4 12.5 55.4 13.1 56.4 13.5 57.5 12.1 58.5 12.4 59.5 12.3 60.5 12.5 61.5 11.9 62.5 13.1 63.5 11.7 64.5 11.9 65.5 11.3 66.5 11 67.5 12 68.5 11.6 69.6 12.6 70.6 12.1 71.6 11.7 72.6 12.6 73.6 12.9 74.6 13 75.6 12.9 76.6 13.1 77.6 13.2 78.6 12.9 79.6 12.9 80.6 12.4 81.6 12 82.7 12.1 83.7 11.5 84.7 12 85.7 12.2 86.7 11.6 87.7 12.1 88.7 14.2 89.7 14.6 90.7 14.3 91.7 14.6 92.7 14 93.7 13.7 94.8 13.7 95.8 14.5 96.8 16.1 97.8 15.9 98.8 15 99.8 14.1 100.8 14.8 101.8 15.8 102.8 16.4 103.8 14.8 104.8 15.9 105.8 15.3 106.8 14.4 107.9 14.2 108.9 14.3 109.9 14.4 110.9 14.7 111.9 14.5 112.9 13.9 113.9 15.1 114.9 15.3 115.9 15 116.9 15 117.9 14.5 118.9 14.4 120 14.7 121 15.4 122 15.1 123 15.5 124 14.2 125 13.3 126 13 127 12.5 128 13 129 13.3 130 12.5 131 12.6 132 12.1 133.1 12 134.1 12.4 135.1 12.8 136.1 13.2 137.1 12.5 138.1 12.3 139.1 13.2 140.1 13.5 141.1 14.5 142.1 13.9 143.1 14.2 144.1 15.1 145.2 14 146.2 14.4 147.2 14.8 148.2 14.8 149.2 14.5 150.2 13.5 151.2 14.3 152.2 12.6 153.2 12.9 154.2 14.2 155.2 13.6 156.2 12.3 157.2 13.7 158.3 12.9 159.3 13.6 160.3 14.5 161.3 15 162.3 15.2 163.3 14.4 164.3 14.7 165.3 15.8 166.3 15.8 167.3 15.1 168.3 14.8 169.3 15.7 170.4 16.3 171.4 15 172.4 15.4 173.4 14.5 174.4 15.1 175.4 15.4 176.4 14.7 177.4 13.6 178.4 15.3 179.4 14.1 180.4 14 181.4 14.3 182.4 15.1 183.5 16.5 184.5 16.6 185.5 16.9 186.5 17.4 187.5 17.2 188.5 17 189.5 17.5 190.5 17.8 191.5 17.4 192.5 17.7 193.5 16.6 194.5 16.2 195.6 16.3 196.6 16.5 197.6 17.2 198.6 16.8 199.6 16 200.6 16 201.6 15.7 202.6 16.2 203.6 16.7 204.6 15.9 205.6 15.6 206.6 15.9 207.6 16 208.7 15.5 209.7 14.9 210.7 15.3 211.7 14.1 212.7 14.7 213.7 14 214.7 13.3 215.7 13.4 216.7 13.2 217.7 12.5 218.7 12.9 219.7 13.4 220.8 13.7 221.8 12.8 222.8 13.3 223.8 13.7 224.8 14.8 225.8 14.2 226.8 13.9 227.8 14.1 228.8 13.7 229.8 14.6 230.8 14.2 231.8 15.3 232.8 15.3 233.9 17 234.9 18.4 235.9 18 236.9 17.9 237.9 16.9 238.9 17.1 239.9 16.6 240.9 16.9 241.9 17.9 242.9 18.6 243.9 18.5 244.9 18.5 246 17.8 247 17.4 248 16.6 249 16.9 250 17.4 251 17.2 252 17.1 253 17 254 17.2 255 16.2 256 15.9 257 15.8 258 16.8 259.1 17.7 260.1 17.9 261.1 16.4 262.1 15.7 263.1 16.4 264.1 16 265.1 16.4 266.1 16.8 267.1 16.3 268.1 16.2 269.1 16.5 270.1 17.4 271.2 16.8 272.2 16 273.2 16.1 274.2 15.6 275.2 17.2 276.2 17.5 277.2 17.7 278.2 18.5 279.2 17.7 280.2 17.1 281.2 16.5 282.2 15.6 283.2 15.6 284.3 15.7 285.3 16.6 286.3 17.6 287.3 17.5 288.3 17.5 289.3 17.8 290.3 17.6 291.3 16.9 292.3 17.7 293.3 17.9 294.3 17.9 295.3 17.6 296.4 18.2 297.4 17.2 298.4 16.1 299.4 16 300.4 16.9 301.4 16.6 302.4 17 303.4 16.3 304.4 15.1 305.4 14.2 306.4 14.8 307.4 13.6 308.4 14.4 309.5 14.6 310.5 14.5 311.5 14.7 312.5 14.9 313.5 14.4 314.5 14.8 315.5 15.2 316.5 15.5 317.5 15.4 318.5 15.9 319.5 14.9 320.5 14.5 321.6 13.5 322.6 12.9 323.6 12.4 324.6 13.4 325.6 13.5 326.6 13.3 327.6 12.7 328.6 13.2 329.6 14.5 330.6 15.9 331.6 15.9 332.6 15.6 333.6 14.9 334.7 14.5 335.7 14.1 336.7 13.7 337.7 14.1 338.7 13.6 339.7 14.4 340.7 15.4 341.7 16.8 342.7 17.4 343.7 18.1 344.7 18.4 345.7 18.8 346.8 19 347.8 19.7 348.8 20.5 349.8 20.5 350.8 20 351.8 19.7 352.8 19 353.8 19.6 354.8 20.1 355.8 19.8 356.8 19.8 357.8 19.5 358.8 18.4 359.9 18.9 360.9 18.6 361.9 17.8 362.9 18.6 363.9 18.3 364.9 17.8 365.9 17.5 366.9 17 367.9 16.7 368.9 17.7 369.9 17.2 370.9 17.5 372 16.4 373 16.4 374 16.1 375 15.1 376 15.8 377 15.6 378 16.5 379 15.9 380 15.1 381 15.3 382 16.8 383 18 384 19.7 385.1 18.8 386.1 18.4 387.1 17.7 388.1 18.9 389.1 19.4 390.1 18.7 391.1 19.4 392.1 20.2 393.1 20.1 394.1 21.3 395.1 21.9 396.1 21.2 397.2 22.1 398.2 21.7 399.2 21.2 400.2 21.8 401.2 22 402.2 21.8 403.2 21.5 404.2 21.9 405.2 22.8 406.2 22.8 407.2 23.3 408.2 23.7 409.2 23.7 410.3 23.1 411.3 22.2 412.3 21.5 413.3 21.1 414.3 20.8 415.3 20.8 416.3 21.4 417.3 21.5 418.3 21.5 419.3 20.9 420.3 20.7 421.3 21.6 422.4 20.4 423.4 21.6 424.4 20.8 425.4 21.1 426.4 21.5 427.4 21.3 428.4 21.3 429.4 21.5 430.4 22.4 431.4 21.9 432.4 21.2 433.4 18.8 434.4 17.9 435.5 17.6 436.5 18 437.5 17.7 438.5 18.7 439.5 19.8 440.5 18.8 441.5 18.9 442.5 19.3 443.5 19 444.5 18 445.5 17.5 446.5 17.9 447.6 17.6 448.6 17.4 449.6 16.8 450.6 17.2 451.6 17 452.6 16.7 453.6 17 454.6 17.6 455.6 17.1 456.6 16.5 457.6 14.8 458.6 14.8 459.6 14.1 460.7 14.5 461.7 15 462.7 15.4 463.7 15.6 464.7 15.3 465.7 16.5 466.7 16.1 467.7 16.7 468.7 15.9 469.7 15.7 470.7 15.5 471.7 15.7 472.8 15.7 473.8 14.9 474.8 12.9 475.8 13.5 476.8 14.1 477.8 13.5 478.8 12.3 479.8 11.8" transform="matrix(1,0,0,-1,62.8,442.5)" fill="none" stroke="#d2dbee" stroke-width="0.5"></polyline>
</g>
<path d="M0 0l480 0l0 30l-480 0Z" transform="matrix(1,0,0,-1,62.8,442.5)" fill="none"></path>
<path d="M0 0l48 0l0 30l-48 0Z" transform="matrix(1,0,0,-1,62.8,442.5)" fill="rgb(135,175,255)" fill-opacity="0.2"></path>
<path d="M3.5 0.5L476.5 0.5A3 3 0 0 1 479.5 3.5L479.5 26.5A3 3 0 0 1 476.5 29.5L3.5 29.5A3 3 0 0 1 0.5 26.5L0.5 3.5A3 3 0 0 1 3.5 0.5" transform="matrix(1,0,0,-1,62.8,442.5)" fill="rgb(0,0,0)" fill-opacity="0" stroke="#d2dbee"></path>
<path d="M0 29.5L48 29.5L48 34.5A2 2 0 0 1 46 36.5L2 36.5A2 2 0 0 1 0 34.5L0 29.5" transform="matrix(1,0,0,-1,62.8,442.5)" fill="#D2DBEE" fill-opacity="0.7"></path>
<path d="M-2.2 -1.7C-1.9 -1.7 -1.7 -1.5 -1.7 -1.1L-1.7 1.1C-1.7 1.5 -1.9 1.7 -2.2 1.7C-2.6 1.7 -2.8 1.5 -2.8 1.1L-2.8 -1.1C-2.8 -1.5 -2.6 -1.7 -2.2 -1.7ZM0 -1.7C0.4 -1.7 0.6 -1.5 0.6 -1.1L0.6 1.1C0.6 1.5 0.4 1.7 0 1.7C-0.4 1.7 -0.6 1.5 -0.6 1.1L-0.6 -1.1C-0.6 -1.5 -0.4 -1.7 0 -1.7ZM2.2 -1.7C2.6 -1.7 2.8 -1.5 2.8 -1.1L2.8 1.1C2.8 1.5 2.6 1.7 2.2 1.7C1.9 1.7 1.7 1.5 1.7 1.1L1.7 -1.1C1.7 -1.5 1.9 -1.7 2.2 -1.7Z" transform="matrix(1,0,0,-1,86.8,409.5)" fill="#fff"></path>
<path d="M0 1.63L0 2M0 0L0 0.38M-0.1 0.38L0.1 0.38A0.1 0.1 0 0 1 0.2 0.47L0.2 1.52A0.1 0.1 0 0 1 0.1 1.62L-0.1 1.63A0.1 0.1 0 0 1 -0.2 1.52L-0.2 0.47A0.1 0.1 0 0 1 -0.1 0.37Z" transform="matrix(15,0,0,-15,63.8,442.5)" fill="#fff" stroke="#ACB8D1" stroke-width="0.06666666666666667"></path>
<path d="M0 1.63L0 2M0 0L0 0.38M-0.1 0.38L0.1 0.38A0.1 0.1 0 0 1 0.2 0.47L0.2 1.52A0.1 0.1 0 0 1 0.1 1.62L-0.1 1.63A0.1 0.1 0 0 1 -0.2 1.52L-0.2 0.47A0.1 0.1 0 0 1 -0.1 0.37Z" transform="matrix(15,0,0,-15,109.8,442.5)" fill="#fff" stroke="#ACB8D1" stroke-width="0.06666666666666667"></path>
<path d="M-14 -15l108.8 0l0 30l-108.8 0Z" transform="translate(505.2009 15)" fill="none" stroke="#ccc" stroke-width="0"></path>
<path d="M-74.3 -5l148.6 0l0 28l-148.6 0Z" transform="translate(300 5)" fill="rgb(0,0,0)" fill-opacity="0" stroke="#ccc" stroke-width="0"></path>
<path d="M-6.5 -1.6L-0.1 4.3L6.5 -1.4M-6.5 3.8L-6.5 7.5L6.2 7.5L6.2 3.8M-0.1 4.2L-0.1 -7.5" transform="translate(505.2009 15)" fill="none" stroke="#666"></path>
<path d="M-7 0.9M4.5 -3L7.2 -3L7.2 -5.7M7 -2.6C5.9 -5.6 2.8 -7.9 -0.9 -7.5C-4.6 -7 -7.6 -3.7 -7.5 0.2M-4.5 3L-7.2 3L-7.2 5.7M-7 2.6C-5.9 5.6 -2.8 7.9 0.9 7.5C4.6 7 7.6 3.7 7.5 -0.2" transform="translate(532.1373 15)" fill="none" stroke="#666"></path>
<path d="M-7.5 -4L-0.5 -4M-4 -0.5L-4 -7.5M0.8 -4L7.5 -4L7.5 7.5L-4 7.5L-4 0.8" transform="translate(560.0952 15)" fill="none" stroke="#666"></path>
<path d="M-2.8 -7.5L-6 -4.3L-2.7 -1M-5.8 -4.3L6 -4.3L6 7.5L-5.8 7.5L-5.8 0.6" transform="translate(586.5476 15)" fill="none" stroke="#666"></path>
<text dominant-baseline="central" text-anchor="middle" style="font-size:18px;font-family:sans-serif;font-weight:bold;" xml:space="preserve" y="9" transform="translate(300 5)" fill="#464646">Large Area Chart</text>
<defs >
<clipPath id="zr28-c0">
<path d="M59 59l482 0l0 322l-482 0Z" fill="#000"></path>
</clipPath>
<linearGradient gradientUnits="objectBoundingBox" x1="0" y1="0" x2="0" y2="1" id="zr28-g0">
<stop offset="0%" stop-color="rgb(255, 158, 68)"></stop>
<stop offset="100%" stop-color="rgb(255, 70, 131)"></stop>
</linearGradient>
<clipPath id="zr28-c1">
<path d="M0 0l0 0l0 30l0 0Z" transform="matrix(1,0,0,-1,62.8,442.5)" fill="#000"></path>
</clipPath>
<clipPath id="zr28-c2">
<path d="M0 0l48 0l0 30l-48 0Z" transform="matrix(1,0,0,-1,62.8,442.5)" fill="#000"></path>
</clipPath>
<clipPath id="zr28-c3">
<path d="M48 0l432 0l0 30l-432 0Z" transform="matrix(1,0,0,-1,62.8,442.5)" fill="#000"></path>
</clipPath>
</defs>
</svg>