<svg width="600" height="450" xmlns="http://www.w3.org/2000/svg" xmlns:xlink="http://www.w3.org/1999/xlink" version="1.1" baseProfile="full" viewBox="0 0 600 450">
<rect width="600" height="450" x="0" y="0" fill="none"></rect>
<path d="M60 380.5L540 380.5" fill="transparent" stroke="#E0E6F1" class="zr35-cls-175"></path>
<path d="M60 300.5L540 300.5" fill="transparent" stroke="#E0E6F1" class="zr35-cls-175"></path>
<path d="M60 220.5L540 220.5" fill="transparent" stroke="#E0E6F1" class="zr35-cls-175"></path>
<path d="M60 140.5L540 140.5" fill="transparent" stroke="#E0E6F1" class="zr35-cls-175"></path>
<path d="M60 60.5L540 60.5" fill="transparent" stroke="#E0E6F1" class="zr35-cls-175"></path>
<path d="M60 220.5L540 220.5" fill="transparent" stroke="#6E7079" stroke-linecap="round" class="zr35-cls-175"></path>
<path d="M60.5 220L60.5 225" fill="transparent" stroke="#6E7079" class="zr35-cls-175"></path>
<path d="M138.5 220L138.5 225" fill="transparent" stroke="#6E7079" class="zr35-cls-175"></path>
<path d="M217.5 220L217.5 225" fill="transparent" stroke="#6E7079" class="zr35-cls-175"></path>
<path d="M296.5 220L296.5 225" fill="transparent" stroke="#6E7079" class="zr35-cls-175"></path>
<path d="M375.5 220L375.5 225" fill="transparent" stroke="#6E7079" class="zr35-cls-175"></path>
<path d="M453.5 220L453.5 225" fill="transparent" stroke="#6E7079" class="zr35-cls-175"></path>
<path d="M532.5 220L532.5 225" fill="transparent" stroke="#6E7079" class="zr35-cls-175"></path>
<text dominant-baseline="central" text-anchor="end" style="font-size:12px;font-family:sans-serif;" transform="translate(52 380)" fill="#6E7079">-200</text>
<text dominant-baseline="central" text-anchor="end" style="font-size:12px;font-family:sans-serif;" transform="translate(52 300)" fill="#6E7079">-100</text>
<text dominant-baseline="central" text-anchor="end" style="font-size:12px;font-family:sans-serif;" transform="translate(52 220)" fill="#6E7079">0</text>
<text dominant-baseline="central" text-anchor="end" style="font-size:12px;font-family:sans-serif;" transform="translate(52 140)" fill="#6E7079">100</text>
<text dominant-baseline="central" text-anchor="end" style="font-size:12px;font-family:sans-serif;" transform="translate(52 60)" fill="#6E7079">200</text>
<text dominant-baseline="central" text-anchor="middle" style="font-size:12px;font-family:sans-serif;" y="6" transform="translate(60 388)" fill="#6E7079">1968/09/04</text>
<text dominant-baseline="central" text-anchor="middle" style="font-size:12px;font-family:sans-serif;" y="6" transform="translate(138.72 388)" fill="#6E7079">1969/07/29</text>
<text dominant-baseline="central" text-anchor="middle" style="font-size:12px;font-family:sans-serif;" y="6" transform="translate(217.44 388)" fill="#6E7079">1970/06/22</text>
<text dominant-baseline="central" text-anchor="middle" style="font-size:12px;font-family:sans-serif;" y="6" transform="translate(296.16 388)" fill="#6E7079">1971/05/16</text>
<text dominant-baseline="central" text-anchor="middle" style="font-size:12px;font-family:sans-serif;" y="6" transform="translate(374.88 388)" fill="#6E7079">1972/04/08</text>
<text dominant-baseline="central" text-anchor="middle" style="font-size:12px;font-family:sans-serif;" y="6" transform="translate(453.6 388)" fill="#6E7079">1973/03/02</text>
<text dominant-baseline="central" text-anchor="middle" style="font-size:12px;font-family:sans-serif;" y="6" transform="translate(532.32 388)" fill="#6E7079">1974/01/24</text>
<g clip-path="url(#zr35-c0)">
<path d="M60 92L60.2 99.8L60.5 97.9L60.7 104.9L61 111.3L61.2 105L61.4 100.4L61.7 104.6L61.9 105.9L62.4 112.7L62.6 118.2L62.9 113.3L63.1 115.3L63.4 121.7L63.6 123.9L64.3 115.8L64.6 120.8L64.8 117.5L65 113.5L65.3 116.3L65.5 124.1L65.8 127.3L66 133.5L66.2 137L66.5 144L66.7 141.5L67 144L67.2 137L67.4 143.1L67.7 148.9L68.2 142.3L68.4 140.7L68.9 147.4L69.1 150.2L69.4 158L69.6 164L69.8 171L70.1 175L70.3 177.9L70.8 178.7L71 175.3L71.3 180.3L71.5 181.3L71.8 183.7L72 179.6L72.2 185.1L72.5 193L72.7 198.5L73.2 193L73.4 185.8L73.7 180.4L73.9 188.1L74.2 184.3L74.4 189.5L74.6 191.6L74.9 185.6L75.1 181.9L75.4 189.1L75.6 194.4L75.8 199.1L76.1 203.7L76.3 201.5L76.6 204.2L76.8 196.4L77 204.1L77.3 201.2L77.5 207.2L77.8 214.8L78 214.1L78.2 215.7L78.5 218.6L78.7 219.9L79 217L79.4 211.9L79.7 216.5L79.9 223.1L80.2 226.9L80.4 225.5L80.6 227.3L80.9 234.8L81.1 241.7L81.4 242.5L81.6 240.5L81.8 239L82.1 234.5L82.3 238.9L82.6 234L82.8 228.9L83 221.3L83.3 226L83.5 228.5L83.8 229.3L84 235.9L84.2 238.5L84.5 234.4L84.7 235.1L85 235.9L85.2 238.6L85.4 231L85.7 232.8L85.9 225.2L86.2 223.6L86.4 215.9L86.6 210.6L86.9 207.2L87.1 201.3L87.4 198.6L87.8 192.2L88.3 193.8L88.6 199.6L88.8 203.7L89.3 197L89.5 197.8L89.8 196.6L90 195.6L90.5 201L90.7 204.9L91 208.1L91.2 209.4L91.4 202.8L91.7 197.7L91.9 198.7L92.2 200.9L92.4 206.1L92.6 208.2L92.9 215L93.1 219.3L93.4 221.5L93.6 223.4L93.8 226.2L94.1 218.6L94.3 216.5L94.6 215.7L94.8 218.9L95 219.8L95.3 212.4L95.5 211.5L95.8 213.4L96 214.9L96.2 207.4L96.5 201.2L96.7 198.6L97 194.4L97.2 192.8L97.4 188.9L97.7 189.9L97.9 195.2L98.2 190.1L98.4 189.1L98.6 192.6L99.1 196.1L99.4 201.3L99.6 205.7L99.8 206.9L100.1 210.4L100.3 204.6L100.6 203.8L100.8 201.8L101 199.2L101.3 204.5L101.8 202.5L102 206L102.2 208.4L102.5 214.1L102.7 208.9L103 211.2L103.2 205.4L103.4 202L103.9 201L104.2 199.1L104.4 203.6L104.6 209.8L104.9 212.4L105.4 208.8L105.6 213.7L105.8 208.8L106.1 216.3L106.3 218.1L106.6 221.8L106.8 216.7L107 213.9L107.3 211.6L107.5 212.9L107.8 208.4L108 202.2L108.2 194.7L108.7 200.4L109 207.5L109.4 215.3L109.7 213.4L109.9 211.6L110.2 217.1L110.4 219.5L110.6 215.6L110.9 208.5L111.1 210L111.4 208.2L111.6 213.1L111.8 217.6L112.1 220.5L112.3 222.9L112.6 226.1L112.8 226.9L113 225.9L113.3 219.9L113.5 226.3L113.8 233.4L114 229.1L114.2 222.2L114.5 215.9L114.7 221.8L115 223.4L115.2 217.7L115.4 223.2L115.7 226.2L115.9 225L116.2 220L116.4 221.3L116.6 218.9L117.1 226.2L117.4 232.5L117.6 230L117.8 227.4L118.1 220.2L118.3 218.6L118.6 217.9L118.8 220.5L119 215.8L119.3 213.2L119.5 215.9L119.8 211.1L120 214.5L120.2 222.5L120.5 224.7L120.7 229.6L121 222.7L121.2 225.6L121.4 222.2L121.7 228.6L121.9 222.3L122.2 224.9L122.4 218.6L122.6 216.7L122.9 220.5L123.1 219.8L123.4 214.5L123.6 207.6L123.8 202.1L124.1 196.4L124.3 202.6L124.6 205.5L124.8 199.3L125 204.7L125.3 210.8L125.5 214.9L125.8 218.1L126 214.8L126.2 211.2L126.5 203.3L126.7 211L127 217.2L127.2 213.5L127.4 219.4L127.7 212.7L127.9 207.4L128.2 209.1L128.4 210.7L128.6 214.6L128.9 208L129.1 205.2L129.4 211.4L129.6 205.4L129.8 210.6L130.1 216.8L130.3 220.7L130.6 213.7L130.8 207.1L131 210.5L131.3 213.3L131.5 219.8L131.8 212.5L132 207.8L132.2 214.3L132.5 218.7L132.7 214.7L133 221.5L133.2 214.2L133.4 207L133.7 204.7L133.9 207L134.2 213.1L134.4 215.3L134.6 214L134.9 217.4L135.1 210.5L135.4 203.8L135.6 205.4L135.8 203.3L136.1 204.2L136.3 205.4L136.6 200.3L136.8 198.3L137 196.9L137.3 204.6L137.8 200.9L138 204.6L138.2 210.7L138.5 209.2L138.7 216.2L139 221.4L139.2 223.5L139.4 216L139.7 223.6L139.9 221.5L140.2 213.8L140.4 215.1L140.6 212.9L140.9 211.8L141.4 205.1L141.6 206.4L141.8 212.7L142.1 216.5L142.3 212.3L142.6 214.1L142.8 206.3L143 204.9L143.3 201.9L143.5 203.4L143.8 207.6L144 201.1L144.2 194.8L144.5 196.9L144.7 191.5L145 188.8L145.2 187.6L145.4 185L145.7 192.3L145.9 184.5L146.2 192.2L146.6 190L146.9 183.3L147.1 186.8L147.4 192.5L147.6 190.4L147.8 183.5L148.1 189.3L148.3 197L148.6 203.2L148.8 206.8L149 211.9L149.3 206.6L149.5 202.4L149.8 204.4L150 211.2L150.2 209.1L150.5 206.9L150.7 208.4L151 206.3L151.2 208.9L151.4 209.6L151.7 215L151.9 211.9L152.2 213.8L152.4 210.1L152.6 207.6L152.9 214.7L153.1 209.1L153.4 210.1L153.6 214.1L153.8 217.5L154.1 224.9L154.3 217.6L154.8 223.6L155 227.9L155.3 233.8L155.5 236.7L155.8 240.4L156 246.8L156.2 252.3L156.5 259.6L156.7 261.4L157 268.5L157.2 274.5L157.4 278.3L157.9 273.3L158.2 278.2L158.6 282L158.9 289.4L159.1 292.1L159.4 296.1L159.6 288.2L160.1 293.5L160.3 299.1L160.6 295.6L160.8 302.2L161 306L161.3 307.4L161.5 311.9L161.8 315.3L162 307.7L162.2 302.6L162.5 300.4L162.7 304L163.2 301.5L163.4 298.7L163.7 299.5L163.9 300.7L164.2 293.1L164.4 296.2L164.6 303.9L164.9 301.1L165.1 302.6L165.4 310.1L165.6 314.9L165.8 311.5L166.1 313.2L166.3 317.2L166.6 325.1L166.8 318.8L167 317.7L167.3 313L167.5 308.4L167.8 306.4L168 307.7L168.2 300.6L168.5 306.8L168.7 313.4L169 309.9L169.2 304L169.4 308.7L169.9 312L170.2 319.1L170.4 311.3L170.6 305.4L170.9 299.5L171.1 301.1L171.4 304.8L171.6 306.6L171.8 310.5L172.3 306L172.6 311.8L173 305.8L173.8 309.2L174 315.1L174.2 309.3L174.5 315L174.7 312.8L175 313.9L175.2 310.6L175.4 302.7L175.7 306.2L175.9 302.2L176.2 310.1L176.4 304.2L176.6 300L176.9 304.7L177.1 297.9L177.4 291L177.6 297.6L177.8 290.6L178.1 286L178.3 290.9L178.6 297.3L178.8 305.2L179 297.9L179.3 301L179.5 308.6L179.8 310.7L180 317L180.2 321.6L180.5 325.7L180.7 326.8L181 329L181.2 336.7L181.4 343.7L181.7 335.9L182.2 328.1L182.4 330.1L182.6 335.8L182.9 339.6L183.1 346.2L183.4 351.1L183.6 345.3L183.8 350.3L184.1 354.3L184.3 356L184.6 359L184.8 363.8L185.3 367.9L185.8 368.8L186 364L186.2 365.6L186.5 361.2L186.7 353.9L187 347.9L187.2 344.2L187.4 346.3L187.7 342.5L187.9 335.3L188.2 328.5L188.4 335.7L188.6 336.6L188.9 332.2L189.1 330.1L189.4 324L189.6 317.1L189.8 319.7L190.1 314.8L190.3 310.4L190.6 316.5L190.8 320.1L191 324.3L191.3 331.4L191.5 323.5L191.8 330.6L192 325L192.2 320L192.5 325.4L192.7 321.7L193 325.4L193.2 322.5L193.4 326.2L193.7 322L193.9 324L194.2 316.6L194.6 322.7L194.9 319.7L195.1 313.9L195.4 320.5L195.6 313.8L195.8 312.3L196.1 315.3L196.3 318.4L196.8 324.9L197 317.3L197.3 323L197.5 327.3L197.8 319.9L198 314L198.2 317.5L198.5 315.7L198.7 312L199 316.9L199.2 320.4L199.9 321L200.2 326.4L200.4 327.8L200.6 323.7L200.9 319.5L201.1 312.5L201.4 307.5L201.6 300.7L201.8 294.3L202.1 300L202.3 293.9L202.6 287.9L202.8 294.3L203 300.9L203.3 297.7L203.5 304.2L203.8 310L204 303.3L204.2 305.8L204.5 298.2L204.7 296.4L205 303.1L205.2 302.4L205.4 307.5L205.7 312.6L205.9 308.6L206.2 302.3L206.4 294.3L206.9 291.9L207.1 299.8L207.4 306.7L207.6 314.4L207.8 321.3L208.1 328L208.3 320.9L208.6 322.8L208.8 314.8L209 315.6L209.3 308.9L209.5 310.4L209.8 312.1L210 304.9L210.2 299.6L210.7 301L211 298.8L211.2 305.9L211.4 310.5L211.7 305.5L211.9 304.1L212.2 303.3L212.4 310.7L212.9 306.1L213.1 307.7L213.8 301.2L214.1 296.4L214.3 299.2L214.6 296.5L214.8 289.5L215 291.9L215.3 293.8L215.5 289.5L215.8 284.6L216 279.1L216.7 279.3L217 277.8L217.2 280.1L217.4 284.8L217.7 290.1L217.9 294.7L218.2 298.5L218.4 300.8L218.6 305.7L218.9 299.6L219.4 300.8L219.6 303L219.8 300.2L220.1 294.5L220.3 289.5L220.6 293.8L220.8 296L221 289.3L221.5 286.4L221.8 281.9L222 284.3L222.2 290L222.5 283.2L223 290.8L223.4 290.1L223.9 292.7L224.2 285.8L224.4 280.1L224.6 278.2L224.9 285.1L225.1 287L225.4 281.9L225.6 284.1L225.8 290.9L226.1 292.1L226.3 288.2L226.6 286.3L227 285.4L227.3 290.3L227.5 283.1L227.8 288.2L228 290.3L228.2 289.3L228.5 295.1L228.7 297.7L229 302.7L229.4 296.5L229.7 289.7L229.9 293.9L230.2 297.4L230.4 295.2L230.6 291.9L230.9 297.3L231.1 303.9L231.4 304.8L231.6 305.8L231.8 303.6L232.1 297.8L232.3 290.2L232.6 288.4L232.8 281.6L233 279.7L233.3 273.4L233.5 266.6L233.8 263.7L234 270.9L234.2 278.1L234.5 285.9L234.7 293.6L235 287L235.2 280.2L235.4 276.9L235.7 278.9L235.9 282.3L236.2 289.1L236.4 290.1L236.6 282.4L236.9 275.9L237.1 270.2L237.4 267.7L237.6 274.1L237.8 281.4L238.1 282.4L238.3 279.9L238.6 284.4L238.8 278.9L239 283.1L239.3 289.4L239.5 294.2L239.8 293L240 298.9L240.2 305.7L240.7 308L241 304.2L241.2 298.6L241.4 304.1L241.7 306L241.9 300L242.2 300.9L242.4 301.8L242.6 306.2L242.9 311.8L243.1 319.4L243.4 325.7L243.6 322.7L243.8 319.1L244.1 313.8L244.3 310L244.6 313.7L245 320.6L245.3 318.6L245.5 321.9L245.8 328.6L246 320.9L246.2 320.2L246.5 314.3L246.7 318L247 312.1L247.2 306.7L247.4 313.2L247.7 315L247.9 317.2L248.2 309.7L248.4 306.3L248.6 301.5L249.1 298.4L249.4 302.5L249.6 299.8L249.8 307.7L250.1 303.9L250.3 308.7L250.6 311.6L250.8 308.5L251 303.4L251.3 297.6L251.8 289.6L252 295.4L252.2 299.5L252.5 296.8L252.7 302.7L253 297.2L253.2 304.3L253.4 301.2L253.7 297.2L253.9 298.1L254.2 290.8L254.4 294.7L254.6 297.4L254.9 289.9L255.1 287.2L255.4 279.7L255.6 281.8L255.8 283.4L256.1 288.6L256.3 295L256.6 287.7L256.8 284.9L257 285.8L257.3 291L257.5 298.8L257.8 291.5L258 283.6L258.2 278.6L258.5 281.8L258.7 287.5L259 288.2L259.2 284.6L259.4 281.8L259.7 288.5L259.9 294.4L260.2 291.3L260.4 283.3L260.6 286.9L260.9 294.8L261.1 297.3L261.4 292.9L261.6 289.8L262.1 295.7L262.3 294.4L262.6 295.6L263 298.4L263.3 300.7L263.5 303.9L263.8 307.8L264 303.5L264.2 307.9L264.5 306.2L264.7 300.9L265 308L265.2 315.1L265.4 315.8L265.7 308.1L265.9 314.3L266.2 308.9L266.4 315.6L266.6 319.4L266.9 322.5L267.1 329.3L267.4 323.1L267.6 317.6L267.8 323.5L268.1 326.3L268.3 327.8L268.6 323.4L269.3 323.1L269.5 318.6L269.8 320.1L270 324.1L270.2 330.7L270.5 336.7L270.7 330.8L271 335.8L271.2 343.3L271.4 350.3L271.7 348.8L271.9 347.9L272.2 350.9L272.4 351.7L272.6 357.8L272.9 355.5L273.1 358L273.4 360.6L273.6 368.3L273.8 371.8L274.1 364.1L274.3 358.5L274.8 355L275 349.6L275.3 342.9L275.5 336.2L275.8 331.2L276 324L276.2 330.6L276.5 328.5L276.7 326.6L277 325.2L277.2 322.7L277.4 328.4L277.7 322.9L278.2 323.7L278.4 325.8L278.6 331.5L279.1 333.4L279.4 338L279.6 339.3L279.8 334.3L280.1 340.7L280.3 348.6L280.6 347.9L280.8 351L281 358.1L281.3 353.3L281.5 355.9L281.8 357.1L282 356.1L282.2 353.3L282.5 356.3L282.7 360.8L283 363L283.2 364L283.4 358.7L283.7 361.1L283.9 357.7L284.4 360.5L284.6 361.5L284.9 368.2L285.1 364.1L285.4 371.9L285.6 368L285.8 362.6L286.1 367.3L286.3 359.8L286.8 366.5L287 364.1L287.3 362.1L287.5 365.7L287.8 369.6L288 368.3L288.2 375.4L288.5 372.6L288.7 370.2L289 362.7L289.2 360.1L289.4 363.7L289.7 356.5L290.2 352.2L290.4 351.1L290.6 355.2L290.9 356.9L291.1 351.7L291.4 353.4L291.6 346.7L291.8 344.2L292.1 348L292.3 352.1L292.6 353.7L292.8 350L293 347.9L293.3 344.5L293.5 337.4L293.8 339L294.2 335.7L294.5 338.3L294.7 332.8L295 336.3L295.2 329.5L295.4 327L295.7 328.3L295.9 321.7L296.2 318.8L296.4 311.7L296.6 305.2L296.9 308.8L297.4 311.8L297.6 306.7L297.8 307.5L298.1 313.7L298.3 312.7L298.6 319.4L298.8 322.2L299 319.8L299.3 323.4L299.5 328.6L299.8 331.7L300 328.3L300.2 321.2L300.5 313.3L300.7 309.2L301 301.5L301.2 305L301.4 307.1L301.7 313L301.9 306.6L302.2 314.1L302.4 315.8L302.6 310.6L302.9 314.8L303.1 315.8L303.4 310.3L303.6 313.4L304.1 317.4L304.3 322.1L304.6 324.4L304.8 332.2L305 337.2L305.3 335.4L305.5 342.9L305.8 339.8L306 336.3L306.2 340L306.5 334.2L306.7 327.4L307 320.4L307.2 314.4L307.4 307.8L307.7 310.5L307.9 309.6L308.2 313L308.4 317.2L308.6 320.2L308.9 326.3L309.1 331.2L309.4 336.1L309.6 332.8L309.8 329.6L310.1 330.7L310.3 328.6L310.6 327.4L310.8 333.8L311 333.1L311.3 338.8L311.5 336.9L311.8 335.1L312 329.2L312.2 325.4L312.5 332L312.7 330L313 323.1L313.2 319.6L313.4 313.7L313.7 311.5L313.9 318L314.2 312.2L314.6 315.2L314.9 307.4L315.1 315.2L315.4 319.3L315.6 317.4L315.8 314.6L316.1 307.3L316.3 301.3L316.6 294.6L316.8 290.9L317 286L317.3 291.4L317.5 289.3L317.8 285L318 282.1L318.2 288.6L318.5 296.1L318.7 297.9L319 294L319.2 299.9L319.4 301.7L319.7 303.5L319.9 301.2L320.4 307L320.6 314.2L320.9 310.6L321.1 312.6L321.4 308.2L321.6 303.4L321.8 297.4L322.1 290.5L322.3 282.7L322.6 281.5L322.8 275.4L323 280.6L323.3 285.6L323.5 279L323.8 281.5L324 288.1L324.2 293.5L324.5 299.9L324.7 293.5L325 289.7L325.7 287.6L325.9 286.6L326.4 289.6L326.6 284.4L326.9 287L327.1 284.4L327.4 281.3L327.6 288.6L327.8 284.7L328.1 285.5L328.3 280.9L328.6 287.4L328.8 283.8L329 285.4L329.3 287.3L329.5 292.4L329.8 284.8L330 281L330.2 282.8L330.5 283.7L330.7 285L331 283.3L331.4 280.7L331.7 281.5L331.9 274L332.2 280.3L332.4 285.5L332.6 287.9L332.9 287.1L333.1 289L333.4 296.9L333.6 299.1L333.8 294.9L334.1 290.1L334.3 286.5L334.6 279L334.8 282.3L335 278L335.3 271.6L335.5 265.3L335.8 270.7L336 269.7L336.2 266.8L336.5 271.7L336.7 265.3L337 258.1L337.4 255.7L337.7 262.5L337.9 261.3L338.2 265.1L338.4 263.8L338.6 266.2L338.9 264.6L339.1 260.9L339.4 265.8L339.6 263.8L339.8 257.6L340.1 262.7L340.3 265.2L340.6 273.2L340.8 270.2L341 274.9L341.3 275.8L341.5 274.1L342 278.1L342.2 282.9L342.5 286.3L342.7 283L343 278.2L343.2 270.8L343.4 264.4L343.9 268.6L344.2 265.4L344.4 257.9L344.6 256.6L344.9 251L345.1 247.3L345.6 254.4L345.8 248.3L346.1 242.2L346.3 240.3L346.8 243L347 249.2L347.3 246.8L347.5 253.1L347.8 258.6L348 266.2L348.2 262.4L348.7 270L349.2 266.4L349.4 264.4L349.7 270.6L349.9 277L350.2 275.5L350.4 281.6L350.6 278.4L351.1 283.9L351.4 290.8L351.6 296.5L351.8 299.3L352.1 305.3L352.3 300.8L352.6 295.7L352.8 293.2L353 298.2L353.3 299.8L353.5 295.5L353.8 292.1L354 297.2L354.2 293.1L354.5 285.1L354.7 281.8L355 283.9L355.2 282.7L355.4 286.7L355.9 294.7L356.2 298.3L356.4 303.1L356.6 300.3L356.9 294L357.1 300.1L357.4 297.9L357.6 295.5L357.8 299.1L358.1 295.2L358.3 296.9L358.6 293.5L358.8 297.3L359 296.4L359.3 294.8L359.5 293.7L359.8 295.8L360 301.5L360.2 306.3L360.7 308.9L361 306.1L361.2 300.3L361.4 295.5L361.7 303.3L361.9 298.7L362.2 296.2L362.4 292.1L362.9 287.8L363.1 294.3L363.4 286.8L363.6 291.4L363.8 296.6L364.1 290.1L364.3 291.1L364.6 296.5L364.8 294.1L365.3 298.9L365.5 294.7L365.8 289L366 293.2L366.2 287.3L366.7 281.2L367 273.6L367.2 281.3L367.4 279.3L367.7 277.4L367.9 274.4L368.2 271.9L368.4 277.6L368.6 280.6L368.9 278.7L369.1 275.4L369.4 268L369.6 271.4L369.8 267.7L370.1 274L370.3 268L370.8 266.9L371 273.2L371.3 265.7L371.5 261.8L372 260.3L372.2 253.6L372.5 249.4L373 256.5L373.2 254.4L373.4 247.9L373.9 254.5L374.2 251.8L374.4 246.6L374.6 239.4L374.9 241.8L375.1 237.3L375.4 235.1L375.6 236.3L375.8 242.8L376.1 237.8L376.3 244.3L376.6 250.2L376.8 243.8L377 238.5L377.5 237.5L377.8 243.2L378.2 247.5L378.5 254.3L378.7 256.2L379 258.9L379.2 254.1L379.4 246.2L379.7 243.8L379.9 241.3L380.2 245.6L380.4 244.3L380.6 251.2L380.9 250.1L381.1 245.4L381.6 252.6L381.8 248.5L382.1 244L382.3 247L382.6 241.4L382.8 236L383.3 233.2L383.5 237.6L383.8 238.4L384 230.7L384.2 232.8L384.5 226.7L384.7 233.3L385 240.1L385.2 247.5L385.4 249.7L385.9 254.2L386.2 260L386.4 257.9L386.6 250.3L386.9 245.7L387.1 238.6L387.4 237.8L387.6 242.3L387.8 249.1L388.1 243.7L388.3 237L388.6 232.4L388.8 225.9L389 227.2L389.3 223.6L389.5 221.6L389.8 228.8L390 232.3L390.5 226.9L390.7 225.1L391 223L391.2 226.6L391.4 229.4L391.7 226.1L391.9 232.5L392.2 231L392.4 229L392.6 226.3L392.9 220.3L393.4 216.7L393.6 211L393.8 216.8L394.1 213.4L394.3 218.1L394.6 211.2L394.8 212.9L395 209L395.3 203.4L395.5 199L395.8 195.9L396 202.7L396.2 195.8L396.5 203.6L397 203L397.2 198.7L397.4 193.9L397.7 201L397.9 204L398.4 204.7L398.9 205.3L399.4 200.7L399.6 208.5L399.8 205.4L400.1 198.2L400.3 190.7L400.6 182.7L400.8 183.5L401 184.5L401.3 178.9L401.5 175.8L401.8 170.1L402 175.5L402.2 169.2L402.5 162.8L402.7 158.4L403 150.8L403.2 143.7L403.4 140L403.7 147.9L403.9 151.6L404.2 148.5L404.4 154.4L404.6 158.3L404.9 151.8L405.1 153.8L405.4 161.1L405.6 164L406.1 171L406.3 172.3L406.6 169L406.8 175.1L407 182.5L407.3 179.3L407.8 181.7L408.2 185.4L408.7 186.4L409 178.4L409.2 171.1L409.4 165.8L409.7 161.8L409.9 168.8L410.2 175.4L410.4 168.7L410.6 171.8L410.9 170.9L411.4 172.8L411.6 168.7L411.8 168L412.1 165.2L412.3 161.1L412.6 164L412.8 168.3L413 166.9L413.3 169.6L413.5 162.8L413.8 158.5L414 153.2L414.5 157.2L414.7 156.5L415 160.2L415.4 157.1L415.9 165.3L416.2 170.6L416.4 167.8L416.6 165.2L416.9 162.8L417.1 155.1L417.4 155.8L417.6 158.4L417.8 153.7L418.1 155.6L418.3 161.2L418.6 164.8L418.8 158L419 155.1L419.3 147.4L419.5 145.6L419.8 146.5L420 147.4L420.2 152.2L420.5 159.3L420.7 158.6L421 159.5L421.2 167.5L421.4 171.2L422.2 177.5L422.4 183.1L422.6 187.3L422.9 185.2L423.1 187.2L423.4 195L423.6 187.6L423.8 191.1L424.1 192.4L424.3 185.1L424.6 182.6L424.8 174.6L425 179.5L425.3 180.4L425.5 175.8L425.8 180.7L426 187.6L426.2 188.4L426.5 192L426.7 195.7L427 199.3L427.2 202.7L427.7 210.2L427.9 205.8L428.2 213.2L428.4 212L428.6 218L428.9 210.2L429.1 213.2L429.4 211.2L429.6 213.3L429.8 205.7L430.1 200.5L430.3 198.5L430.6 206.3L430.8 202.9L431 204.5L431.3 208.3L431.5 206.9L431.8 212.8L432 214.4L432.2 212.9L432.5 210.2L432.7 208.7L433 215.3L433.2 218.1L433.4 210.5L433.7 203.8L433.9 209.3L434.2 216.3L434.4 214.5L434.6 206.7L434.9 205.1L435.1 207.5L435.4 209.1L435.6 202.6L435.8 209.6L436.1 206.3L436.3 212.3L436.8 205.8L437 207.3L437.3 212.1L437.5 207.6L437.8 208.6L438 211.3L438.2 218.7L438.5 216.2L438.7 209.9L439 205.1L439.2 212.8L439.4 215.9L439.7 219.7L439.9 220.6L440.2 224.6L440.6 232.5L440.9 231.7L441.1 234.5L441.4 236.1L441.6 229.9L441.8 231.9L442.1 224.5L442.6 229.1L442.8 230.7L443 236.3L443.3 240L443.5 244.6L443.8 250.3L444 252.6L444.2 246.4L444.5 243L444.7 244.3L445 241.5L445.2 244.1L445.4 241.2L445.7 237.1L445.9 233.3L446.2 237.9L446.4 231.1L446.6 224.8L446.9 226L447.1 222.2L447.4 215.1L447.6 217.9L447.8 225.2L448.1 232L448.3 227.9L448.6 227.2L448.8 233.8L449 229.6L449.3 234.8L449.5 228L449.8 223.6L450.2 220L450.5 222.4L450.7 230.1L451 225.6L451.2 227.1L451.4 232.5L451.7 236.1L451.9 232.6L452.2 240.3L452.4 246.4L452.6 239.3L452.9 232.2L453.1 239.2L453.4 240.1L453.6 235L453.8 241.3L454.1 244.7L454.3 246.4L454.6 251.5L454.8 253.9L455 256.2L455.3 250.7L455.5 243.9L455.8 250.6L456 243L456.2 247.9L456.5 241.7L456.7 247.5L457 242.7L457.2 236L457.4 230.3L457.7 226L457.9 227.2L458.4 234.9L458.9 232.7L459.1 227.8L459.4 229.3L459.6 227.2L459.8 220.1L460.1 213.9L460.3 207.9L460.6 202.5L460.8 200.6L461 208.5L461.3 205.1L461.5 203.2L461.8 199.7L462 207.3L462.2 200.1L462.5 207.9L462.7 205.2L463 209.3L463.2 214.6L463.4 218.5L463.7 221.8L463.9 213.9L464.2 208.1L464.4 214.8L464.6 209.9L464.9 202.2L465.1 209.7L465.4 205.4L465.6 206.8L465.8 203.8L466.1 196.4L466.6 197.8L466.8 204.5L467 198.8L467.5 201.5L467.8 207.1L468 204.2L468.2 205.9L468.5 207L468.7 210.6L469 213.2L469.2 208.9L469.4 205.3L469.9 207L470.2 212.7L470.4 209.8L470.6 215.9L470.9 218.5L471.1 215.9L471.4 219.2L471.6 212.6L471.8 210.1L472.1 206L472.3 212.9L472.6 207L472.8 209.7L473.3 211.4L473.5 208.3L473.8 213.6L474.2 206.3L474.5 209.1L474.7 210.1L475 217.6L475.2 214.3L475.4 211.9L475.7 216.7L475.9 211.4L476.2 203.6L476.4 204.3L476.6 198.8L476.9 201.7L477.1 200.2L477.4 203.1L477.6 210.8L477.8 203.1L478.1 196.7L478.3 203.9L478.6 198.3L478.8 200.8L479 207.6L479.3 209.5L479.5 206.2L479.8 202.9L480 209.5L480.2 214.4L480.5 211L480.7 213.6L481 208.5L481.2 212.1L481.4 219L481.7 214.8L481.9 209.6L482.2 211.5L482.4 205.2L482.6 201.6L482.9 202.7L483.4 197L483.6 191.9L483.8 188.6L484.1 187.5L484.3 188.2L484.6 195.6L484.8 203.2L485 207.4L485.3 215.4L485.5 214.6L485.8 220.1L486 213.1L486.2 209.8L486.5 212.3L486.7 206.5L487 204.3L487.2 196.4L487.4 204.3L487.7 200.3L487.9 197.3L488.4 192.5L488.6 195.3L488.9 197.4L489.1 194.2L489.4 193.2L489.6 187.1L489.8 190.1L490.1 194.3L490.3 187.6L490.8 180.2L491 185.3L491.3 178.6L491.5 182.3L491.8 177.4L492 184.5L492.2 181.1L492.5 187.6L493 195L493.2 200.7L493.4 203.5L493.7 207.9L493.9 215L494.2 211.6L494.4 208.5L494.6 207.6L495.1 201.3L495.4 204.9L495.6 199.3L495.8 204L496.1 197.4L496.3 202.1L496.6 199.9L496.8 204.1L497 203L497.3 199.5L497.5 207.4L497.8 213.5L498 218.8L498.2 216.4L498.5 219.7L498.7 222.8L499 230.3L499.4 236.6L499.7 241.9L499.9 238.3L500.2 236.8L500.4 233L500.6 229.7L500.9 227.7L501.6 227.2L501.8 228.9L502.1 225.4L502.3 219.5L502.6 211.7L502.8 207.6L503 200.1L503.3 202.3L503.5 198.8L503.8 206.8L504 198.9L504.2 199.6L504.5 201.9L504.7 203L505 201L505.2 207.7L505.4 209.3L505.7 207.7L505.9 212.3L506.2 209.3L506.4 206.8L506.6 211.2L506.9 209.9L507.4 206.2L507.6 205.4L507.8 212.1L508.1 206.7L508.3 211.2L508.6 205.9L508.8 199.4L509 206.7L509.3 201.5L509.5 197.1L509.8 202.8L510 210.6L510.2 212.2L510.5 207.7L510.7 208.8L511.2 210.6L511.4 216.6L511.7 215.9L511.9 214.8L512.2 207.4L512.4 211.1L512.9 210.2L513.1 215.8L513.4 222.1L513.6 216.3L513.8 217L514.1 220.9L514.3 225.9L514.6 221.4L514.8 224.3L515 231.6L515.3 238.7L515.8 237.9L516 237L516.2 233.6L516.7 240.8L517 239.3L517.2 244.2L517.4 242.2L517.7 249.9L517.9 257.3L518.2 258.1L518.4 260L518.6 263.7L518.9 269.5L519.1 267.1L519.4 271.8L519.6 269.7L519.8 272.7L520.1 279.4L520.3 282.4L520.8 278.9L521 273L521.3 280.5L521.5 279L521.8 274.4L522 279.4L522.2 274.1L522.5 280L522.7 282L523 286.6L523.2 289.6L523.4 295.1L523.7 292.9L523.9 289.5L524.2 296.4L524.4 293.7L524.6 296.6L524.9 295.1L525.1 289.9L525.4 292.8L525.6 297.9L525.8 298.6L526.1 301.6L526.3 295.1L526.6 287.4L526.8 280L527 282.3L527.3 289.5L527.5 285.4L527.8 290.8L528 290.1L528.2 289.4L528.5 291.9L528.7 293.8L529 295.5L529.2 298.6L529.7 304.5L529.9 306.3L530.2 307.4L530.4 311.6L530.6 317.4L530.9 309.7L531.1 307.2L531.6 301.3L531.8 307.4L532.1 303.7L532.3 301.5L532.6 300.8L532.8 306.1L533 299.5L533.3 292.8L533.5 290.7L533.8 297.7L534 303.6L534.2 296.1L534.5 289.9L535 283L535.2 276.5L535.4 279.3L535.7 277.3L535.9 285.3L536.2 281.7L536.4 283.3L536.6 276.7L536.9 283.6L537.1 290.6L537.4 285.7L537.6 282.4L537.8 280.9L538.1 285.7L538.3 291.8L538.6 286.6L538.8 280.3L539 278.6L539.3 275.7L539.5 278.5L539.8 283.6L540 281L540 220L539.3 220L538.6 220L537.8 220L537.1 220L536.4 220L535.7 220L535 220L534.2 220L533.5 220L532.8 220L532.1 220L531.4 220L530.6 220L529.9 220L529.2 220L528.5 220L527.8 220L527 220L526.3 220L525.6 220L524.9 220L524.2 220L523.4 220L522.7 220L522 220L521.3 220L520.6 220L519.8 220L519.1 220L518.4 220L517.7 220L517 220L516.2 220L515.5 220L514.8 220L514.1 220L513.4 220L512.6 220L511.9 220L511.2 220L510.5 220L509.8 220L509 220L508.3 220L507.6 220L506.9 220L506.2 220L505.4 220L504.7 220L504 220L503.3 220L502.6 220L501.8 220L501.1 220L500.4 220L499.7 220L499 220L498.2 220L497.5 220L496.8 220L496.1 220L495.4 220L494.6 220L493.9 220L493.2 220L492.5 220L491.8 220L491 220L490.3 220L489.6 220L488.9 220L488.2 220L487.4 220L486.7 220L486 220L485.3 220L484.6 220L483.8 220L483.1 220L482.4 220L481.7 220L481 220L480.2 220L479.5 220L478.8 220L478.1 220L477.4 220L476.6 220L475.9 220L475.2 220L474.5 220L473.8 220L473 220L472.3 220L471.6 220L470.9 220L470.2 220L469.4 220L468.7 220L468 220L467.3 220L466.6 220L465.8 220L465.1 220L464.4 220L463.7 220L463 220L462.2 220L461.5 220L460.8 220L460.1 220L459.4 220L458.6 220L457.9 220L457.2 220L456.5 220L455.8 220L455 220L454.3 220L453.6 220L452.9 220L452.2 220L451.4 220L450.7 220L450 220L449.3 220L448.6 220L447.8 220L447.1 220L446.4 220L445.7 220L445 220L444.2 220L443.5 220L442.8 220L442.1 220L441.4 220L440.6 220L439.9 220L439.2 220L438.5 220L437.8 220L437 220L436.3 220L435.6 220L434.9 220L434.2 220L433.4 220L432.7 220L432 220L431.3 220L430.6 220L429.8 220L429.1 220L428.4 220L427.7 220L427 220L426.2 220L425.5 220L424.8 220L424.1 220L423.4 220L422.6 220L421.9 220L421.2 220L420.5 220L419.8 220L419 220L418.3 220L417.6 220L416.9 220L416.2 220L415.4 220L414.7 220L414 220L413.3 220L412.6 220L411.8 220L411.1 220L410.4 220L409.7 220L409 220L408.2 220L407.5 220L406.8 220L406.1 220L405.4 220L404.6 220L403.9 220L403.2 220L402.5 220L401.8 220L401 220L400.3 220L399.6 220L398.9 220L398.2 220L397.4 220L396.7 220L396 220L395.3 220L394.6 220L393.8 220L393.1 220L392.4 220L391.7 220L391 220L390.2 220L389.5 220L388.8 220L388.1 220L387.4 220L386.6 220L385.9 220L385.2 220L384.5 220L383.8 220L383 220L382.3 220L381.6 220L380.9 220L380.2 220L379.4 220L378.7 220L378 220L377.3 220L376.6 220L375.8 220L375.1 220L374.4 220L373.7 220L373 220L372.2 220L371.5 220L370.8 220L370.1 220L369.4 220L368.6 220L367.9 220L367.2 220L366.5 220L365.8 220L365 220L364.3 220L363.6 220L362.9 220L362.2 220L361.4 220L360.7 220L360 220L359.3 220L358.6 220L357.8 220L357.1 220L356.4 220L355.7 220L355 220L354.2 220L353.5 220L352.8 220L352.1 220L351.4 220L350.6 220L349.9 220L349.2 220L348.5 220L347.8 220L347 220L346.3 220L345.6 220L344.9 220L344.2 220L343.4 220L342.7 220L342 220L341.3 220L340.6 220L339.8 220L339.1 220L338.4 220L337.7 220L337 220L336.2 220L335.5 220L334.8 220L334.1 220L333.4 220L332.6 220L331.9 220L331.2 220L330.5 220L329.8 220L329 220L328.3 220L327.6 220L326.9 220L326.2 220L325.4 220L324.7 220L324 220L323.3 220L322.6 220L321.8 220L321.1 220L320.4 220L319.7 220L319 220L318.2 220L317.5 220L316.8 220L316.1 220L315.4 220L314.6 220L313.9 220L313.2 220L312.5 220L311.8 220L311 220L310.3 220L309.6 220L308.9 220L308.2 220L307.4 220L306.7 220L306 220L305.3 220L304.6 220L303.8 220L303.1 220L302.4 220L301.7 220L301 220L300.2 220L299.5 220L298.8 220L298.1 220L297.4 220L296.6 220L295.9 220L295.2 220L294.5 220L293.8 220L293 220L292.3 220L291.6 220L290.9 220L290.2 220L289.4 220L288.7 220L288 220L287.3 220L286.6 220L285.8 220L285.1 220L284.4 220L283.7 220L283 220L282.2 220L281.5 220L280.8 220L280.1 220L279.4 220L278.6 220L277.9 220L277.2 220L276.5 220L275.8 220L275 220L274.3 220L273.6 220L272.9 220L272.2 220L271.4 220L270.7 220L270 220L269.3 220L268.6 220L267.8 220L267.1 220L266.4 220L265.7 220L265 220L264.2 220L263.5 220L262.8 220L262.1 220L261.4 220L260.6 220L259.9 220L259.2 220L258.5 220L257.8 220L257 220L256.3 220L255.6 220L254.9 220L254.2 220L253.4 220L252.7 220L252 220L251.3 220L250.6 220L249.8 220L249.1 220L248.4 220L247.7 220L247 220L246.2 220L245.5 220L244.8 220L244.1 220L243.4 220L242.6 220L241.9 220L241.2 220L240.5 220L239.8 220L239 220L238.3 220L237.6 220L236.9 220L236.2 220L235.4 220L234.7 220L234 220L233.3 220L232.6 220L231.8 220L231.1 220L230.4 220L229.7 220L229 220L228.2 220L227.5 220L226.8 220L226.1 220L225.4 220L224.6 220L223.9 220L223.2 220L222.5 220L221.8 220L221 220L220.3 220L219.6 220L218.9 220L218.2 220L217.4 220L216.7 220L216 220L215.3 220L214.6 220L213.8 220L213.1 220L212.4 220L211.7 220L211 220L210.2 220L209.5 220L208.8 220L208.1 220L207.4 220L206.6 220L205.9 220L205.2 220L204.5 220L203.8 220L203 220L202.3 220L201.6 220L200.9 220L200.2 220L199.4 220L198.7 220L198 220L197.3 220L196.6 220L195.8 220L195.1 220L194.4 220L193.7 220L193 220L192.2 220L191.5 220L190.8 220L190.1 220L189.4 220L188.6 220L187.9 220L187.2 220L186.5 220L185.8 220L185 220L184.3 220L183.6 220L182.9 220L182.2 220L181.4 220L180.7 220L180 220L179.3 220L178.6 220L177.8 220L177.1 220L176.4 220L175.7 220L175 220L174.2 220L173.5 220L172.8 220L172.1 220L171.4 220L170.6 220L169.9 220L169.2 220L168.5 220L167.8 220L167 220L166.3 220L165.6 220L164.9 220L164.2 220L163.4 220L162.7 220L162 220L161.3 220L160.6 220L159.8 220L159.1 220L158.4 220L157.7 220L157 220L156.2 220L155.5 220L154.8 220L154.1 220L153.4 220L152.6 220L151.9 220L151.2 220L150.5 220L149.8 220L149 220L148.3 220L147.6 220L146.9 220L146.2 220L145.4 220L144.7 220L144 220L143.3 220L142.6 220L141.8 220L141.1 220L140.4 220L139.7 220L139 220L138.2 220L137.5 220L136.8 220L136.1 220L135.4 220L134.6 220L133.9 220L133.2 220L132.5 220L131.8 220L131 220L130.3 220L129.6 220L128.9 220L128.2 220L127.4 220L126.7 220L126 220L125.3 220L124.6 220L123.8 220L123.1 220L122.4 220L121.7 220L121 220L120.2 220L119.5 220L118.8 220L118.1 220L117.4 220L116.6 220L115.9 220L115.2 220L114.5 220L113.8 220L113 220L112.3 220L111.6 220L110.9 220L110.2 220L109.4 220L108.7 220L108 220L107.3 220L106.6 220L105.8 220L105.1 220L104.4 220L103.7 220L103 220L102.2 220L101.5 220L100.8 220L100.1 220L99.4 220L98.6 220L97.9 220L97.2 220L96.5 220L95.8 220L95 220L94.3 220L93.6 220L92.9 220L92.2 220L91.4 220L90.7 220L90 220L89.3 220L88.6 220L87.8 220L87.1 220L86.4 220L85.7 220L85 220L84.2 220L83.5 220L82.8 220L82.1 220L81.4 220L80.6 220L79.9 220L79.2 220L78.5 220L77.8 220L77 220L76.3 220L75.6 220L74.9 220L74.2 220L73.4 220L72.7 220L72 220L71.3 220L70.6 220L69.8 220L69.1 220L68.4 220L67.7 220L67 220L66.2 220L65.5 220L64.8 220L64.1 220L63.4 220L62.6 220L61.9 220L61.2 220L60.5 220Z" fill="url(#zr35-g0)" fill-opacity="0.7" class="zr35-cls-177"></path>
<path d="M60 92L60.2 99.8L60.5 97.9L60.7 104.9L61 111.3L61.2 105L61.4 100.4L61.7 104.6L61.9 105.9L62.4 112.7L62.6 118.2L62.9 113.3L63.1 115.3L63.4 121.7L63.6 123.9L64.3 115.8L64.6 120.8L64.8 117.5L65 113.5L65.3 116.3L65.5 124.1L65.8 127.3L66 133.5L66.2 137L66.5 144L66.7 141.5L67 144L67.2 137L67.4 143.1L67.7 148.9L68.2 142.3L68.4 140.7L68.9 147.4L69.1 150.2L69.4 158L69.6 164L69.8 171L70.1 175L70.3 177.9L70.8 178.7L71 175.3L71.3 180.3L71.5 181.3L71.8 183.7L72 179.6L72.2 185.1L72.5 193L72.7 198.5L73.2 193L73.4 185.8L73.7 180.4L73.9 188.1L74.2 184.3L74.4 189.5L74.6 191.6L74.9 185.6L75.1 181.9L75.4 189.1L75.6 194.4L75.8 199.1L76.1 203.7L76.3 201.5L76.6 204.2L76.8 196.4L77 204.1L77.3 201.2L77.5 207.2L77.8 214.8L78 214.1L78.2 215.7L78.5 218.6L78.7 219.9L79 217L79.4 211.9L79.7 216.5L79.9 223.1L80.2 226.9L80.4 225.5L80.6 227.3L80.9 234.8L81.1 241.7L81.4 242.5L81.6 240.5L81.8 239L82.1 234.5L82.3 238.9L82.6 234L82.8 228.9L83 221.3L83.3 226L83.5 228.5L83.8 229.3L84 235.9L84.2 238.5L84.5 234.4L84.7 235.1L85 235.9L85.2 238.6L85.4 231L85.7 232.8L85.9 225.2L86.2 223.6L86.4 215.9L86.6 210.6L86.9 207.2L87.1 201.3L87.4 198.6L87.8 192.2L88.3 193.8L88.6 199.6L88.8 203.7L89.3 197L89.5 197.8L89.8 196.6L90 195.6L90.5 201L90.7 204.9L91 208.1L91.2 209.4L91.4 202.8L91.7 197.7L91.9 198.7L92.2 200.9L92.4 206.1L92.6 208.2L92.9 215L93.1 219.3L93.4 221.5L93.6 223.4L93.8 226.2L94.1 218.6L94.3 216.5L94.6 215.7L94.8 218.9L95 219.8L95.3 212.4L95.5 211.5L95.8 213.4L96 214.9L96.2 207.4L96.5 201.2L96.7 198.6L97 194.4L97.2 192.8L97.4 188.9L97.7 189.9L97.9 195.2L98.2 190.1L98.4 189.1L98.6 192.6L99.1 196.1L99.4 201.3L99.6 205.7L99.8 206.9L100.1 210.4L100.3 204.6L100.6 203.8L100.8 201.8L101 199.2L101.3 204.5L101.8 202.5L102 206L102.2 208.4L102.5 214.1L102.7 208.9L103 211.2L103.2 205.4L103.4 202L103.9 201L104.2 199.1L104.4 203.6L104.6 209.8L104.9 212.4L105.4 208.8L105.6 213.7L105.8 208.8L106.1 216.3L106.3 218.1L106.6 221.8L106.8 216.7L107 213.9L107.3 211.6L107.5 212.9L107.8 208.4L108 202.2L108.2 194.7L108.7 200.4L109 207.5L109.4 215.3L109.7 213.4L109.9 211.6L110.2 217.1L110.4 219.5L110.6 215.6L110.9 208.5L111.1 210L111.4 208.2L111.6 213.1L111.8 217.6L112.1 220.5L112.3 222.9L112.6 226.1L112.8 226.9L113 225.9L113.3 219.9L113.5 226.3L113.8 233.4L114 229.1L114.2 222.2L114.5 215.9L114.7 221.8L115 223.4L115.2 217.7L115.4 223.2L115.7 226.2L115.9 225L116.2 220L116.4 221.3L116.6 218.9L117.1 226.2L117.4 232.5L117.6 230L117.8 227.4L118.1 220.2L118.3 218.6L118.6 217.9L118.8 220.5L119 215.8L119.3 213.2L119.5 215.9L119.8 211.1L120 214.5L120.2 222.5L120.5 224.7L120.7 229.6L121 222.7L121.2 225.6L121.4 222.2L121.7 228.6L121.9 222.3L122.2 224.9L122.4 218.6L122.6 216.7L122.9 220.5L123.1 219.8L123.4 214.5L123.6 207.6L123.8 202.1L124.1 196.4L124.3 202.6L124.6 205.5L124.8 199.3L125 204.7L125.3 210.8L125.5 214.9L125.8 218.1L126 214.8L126.2 211.2L126.5 203.3L126.7 211L127 217.2L127.2 213.5L127.4 219.4L127.7 212.7L127.9 207.4L128.2 209.1L128.4 210.7L128.6 214.6L128.9 208L129.1 205.2L129.4 211.4L129.6 205.4L129.8 210.6L130.1 216.8L130.3 220.7L130.6 213.7L130.8 207.1L131 210.5L131.3 213.3L131.5 219.8L131.8 212.5L132 207.8L132.2 214.3L132.5 218.7L132.7 214.7L133 221.5L133.2 214.2L133.4 207L133.7 204.7L133.9 207L134.2 213.1L134.4 215.3L134.6 214L134.9 217.4L135.1 210.5L135.4 203.8L135.6 205.4L135.8 203.3L136.1 204.2L136.3 205.4L136.6 200.3L136.8 198.3L137 196.9L137.3 204.6L137.8 200.9L138 204.6L138.2 210.7L138.5 209.2L138.7 216.2L139 221.4L139.2 223.5L139.4 216L139.7 223.6L139.9 221.5L140.2 213.8L140.4 215.1L140.6 212.9L140.9 211.8L141.4 205.1L141.6 206.4L141.8 212.7L142.1 216.5L142.3 212.3L142.6 214.1L142.8 206.3L143 204.9L143.3 201.9L143.5 203.4L143.8 207.6L144 201.1L144.2 194.8L144.5 196.9L144.7 191.5L145 188.8L145.2 187.6L145.4 185L145.7 192.3L145.9 184.5L146.2 192.2L146.6 190L146.9 183.3L147.1 186.8L147.4 192.5L147.6 190.4L147.8 183.5L148.1 189.3L148.3 197L148.6 203.2L148.8 206.8L149 211.9L149.3 206.6L149.5 202.4L149.8 204.4L150 211.2L150.2 209.1L150.5 206.9L150.7 208.4L151 206.3L151.2 208.9L151.4 209.6L151.7 215L151.9 211.9L152.2 213.8L152.4 210.1L152.6 207.6L152.9 214.7L153.1 209.1L153.4 210.1L153.6 214.1L153.8 217.5L154.1 224.9L154.3 217.6L154.8 223.6L155 227.9L155.3 233.8L155.5 236.7L155.8 240.4L156 246.8L156.2 252.3L156.5 259.6L156.7 261.4L157 268.5L157.2 274.5L157.4 278.3L157.9 273.3L158.2 278.2L158.6 282L158.9 289.4L159.1 292.1L159.4 296.1L159.6 288.2L160.1 293.5L160.3 299.1L160.6 295.6L160.8 302.2L161 306L161.3 307.4L161.5 311.9L161.8 315.3L162 307.7L162.2 302.6L162.5 300.4L162.7 304L163.2 301.5L163.4 298.7L163.7 299.5L163.9 300.7L164.2 293.1L164.4 296.2L164.6 303.9L164.9 301.1L165.1 302.6L165.4 310.1L165.6 314.9L165.8 311.5L166.1 313.2L166.3 317.2L166.6 325.1L166.8 318.8L167 317.7L167.3 313L167.5 308.4L167.8 306.4L168 307.7L168.2 300.6L168.5 306.8L168.7 313.4L169 309.9L169.2 304L169.4 308.7L169.9 312L170.2 319.1L170.4 311.3L170.6 305.4L170.9 299.5L171.1 301.1L171.4 304.8L171.6 306.6L171.8 310.5L172.3 306L172.6 311.8L173 305.8L173.8 309.2L174 315.1L174.2 309.3L174.5 315L174.7 312.8L175 313.9L175.2 310.6L175.4 302.7L175.7 306.2L175.9 302.2L176.2 310.1L176.4 304.2L176.6 300L176.9 304.7L177.1 297.9L177.4 291L177.6 297.6L177.8 290.6L178.1 286L178.3 290.9L178.6 297.3L178.8 305.2L179 297.9L179.3 301L179.5 308.6L179.8 310.7L180 317L180.2 321.6L180.5 325.7L180.7 326.8L181 329L181.2 336.7L181.4 343.7L181.7 335.9L182.2 328.1L182.4 330.1L182.6 335.8L182.9 339.6L183.1 346.2L183.4 351.1L183.6 345.3L183.8 350.3L184.1 354.3L184.3 356L184.6 359L184.8 363.8L185.3 367.9L185.8 368.8L186 364L186.2 365.6L186.5 361.2L186.7 353.9L187 347.9L187.2 344.2L187.4 346.3L187.7 342.5L187.9 335.3L188.2 328.5L188.4 335.7L188.6 336.6L188.9 332.2L189.1 330.1L189.4 324L189.6 317.1L189.8 319.7L190.1 314.8L190.3 310.4L190.6 316.5L190.8 320.1L191 324.3L191.3 331.4L191.5 323.5L191.8 330.6L192 325L192.2 320L192.5 325.4L192.7 321.7L193 325.4L193.2 322.5L193.4 326.2L193.7 322L193.9 324L194.2 316.6L194.6 322.7L194.9 319.7L195.1 313.9L195.4 320.5L195.6 313.8L195.8 312.3L196.1 315.3L196.3 318.4L196.8 324.9L197 317.3L197.3 323L197.5 327.3L197.8 319.9L198 314L198.2 317.5L198.5 315.7L198.7 312L199 316.9L199.2 320.4L199.9 321L200.2 326.4L200.4 327.8L200.6 323.7L200.9 319.5L201.1 312.5L201.4 307.5L201.6 300.7L201.8 294.3L202.1 300L202.3 293.9L202.6 287.9L202.8 294.3L203 300.9L203.3 297.7L203.5 304.2L203.8 310L204 303.3L204.2 305.8L204.5 298.2L204.7 296.4L205 303.1L205.2 302.4L205.4 307.5L205.7 312.6L205.9 308.6L206.2 302.3L206.4 294.3L206.9 291.9L207.1 299.8L207.4 306.7L207.6 314.4L207.8 321.3L208.1 328L208.3 320.9L208.6 322.8L208.8 314.8L209 315.6L209.3 308.9L209.5 310.4L209.8 312.1L210 304.9L210.2 299.6L210.7 301L211 298.8L211.2 305.9L211.4 310.5L211.7 305.5L211.9 304.1L212.2 303.3L212.4 310.7L212.9 306.1L213.1 307.7L213.8 301.2L214.1 296.4L214.3 299.2L214.6 296.5L214.8 289.5L215 291.9L215.3 293.8L215.5 289.5L215.8 284.6L216 279.1L216.7 279.3L217 277.8L217.2 280.1L217.4 284.8L217.7 290.1L217.9 294.7L218.2 298.5L218.4 300.8L218.6 305.7L218.9 299.6L219.4 300.8L219.6 303L219.8 300.2L220.1 294.5L220.3 289.5L220.6 293.8L220.8 296L221 289.3L221.5 286.4L221.8 281.9L222 284.3L222.2 290L222.5 283.2L223 290.8L223.4 290.1L223.9 292.7L224.2 285.8L224.4 280.1L224.6 278.2L224.9 285.1L225.1 287L225.4 281.9L225.6 284.1L225.8 290.9L226.1 292.1L226.3 288.2L226.6 286.3L227 285.4L227.3 290.3L227.5 283.1L227.8 288.2L228 290.3L228.2 289.3L228.5 295.1L228.7 297.7L229 302.7L229.4 296.5L229.7 289.7L229.9 293.9L230.2 297.4L230.4 295.2L230.6 291.9L230.9 297.3L231.1 303.9L231.4 304.8L231.6 305.8L231.8 303.6L232.1 297.8L232.3 290.2L232.6 288.4L232.8 281.6L233 279.7L233.3 273.4L233.5 266.6L233.8 263.7L234 270.9L234.2 278.1L234.5 285.9L234.7 293.6L235 287L235.2 280.2L235.4 276.9L235.7 278.9L235.9 282.3L236.2 289.1L236.4 290.1L236.6 282.4L236.9 275.9L237.1 270.2L237.4 267.7L237.6 274.1L237.8 281.4L238.1 282.4L238.3 279.9L238.6 284.4L238.8 278.9L239 283.1L239.3 289.4L239.5 294.2L239.8 293L240 298.9L240.2 305.7L240.7 308L241 304.2L241.2 298.6L241.4 304.1L241.7 306L241.9 300L242.2 300.9L242.4 301.8L242.6 306.2L242.9 311.8L243.1 319.4L243.4 325.7L243.6 322.7L243.8 319.1L244.1 313.8L244.3 310L244.6 313.7L245 320.6L245.3 318.6L245.5 321.9L245.8 328.6L246 320.9L246.2 320.2L246.5 314.3L246.7 318L247 312.1L247.2 306.7L247.4 313.2L247.7 315L247.9 317.2L248.2 309.7L248.4 306.3L248.6 301.5L249.1 298.4L249.4 302.5L249.6 299.8L249.8 307.7L250.1 303.9L250.3 308.7L250.6 311.6L250.8 308.5L251 303.4L251.3 297.6L251.8 289.6L252 295.4L252.2 299.5L252.5 296.8L252.7 302.7L253 297.2L253.2 304.3L253.4 301.2L253.7 297.2L253.9 298.1L254.2 290.8L254.4 294.7L254.6 297.4L254.9 289.9L255.1 287.2L255.4 279.7L255.6 281.8L255.8 283.4L256.1 288.6L256.3 295L256.6 287.7L256.8 284.9L257 285.8L257.3 291L257.5 298.8L257.8 291.5L258 283.6L258.2 278.6L258.5 281.8L258.7 287.5L259 288.2L259.2 284.6L259.4 281.8L259.7 288.5L259.9 294.4L260.2 291.3L260.4 283.3L260.6 286.9L260.9 294.8L261.1 297.3L261.4 292.9L261.6 289.8L262.1 295.7L262.3 294.4L262.6 295.6L263 298.4L263.3 300.7L263.5 303.9L263.8 307.8L264 303.5L264.2 307.9L264.5 306.2L264.7 300.9L265 308L265.2 315.1L265.4 315.8L265.7 308.1L265.9 314.3L266.2 308.9L266.4 315.6L266.6 319.4L266.9 322.5L267.1 329.3L267.4 323.1L267.6 317.6L267.8 323.5L268.1 326.3L268.3 327.8L268.6 323.4L269.3 323.1L269.5 318.6L269.8 320.1L270 324.1L270.2 330.7L270.5 336.7L270.7 330.8L271 335.8L271.2 343.3L271.4 350.3L271.7 348.8L271.9 347.9L272.2 350.9L272.4 351.7L272.6 357.8L272.9 355.5L273.1 358L273.4 360.6L273.6 368.3L273.8 371.8L274.1 364.1L274.3 358.5L274.8 355L275 349.6L275.3 342.9L275.5 336.2L275.8 331.2L276 324L276.2 330.6L276.5 328.5L276.7 326.6L277 325.2L277.2 322.7L277.4 328.4L277.7 322.9L278.2 323.7L278.4 325.8L278.6 331.5L279.1 333.4L279.4 338L279.6 339.3L279.8 334.3L280.1 340.7L280.3 348.6L280.6 347.9L280.8 351L281 358.1L281.3 353.3L281.5 355.9L281.8 357.1L282 356.1L282.2 353.3L282.5 356.3L282.7 360.8L283 363L283.2 364L283.4 358.7L283.7 361.1L283.9 357.7L284.4 360.5L284.6 361.5L284.9 368.2L285.1 364.1L285.4 371.9L285.6 368L285.8 362.6L286.1 367.3L286.3 359.8L286.8 366.5L287 364.1L287.3 362.1L287.5 365.7L287.8 369.6L288 368.3L288.2 375.4L288.5 372.6L288.7 370.2L289 362.7L289.2 360.1L289.4 363.7L289.7 356.5L290.2 352.2L290.4 351.1L290.6 355.2L290.9 356.9L291.1 351.7L291.4 353.4L291.6 346.7L291.8 344.2L292.1 348L292.3 352.1L292.6 353.7L292.8 350L293 347.9L293.3 344.5L293.5 337.4L293.8 339L294.2 335.7L294.5 338.3L294.7 332.8L295 336.3L295.2 329.5L295.4 327L295.7 328.3L295.9 321.7L296.2 318.8L296.4 311.7L296.6 305.2L296.9 308.8L297.4 311.8L297.6 306.7L297.8 307.5L298.1 313.7L298.3 312.7L298.6 319.4L298.8 322.2L299 319.8L299.3 323.4L299.5 328.6L299.8 331.7L300 328.3L300.2 321.2L300.5 313.3L300.7 309.2L301 301.5L301.2 305L301.4 307.1L301.7 313L301.9 306.6L302.2 314.1L302.4 315.8L302.6 310.6L302.9 314.8L303.1 315.8L303.4 310.3L303.6 313.4L304.1 317.4L304.3 322.1L304.6 324.4L304.8 332.2L305 337.2L305.3 335.4L305.5 342.9L305.8 339.8L306 336.3L306.2 340L306.5 334.2L306.7 327.4L307 320.4L307.2 314.4L307.4 307.8L307.7 310.5L307.9 309.6L308.2 313L308.4 317.2L308.6 320.2L308.9 326.3L309.1 331.2L309.4 336.1L309.6 332.8L309.8 329.6L310.1 330.7L310.3 328.6L310.6 327.4L310.8 333.8L311 333.1L311.3 338.8L311.5 336.9L311.8 335.1L312 329.2L312.2 325.4L312.5 332L312.7 330L313 323.1L313.2 319.6L313.4 313.7L313.7 311.5L313.9 318L314.2 312.2L314.6 315.2L314.9 307.4L315.1 315.2L315.4 319.3L315.6 317.4L315.8 314.6L316.1 307.3L316.3 301.3L316.6 294.6L316.8 290.9L317 286L317.3 291.4L317.5 289.3L317.8 285L318 282.1L318.2 288.6L318.5 296.1L318.7 297.9L319 294L319.2 299.9L319.4 301.7L319.7 303.5L319.9 301.2L320.4 307L320.6 314.2L320.9 310.6L321.1 312.6L321.4 308.2L321.6 303.4L321.8 297.4L322.1 290.5L322.3 282.7L322.6 281.5L322.8 275.4L323 280.6L323.3 285.6L323.5 279L323.8 281.5L324 288.1L324.2 293.5L324.5 299.9L324.7 293.5L325 289.7L325.7 287.6L325.9 286.6L326.4 289.6L326.6 284.4L326.9 287L327.1 284.4L327.4 281.3L327.6 288.6L327.8 284.7L328.1 285.5L328.3 280.9L328.6 287.4L328.8 283.8L329 285.4L329.3 287.3L329.5 292.4L329.8 284.8L330 281L330.2 282.8L330.5 283.7L330.7 285L331 283.3L331.4 280.7L331.7 281.5L331.9 274L332.2 280.3L332.4 285.5L332.6 287.9L332.9 287.1L333.1 289L333.4 296.9L333.6 299.1L333.8 294.9L334.1 290.1L334.3 286.5L334.6 279L334.8 282.3L335 278L335.3 271.6L335.5 265.3L335.8 270.7L336 269.7L336.2 266.8L336.5 271.7L336.7 265.3L337 258.1L337.4 255.7L337.7 262.5L337.9 261.3L338.2 265.1L338.4 263.8L338.6 266.2L338.9 264.6L339.1 260.9L339.4 265.8L339.6 263.8L339.8 257.6L340.1 262.7L340.3 265.2L340.6 273.2L340.8 270.2L341 274.9L341.3 275.8L341.5 274.1L342 278.1L342.2 282.9L342.5 286.3L342.7 283L343 278.2L343.2 270.8L343.4 264.4L343.9 268.6L344.2 265.4L344.4 257.9L344.6 256.6L344.9 251L345.1 247.3L345.6 254.4L345.8 248.3L346.1 242.2L346.3 240.3L346.8 243L347 249.2L347.3 246.8L347.5 253.1L347.8 258.6L348 266.2L348.2 262.4L348.7 270L349.2 266.4L349.4 264.4L349.7 270.6L349.9 277L350.2 275.5L350.4 281.6L350.6 278.4L351.1 283.9L351.4 290.8L351.6 296.5L351.8 299.3L352.1 305.3L352.3 300.8L352.6 295.7L352.8 293.2L353 298.2L353.3 299.8L353.5 295.5L353.8 292.1L354 297.2L354.2 293.1L354.5 285.1L354.7 281.8L355 283.9L355.2 282.7L355.4 286.7L355.9 294.7L356.2 298.3L356.4 303.1L356.6 300.3L356.9 294L357.1 300.1L357.4 297.9L357.6 295.5L357.8 299.1L358.1 295.2L358.3 296.9L358.6 293.5L358.8 297.3L359 296.4L359.3 294.8L359.5 293.7L359.8 295.8L360 301.5L360.2 306.3L360.7 308.9L361 306.1L361.2 300.3L361.4 295.5L361.7 303.3L361.9 298.7L362.2 296.2L362.4 292.1L362.9 287.8L363.1 294.3L363.4 286.8L363.6 291.4L363.8 296.6L364.1 290.1L364.3 291.1L364.6 296.5L364.8 294.1L365.3 298.9L365.5 294.7L365.8 289L366 293.2L366.2 287.3L366.7 281.2L367 273.6L367.2 281.3L367.4 279.3L367.7 277.4L367.9 274.4L368.2 271.9L368.4 277.6L368.6 280.6L368.9 278.7L369.1 275.4L369.4 268L369.6 271.4L369.8 267.7L370.1 274L370.3 268L370.8 266.9L371 273.2L371.3 265.7L371.5 261.8L372 260.3L372.2 253.6L372.5 249.4L373 256.5L373.2 254.4L373.4 247.9L373.9 254.5L374.2 251.8L374.4 246.6L374.6 239.4L374.9 241.8L375.1 237.3L375.4 235.1L375.6 236.3L375.8 242.8L376.1 237.8L376.3 244.3L376.6 250.2L376.8 243.8L377 238.5L377.5 237.5L377.8 243.2L378.2 247.5L378.5 254.3L378.7 256.2L379 258.9L379.2 254.1L379.4 246.2L379.7 243.8L379.9 241.3L380.2 245.6L380.4 244.3L380.6 251.2L380.9 250.1L381.1 245.4L381.6 252.6L381.8 248.5L382.1 244L382.3 247L382.6 241.4L382.8 236L383.3 233.2L383.5 237.6L383.8 238.4L384 230.7L384.2 232.8L384.5 226.7L384.7 233.3L385 240.1L385.2 247.5L385.4 249.7L385.9 254.2L386.2 260L386.4 257.9L386.6 250.3L386.9 245.7L387.1 238.6L387.4 237.8L387.6 242.3L387.8 249.1L388.1 243.7L388.3 237L388.6 232.4L388.8 225.9L389 227.2L389.3 223.6L389.5 221.6L389.8 228.8L390 232.3L390.5 226.9L390.7 225.1L391 223L391.2 226.6L391.4 229.4L391.7 226.1L391.9 232.5L392.2 231L392.4 229L392.6 226.3L392.9 220.3L393.4 216.7L393.6 211L393.8 216.8L394.1 213.4L394.3 218.1L394.6 211.2L394.8 212.9L395 209L395.3 203.4L395.5 199L395.8 195.9L396 202.7L396.2 195.8L396.5 203.6L397 203L397.2 198.7L397.4 193.9L397.7 201L397.9 204L398.4 204.7L398.9 205.3L399.4 200.7L399.6 208.5L399.8 205.4L400.1 198.2L400.3 190.7L400.6 182.7L400.8 183.5L401 184.5L401.3 178.9L401.5 175.8L401.8 170.1L402 175.5L402.2 169.2L402.5 162.8L402.7 158.4L403 150.8L403.2 143.7L403.4 140L403.7 147.9L403.9 151.6L404.2 148.5L404.4 154.4L404.6 158.3L404.9 151.8L405.1 153.8L405.4 161.1L405.6 164L406.1 171L406.3 172.3L406.6 169L406.8 175.1L407 182.5L407.3 179.3L407.8 181.7L408.2 185.4L408.7 186.4L409 178.4L409.2 171.1L409.4 165.8L409.7 161.8L409.9 168.8L410.2 175.4L410.4 168.7L410.6 171.8L410.9 170.9L411.4 172.8L411.6 168.7L411.8 168L412.1 165.2L412.3 161.1L412.6 164L412.8 168.3L413 166.9L413.3 169.6L413.5 162.8L413.8 158.5L414 153.2L414.5 157.2L414.7 156.5L415 160.2L415.4 157.1L415.9 165.3L416.2 170.6L416.4 167.8L416.6 165.2L416.9 162.8L417.1 155.1L417.4 155.8L417.6 158.4L417.8 153.7L418.1 155.6L418.3 161.2L418.6 164.8L418.8 158L419 155.1L419.3 147.4L419.5 145.6L419.8 146.5L420 147.4L420.2 152.2L420.5 159.3L420.7 158.6L421 159.5L421.2 167.5L421.4 171.2L422.2 177.5L422.4 183.1L422.6 187.3L422.9 185.2L423.1 187.2L423.4 195L423.6 187.6L423.8 191.1L424.1 192.4L424.3 185.1L424.6 182.6L424.8 174.6L425 179.5L425.3 180.4L425.5 175.8L425.8 180.7L426 187.6L426.2 188.4L426.5 192L426.7 195.7L427 199.3L427.2 202.7L427.7 210.2L427.9 205.8L428.2 213.2L428.4 212L428.6 218L428.9 210.2L429.1 213.2L429.4 211.2L429.6 213.3L429.8 205.7L430.1 200.5L430.3 198.5L430.6 206.3L430.8 202.9L431 204.5L431.3 208.3L431.5 206.9L431.8 212.8L432 214.4L432.2 212.9L432.5 210.2L432.7 208.7L433 215.3L433.2 218.1L433.4 210.5L433.7 203.8L433.9 209.3L434.2 216.3L434.4 214.5L434.6 206.7L434.9 205.1L435.1 207.5L435.4 209.1L435.6 202.6L435.8 209.6L436.1 206.3L436.3 212.3L436.8 205.8L437 207.3L437.3 212.1L437.5 207.6L437.8 208.6L438 211.3L438.2 218.7L438.5 216.2L438.7 209.9L439 205.1L439.2 212.8L439.4 215.9L439.7 219.7L439.9 220.6L440.2 224.6L440.6 232.5L440.9 231.7L441.1 234.5L441.4 236.1L441.6 229.9L441.8 231.9L442.1 224.5L442.6 229.1L442.8 230.7L443 236.3L443.3 240L443.5 244.6L443.8 250.3L444 252.6L444.2 246.4L444.5 243L444.7 244.3L445 241.5L445.2 244.1L445.4 241.2L445.7 237.1L445.9 233.3L446.2 237.9L446.4 231.1L446.6 224.8L446.9 226L447.1 222.2L447.4 215.1L447.6 217.9L447.8 225.2L448.1 232L448.3 227.9L448.6 227.2L448.8 233.8L449 229.6L449.3 234.8L449.5 228L449.8 223.6L450.2 220L450.5 222.4L450.7 230.1L451 225.6L451.2 227.1L451.4 232.5L451.7 236.1L451.9 232.6L452.2 240.3L452.4 246.4L452.6 239.3L452.9 232.2L453.1 239.2L453.4 240.1L453.6 235L453.8 241.3L454.1 244.7L454.3 246.4L454.6 251.5L454.8 253.9L455 256.2L455.3 250.7L455.5 243.9L455.8 250.6L456 243L456.2 247.9L456.5 241.7L456.7 247.5L457 242.7L457.2 236L457.4 230.3L457.7 226L457.9 227.2L458.4 234.9L458.9 232.7L459.1 227.8L459.4 229.3L459.6 227.2L459.8 220.1L460.1 213.9L460.3 207.9L460.6 202.5L460.8 200.6L461 208.5L461.3 205.1L461.5 203.2L461.8 199.7L462 207.3L462.2 200.1L462.5 207.9L462.7 205.2L463 209.3L463.2 214.6L463.4 218.5L463.7 221.8L463.9 213.9L464.2 208.1L464.4 214.8L464.6 209.9L464.9 202.2L465.1 209.7L465.4 205.4L465.6 206.8L465.8 203.8L466.1 196.4L466.6 197.8L466.8 204.5L467 198.8L467.5 201.5L467.8 207.1L468 204.2L468.2 205.9L468.5 207L468.7 210.6L469 213.2L469.2 208.9L469.4 205.3L469.9 207L470.2 212.7L470.4 209.8L470.6 215.9L470.9 218.5L471.1 215.9L471.4 219.2L471.6 212.6L471.8 210.1L472.1 206L472.3 212.9L472.6 207L472.8 209.7L473.3 211.4L473.5 208.3L473.8 213.6L474.2 206.3L474.5 209.1L474.7 210.1L475 217.6L475.2 214.3L475.4 211.9L475.7 216.7L475.9 211.4L476.2 203.6L476.4 204.3L476.6 198.8L476.9 201.7L477.1 200.2L477.4 203.1L477.6 210.8L477.8 203.1L478.1 196.7L478.3 203.9L478.6 198.3L478.8 200.8L479 207.6L479.3 209.5L479.5 206.2L479.8 202.9L480 209.5L480.2 214.4L480.5 211L480.7 213.6L481 208.5L481.2 212.1L481.4 219L481.7 214.8L481.9 209.6L482.2 211.5L482.4 205.2L482.6 201.6L482.9 202.7L483.4 197L483.6 191.9L483.8 188.6L484.1 187.5L484.3 188.2L484.6 195.6L484.8 203.2L485 207.4L485.3 215.4L485.5 214.6L485.8 220.1L486 213.1L486.2 209.8L486.5 212.3L486.7 206.5L487 204.3L487.2 196.4L487.4 204.3L487.7 200.3L487.9 197.3L488.4 192.5L488.6 195.3L488.9 197.4L489.1 194.2L489.4 193.2L489.6 187.1L489.8 190.1L490.1 194.3L490.3 187.6L490.8 180.2L491 185.3L491.3 178.6L491.5 182.3L491.8 177.4L492 184.5L492.2 181.1L492.5 187.6L493 195L493.2 200.7L493.4 203.5L493.7 207.9L493.9 215L494.2 211.6L494.4 208.5L494.6 207.6L495.1 201.3L495.4 204.9L495.6 199.3L495.8 204L496.1 197.4L496.3 202.1L496.6 199.9L496.8 204.1L497 203L497.3 199.5L497.5 207.4L497.8 213.5L498 218.8L498.2 216.4L498.5 219.7L498.7 222.8L499 230.3L499.4 236.6L499.7 241.9L499.9 238.3L500.2 236.8L500.4 233L500.6 229.7L500.9 227.7L501.6 227.2L501.8 228.9L502.1 225.4L502.3 219.5L502.6 211.7L502.8 207.6L503 200.1L503.3 202.3L503.5 198.8L503.8 206.8L504 198.9L504.2 199.6L504.5 201.9L504.7 203L505 201L505.2 207.7L505.4 209.3L505.7 207.7L505.9 212.3L506.2 209.3L506.4 206.8L506.6 211.2L506.9 209.9L507.4 206.2L507.6 205.4L507.8 212.1L508.1 206.7L508.3 211.2L508.6 205.9L508.8 199.4L509 206.7L509.3 201.5L509.5 197.1L509.8 202.8L510 210.6L510.2 212.2L510.5 207.7L510.7 208.8L511.2 210.6L511.4 216.6L511.7 215.9L511.9 214.8L512.2 207.4L512.4 211.1L512.9 210.2L513.1 215.8L513.4 222.1L513.6 216.3L513.8 217L514.1 220.9L514.3 225.9L514.6 221.4L514.8 224.3L515 231.6L515.3 238.7L515.8 237.9L516 237L516.2 233.6L516.7 240.8L517 239.3L517.2 244.2L517.4 242.2L517.7 249.9L517.9 257.3L518.2 258.1L518.4 260L518.6 263.7L518.9 269.5L519.1 267.1L519.4 271.8L519.6 269.7L519.8 272.7L520.1 279.4L520.3 282.4L520.8 278.9L521 273L521.3 280.5L521.5 279L521.8 274.4L522 279.4L522.2 274.1L522.5 280L522.7 282L523 286.6L523.2 289.6L523.4 295.1L523.7 292.9L523.9 289.5L524.2 296.4L524.4 293.7L524.6 296.6L524.9 295.1L525.1 289.9L525.4 292.8L525.6 297.9L525.8 298.6L526.1 301.6L526.3 295.1L526.6 287.4L526.8 280L527 282.3L527.3 289.5L527.5 285.4L527.8 290.8L528 290.1L528.2 289.4L528.5 291.9L528.7 293.8L529 295.5L529.2 298.6L529.7 304.5L529.9 306.3L530.2 307.4L530.4 311.6L530.6 317.4L530.9 309.7L531.1 307.2L531.6 301.3L531.8 307.4L532.1 303.7L532.3 301.5L532.6 300.8L532.8 306.1L533 299.5L533.3 292.8L533.5 290.7L533.8 297.7L534 303.6L534.2 296.1L534.5 289.9L535 283L535.2 276.5L535.4 279.3L535.7 277.3L535.9 285.3L536.2 281.7L536.4 283.3L536.6 276.7L536.9 283.6L537.1 290.6L537.4 285.7L537.6 282.4L537.8 280.9L538.1 285.7L538.3 291.8L538.6 286.6L538.8 280.3L539 278.6L539.3 275.7L539.5 278.5L539.8 283.6L540 281" fill="transparent" stroke="rgb(255, 70, 131" stroke-width="2" stroke-linejoin="bevel" class="zr35-cls-178"></path>
</g>
<path d="M0 0l480 0l0 30l-480 0Z" transform="matrix(1,0,0,-1,62.8,442.5)" fill="rgb(47,69,84)" fill-opacity="0" class="zr35-cls-175"></path>
<g clip-path="url(#zr35-c1)">
<polygon points="480 0 0 0 0 13.2 1 11.4 2 10.3 3 10.9 4 10.7 5 10.4 6 10.3 7.1 10.6 8.1 10.6 9.1 10.7 10.1 8.7 11.1 8.7 12.1 8.1 13.1 8.2 14.1 8.4 15.1 8.6 16.1 9 17.1 8.6 18.1 8.6 19.2 8.8 20.2 8.9 21.2 7.7 22.2 7.5 23.2 7.8 24.2 8.6 25.2 8.1 26.2 8.9 27.2 9.1 28.2 9.1 29.2 8.7 30.2 8.9 31.2 9.8 32.3 10 33.3 10.3 34.3 11.7 35.3 11.5 36.3 11.2 37.3 10.5 38.3 10.1 39.3 10 40.3 10.5 41.3 10.6 42.3 10.9 43.3 10.8 44.4 10.9 45.4 10.5 46.4 8.9 47.4 8.8 48.4 9.1 49.4 8.5 50.4 7.5 51.4 7.8 52.4 7.3 53.4 6.2 54.4 6.5 55.4 7.8 56.4 7.7 57.5 7.2 58.5 7.5 59.5 7.9 60.5 8.4 61.5 8.9 62.5 8.5 63.5 10.1 64.5 10.3 65.5 10.9 66.5 9.6 67.5 8.4 68.5 8.5 69.6 8.9 70.6 8.3 71.6 8.8 72.6 9.3 73.6 9.9 74.6 9.3 75.6 8.9 76.6 8.1 77.6 8.6 78.6 8.8 79.6 9.7 80.6 8.9 81.6 9.8 82.7 9.8 83.7 10 84.7 11 85.7 11.8 86.7 12.1 87.7 10.6 88.7 10.5 89.7 11.2 90.7 11.4 91.7 11.8 92.7 12 93.7 12.9 94.8 13.5 95.8 13.6 96.8 15.1 97.8 15.8 98.8 16.5 99.8 15.9 100.8 16.6 101.8 16.3 102.8 16.4 103.8 15.9 104.8 17 105.8 16.4 106.8 17 107.9 16.7 108.9 18.2 109.9 16.9 110.9 16.8 111.9 16 112.9 16.3 113.9 17.2 114.9 17 115.9 17.8 116.9 17.7 117.9 18.3 118.9 19 120 19.6 121 19.5 122 20.4 123 20.1 124 19.6 125 19.7 126 20 127 19.6 128 20.3 129 20 130 20.3 131 20.2 132 19.9 133.1 20.3 134.1 20 135.1 19.4 136.1 18.9 137.1 18.8 138.1 17.6 139.1 17.9 140.1 18 141.1 18.2 142.1 17.7 143.1 17.1 144.1 17.9 145.2 17.3 146.2 17.4 147.2 17.7 148.2 18.1 149.2 18.5 150.2 18.6 151.2 18.1 152.2 18.6 153.2 18.2 154.2 17.5 155.2 17 156.2 17 157.2 16.8 158.3 15.7 159.3 16 160.3 16 161.3 15.9 162.3 15.2 163.3 15 164.3 15.6 165.3 16.2 166.3 15.9 167.3 15.4 168.3 14.7 169.3 15.3 170.4 14.3 171.4 14.2 172.4 14.2 173.4 14.6 174.4 14.6 175.4 14.8 176.4 14.8 177.4 14.3 178.4 13.3 179.4 12 180.4 11.8 181.4 12.6 182.4 13.6 183.5 11.8 184.5 11.5 185.5 11.7 186.5 11.6 187.5 11.4 188.5 12.7 189.5 12.4 190.5 12.1 191.5 11.8 192.5 11.8 193.5 12.1 194.5 11.7 195.6 11.8 196.6 12.5 197.6 12.6 198.6 12.2 199.6 13.2 200.6 13.4 201.6 12.5 202.6 12.4 203.6 12.3 204.6 10.6 205.6 10.5 206.6 9.8 207.6 8.9 208.7 9 209.7 8.5 210.7 8.5 211.7 8.7 212.7 9.5 213.7 10.1 214.7 11.2 215.7 10.5 216.7 9.6 217.7 8.9 218.7 9.7 219.7 9.4 220.8 9.4 221.8 9 222.8 9.6 223.8 10.5 224.8 10.4 225.8 10.4 226.8 11.7 227.8 12.5 228.8 12.6 229.8 12.7 230.8 13.3 231.8 14.9 232.8 14.8 233.9 15 234.9 16 235.9 16.2 236.9 14.9 237.9 15.1 238.9 15 239.9 15.2 240.9 15.2 241.9 15.3 242.9 15.1 243.9 15.1 244.9 15 246 14.6 247 13.7 248 13.3 249 12.4 250 12.8 251 11.8 252 10.8 253 10.8 254 10.6 255 10 256 9.8 257 9.3 258 8.7 259.1 8.9 260.1 9.2 261.1 8.7 262.1 10.4 263.1 10.6 264.1 10.5 265.1 10.6 266.1 10.6 267.1 10.5 268.1 10.3 269.1 10 270.1 10.1 271.2 9.7 272.2 8.2 273.2 7.6 274.2 8.4 275.2 9.3 276.2 9.9 277.2 9.2 278.2 9.2 279.2 10.2 280.2 10.5 281.2 9.3 282.2 9 283.2 8.3 284.3 8.7 285.3 8.4 286.3 9.5 287.3 9.2 288.3 9.4 289.3 9 290.3 8.3 291.3 7.8 292.3 8.8 293.3 9.1 294.3 9.2 295.3 9.4 296.4 9.9 297.4 10.1 298.4 10.2 299.4 10.5 300.4 10.9 301.4 11.3 302.4 12.5 303.4 12.6 304.4 12.7 305.4 13 306.4 13.3 307.4 13.3 308.4 12.7 309.5 13.7 310.5 14.4 311.5 13 312.5 14.2 313.5 13.7 314.5 14 315.5 14.4 316.5 13.9 317.5 13.5 318.5 14.3 319.5 13.9 320.5 14.1 321.6 14.2 322.6 14.1 323.6 14.3 324.6 14.5 325.6 14.2 326.6 14 327.6 13.4 328.6 14 329.6 14.4 330.6 13.9 331.6 14.3 332.6 14.8 333.6 14.9 334.7 15.1 335.7 14.9 336.7 14.9 337.7 15 338.7 15.3 339.7 15.8 340.7 15.6 341.7 16.8 342.7 18.4 343.7 18.4 344.7 17.3 345.7 17.7 346.8 18.5 347.8 19.7 348.8 18.9 349.8 18.6 350.8 19.2 351.8 19.7 352.8 20 353.8 19.9 354.8 19.2 355.8 20.1 356.8 20.8 357.8 20.8 358.8 22 359.9 21.9 360.9 21.5 361.9 20.8 362.9 20.5 363.9 19.7 364.9 19.8 365.9 19.7 366.9 20.6 367.9 20.3 368.9 20.5 369.9 21.3 370.9 21.8 372 21.2 373 21.1 374 22 375 21.9 376 21.6 377 21.5 378 21.8 379 21.2 380 21.1 381 21 382 21.1 383 21.2 384 21.6 385.1 21.2 386.1 21.3 387.1 21.1 388.1 21.3 389.1 21.9 390.1 22.1 391.1 21.5 392.1 20.6 393.1 21.9 394.1 22.5 395.1 22.7 396.1 23.7 397.2 23.1 398.2 22.7 399.2 23.2 400.2 23.9 401.2 23.2 402.2 23.2 403.2 23.4 404.2 23.8 405.2 23.6 406.2 23.6 407.2 23.1 408.2 22.6 409.2 23.1 410.3 22.1 411.3 21.9 412.3 22.4 413.3 22.8 414.3 22.5 415.3 22.7 416.3 23.5 417.3 24 418.3 23.9 419.3 24.1 420.3 23.6 421.3 22.8 422.4 23.3 423.4 23.2 424.4 23.1 425.4 23 426.4 23.6 427.4 23 428.4 22.1 429.4 22.8 430.4 22.2 431.4 21.9 432.4 21.2 433.4 21.3 434.4 21.3 435.5 21 436.5 21.6 437.5 22.6 438.5 22.6 439.5 22.4 440.5 22.6 441.5 22.5 442.5 23.3 443.5 23.1 444.5 22.2 445.5 22.5 446.5 22.6 447.6 22.6 448.6 23.2 449.6 22.2 450.6 20.8 451.6 20.6 452.6 20.7 453.6 21.1 454.6 21.2 455.6 21.2 456.6 20.3 457.6 19.8 458.6 20.7 459.6 20.5 460.7 20.1 461.7 20.3 462.7 19.6 463.7 18.7 464.7 18.3 465.7 18.1 466.7 17.5 467.7 16.9 468.7 16.7 469.7 16.7 470.7 16.7 471.7 16.5 472.8 16.7 473.8 16.6 474.8 16.2 475.8 16.7 476.8 16.9 477.8 16.4 478.8 16.7 479.8 17" transform="matrix(1,0,0,-1,62.8,442.5)" fill="#d2dbee" fill-opacity="0.2" class="zr35-cls-175"></polygon>
</g>
<g clip-path="url(#zr35-c2)">
<polygon points="480 0 0 0 0 13.2 1 11.4 2 10.3 3 10.9 4 10.7 5 10.4 6 10.3 7.1 10.6 8.1 10.6 9.1 10.7 10.1 8.7 11.1 8.7 12.1 8.1 13.1 8.2 14.1 8.4 15.1 8.6 16.1 9 17.1 8.6 18.1 8.6 19.2 8.8 20.2 8.9 21.2 7.7 22.2 7.5 23.2 7.8 24.2 8.6 25.2 8.1 26.2 8.9 27.2 9.1 28.2 9.1 29.2 8.7 30.2 8.9 31.2 9.8 32.3 10 33.3 10.3 34.3 11.7 35.3 11.5 36.3 11.2 37.3 10.5 38.3 10.1 39.3 10 40.3 10.5 41.3 10.6 42.3 10.9 43.3 10.8 44.4 10.9 45.4 10.5 46.4 8.9 47.4 8.8 48.4 9.1 49.4 8.5 50.4 7.5 51.4 7.8 52.4 7.3 53.4 6.2 54.4 6.5 55.4 7.8 56.4 7.7 57.5 7.2 58.5 7.5 59.5 7.9 60.5 8.4 61.5 8.9 62.5 8.5 63.5 10.1 64.5 10.3 65.5 10.9 66.5 9.6 67.5 8.4 68.5 8.5 69.6 8.9 70.6 8.3 71.6 8.8 72.6 9.3 73.6 9.9 74.6 9.3 75.6 8.9 76.6 8.1 77.6 8.6 78.6 8.8 79.6 9.7 80.6 8.9 81.6 9.8 82.7 9.8 83.7 10 84.7 11 85.7 11.8 86.7 12.1 87.7 10.6 88.7 10.5 89.7 11.2 90.7 11.4 91.7 11.8 92.7 12 93.7 12.9 94.8 13.5 95.8 13.6 96.8 15.1 97.8 15.8 98.8 16.5 99.8 15.9 100.8 16.6 101.8 16.3 102.8 16.4 103.8 15.9 104.8 17 105.8 16.4 106.8 17 107.9 16.7 108.9 18.2 109.9 16.9 110.9 16.8 111.9 16 112.9 16.3 113.9 17.2 114.9 17 115.9 17.8 116.9 17.7 117.9 18.3 118.9 19 120 19.6 121 19.5 122 20.4 123 20.1 124 19.6 125 19.7 126 20 127 19.6 128 20.3 129 20 130 20.3 131 20.2 132 19.9 133.1 20.3 134.1 20 135.1 19.4 136.1 18.9 137.1 18.8 138.1 17.6 139.1 17.9 140.1 18 141.1 18.2 142.1 17.7 143.1 17.1 144.1 17.9 145.2 17.3 146.2 17.4 147.2 17.7 148.2 18.1 149.2 18.5 150.2 18.6 151.2 18.1 152.2 18.6 153.2 18.2 154.2 17.5 155.2 17 156.2 17 157.2 16.8 158.3 15.7 159.3 16 160.3 16 161.3 15.9 162.3 15.2 163.3 15 164.3 15.6 165.3 16.2 166.3 15.9 167.3 15.4 168.3 14.7 169.3 15.3 170.4 14.3 171.4 14.2 172.4 14.2 173.4 14.6 174.4 14.6 175.4 14.8 176.4 14.8 177.4 14.3 178.4 13.3 179.4 12 180.4 11.8 181.4 12.6 182.4 13.6 183.5 11.8 184.5 11.5 185.5 11.7 186.5 11.6 187.5 11.4 188.5 12.7 189.5 12.4 190.5 12.1 191.5 11.8 192.5 11.8 193.5 12.1 194.5 11.7 195.6 11.8 196.6 12.5 197.6 12.6 198.6 12.2 199.6 13.2 200.6 13.4 201.6 12.5 202.6 12.4 203.6 12.3 204.6 10.6 205.6 10.5 206.6 9.8 207.6 8.9 208.7 9 209.7 8.5 210.7 8.5 211.7 8.7 212.7 9.5 213.7 10.1 214.7 11.2 215.7 10.5 216.7 9.6 217.7 8.9 218.7 9.7 219.7 9.4 220.8 9.4 221.8 9 222.8 9.6 223.8 10.5 224.8 10.4 225.8 10.4 226.8 11.7 227.8 12.5 228.8 12.6 229.8 12.7 230.8 13.3 231.8 14.9 232.8 14.8 233.9 15 234.9 16 235.9 16.2 236.9 14.9 237.9 15.1 238.9 15 239.9 15.2 240.9 15.2 241.9 15.3 242.9 15.1 243.9 15.1 244.9 15 246 14.6 247 13.7 248 13.3 249 12.4 250 12.8 251 11.8 252 10.8 253 10.8 254 10.6 255 10 256 9.8 257 9.3 258 8.7 259.1 8.9 260.1 9.2 261.1 8.7 262.1 10.4 263.1 10.6 264.1 10.5 265.1 10.6 266.1 10.6 267.1 10.5 268.1 10.3 269.1 10 270.1 10.1 271.2 9.7 272.2 8.2 273.2 7.6 274.2 8.4 275.2 9.3 276.2 9.9 277.2 9.2 278.2 9.2 279.2 10.2 280.2 10.5 281.2 9.3 282.2 9 283.2 8.3 284.3 8.7 285.3 8.4 286.3 9.5 287.3 9.2 288.3 9.4 289.3 9 290.3 8.3 291.3 7.8 292.3 8.8 293.3 9.1 294.3 9.2 295.3 9.4 296.4 9.9 297.4 10.1 298.4 10.2 299.4 10.5 300.4 10.9 301.4 11.3 302.4 12.5 303.4 12.6 304.4 12.7 305.4 13 306.4 13.3 307.4 13.3 308.4 12.7 309.5 13.7 310.5 14.4 311.5 13 312.5 14.2 313.5 13.7 314.5 14 315.5 14.4 316.5 13.9 317.5 13.5 318.5 14.3 319.5 13.9 320.5 14.1 321.6 14.2 322.6 14.1 323.6 14.3 324.6 14.5 325.6 14.2 326.6 14 327.6 13.4 328.6 14 329.6 14.4 330.6 13.9 331.6 14.3 332.6 14.8 333.6 14.9 334.7 15.1 335.7 14.9 336.7 14.9 337.7 15 338.7 15.3 339.7 15.8 340.7 15.6 341.7 16.8 342.7 18.4 343.7 18.4 344.7 17.3 345.7 17.7 346.8 18.5 347.8 19.7 348.8 18.9 349.8 18.6 350.8 19.2 351.8 19.7 352.8 20 353.8 19.9 354.8 19.2 355.8 20.1 356.8 20.8 357.8 20.8 358.8 22 359.9 21.9 360.9 21.5 361.9 20.8 362.9 20.5 363.9 19.7 364.9 19.8 365.9 19.7 366.9 20.6 367.9 20.3 368.9 20.5 369.9 21.3 370.9 21.8 372 21.2 373 21.1 374 22 375 21.9 376 21.6 377 21.5 378 21.8 379 21.2 380 21.1 381 21 382 21.1 383 21.2 384 21.6 385.1 21.2 386.1 21.3 387.1 21.1 388.1 21.3 389.1 21.9 390.1 22.1 391.1 21.5 392.1 20.6 393.1 21.9 394.1 22.5 395.1 22.7 396.1 23.7 397.2 23.1 398.2 22.7 399.2 23.2 400.2 23.9 401.2 23.2 402.2 23.2 403.2 23.4 404.2 23.8 405.2 23.6 406.2 23.6 407.2 23.1 408.2 22.6 409.2 23.1 410.3 22.1 411.3 21.9 412.3 22.4 413.3 22.8 414.3 22.5 415.3 22.7 416.3 23.5 417.3 24 418.3 23.9 419.3 24.1 420.3 23.6 421.3 22.8 422.4 23.3 423.4 23.2 424.4 23.1 425.4 23 426.4 23.6 427.4 23 428.4 22.1 429.4 22.8 430.4 22.2 431.4 21.9 432.4 21.2 433.4 21.3 434.4 21.3 435.5 21 436.5 21.6 437.5 22.6 438.5 22.6 439.5 22.4 440.5 22.6 441.5 22.5 442.5 23.3 443.5 23.1 444.5 22.2 445.5 22.5 446.5 22.6 447.6 22.6 448.6 23.2 449.6 22.2 450.6 20.8 451.6 20.6 452.6 20.7 453.6 21.1 454.6 21.2 455.6 21.2 456.6 20.3 457.6 19.8 458.6 20.7 459.6 20.5 460.7 20.1 461.7 20.3 462.7 19.6 463.7 18.7 464.7 18.3 465.7 18.1 466.7 17.5 467.7 16.9 468.7 16.7 469.7 16.7 470.7 16.7 471.7 16.5 472.8 16.7 473.8 16.6 474.8 16.2 475.8 16.7 476.8 16.9 477.8 16.4 478.8 16.7 479.8 17" transform="matrix(1,0,0,-1,62.8,442.5)" fill="#8fb0f7" fill-opacity="0.2" class="zr35-cls-175"></polygon>
</g>
<g clip-path="url(#zr35-c3)">
<polygon points="480 0 0 0 0 13.2 1 11.4 2 10.3 3 10.9 4 10.7 5 10.4 6 10.3 7.1 10.6 8.1 10.6 9.1 10.7 10.1 8.7 11.1 8.7 12.1 8.1 13.1 8.2 14.1 8.4 15.1 8.6 16.1 9 17.1 8.6 18.1 8.6 19.2 8.8 20.2 8.9 21.2 7.7 22.2 7.5 23.2 7.8 24.2 8.6 25.2 8.1 26.2 8.9 27.2 9.1 28.2 9.1 29.2 8.7 30.2 8.9 31.2 9.8 32.3 10 33.3 10.3 34.3 11.7 35.3 11.5 36.3 11.2 37.3 10.5 38.3 10.1 39.3 10 40.3 10.5 41.3 10.6 42.3 10.9 43.3 10.8 44.4 10.9 45.4 10.5 46.4 8.9 47.4 8.8 48.4 9.1 49.4 8.5 50.4 7.5 51.4 7.8 52.4 7.3 53.4 6.2 54.4 6.5 55.4 7.8 56.4 7.7 57.5 7.2 58.5 7.5 59.5 7.9 60.5 8.4 61.5 8.9 62.5 8.5 63.5 10.1 64.5 10.3 65.5 10.9 66.5 9.6 67.5 8.4 68.5 8.5 69.6 8.9 70.6 8.3 71.6 8.8 72.6 9.3 73.6 9.9 74.6 9.3 75.6 8.9 76.6 8.1 77.6 8.6 78.6 8.8 79.6 9.7 80.6 8.9 81.6 9.8 82.7 9.8 83.7 10 84.7 11 85.7 11.8 86.7 12.1 87.7 10.6 88.7 10.5 89.7 11.2 90.7 11.4 91.7 11.8 92.7 12 93.7 12.9 94.8 13.5 95.8 13.6 96.8 15.1 97.8 15.8 98.8 16.5 99.8 15.9 100.8 16.6 101.8 16.3 102.8 16.4 103.8 15.9 104.8 17 105.8 16.4 106.8 17 107.9 16.7 108.9 18.2 109.9 16.9 110.9 16.8 111.9 16 112.9 16.3 113.9 17.2 114.9 17 115.9 17.8 116.9 17.7 117.9 18.3 118.9 19 120 19.6 121 19.5 122 20.4 123 20.1 124 19.6 125 19.7 126 20 127 19.6 128 20.3 129 20 130 20.3 131 20.2 132 19.9 133.1 20.3 134.1 20 135.1 19.4 136.1 18.9 137.1 18.8 138.1 17.6 139.1 17.9 140.1 18 141.1 18.2 142.1 17.7 143.1 17.1 144.1 17.9 145.2 17.3 146.2 17.4 147.2 17.7 148.2 18.1 149.2 18.5 150.2 18.6 151.2 18.1 152.2 18.6 153.2 18.2 154.2 17.5 155.2 17 156.2 17 157.2 16.8 158.3 15.7 159.3 16 160.3 16 161.3 15.9 162.3 15.2 163.3 15 164.3 15.6 165.3 16.2 166.3 15.9 167.3 15.4 168.3 14.7 169.3 15.3 170.4 14.3 171.4 14.2 172.4 14.2 173.4 14.6 174.4 14.6 175.4 14.8 176.4 14.8 177.4 14.3 178.4 13.3 179.4 12 180.4 11.8 181.4 12.6 182.4 13.6 183.5 11.8 184.5 11.5 185.5 11.7 186.5 11.6 187.5 11.4 188.5 12.7 189.5 12.4 190.5 12.1 191.5 11.8 192.5 11.8 193.5 12.1 194.5 11.7 195.6 11.8 196.6 12.5 197.6 12.6 198.6 12.2 199.6 13.2 200.6 13.4 201.6 12.5 202.6 12.4 203.6 12.3 204.6 10.6 205.6 10.5 206.6 9.8 207.6 8.9 208.7 9 209.7 8.5 210.7 8.5 211.7 8.7 212.7 9.5 213.7 10.1 214.7 11.2 215.7 10.5 216.7 9.6 217.7 8.9 218.7 9.7 219.7 9.4 220.8 9.4 221.8 9 222.8 9.6 223.8 10.5 224.8 10.4 225.8 10.4 226.8 11.7 227.8 12.5 228.8 12.6 229.8 12.7 230.8 13.3 231.8 14.9 232.8 14.8 233.9 15 234.9 16 235.9 16.2 236.9 14.9 237.9 15.1 238.9 15 239.9 15.2 240.9 15.2 241.9 15.3 242.9 15.1 243.9 15.1 244.9 15 246 14.6 247 13.7 248 13.3 249 12.4 250 12.8 251 11.8 252 10.8 253 10.8 254 10.6 255 10 256 9.8 257 9.3 258 8.7 259.1 8.9 260.1 9.2 261.1 8.7 262.1 10.4 263.1 10.6 264.1 10.5 265.1 10.6 266.1 10.6 267.1 10.5 268.1 10.3 269.1 10 270.1 10.1 271.2 9.7 272.2 8.2 273.2 7.6 274.2 8.4 275.2 9.3 276.2 9.9 277.2 9.2 278.2 9.2 279.2 10.2 280.2 10.5 281.2 9.3 282.2 9 283.2 8.3 284.3 8.7 285.3 8.4 286.3 9.5 287.3 9.2 288.3 9.4 289.3 9 290.3 8.3 291.3 7.8 292.3 8.8 293.3 9.1 294.3 9.2 295.3 9.4 296.4 9.9 297.4 10.1 298.4 10.2 299.4 10.5 300.4 10.9 301.4 11.3 302.4 12.5 303.4 12.6 304.4 12.7 305.4 13 306.4 13.3 307.4 13.3 308.4 12.7 309.5 13.7 310.5 14.4 311.5 13 312.5 14.2 313.5 13.7 314.5 14 315.5 14.4 316.5 13.9 317.5 13.5 318.5 14.3 319.5 13.9 320.5 14.1 321.6 14.2 322.6 14.1 323.6 14.3 324.6 14.5 325.6 14.2 326.6 14 327.6 13.4 328.6 14 329.6 14.4 330.6 13.9 331.6 14.3 332.6 14.8 333.6 14.9 334.7 15.1 335.7 14.9 336.7 14.9 337.7 15 338.7 15.3 339.7 15.8 340.7 15.6 341.7 16.8 342.7 18.4 343.7 18.4 344.7 17.3 345.7 17.7 346.8 18.5 347.8 19.7 348.8 18.9 349.8 18.6 350.8 19.2 351.8 19.7 352.8 20 353.8 19.9 354.8 19.2 355.8 20.1 356.8 20.8 357.8 20.8 358.8 22 359.9 21.9 360.9 21.5 361.9 20.8 362.9 20.5 363.9 19.7 364.9 19.8 365.9 19.7 366.9 20.6 367.9 20.3 368.9 20.5 369.9 21.3 370.9 21.8 372 21.2 373 21.1 374 22 375 21.9 376 21.6 377 21.5 378 21.8 379 21.2 380 21.1 381 21 382 21.1 383 21.2 384 21.6 385.1 21.2 386.1 21.3 387.1 21.1 388.1 21.3 389.1 21.9 390.1 22.1 391.1 21.5 392.1 20.6 393.1 21.9 394.1 22.5 395.1 22.7 396.1 23.7 397.2 23.1 398.2 22.7 399.2 23.2 400.2 23.9 401.2 23.2 402.2 23.2 403.2 23.4 404.2 23.8 405.2 23.6 406.2 23.6 407.2 23.1 408.2 22.6 409.2 23.1 410.3 22.1 411.3 21.9 412.3 22.4 413.3 22.8 414.3 22.5 415.3 22.7 416.3 23.5 417.3 24 418.3 23.9 419.3 24.1 420.3 23.6 421.3 22.8 422.4 23.3 423.4 23.2 424.4 23.1 425.4 23 426.4 23.6 427.4 23 428.4 22.1 429.4 22.8 430.4 22.2 431.4 21.9 432.4 21.2 433.4 21.3 434.4 21.3 435.5 21 436.5 21.6 437.5 22.6 438.5 22.6 439.5 22.4 440.5 22.6 441.5 22.5 442.5 23.3 443.5 23.1 444.5 22.2 445.5 22.5 446.5 22.6 447.6 22.6 448.6 23.2 449.6 22.2 450.6 20.8 451.6 20.6 452.6 20.7 453.6 21.1 454.6 21.2 455.6 21.2 456.6 20.3 457.6 19.8 458.6 20.7 459.6 20.5 460.7 20.1 461.7 20.3 462.7 19.6 463.7 18.7 464.7 18.3 465.7 18.1 466.7 17.5 467.7 16.9 468.7 16.7 469.7 16.7 470.7 16.7 471.7 16.5 472.8 16.7 473.8 16.6 474.8 16.2 475.8 16.7 476.8 16.9 477.8 16.4 478.8 16.7 479.8 17" transform="matrix(1,0,0,-1,62.8,442.5)" fill="#d2dbee" fill-opacity="0.2" class="zr35-cls-175"></polygon>
</g>
<g clip-path="url(#zr35-c1)">
<polyline points="0 13.2 1 11.4 2 10.3 3 10.9 4 10.7 5 10.4 6 10.3 7.1 10.6 8.1 10.6 9.1 10.7 10.1 8.7 11.1 8.7 12.1 8.1 13.1 8.2 14.1 8.4 15.1 8.6 16.1 9 17.1 8.6 18.1 8.6 19.2 8.8 20.2 8.9 21.2 7.7 22.2 7.5 23.2 7.8 24.2 8.6 25.2 8.1 26.2 8.9 27.2 9.1 28.2 9.1 29.2 8.7 30.2 8.9 31.2 9.8 32.3 10 33.3 10.3 34.3 11.7 35.3 11.5 36.3 11.2 37.3 10.5 38.3 10.1 39.3 10 40.3 10.5 41.3 10.6 42.3 10.9 43.3 10.8 44.4 10.9 45.4 10.5 46.4 8.9 47.4 8.8 48.4 9.1 49.4 8.5 50.4 7.5 51.4 7.8 52.4 7.3 53.4 6.2 54.4 6.5 55.4 7.8 56.4 7.7 57.5 7.2 58.5 7.5 59.5 7.9 60.5 8.4 61.5 8.9 62.5 8.5 63.5 10.1 64.5 10.3 65.5 10.9 66.5 9.6 67.5 8.4 68.5 8.5 69.6 8.9 70.6 8.3 71.6 8.8 72.6 9.3 73.6 9.9 74.6 9.3 75.6 8.9 76.6 8.1 77.6 8.6 78.6 8.8 79.6 9.7 80.6 8.9 81.6 9.8 82.7 9.8 83.7 10 84.7 11 85.7 11.8 86.7 12.1 87.7 10.6 88.7 10.5 89.7 11.2 90.7 11.4 91.7 11.8 92.7 12 93.7 12.9 94.8 13.5 95.8 13.6 96.8 15.1 97.8 15.8 98.8 16.5 99.8 15.9 100.8 16.6 101.8 16.3 102.8 16.4 103.8 15.9 104.8 17 105.8 16.4 106.8 17 107.9 16.7 108.9 18.2 109.9 16.9 110.9 16.8 111.9 16 112.9 16.3 113.9 17.2 114.9 17 115.9 17.8 116.9 17.7 117.9 18.3 118.9 19 120 19.6 121 19.5 122 20.4 123 20.1 124 19.6 125 19.7 126 20 127 19.6 128 20.3 129 20 130 20.3 131 20.2 132 19.9 133.1 20.3 134.1 20 135.1 19.4 136.1 18.9 137.1 18.8 138.1 17.6 139.1 17.9 140.1 18 141.1 18.2 142.1 17.7 143.1 17.1 144.1 17.9 145.2 17.3 146.2 17.4 147.2 17.7 148.2 18.1 149.2 18.5 150.2 18.6 151.2 18.1 152.2 18.6 153.2 18.2 154.2 17.5 155.2 17 156.2 17 157.2 16.8 158.3 15.7 159.3 16 160.3 16 161.3 15.9 162.3 15.2 163.3 15 164.3 15.6 165.3 16.2 166.3 15.9 167.3 15.4 168.3 14.7 169.3 15.3 170.4 14.3 171.4 14.2 172.4 14.2 173.4 14.6 174.4 14.6 175.4 14.8 176.4 14.8 177.4 14.3 178.4 13.3 179.4 12 180.4 11.8 181.4 12.6 182.4 13.6 183.5 11.8 184.5 11.5 185.5 11.7 186.5 11.6 187.5 11.4 188.5 12.7 189.5 12.4 190.5 12.1 191.5 11.8 192.5 11.8 193.5 12.1 194.5 11.7 195.6 11.8 196.6 12.5 197.6 12.6 198.6 12.2 199.6 13.2 200.6 13.4 201.6 12.5 202.6 12.4 203.6 12.3 204.6 10.6 205.6 10.5 206.6 9.8 207.6 8.9 208.7 9 209.7 8.5 210.7 8.5 211.7 8.7 212.7 9.5 213.7 10.1 214.7 11.2 215.7 10.5 216.7 9.6 217.7 8.9 218.7 9.7 219.7 9.4 220.8 9.4 221.8 9 222.8 9.6 223.8 10.5 224.8 10.4 225.8 10.4 226.8 11.7 227.8 12.5 228.8 12.6 229.8 12.7 230.8 13.3 231.8 14.9 232.8 14.8 233.9 15 234.9 16 235.9 16.2 236.9 14.9 237.9 15.1 238.9 15 239.9 15.2 240.9 15.2 241.9 15.3 242.9 15.1 243.9 15.1 244.9 15 246 14.6 247 13.7 248 13.3 249 12.4 250 12.8 251 11.8 252 10.8 253 10.8 254 10.6 255 10 256 9.8 257 9.3 258 8.7 259.1 8.9 260.1 9.2 261.1 8.7 262.1 10.4 263.1 10.6 264.1 10.5 265.1 10.6 266.1 10.6 267.1 10.5 268.1 10.3 269.1 10 270.1 10.1 271.2 9.7 272.2 8.2 273.2 7.6 274.2 8.4 275.2 9.3 276.2 9.9 277.2 9.2 278.2 9.2 279.2 10.2 280.2 10.5 281.2 9.3 282.2 9 283.2 8.3 284.3 8.7 285.3 8.4 286.3 9.5 287.3 9.2 288.3 9.4 289.3 9 290.3 8.3 291.3 7.8 292.3 8.8 293.3 9.1 294.3 9.2 295.3 9.4 296.4 9.9 297.4 10.1 298.4 10.2 299.4 10.5 300.4 10.9 301.4 11.3 302.4 12.5 303.4 12.6 304.4 12.7 305.4 13 306.4 13.3 307.4 13.3 308.4 12.7 309.5 13.7 310.5 14.4 311.5 13 312.5 14.2 313.5 13.7 314.5 14 315.5 14.4 316.5 13.9 317.5 13.5 318.5 14.3 319.5 13.9 320.5 14.1 321.6 14.2 322.6 14.1 323.6 14.3 324.6 14.5 325.6 14.2 326.6 14 327.6 13.4 328.6 14 329.6 14.4 330.6 13.9 331.6 14.3 332.6 14.8 333.6 14.9 334.7 15.1 335.7 14.9 336.7 14.9 337.7 15 338.7 15.3 339.7 15.8 340.7 15.6 341.7 16.8 342.7 18.4 343.7 18.4 344.7 17.3 345.7 17.7 346.8 18.5 347.8 19.7 348.8 18.9 349.8 18.6 350.8 19.2 351.8 19.7 352.8 20 353.8 19.9 354.8 19.2 355.8 20.1 356.8 20.8 357.8 20.8 358.8 22 359.9 21.9 360.9 21.5 361.9 20.8 362.9 20.5 363.9 19.7 364.9 19.8 365.9 19.7 366.9 20.6 367.9 20.3 368.9 20.5 369.9 21.3 370.9 21.8 372 21.2 373 21.1 374 22 375 21.9 376 21.6 377 21.5 378 21.8 379 21.2 380 21.1 381 21 382 21.1 383 21.2 384 21.6 385.1 21.2 386.1 21.3 387.1 21.1 388.1 21.3 389.1 21.9 390.1 22.1 391.1 21.5 392.1 20.6 393.1 21.9 394.1 22.5 395.1 22.7 396.1 23.7 397.2 23.1 398.2 22.7 399.2 23.2 400.2 23.9 401.2 23.2 402.2 23.2 403.2 23.4 404.2 23.8 405.2 23.6 406.2 23.6 407.2 23.1 408.2 22.6 409.2 23.1 410.3 22.1 411.3 21.9 412.3 22.4 413.3 22.8 414.3 22.5 415.3 22.7 416.3 23.5 417.3 24 418.3 23.9 419.3 24.1 420.3 23.6 421.3 22.8 422.4 23.3 423.4 23.2 424.4 23.1 425.4 23 426.4 23.6 427.4 23 428.4 22.1 429.4 22.8 430.4 22.2 431.4 21.9 432.4 21.2 433.4 21.3 434.4 21.3 435.5 21 436.5 21.6 437.5 22.6 438.5 22.6 439.5 22.4 440.5 22.6 441.5 22.5 442.5 23.3 443.5 23.1 444.5 22.2 445.5 22.5 446.5 22.6 447.6 22.6 448.6 23.2 449.6 22.2 450.6 20.8 451.6 20.6 452.6 20.7 453.6 21.1 454.6 21.2 455.6 21.2 456.6 20.3 457.6 19.8 458.6 20.7 459.6 20.5 460.7 20.1 461.7 20.3 462.7 19.6 463.7 18.7 464.7 18.3 465.7 18.1 466.7 17.5 467.7 16.9 468.7 16.7 469.7 16.7 470.7 16.7 471.7 16.5 472.8 16.7 473.8 16.6 474.8 16.2 475.8 16.7 476.8 16.9 477.8 16.4 478.8 16.7 479.8 17" transform="matrix(1,0,0,-1,62.8,442.5)" fill="transparent" stroke="#d2dbee" stroke-width="0.5" class="zr35-cls-175"></polyline>
</g>
<g clip-path="url(#zr35-c2)">
<polyline points="0 13.2 1 11.4 2 10.3 3 10.9 4 10.7 5 10.4 6 10.3 7.1 10.6 8.1 10.6 9.1 10.7 10.1 8.7 11.1 8.7 12.1 8.1 13.1 8.2 14.1 8.4 15.1 8.6 16.1 9 17.1 8.6 18.1 8.6 19.2 8.8 20.2 8.9 21.2 7.7 22.2 7.5 23.2 7.8 24.2 8.6 25.2 8.1 26.2 8.9 27.2 9.1 28.2 9.1 29.2 8.7 30.2 8.9 31.2 9.8 32.3 10 33.3 10.3 34.3 11.7 35.3 11.5 36.3 11.2 37.3 10.5 38.3 10.1 39.3 10 40.3 10.5 41.3 10.6 42.3 10.9 43.3 10.8 44.4 10.9 45.4 10.5 46.4 8.9 47.4 8.8 48.4 9.1 49.4 8.5 50.4 7.5 51.4 7.8 52.4 7.3 53.4 6.2 54.4 6.5 55.4 7.8 56.4 7.7 57.5 7.2 58.5 7.5 59.5 7.9 60.5 8.4 61.5 8.9 62.5 8.5 63.5 10.1 64.5 10.3 65.5 10.9 66.5 9.6 67.5 8.4 68.5 8.5 69.6 8.9 70.6 8.3 71.6 8.8 72.6 9.3 73.6 9.9 74.6 9.3 75.6 8.9 76.6 8.1 77.6 8.6 78.6 8.8 79.6 9.7 80.6 8.9 81.6 9.8 82.7 9.8 83.7 10 84.7 11 85.7 11.8 86.7 12.1 87.7 10.6 88.7 10.5 89.7 11.2 90.7 11.4 91.7 11.8 92.7 12 93.7 12.9 94.8 13.5 95.8 13.6 96.8 15.1 97.8 15.8 98.8 16.5 99.8 15.9 100.8 16.6 101.8 16.3 102.8 16.4 103.8 15.9 104.8 17 105.8 16.4 106.8 17 107.9 16.7 108.9 18.2 109.9 16.9 110.9 16.8 111.9 16 112.9 16.3 113.9 17.2 114.9 17 115.9 17.8 116.9 17.7 117.9 18.3 118.9 19 120 19.6 121 19.5 122 20.4 123 20.1 124 19.6 125 19.7 126 20 127 19.6 128 20.3 129 20 130 20.3 131 20.2 132 19.9 133.1 20.3 134.1 20 135.1 19.4 136.1 18.9 137.1 18.8 138.1 17.6 139.1 17.9 140.1 18 141.1 18.2 142.1 17.7 143.1 17.1 144.1 17.9 145.2 17.3 146.2 17.4 147.2 17.7 148.2 18.1 149.2 18.5 150.2 18.6 151.2 18.1 152.2 18.6 153.2 18.2 154.2 17.5 155.2 17 156.2 17 157.2 16.8 158.3 15.7 159.3 16 160.3 16 161.3 15.9 162.3 15.2 163.3 15 164.3 15.6 165.3 16.2 166.3 15.9 167.3 15.4 168.3 14.7 169.3 15.3 170.4 14.3 171.4 14.2 172.4 14.2 173.4 14.6 174.4 14.6 175.4 14.8 176.4 14.8 177.4 14.3 178.4 13.3 179.4 12 180.4 11.8 181.4 12.6 182.4 13.6 183.5 11.8 184.5 11.5 185.5 11.7 186.5 11.6 187.5 11.4 188.5 12.7 189.5 12.4 190.5 12.1 191.5 11.8 192.5 11.8 193.5 12.1 194.5 11.7 195.6 11.8 196.6 12.5 197.6 12.6 198.6 12.2 199.6 13.2 200.6 13.4 201.6 12.5 202.6 12.4 203.6 12.3 204.6 10.6 205.6 10.5 206.6 9.8 207.6 8.9 208.7 9 209.7 8.5 210.7 8.5 211.7 8.7 212.7 9.5 213.7 10.1 214.7 11.2 215.7 10.5 216.7 9.6 217.7 8.9 218.7 9.7 219.7 9.4 220.8 9.4 221.8 9 222.8 9.6 223.8 10.5 224.8 10.4 225.8 10.4 226.8 11.7 227.8 12.5 228.8 12.6 229.8 12.7 230.8 13.3 231.8 14.9 232.8 14.8 233.9 15 234.9 16 235.9 16.2 236.9 14.9 237.9 15.1 238.9 15 239.9 15.2 240.9 15.2 241.9 15.3 242.9 15.1 243.9 15.1 244.9 15 246 14.6 247 13.7 248 13.3 249 12.4 250 12.8 251 11.8 252 10.8 253 10.8 254 10.6 255 10 256 9.8 257 9.3 258 8.7 259.1 8.9 260.1 9.2 261.1 8.7 262.1 10.4 263.1 10.6 264.1 10.5 265.1 10.6 266.1 10.6 267.1 10.5 268.1 10.3 269.1 10 270.1 10.1 271.2 9.7 272.2 8.2 273.2 7.6 274.2 8.4 275.2 9.3 276.2 9.9 277.2 9.2 278.2 9.2 279.2 10.2 280.2 10.5 281.2 9.3 282.2 9 283.2 8.3 284.3 8.7 285.3 8.4 286.3 9.5 287.3 9.2 288.3 9.4 289.3 9 290.3 8.3 291.3 7.8 292.3 8.8 293.3 9.1 294.3 9.2 295.3 9.4 296.4 9.9 297.4 10.1 298.4 10.2 299.4 10.5 300.4 10.9 301.4 11.3 302.4 12.5 303.4 12.6 304.4 12.7 305.4 13 306.4 13.3 307.4 13.3 308.4 12.7 309.5 13.7 310.5 14.4 311.5 13 312.5 14.2 313.5 13.7 314.5 14 315.5 14.4 316.5 13.9 317.5 13.5 318.5 14.3 319.5 13.9 320.5 14.1 321.6 14.2 322.6 14.1 323.6 14.3 324.6 14.5 325.6 14.2 326.6 14 327.6 13.4 328.6 14 329.6 14.4 330.6 13.9 331.6 14.3 332.6 14.8 333.6 14.9 334.7 15.1 335.7 14.9 336.7 14.9 337.7 15 338.7 15.3 339.7 15.8 340.7 15.6 341.7 16.8 342.7 18.4 343.7 18.4 344.7 17.3 345.7 17.7 346.8 18.5 347.8 19.7 348.8 18.9 349.8 18.6 350.8 19.2 351.8 19.7 352.8 20 353.8 19.9 354.8 19.2 355.8 20.1 356.8 20.8 357.8 20.8 358.8 22 359.9 21.9 360.9 21.5 361.9 20.8 362.9 20.5 363.9 19.7 364.9 19.8 365.9 19.7 366.9 20.6 367.9 20.3 368.9 20.5 369.9 21.3 370.9 21.8 372 21.2 373 21.1 374 22 375 21.9 376 21.6 377 21.5 378 21.8 379 21.2 380 21.1 381 21 382 21.1 383 21.2 384 21.6 385.1 21.2 386.1 21.3 387.1 21.1 388.1 21.3 389.1 21.9 390.1 22.1 391.1 21.5 392.1 20.6 393.1 21.9 394.1 22.5 395.1 22.7 396.1 23.7 397.2 23.1 398.2 22.7 399.2 23.2 400.2 23.9 401.2 23.2 402.2 23.2 403.2 23.4 404.2 23.8 405.2 23.6 406.2 23.6 407.2 23.1 408.2 22.6 409.2 23.1 410.3 22.1 411.3 21.9 412.3 22.4 413.3 22.8 414.3 22.5 415.3 22.7 416.3 23.5 417.3 24 418.3 23.9 419.3 24.1 420.3 23.6 421.3 22.8 422.4 23.3 423.4 23.2 424.4 23.1 425.4 23 426.4 23.6 427.4 23 428.4 22.1 429.4 22.8 430.4 22.2 431.4 21.9 432.4 21.2 433.4 21.3 434.4 21.3 435.5 21 436.5 21.6 437.5 22.6 438.5 22.6 439.5 22.4 440.5 22.6 441.5 22.5 442.5 23.3 443.5 23.1 444.5 22.2 445.5 22.5 446.5 22.6 447.6 22.6 448.6 23.2 449.6 22.2 450.6 20.8 451.6 20.6 452.6 20.7 453.6 21.1 454.6 21.2 455.6 21.2 456.6 20.3 457.6 19.8 458.6 20.7 459.6 20.5 460.7 20.1 461.7 20.3 462.7 19.6 463.7 18.7 464.7 18.3 465.7 18.1 466.7 17.5 467.7 16.9 468.7 16.7 469.7 16.7 470.7 16.7 471.7 16.5 472.8 16.7 473.8 16.6 474.8 16.2 475.8 16.7 476.8 16.9 477.8 16.4 478.8 16.7 479.8 17" transform="matrix(1,0,0,-1,62.8,442.5)" fill="transparent" stroke="#8fb0f7" stroke-width="0.5" class="zr35-cls-175"></polyline>
</g>
<g clip-path="url(#zr35-c3)">
<polyline points="0 13.2 1 11.4 2 10.3 3 10.9 4 10.7 5 10.4 6 10.3 7.1 10.6 8.1 10.6 9.1 10.7 10.1 8.7 11.1 8.7 12.1 8.1 13.1 8.2 14.1 8.4 15.1 8.6 16.1 9 17.1 8.6 18.1 8.6 19.2 8.8 20.2 8.9 21.2 7.7 22.2 7.5 23.2 7.8 24.2 8.6 25.2 8.1 26.2 8.9 27.2 9.1 28.2 9.1 29.2 8.7 30.2 8.9 31.2 9.8 32.3 10 33.3 10.3 34.3 11.7 35.3 11.5 36.3 11.2 37.3 10.5 38.3 10.1 39.3 10 40.3 10.5 41.3 10.6 42.3 10.9 43.3 10.8 44.4 10.9 45.4 10.5 46.4 8.9 47.4 8.8 48.4 9.1 49.4 8.5 50.4 7.5 51.4 7.8 52.4 7.3 53.4 6.2 54.4 6.5 55.4 7.8 56.4 7.7 57.5 7.2 58.5 7.5 59.5 7.9 60.5 8.4 61.5 8.9 62.5 8.5 63.5 10.1 64.5 10.3 65.5 10.9 66.5 9.6 67.5 8.4 68.5 8.5 69.6 8.9 70.6 8.3 71.6 8.8 72.6 9.3 73.6 9.9 74.6 9.3 75.6 8.9 76.6 8.1 77.6 8.6 78.6 8.8 79.6 9.7 80.6 8.9 81.6 9.8 82.7 9.8 83.7 10 84.7 11 85.7 11.8 86.7 12.1 87.7 10.6 88.7 10.5 89.7 11.2 90.7 11.4 91.7 11.8 92.7 12 93.7 12.9 94.8 13.5 95.8 13.6 96.8 15.1 97.8 15.8 98.8 16.5 99.8 15.9 100.8 16.6 101.8 16.3 102.8 16.4 103.8 15.9 104.8 17 105.8 16.4 106.8 17 107.9 16.7 108.9 18.2 109.9 16.9 110.9 16.8 111.9 16 112.9 16.3 113.9 17.2 114.9 17 115.9 17.8 116.9 17.7 117.9 18.3 118.9 19 120 19.6 121 19.5 122 20.4 123 20.1 124 19.6 125 19.7 126 20 127 19.6 128 20.3 129 20 130 20.3 131 20.2 132 19.9 133.1 20.3 134.1 20 135.1 19.4 136.1 18.9 137.1 18.8 138.1 17.6 139.1 17.9 140.1 18 141.1 18.2 142.1 17.7 143.1 17.1 144.1 17.9 145.2 17.3 146.2 17.4 147.2 17.7 148.2 18.1 149.2 18.5 150.2 18.6 151.2 18.1 152.2 18.6 153.2 18.2 154.2 17.5 155.2 17 156.2 17 157.2 16.8 158.3 15.7 159.3 16 160.3 16 161.3 15.9 162.3 15.2 163.3 15 164.3 15.6 165.3 16.2 166.3 15.9 167.3 15.4 168.3 14.7 169.3 15.3 170.4 14.3 171.4 14.2 172.4 14.2 173.4 14.6 174.4 14.6 175.4 14.8 176.4 14.8 177.4 14.3 178.4 13.3 179.4 12 180.4 11.8 181.4 12.6 182.4 13.6 183.5 11.8 184.5 11.5 185.5 11.7 186.5 11.6 187.5 11.4 188.5 12.7 189.5 12.4 190.5 12.1 191.5 11.8 192.5 11.8 193.5 12.1 194.5 11.7 195.6 11.8 196.6 12.5 197.6 12.6 198.6 12.2 199.6 13.2 200.6 13.4 201.6 12.5 202.6 12.4 203.6 12.3 204.6 10.6 205.6 10.5 206.6 9.8 207.6 8.9 208.7 9 209.7 8.5 210.7 8.5 211.7 8.7 212.7 9.5 213.7 10.1 214.7 11.2 215.7 10.5 216.7 9.6 217.7 8.9 218.7 9.7 219.7 9.4 220.8 9.4 221.8 9 222.8 9.6 223.8 10.5 224.8 10.4 225.8 10.4 226.8 11.7 227.8 12.5 228.8 12.6 229.8 12.7 230.8 13.3 231.8 14.9 232.8 14.8 233.9 15 234.9 16 235.9 16.2 236.9 14.9 237.9 15.1 238.9 15 239.9 15.2 240.9 15.2 241.9 15.3 242.9 15.1 243.9 15.1 244.9 15 246 14.6 247 13.7 248 13.3 249 12.4 250 12.8 251 11.8 252 10.8 253 10.8 254 10.6 255 10 256 9.8 257 9.3 258 8.7 259.1 8.9 260.1 9.2 261.1 8.7 262.1 10.4 263.1 10.6 264.1 10.5 265.1 10.6 266.1 10.6 267.1 10.5 268.1 10.3 269.1 10 270.1 10.1 271.2 9.7 272.2 8.2 273.2 7.6 274.2 8.4 275.2 9.3 276.2 9.9 277.2 9.2 278.2 9.2 279.2 10.2 280.2 10.5 281.2 9.3 282.2 9 283.2 8.3 284.3 8.7 285.3 8.4 286.3 9.5 287.3 9.2 288.3 9.4 289.3 9 290.3 8.3 291.3 7.8 292.3 8.8 293.3 9.1 294.3 9.2 295.3 9.4 296.4 9.9 297.4 10.1 298.4 10.2 299.4 10.5 300.4 10.9 301.4 11.3 302.4 12.5 303.4 12.6 304.4 12.7 305.4 13 306.4 13.3 307.4 13.3 308.4 12.7 309.5 13.7 310.5 14.4 311.5 13 312.5 14.2 313.5 13.7 314.5 14 315.5 14.4 316.5 13.9 317.5 13.5 318.5 14.3 319.5 13.9 320.5 14.1 321.6 14.2 322.6 14.1 323.6 14.3 324.6 14.5 325.6 14.2 326.6 14 327.6 13.4 328.6 14 329.6 14.4 330.6 13.9 331.6 14.3 332.6 14.8 333.6 14.9 334.7 15.1 335.7 14.9 336.7 14.9 337.7 15 338.7 15.3 339.7 15.8 340.7 15.6 341.7 16.8 342.7 18.4 343.7 18.4 344.7 17.3 345.7 17.7 346.8 18.5 347.8 19.7 348.8 18.9 349.8 18.6 350.8 19.2 351.8 19.7 352.8 20 353.8 19.9 354.8 19.2 355.8 20.1 356.8 20.8 357.8 20.8 358.8 22 359.9 21.9 360.9 21.5 361.9 20.8 362.9 20.5 363.9 19.7 364.9 19.8 365.9 19.7 366.9 20.6 367.9 20.3 368.9 20.5 369.9 21.3 370.9 21.8 372 21.2 373 21.1 374 22 375 21.9 376 21.6 377 21.5 378 21.8 379 21.2 380 21.1 381 21 382 21.1 383 21.2 384 21.6 385.1 21.2 386.1 21.3 387.1 21.1 388.1 21.3 389.1 21.9 390.1 22.1 391.1 21.5 392.1 20.6 393.1 21.9 394.1 22.5 395.1 22.7 396.1 23.7 397.2 23.1 398.2 22.7 399.2 23.2 400.2 23.9 401.2 23.2 402.2 23.2 403.2 23.4 404.2 23.8 405.2 23.6 406.2 23.6 407.2 23.1 408.2 22.6 409.2 23.1 410.3 22.1 411.3 21.9 412.3 22.4 413.3 22.8 414.3 22.5 415.3 22.7 416.3 23.5 417.3 24 418.3 23.9 419.3 24.1 420.3 23.6 421.3 22.8 422.4 23.3 423.4 23.2 424.4 23.1 425.4 23 426.4 23.6 427.4 23 428.4 22.1 429.4 22.8 430.4 22.2 431.4 21.9 432.4 21.2 433.4 21.3 434.4 21.3 435.5 21 436.5 21.6 437.5 22.6 438.5 22.6 439.5 22.4 440.5 22.6 441.5 22.5 442.5 23.3 443.5 23.1 444.5 22.2 445.5 22.5 446.5 22.6 447.6 22.6 448.6 23.2 449.6 22.2 450.6 20.8 451.6 20.6 452.6 20.7 453.6 21.1 454.6 21.2 455.6 21.2 456.6 20.3 457.6 19.8 458.6 20.7 459.6 20.5 460.7 20.1 461.7 20.3 462.7 19.6 463.7 18.7 464.7 18.3 465.7 18.1 466.7 17.5 467.7 16.9 468.7 16.7 469.7 16.7 470.7 16.7 471.7 16.5 472.8 16.7 473.8 16.6 474.8 16.2 475.8 16.7 476.8 16.9 477.8 16.4 478.8 16.7 479.8 17" transform="matrix(1,0,0,-1,62.8,442.5)" fill="transparent" stroke="#d2dbee" stroke-width="0.5" class="zr35-cls-175"></polyline>
</g>
<path d="M0 0l480 0l0 30l-480 0Z" transform="matrix(1,0,0,-1,62.8,442.5)" fill="transparent" class="zr35-cls-179"></path>
<path d="M0 0l48 0l0 30l-48 0Z" transform="matrix(1,0,0,-1,62.8,442.5)" fill="rgb(135,175,255)" fill-opacity="0.2" class="zr35-cls-175"></path>
<path d="M3.5 0.5L476.5 0.5A3 3 0 0 1 479.5 3.5L479.5 26.5A3 3 0 0 1 476.5 29.5L3.5 29.5A3 3 0 0 1 0.5 26.5L0.5 3.5A3 3 0 0 1 3.5 0.5" transform="matrix(1,0,0,-1,62.8,442.5)" fill="rgb(0,0,0)" fill-opacity="0" stroke="#d2dbee" class="zr35-cls-175"></path>
<path d="M0 29.5L48 29.5L48 34.5A2 2 0 0 1 46 36.5L2 36.5A2 2 0 0 1 0 34.5L0 29.5" transform="matrix(1,0,0,-1,62.8,442.5)" fill="#D2DBEE" fill-opacity="0.7" class="zr35-cls-175"></path>
<path d="M-2.2 -1.7C-1.9 -1.7 -1.7 -1.5 -1.7 -1.1L-1.7 1.1C-1.7 1.5 -1.9 1.7 -2.2 1.7C-2.6 1.7 -2.8 1.5 -2.8 1.1L-2.8 -1.1C-2.8 -1.5 -2.6 -1.7 -2.2 -1.7ZM0 -1.7C0.4 -1.7 0.6 -1.5 0.6 -1.1L0.6 1.1C0.6 1.5 0.4 1.7 0 1.7C-0.4 1.7 -0.6 1.5 -0.6 1.1L-0.6 -1.1C-0.6 -1.5 -0.4 -1.7 0 -1.7ZM2.2 -1.7C2.6 -1.7 2.8 -1.5 2.8 -1.1L2.8 1.1C2.8 1.5 2.6 1.7 2.2 1.7C1.9 1.7 1.7 1.5 1.7 1.1L1.7 -1.1C1.7 -1.5 1.9 -1.7 2.2 -1.7Z" transform="matrix(1,0,0,-1,86.8,409.5)" fill="#fff" class="zr35-cls-175"></path>
<path d="M0 1.63L0 2M0 0L0 0.38M-0.1 0.38L0.1 0.38A0.1 0.1 0 0 1 0.2 0.47L0.2 1.52A0.1 0.1 0 0 1 0.1 1.62L-0.1 1.63A0.1 0.1 0 0 1 -0.2 1.52L-0.2 0.47A0.1 0.1 0 0 1 -0.1 0.37Z" transform="matrix(15,0,0,-15,63.8,442.5)" fill="#fff" stroke="#ACB8D1" stroke-width="0.06666666666666667" class="zr35-cls-180"></path>
<path d="M0 1.63L0 2M0 0L0 0.38M-0.1 0.38L0.1 0.38A0.1 0.1 0 0 1 0.2 0.47L0.2 1.52A0.1 0.1 0 0 1 0.1 1.62L-0.1 1.63A0.1 0.1 0 0 1 -0.2 1.52L-0.2 0.47A0.1 0.1 0 0 1 -0.1 0.37Z" transform="matrix(15,0,0,-15,109.8,442.5)" fill="#fff" stroke="#ACB8D1" stroke-width="0.06666666666666667" class="zr35-cls-180"></path>
<path d="M-14 -15l108.8 0l0 30l-108.8 0Z" transform="translate(505.2009 15)" fill="transparent" stroke="#ccc" stroke-width="0" class="zr35-cls-175"></path>
<path d="M-74.3 -5l148.6 0l0 28l-148.6 0Z" transform="translate(300 5)" fill="rgb(0,0,0)" fill-opacity="0" stroke="#ccc" stroke-width="0" class="zr35-cls-175"></path>
<path d="M-6.5 -1.6L-0.1 4.3L6.5 -1.4M-6.5 3.8L-6.5 7.5L6.2 7.5L6.2 3.8M-0.1 4.2L-0.1 -7.5" transform="translate(505.2009 15)" fill="transparent" stroke="#666" class="zr35-cls-181"></path>
<path d="M-7 0.9M4.5 -3L7.2 -3L7.2 -5.7M7 -2.6C5.9 -5.6 2.8 -7.9 -0.9 -7.5C-4.6 -7 -7.6 -3.7 -7.5 0.2M-4.5 3L-7.2 3L-7.2 5.7M-7 2.6C-5.9 5.6 -2.8 7.9 0.9 7.5C4.6 7 7.6 3.7 7.5 -0.2" transform="translate(532.1373 15)" fill="transparent" stroke="#666" class="zr35-cls-181"></path>
<path d="M-7.5 -4L-0.5 -4M-4 -0.5L-4 -7.5M0.8 -4L7.5 -4L7.5 7.5L-4 7.5L-4 0.8" transform="translate(560.0952 15)" fill="transparent" stroke="#666" class="zr35-cls-181"></path>
<path d="M-2.8 -7.5L-6 -4.3L-2.7 -1M-5.8 -4.3L6 -4.3L6 7.5L-5.8 7.5L-5.8 0.6" transform="translate(586.5476 15)" fill="transparent" stroke="#666" class="zr35-cls-181"></path>
<text dominant-baseline="central" text-anchor="middle" style="font-size:18px;font-family:sans-serif;font-weight:bold;" xml:space="preserve" y="9" transform="translate(300 5)" fill="#464646">Large Area Chart</text>
<defs >
<clipPath id="zr35-c0">
<path d="M59 59l482 0l0 322l-482 0Z" fill="#000" class="zr35-cls-176"></path>
</clipPath>
<linearGradient gradientUnits="objectBoundingBox" x1="0" y1="0" x2="0" y2="1" id="zr35-g0">
<stop offset="0%" stop-color="rgb(255, 158, 68)"></stop>
<stop offset="100%" stop-color="rgb(255, 70, 131)"></stop>
</linearGradient>
<clipPath id="zr35-c1">
<path d="M0 0l0 0l0 30l0 0Z" transform="matrix(1,0,0,-1,62.8,442.5)" fill="#000" class="zr35-cls-176"></path>
</clipPath>
<clipPath id="zr35-c2">
<path d="M0 0l48 0l0 30l-48 0Z" transform="matrix(1,0,0,-1,62.8,442.5)" fill="#000" class="zr35-cls-176"></path>
</clipPath>
<clipPath id="zr35-c3">
<path d="M48 0l432 0l0 30l-432 0Z" transform="matrix(1,0,0,-1,62.8,442.5)" fill="#000" class="zr35-cls-176"></path>
</clipPath>
</defs>
<style ><![CDATA[
.zr35-cls-175:hover {
pointer-events:none;
}
.zr35-cls-176:hover {
cursor:pointer;
fill:rgba(0,0,0,1);
}
.zr35-cls-177:hover {
cursor:pointer;
fill:[object Object];
}
.zr35-cls-178:hover {
cursor:pointer;
}
.zr35-cls-179:hover {
cursor:pointer;
fill:rgba(0,0,0,0);
}
.zr35-cls-180:hover {
cursor:pointer;
fill:rgba(255,255,255,1);
stroke:#8FB0F7;
}
.zr35-cls-181:hover {
cursor:pointer;
stroke:#3E98C5;
}

]]>

</style>
</svg>