<svg width="600" height="450" xmlns="http://www.w3.org/2000/svg" xmlns:xlink="http://www.w3.org/1999/xlink" version="1.1" baseProfile="full" viewBox="0 0 600 450">
<rect width="600" height="450" x="0" y="0" id="0" fill="none"></rect>
<path d="M60 370.5L540 370.5" fill="none" stroke="#E0E6F1"></path>
<path d="M60 292.5L540 292.5" fill="none" stroke="#E0E6F1"></path>
<path d="M60 215.5L540 215.5" fill="none" stroke="#E0E6F1"></path>
<path d="M60 137.5L540 137.5" fill="none" stroke="#E0E6F1"></path>
<path d="M60 60.5L540 60.5" fill="none" stroke="#E0E6F1"></path>
<path d="M60 60.5L540 60.5" fill="none" stroke="#E0E6F1"></path>
<path d="M60 137.5L540 137.5" fill="none" stroke="#E0E6F1"></path>
<path d="M60 215.5L540 215.5" fill="none" stroke="#E0E6F1"></path>
<path d="M60 292.5L540 292.5" fill="none" stroke="#E0E6F1"></path>
<path d="M60 370.5L540 370.5" fill="none" stroke="#E0E6F1"></path>
<text dominant-baseline="central" text-anchor="middle" style="font-size:12px;font-family:sans-serif;" y="-6" transform="translate(60 45)" fill="#6E7079">Flow(m³/s)</text>
<text dominant-baseline="central" text-anchor="middle" style="font-size:12px;font-family:sans-serif;" y="-6" transform="translate(540 45)" fill="#6E7079">Rainfall(mm)</text>
<path d="M60 370.5L540 370.5" fill="none" stroke="#6E7079" stroke-linecap="round"></path>
<path d="M114.5 370L114.5 375" fill="none" stroke="#6E7079"></path>
<path d="M184.5 370L184.5 375" fill="none" stroke="#6E7079"></path>
<path d="M254.5 370L254.5 375" fill="none" stroke="#6E7079"></path>
<path d="M324.5 370L324.5 375" fill="none" stroke="#6E7079"></path>
<path d="M395.5 370L395.5 375" fill="none" stroke="#6E7079"></path>
<path d="M465.5 370L465.5 375" fill="none" stroke="#6E7079"></path>
<path d="M535.5 370L535.5 375" fill="none" stroke="#6E7079"></path>
<text dominant-baseline="central" text-anchor="end" style="font-size:12px;font-family:sans-serif;" transform="translate(52 370)" fill="#6E7079">0</text>
<text dominant-baseline="central" text-anchor="end" style="font-size:12px;font-family:sans-serif;" transform="translate(52 292.5)" fill="#6E7079">100</text>
<text dominant-baseline="central" text-anchor="end" style="font-size:12px;font-family:sans-serif;" transform="translate(52 215)" fill="#6E7079">200</text>
<text dominant-baseline="central" text-anchor="end" style="font-size:12px;font-family:sans-serif;" transform="translate(52 137.5)" fill="#6E7079">300</text>
<text dominant-baseline="central" text-anchor="end" style="font-size:12px;font-family:sans-serif;" transform="translate(52 60)" fill="#6E7079">400</text>
<text dominant-baseline="central" text-anchor="start" style="font-size:12px;font-family:sans-serif;" transform="translate(548 60)" fill="#6E7079">0</text>
<text dominant-baseline="central" text-anchor="start" style="font-size:12px;font-family:sans-serif;" transform="translate(548 137.5)" fill="#6E7079">1</text>
<text dominant-baseline="central" text-anchor="start" style="font-size:12px;font-family:sans-serif;" transform="translate(548 215)" fill="#6E7079">2</text>
<text dominant-baseline="central" text-anchor="start" style="font-size:12px;font-family:sans-serif;" transform="translate(548 292.5)" fill="#6E7079">3</text>
<text dominant-baseline="central" text-anchor="start" style="font-size:12px;font-family:sans-serif;" transform="translate(548 370)" fill="#6E7079">4</text>
<text dominant-baseline="central" text-anchor="middle" style="font-size:12px;font-family:sans-serif;" y="6" transform="translate(113.8537 378)" fill="#6E7079">2009/9/6</text>
<text dominant-baseline="central" text-anchor="middle" style="font-size:12px;font-family:sans-serif;" y="18" transform="translate(113.8537 378)" fill="#6E7079">8:00</text>
<text dominant-baseline="central" text-anchor="middle" style="font-size:12px;font-family:sans-serif;" y="6" transform="translate(184.0976 378)" fill="#6E7079">2009/9/10</text>
<text dominant-baseline="central" text-anchor="middle" style="font-size:12px;font-family:sans-serif;" y="18" transform="translate(184.0976 378)" fill="#6E7079">2:00</text>
<text dominant-baseline="central" text-anchor="middle" style="font-size:12px;font-family:sans-serif;" y="6" transform="translate(254.3415 378)" fill="#6E7079">2009/9/13</text>
<text dominant-baseline="central" text-anchor="middle" style="font-size:12px;font-family:sans-serif;" y="18" transform="translate(254.3415 378)" fill="#6E7079">20:00</text>
<text dominant-baseline="central" text-anchor="middle" style="font-size:12px;font-family:sans-serif;" y="6" transform="translate(324.5854 378)" fill="#6E7079">2009/9/17</text>
<text dominant-baseline="central" text-anchor="middle" style="font-size:12px;font-family:sans-serif;" y="18" transform="translate(324.5854 378)" fill="#6E7079">14:00</text>
<text dominant-baseline="central" text-anchor="middle" style="font-size:12px;font-family:sans-serif;" y="6" transform="translate(394.8293 378)" fill="#6E7079">2009/9/21</text>
<text dominant-baseline="central" text-anchor="middle" style="font-size:12px;font-family:sans-serif;" y="18" transform="translate(394.8293 378)" fill="#6E7079">8:00</text>
<text dominant-baseline="central" text-anchor="middle" style="font-size:12px;font-family:sans-serif;" y="6" transform="translate(465.0732 378)" fill="#6E7079">2009/9/25</text>
<text dominant-baseline="central" text-anchor="middle" style="font-size:12px;font-family:sans-serif;" y="18" transform="translate(465.0732 378)" fill="#6E7079">2:00</text>
<text dominant-baseline="central" text-anchor="middle" style="font-size:12px;font-family:sans-serif;" y="6" transform="translate(535.3171 378)" fill="#6E7079">2009/9/28</text>
<text dominant-baseline="central" text-anchor="middle" style="font-size:12px;font-family:sans-serif;" y="18" transform="translate(535.3171 378)" fill="#6E7079">20:00</text>
<polygon points="225.5 370 412.8 370 412.8 60 225.5 60" fill="rgb(84,112,198)" fill-opacity="0.12" stroke="#5470c6" stroke-width="0" stroke-opacity="0.3"></polygon>
<polygon points="225.5 60 412.8 60 412.8 370 225.5 370" fill="rgb(145,204,117)" fill-opacity="0.12" stroke="#91cc75" stroke-width="0" stroke-opacity="0.3"></polygon>
<g clip-path="url(#zr35-c0)">
<path d="M60 366.2L60.8 366.2L61.6 366.3L62.3 366.4L63.1 366.5L63.9 366.6L64.7 366.6L65.5 366.7L66.2 366.8L67 366.9L67.8 367L68.6 367L69.4 367.1L70.1 367.2L70.9 367.3L71.7 367.4L72.5 367.5L73.3 367.6L74 367.6L74.8 367.7L75.6 367.7L76.4 367.7L77.2 367.7L78 367.7L78.7 367.7L79.5 367.7L80.3 367.7L81.1 367.7L81.9 367.7L82.6 367.7L83.4 367.7L84.2 367.7L85 367.7L85.8 367.7L86.5 367.8L87.3 367.8L88.1 367.8L88.9 367.9L89.7 368L90.4 368L91.2 368.1L92 368.2L92.8 368.3L93.6 368.3L94.3 368.3L95.1 368.4L95.9 368.4L96.7 368.4L97.5 368.4L98.2 368.4L99 368.4L99.8 368.4L100.6 368.4L101.4 368.4L102.1 368.4L102.9 368.4L103.7 368.4L104.5 368.4L105.3 368.4L106 368.4L106.8 368.5L107.6 368.5L108.4 368.6L109.2 368.7L110 368.8L110.7 368.8L111.5 368.9L112.3 369L113.1 369L113.9 369.1L114.6 369.1L115.4 369.1L116.2 369.1L117 369.2L117.8 369.2L118.5 369.2L119.3 369.2L120.1 369.3L120.9 369.3L121.7 369.3L122.4 369.3L123.2 369.4L124 369.4L124.8 369.4L125.6 369.4L126.3 369.4L127.1 369.5L127.9 369.5L128.7 369.5L129.5 369.5L130.2 369.5L131 369.5L131.8 369.6L132.6 369.6L133.4 369.6L134.1 369.6L134.9 369.6L135.7 369.6L136.5 369.6L137.3 369.6L138 369.6L138.8 369.6L139.6 369.6L140.4 369.6L141.2 369.6L142 369.6L142.7 369.6L143.5 369.6L144.3 369.6L145.1 369.6L145.9 369.6L146.6 369.5L147.4 369.5L148.2 369.5L149 369.5L149.8 369.5L150.5 369.5L151.3 369.4L152.1 369.4L152.9 369.4L153.7 369.4L154.4 369.5L155.2 369.5L156 369.5L156.8 369.5L157.6 369.5L158.3 369.5L159.1 369.5L159.9 369.5L160.7 369.5L161.5 369.5L162.2 369.5L163 369.5L163.8 369.5L164.6 369.5L165.4 369.5L166.1 369.5L166.9 369.5L167.7 369.5L168.5 369.5L169.3 369.5L170 369.5L170.8 369.5L171.6 369.5L172.4 369.5L173.2 369.5L174 369.5L174.7 369.5L175.5 369.5L176.3 369.5L177.1 369.5L177.9 369.5L178.6 369.5L179.4 369.5L180.2 369.5L181 369.5L181.8 369.5L182.5 369.5L183.3 369.5L184.1 369.5L184.9 369.5L185.7 369.5L186.4 369.5L187.2 369.5L188 369.5L188.8 369.5L189.6 369.5L190.3 369.5L191.1 369.5L191.9 369.5L192.7 369.5L193.5 369.5L194.2 369.5L195 369.5L195.8 369.5L196.6 369.5L197.4 369.5L198.1 369.5L198.9 369.5L199.7 369.5L200.5 369.5L201.3 369.5L202 369.5L202.8 369.5L203.6 369.5L204.4 369.5L205.2 369.5L206 369.5L206.7 369.5L207.5 369.5L208.3 369.5L209.1 369.5L209.9 369.4L210.6 369.4L211.4 369.4L212.2 369.4L213 369.4L213.8 369.4L214.5 369.4L215.3 369.4L216.1 369.4L216.9 369.3L217.7 369.3L218.4 369.3L219.2 369.3L220 369.3L220.8 369.2L221.6 369.2L222.3 369.2L223.1 369.2L223.9 369.2L224.7 369.1L225.5 369.1L226.2 369.1L227 369L227.8 368.7L228.6 368.3L229.4 367.7L230.1 366.9L230.9 366L231.7 365L232.5 363.7L233.3 362.3L234 360.8L234.8 359L235.6 357.1L236.4 352.7L237.2 352.3L238 351L238.7 346.5L239.5 342.3L240.3 337.1L241.1 325.7L241.9 297.1L242.6 282.5L243.4 274.4L244.2 268.9L245 269.3L245.8 277.5L246.5 276.5L247.3 279.5L248.1 278.5L248.9 277.5L249.7 273.3L250.4 258.8L251.2 211.9L252 142.1L252.8 122.6L253.6 115.5L254.3 87.1L255.1 98.1L255.9 100.6L256.7 100.6L257.5 118.1L258.2 113L259 122.6L259.8 131.3L260.6 131.3L261.4 131.3L262.1 131.3L262.9 140L263.7 137.5L264.5 152.2L265.3 154.2L266 160.3L266.8 160L267.6 173.5L268.4 189L269.2 200.1L270 209L270.7 210.4L271.5 211.9L272.3 223.1L273.1 231.4L273.9 235.6L274.6 246L275.4 250.3L276.2 256.9L277 257.6L277.8 261.1L278.5 268.9L279.3 272.2L280.1 279.5L280.9 282.5L281.7 287.5L282.4 291.3L283.2 293.7L284 305.9L284.8 317.8L285.6 308L286.3 311L287.1 314L287.9 315L288.7 315.9L289.5 317.8L290.2 317.8L291 316.9L291.8 325.4L292.6 315L293.4 318.8L294.1 324.2L294.9 325.7L295.7 327.3L296.5 327.3L297.3 329.6L298 329.6L298.8 330.3L299.6 332.4L300.4 335.8L301.2 336.7L302 334.4L302.7 331.7L303.5 335.8L304.3 341.7L305.1 342.3L305.9 342.9L306.6 344.9L307.4 341.2L308.2 344.9L309 344.9L309.8 344.9L310.5 343.9L311.3 344.9L312.1 345.4L312.9 342.3L313.7 347L314.4 344.9L315.2 346.5L316 347L316.8 348L317.6 348L318.3 348L319.1 348.9L319.9 350.2L320.7 350.6L321.5 351.5L322.2 352.7L323 353.1L323.8 353.1L324.6 353.1L325.4 352.3L326.1 353.1L326.9 350.2L327.7 352.3L328.5 352.3L329.3 356.2L330 357.6L330.8 357.6L331.6 357.6L332.4 357.6L333.2 357.6L334 357.6L334.7 357.6L335.5 357.6L336.3 357.6L337.1 357.6L337.9 358.4L338.6 359.1L339.4 359.1L340.2 359.1L341 359L341.8 358.8L342.5 358.6L343.3 358.3L344.1 358L344.9 357.6L345.7 357.2L346.4 356.7L347.2 356.2L348 355.5L348.8 354.8L349.6 354L350.3 353.2L351.1 352.3L351.9 351.3L352.7 350.2L353.5 349L354.2 347.7L355 346.4L355.8 344.9L356.6 343.4L357.4 341.8L358.1 340L358.9 338.2L359.7 336.2L360.5 334.2L361.3 332L362 329.7L362.8 327.3L363.6 324.8L364.4 322.2L365.2 319.5L366 316.6L366.7 313.6L367.5 301.7L368.3 288.7L369.1 288.1L369.9 284.5L370.6 283.5L371.4 284.5L372.2 287.5L373 288.1L373.8 289.9L374.5 292.5L375.3 294.8L376.1 293.4L376.9 299.4L377.7 304.9L378.4 301.7L379.2 306.9L380 309L380.8 310L381.6 310L382.3 313L383.1 312L383.9 313.7L384.7 316.9L385.5 318.5L386.2 316.9L387 315.9L387.8 317.8L388.6 319.8L389.4 322.6L390.1 324.2L390.9 326.5L391.7 328.8L392.5 331L393.3 331.7L394 335.8L394.8 341.7L395.6 337.1L396.4 340.6L397.2 341.2L398 343.9L398.7 341.7L399.5 342.3L400.3 342.9L401.1 342.9L401.9 341.2L402.6 341.2L403.4 339.4L404.2 344.7L405 343.2L405.8 341.7L406.5 342.3L407.3 343.4L408.1 343.9L408.9 344.4L409.7 345.9L410.4 347L411.2 347L412 347L412.8 349.7L413.6 350.2L414.3 347L415.1 355.8L415.9 352.7L416.7 353.5L417.5 353.1L418.2 353.1L419 354.3L419.8 353.9L420.6 350.6L421.4 350.6L422.1 350.2L422.9 350.2L423.7 350.6L424.5 350.2L425.3 350.6L426 350.2L426.8 351.5L427.6 350.6L428.4 353.5L429.2 353.1L430 352.7L430.7 353.1L431.5 353.9L432.3 357.5L433.1 354.3L433.9 355.8L434.6 359.8L435.4 355L436.2 355L437 355.8L437.8 358.8L438.5 359.3L439.3 359.6L440.1 360L440.9 360.3L441.7 360.6L442.4 360.9L443.2 361.1L444 361.4L444.8 361.6L445.6 361.7L446.3 361.9L447.1 362L447.9 362.1L448.7 362.2L449.5 362.3L450.2 362.4L451 362.4L451.8 362.5L452.6 362.5L453.4 362.5L454.1 362.5L454.9 362.5L455.7 360.6L456.5 363.3L457.3 360.9L458 361.2L458.8 361.7L459.6 362.4L460.4 362.8L461.2 363L462 363.1L462.7 363.3L463.5 363.4L464.3 363.5L465.1 363.6L465.9 363.7L466.6 363.8L467.4 363.9L468.2 364L469 364.1L469.8 364.2L470.5 364.3L471.3 364.5L472.1 364.6L472.9 364.7L473.7 364.9L474.4 365L475.2 365.2L476 365.4L476.8 365.5L477.6 365.7L478.3 365.8L479.1 366L479.9 366.1L480.7 366.3L481.5 366.4L482.2 366.5L483 366.6L483.8 366.7L484.6 366.8L485.4 366.9L486.1 366.9L486.9 367L487.7 367L488.5 367L489.3 366.6L490 365.5L490.8 364.3L491.6 363.2L492.4 362.8L493.2 362.9L494 363L494.7 363.1L495.5 363.1L496.3 363.2L497.1 363.2L497.9 363.2L498.6 363.3L499.4 363.3L500.2 363.3L501 363.4L501.8 363.4L502.5 363.4L503.3 363.4L504.1 363.5L504.9 363.5L505.7 363.5L506.4 363.5L507.2 363.5L508 363.5L508.8 363.5L509.6 363.5L510.3 363.5L511.1 363.5L511.9 363.3L512.7 362.5L513.5 362.5L514.2 362.6L515 362.7L515.8 362.9L516.6 363L517.4 363.3L518.1 363.5L518.9 363.8L519.7 364L520.5 364.3L521.3 364.7L522 365L522.8 365.3L523.6 365.7L524.4 366L525.2 366.4L526 366.7L526.7 367L527.5 367.3L528.3 367.7L529.1 367.9L529.9 368.2L530.6 368.5L531.4 368.7L532.2 368.9L533 369L533.8 369.2L534.5 369.2L535.3 369.3L536.1 369.3L536.9 369.3L537.7 369.3L538.4 369.3L539.2 369.3L540 369.3L540 370L539.2 370L538.4 370L537.7 370L536.9 370L536.1 370L535.3 370L534.5 370L533.8 370L533 370L532.2 370L531.4 370L530.6 370L529.9 370L529.1 370L528.3 370L527.5 370L526.7 370L526 370L525.2 370L524.4 370L523.6 370L522.8 370L522 370L521.3 370L520.5 370L519.7 370L518.9 370L518.1 370L517.4 370L516.6 370L515.8 370L515 370L514.2 370L513.5 370L512.7 370L511.9 370L511.1 370L510.3 370L509.6 370L508.8 370L508 370L507.2 370L506.4 370L505.7 370L504.9 370L504.1 370L503.3 370L502.5 370L501.8 370L501 370L500.2 370L499.4 370L498.6 370L497.9 370L497.1 370L496.3 370L495.5 370L494.7 370L494 370L493.2 370L492.4 370L491.6 370L490.8 370L490 370L489.3 370L488.5 370L487.7 370L486.9 370L486.1 370L485.4 370L484.6 370L483.8 370L483 370L482.2 370L481.5 370L480.7 370L479.9 370L479.1 370L478.3 370L477.6 370L476.8 370L476 370L475.2 370L474.4 370L473.7 370L472.9 370L472.1 370L471.3 370L470.5 370L469.8 370L469 370L468.2 370L467.4 370L466.6 370L465.9 370L465.1 370L464.3 370L463.5 370L462.7 370L462 370L461.2 370L460.4 370L459.6 370L458.8 370L458 370L457.3 370L456.5 370L455.7 370L454.9 370L454.1 370L453.4 370L452.6 370L451.8 370L451 370L450.2 370L449.5 370L448.7 370L447.9 370L447.1 370L446.3 370L445.6 370L444.8 370L444 370L443.2 370L442.4 370L441.7 370L440.9 370L440.1 370L439.3 370L438.5 370L437.8 370L437 370L436.2 370L435.4 370L434.6 370L433.9 370L433.1 370L432.3 370L431.5 370L430.7 370L430 370L429.2 370L428.4 370L427.6 370L426.8 370L426 370L425.3 370L424.5 370L423.7 370L422.9 370L422.1 370L421.4 370L420.6 370L419.8 370L419 370L418.2 370L417.5 370L416.7 370L415.9 370L415.1 370L414.3 370L413.6 370L412.8 370L412 370L411.2 370L410.4 370L409.7 370L408.9 370L408.1 370L407.3 370L406.5 370L405.8 370L405 370L404.2 370L403.4 370L402.6 370L401.9 370L401.1 370L400.3 370L399.5 370L398.7 370L398 370L397.2 370L396.4 370L395.6 370L394.8 370L394 370L393.3 370L392.5 370L391.7 370L390.9 370L390.1 370L389.4 370L388.6 370L387.8 370L387 370L386.2 370L385.5 370L384.7 370L383.9 370L383.1 370L382.3 370L381.6 370L380.8 370L380 370L379.2 370L378.4 370L377.7 370L376.9 370L376.1 370L375.3 370L374.5 370L373.8 370L373 370L372.2 370L371.4 370L370.6 370L369.9 370L369.1 370L368.3 370L367.5 370L366.7 370L366 370L365.2 370L364.4 370L363.6 370L362.8 370L362 370L361.3 370L360.5 370L359.7 370L358.9 370L358.1 370L357.4 370L356.6 370L355.8 370L355 370L354.2 370L353.5 370L352.7 370L351.9 370L351.1 370L350.3 370L349.6 370L348.8 370L348 370L347.2 370L346.4 370L345.7 370L344.9 370L344.1 370L343.3 370L342.5 370L341.8 370L341 370L340.2 370L339.4 370L338.6 370L337.9 370L337.1 370L336.3 370L335.5 370L334.7 370L334 370L333.2 370L332.4 370L331.6 370L330.8 370L330 370L329.3 370L328.5 370L327.7 370L326.9 370L326.1 370L325.4 370L324.6 370L323.8 370L323 370L322.2 370L321.5 370L320.7 370L319.9 370L319.1 370L318.3 370L317.6 370L316.8 370L316 370L315.2 370L314.4 370L313.7 370L312.9 370L312.1 370L311.3 370L310.5 370L309.8 370L309 370L308.2 370L307.4 370L306.6 370L305.9 370L305.1 370L304.3 370L303.5 370L302.7 370L302 370L301.2 370L300.4 370L299.6 370L298.8 370L298 370L297.3 370L296.5 370L295.7 370L294.9 370L294.1 370L293.4 370L292.6 370L291.8 370L291 370L290.2 370L289.5 370L288.7 370L287.9 370L287.1 370L286.3 370L285.6 370L284.8 370L284 370L283.2 370L282.4 370L281.7 370L280.9 370L280.1 370L279.3 370L278.5 370L277.8 370L277 370L276.2 370L275.4 370L274.6 370L273.9 370L273.1 370L272.3 370L271.5 370L270.7 370L270 370L269.2 370L268.4 370L267.6 370L266.8 370L266 370L265.3 370L264.5 370L263.7 370L262.9 370L262.1 370L261.4 370L260.6 370L259.8 370L259 370L258.2 370L257.5 370L256.7 370L255.9 370L255.1 370L254.3 370L253.6 370L252.8 370L252 370L251.2 370L250.4 370L249.7 370L248.9 370L248.1 370L247.3 370L246.5 370L245.8 370L245 370L244.2 370L243.4 370L242.6 370L241.9 370L241.1 370L240.3 370L239.5 370L238.7 370L238 370L237.2 370L236.4 370L235.6 370L234.8 370L234 370L233.3 370L232.5 370L231.7 370L230.9 370L230.1 370L229.4 370L228.6 370L227.8 370L227 370L226.2 370L225.5 370L224.7 370L223.9 370L223.1 370L222.3 370L221.6 370L220.8 370L220 370L219.2 370L218.4 370L217.7 370L216.9 370L216.1 370L215.3 370L214.5 370L213.8 370L213 370L212.2 370L211.4 370L210.6 370L209.9 370L209.1 370L208.3 370L207.5 370L206.7 370L206 370L205.2 370L204.4 370L203.6 370L202.8 370L202 370L201.3 370L200.5 370L199.7 370L198.9 370L198.1 370L197.4 370L196.6 370L195.8 370L195 370L194.2 370L193.5 370L192.7 370L191.9 370L191.1 370L190.3 370L189.6 370L188.8 370L188 370L187.2 370L186.4 370L185.7 370L184.9 370L184.1 370L183.3 370L182.5 370L181.8 370L181 370L180.2 370L179.4 370L178.6 370L177.9 370L177.1 370L176.3 370L175.5 370L174.7 370L174 370L173.2 370L172.4 370L171.6 370L170.8 370L170 370L169.3 370L168.5 370L167.7 370L166.9 370L166.1 370L165.4 370L164.6 370L163.8 370L163 370L162.2 370L161.5 370L160.7 370L159.9 370L159.1 370L158.3 370L157.6 370L156.8 370L156 370L155.2 370L154.4 370L153.7 370L152.9 370L152.1 370L151.3 370L150.5 370L149.8 370L149 370L148.2 370L147.4 370L146.6 370L145.9 370L145.1 370L144.3 370L143.5 370L142.7 370L142 370L141.2 370L140.4 370L139.6 370L138.8 370L138 370L137.3 370L136.5 370L135.7 370L134.9 370L134.1 370L133.4 370L132.6 370L131.8 370L131 370L130.2 370L129.5 370L128.7 370L127.9 370L127.1 370L126.3 370L125.6 370L124.8 370L124 370L123.2 370L122.4 370L121.7 370L120.9 370L120.1 370L119.3 370L118.5 370L117.8 370L117 370L116.2 370L115.4 370L114.6 370L113.9 370L113.1 370L112.3 370L111.5 370L110.7 370L110 370L109.2 370L108.4 370L107.6 370L106.8 370L106 370L105.3 370L104.5 370L103.7 370L102.9 370L102.1 370L101.4 370L100.6 370L99.8 370L99 370L98.2 370L97.5 370L96.7 370L95.9 370L95.1 370L94.3 370L93.6 370L92.8 370L92 370L91.2 370L90.4 370L89.7 370L88.9 370L88.1 370L87.3 370L86.5 370L85.8 370L85 370L84.2 370L83.4 370L82.6 370L81.9 370L81.1 370L80.3 370L79.5 370L78.7 370L78 370L77.2 370L76.4 370L75.6 370L74.8 370L74 370L73.3 370L72.5 370L71.7 370L70.9 370L70.1 370L69.4 370L68.6 370L67.8 370L67 370L66.2 370L65.5 370L64.7 370L63.9 370L63.1 370L62.3 370L61.6 370L60.8 370L60 370Z" fill="#5470c6" fill-opacity="0.7"></path>
</g>
<g clip-path="url(#zr35-c1)">
<path d="M60 60L60.8 60L61.6 60L62.3 60L63.1 60L63.9 60L64.7 60L65.5 60L66.2 60L67 60L67.8 60L68.6 60L69.4 60L70.1 60L70.9 60L71.7 60.9L72.5 61.3L73.3 61.9L74 62L74.8 64.7L75.6 73.3L76.4 76L77.2 76.5L78 80.7L78.7 99.6L79.5 111.8L80.3 72.2L81.1 61.3L81.9 61.3L82.6 61.3L83.4 63.6L84.2 64.2L85 60L85.8 60L86.5 60L87.3 60L88.1 60L88.9 60L89.7 60L90.4 60L91.2 60L92 60L92.8 60L93.6 60L94.3 60L95.1 60L95.9 60L96.7 60.1L97.5 61.3L98.2 61.3L99 61.3L99.8 61.3L100.6 61.2L101.4 60L102.1 60L102.9 60L103.7 60L104.5 60L105.3 60L106 60L106.8 60L107.6 60L108.4 60.8L109.2 61.3L110 61.3L110.7 61.3L111.5 61.3L112.3 60.9L113.1 61.3L113.9 61.3L114.6 61.3L115.4 61.3L116.2 60.9L117 60L117.8 60L118.5 60L119.3 60L120.1 60L120.9 60.2L121.7 62.4L122.4 65.1L123.2 67.2L124 68.7L124.8 69.5L125.6 75.7L126.3 65.3L127.1 63.2L127.9 61.7L128.7 60.9L129.5 60L130.2 60L131 60L131.8 60L132.6 60L133.4 60L134.1 60L134.9 60L135.7 60L136.5 60L137.3 60L138 60.2L138.8 60.4L139.6 60.9L140.4 61.6L141.2 61.6L142 61.5L142.7 62.6L143.5 62.3L144.3 62L145.1 62L145.9 62.6L146.6 67.4L147.4 61.9L148.2 61.9L149 61.9L149.8 61.8L150.5 61.5L151.3 61.4L152.1 61.4L152.9 61.4L153.7 60.9L154.4 62.3L155.2 63.5L156 63.4L156.8 63.4L157.6 63.4L158.3 61.7L159.1 60.7L159.9 61.9L160.7 62.6L161.5 62.6L162.2 62.6L163 61.9L163.8 60.7L164.6 60L165.4 60L166.1 60L166.9 60L167.7 60L168.5 60L169.3 60.2L170 61.3L170.8 61.3L171.6 61.3L172.4 61.3L173.2 61.1L174 60L174.7 60L175.5 60L176.3 60L177.1 60L177.9 62.5L178.6 62.5L179.4 62.5L180.2 62.5L181 62.5L181.8 60.4L182.5 60.6L183.3 60.7L184.1 61.1L184.9 61.1L185.7 60.7L186.4 60.4L187.2 60.3L188 60L188.8 60L189.6 60L190.3 60L191.1 60L191.9 60L192.7 60L193.5 60L194.2 60L195 60L195.8 60L196.6 60L197.4 60L198.1 60L198.9 60L199.7 60L200.5 60L201.3 60.5L202 60.7L202.8 60.7L203.6 60.7L204.4 60.7L205.2 63.3L206 64.9L206.7 66.5L207.5 67.6L208.3 67.8L209.1 76.5L209.9 85.9L210.6 89.7L211.4 93.3L212.2 94.7L213 99.6L213.8 122.1L214.5 124.7L215.3 187.3L216.1 185.1L216.9 175.9L217.7 175.9L218.4 174.4L219.2 142.8L220 97.3L220.8 77.1L221.6 69.2L222.3 67.7L223.1 65.4L223.9 65.6L224.7 64.9L225.5 65.9L226.2 70.8L227 75.9L227.8 81.7L228.6 83L229.4 83.3L230.1 97.1L230.9 128L231.7 145.1L232.5 184.9L233.3 186.2L234 190.7L234.8 190.7L235.6 186.4L236.4 178.4L237.2 204.3L238 192L238.7 178.7L239.5 230.2L240.3 90.6L241.1 92.2L241.9 95.1L242.6 116.4L243.4 131.1L244.2 136.4L245 150.7L245.8 228.3L246.5 293.4L247.3 285.4L248.1 315.8L248.9 166.7L249.7 120.3L250.4 121.9L251.2 133.4L252 140.5L252.8 128.1L253.6 118.9L254.3 166.3L255.1 189.7L255.9 189.7L256.7 190.2L257.5 201.3L258.2 199L259 150.1L259.8 120.7L260.6 76.7L261.4 71.8L262.1 71.8L262.9 71.8L263.7 63.8L264.5 60L265.3 60L266 60L266.8 69.1L267.6 69.8L268.4 69.8L269.2 69.8L270 69.8L270.7 69.8L271.5 60L272.3 60L273.1 60L273.9 60L274.6 60L275.4 60L276.2 60L277 60L277.8 60L278.5 60L279.3 60L280.1 60L280.9 60L281.7 60L282.4 60L283.2 60L284 60L284.8 60L285.6 60L286.3 60L287.1 60.2L287.9 60.4L288.7 60.4L289.5 60.4L290.2 60.4L291 60.2L291.8 60L292.6 60L293.4 60L294.1 60L294.9 60L295.7 60L296.5 60L297.3 60L298 60L298.8 60L299.6 60L300.4 60L301.2 60L302 60L302.7 60L303.5 60L304.3 60L305.1 60L305.9 60L306.6 60L307.4 60L308.2 60L309 60L309.8 60L310.5 60L311.3 60L312.1 60L312.9 60L313.7 60L314.4 60L315.2 60L316 60L316.8 60L317.6 60L318.3 60L319.1 60L319.9 60L320.7 60L321.5 60L322.2 60L323 60L323.8 60L324.6 60L325.4 60L326.1 60L326.9 60L327.7 60L328.5 60L329.3 60L330 60L330.8 60L331.6 60L332.4 60L333.2 60L334 60L334.7 60L335.5 60L336.3 60L337.1 60L337.9 60L338.6 60L339.4 60L340.2 60L341 83.9L341.8 88.2L342.5 88.2L343.3 88.2L344.1 88.2L344.9 64.9L345.7 60.8L346.4 60.8L347.2 60.8L348 60.9L348.8 61.2L349.6 61.2L350.3 68.5L351.1 102.6L351.9 123.9L352.7 123.9L353.5 124.2L354.2 167.7L355 170.7L355.8 164L356.6 170.8L357.4 186.8L358.1 193.1L358.9 225.5L359.7 230.7L360.5 307.3L361.3 294.2L362 183.1L362.8 126.7L363.6 122.5L364.4 110L365.2 106.1L366 105.6L366.7 103.2L367.5 102.8L368.3 158.5L369.1 114.9L369.9 112.5L370.6 108.7L371.4 115.3L372.2 75.7L373 70.3L373.8 64.7L374.5 64.8L375.3 61.4L376.1 60L376.9 60L377.7 60L378.4 60L379.2 60L380 60L380.8 60L381.6 60L382.3 60L383.1 60L383.9 60L384.7 60L385.5 60L386.2 60L387 60L387.8 60L388.6 60L389.4 60L390.1 60L390.9 60L391.7 60L392.5 60L393.3 60L394 60L394.8 60L395.6 60L396.4 60L397.2 60L398 60L398.7 60L399.5 60L400.3 60L401.1 60L401.9 60L402.6 60L403.4 60L404.2 60L405 60L405.8 60L406.5 60L407.3 60L408.1 60L408.9 60L409.7 60L410.4 60L411.2 60L412 60L412.8 60L413.6 60L414.3 60L415.1 60L415.9 60L416.7 60L417.5 60L418.2 60L419 60L419.8 60L420.6 60L421.4 60L422.1 60L422.9 60L423.7 60L424.5 60L425.3 60L426 60L426.8 60L427.6 60L428.4 60L429.2 60L430 60L430.7 60L431.5 60L432.3 60L433.1 60L433.9 60L434.6 60L435.4 60L436.2 60L437 60L437.8 60L438.5 60L439.3 60L440.1 60L440.9 60L441.7 60L442.4 60L443.2 60L444 60L444.8 60L445.6 60L446.3 60L447.1 60L447.9 60L448.7 60L449.5 60L450.2 60L451 60L451.8 60L452.6 60L453.4 60L454.1 60L454.9 60L455.7 60L456.5 60L457.3 60L458 60L458.8 60L459.6 60L460.4 60L461.2 60L462 60L462.7 60L463.5 60L464.3 60L465.1 60L465.9 60L466.6 60L467.4 60L468.2 60L469 60L469.8 60L470.5 60L471.3 60L472.1 60L472.9 60L473.7 60L474.4 60L475.2 60L476 60L476.8 60L477.6 60L478.3 60L479.1 60L479.9 60L480.7 60L481.5 60L482.2 60L483 60L483.8 60L484.6 60L485.4 60L486.1 60L486.9 60L487.7 60L488.5 60L489.3 60L490 60L490.8 60L491.6 60L492.4 60L493.2 60L494 60L494.7 60L495.5 60L496.3 60L497.1 60L497.9 60L498.6 60L499.4 60L500.2 60L501 60L501.8 60L502.5 60L503.3 60L504.1 60L504.9 60L505.7 60L506.4 60L507.2 60L508 60L508.8 60L509.6 60L510.3 60L511.1 60L511.9 60L512.7 60L513.5 60L514.2 60L515 60L515.8 60L516.6 60L517.4 60L518.1 60L518.9 60L519.7 60L520.5 60L521.3 60L522 60L522.8 60L523.6 60L524.4 60L525.2 60L526 60L526.7 60L527.5 60L528.3 60L529.1 60L529.9 60L530.6 60L531.4 60L532.2 60L533 60L533.8 60L534.5 60L535.3 60L536.1 60L536.9 60L537.7 60L538.4 60L539.2 60L540 60L539.2 60L538.4 60L537.7 60L536.9 60L536.1 60L535.3 60L534.5 60L533.8 60L533 60L532.2 60L531.4 60L530.6 60L529.9 60L529.1 60L528.3 60L527.5 60L526.7 60L526 60L525.2 60L524.4 60L523.6 60L522.8 60L522 60L521.3 60L520.5 60L519.7 60L518.9 60L518.1 60L517.4 60L516.6 60L515.8 60L515 60L514.2 60L513.5 60L512.7 60L511.9 60L511.1 60L510.3 60L509.6 60L508.8 60L508 60L507.2 60L506.4 60L505.7 60L504.9 60L504.1 60L503.3 60L502.5 60L501.8 60L501 60L500.2 60L499.4 60L498.6 60L497.9 60L497.1 60L496.3 60L495.5 60L494.7 60L494 60L493.2 60L492.4 60L491.6 60L490.8 60L490 60L489.3 60L488.5 60L487.7 60L486.9 60L486.1 60L485.4 60L484.6 60L483.8 60L483 60L482.2 60L481.5 60L480.7 60L479.9 60L479.1 60L478.3 60L477.6 60L476.8 60L476 60L475.2 60L474.4 60L473.7 60L472.9 60L472.1 60L471.3 60L470.5 60L469.8 60L469 60L468.2 60L467.4 60L466.6 60L465.9 60L465.1 60L464.3 60L463.5 60L462.7 60L462 60L461.2 60L460.4 60L459.6 60L458.8 60L458 60L457.3 60L456.5 60L455.7 60L454.9 60L454.1 60L453.4 60L452.6 60L451.8 60L451 60L450.2 60L449.5 60L448.7 60L447.9 60L447.1 60L446.3 60L445.6 60L444.8 60L444 60L443.2 60L442.4 60L441.7 60L440.9 60L440.1 60L439.3 60L438.5 60L437.8 60L437 60L436.2 60L435.4 60L434.6 60L433.9 60L433.1 60L432.3 60L431.5 60L430.7 60L430 60L429.2 60L428.4 60L427.6 60L426.8 60L426 60L425.3 60L424.5 60L423.7 60L422.9 60L422.1 60L421.4 60L420.6 60L419.8 60L419 60L418.2 60L417.5 60L416.7 60L415.9 60L415.1 60L414.3 60L413.6 60L412.8 60L412 60L411.2 60L410.4 60L409.7 60L408.9 60L408.1 60L407.3 60L406.5 60L405.8 60L405 60L404.2 60L403.4 60L402.6 60L401.9 60L401.1 60L400.3 60L399.5 60L398.7 60L398 60L397.2 60L396.4 60L395.6 60L394.8 60L394 60L393.3 60L392.5 60L391.7 60L390.9 60L390.1 60L389.4 60L388.6 60L387.8 60L387 60L386.2 60L385.5 60L384.7 60L383.9 60L383.1 60L382.3 60L381.6 60L380.8 60L380 60L379.2 60L378.4 60L377.7 60L376.9 60L376.1 60L375.3 60L374.5 60L373.8 60L373 60L372.2 60L371.4 60L370.6 60L369.9 60L369.1 60L368.3 60L367.5 60L366.7 60L366 60L365.2 60L364.4 60L363.6 60L362.8 60L362 60L361.3 60L360.5 60L359.7 60L358.9 60L358.1 60L357.4 60L356.6 60L355.8 60L355 60L354.2 60L353.5 60L352.7 60L351.9 60L351.1 60L350.3 60L349.6 60L348.8 60L348 60L347.2 60L346.4 60L345.7 60L344.9 60L344.1 60L343.3 60L342.5 60L341.8 60L341 60L340.2 60L339.4 60L338.6 60L337.9 60L337.1 60L336.3 60L335.5 60L334.7 60L334 60L333.2 60L332.4 60L331.6 60L330.8 60L330 60L329.3 60L328.5 60L327.7 60L326.9 60L326.1 60L325.4 60L324.6 60L323.8 60L323 60L322.2 60L321.5 60L320.7 60L319.9 60L319.1 60L318.3 60L317.6 60L316.8 60L316 60L315.2 60L314.4 60L313.7 60L312.9 60L312.1 60L311.3 60L310.5 60L309.8 60L309 60L308.2 60L307.4 60L306.6 60L305.9 60L305.1 60L304.3 60L303.5 60L302.7 60L302 60L301.2 60L300.4 60L299.6 60L298.8 60L298 60L297.3 60L296.5 60L295.7 60L294.9 60L294.1 60L293.4 60L292.6 60L291.8 60L291 60L290.2 60L289.5 60L288.7 60L287.9 60L287.1 60L286.3 60L285.6 60L284.8 60L284 60L283.2 60L282.4 60L281.7 60L280.9 60L280.1 60L279.3 60L278.5 60L277.8 60L277 60L276.2 60L275.4 60L274.6 60L273.9 60L273.1 60L272.3 60L271.5 60L270.7 60L270 60L269.2 60L268.4 60L267.6 60L266.8 60L266 60L265.3 60L264.5 60L263.7 60L262.9 60L262.1 60L261.4 60L260.6 60L259.8 60L259 60L258.2 60L257.5 60L256.7 60L255.9 60L255.1 60L254.3 60L253.6 60L252.8 60L252 60L251.2 60L250.4 60L249.7 60L248.9 60L248.1 60L247.3 60L246.5 60L245.8 60L245 60L244.2 60L243.4 60L242.6 60L241.9 60L241.1 60L240.3 60L239.5 60L238.7 60L238 60L237.2 60L236.4 60L235.6 60L234.8 60L234 60L233.3 60L232.5 60L231.7 60L230.9 60L230.1 60L229.4 60L228.6 60L227.8 60L227 60L226.2 60L225.5 60L224.7 60L223.9 60L223.1 60L222.3 60L221.6 60L220.8 60L220 60L219.2 60L218.4 60L217.7 60L216.9 60L216.1 60L215.3 60L214.5 60L213.8 60L213 60L212.2 60L211.4 60L210.6 60L209.9 60L209.1 60L208.3 60L207.5 60L206.7 60L206 60L205.2 60L204.4 60L203.6 60L202.8 60L202 60L201.3 60L200.5 60L199.7 60L198.9 60L198.1 60L197.4 60L196.6 60L195.8 60L195 60L194.2 60L193.5 60L192.7 60L191.9 60L191.1 60L190.3 60L189.6 60L188.8 60L188 60L187.2 60L186.4 60L185.7 60L184.9 60L184.1 60L183.3 60L182.5 60L181.8 60L181 60L180.2 60L179.4 60L178.6 60L177.9 60L177.1 60L176.3 60L175.5 60L174.7 60L174 60L173.2 60L172.4 60L171.6 60L170.8 60L170 60L169.3 60L168.5 60L167.7 60L166.9 60L166.1 60L165.4 60L164.6 60L163.8 60L163 60L162.2 60L161.5 60L160.7 60L159.9 60L159.1 60L158.3 60L157.6 60L156.8 60L156 60L155.2 60L154.4 60L153.7 60L152.9 60L152.1 60L151.3 60L150.5 60L149.8 60L149 60L148.2 60L147.4 60L146.6 60L145.9 60L145.1 60L144.3 60L143.5 60L142.7 60L142 60L141.2 60L140.4 60L139.6 60L138.8 60L138 60L137.3 60L136.5 60L135.7 60L134.9 60L134.1 60L133.4 60L132.6 60L131.8 60L131 60L130.2 60L129.5 60L128.7 60L127.9 60L127.1 60L126.3 60L125.6 60L124.8 60L124 60L123.2 60L122.4 60L121.7 60L120.9 60L120.1 60L119.3 60L118.5 60L117.8 60L117 60L116.2 60L115.4 60L114.6 60L113.9 60L113.1 60L112.3 60L111.5 60L110.7 60L110 60L109.2 60L108.4 60L107.6 60L106.8 60L106 60L105.3 60L104.5 60L103.7 60L102.9 60L102.1 60L101.4 60L100.6 60L99.8 60L99 60L98.2 60L97.5 60L96.7 60L95.9 60L95.1 60L94.3 60L93.6 60L92.8 60L92 60L91.2 60L90.4 60L89.7 60L88.9 60L88.1 60L87.3 60L86.5 60L85.8 60L85 60L84.2 60L83.4 60L82.6 60L81.9 60L81.1 60L80.3 60L79.5 60L78.7 60L78 60L77.2 60L76.4 60L75.6 60L74.8 60L74 60L73.3 60L72.5 60L71.7 60L70.9 60L70.1 60L69.4 60L68.6 60L67.8 60L67 60L66.2 60L65.5 60L64.7 60L63.9 60L63.1 60L62.3 60L61.6 60L60.8 60L60 60Z" fill="#91cc75" fill-opacity="0.7"></path>
</g>
<g clip-path="url(#zr35-c0)">
<path d="M60 366.2L60.8 366.2L61.6 366.3L62.3 366.4L63.1 366.5L63.9 366.6L64.7 366.6L65.5 366.7L66.2 366.8L67 366.9L67.8 367L68.6 367L69.4 367.1L70.1 367.2L70.9 367.3L71.7 367.4L72.5 367.5L73.3 367.6L74 367.6L74.8 367.7L75.6 367.7L76.4 367.7L77.2 367.7L78 367.7L78.7 367.7L79.5 367.7L80.3 367.7L81.1 367.7L81.9 367.7L82.6 367.7L83.4 367.7L84.2 367.7L85 367.7L85.8 367.7L86.5 367.8L87.3 367.8L88.1 367.8L88.9 367.9L89.7 368L90.4 368L91.2 368.1L92 368.2L92.8 368.3L93.6 368.3L94.3 368.3L95.1 368.4L95.9 368.4L96.7 368.4L97.5 368.4L98.2 368.4L99 368.4L99.8 368.4L100.6 368.4L101.4 368.4L102.1 368.4L102.9 368.4L103.7 368.4L104.5 368.4L105.3 368.4L106 368.4L106.8 368.5L107.6 368.5L108.4 368.6L109.2 368.7L110 368.8L110.7 368.8L111.5 368.9L112.3 369L113.1 369L113.9 369.1L114.6 369.1L115.4 369.1L116.2 369.1L117 369.2L117.8 369.2L118.5 369.2L119.3 369.2L120.1 369.3L120.9 369.3L121.7 369.3L122.4 369.3L123.2 369.4L124 369.4L124.8 369.4L125.6 369.4L126.3 369.4L127.1 369.5L127.9 369.5L128.7 369.5L129.5 369.5L130.2 369.5L131 369.5L131.8 369.6L132.6 369.6L133.4 369.6L134.1 369.6L134.9 369.6L135.7 369.6L136.5 369.6L137.3 369.6L138 369.6L138.8 369.6L139.6 369.6L140.4 369.6L141.2 369.6L142 369.6L142.7 369.6L143.5 369.6L144.3 369.6L145.1 369.6L145.9 369.6L146.6 369.5L147.4 369.5L148.2 369.5L149 369.5L149.8 369.5L150.5 369.5L151.3 369.4L152.1 369.4L152.9 369.4L153.7 369.4L154.4 369.5L155.2 369.5L156 369.5L156.8 369.5L157.6 369.5L158.3 369.5L159.1 369.5L159.9 369.5L160.7 369.5L161.5 369.5L162.2 369.5L163 369.5L163.8 369.5L164.6 369.5L165.4 369.5L166.1 369.5L166.9 369.5L167.7 369.5L168.5 369.5L169.3 369.5L170 369.5L170.8 369.5L171.6 369.5L172.4 369.5L173.2 369.5L174 369.5L174.7 369.5L175.5 369.5L176.3 369.5L177.1 369.5L177.9 369.5L178.6 369.5L179.4 369.5L180.2 369.5L181 369.5L181.8 369.5L182.5 369.5L183.3 369.5L184.1 369.5L184.9 369.5L185.7 369.5L186.4 369.5L187.2 369.5L188 369.5L188.8 369.5L189.6 369.5L190.3 369.5L191.1 369.5L191.9 369.5L192.7 369.5L193.5 369.5L194.2 369.5L195 369.5L195.8 369.5L196.6 369.5L197.4 369.5L198.1 369.5L198.9 369.5L199.7 369.5L200.5 369.5L201.3 369.5L202 369.5L202.8 369.5L203.6 369.5L204.4 369.5L205.2 369.5L206 369.5L206.7 369.5L207.5 369.5L208.3 369.5L209.1 369.5L209.9 369.4L210.6 369.4L211.4 369.4L212.2 369.4L213 369.4L213.8 369.4L214.5 369.4L215.3 369.4L216.1 369.4L216.9 369.3L217.7 369.3L218.4 369.3L219.2 369.3L220 369.3L220.8 369.2L221.6 369.2L222.3 369.2L223.1 369.2L223.9 369.2L224.7 369.1L225.5 369.1L226.2 369.1L227 369L227.8 368.7L228.6 368.3L229.4 367.7L230.1 366.9L230.9 366L231.7 365L232.5 363.7L233.3 362.3L234 360.8L234.8 359L235.6 357.1L236.4 352.7L237.2 352.3L238 351L238.7 346.5L239.5 342.3L240.3 337.1L241.1 325.7L241.9 297.1L242.6 282.5L243.4 274.4L244.2 268.9L245 269.3L245.8 277.5L246.5 276.5L247.3 279.5L248.1 278.5L248.9 277.5L249.7 273.3L250.4 258.8L251.2 211.9L252 142.1L252.8 122.6L253.6 115.5L254.3 87.1L255.1 98.1L255.9 100.6L256.7 100.6L257.5 118.1L258.2 113L259 122.6L259.8 131.3L260.6 131.3L261.4 131.3L262.1 131.3L262.9 140L263.7 137.5L264.5 152.2L265.3 154.2L266 160.3L266.8 160L267.6 173.5L268.4 189L269.2 200.1L270 209L270.7 210.4L271.5 211.9L272.3 223.1L273.1 231.4L273.9 235.6L274.6 246L275.4 250.3L276.2 256.9L277 257.6L277.8 261.1L278.5 268.9L279.3 272.2L280.1 279.5L280.9 282.5L281.7 287.5L282.4 291.3L283.2 293.7L284 305.9L284.8 317.8L285.6 308L286.3 311L287.1 314L287.9 315L288.7 315.9L289.5 317.8L290.2 317.8L291 316.9L291.8 325.4L292.6 315L293.4 318.8L294.1 324.2L294.9 325.7L295.7 327.3L296.5 327.3L297.3 329.6L298 329.6L298.8 330.3L299.6 332.4L300.4 335.8L301.2 336.7L302 334.4L302.7 331.7L303.5 335.8L304.3 341.7L305.1 342.3L305.9 342.9L306.6 344.9L307.4 341.2L308.2 344.9L309 344.9L309.8 344.9L310.5 343.9L311.3 344.9L312.1 345.4L312.9 342.3L313.7 347L314.4 344.9L315.2 346.5L316 347L316.8 348L317.6 348L318.3 348L319.1 348.9L319.9 350.2L320.7 350.6L321.5 351.5L322.2 352.7L323 353.1L323.8 353.1L324.6 353.1L325.4 352.3L326.1 353.1L326.9 350.2L327.7 352.3L328.5 352.3L329.3 356.2L330 357.6L330.8 357.6L331.6 357.6L332.4 357.6L333.2 357.6L334 357.6L334.7 357.6L335.5 357.6L336.3 357.6L337.1 357.6L337.9 358.4L338.6 359.1L339.4 359.1L340.2 359.1L341 359L341.8 358.8L342.5 358.6L343.3 358.3L344.1 358L344.9 357.6L345.7 357.2L346.4 356.7L347.2 356.2L348 355.5L348.8 354.8L349.6 354L350.3 353.2L351.1 352.3L351.9 351.3L352.7 350.2L353.5 349L354.2 347.7L355 346.4L355.8 344.9L356.6 343.4L357.4 341.8L358.1 340L358.9 338.2L359.7 336.2L360.5 334.2L361.3 332L362 329.7L362.8 327.3L363.6 324.8L364.4 322.2L365.2 319.5L366 316.6L366.7 313.6L367.5 301.7L368.3 288.7L369.1 288.1L369.9 284.5L370.6 283.5L371.4 284.5L372.2 287.5L373 288.1L373.8 289.9L374.5 292.5L375.3 294.8L376.1 293.4L376.9 299.4L377.7 304.9L378.4 301.7L379.2 306.9L380 309L380.8 310L381.6 310L382.3 313L383.1 312L383.9 313.7L384.7 316.9L385.5 318.5L386.2 316.9L387 315.9L387.8 317.8L388.6 319.8L389.4 322.6L390.1 324.2L390.9 326.5L391.7 328.8L392.5 331L393.3 331.7L394 335.8L394.8 341.7L395.6 337.1L396.4 340.6L397.2 341.2L398 343.9L398.7 341.7L399.5 342.3L400.3 342.9L401.1 342.9L401.9 341.2L402.6 341.2L403.4 339.4L404.2 344.7L405 343.2L405.8 341.7L406.5 342.3L407.3 343.4L408.1 343.9L408.9 344.4L409.7 345.9L410.4 347L411.2 347L412 347L412.8 349.7L413.6 350.2L414.3 347L415.1 355.8L415.9 352.7L416.7 353.5L417.5 353.1L418.2 353.1L419 354.3L419.8 353.9L420.6 350.6L421.4 350.6L422.1 350.2L422.9 350.2L423.7 350.6L424.5 350.2L425.3 350.6L426 350.2L426.8 351.5L427.6 350.6L428.4 353.5L429.2 353.1L430 352.7L430.7 353.1L431.5 353.9L432.3 357.5L433.1 354.3L433.9 355.8L434.6 359.8L435.4 355L436.2 355L437 355.8L437.8 358.8L438.5 359.3L439.3 359.6L440.1 360L440.9 360.3L441.7 360.6L442.4 360.9L443.2 361.1L444 361.4L444.8 361.6L445.6 361.7L446.3 361.9L447.1 362L447.9 362.1L448.7 362.2L449.5 362.3L450.2 362.4L451 362.4L451.8 362.5L452.6 362.5L453.4 362.5L454.1 362.5L454.9 362.5L455.7 360.6L456.5 363.3L457.3 360.9L458 361.2L458.8 361.7L459.6 362.4L460.4 362.8L461.2 363L462 363.1L462.7 363.3L463.5 363.4L464.3 363.5L465.1 363.6L465.9 363.7L466.6 363.8L467.4 363.9L468.2 364L469 364.1L469.8 364.2L470.5 364.3L471.3 364.5L472.1 364.6L472.9 364.7L473.7 364.9L474.4 365L475.2 365.2L476 365.4L476.8 365.5L477.6 365.7L478.3 365.8L479.1 366L479.9 366.1L480.7 366.3L481.5 366.4L482.2 366.5L483 366.6L483.8 366.7L484.6 366.8L485.4 366.9L486.1 366.9L486.9 367L487.7 367L488.5 367L489.3 366.6L490 365.5L490.8 364.3L491.6 363.2L492.4 362.8L493.2 362.9L494 363L494.7 363.1L495.5 363.1L496.3 363.2L497.1 363.2L497.9 363.2L498.6 363.3L499.4 363.3L500.2 363.3L501 363.4L501.8 363.4L502.5 363.4L503.3 363.4L504.1 363.5L504.9 363.5L505.7 363.5L506.4 363.5L507.2 363.5L508 363.5L508.8 363.5L509.6 363.5L510.3 363.5L511.1 363.5L511.9 363.3L512.7 362.5L513.5 362.5L514.2 362.6L515 362.7L515.8 362.9L516.6 363L517.4 363.3L518.1 363.5L518.9 363.8L519.7 364L520.5 364.3L521.3 364.7L522 365L522.8 365.3L523.6 365.7L524.4 366L525.2 366.4L526 366.7L526.7 367L527.5 367.3L528.3 367.7L529.1 367.9L529.9 368.2L530.6 368.5L531.4 368.7L532.2 368.9L533 369L533.8 369.2L534.5 369.2L535.3 369.3L536.1 369.3L536.9 369.3L537.7 369.3L538.4 369.3L539.2 369.3L540 369.3" fill="none" stroke="#5470c6" stroke-linejoin="bevel"></path>
</g>
<g clip-path="url(#zr35-c1)">
<path d="M60 60L60.8 60L61.6 60L62.3 60L63.1 60L63.9 60L64.7 60L65.5 60L66.2 60L67 60L67.8 60L68.6 60L69.4 60L70.1 60L70.9 60L71.7 60.9L72.5 61.3L73.3 61.9L74 62L74.8 64.7L75.6 73.3L76.4 76L77.2 76.5L78 80.7L78.7 99.6L79.5 111.8L80.3 72.2L81.1 61.3L81.9 61.3L82.6 61.3L83.4 63.6L84.2 64.2L85 60L85.8 60L86.5 60L87.3 60L88.1 60L88.9 60L89.7 60L90.4 60L91.2 60L92 60L92.8 60L93.6 60L94.3 60L95.1 60L95.9 60L96.7 60.1L97.5 61.3L98.2 61.3L99 61.3L99.8 61.3L100.6 61.2L101.4 60L102.1 60L102.9 60L103.7 60L104.5 60L105.3 60L106 60L106.8 60L107.6 60L108.4 60.8L109.2 61.3L110 61.3L110.7 61.3L111.5 61.3L112.3 60.9L113.1 61.3L113.9 61.3L114.6 61.3L115.4 61.3L116.2 60.9L117 60L117.8 60L118.5 60L119.3 60L120.1 60L120.9 60.2L121.7 62.4L122.4 65.1L123.2 67.2L124 68.7L124.8 69.5L125.6 75.7L126.3 65.3L127.1 63.2L127.9 61.7L128.7 60.9L129.5 60L130.2 60L131 60L131.8 60L132.6 60L133.4 60L134.1 60L134.9 60L135.7 60L136.5 60L137.3 60L138 60.2L138.8 60.4L139.6 60.9L140.4 61.6L141.2 61.6L142 61.5L142.7 62.6L143.5 62.3L144.3 62L145.1 62L145.9 62.6L146.6 67.4L147.4 61.9L148.2 61.9L149 61.9L149.8 61.8L150.5 61.5L151.3 61.4L152.1 61.4L152.9 61.4L153.7 60.9L154.4 62.3L155.2 63.5L156 63.4L156.8 63.4L157.6 63.4L158.3 61.7L159.1 60.7L159.9 61.9L160.7 62.6L161.5 62.6L162.2 62.6L163 61.9L163.8 60.7L164.6 60L165.4 60L166.1 60L166.9 60L167.7 60L168.5 60L169.3 60.2L170 61.3L170.8 61.3L171.6 61.3L172.4 61.3L173.2 61.1L174 60L174.7 60L175.5 60L176.3 60L177.1 60L177.9 62.5L178.6 62.5L179.4 62.5L180.2 62.5L181 62.5L181.8 60.4L182.5 60.6L183.3 60.7L184.1 61.1L184.9 61.1L185.7 60.7L186.4 60.4L187.2 60.3L188 60L188.8 60L189.6 60L190.3 60L191.1 60L191.9 60L192.7 60L193.5 60L194.2 60L195 60L195.8 60L196.6 60L197.4 60L198.1 60L198.9 60L199.7 60L200.5 60L201.3 60.5L202 60.7L202.8 60.7L203.6 60.7L204.4 60.7L205.2 63.3L206 64.9L206.7 66.5L207.5 67.6L208.3 67.8L209.1 76.5L209.9 85.9L210.6 89.7L211.4 93.3L212.2 94.7L213 99.6L213.8 122.1L214.5 124.7L215.3 187.3L216.1 185.1L216.9 175.9L217.7 175.9L218.4 174.4L219.2 142.8L220 97.3L220.8 77.1L221.6 69.2L222.3 67.7L223.1 65.4L223.9 65.6L224.7 64.9L225.5 65.9L226.2 70.8L227 75.9L227.8 81.7L228.6 83L229.4 83.3L230.1 97.1L230.9 128L231.7 145.1L232.5 184.9L233.3 186.2L234 190.7L234.8 190.7L235.6 186.4L236.4 178.4L237.2 204.3L238 192L238.7 178.7L239.5 230.2L240.3 90.6L241.1 92.2L241.9 95.1L242.6 116.4L243.4 131.1L244.2 136.4L245 150.7L245.8 228.3L246.5 293.4L247.3 285.4L248.1 315.8L248.9 166.7L249.7 120.3L250.4 121.9L251.2 133.4L252 140.5L252.8 128.1L253.6 118.9L254.3 166.3L255.1 189.7L255.9 189.7L256.7 190.2L257.5 201.3L258.2 199L259 150.1L259.8 120.7L260.6 76.7L261.4 71.8L262.1 71.8L262.9 71.8L263.7 63.8L264.5 60L265.3 60L266 60L266.8 69.1L267.6 69.8L268.4 69.8L269.2 69.8L270 69.8L270.7 69.8L271.5 60L272.3 60L273.1 60L273.9 60L274.6 60L275.4 60L276.2 60L277 60L277.8 60L278.5 60L279.3 60L280.1 60L280.9 60L281.7 60L282.4 60L283.2 60L284 60L284.8 60L285.6 60L286.3 60L287.1 60.2L287.9 60.4L288.7 60.4L289.5 60.4L290.2 60.4L291 60.2L291.8 60L292.6 60L293.4 60L294.1 60L294.9 60L295.7 60L296.5 60L297.3 60L298 60L298.8 60L299.6 60L300.4 60L301.2 60L302 60L302.7 60L303.5 60L304.3 60L305.1 60L305.9 60L306.6 60L307.4 60L308.2 60L309 60L309.8 60L310.5 60L311.3 60L312.1 60L312.9 60L313.7 60L314.4 60L315.2 60L316 60L316.8 60L317.6 60L318.3 60L319.1 60L319.9 60L320.7 60L321.5 60L322.2 60L323 60L323.8 60L324.6 60L325.4 60L326.1 60L326.9 60L327.7 60L328.5 60L329.3 60L330 60L330.8 60L331.6 60L332.4 60L333.2 60L334 60L334.7 60L335.5 60L336.3 60L337.1 60L337.9 60L338.6 60L339.4 60L340.2 60L341 83.9L341.8 88.2L342.5 88.2L343.3 88.2L344.1 88.2L344.9 64.9L345.7 60.8L346.4 60.8L347.2 60.8L348 60.9L348.8 61.2L349.6 61.2L350.3 68.5L351.1 102.6L351.9 123.9L352.7 123.9L353.5 124.2L354.2 167.7L355 170.7L355.8 164L356.6 170.8L357.4 186.8L358.1 193.1L358.9 225.5L359.7 230.7L360.5 307.3L361.3 294.2L362 183.1L362.8 126.7L363.6 122.5L364.4 110L365.2 106.1L366 105.6L366.7 103.2L367.5 102.8L368.3 158.5L369.1 114.9L369.9 112.5L370.6 108.7L371.4 115.3L372.2 75.7L373 70.3L373.8 64.7L374.5 64.8L375.3 61.4L376.1 60L376.9 60L377.7 60L378.4 60L379.2 60L380 60L380.8 60L381.6 60L382.3 60L383.1 60L383.9 60L384.7 60L385.5 60L386.2 60L387 60L387.8 60L388.6 60L389.4 60L390.1 60L390.9 60L391.7 60L392.5 60L393.3 60L394 60L394.8 60L395.6 60L396.4 60L397.2 60L398 60L398.7 60L399.5 60L400.3 60L401.1 60L401.9 60L402.6 60L403.4 60L404.2 60L405 60L405.8 60L406.5 60L407.3 60L408.1 60L408.9 60L409.7 60L410.4 60L411.2 60L412 60L412.8 60L413.6 60L414.3 60L415.1 60L415.9 60L416.7 60L417.5 60L418.2 60L419 60L419.8 60L420.6 60L421.4 60L422.1 60L422.9 60L423.7 60L424.5 60L425.3 60L426 60L426.8 60L427.6 60L428.4 60L429.2 60L430 60L430.7 60L431.5 60L432.3 60L433.1 60L433.9 60L434.6 60L435.4 60L436.2 60L437 60L437.8 60L438.5 60L439.3 60L440.1 60L440.9 60L441.7 60L442.4 60L443.2 60L444 60L444.8 60L445.6 60L446.3 60L447.1 60L447.9 60L448.7 60L449.5 60L450.2 60L451 60L451.8 60L452.6 60L453.4 60L454.1 60L454.9 60L455.7 60L456.5 60L457.3 60L458 60L458.8 60L459.6 60L460.4 60L461.2 60L462 60L462.7 60L463.5 60L464.3 60L465.1 60L465.9 60L466.6 60L467.4 60L468.2 60L469 60L469.8 60L470.5 60L471.3 60L472.1 60L472.9 60L473.7 60L474.4 60L475.2 60L476 60L476.8 60L477.6 60L478.3 60L479.1 60L479.9 60L480.7 60L481.5 60L482.2 60L483 60L483.8 60L484.6 60L485.4 60L486.1 60L486.9 60L487.7 60L488.5 60L489.3 60L490 60L490.8 60L491.6 60L492.4 60L493.2 60L494 60L494.7 60L495.5 60L496.3 60L497.1 60L497.9 60L498.6 60L499.4 60L500.2 60L501 60L501.8 60L502.5 60L503.3 60L504.1 60L504.9 60L505.7 60L506.4 60L507.2 60L508 60L508.8 60L509.6 60L510.3 60L511.1 60L511.9 60L512.7 60L513.5 60L514.2 60L515 60L515.8 60L516.6 60L517.4 60L518.1 60L518.9 60L519.7 60L520.5 60L521.3 60L522 60L522.8 60L523.6 60L524.4 60L525.2 60L526 60L526.7 60L527.5 60L528.3 60L529.1 60L529.9 60L530.6 60L531.4 60L532.2 60L533 60L533.8 60L534.5 60L535.3 60L536.1 60L536.9 60L537.7 60L538.4 60L539.2 60L540 60" fill="none" stroke="#91cc75" stroke-linejoin="bevel"></path>
</g>
<path d="M1 0A1 1 0 1 1 1 -0.1A1 1 0 0 1 1 0" transform="matrix(2,0,0,2,113.8537,369.07)" fill="#fff" stroke="#5470c6"></path>
<path d="M1 0A1 1 0 1 1 1 -0.1A1 1 0 0 1 1 0" transform="matrix(2,0,0,2,184.0976,369.504)" fill="#fff" stroke="#5470c6"></path>
<path d="M1 0A1 1 0 1 1 1 -0.1A1 1 0 0 1 1 0" transform="matrix(2,0,0,2,254.3415,87.125)" fill="#fff" stroke="#5470c6"></path>
<path d="M1 0A1 1 0 1 1 1 -0.1A1 1 0 0 1 1 0" transform="matrix(2,0,0,2,324.5854,353.105)" fill="#fff" stroke="#5470c6"></path>
<path d="M1 0A1 1 0 1 1 1 -0.1A1 1 0 0 1 1 0" transform="matrix(2,0,0,2,394.8293,341.7125)" fill="#fff" stroke="#5470c6"></path>
<path d="M1 0A1 1 0 1 1 1 -0.1A1 1 0 0 1 1 0" transform="matrix(2,0,0,2,465.0732,363.6295)" fill="#fff" stroke="#5470c6"></path>
<path d="M1 0A1 1 0 1 1 1 -0.1A1 1 0 0 1 1 0" transform="matrix(2,0,0,2,535.3171,369.2715)" fill="#fff" stroke="#5470c6"></path>
<path d="M1 0A1 1 0 1 1 1 -0.1A1 1 0 0 1 1 0" transform="matrix(2,0,0,2,113.8537,61.3175)" fill="#fff" stroke="#91cc75"></path>
<path d="M1 0A1 1 0 1 1 1 -0.1A1 1 0 0 1 1 0" transform="matrix(2,0,0,2,184.0976,61.085)" fill="#fff" stroke="#91cc75"></path>
<path d="M1 0A1 1 0 1 1 1 -0.1A1 1 0 0 1 1 0" transform="matrix(2,0,0,2,254.3415,166.33)" fill="#fff" stroke="#91cc75"></path>
<path d="M1 0A1 1 0 1 1 1 -0.1A1 1 0 0 1 1 0" transform="matrix(2,0,0,2,324.5854,60)" fill="#fff" stroke="#91cc75"></path>
<path d="M1 0A1 1 0 1 1 1 -0.1A1 1 0 0 1 1 0" transform="matrix(2,0,0,2,394.8293,60)" fill="#fff" stroke="#91cc75"></path>
<path d="M1 0A1 1 0 1 1 1 -0.1A1 1 0 0 1 1 0" transform="matrix(2,0,0,2,465.0732,60)" fill="#fff" stroke="#91cc75"></path>
<path d="M1 0A1 1 0 1 1 1 -0.1A1 1 0 0 1 1 0" transform="matrix(2,0,0,2,535.3171,60)" fill="#fff" stroke="#91cc75"></path>
<path d="M0 0l480 0l0 30l-480 0Z" transform="matrix(1,0,0,-1,62.8,442.5)" fill="rgb(47,69,84)" fill-opacity="0"></path>
<g clip-path="url(#zr35-c2)">
<polygon points="480 0 0 0 0 5.7 0.9 5.7 1.9 5.7 2.8 5.7 3.7 5.7 4.7 5.7 5.6 5.7 6.5 5.7 7.5 5.7 8.4 5.7 9.4 5.7 10.3 5.7 11.2 5.7 12.2 5.7 13.1 5.7 14 5.7 15 5.7 15.9 5.7 16.8 5.7 17.8 5.7 18.7 5.7 19.6 5.7 20.6 5.7 21.5 5.6 22.5 5.6 23.4 5.6 24.3 5.6 25.3 5.6 26.2 5.7 27.1 5.7 28.1 5.7 29 5.7 29.9 5.7 30.9 5.7 31.8 5.7 32.7 5.7 33.7 5.7 34.6 5.7 35.6 5.7 36.5 5.7 37.4 5.7 38.4 5.7 39.3 5.7 40.2 5.7 41.2 5.7 42.1 5.7 43 5.7 44 5.7 44.9 5.7 45.8 5.6 46.8 5.6 47.7 5.6 48.7 5.6 49.6 5.6 50.5 5.6 51.5 5.6 52.4 5.6 53.3 5.6 54.3 5.6 55.2 5.6 56.1 5.6 57.1 5.6 58 5.6 58.9 5.6 59.9 5.6 60.8 5.6 61.8 5.6 62.7 5.6 63.6 5.6 64.6 5.6 65.5 5.6 66.4 5.6 67.4 5.6 68.3 5.6 69.2 5.6 70.2 5.6 71.1 5.6 72 5.6 73 5.6 73.9 5.6 74.9 5.6 75.8 5.6 76.7 5.6 77.7 5.6 78.6 5.6 79.5 5.6 80.5 5.6 81.4 5.6 82.3 5.7 83.3 5.8 84.2 5.8 85.1 5.8 86.1 5.7 87 5.7 88 5.7 88.9 5.7 89.8 5.7 90.8 5.7 91.7 5.7 92.6 5.7 93.6 5.7 94.5 5.6 95.4 5.6 96.4 5.6 97.3 5.6 98.2 5.6 99.2 5.6 100.1 5.6 101.1 5.6 102 5.6 102.9 5.6 103.9 5.6 104.8 5.6 105.7 5.6 106.7 5.6 107.6 5.6 108.5 5.6 109.5 5.6 110.4 5.6 111.3 5.6 112.3 5.6 113.2 5.6 114.2 5.6 115.1 5.6 116 5.6 117 5.6 117.9 5.6 118.8 5.6 119.8 5.6 120.7 5.6 121.6 5.6 122.6 5.6 123.5 5.6 124.4 5.6 125.4 5.6 126.3 5.6 127.3 5.6 128.2 5.6 129.1 5.6 130.1 5.6 131 5.6 131.9 5.6 132.9 5.6 133.8 5.6 134.7 5.6 135.7 5.7 136.6 5.7 137.5 5.7 138.5 5.7 139.4 5.6 140.4 5.6 141.3 5.6 142.2 5.6 143.2 5.6 144.1 5.6 145 5.6 146 5.6 146.9 5.6 147.8 5.6 148.8 5.6 149.7 5.6 150.6 5.6 151.6 5.6 152.5 5.6 153.5 5.6 154.4 5.6 155.3 5.6 156.3 5.6 157.2 5.6 158.1 5.6 159.1 5.6 160 5.6 160.9 5.6 161.9 5.6 162.8 5.6 163.7 5.6 164.7 5.6 165.6 5.6 166.5 5.6 167.5 5.6 168.4 5.6 169.4 5.7 170.3 5.7 171.2 5.7 172.2 5.7 173.1 5.7 174 5.7 175 5.7 175.9 5.6 176.8 5.6 177.8 5.6 178.7 5.6 179.6 5.6 180.6 5.6 181.5 5.7 182.5 5.7 183.4 5.7 184.3 5.7 185.3 5.7 186.2 5.7 187.1 5.7 188.1 5.7 189 5.7 189.9 5.8 190.9 5.8 191.8 5.9 192.7 5.9 193.7 6 194.6 6.1 195.6 6.2 196.5 13.1 197.4 16.5 198.4 12.1 199.3 10.8 200.2 8.7 201.2 8 202.1 7.4 203 6.9 204 6.9 204.9 6.9 205.8 6.6 206.8 6.3 207.7 6.4 208.7 6.4 209.6 6.5 210.5 6.5 211.5 6.2 212.4 5.8 213.3 5.7 214.3 5.7 215.2 5.7 216.1 5.7 217.1 5.7 218 5.7 218.9 5.7 219.9 5.7 220.8 5.7 221.8 5.7 222.7 5.7 223.6 5.7 224.6 5.7 225.5 5.7 226.4 5.6 227.4 5.6 228.3 5.6 229.2 5.6 230.2 5.6 231.1 5.6 232 5.6 233 5.6 233.9 5.6 234.9 5.6 235.8 5.6 236.7 5.6 237.7 5.6 238.6 5.6 239.5 5.6 240.5 5.6 241.4 5.6 242.3 5.6 243.3 5.6 244.2 5.6 245.1 5.6 246.1 5.7 247 5.8 248 5.9 248.9 7 249.8 8 250.8 7.4 251.7 6.8 252.6 6.8 253.6 7 254.5 8.1 255.4 16.5 256.4 14.4 257.3 13 258.2 10.7 259.2 9 260.1 8.2 261.1 11.2 262 11.8 262.9 10.7 263.9 10.7 264.8 10.7 265.7 15.2 266.7 12.6 267.6 11.3 268.5 10.4 269.5 9.7 270.4 9 271.3 8.5 272.3 8.1 273.2 7.4 274.2 7 275.1 7 276 7 277 6.9 277.9 6.8 278.8 6.7 279.8 6.6 280.7 6.6 281.6 6.5 282.6 6.5 283.5 6.4 284.4 6.3 285.4 6.3 286.3 6.2 287.3 6.2 288.2 6.1 289.1 6 290.1 6 291 6 291.9 6.4 292.9 7 293.8 7.3 294.7 7.5 295.7 7.6 296.6 7.7 297.5 7.5 298.5 7.1 299.4 6.7 300.4 6.5 301.3 6.5 302.2 6.5 303.2 6.4 304.1 6.3 305 6.2 306 6.1 306.9 6.1 307.8 6 308.8 6 309.7 5.9 310.6 5.9 311.6 5.9 312.5 5.8 313.5 5.8 314.4 5.8 315.3 5.8 316.3 5.8 317.2 5.8 318.1 5.7 319.1 5.7 320 5.7 320.9 5.7 321.9 5.7 322.8 5.7 323.7 5.7 324.7 5.6 325.6 5.6 326.5 5.6 327.5 5.6 328.4 5.6 329.4 5.6 330.3 5.6 331.2 5.6 332.2 5.6 333.1 5.6 334 5.6 335 5.6 335.9 5.6 336.8 5.6 337.8 5.6 338.7 5.6 339.6 5.6 340.6 5.6 341.5 5.6 342.5 5.6 343.4 5.6 344.3 5.7 345.3 5.7 346.2 5.9 347.1 6.5 348.1 7.8 349 12.3 349.9 12 350.9 24.4 351.8 22 352.7 21 353.7 17.6 354.6 14.8 355.6 12.8 356.5 10.8 357.4 9.3 358.4 8.6 359.3 8.4 360.2 7.8 361.2 7.4 362.1 7.3 363 7.2 364 6.9 364.9 6.7 365.8 6.5 366.8 6.4 367.7 6.3 368.7 6.4 369.6 6.6 370.5 6.9 371.5 7.5 372.4 8.3 373.3 9.3 374.3 11.3 375.2 10.7 376.1 9.6 377.1 9 378 8.6 378.9 7.5 379.9 7.4 380.8 7.3 381.8 7.3 382.7 6.9 383.6 6.7 384.6 6.9 385.5 6.9 386.4 6.4 387.4 6.5 388.3 6.2 389.2 6.1 390.2 6.1 391.1 6.2 392 6.1 393 6 393.9 6 394.9 5.9 395.8 5.9 396.7 5.8 397.7 5.8 398.6 6.1 399.5 6.1 400.5 6 401.4 6 402.3 6.1 403.3 6.1 404.2 6 405.1 5.8 406.1 5.7 407 5.7 408 5.6 408.9 5.6 409.8 5.6 410.8 5.6 411.7 5.6 412.6 5.6 413.6 5.6 414.5 5.6 415.4 5.6 416.4 5.6 417.3 5.6 418.2 5.6 419.2 5.6 420.1 5.6 421.1 5.6 422 5.6 422.9 5.6 423.9 5.6 424.8 5.6 425.7 5.6 426.7 5.6 427.6 5.6 428.5 5.6 429.5 5.6 430.4 5.6 431.3 5.6 432.3 5.6 433.2 5.6 434.2 5.6 435.1 5.6 436 5.6 437 5.6 437.9 5.6 438.8 5.6 439.8 5.6 440.7 5.6 441.6 5.6 442.6 5.6 443.5 5.6 444.4 5.6 445.4 5.6 446.3 5.6 447.3 5.6 448.2 5.6 449.1 5.6 450.1 5.6 451 5.6 451.9 5.7 452.9 5.7 453.8 5.7 454.7 5.7 455.7 5.6 456.6 5.6 457.5 5.6 458.5 5.6 459.4 5.6 460.4 5.6 461.3 5.6 462.2 5.6 463.2 5.6 464.1 5.6 465 5.6 466 5.6 466.9 5.6 467.8 5.6 468.8 5.6 469.7 5.6 470.6 5.6 471.6 5.6 472.5 5.6 473.5 5.6 474.4 5.6 475.3 5.6 476.3 5.6 477.2 5.6 478.1 5.6 479.1 5.6 480 5.6" transform="matrix(1,0,0,-1,62.8,442.5)" fill="#d2dbee" fill-opacity="0.2"></polygon>
</g>
<g clip-path="url(#zr35-c3)">
<polygon points="480 0 0 0 0 5.7 0.9 5.7 1.9 5.7 2.8 5.7 3.7 5.7 4.7 5.7 5.6 5.7 6.5 5.7 7.5 5.7 8.4 5.7 9.4 5.7 10.3 5.7 11.2 5.7 12.2 5.7 13.1 5.7 14 5.7 15 5.7 15.9 5.7 16.8 5.7 17.8 5.7 18.7 5.7 19.6 5.7 20.6 5.7 21.5 5.6 22.5 5.6 23.4 5.6 24.3 5.6 25.3 5.6 26.2 5.7 27.1 5.7 28.1 5.7 29 5.7 29.9 5.7 30.9 5.7 31.8 5.7 32.7 5.7 33.7 5.7 34.6 5.7 35.6 5.7 36.5 5.7 37.4 5.7 38.4 5.7 39.3 5.7 40.2 5.7 41.2 5.7 42.1 5.7 43 5.7 44 5.7 44.9 5.7 45.8 5.6 46.8 5.6 47.7 5.6 48.7 5.6 49.6 5.6 50.5 5.6 51.5 5.6 52.4 5.6 53.3 5.6 54.3 5.6 55.2 5.6 56.1 5.6 57.1 5.6 58 5.6 58.9 5.6 59.9 5.6 60.8 5.6 61.8 5.6 62.7 5.6 63.6 5.6 64.6 5.6 65.5 5.6 66.4 5.6 67.4 5.6 68.3 5.6 69.2 5.6 70.2 5.6 71.1 5.6 72 5.6 73 5.6 73.9 5.6 74.9 5.6 75.8 5.6 76.7 5.6 77.7 5.6 78.6 5.6 79.5 5.6 80.5 5.6 81.4 5.6 82.3 5.7 83.3 5.8 84.2 5.8 85.1 5.8 86.1 5.7 87 5.7 88 5.7 88.9 5.7 89.8 5.7 90.8 5.7 91.7 5.7 92.6 5.7 93.6 5.7 94.5 5.6 95.4 5.6 96.4 5.6 97.3 5.6 98.2 5.6 99.2 5.6 100.1 5.6 101.1 5.6 102 5.6 102.9 5.6 103.9 5.6 104.8 5.6 105.7 5.6 106.7 5.6 107.6 5.6 108.5 5.6 109.5 5.6 110.4 5.6 111.3 5.6 112.3 5.6 113.2 5.6 114.2 5.6 115.1 5.6 116 5.6 117 5.6 117.9 5.6 118.8 5.6 119.8 5.6 120.7 5.6 121.6 5.6 122.6 5.6 123.5 5.6 124.4 5.6 125.4 5.6 126.3 5.6 127.3 5.6 128.2 5.6 129.1 5.6 130.1 5.6 131 5.6 131.9 5.6 132.9 5.6 133.8 5.6 134.7 5.6 135.7 5.7 136.6 5.7 137.5 5.7 138.5 5.7 139.4 5.6 140.4 5.6 141.3 5.6 142.2 5.6 143.2 5.6 144.1 5.6 145 5.6 146 5.6 146.9 5.6 147.8 5.6 148.8 5.6 149.7 5.6 150.6 5.6 151.6 5.6 152.5 5.6 153.5 5.6 154.4 5.6 155.3 5.6 156.3 5.6 157.2 5.6 158.1 5.6 159.1 5.6 160 5.6 160.9 5.6 161.9 5.6 162.8 5.6 163.7 5.6 164.7 5.6 165.6 5.6 166.5 5.6 167.5 5.6 168.4 5.6 169.4 5.7 170.3 5.7 171.2 5.7 172.2 5.7 173.1 5.7 174 5.7 175 5.7 175.9 5.6 176.8 5.6 177.8 5.6 178.7 5.6 179.6 5.6 180.6 5.6 181.5 5.7 182.5 5.7 183.4 5.7 184.3 5.7 185.3 5.7 186.2 5.7 187.1 5.7 188.1 5.7 189 5.7 189.9 5.8 190.9 5.8 191.8 5.9 192.7 5.9 193.7 6 194.6 6.1 195.6 6.2 196.5 13.1 197.4 16.5 198.4 12.1 199.3 10.8 200.2 8.7 201.2 8 202.1 7.4 203 6.9 204 6.9 204.9 6.9 205.8 6.6 206.8 6.3 207.7 6.4 208.7 6.4 209.6 6.5 210.5 6.5 211.5 6.2 212.4 5.8 213.3 5.7 214.3 5.7 215.2 5.7 216.1 5.7 217.1 5.7 218 5.7 218.9 5.7 219.9 5.7 220.8 5.7 221.8 5.7 222.7 5.7 223.6 5.7 224.6 5.7 225.5 5.7 226.4 5.6 227.4 5.6 228.3 5.6 229.2 5.6 230.2 5.6 231.1 5.6 232 5.6 233 5.6 233.9 5.6 234.9 5.6 235.8 5.6 236.7 5.6 237.7 5.6 238.6 5.6 239.5 5.6 240.5 5.6 241.4 5.6 242.3 5.6 243.3 5.6 244.2 5.6 245.1 5.6 246.1 5.7 247 5.8 248 5.9 248.9 7 249.8 8 250.8 7.4 251.7 6.8 252.6 6.8 253.6 7 254.5 8.1 255.4 16.5 256.4 14.4 257.3 13 258.2 10.7 259.2 9 260.1 8.2 261.1 11.2 262 11.8 262.9 10.7 263.9 10.7 264.8 10.7 265.7 15.2 266.7 12.6 267.6 11.3 268.5 10.4 269.5 9.7 270.4 9 271.3 8.5 272.3 8.1 273.2 7.4 274.2 7 275.1 7 276 7 277 6.9 277.9 6.8 278.8 6.7 279.8 6.6 280.7 6.6 281.6 6.5 282.6 6.5 283.5 6.4 284.4 6.3 285.4 6.3 286.3 6.2 287.3 6.2 288.2 6.1 289.1 6 290.1 6 291 6 291.9 6.4 292.9 7 293.8 7.3 294.7 7.5 295.7 7.6 296.6 7.7 297.5 7.5 298.5 7.1 299.4 6.7 300.4 6.5 301.3 6.5 302.2 6.5 303.2 6.4 304.1 6.3 305 6.2 306 6.1 306.9 6.1 307.8 6 308.8 6 309.7 5.9 310.6 5.9 311.6 5.9 312.5 5.8 313.5 5.8 314.4 5.8 315.3 5.8 316.3 5.8 317.2 5.8 318.1 5.7 319.1 5.7 320 5.7 320.9 5.7 321.9 5.7 322.8 5.7 323.7 5.7 324.7 5.6 325.6 5.6 326.5 5.6 327.5 5.6 328.4 5.6 329.4 5.6 330.3 5.6 331.2 5.6 332.2 5.6 333.1 5.6 334 5.6 335 5.6 335.9 5.6 336.8 5.6 337.8 5.6 338.7 5.6 339.6 5.6 340.6 5.6 341.5 5.6 342.5 5.6 343.4 5.6 344.3 5.7 345.3 5.7 346.2 5.9 347.1 6.5 348.1 7.8 349 12.3 349.9 12 350.9 24.4 351.8 22 352.7 21 353.7 17.6 354.6 14.8 355.6 12.8 356.5 10.8 357.4 9.3 358.4 8.6 359.3 8.4 360.2 7.8 361.2 7.4 362.1 7.3 363 7.2 364 6.9 364.9 6.7 365.8 6.5 366.8 6.4 367.7 6.3 368.7 6.4 369.6 6.6 370.5 6.9 371.5 7.5 372.4 8.3 373.3 9.3 374.3 11.3 375.2 10.7 376.1 9.6 377.1 9 378 8.6 378.9 7.5 379.9 7.4 380.8 7.3 381.8 7.3 382.7 6.9 383.6 6.7 384.6 6.9 385.5 6.9 386.4 6.4 387.4 6.5 388.3 6.2 389.2 6.1 390.2 6.1 391.1 6.2 392 6.1 393 6 393.9 6 394.9 5.9 395.8 5.9 396.7 5.8 397.7 5.8 398.6 6.1 399.5 6.1 400.5 6 401.4 6 402.3 6.1 403.3 6.1 404.2 6 405.1 5.8 406.1 5.7 407 5.7 408 5.6 408.9 5.6 409.8 5.6 410.8 5.6 411.7 5.6 412.6 5.6 413.6 5.6 414.5 5.6 415.4 5.6 416.4 5.6 417.3 5.6 418.2 5.6 419.2 5.6 420.1 5.6 421.1 5.6 422 5.6 422.9 5.6 423.9 5.6 424.8 5.6 425.7 5.6 426.7 5.6 427.6 5.6 428.5 5.6 429.5 5.6 430.4 5.6 431.3 5.6 432.3 5.6 433.2 5.6 434.2 5.6 435.1 5.6 436 5.6 437 5.6 437.9 5.6 438.8 5.6 439.8 5.6 440.7 5.6 441.6 5.6 442.6 5.6 443.5 5.6 444.4 5.6 445.4 5.6 446.3 5.6 447.3 5.6 448.2 5.6 449.1 5.6 450.1 5.6 451 5.6 451.9 5.7 452.9 5.7 453.8 5.7 454.7 5.7 455.7 5.6 456.6 5.6 457.5 5.6 458.5 5.6 459.4 5.6 460.4 5.6 461.3 5.6 462.2 5.6 463.2 5.6 464.1 5.6 465 5.6 466 5.6 466.9 5.6 467.8 5.6 468.8 5.6 469.7 5.6 470.6 5.6 471.6 5.6 472.5 5.6 473.5 5.6 474.4 5.6 475.3 5.6 476.3 5.6 477.2 5.6 478.1 5.6 479.1 5.6 480 5.6" transform="matrix(1,0,0,-1,62.8,442.5)" fill="#8fb0f7" fill-opacity="0.2"></polygon>
</g>
<g clip-path="url(#zr35-c4)">
<polygon points="480 0 0 0 0 5.7 0.9 5.7 1.9 5.7 2.8 5.7 3.7 5.7 4.7 5.7 5.6 5.7 6.5 5.7 7.5 5.7 8.4 5.7 9.4 5.7 10.3 5.7 11.2 5.7 12.2 5.7 13.1 5.7 14 5.7 15 5.7 15.9 5.7 16.8 5.7 17.8 5.7 18.7 5.7 19.6 5.7 20.6 5.7 21.5 5.6 22.5 5.6 23.4 5.6 24.3 5.6 25.3 5.6 26.2 5.7 27.1 5.7 28.1 5.7 29 5.7 29.9 5.7 30.9 5.7 31.8 5.7 32.7 5.7 33.7 5.7 34.6 5.7 35.6 5.7 36.5 5.7 37.4 5.7 38.4 5.7 39.3 5.7 40.2 5.7 41.2 5.7 42.1 5.7 43 5.7 44 5.7 44.9 5.7 45.8 5.6 46.8 5.6 47.7 5.6 48.7 5.6 49.6 5.6 50.5 5.6 51.5 5.6 52.4 5.6 53.3 5.6 54.3 5.6 55.2 5.6 56.1 5.6 57.1 5.6 58 5.6 58.9 5.6 59.9 5.6 60.8 5.6 61.8 5.6 62.7 5.6 63.6 5.6 64.6 5.6 65.5 5.6 66.4 5.6 67.4 5.6 68.3 5.6 69.2 5.6 70.2 5.6 71.1 5.6 72 5.6 73 5.6 73.9 5.6 74.9 5.6 75.8 5.6 76.7 5.6 77.7 5.6 78.6 5.6 79.5 5.6 80.5 5.6 81.4 5.6 82.3 5.7 83.3 5.8 84.2 5.8 85.1 5.8 86.1 5.7 87 5.7 88 5.7 88.9 5.7 89.8 5.7 90.8 5.7 91.7 5.7 92.6 5.7 93.6 5.7 94.5 5.6 95.4 5.6 96.4 5.6 97.3 5.6 98.2 5.6 99.2 5.6 100.1 5.6 101.1 5.6 102 5.6 102.9 5.6 103.9 5.6 104.8 5.6 105.7 5.6 106.7 5.6 107.6 5.6 108.5 5.6 109.5 5.6 110.4 5.6 111.3 5.6 112.3 5.6 113.2 5.6 114.2 5.6 115.1 5.6 116 5.6 117 5.6 117.9 5.6 118.8 5.6 119.8 5.6 120.7 5.6 121.6 5.6 122.6 5.6 123.5 5.6 124.4 5.6 125.4 5.6 126.3 5.6 127.3 5.6 128.2 5.6 129.1 5.6 130.1 5.6 131 5.6 131.9 5.6 132.9 5.6 133.8 5.6 134.7 5.6 135.7 5.7 136.6 5.7 137.5 5.7 138.5 5.7 139.4 5.6 140.4 5.6 141.3 5.6 142.2 5.6 143.2 5.6 144.1 5.6 145 5.6 146 5.6 146.9 5.6 147.8 5.6 148.8 5.6 149.7 5.6 150.6 5.6 151.6 5.6 152.5 5.6 153.5 5.6 154.4 5.6 155.3 5.6 156.3 5.6 157.2 5.6 158.1 5.6 159.1 5.6 160 5.6 160.9 5.6 161.9 5.6 162.8 5.6 163.7 5.6 164.7 5.6 165.6 5.6 166.5 5.6 167.5 5.6 168.4 5.6 169.4 5.7 170.3 5.7 171.2 5.7 172.2 5.7 173.1 5.7 174 5.7 175 5.7 175.9 5.6 176.8 5.6 177.8 5.6 178.7 5.6 179.6 5.6 180.6 5.6 181.5 5.7 182.5 5.7 183.4 5.7 184.3 5.7 185.3 5.7 186.2 5.7 187.1 5.7 188.1 5.7 189 5.7 189.9 5.8 190.9 5.8 191.8 5.9 192.7 5.9 193.7 6 194.6 6.1 195.6 6.2 196.5 13.1 197.4 16.5 198.4 12.1 199.3 10.8 200.2 8.7 201.2 8 202.1 7.4 203 6.9 204 6.9 204.9 6.9 205.8 6.6 206.8 6.3 207.7 6.4 208.7 6.4 209.6 6.5 210.5 6.5 211.5 6.2 212.4 5.8 213.3 5.7 214.3 5.7 215.2 5.7 216.1 5.7 217.1 5.7 218 5.7 218.9 5.7 219.9 5.7 220.8 5.7 221.8 5.7 222.7 5.7 223.6 5.7 224.6 5.7 225.5 5.7 226.4 5.6 227.4 5.6 228.3 5.6 229.2 5.6 230.2 5.6 231.1 5.6 232 5.6 233 5.6 233.9 5.6 234.9 5.6 235.8 5.6 236.7 5.6 237.7 5.6 238.6 5.6 239.5 5.6 240.5 5.6 241.4 5.6 242.3 5.6 243.3 5.6 244.2 5.6 245.1 5.6 246.1 5.7 247 5.8 248 5.9 248.9 7 249.8 8 250.8 7.4 251.7 6.8 252.6 6.8 253.6 7 254.5 8.1 255.4 16.5 256.4 14.4 257.3 13 258.2 10.7 259.2 9 260.1 8.2 261.1 11.2 262 11.8 262.9 10.7 263.9 10.7 264.8 10.7 265.7 15.2 266.7 12.6 267.6 11.3 268.5 10.4 269.5 9.7 270.4 9 271.3 8.5 272.3 8.1 273.2 7.4 274.2 7 275.1 7 276 7 277 6.9 277.9 6.8 278.8 6.7 279.8 6.6 280.7 6.6 281.6 6.5 282.6 6.5 283.5 6.4 284.4 6.3 285.4 6.3 286.3 6.2 287.3 6.2 288.2 6.1 289.1 6 290.1 6 291 6 291.9 6.4 292.9 7 293.8 7.3 294.7 7.5 295.7 7.6 296.6 7.7 297.5 7.5 298.5 7.1 299.4 6.7 300.4 6.5 301.3 6.5 302.2 6.5 303.2 6.4 304.1 6.3 305 6.2 306 6.1 306.9 6.1 307.8 6 308.8 6 309.7 5.9 310.6 5.9 311.6 5.9 312.5 5.8 313.5 5.8 314.4 5.8 315.3 5.8 316.3 5.8 317.2 5.8 318.1 5.7 319.1 5.7 320 5.7 320.9 5.7 321.9 5.7 322.8 5.7 323.7 5.7 324.7 5.6 325.6 5.6 326.5 5.6 327.5 5.6 328.4 5.6 329.4 5.6 330.3 5.6 331.2 5.6 332.2 5.6 333.1 5.6 334 5.6 335 5.6 335.9 5.6 336.8 5.6 337.8 5.6 338.7 5.6 339.6 5.6 340.6 5.6 341.5 5.6 342.5 5.6 343.4 5.6 344.3 5.7 345.3 5.7 346.2 5.9 347.1 6.5 348.1 7.8 349 12.3 349.9 12 350.9 24.4 351.8 22 352.7 21 353.7 17.6 354.6 14.8 355.6 12.8 356.5 10.8 357.4 9.3 358.4 8.6 359.3 8.4 360.2 7.8 361.2 7.4 362.1 7.3 363 7.2 364 6.9 364.9 6.7 365.8 6.5 366.8 6.4 367.7 6.3 368.7 6.4 369.6 6.6 370.5 6.9 371.5 7.5 372.4 8.3 373.3 9.3 374.3 11.3 375.2 10.7 376.1 9.6 377.1 9 378 8.6 378.9 7.5 379.9 7.4 380.8 7.3 381.8 7.3 382.7 6.9 383.6 6.7 384.6 6.9 385.5 6.9 386.4 6.4 387.4 6.5 388.3 6.2 389.2 6.1 390.2 6.1 391.1 6.2 392 6.1 393 6 393.9 6 394.9 5.9 395.8 5.9 396.7 5.8 397.7 5.8 398.6 6.1 399.5 6.1 400.5 6 401.4 6 402.3 6.1 403.3 6.1 404.2 6 405.1 5.8 406.1 5.7 407 5.7 408 5.6 408.9 5.6 409.8 5.6 410.8 5.6 411.7 5.6 412.6 5.6 413.6 5.6 414.5 5.6 415.4 5.6 416.4 5.6 417.3 5.6 418.2 5.6 419.2 5.6 420.1 5.6 421.1 5.6 422 5.6 422.9 5.6 423.9 5.6 424.8 5.6 425.7 5.6 426.7 5.6 427.6 5.6 428.5 5.6 429.5 5.6 430.4 5.6 431.3 5.6 432.3 5.6 433.2 5.6 434.2 5.6 435.1 5.6 436 5.6 437 5.6 437.9 5.6 438.8 5.6 439.8 5.6 440.7 5.6 441.6 5.6 442.6 5.6 443.5 5.6 444.4 5.6 445.4 5.6 446.3 5.6 447.3 5.6 448.2 5.6 449.1 5.6 450.1 5.6 451 5.6 451.9 5.7 452.9 5.7 453.8 5.7 454.7 5.7 455.7 5.6 456.6 5.6 457.5 5.6 458.5 5.6 459.4 5.6 460.4 5.6 461.3 5.6 462.2 5.6 463.2 5.6 464.1 5.6 465 5.6 466 5.6 466.9 5.6 467.8 5.6 468.8 5.6 469.7 5.6 470.6 5.6 471.6 5.6 472.5 5.6 473.5 5.6 474.4 5.6 475.3 5.6 476.3 5.6 477.2 5.6 478.1 5.6 479.1 5.6 480 5.6" transform="matrix(1,0,0,-1,62.8,442.5)" fill="#d2dbee" fill-opacity="0.2"></polygon>
</g>
<g clip-path="url(#zr35-c2)">
<polyline points="0 5.7 0.9 5.7 1.9 5.7 2.8 5.7 3.7 5.7 4.7 5.7 5.6 5.7 6.5 5.7 7.5 5.7 8.4 5.7 9.4 5.7 10.3 5.7 11.2 5.7 12.2 5.7 13.1 5.7 14 5.7 15 5.7 15.9 5.7 16.8 5.7 17.8 5.7 18.7 5.7 19.6 5.7 20.6 5.7 21.5 5.6 22.5 5.6 23.4 5.6 24.3 5.6 25.3 5.6 26.2 5.7 27.1 5.7 28.1 5.7 29 5.7 29.9 5.7 30.9 5.7 31.8 5.7 32.7 5.7 33.7 5.7 34.6 5.7 35.6 5.7 36.5 5.7 37.4 5.7 38.4 5.7 39.3 5.7 40.2 5.7 41.2 5.7 42.1 5.7 43 5.7 44 5.7 44.9 5.7 45.8 5.6 46.8 5.6 47.7 5.6 48.7 5.6 49.6 5.6 50.5 5.6 51.5 5.6 52.4 5.6 53.3 5.6 54.3 5.6 55.2 5.6 56.1 5.6 57.1 5.6 58 5.6 58.9 5.6 59.9 5.6 60.8 5.6 61.8 5.6 62.7 5.6 63.6 5.6 64.6 5.6 65.5 5.6 66.4 5.6 67.4 5.6 68.3 5.6 69.2 5.6 70.2 5.6 71.1 5.6 72 5.6 73 5.6 73.9 5.6 74.9 5.6 75.8 5.6 76.7 5.6 77.7 5.6 78.6 5.6 79.5 5.6 80.5 5.6 81.4 5.6 82.3 5.7 83.3 5.8 84.2 5.8 85.1 5.8 86.1 5.7 87 5.7 88 5.7 88.9 5.7 89.8 5.7 90.8 5.7 91.7 5.7 92.6 5.7 93.6 5.7 94.5 5.6 95.4 5.6 96.4 5.6 97.3 5.6 98.2 5.6 99.2 5.6 100.1 5.6 101.1 5.6 102 5.6 102.9 5.6 103.9 5.6 104.8 5.6 105.7 5.6 106.7 5.6 107.6 5.6 108.5 5.6 109.5 5.6 110.4 5.6 111.3 5.6 112.3 5.6 113.2 5.6 114.2 5.6 115.1 5.6 116 5.6 117 5.6 117.9 5.6 118.8 5.6 119.8 5.6 120.7 5.6 121.6 5.6 122.6 5.6 123.5 5.6 124.4 5.6 125.4 5.6 126.3 5.6 127.3 5.6 128.2 5.6 129.1 5.6 130.1 5.6 131 5.6 131.9 5.6 132.9 5.6 133.8 5.6 134.7 5.6 135.7 5.7 136.6 5.7 137.5 5.7 138.5 5.7 139.4 5.6 140.4 5.6 141.3 5.6 142.2 5.6 143.2 5.6 144.1 5.6 145 5.6 146 5.6 146.9 5.6 147.8 5.6 148.8 5.6 149.7 5.6 150.6 5.6 151.6 5.6 152.5 5.6 153.5 5.6 154.4 5.6 155.3 5.6 156.3 5.6 157.2 5.6 158.1 5.6 159.1 5.6 160 5.6 160.9 5.6 161.9 5.6 162.8 5.6 163.7 5.6 164.7 5.6 165.6 5.6 166.5 5.6 167.5 5.6 168.4 5.6 169.4 5.7 170.3 5.7 171.2 5.7 172.2 5.7 173.1 5.7 174 5.7 175 5.7 175.9 5.6 176.8 5.6 177.8 5.6 178.7 5.6 179.6 5.6 180.6 5.6 181.5 5.7 182.5 5.7 183.4 5.7 184.3 5.7 185.3 5.7 186.2 5.7 187.1 5.7 188.1 5.7 189 5.7 189.9 5.8 190.9 5.8 191.8 5.9 192.7 5.9 193.7 6 194.6 6.1 195.6 6.2 196.5 13.1 197.4 16.5 198.4 12.1 199.3 10.8 200.2 8.7 201.2 8 202.1 7.4 203 6.9 204 6.9 204.9 6.9 205.8 6.6 206.8 6.3 207.7 6.4 208.7 6.4 209.6 6.5 210.5 6.5 211.5 6.2 212.4 5.8 213.3 5.7 214.3 5.7 215.2 5.7 216.1 5.7 217.1 5.7 218 5.7 218.9 5.7 219.9 5.7 220.8 5.7 221.8 5.7 222.7 5.7 223.6 5.7 224.6 5.7 225.5 5.7 226.4 5.6 227.4 5.6 228.3 5.6 229.2 5.6 230.2 5.6 231.1 5.6 232 5.6 233 5.6 233.9 5.6 234.9 5.6 235.8 5.6 236.7 5.6 237.7 5.6 238.6 5.6 239.5 5.6 240.5 5.6 241.4 5.6 242.3 5.6 243.3 5.6 244.2 5.6 245.1 5.6 246.1 5.7 247 5.8 248 5.9 248.9 7 249.8 8 250.8 7.4 251.7 6.8 252.6 6.8 253.6 7 254.5 8.1 255.4 16.5 256.4 14.4 257.3 13 258.2 10.7 259.2 9 260.1 8.2 261.1 11.2 262 11.8 262.9 10.7 263.9 10.7 264.8 10.7 265.7 15.2 266.7 12.6 267.6 11.3 268.5 10.4 269.5 9.7 270.4 9 271.3 8.5 272.3 8.1 273.2 7.4 274.2 7 275.1 7 276 7 277 6.9 277.9 6.8 278.8 6.7 279.8 6.6 280.7 6.6 281.6 6.5 282.6 6.5 283.5 6.4 284.4 6.3 285.4 6.3 286.3 6.2 287.3 6.2 288.2 6.1 289.1 6 290.1 6 291 6 291.9 6.4 292.9 7 293.8 7.3 294.7 7.5 295.7 7.6 296.6 7.7 297.5 7.5 298.5 7.1 299.4 6.7 300.4 6.5 301.3 6.5 302.2 6.5 303.2 6.4 304.1 6.3 305 6.2 306 6.1 306.9 6.1 307.8 6 308.8 6 309.7 5.9 310.6 5.9 311.6 5.9 312.5 5.8 313.5 5.8 314.4 5.8 315.3 5.8 316.3 5.8 317.2 5.8 318.1 5.7 319.1 5.7 320 5.7 320.9 5.7 321.9 5.7 322.8 5.7 323.7 5.7 324.7 5.6 325.6 5.6 326.5 5.6 327.5 5.6 328.4 5.6 329.4 5.6 330.3 5.6 331.2 5.6 332.2 5.6 333.1 5.6 334 5.6 335 5.6 335.9 5.6 336.8 5.6 337.8 5.6 338.7 5.6 339.6 5.6 340.6 5.6 341.5 5.6 342.5 5.6 343.4 5.6 344.3 5.7 345.3 5.7 346.2 5.9 347.1 6.5 348.1 7.8 349 12.3 349.9 12 350.9 24.4 351.8 22 352.7 21 353.7 17.6 354.6 14.8 355.6 12.8 356.5 10.8 357.4 9.3 358.4 8.6 359.3 8.4 360.2 7.8 361.2 7.4 362.1 7.3 363 7.2 364 6.9 364.9 6.7 365.8 6.5 366.8 6.4 367.7 6.3 368.7 6.4 369.6 6.6 370.5 6.9 371.5 7.5 372.4 8.3 373.3 9.3 374.3 11.3 375.2 10.7 376.1 9.6 377.1 9 378 8.6 378.9 7.5 379.9 7.4 380.8 7.3 381.8 7.3 382.7 6.9 383.6 6.7 384.6 6.9 385.5 6.9 386.4 6.4 387.4 6.5 388.3 6.2 389.2 6.1 390.2 6.1 391.1 6.2 392 6.1 393 6 393.9 6 394.9 5.9 395.8 5.9 396.7 5.8 397.7 5.8 398.6 6.1 399.5 6.1 400.5 6 401.4 6 402.3 6.1 403.3 6.1 404.2 6 405.1 5.8 406.1 5.7 407 5.7 408 5.6 408.9 5.6 409.8 5.6 410.8 5.6 411.7 5.6 412.6 5.6 413.6 5.6 414.5 5.6 415.4 5.6 416.4 5.6 417.3 5.6 418.2 5.6 419.2 5.6 420.1 5.6 421.1 5.6 422 5.6 422.9 5.6 423.9 5.6 424.8 5.6 425.7 5.6 426.7 5.6 427.6 5.6 428.5 5.6 429.5 5.6 430.4 5.6 431.3 5.6 432.3 5.6 433.2 5.6 434.2 5.6 435.1 5.6 436 5.6 437 5.6 437.9 5.6 438.8 5.6 439.8 5.6 440.7 5.6 441.6 5.6 442.6 5.6 443.5 5.6 444.4 5.6 445.4 5.6 446.3 5.6 447.3 5.6 448.2 5.6 449.1 5.6 450.1 5.6 451 5.6 451.9 5.7 452.9 5.7 453.8 5.7 454.7 5.7 455.7 5.6 456.6 5.6 457.5 5.6 458.5 5.6 459.4 5.6 460.4 5.6 461.3 5.6 462.2 5.6 463.2 5.6 464.1 5.6 465 5.6 466 5.6 466.9 5.6 467.8 5.6 468.8 5.6 469.7 5.6 470.6 5.6 471.6 5.6 472.5 5.6 473.5 5.6 474.4 5.6 475.3 5.6 476.3 5.6 477.2 5.6 478.1 5.6 479.1 5.6 480 5.6" transform="matrix(1,0,0,-1,62.8,442.5)" fill="none" stroke="#d2dbee" stroke-width="0.5"></polyline>
</g>
<g clip-path="url(#zr35-c3)">
<polyline points="0 5.7 0.9 5.7 1.9 5.7 2.8 5.7 3.7 5.7 4.7 5.7 5.6 5.7 6.5 5.7 7.5 5.7 8.4 5.7 9.4 5.7 10.3 5.7 11.2 5.7 12.2 5.7 13.1 5.7 14 5.7 15 5.7 15.9 5.7 16.8 5.7 17.8 5.7 18.7 5.7 19.6 5.7 20.6 5.7 21.5 5.6 22.5 5.6 23.4 5.6 24.3 5.6 25.3 5.6 26.2 5.7 27.1 5.7 28.1 5.7 29 5.7 29.9 5.7 30.9 5.7 31.8 5.7 32.7 5.7 33.7 5.7 34.6 5.7 35.6 5.7 36.5 5.7 37.4 5.7 38.4 5.7 39.3 5.7 40.2 5.7 41.2 5.7 42.1 5.7 43 5.7 44 5.7 44.9 5.7 45.8 5.6 46.8 5.6 47.7 5.6 48.7 5.6 49.6 5.6 50.5 5.6 51.5 5.6 52.4 5.6 53.3 5.6 54.3 5.6 55.2 5.6 56.1 5.6 57.1 5.6 58 5.6 58.9 5.6 59.9 5.6 60.8 5.6 61.8 5.6 62.7 5.6 63.6 5.6 64.6 5.6 65.5 5.6 66.4 5.6 67.4 5.6 68.3 5.6 69.2 5.6 70.2 5.6 71.1 5.6 72 5.6 73 5.6 73.9 5.6 74.9 5.6 75.8 5.6 76.7 5.6 77.7 5.6 78.6 5.6 79.5 5.6 80.5 5.6 81.4 5.6 82.3 5.7 83.3 5.8 84.2 5.8 85.1 5.8 86.1 5.7 87 5.7 88 5.7 88.9 5.7 89.8 5.7 90.8 5.7 91.7 5.7 92.6 5.7 93.6 5.7 94.5 5.6 95.4 5.6 96.4 5.6 97.3 5.6 98.2 5.6 99.2 5.6 100.1 5.6 101.1 5.6 102 5.6 102.9 5.6 103.9 5.6 104.8 5.6 105.7 5.6 106.7 5.6 107.6 5.6 108.5 5.6 109.5 5.6 110.4 5.6 111.3 5.6 112.3 5.6 113.2 5.6 114.2 5.6 115.1 5.6 116 5.6 117 5.6 117.9 5.6 118.8 5.6 119.8 5.6 120.7 5.6 121.6 5.6 122.6 5.6 123.5 5.6 124.4 5.6 125.4 5.6 126.3 5.6 127.3 5.6 128.2 5.6 129.1 5.6 130.1 5.6 131 5.6 131.9 5.6 132.9 5.6 133.8 5.6 134.7 5.6 135.7 5.7 136.6 5.7 137.5 5.7 138.5 5.7 139.4 5.6 140.4 5.6 141.3 5.6 142.2 5.6 143.2 5.6 144.1 5.6 145 5.6 146 5.6 146.9 5.6 147.8 5.6 148.8 5.6 149.7 5.6 150.6 5.6 151.6 5.6 152.5 5.6 153.5 5.6 154.4 5.6 155.3 5.6 156.3 5.6 157.2 5.6 158.1 5.6 159.1 5.6 160 5.6 160.9 5.6 161.9 5.6 162.8 5.6 163.7 5.6 164.7 5.6 165.6 5.6 166.5 5.6 167.5 5.6 168.4 5.6 169.4 5.7 170.3 5.7 171.2 5.7 172.2 5.7 173.1 5.7 174 5.7 175 5.7 175.9 5.6 176.8 5.6 177.8 5.6 178.7 5.6 179.6 5.6 180.6 5.6 181.5 5.7 182.5 5.7 183.4 5.7 184.3 5.7 185.3 5.7 186.2 5.7 187.1 5.7 188.1 5.7 189 5.7 189.9 5.8 190.9 5.8 191.8 5.9 192.7 5.9 193.7 6 194.6 6.1 195.6 6.2 196.5 13.1 197.4 16.5 198.4 12.1 199.3 10.8 200.2 8.7 201.2 8 202.1 7.4 203 6.9 204 6.9 204.9 6.9 205.8 6.6 206.8 6.3 207.7 6.4 208.7 6.4 209.6 6.5 210.5 6.5 211.5 6.2 212.4 5.8 213.3 5.7 214.3 5.7 215.2 5.7 216.1 5.7 217.1 5.7 218 5.7 218.9 5.7 219.9 5.7 220.8 5.7 221.8 5.7 222.7 5.7 223.6 5.7 224.6 5.7 225.5 5.7 226.4 5.6 227.4 5.6 228.3 5.6 229.2 5.6 230.2 5.6 231.1 5.6 232 5.6 233 5.6 233.9 5.6 234.9 5.6 235.8 5.6 236.7 5.6 237.7 5.6 238.6 5.6 239.5 5.6 240.5 5.6 241.4 5.6 242.3 5.6 243.3 5.6 244.2 5.6 245.1 5.6 246.1 5.7 247 5.8 248 5.9 248.9 7 249.8 8 250.8 7.4 251.7 6.8 252.6 6.8 253.6 7 254.5 8.1 255.4 16.5 256.4 14.4 257.3 13 258.2 10.7 259.2 9 260.1 8.2 261.1 11.2 262 11.8 262.9 10.7 263.9 10.7 264.8 10.7 265.7 15.2 266.7 12.6 267.6 11.3 268.5 10.4 269.5 9.7 270.4 9 271.3 8.5 272.3 8.1 273.2 7.4 274.2 7 275.1 7 276 7 277 6.9 277.9 6.8 278.8 6.7 279.8 6.6 280.7 6.6 281.6 6.5 282.6 6.5 283.5 6.4 284.4 6.3 285.4 6.3 286.3 6.2 287.3 6.2 288.2 6.1 289.1 6 290.1 6 291 6 291.9 6.4 292.9 7 293.8 7.3 294.7 7.5 295.7 7.6 296.6 7.7 297.5 7.5 298.5 7.1 299.4 6.7 300.4 6.5 301.3 6.5 302.2 6.5 303.2 6.4 304.1 6.3 305 6.2 306 6.1 306.9 6.1 307.8 6 308.8 6 309.7 5.9 310.6 5.9 311.6 5.9 312.5 5.8 313.5 5.8 314.4 5.8 315.3 5.8 316.3 5.8 317.2 5.8 318.1 5.7 319.1 5.7 320 5.7 320.9 5.7 321.9 5.7 322.8 5.7 323.7 5.7 324.7 5.6 325.6 5.6 326.5 5.6 327.5 5.6 328.4 5.6 329.4 5.6 330.3 5.6 331.2 5.6 332.2 5.6 333.1 5.6 334 5.6 335 5.6 335.9 5.6 336.8 5.6 337.8 5.6 338.7 5.6 339.6 5.6 340.6 5.6 341.5 5.6 342.5 5.6 343.4 5.6 344.3 5.7 345.3 5.7 346.2 5.9 347.1 6.5 348.1 7.8 349 12.3 349.9 12 350.9 24.4 351.8 22 352.7 21 353.7 17.6 354.6 14.8 355.6 12.8 356.5 10.8 357.4 9.3 358.4 8.6 359.3 8.4 360.2 7.8 361.2 7.4 362.1 7.3 363 7.2 364 6.9 364.9 6.7 365.8 6.5 366.8 6.4 367.7 6.3 368.7 6.4 369.6 6.6 370.5 6.9 371.5 7.5 372.4 8.3 373.3 9.3 374.3 11.3 375.2 10.7 376.1 9.6 377.1 9 378 8.6 378.9 7.5 379.9 7.4 380.8 7.3 381.8 7.3 382.7 6.9 383.6 6.7 384.6 6.9 385.5 6.9 386.4 6.4 387.4 6.5 388.3 6.2 389.2 6.1 390.2 6.1 391.1 6.2 392 6.1 393 6 393.9 6 394.9 5.9 395.8 5.9 396.7 5.8 397.7 5.8 398.6 6.1 399.5 6.1 400.5 6 401.4 6 402.3 6.1 403.3 6.1 404.2 6 405.1 5.8 406.1 5.7 407 5.7 408 5.6 408.9 5.6 409.8 5.6 410.8 5.6 411.7 5.6 412.6 5.6 413.6 5.6 414.5 5.6 415.4 5.6 416.4 5.6 417.3 5.6 418.2 5.6 419.2 5.6 420.1 5.6 421.1 5.6 422 5.6 422.9 5.6 423.9 5.6 424.8 5.6 425.7 5.6 426.7 5.6 427.6 5.6 428.5 5.6 429.5 5.6 430.4 5.6 431.3 5.6 432.3 5.6 433.2 5.6 434.2 5.6 435.1 5.6 436 5.6 437 5.6 437.9 5.6 438.8 5.6 439.8 5.6 440.7 5.6 441.6 5.6 442.6 5.6 443.5 5.6 444.4 5.6 445.4 5.6 446.3 5.6 447.3 5.6 448.2 5.6 449.1 5.6 450.1 5.6 451 5.6 451.9 5.7 452.9 5.7 453.8 5.7 454.7 5.7 455.7 5.6 456.6 5.6 457.5 5.6 458.5 5.6 459.4 5.6 460.4 5.6 461.3 5.6 462.2 5.6 463.2 5.6 464.1 5.6 465 5.6 466 5.6 466.9 5.6 467.8 5.6 468.8 5.6 469.7 5.6 470.6 5.6 471.6 5.6 472.5 5.6 473.5 5.6 474.4 5.6 475.3 5.6 476.3 5.6 477.2 5.6 478.1 5.6 479.1 5.6 480 5.6" transform="matrix(1,0,0,-1,62.8,442.5)" fill="none" stroke="#8fb0f7" stroke-width="0.5"></polyline>
</g>
<g clip-path="url(#zr35-c4)">
<polyline points="0 5.7 0.9 5.7 1.9 5.7 2.8 5.7 3.7 5.7 4.7 5.7 5.6 5.7 6.5 5.7 7.5 5.7 8.4 5.7 9.4 5.7 10.3 5.7 11.2 5.7 12.2 5.7 13.1 5.7 14 5.7 15 5.7 15.9 5.7 16.8 5.7 17.8 5.7 18.7 5.7 19.6 5.7 20.6 5.7 21.5 5.6 22.5 5.6 23.4 5.6 24.3 5.6 25.3 5.6 26.2 5.7 27.1 5.7 28.1 5.7 29 5.7 29.9 5.7 30.9 5.7 31.8 5.7 32.7 5.7 33.7 5.7 34.6 5.7 35.6 5.7 36.5 5.7 37.4 5.7 38.4 5.7 39.3 5.7 40.2 5.7 41.2 5.7 42.1 5.7 43 5.7 44 5.7 44.9 5.7 45.8 5.6 46.8 5.6 47.7 5.6 48.7 5.6 49.6 5.6 50.5 5.6 51.5 5.6 52.4 5.6 53.3 5.6 54.3 5.6 55.2 5.6 56.1 5.6 57.1 5.6 58 5.6 58.9 5.6 59.9 5.6 60.8 5.6 61.8 5.6 62.7 5.6 63.6 5.6 64.6 5.6 65.5 5.6 66.4 5.6 67.4 5.6 68.3 5.6 69.2 5.6 70.2 5.6 71.1 5.6 72 5.6 73 5.6 73.9 5.6 74.9 5.6 75.8 5.6 76.7 5.6 77.7 5.6 78.6 5.6 79.5 5.6 80.5 5.6 81.4 5.6 82.3 5.7 83.3 5.8 84.2 5.8 85.1 5.8 86.1 5.7 87 5.7 88 5.7 88.9 5.7 89.8 5.7 90.8 5.7 91.7 5.7 92.6 5.7 93.6 5.7 94.5 5.6 95.4 5.6 96.4 5.6 97.3 5.6 98.2 5.6 99.2 5.6 100.1 5.6 101.1 5.6 102 5.6 102.9 5.6 103.9 5.6 104.8 5.6 105.7 5.6 106.7 5.6 107.6 5.6 108.5 5.6 109.5 5.6 110.4 5.6 111.3 5.6 112.3 5.6 113.2 5.6 114.2 5.6 115.1 5.6 116 5.6 117 5.6 117.9 5.6 118.8 5.6 119.8 5.6 120.7 5.6 121.6 5.6 122.6 5.6 123.5 5.6 124.4 5.6 125.4 5.6 126.3 5.6 127.3 5.6 128.2 5.6 129.1 5.6 130.1 5.6 131 5.6 131.9 5.6 132.9 5.6 133.8 5.6 134.7 5.6 135.7 5.7 136.6 5.7 137.5 5.7 138.5 5.7 139.4 5.6 140.4 5.6 141.3 5.6 142.2 5.6 143.2 5.6 144.1 5.6 145 5.6 146 5.6 146.9 5.6 147.8 5.6 148.8 5.6 149.7 5.6 150.6 5.6 151.6 5.6 152.5 5.6 153.5 5.6 154.4 5.6 155.3 5.6 156.3 5.6 157.2 5.6 158.1 5.6 159.1 5.6 160 5.6 160.9 5.6 161.9 5.6 162.8 5.6 163.7 5.6 164.7 5.6 165.6 5.6 166.5 5.6 167.5 5.6 168.4 5.6 169.4 5.7 170.3 5.7 171.2 5.7 172.2 5.7 173.1 5.7 174 5.7 175 5.7 175.9 5.6 176.8 5.6 177.8 5.6 178.7 5.6 179.6 5.6 180.6 5.6 181.5 5.7 182.5 5.7 183.4 5.7 184.3 5.7 185.3 5.7 186.2 5.7 187.1 5.7 188.1 5.7 189 5.7 189.9 5.8 190.9 5.8 191.8 5.9 192.7 5.9 193.7 6 194.6 6.1 195.6 6.2 196.5 13.1 197.4 16.5 198.4 12.1 199.3 10.8 200.2 8.7 201.2 8 202.1 7.4 203 6.9 204 6.9 204.9 6.9 205.8 6.6 206.8 6.3 207.7 6.4 208.7 6.4 209.6 6.5 210.5 6.5 211.5 6.2 212.4 5.8 213.3 5.7 214.3 5.7 215.2 5.7 216.1 5.7 217.1 5.7 218 5.7 218.9 5.7 219.9 5.7 220.8 5.7 221.8 5.7 222.7 5.7 223.6 5.7 224.6 5.7 225.5 5.7 226.4 5.6 227.4 5.6 228.3 5.6 229.2 5.6 230.2 5.6 231.1 5.6 232 5.6 233 5.6 233.9 5.6 234.9 5.6 235.8 5.6 236.7 5.6 237.7 5.6 238.6 5.6 239.5 5.6 240.5 5.6 241.4 5.6 242.3 5.6 243.3 5.6 244.2 5.6 245.1 5.6 246.1 5.7 247 5.8 248 5.9 248.9 7 249.8 8 250.8 7.4 251.7 6.8 252.6 6.8 253.6 7 254.5 8.1 255.4 16.5 256.4 14.4 257.3 13 258.2 10.7 259.2 9 260.1 8.2 261.1 11.2 262 11.8 262.9 10.7 263.9 10.7 264.8 10.7 265.7 15.2 266.7 12.6 267.6 11.3 268.5 10.4 269.5 9.7 270.4 9 271.3 8.5 272.3 8.1 273.2 7.4 274.2 7 275.1 7 276 7 277 6.9 277.9 6.8 278.8 6.7 279.8 6.6 280.7 6.6 281.6 6.5 282.6 6.5 283.5 6.4 284.4 6.3 285.4 6.3 286.3 6.2 287.3 6.2 288.2 6.1 289.1 6 290.1 6 291 6 291.9 6.4 292.9 7 293.8 7.3 294.7 7.5 295.7 7.6 296.6 7.7 297.5 7.5 298.5 7.1 299.4 6.7 300.4 6.5 301.3 6.5 302.2 6.5 303.2 6.4 304.1 6.3 305 6.2 306 6.1 306.9 6.1 307.8 6 308.8 6 309.7 5.9 310.6 5.9 311.6 5.9 312.5 5.8 313.5 5.8 314.4 5.8 315.3 5.8 316.3 5.8 317.2 5.8 318.1 5.7 319.1 5.7 320 5.7 320.9 5.7 321.9 5.7 322.8 5.7 323.7 5.7 324.7 5.6 325.6 5.6 326.5 5.6 327.5 5.6 328.4 5.6 329.4 5.6 330.3 5.6 331.2 5.6 332.2 5.6 333.1 5.6 334 5.6 335 5.6 335.9 5.6 336.8 5.6 337.8 5.6 338.7 5.6 339.6 5.6 340.6 5.6 341.5 5.6 342.5 5.6 343.4 5.6 344.3 5.7 345.3 5.7 346.2 5.9 347.1 6.5 348.1 7.8 349 12.3 349.9 12 350.9 24.4 351.8 22 352.7 21 353.7 17.6 354.6 14.8 355.6 12.8 356.5 10.8 357.4 9.3 358.4 8.6 359.3 8.4 360.2 7.8 361.2 7.4 362.1 7.3 363 7.2 364 6.9 364.9 6.7 365.8 6.5 366.8 6.4 367.7 6.3 368.7 6.4 369.6 6.6 370.5 6.9 371.5 7.5 372.4 8.3 373.3 9.3 374.3 11.3 375.2 10.7 376.1 9.6 377.1 9 378 8.6 378.9 7.5 379.9 7.4 380.8 7.3 381.8 7.3 382.7 6.9 383.6 6.7 384.6 6.9 385.5 6.9 386.4 6.4 387.4 6.5 388.3 6.2 389.2 6.1 390.2 6.1 391.1 6.2 392 6.1 393 6 393.9 6 394.9 5.9 395.8 5.9 396.7 5.8 397.7 5.8 398.6 6.1 399.5 6.1 400.5 6 401.4 6 402.3 6.1 403.3 6.1 404.2 6 405.1 5.8 406.1 5.7 407 5.7 408 5.6 408.9 5.6 409.8 5.6 410.8 5.6 411.7 5.6 412.6 5.6 413.6 5.6 414.5 5.6 415.4 5.6 416.4 5.6 417.3 5.6 418.2 5.6 419.2 5.6 420.1 5.6 421.1 5.6 422 5.6 422.9 5.6 423.9 5.6 424.8 5.6 425.7 5.6 426.7 5.6 427.6 5.6 428.5 5.6 429.5 5.6 430.4 5.6 431.3 5.6 432.3 5.6 433.2 5.6 434.2 5.6 435.1 5.6 436 5.6 437 5.6 437.9 5.6 438.8 5.6 439.8 5.6 440.7 5.6 441.6 5.6 442.6 5.6 443.5 5.6 444.4 5.6 445.4 5.6 446.3 5.6 447.3 5.6 448.2 5.6 449.1 5.6 450.1 5.6 451 5.6 451.9 5.7 452.9 5.7 453.8 5.7 454.7 5.7 455.7 5.6 456.6 5.6 457.5 5.6 458.5 5.6 459.4 5.6 460.4 5.6 461.3 5.6 462.2 5.6 463.2 5.6 464.1 5.6 465 5.6 466 5.6 466.9 5.6 467.8 5.6 468.8 5.6 469.7 5.6 470.6 5.6 471.6 5.6 472.5 5.6 473.5 5.6 474.4 5.6 475.3 5.6 476.3 5.6 477.2 5.6 478.1 5.6 479.1 5.6 480 5.6" transform="matrix(1,0,0,-1,62.8,442.5)" fill="none" stroke="#d2dbee" stroke-width="0.5"></polyline>
</g>
<path d="M-5 -5l147.4 0l0 23.2l-147.4 0Z" transform="translate(15 5)" fill="rgb(0,0,0)" fill-opacity="0" stroke="#ccc" stroke-width="0"></path>
<path d="M0 7L25 7" transform="translate(16 4.6)" fill="#000" stroke="#5470c6" stroke-width="2" stroke-linecap="butt" stroke-miterlimit="10"></path>
<path d="M18.1 7A5.6 5.6 0 1 1 18.1 6.4A5.6 5.6 0 0 1 18.1 7" transform="translate(16 4.6)" fill="#fff" stroke="#5470c6" stroke-width="2" stroke-linecap="butt" stroke-miterlimit="10"></path>
<text dominant-baseline="central" text-anchor="start" style="font-size:12px;font-family:sans-serif;" x="30" y="7" transform="translate(16 4.6)" fill="#333">Flow</text>
<path d="M0 7L25 7" transform="translate(82.32 4.6)" fill="#000" stroke="#91cc75" stroke-width="2" stroke-linecap="butt" stroke-miterlimit="10"></path>
<path d="M18.1 7A5.6 5.6 0 1 1 18.1 6.4A5.6 5.6 0 0 1 18.1 7" transform="translate(82.32 4.6)" fill="#fff" stroke="#91cc75" stroke-width="2" stroke-linecap="butt" stroke-miterlimit="10"></path>
<text dominant-baseline="central" text-anchor="start" style="font-size:12px;font-family:sans-serif;" x="30" y="7" transform="translate(82.32 4.6)" fill="#333">Rainfall</text>
<path d="M0 0l480 0l0 30l-480 0Z" transform="matrix(1,0,0,-1,62.8,442.5)" fill="none"></path>
<path d="M312 0l96 0l0 30l-96 0Z" transform="matrix(1,0,0,-1,62.8,442.5)" fill="rgb(135,175,255)" fill-opacity="0.2"></path>
<path d="M3.5 0.5L476.5 0.5A3 3 0 0 1 479.5 3.5L479.5 26.5A3 3 0 0 1 476.5 29.5L3.5 29.5A3 3 0 0 1 0.5 26.5L0.5 3.5A3 3 0 0 1 3.5 0.5" transform="matrix(1,0,0,-1,62.8,442.5)" fill="rgb(0,0,0)" fill-opacity="0" stroke="#d2dbee"></path>
<path d="M312 29.5L408 29.5L408 34.5A2 2 0 0 1 406 36.5L314 36.5A2 2 0 0 1 312 34.5L312 29.5" transform="matrix(1,0,0,-1,62.8,442.5)" fill="#D2DBEE" fill-opacity="0.7"></path>
<path d="M-2.2 -1.7C-1.9 -1.7 -1.7 -1.5 -1.7 -1.1L-1.7 1.1C-1.7 1.5 -1.9 1.7 -2.2 1.7C-2.6 1.7 -2.8 1.5 -2.8 1.1L-2.8 -1.1C-2.8 -1.5 -2.6 -1.7 -2.2 -1.7ZM0 -1.7C0.4 -1.7 0.6 -1.5 0.6 -1.1L0.6 1.1C0.6 1.5 0.4 1.7 0 1.7C-0.4 1.7 -0.6 1.5 -0.6 1.1L-0.6 -1.1C-0.6 -1.5 -0.4 -1.7 0 -1.7ZM2.2 -1.7C2.6 -1.7 2.8 -1.5 2.8 -1.1L2.8 1.1C2.8 1.5 2.6 1.7 2.2 1.7C1.9 1.7 1.7 1.5 1.7 1.1L1.7 -1.1C1.7 -1.5 1.9 -1.7 2.2 -1.7Z" transform="matrix(1,0,0,-1,422.8,409.5)" fill="#fff"></path>
<path d="M0 1.63L0 2M0 0L0 0.38M-0.1 0.38L0.1 0.38A0.1 0.1 0 0 1 0.2 0.47L0.2 1.52A0.1 0.1 0 0 1 0.1 1.62L-0.1 1.63A0.1 0.1 0 0 1 -0.2 1.52L-0.2 0.47A0.1 0.1 0 0 1 -0.1 0.37Z" transform="matrix(15,0,0,-15,375.8,442.5)" fill="#fff" stroke="#ACB8D1" stroke-width="0.06666666666666667"></path>
<path d="M0 1.63L0 2M0 0L0 0.38M-0.1 0.38L0.1 0.38A0.1 0.1 0 0 1 0.2 0.47L0.2 1.52A0.1 0.1 0 0 1 0.1 1.62L-0.1 1.63A0.1 0.1 0 0 1 -0.2 1.52L-0.2 0.47A0.1 0.1 0 0 1 -0.1 0.37Z" transform="matrix(15,0,0,-15,469.8,442.5)" fill="#fff" stroke="#ACB8D1" stroke-width="0.06666666666666667"></path>
<path d="M-14 -15l108.8 0l0 30l-108.8 0Z" transform="translate(505.2009 15)" fill="none" stroke="#ccc" stroke-width="0"></path>
<path d="M-126.4 -5l252.8 0l0 28l-252.8 0Z" transform="translate(300 5)" fill="rgb(0,0,0)" fill-opacity="0" stroke="#ccc" stroke-width="0"></path>
<path d="M-6.5 -1.6L-0.1 4.3L6.5 -1.4M-6.5 3.8L-6.5 7.5L6.2 7.5L6.2 3.8M-0.1 4.2L-0.1 -7.5" transform="translate(505.2009 15)" fill="none" stroke="#666"></path>
<path d="M-7 0.9M4.5 -3L7.2 -3L7.2 -5.7M7 -2.6C5.9 -5.6 2.8 -7.9 -0.9 -7.5C-4.6 -7 -7.6 -3.7 -7.5 0.2M-4.5 3L-7.2 3L-7.2 5.7M-7 2.6C-5.9 5.6 -2.8 7.9 0.9 7.5C4.6 7 7.6 3.7 7.5 -0.2" transform="translate(532.1373 15)" fill="none" stroke="#666"></path>
<path d="M-7.5 -4L-0.5 -4M-4 -0.5L-4 -7.5M0.8 -4L7.5 -4L7.5 7.5L-4 7.5L-4 0.8" transform="translate(560.0952 15)" fill="none" stroke="#666"></path>
<path d="M-2.8 -7.5L-6 -4.3L-2.7 -1M-5.8 -4.3L6 -4.3L6 7.5L-5.8 7.5L-5.8 0.6" transform="translate(586.5476 15)" fill="none" stroke="#666"></path>
<text dominant-baseline="central" text-anchor="middle" style="font-size:18px;font-family:sans-serif;font-weight:bold;" xml:space="preserve" y="9" transform="translate(300 5)" fill="#464646">Rainfall and Flow Relationship</text>
<defs >
<clipPath id="zr35-c0">
<path d="M59 59.5l481 0l0 311l-481 0Z" fill="#000"></path>
</clipPath>
<clipPath id="zr35-c1">
<path d="M59 59.5l481 0l0 311l-481 0Z" fill="#000"></path>
</clipPath>
<clipPath id="zr35-c2">
<path d="M0 0l312 0l0 30l-312 0Z" transform="matrix(1,0,0,-1,62.8,442.5)" fill="#000"></path>
</clipPath>
<clipPath id="zr35-c3">
<path d="M312 0l96 0l0 30l-96 0Z" transform="matrix(1,0,0,-1,62.8,442.5)" fill="#000"></path>
</clipPath>
<clipPath id="zr35-c4">
<path d="M408 0l72 0l0 30l-72 0Z" transform="matrix(1,0,0,-1,62.8,442.5)" fill="#000"></path>
</clipPath>
</defs>
</svg>