<svg width="600" height="450" xmlns="http://www.w3.org/2000/svg" xmlns:xlink="http://www.w3.org/1999/xlink" version="1.1" baseProfile="full" viewBox="0 0 600 450">
<rect width="600" height="450" x="0" y="0" id="0" fill="none"></rect>
<path d="M60 217.5L550 217.5" fill="none" stroke="#E0E6F1"></path>
<path d="M60 186.5L550 186.5" fill="none" stroke="#E0E6F1"></path>
<path d="M60 154.5L550 154.5" fill="none" stroke="#E0E6F1"></path>
<path d="M60 123.5L550 123.5" fill="none" stroke="#E0E6F1"></path>
<path d="M60 91.5L550 91.5" fill="none" stroke="#E0E6F1"></path>
<path d="M60 60.5L550 60.5" fill="none" stroke="#E0E6F1"></path>
<path d="M60 247.5L550 247.5" fill="none" stroke="#E0E6F1"></path>
<path d="M60 279.5L550 279.5" fill="none" stroke="#E0E6F1"></path>
<path d="M60 310.5L550 310.5" fill="none" stroke="#E0E6F1"></path>
<path d="M60 342.5L550 342.5" fill="none" stroke="#E0E6F1"></path>
<path d="M60 373.5L550 373.5" fill="none" stroke="#E0E6F1"></path>
<path d="M60 405.5L550 405.5" fill="none" stroke="#E0E6F1"></path>
<text dominant-baseline="central" text-anchor="middle" style="font-size:12px;font-family:sans-serif;" y="-6" transform="translate(60 45)" fill="#6E7079">Evaporation(m³/s</text>
<text dominant-baseline="central" text-anchor="middle" style="font-size:12px;font-family:sans-serif;" y="6" transform="translate(60 420)" fill="#6E7079">Rainfall(mm</text>
<path d="M60 217.5L550 217.5" fill="none" stroke="#6E7079" stroke-linecap="round"></path>
<path d="M60 247.5L550 247.5" fill="none" stroke="#6E7079" stroke-linecap="round"></path>
<path d="M65.5 217.5L65.5 222.5" fill="none" stroke="#6E7079"></path>
<path d="M139.5 217.5L139.5 222.5" fill="none" stroke="#6E7079"></path>
<path d="M213.5 217.5L213.5 222.5" fill="none" stroke="#6E7079"></path>
<path d="M288.5 217.5L288.5 222.5" fill="none" stroke="#6E7079"></path>
<path d="M362.5 217.5L362.5 222.5" fill="none" stroke="#6E7079"></path>
<path d="M436.5 217.5L436.5 222.5" fill="none" stroke="#6E7079"></path>
<path d="M511.5 217.5L511.5 222.5" fill="none" stroke="#6E7079"></path>
<path d="M65.5 247.5L65.5 242.5" fill="none" stroke="#6E7079"></path>
<path d="M139.5 247.5L139.5 242.5" fill="none" stroke="#6E7079"></path>
<path d="M213.5 247.5L213.5 242.5" fill="none" stroke="#6E7079"></path>
<path d="M288.5 247.5L288.5 242.5" fill="none" stroke="#6E7079"></path>
<path d="M362.5 247.5L362.5 242.5" fill="none" stroke="#6E7079"></path>
<path d="M436.5 247.5L436.5 242.5" fill="none" stroke="#6E7079"></path>
<path d="M511.5 247.5L511.5 242.5" fill="none" stroke="#6E7079"></path>
<text dominant-baseline="central" text-anchor="end" style="font-size:12px;font-family:sans-serif;" transform="translate(52 217.5)" fill="#6E7079">0</text>
<text dominant-baseline="central" text-anchor="end" style="font-size:12px;font-family:sans-serif;" transform="translate(52 186)" fill="#6E7079">100</text>
<text dominant-baseline="central" text-anchor="end" style="font-size:12px;font-family:sans-serif;" transform="translate(52 154.5)" fill="#6E7079">200</text>
<text dominant-baseline="central" text-anchor="end" style="font-size:12px;font-family:sans-serif;" transform="translate(52 123)" fill="#6E7079">300</text>
<text dominant-baseline="central" text-anchor="end" style="font-size:12px;font-family:sans-serif;" transform="translate(52 91.5)" fill="#6E7079">400</text>
<text dominant-baseline="central" text-anchor="end" style="font-size:12px;font-family:sans-serif;" transform="translate(52 60)" fill="#6E7079">500</text>
<text dominant-baseline="central" text-anchor="end" style="font-size:12px;font-family:sans-serif;" transform="translate(52 247.5)" fill="#6E7079">0</text>
<text dominant-baseline="central" text-anchor="end" style="font-size:12px;font-family:sans-serif;" transform="translate(52 279)" fill="#6E7079">2</text>
<text dominant-baseline="central" text-anchor="end" style="font-size:12px;font-family:sans-serif;" transform="translate(52 310.5)" fill="#6E7079">4</text>
<text dominant-baseline="central" text-anchor="end" style="font-size:12px;font-family:sans-serif;" transform="translate(52 342)" fill="#6E7079">6</text>
<text dominant-baseline="central" text-anchor="end" style="font-size:12px;font-family:sans-serif;" transform="translate(52 373.5)" fill="#6E7079">8</text>
<text dominant-baseline="central" text-anchor="end" style="font-size:12px;font-family:sans-serif;" transform="translate(52 405)" fill="#6E7079">10</text>
<text dominant-baseline="central" text-anchor="middle" style="font-size:12px;font-family:sans-serif;" xml:space="preserve" y="6" transform="translate(64.7727 225.5)" fill="#6E7079">7/21 1:00</text>
<text dominant-baseline="central" text-anchor="middle" style="font-size:12px;font-family:sans-serif;" xml:space="preserve" y="6" transform="translate(139.1477 225.5)" fill="#6E7079">7/28 20:00</text>
<text dominant-baseline="central" text-anchor="middle" style="font-size:12px;font-family:sans-serif;" xml:space="preserve" y="6" transform="translate(213.5227 225.5)" fill="#6E7079">8/5 15:00</text>
<text dominant-baseline="central" text-anchor="middle" style="font-size:12px;font-family:sans-serif;" xml:space="preserve" y="6" transform="translate(287.8977 225.5)" fill="#6E7079">8/13 10:00</text>
<text dominant-baseline="central" text-anchor="middle" style="font-size:12px;font-family:sans-serif;" xml:space="preserve" y="6" transform="translate(362.2727 225.5)" fill="#6E7079">8/21 5:00</text>
<text dominant-baseline="central" text-anchor="middle" style="font-size:12px;font-family:sans-serif;" xml:space="preserve" y="6" transform="translate(436.6477 225.5)" fill="#6E7079">8/29 0:00</text>
<text dominant-baseline="central" text-anchor="middle" style="font-size:12px;font-family:sans-serif;" xml:space="preserve" y="6" transform="translate(511.0227 225.5)" fill="#6E7079">9/5 19:00</text>
<text dominant-baseline="central" text-anchor="middle" style="font-size:12px;font-family:sans-serif;" xml:space="preserve" y="-6" transform="translate(64.7727 239.5)" fill="#6E7079">7/21 1:00</text>
<text dominant-baseline="central" text-anchor="middle" style="font-size:12px;font-family:sans-serif;" xml:space="preserve" y="-6" transform="translate(139.1477 239.5)" fill="#6E7079">7/28 20:00</text>
<text dominant-baseline="central" text-anchor="middle" style="font-size:12px;font-family:sans-serif;" xml:space="preserve" y="-6" transform="translate(213.5227 239.5)" fill="#6E7079">8/5 15:00</text>
<text dominant-baseline="central" text-anchor="middle" style="font-size:12px;font-family:sans-serif;" xml:space="preserve" y="-6" transform="translate(287.8977 239.5)" fill="#6E7079">8/13 10:00</text>
<text dominant-baseline="central" text-anchor="middle" style="font-size:12px;font-family:sans-serif;" xml:space="preserve" y="-6" transform="translate(362.2727 239.5)" fill="#6E7079">8/21 5:00</text>
<text dominant-baseline="central" text-anchor="middle" style="font-size:12px;font-family:sans-serif;" xml:space="preserve" y="-6" transform="translate(436.6477 239.5)" fill="#6E7079">8/29 0:00</text>
<text dominant-baseline="central" text-anchor="middle" style="font-size:12px;font-family:sans-serif;" xml:space="preserve" y="-6" transform="translate(511.0227 239.5)" fill="#6E7079">9/5 19:00</text>
<g clip-path="url(#zr30-c0)">
<path d="M60 217.3L60.8 217.3L61.6 217.3L62.4 217.3L63.2 217.3L64 217.3L64.8 217.3L65.6 217.3L66.4 217.3L67.2 217.3L68 217.3L68.8 217.3L69.5 217.3L70.3 217.3L71.1 217.3L71.9 217.3L72.7 217.3L73.5 217.3L74.3 217.3L75.1 217.3L75.9 217.3L76.7 217.3L77.5 217.3L78.3 217.3L79.1 217.3L79.9 217.3L80.7 217.3L81.5 217.3L82.3 217.3L83.1 217.3L83.9 217.3L84.7 217.3L85.5 217.3L86.3 217.3L87 217.3L87.8 217.3L88.6 217.3L89.4 217.3L90.2 217.3L91 217.3L91.8 217.3L92.6 217.3L93.4 217.3L94.2 217.3L95 217.3L95.8 217.3L96.6 217.3L97.4 217.3L98.2 217.3L99 217.3L99.8 217.3L100.6 217.3L101.4 217.3L102.2 217.3L103 217.3L103.8 217.3L104.5 217.3L105.3 217.3L106.1 217.3L106.9 217.3L107.7 217.3L108.5 217.3L109.3 217.3L110.1 217.3L110.9 217.3L111.7 217.3L112.5 217.3L113.3 217.3L114.1 217.3L114.9 217.3L115.7 217.3L116.5 217.3L117.3 217.3L118.1 217.3L118.9 217.3L119.7 217.3L120.5 217.3L121.3 217.3L122 217.3L122.8 217.3L123.6 217.2L124.4 217.2L125.2 217.2L126 217.2L126.8 217.2L127.6 217.2L128.4 217.1L129.2 217.1L130 217.1L130.8 217.1L131.6 217.1L132.4 217.1L133.2 217.1L134 217.1L134.8 217.1L135.6 217.1L136.4 217.1L137.2 217.1L138 217.1L138.8 217.2L139.5 217.2L140.3 217.2L141.1 217.2L141.9 217.3L142.7 217.3L143.5 217.3L144.3 217.3L145.1 217.3L145.9 217.3L146.7 217.3L147.5 217.3L148.3 217.3L149.1 217.3L149.9 217.3L150.7 217.3L151.5 217.3L152.3 217.2L153.1 217.2L153.9 217.2L154.7 217.2L155.5 217.2L156.3 217.2L157 217.2L157.8 217.1L158.6 217.1L159.4 217.1L160.2 217.1L161 217.1L161.8 217.1L162.6 217.1L163.4 217.1L164.2 217.1L165 217L165.8 217L166.6 217L167.4 217L168.2 217L169 217L169.8 217L170.6 217L171.4 217L172.2 217L173 217L173.8 217L174.5 216.9L175.3 216.7L176.1 216.6L176.9 216.5L177.7 216.3L178.5 216.2L179.3 216.1L180.1 216L180.9 216L181.7 215.9L182.5 215.8L183.3 215.7L184.1 215.6L184.9 215.5L185.7 215.4L186.5 215.2L187.3 215.1L188.1 214.9L188.9 214.7L189.7 214.5L190.5 214.3L191.3 214L192 213.6L192.8 212.5L193.2 205.4L193.6 191.6L194 171.3L194.4 148.6L194.8 146.3L195.6 147.2L196 148.3L196.4 150.7L196.8 154.6L197.2 159.4L197.6 164.6L198 169.7L198.4 174.3L198.8 177.7L199.2 179.7L199.6 181.1L200 182.2L200.4 183.2L200.8 184.3L201.2 185.7L201.6 187.7L202 190.3L202.4 193L202.8 195.5L203.2 197.4L203.6 198.5L204 199.4L204.4 200.2L204.8 200.9L205.2 201.6L206 202.7L206.8 203.8L207.2 204.4L207.6 205.1L208 205.8L208.4 206.5L208.8 207.3L209.1 208L209.5 208.6L210.3 209.4L211.1 209.5L211.9 209.5L212.7 209.5L213.5 209.5L214.3 209.5L215.1 209.5L215.9 209.5L216.7 210L217.5 210.8L218.3 211.7L219.1 212.5L219.9 213L220.7 213.1L221.5 213L222.3 213L223.1 212.8L223.9 212.7L224.7 212.6L225.5 212.4L226.3 212.2L227 212.1L227.8 212L228.6 211.9L229.4 211.9L230.2 211.9L231 212.5L231.8 213.5L232.6 214.6L233.4 215.6L234.2 216.3L235 216.5L235.8 216.6L236.6 216.7L237.4 216.8L238.2 216.8L239 216.9L239.8 217L240.6 217L241.4 217.1L242.2 217.1L243 217.1L243.8 217.1L244.5 217.1L245.3 217.1L246.1 217.1L246.9 217.1L247.7 217.1L248.5 217.1L249.3 217.1L250.1 217.1L250.9 217.1L251.7 217.1L252.5 217.1L253.3 217.1L254.1 217.1L254.9 217.1L255.7 217.1L256.5 217.1L257.3 217.1L258.1 217.1L258.9 217.1L259.7 217.1L260.5 217.1L261.3 217.1L262 217.1L262.8 217.1L263.6 217.1L264.4 217.1L265.2 217.1L266 217.1L266.8 217.1L267.6 217.1L268.4 217.1L269.2 217.2L270 217.3L270.8 217.3L271.6 217.3L272.4 217.3L273.2 217.3L274 217.3L274.8 217.3L275.6 217.3L276.4 217.3L277.2 217.3L278 217.3L278.8 217.3L279.5 217.3L280.3 217.3L281.1 217.3L281.9 217.3L282.7 217.3L283.5 217.3L284.3 217.3L285.1 217.3L285.9 217.3L286.7 217.3L287.5 217.3L288.3 217.3L289.1 217.3L289.9 217.3L290.7 217.3L291.5 217.3L292.3 217.3L293.1 217.3L293.9 217.3L294.7 217.3L295.5 217.3L296.3 217.3L297 217.3L297.8 217.3L298.6 217.3L299.4 217.3L300.2 217.3L301 217.3L301.8 217.3L302.6 217.3L303.4 217.3L304.2 217.3L305 217.3L305.8 217.3L306.6 217.3L307.4 217.3L308.2 217.3L309 217.3L309.8 217.3L310.6 217.3L311.4 217.3L312.2 217.3L313 217.3L313.8 217.3L314.5 217.3L315.3 217.3L316.1 217.3L316.9 217.3L317.7 217.3L318.5 217.2L319.3 217.2L320.1 217.1L320.9 217L321.7 216.8L322.5 216.6L323.3 216.3L324.1 216L324.9 215.6L325.7 215L326.1 214.2L326.5 213.1L326.9 211.7L327.3 210.2L327.7 208.7L328.1 207.1L328.5 205.7L328.9 204.4L329.3 203.4L329.7 202.8L330.5 202.7L331.3 204L331.6 204.9L332 205.7L332.4 206.5L332.8 207.2L333.2 208L333.6 208.8L334 209.5L334.8 210.2L335.6 210.3L336.4 210.3L337.2 210.3L338 210.2L338.8 209.7L339.6 208.9L340.4 207.8L340.8 207L341.2 205.8L341.6 204.2L342 202.1L342.4 197L342.8 138.1L343.2 136.5L343.6 142.7L344 147.8L344.4 150.7L344.8 151.8L345.6 152.9L346 153.8L346.4 157.7L346.8 163.3L347.2 165.4L347.6 166.9L348 168.1L348.4 169.2L348.8 170.4L349.1 172L349.5 173.9L349.9 176.2L350.3 178.7L350.7 181.3L351.1 183.9L351.5 186.4L351.9 188.7L352.3 190.7L352.7 192.3L353.1 193.7L353.5 195.1L353.9 196.5L354.3 197.8L354.7 199L355.1 199.9L355.5 200.7L356.3 201.4L356.7 199.7L357.1 196L357.5 192.3L357.9 188.8L358.3 185.4L358.7 183.2L359.1 182.1L359.5 181.2L359.9 180.4L360.7 179.5L361.5 179.9L361.9 181.1L362.3 182.7L362.7 184.3L363.1 185.5L363.9 186L364.7 186L365.5 186L366.3 186L367 186.1L367.8 186.1L368.6 186.1L369.4 186.1L369.8 179L370.2 166L370.6 158.9L371 159.9L371.4 162.3L371.8 165.7L372.2 169.2L372.6 172.5L373 174.7L373.4 176.1L373.8 177.5L374.2 178.8L374.6 180.1L375 181.2L375.4 182.4L375.8 183.4L376.2 184.5L376.6 185.4L377 186.3L377.4 187.2L377.8 188.1L378.2 188.9L378.6 189.7L379 190.4L379.4 191.1L379.8 191.8L380.2 192.5L380.6 193.2L381 193.8L381.4 194.5L381.8 195.2L382.2 195.8L382.6 196.5L383 197.1L383.8 198.2L384.1 198.7L384.5 199.3L385.3 200.3L386.1 201.1L386.9 201.8L387.7 202.7L388.1 203.4L388.5 204L388.9 204.8L389.3 205.5L389.7 206.3L390.1 207L390.5 207.6L391.3 208.6L392.1 208.9L392.9 208.9L393.7 208.9L394.5 208.9L395.3 208.9L396.1 208.9L396.9 208.9L397.7 209L398.5 209.2L399.3 209.5L400.1 209.8L400.9 210.1L401.6 210.3L402.4 210.5L403.2 210.8L404 211L404.8 211.2L405.6 211.3L406.4 211.5L407.2 211.5L408 211.6L408.8 211.6L409.6 211.6L410.4 211.7L411.2 211.7L412 211.8L412.8 211.9L413.6 212.1L414.4 212.2L415.2 212.4L416 212.6L416.8 212.7L417.6 212.9L418.4 213L419.1 213.2L419.9 213.3L420.7 213.5L421.5 213.6L422.3 213.7L423.1 213.8L423.9 213.8L424.7 213.9L425.5 214L426.3 214.2L427.1 214.3L427.9 214.5L428.7 214.6L429.5 214.8L430.3 214.9L431.1 215L431.9 215L432.7 215.1L433.5 215.2L434.3 215.2L435.1 215.2L435.9 214.8L436.6 213.9L437 213.2L437.4 212.5L437.8 211.8L438.2 211.1L438.6 210.4L439 209.8L439.8 208.9L440.6 208.4L441.4 207.8L442.2 207.3L443 206.8L443.8 206.4L444.6 206L445.4 205.6L446.2 205.3L447 205.1L447.8 204.9L448.6 204.8L449.4 204.7L450.2 204.8L451 205.2L451.8 205.8L452.6 206.5L453.4 207.4L454.1 208.2L454.9 209.1L455.7 210L456.5 210.7L457.3 211.3L458.1 211.7L458.9 211.8L459.7 211.8L460.5 211.9L461.3 211.9L462.1 211.9L462.9 211.9L463.7 211.9L464.5 212L465.3 212.2L466.1 212.6L466.9 212.9L467.7 213.2L468.5 213.5L469.3 213.6L470.1 213.8L470.9 213.9L471.6 214L472.4 214.2L473.2 214.3L474 214.4L474.8 214.5L475.6 214.6L476.4 214.8L477.2 214.9L478 215L478.8 215.1L479.6 215.2L480.4 215.3L481.2 215.4L482 215.4L482.8 215.5L483.6 215.6L484.4 215.6L485.2 215.7L486 215.7L486.8 215.8L487.6 215.9L488.4 215.9L489.1 216L489.9 216L490.7 216.1L491.5 216.2L492.3 216.2L493.1 216.3L493.9 216.4L494.7 216.5L495.5 216.5L496.3 216.6L497.1 216.6L497.9 216.6L498.7 216.6L499.5 216.6L500.3 216.6L501.1 216.6L501.9 216.6L502.7 216.6L503.5 216.6L504.3 216.7L505.1 216.8L505.9 216.8L506.6 216.8L507.4 216.8L508.2 216.8L509 216.8L509.8 216.8L510.6 216.8L511.4 216.8L512.2 216.9L513 216.9L513.8 217L514.6 217L515.4 217.1L516.2 217.1L517 217.1L517.8 217.2L518.6 217.2L519.4 217.2L520.2 217.2L521 217.2L521.8 217.3L522.6 217.3L523.4 217.3L524.1 217.3L524.9 217.3L525.7 217.3L526.5 217.3L527.3 217.3L528.1 217.3L528.9 217.3L529.7 217.4L530.5 217.4L531.3 217.3L532.1 217.3L532.9 217.3L533.7 217.3L534.5 217.3L535.3 217.3L536.1 217.3L536.9 217.3L537.7 217.3L538.5 217.3L539.3 217.3L540.1 217.3L540.9 217.3L541.6 217.3L542.4 217.3L543.2 217.3L544 217.3L544.8 217.3L545.6 217.3L546.4 217.3L547.2 217.3L548 217.3L548.8 217.3L549.6 217.3" fill="none" stroke="#5470c6" stroke-width="2" stroke-linejoin="bevel"></path>
</g>
<g clip-path="url(#zr30-c1)">
<path d="M60 247.5L60.8 247.5L61.6 247.5L62.4 247.5L63.2 247.5L64 247.5L64.8 247.5L65.6 247.5L66.4 247.5L67.2 247.5L68 247.9L68.4 248.6L69.1 248.8L69.9 255.4L70.3 259.7L70.7 248.1L71.5 247.7L72.3 247.8L73.1 247.9L73.9 248.4L74.7 250.5L75.1 249.9L75.9 249.7L76.7 248.8L77.1 248L77.9 247.8L78.7 247.6L79.5 247.5L80.3 247.8L81.1 248.3L81.9 248.4L82.7 247.6L83.5 247.6L84.3 247.5L85.1 247.5L85.9 247.5L86.6 247.5L87.4 247.5L88.2 247.5L89 247.5L89.8 247.5L90.6 247.5L91.4 247.5L92.2 247.5L93 247.5L93.8 247.5L94.6 247.5L95.4 247.5L96.2 247.5L97 247.5L97.8 247.5L98.6 247.5L99.4 247.5L100.2 247.5L101 247.5L101.8 247.5L102.6 247.5L103.4 247.5L104.1 247.5L104.9 247.5L105.7 247.5L106.5 247.5L107.3 247.5L108.1 247.5L108.9 247.5L109.7 247.5L110.5 247.5L111.3 247.5L112.1 247.5L112.9 247.5L113.7 247.7L114.5 248.1L115.3 249L115.7 251.2L116.1 251.8L116.5 253.4L116.9 258.9L117.3 271L117.7 306.7L118.1 262.5L118.5 254.4L119.3 254.8L119.7 253.4L120.1 251.4L120.9 249.1L121.3 248.2L122 247.9L122.8 247.5L123.6 247.5L124.4 247.5L125.2 247.8L126 247.9L126.8 247.9L127.6 247.5L128.4 247.5L129.2 247.5L130 247.5L130.8 247.5L131.6 247.5L132.4 247.5L133.2 247.5L134 247.5L134.8 247.5L135.6 247.5L136.4 247.5L137.2 247.5L138 247.5L138.8 247.5L139.5 247.5L140.3 247.5L141.1 247.5L141.9 247.5L142.7 247.5L143.5 247.5L144.3 247.5L145.1 247.5L145.9 247.5L146.7 247.5L147.5 247.5L148.3 247.5L149.1 247.5L149.9 247.5L150.7 247.5L151.5 247.5L152.3 247.5L153.1 247.5L153.9 247.6L154.7 247.8L155.5 250.4L155.9 252.4L156.3 251.3L157 261.6L157.4 311.6L157.8 318.3L158.2 326.5L158.6 302.5L159 279.9L159.4 269.7L159.8 258.8L160.2 253.9L160.6 252.4L161.4 271.7L161.8 264.9L162.2 250.9L162.6 249.6L163 248L163.8 247.5L164.6 247.5L165.4 247.5L166.2 247.5L167 247.5L167.8 247.5L168.6 247.5L169.4 247.5L170.2 247.5L171 248.1L171.4 254.6L171.8 266.4L172.2 268.1L173 269.9L173.4 266.8L173.8 254.9L174.1 259.6L174.5 254.2L174.9 251.8L175.3 254L175.7 257.7L176.1 255.1L176.5 251.3L176.9 249.6L177.3 247.5L178.1 247.5L178.9 247.5L179.7 247.5L180.5 247.5L181.3 247.5L182.1 247.5L182.9 247.5L183.7 247.5L184.5 247.5L185.3 247.5L186.1 247.5L186.9 247.5L187.3 248.2L187.7 249.9L188.1 251L188.5 253.6L188.9 255.6L189.3 261.4L189.7 292L190.1 322.9L190.5 341.4L190.9 325.5L191.3 348.8L191.6 347L192 300.3L192.4 291.7L192.8 313.7L193.2 269.5L193.6 263.5L194.4 260.7L194.8 259.2L195.6 257.2L196 255L196.4 250.5L196.8 248.2L197.2 247.6L198 247.6L198.8 247.6L199.6 247.6L200.4 247.6L201.2 247.6L202 247.5L202.8 247.5L203.6 247.5L204.4 247.5L205.2 247.5L206 247.5L206.8 247.5L207.6 247.5L208.4 247.5L209.1 247.5L209.9 247.5L210.7 247.5L211.5 247.5L212.3 247.5L213.1 247.5L213.9 247.5L214.7 247.5L215.5 247.5L216.3 247.5L217.1 247.5L217.9 247.5L218.7 247.5L219.5 247.5L220.3 247.5L221.1 247.5L221.9 247.5L222.7 247.5L223.5 247.5L224.3 247.5L225.1 247.5L225.9 247.5L226.6 247.7L227.4 247.7L228.2 247.7L229 247.5L229.8 247.5L230.6 247.5L231.4 247.5L232.2 247.5L233 247.5L233.8 247.5L234.6 247.5L235.4 247.5L236.2 247.5L237 247.5L237.8 247.5L238.6 247.5L239.4 247.5L240.2 247.5L241 247.5L241.8 247.5L242.6 247.5L243.4 247.5L244.1 247.5L244.9 247.5L245.7 247.5L246.5 247.5L247.3 247.9L248.1 247.9L248.5 249.7L248.9 248.9L249.7 248.8L250.5 258.8L250.9 249.9L251.3 248.2L252.1 249.5L252.5 247.8L253.3 247.7L254.1 248L254.5 248.6L255.3 249L256.1 249.7L256.5 248.9L256.9 248L257.7 247.9L258.5 247.5L259.3 247.5L260.1 247.5L260.9 247.5L261.6 247.5L262.4 247.5L263.2 247.5L263.6 248.2L264 251.1L264.4 252.2L265.2 252.8L265.6 256.7L266 267.1L266.4 260L266.8 255.6L267.2 251.1L267.6 248.3L268 247.6L268.8 247.5L269.6 247.5L270.4 247.5L271.2 247.5L272 247.5L272.8 247.6L273.6 247.6L274 248.8L274.4 249.5L274.8 247.5L275.6 247.5L276.4 247.5L277.2 247.5L278 247.5L278.8 247.5L279.5 247.5L280.3 247.5L281.1 247.5L281.9 247.5L282.7 247.5L283.5 247.5L284.3 247.5L285.1 247.5L285.9 247.5L286.7 247.5L287.5 247.5L288.3 247.5L289.1 247.5L289.9 247.5L290.7 247.5L291.5 247.5L292.3 247.5L293.1 247.5L293.9 247.5L294.7 247.5L295.5 247.5L296.3 247.5L297 247.5L297.8 247.5L298.6 248.1L299.4 248.1L300.2 247.9L301 247.5L301.8 247.5L302.6 247.5L303.4 247.5L304.2 247.5L305 247.5L305.8 247.5L306.6 247.5L307.4 247.8L308.2 247.8L309 253.1L309.4 250.2L309.8 247.6L310.6 247.7L311 249.6L311.4 250.8L312.2 250.8L313 363.4L313.4 276.8L313.8 254.7L314.1 248.3L314.9 248.2L315.7 248.2L316.5 249.6L316.9 250.5L317.7 250.8L318.1 256.8L318.5 271.4L318.9 342.3L319.3 321.3L319.7 317.1L320.1 257.3L320.5 252.6L321.3 256.2L321.7 261.7L322.1 262.3L322.5 294L322.9 395.8L323.3 338.1L323.7 264.7L324.1 249L324.5 248.1L325.3 247.8L326.1 247.7L326.9 247.7L327.7 247.5L328.5 247.5L329.3 247.5L330.1 247.5L330.9 247.5L331.6 248.4L332 251.8L332.4 252.4L333.2 253.1L333.6 257.1L334 260L334.4 276.7L334.8 260.9L335.2 256L335.6 250.9L336.4 250.3L337.2 251.1L338 251.8L338.4 253.8L338.8 254.6L339.2 263.5L339.6 293.4L340 273.9L340.4 248.8L341.2 248.4L341.6 249.8L342 248.7L342.8 248.7L343.2 251.2L343.6 259.8L344.4 259.8L345.2 259.2L345.6 249.3L346 248.4L346.8 248.4L347.6 247.7L348.4 247.7L349.1 247.7L349.9 257L350.3 263L350.7 268.1L351.1 283.3L351.5 287.3L351.9 284.3L352.3 286.8L352.7 283.4L353.1 269.5L353.5 274.5L353.9 298.8L354.3 265.9L354.7 259.2L355.1 256.1L355.5 264.2L355.9 258.3L356.3 259L356.7 253.7L357.1 250.3L357.5 252L358.3 254.7L358.7 248.8L359.5 249.1L360.3 249.1L360.7 249.8L361.5 251.2L361.9 252.5L362.3 251.6L363.1 260L363.5 254.2L363.9 252.7L364.3 251.6L364.7 249.2L365.5 249.1L365.9 250.2L366.3 252.1L366.6 255.4L367 257L367.4 275L367.8 286.6L368.2 278.4L368.6 252.7L369 250.2L369.4 251.6L370.2 250.9L370.6 253.3L371.4 250.7L372.2 251.6L372.6 249.9L373.4 249.7L373.8 253.2L374.2 258.4L374.6 252.1L375 254.3L375.4 249.9L375.8 248.4L376.6 248.3L377.4 248.3L378.2 248.5L379 248.9L379.4 250.7L379.8 260.3L380.2 249.1L380.6 249.9L381 248.3L381.8 247.6L382.6 247.5L383.4 247.5L384.1 247.8L384.9 247.8L385.7 247.7L386.5 247.7L387.3 247.7L388.1 247.7L388.9 247.7L389.7 247.7L390.5 247.7L391.3 247.7L392.1 247.7L392.9 247.6L393.7 247.5L394.5 247.5L395.3 247.5L396.1 247.5L396.9 247.5L397.7 247.5L398.5 247.5L399.3 247.5L400.1 247.8L400.9 247.8L401.6 247.8L402.4 247.5L403.2 247.5L404 247.5L404.8 247.5L405.6 247.5L406.4 250.2L406.8 251.6L407.6 251.7L408 255.9L408.4 268.8L408.8 275.4L409.2 258.8L409.6 250.9L410 247.8L410.8 247.9L411.6 248L412 250.6L412.4 248.8L412.8 248.1L413.2 252L413.6 247.9L414.4 248.1L415.2 247.8L416 247.5L416.8 247.5L417.6 247.5L418.4 247.5L419.1 247.5L419.9 247.5L420.7 247.5L421.5 247.5L422.3 247.5L423.1 247.5L423.9 247.5L424.7 247.5L425.5 247.5L426.3 247.5L427.1 247.5L427.9 247.5L428.7 247.5L429.5 247.8L430.3 248L431.1 248.2L431.9 249.1L432.3 249.8L433.1 250.7L433.5 252.7L433.9 263.2L434.3 255.7L434.7 276.7L435.1 306.2L435.5 299L435.9 282.2L436.3 265.9L436.6 263.3L437 266.1L437.4 259.2L438.2 264.3L438.6 262.1L439 258.1L439.4 255.3L439.8 254.3L440.2 252.7L440.6 251.9L441 249.5L441.4 256.7L441.8 250.8L442.2 253.2L442.6 286.6L443 248.1L443.8 247.5L444.6 247.5L445.4 247.6L445.8 249L446.2 247.9L447 247.8L447.8 248.1L448.6 248.2L449.4 248.2L450.2 247.7L451 247.7L451.8 247.7L452.6 248L453.4 248.5L453.8 249.4L454.5 248.9L455.3 248.5L456.1 248.4L456.9 248.1L457.7 248.2L458.5 247.9L459.3 247.7L460.1 247.7L460.9 247.8L461.7 248L462.5 248L463.3 247.7L464.1 247.7L464.9 247.7L465.7 247.9L466.5 247.9L467.3 247.7L468.1 247.7L468.9 247.7L469.7 247.7L470.5 247.7L471.3 247.7L472 247.7L472.8 247.7L473.6 247.7L474.4 247.5L475.2 247.5L476 247.5L476.8 247.5L477.6 247.5L478.4 247.5L479.2 247.5L480 247.5L480.8 247.5L481.6 247.5L482.4 247.5L483.2 247.5L484 247.5L484.8 247.5L485.6 247.5L486.4 247.5L487.2 247.5L488 247.5L488.8 247.5L489.5 247.5L490.3 247.5L491.1 247.5L491.9 247.5L492.7 247.5L493.5 247.5L494.3 247.5L495.1 247.8L495.9 247.9L496.7 250.2L497.5 250.9L497.9 251.7L498.3 255.5L498.7 258L499.1 250L499.5 247.8L500.3 247.8L501.1 248.4L501.5 247.5L502.3 247.5L503.1 247.5L503.9 247.5L504.7 247.5L505.5 247.5L506.3 247.5L507 247.5L507.8 247.8L508.6 247.8L509.4 247.8L510.2 247.5L511 247.5L511.8 247.5L512.6 247.5L513.4 247.7L514.2 247.8L515 247.8L515.8 247.8L516.6 247.8L517.4 247.7L518.2 247.5L519 247.5L519.8 247.5L520.6 248.5L521.4 249.3L522.2 250.7L522.6 248.6L523.4 247.8L524.1 247.5L524.9 247.5L525.7 247.5L526.5 247.5L527.3 247.5L528.1 247.5L528.9 247.6L529.7 247.8L530.5 247.8L531.3 248L532.1 247.9L532.9 249L533.3 247.9L534.1 247.9L534.9 247.8L535.7 247.8L536.5 247.7L537.3 248.2L538.1 248.2L538.9 247.8L539.7 247.9L540.5 248L541.3 247.9L542 247.5L542.8 247.5L543.6 247.5L544.4 247.5L545.2 247.8L546 247.8L546.8 247.5L547.6 247.5L548.4 247.5L549.2 248L550 248" fill="none" stroke="#91cc75" stroke-width="2" stroke-linejoin="bevel"></path>
</g>
<path d="M1 0A1 1 0 1 1 1 -0.1A1 1 0 0 1 1 0" transform="matrix(4,0,0,4,64.7727,217.2764)" fill="#fff" stroke="#5470c6" stroke-width="0.5"></path>
<path d="M1 0A1 1 0 1 1 1 -0.1A1 1 0 0 1 1 0" transform="matrix(4,0,0,4,139.1477,217.1693)" fill="#fff" stroke="#5470c6" stroke-width="0.5"></path>
<path d="M1 0A1 1 0 1 1 1 -0.1A1 1 0 0 1 1 0" transform="matrix(4,0,0,4,213.5227,209.4675)" fill="#fff" stroke="#5470c6" stroke-width="0.5"></path>
<path d="M1 0A1 1 0 1 1 1 -0.1A1 1 0 0 1 1 0" transform="matrix(4,0,0,4,287.8977,217.289)" fill="#fff" stroke="#5470c6" stroke-width="0.5"></path>
<path d="M1 0A1 1 0 1 1 1 -0.1A1 1 0 0 1 1 0" transform="matrix(4,0,0,4,362.2727,182.6862)" fill="#fff" stroke="#5470c6" stroke-width="0.5"></path>
<path d="M1 0A1 1 0 1 1 1 -0.1A1 1 0 0 1 1 0" transform="matrix(4,0,0,4,436.6477,213.8523)" fill="#fff" stroke="#5470c6" stroke-width="0.5"></path>
<path d="M1 0A1 1 0 1 1 1 -0.1A1 1 0 0 1 1 0" transform="matrix(4,0,0,4,511.0227,216.8322)" fill="#fff" stroke="#5470c6" stroke-width="0.5"></path>
<path d="M1 0A1 1 0 1 1 1 -0.1A1 1 0 0 1 1 0" transform="matrix(4,0,0,4,64.7727,247.5)" fill="#fff" stroke="#91cc75" stroke-width="0.5"></path>
<path d="M1 0A1 1 0 1 1 1 -0.1A1 1 0 0 1 1 0" transform="matrix(4,0,0,4,139.1477,247.5)" fill="#fff" stroke="#91cc75" stroke-width="0.5"></path>
<path d="M1 0A1 1 0 1 1 1 -0.1A1 1 0 0 1 1 0" transform="matrix(4,0,0,4,213.5227,247.5)" fill="#fff" stroke="#91cc75" stroke-width="0.5"></path>
<path d="M1 0A1 1 0 1 1 1 -0.1A1 1 0 0 1 1 0" transform="matrix(4,0,0,4,287.8977,247.5)" fill="#fff" stroke="#91cc75" stroke-width="0.5"></path>
<path d="M1 0A1 1 0 1 1 1 -0.1A1 1 0 0 1 1 0" transform="matrix(4,0,0,4,362.2727,251.6265)" fill="#fff" stroke="#91cc75" stroke-width="0.5"></path>
<path d="M1 0A1 1 0 1 1 1 -0.1A1 1 0 0 1 1 0" transform="matrix(4,0,0,4,436.6477,263.3445)" fill="#fff" stroke="#91cc75" stroke-width="0.5"></path>
<path d="M1 0A1 1 0 1 1 1 -0.1A1 1 0 0 1 1 0" transform="matrix(4,0,0,4,511.0227,247.5)" fill="#fff" stroke="#91cc75" stroke-width="0.5"></path>
<path d="M0 0l490 0l0 30l-490 0Z" transform="matrix(1,0,0,-1,62.8,442.5)" fill="rgb(47,69,84)" fill-opacity="0"></path>
<g clip-path="url(#zr30-c2)">
<polygon points="490 0 0 0 0 5.7 1 5.7 1.9 5.7 2.9 5.7 3.8 5.7 4.8 5.7 5.7 5.7 6.7 5.7 7.6 5.7 8.6 5.7 9.6 5.7 10.5 5.7 11.5 5.7 12.4 5.7 13.4 5.7 14.3 5.7 15.3 5.7 16.2 5.7 17.2 5.7 18.1 5.7 19.1 5.7 20.1 5.7 21 5.7 22 5.6 22.9 5.6 23.9 5.6 24.8 5.6 25.8 5.6 26.7 5.7 27.7 5.7 28.7 5.7 29.6 5.7 30.6 5.7 31.5 5.7 32.5 5.7 33.4 5.7 34.4 5.7 35.3 5.7 36.3 5.7 37.3 5.7 38.2 5.7 39.2 5.7 40.1 5.7 41.1 5.7 42 5.7 43 5.7 43.9 5.7 44.9 5.7 45.8 5.7 46.8 5.6 47.8 5.6 48.7 5.6 49.7 5.6 50.6 5.6 51.6 5.6 52.5 5.6 53.5 5.6 54.4 5.6 55.4 5.6 56.4 5.6 57.3 5.6 58.3 5.6 59.2 5.6 60.2 5.6 61.1 5.6 62.1 5.6 63 5.6 64 5.6 65 5.6 65.9 5.6 66.9 5.6 67.8 5.6 68.8 5.6 69.7 5.6 70.7 5.6 71.6 5.6 72.6 5.6 73.5 5.6 74.5 5.6 75.5 5.6 76.4 5.6 77.4 5.6 78.3 5.6 79.3 5.6 80.2 5.6 81.2 5.6 82.1 5.6 83.1 5.6 84.1 5.7 85 5.8 86 5.8 86.9 5.8 87.9 5.7 88.8 5.7 89.8 5.7 90.7 5.7 91.7 5.7 92.7 5.7 93.6 5.7 94.6 5.7 95.5 5.7 96.5 5.6 97.4 5.6 98.4 5.6 99.3 5.6 100.3 5.6 101.2 5.6 102.2 5.6 103.2 5.6 104.1 5.6 105.1 5.6 106 5.6 107 5.6 107.9 5.6 108.9 5.6 109.8 5.6 110.8 5.6 111.8 5.6 112.7 5.6 113.7 5.6 114.6 5.6 115.6 5.6 116.5 5.6 117.5 5.6 118.4 5.6 119.4 5.6 120.4 5.6 121.3 5.6 122.3 5.6 123.2 5.6 124.2 5.6 125.1 5.6 126.1 5.6 127 5.6 128 5.6 128.9 5.6 129.9 5.6 130.9 5.6 131.8 5.6 132.8 5.6 133.7 5.6 134.7 5.6 135.6 5.6 136.6 5.6 137.5 5.6 138.5 5.7 139.5 5.7 140.4 5.7 141.4 5.7 142.3 5.6 143.3 5.6 144.2 5.6 145.2 5.6 146.1 5.6 147.1 5.6 148.1 5.6 149 5.6 150 5.6 150.9 5.6 151.9 5.6 152.8 5.6 153.8 5.6 154.7 5.6 155.7 5.6 156.6 5.6 157.6 5.6 158.6 5.6 159.5 5.6 160.5 5.6 161.4 5.6 162.4 5.6 163.3 5.6 164.3 5.6 165.2 5.6 166.2 5.6 167.2 5.6 168.1 5.6 169.1 5.6 170 5.6 171 5.6 171.9 5.6 172.9 5.7 173.8 5.7 174.8 5.7 175.8 5.7 176.7 5.7 177.7 5.7 178.6 5.7 179.6 5.6 180.5 5.6 181.5 5.6 182.4 5.6 183.4 5.6 184.3 5.6 185.3 5.7 186.3 5.7 187.2 5.7 188.2 5.7 189.1 5.7 190.1 5.7 191 5.7 192 5.7 192.9 5.7 193.9 5.8 194.9 5.8 195.8 5.9 196.8 5.9 197.7 6 198.7 6.1 199.6 6.2 200.6 13.1 201.5 16.5 202.5 12.1 203.5 10.8 204.4 8.7 205.4 8 206.3 7.4 207.3 6.9 208.2 6.9 209.2 6.9 210.1 6.6 211.1 6.3 212 6.4 213 6.4 214 6.5 214.9 6.5 215.9 6.2 216.8 5.8 217.8 5.7 218.7 5.7 219.7 5.7 220.6 5.7 221.6 5.7 222.6 5.7 223.5 5.7 224.5 5.7 225.4 5.7 226.4 5.7 227.3 5.7 228.3 5.7 229.2 5.7 230.2 5.7 231.2 5.6 232.1 5.6 233.1 5.6 234 5.6 235 5.6 235.9 5.6 236.9 5.6 237.8 5.6 238.8 5.6 239.7 5.6 240.7 5.6 241.7 5.6 242.6 5.6 243.6 5.6 244.5 5.6 245.5 5.6 246.4 5.6 247.4 5.6 248.3 5.6 249.3 5.6 250.3 5.6 251.2 5.7 252.2 5.8 253.1 5.9 254.1 7 255 8 256 7.4 256.9 6.8 257.9 6.8 258.8 7 259.8 8.1 260.8 16.5 261.7 14.4 262.7 13 263.6 10.7 264.6 9 265.5 8.2 266.5 11.2 267.4 11.8 268.4 10.7 269.4 10.7 270.3 10.7 271.3 15.2 272.2 12.6 273.2 11.3 274.1 10.4 275.1 9.7 276 9 277 8.5 278 8.1 278.9 7.4 279.9 7 280.8 7 281.8 7 282.7 6.9 283.7 6.8 284.6 6.7 285.6 6.6 286.5 6.6 287.5 6.5 288.5 6.5 289.4 6.4 290.4 6.3 291.3 6.3 292.3 6.2 293.2 6.2 294.2 6.1 295.1 6 296.1 6 297.1 6 298 6.4 299 7 299.9 7.3 300.9 7.5 301.8 7.6 302.8 7.7 303.7 7.5 304.7 7.1 305.7 6.7 306.6 6.5 307.6 6.5 308.5 6.5 309.5 6.4 310.4 6.3 311.4 6.2 312.3 6.1 313.3 6.1 314.2 6 315.2 6 316.2 5.9 317.1 5.9 318.1 5.9 319 5.8 320 5.8 320.9 5.8 321.9 5.8 322.8 5.8 323.8 5.8 324.8 5.7 325.7 5.7 326.7 5.7 327.6 5.7 328.6 5.7 329.5 5.7 330.5 5.7 331.4 5.6 332.4 5.6 333.4 5.6 334.3 5.6 335.3 5.6 336.2 5.6 337.2 5.6 338.1 5.6 339.1 5.6 340 5.6 341 5.6 341.9 5.6 342.9 5.6 343.9 5.6 344.8 5.6 345.8 5.6 346.7 5.6 347.7 5.6 348.6 5.6 349.6 5.6 350.5 5.6 351.5 5.7 352.5 5.7 353.4 5.9 354.4 6.5 355.3 7.8 356.3 12.3 357.2 12 358.2 24.4 359.1 22 360.1 21 361.1 17.6 362 14.8 363 12.8 363.9 10.8 364.9 9.3 365.8 8.6 366.8 8.4 367.7 7.8 368.7 7.4 369.6 7.3 370.6 7.2 371.6 6.9 372.5 6.7 373.5 6.5 374.4 6.4 375.4 6.3 376.3 6.4 377.3 6.6 378.2 6.9 379.2 7.5 380.2 8.3 381.1 9.3 382.1 11.3 383 10.7 384 9.6 384.9 9 385.9 8.6 386.8 7.5 387.8 7.4 388.8 7.3 389.7 7.3 390.7 6.9 391.6 6.7 392.6 6.9 393.5 6.9 394.5 6.4 395.4 6.5 396.4 6.2 397.3 6.1 398.3 6.1 399.3 6.2 400.2 6.1 401.2 6 402.1 6 403.1 5.9 404 5.9 405 5.8 405.9 5.8 406.9 6.1 407.9 6.1 408.8 6 409.8 6 410.7 6.1 411.7 6.1 412.6 6 413.6 5.8 414.5 5.7 415.5 5.7 416.5 5.6 417.4 5.6 418.4 5.6 419.3 5.6 420.3 5.6 421.2 5.6 422.2 5.6 423.1 5.6 424.1 5.6 425 5.6 426 5.6 427 5.6 427.9 5.6 428.9 5.6 429.8 5.6 430.8 5.6 431.7 5.6 432.7 5.6 433.6 5.6 434.6 5.6 435.6 5.6 436.5 5.6 437.5 5.6 438.4 5.6 439.4 5.6 440.3 5.6 441.3 5.6 442.2 5.6 443.2 5.6 444.2 5.6 445.1 5.6 446.1 5.6 447 5.6 448 5.6 448.9 5.6 449.9 5.6 450.8 5.6 451.8 5.6 452.7 5.6 453.7 5.6 454.7 5.6 455.6 5.6 456.6 5.6 457.5 5.6 458.5 5.6 459.4 5.6 460.4 5.6 461.3 5.7 462.3 5.7 463.3 5.7 464.2 5.7 465.2 5.6 466.1 5.6 467.1 5.6 468 5.6 469 5.6 469.9 5.6 470.9 5.6 471.9 5.6 472.8 5.6 473.8 5.6 474.7 5.6 475.7 5.6 476.6 5.6 477.6 5.6 478.5 5.6 479.5 5.6 480.4 5.6 481.4 5.6 482.4 5.6 483.3 5.6 484.3 5.6 485.2 5.6 486.2 5.6 487.1 5.6 488.1 5.6 489 5.6 490 5.6" transform="matrix(1,0,0,-1,62.8,442.5)" fill="#d2dbee" fill-opacity="0.2"></polygon>
</g>
<g clip-path="url(#zr30-c3)">
<polygon points="490 0 0 0 0 5.7 1 5.7 1.9 5.7 2.9 5.7 3.8 5.7 4.8 5.7 5.7 5.7 6.7 5.7 7.6 5.7 8.6 5.7 9.6 5.7 10.5 5.7 11.5 5.7 12.4 5.7 13.4 5.7 14.3 5.7 15.3 5.7 16.2 5.7 17.2 5.7 18.1 5.7 19.1 5.7 20.1 5.7 21 5.7 22 5.6 22.9 5.6 23.9 5.6 24.8 5.6 25.8 5.6 26.7 5.7 27.7 5.7 28.7 5.7 29.6 5.7 30.6 5.7 31.5 5.7 32.5 5.7 33.4 5.7 34.4 5.7 35.3 5.7 36.3 5.7 37.3 5.7 38.2 5.7 39.2 5.7 40.1 5.7 41.1 5.7 42 5.7 43 5.7 43.9 5.7 44.9 5.7 45.8 5.7 46.8 5.6 47.8 5.6 48.7 5.6 49.7 5.6 50.6 5.6 51.6 5.6 52.5 5.6 53.5 5.6 54.4 5.6 55.4 5.6 56.4 5.6 57.3 5.6 58.3 5.6 59.2 5.6 60.2 5.6 61.1 5.6 62.1 5.6 63 5.6 64 5.6 65 5.6 65.9 5.6 66.9 5.6 67.8 5.6 68.8 5.6 69.7 5.6 70.7 5.6 71.6 5.6 72.6 5.6 73.5 5.6 74.5 5.6 75.5 5.6 76.4 5.6 77.4 5.6 78.3 5.6 79.3 5.6 80.2 5.6 81.2 5.6 82.1 5.6 83.1 5.6 84.1 5.7 85 5.8 86 5.8 86.9 5.8 87.9 5.7 88.8 5.7 89.8 5.7 90.7 5.7 91.7 5.7 92.7 5.7 93.6 5.7 94.6 5.7 95.5 5.7 96.5 5.6 97.4 5.6 98.4 5.6 99.3 5.6 100.3 5.6 101.2 5.6 102.2 5.6 103.2 5.6 104.1 5.6 105.1 5.6 106 5.6 107 5.6 107.9 5.6 108.9 5.6 109.8 5.6 110.8 5.6 111.8 5.6 112.7 5.6 113.7 5.6 114.6 5.6 115.6 5.6 116.5 5.6 117.5 5.6 118.4 5.6 119.4 5.6 120.4 5.6 121.3 5.6 122.3 5.6 123.2 5.6 124.2 5.6 125.1 5.6 126.1 5.6 127 5.6 128 5.6 128.9 5.6 129.9 5.6 130.9 5.6 131.8 5.6 132.8 5.6 133.7 5.6 134.7 5.6 135.6 5.6 136.6 5.6 137.5 5.6 138.5 5.7 139.5 5.7 140.4 5.7 141.4 5.7 142.3 5.6 143.3 5.6 144.2 5.6 145.2 5.6 146.1 5.6 147.1 5.6 148.1 5.6 149 5.6 150 5.6 150.9 5.6 151.9 5.6 152.8 5.6 153.8 5.6 154.7 5.6 155.7 5.6 156.6 5.6 157.6 5.6 158.6 5.6 159.5 5.6 160.5 5.6 161.4 5.6 162.4 5.6 163.3 5.6 164.3 5.6 165.2 5.6 166.2 5.6 167.2 5.6 168.1 5.6 169.1 5.6 170 5.6 171 5.6 171.9 5.6 172.9 5.7 173.8 5.7 174.8 5.7 175.8 5.7 176.7 5.7 177.7 5.7 178.6 5.7 179.6 5.6 180.5 5.6 181.5 5.6 182.4 5.6 183.4 5.6 184.3 5.6 185.3 5.7 186.3 5.7 187.2 5.7 188.2 5.7 189.1 5.7 190.1 5.7 191 5.7 192 5.7 192.9 5.7 193.9 5.8 194.9 5.8 195.8 5.9 196.8 5.9 197.7 6 198.7 6.1 199.6 6.2 200.6 13.1 201.5 16.5 202.5 12.1 203.5 10.8 204.4 8.7 205.4 8 206.3 7.4 207.3 6.9 208.2 6.9 209.2 6.9 210.1 6.6 211.1 6.3 212 6.4 213 6.4 214 6.5 214.9 6.5 215.9 6.2 216.8 5.8 217.8 5.7 218.7 5.7 219.7 5.7 220.6 5.7 221.6 5.7 222.6 5.7 223.5 5.7 224.5 5.7 225.4 5.7 226.4 5.7 227.3 5.7 228.3 5.7 229.2 5.7 230.2 5.7 231.2 5.6 232.1 5.6 233.1 5.6 234 5.6 235 5.6 235.9 5.6 236.9 5.6 237.8 5.6 238.8 5.6 239.7 5.6 240.7 5.6 241.7 5.6 242.6 5.6 243.6 5.6 244.5 5.6 245.5 5.6 246.4 5.6 247.4 5.6 248.3 5.6 249.3 5.6 250.3 5.6 251.2 5.7 252.2 5.8 253.1 5.9 254.1 7 255 8 256 7.4 256.9 6.8 257.9 6.8 258.8 7 259.8 8.1 260.8 16.5 261.7 14.4 262.7 13 263.6 10.7 264.6 9 265.5 8.2 266.5 11.2 267.4 11.8 268.4 10.7 269.4 10.7 270.3 10.7 271.3 15.2 272.2 12.6 273.2 11.3 274.1 10.4 275.1 9.7 276 9 277 8.5 278 8.1 278.9 7.4 279.9 7 280.8 7 281.8 7 282.7 6.9 283.7 6.8 284.6 6.7 285.6 6.6 286.5 6.6 287.5 6.5 288.5 6.5 289.4 6.4 290.4 6.3 291.3 6.3 292.3 6.2 293.2 6.2 294.2 6.1 295.1 6 296.1 6 297.1 6 298 6.4 299 7 299.9 7.3 300.9 7.5 301.8 7.6 302.8 7.7 303.7 7.5 304.7 7.1 305.7 6.7 306.6 6.5 307.6 6.5 308.5 6.5 309.5 6.4 310.4 6.3 311.4 6.2 312.3 6.1 313.3 6.1 314.2 6 315.2 6 316.2 5.9 317.1 5.9 318.1 5.9 319 5.8 320 5.8 320.9 5.8 321.9 5.8 322.8 5.8 323.8 5.8 324.8 5.7 325.7 5.7 326.7 5.7 327.6 5.7 328.6 5.7 329.5 5.7 330.5 5.7 331.4 5.6 332.4 5.6 333.4 5.6 334.3 5.6 335.3 5.6 336.2 5.6 337.2 5.6 338.1 5.6 339.1 5.6 340 5.6 341 5.6 341.9 5.6 342.9 5.6 343.9 5.6 344.8 5.6 345.8 5.6 346.7 5.6 347.7 5.6 348.6 5.6 349.6 5.6 350.5 5.6 351.5 5.7 352.5 5.7 353.4 5.9 354.4 6.5 355.3 7.8 356.3 12.3 357.2 12 358.2 24.4 359.1 22 360.1 21 361.1 17.6 362 14.8 363 12.8 363.9 10.8 364.9 9.3 365.8 8.6 366.8 8.4 367.7 7.8 368.7 7.4 369.6 7.3 370.6 7.2 371.6 6.9 372.5 6.7 373.5 6.5 374.4 6.4 375.4 6.3 376.3 6.4 377.3 6.6 378.2 6.9 379.2 7.5 380.2 8.3 381.1 9.3 382.1 11.3 383 10.7 384 9.6 384.9 9 385.9 8.6 386.8 7.5 387.8 7.4 388.8 7.3 389.7 7.3 390.7 6.9 391.6 6.7 392.6 6.9 393.5 6.9 394.5 6.4 395.4 6.5 396.4 6.2 397.3 6.1 398.3 6.1 399.3 6.2 400.2 6.1 401.2 6 402.1 6 403.1 5.9 404 5.9 405 5.8 405.9 5.8 406.9 6.1 407.9 6.1 408.8 6 409.8 6 410.7 6.1 411.7 6.1 412.6 6 413.6 5.8 414.5 5.7 415.5 5.7 416.5 5.6 417.4 5.6 418.4 5.6 419.3 5.6 420.3 5.6 421.2 5.6 422.2 5.6 423.1 5.6 424.1 5.6 425 5.6 426 5.6 427 5.6 427.9 5.6 428.9 5.6 429.8 5.6 430.8 5.6 431.7 5.6 432.7 5.6 433.6 5.6 434.6 5.6 435.6 5.6 436.5 5.6 437.5 5.6 438.4 5.6 439.4 5.6 440.3 5.6 441.3 5.6 442.2 5.6 443.2 5.6 444.2 5.6 445.1 5.6 446.1 5.6 447 5.6 448 5.6 448.9 5.6 449.9 5.6 450.8 5.6 451.8 5.6 452.7 5.6 453.7 5.6 454.7 5.6 455.6 5.6 456.6 5.6 457.5 5.6 458.5 5.6 459.4 5.6 460.4 5.6 461.3 5.7 462.3 5.7 463.3 5.7 464.2 5.7 465.2 5.6 466.1 5.6 467.1 5.6 468 5.6 469 5.6 469.9 5.6 470.9 5.6 471.9 5.6 472.8 5.6 473.8 5.6 474.7 5.6 475.7 5.6 476.6 5.6 477.6 5.6 478.5 5.6 479.5 5.6 480.4 5.6 481.4 5.6 482.4 5.6 483.3 5.6 484.3 5.6 485.2 5.6 486.2 5.6 487.1 5.6 488.1 5.6 489 5.6 490 5.6" transform="matrix(1,0,0,-1,62.8,442.5)" fill="#8fb0f7" fill-opacity="0.2"></polygon>
</g>
<g clip-path="url(#zr30-c4)">
<polygon points="490 0 0 0 0 5.7 1 5.7 1.9 5.7 2.9 5.7 3.8 5.7 4.8 5.7 5.7 5.7 6.7 5.7 7.6 5.7 8.6 5.7 9.6 5.7 10.5 5.7 11.5 5.7 12.4 5.7 13.4 5.7 14.3 5.7 15.3 5.7 16.2 5.7 17.2 5.7 18.1 5.7 19.1 5.7 20.1 5.7 21 5.7 22 5.6 22.9 5.6 23.9 5.6 24.8 5.6 25.8 5.6 26.7 5.7 27.7 5.7 28.7 5.7 29.6 5.7 30.6 5.7 31.5 5.7 32.5 5.7 33.4 5.7 34.4 5.7 35.3 5.7 36.3 5.7 37.3 5.7 38.2 5.7 39.2 5.7 40.1 5.7 41.1 5.7 42 5.7 43 5.7 43.9 5.7 44.9 5.7 45.8 5.7 46.8 5.6 47.8 5.6 48.7 5.6 49.7 5.6 50.6 5.6 51.6 5.6 52.5 5.6 53.5 5.6 54.4 5.6 55.4 5.6 56.4 5.6 57.3 5.6 58.3 5.6 59.2 5.6 60.2 5.6 61.1 5.6 62.1 5.6 63 5.6 64 5.6 65 5.6 65.9 5.6 66.9 5.6 67.8 5.6 68.8 5.6 69.7 5.6 70.7 5.6 71.6 5.6 72.6 5.6 73.5 5.6 74.5 5.6 75.5 5.6 76.4 5.6 77.4 5.6 78.3 5.6 79.3 5.6 80.2 5.6 81.2 5.6 82.1 5.6 83.1 5.6 84.1 5.7 85 5.8 86 5.8 86.9 5.8 87.9 5.7 88.8 5.7 89.8 5.7 90.7 5.7 91.7 5.7 92.7 5.7 93.6 5.7 94.6 5.7 95.5 5.7 96.5 5.6 97.4 5.6 98.4 5.6 99.3 5.6 100.3 5.6 101.2 5.6 102.2 5.6 103.2 5.6 104.1 5.6 105.1 5.6 106 5.6 107 5.6 107.9 5.6 108.9 5.6 109.8 5.6 110.8 5.6 111.8 5.6 112.7 5.6 113.7 5.6 114.6 5.6 115.6 5.6 116.5 5.6 117.5 5.6 118.4 5.6 119.4 5.6 120.4 5.6 121.3 5.6 122.3 5.6 123.2 5.6 124.2 5.6 125.1 5.6 126.1 5.6 127 5.6 128 5.6 128.9 5.6 129.9 5.6 130.9 5.6 131.8 5.6 132.8 5.6 133.7 5.6 134.7 5.6 135.6 5.6 136.6 5.6 137.5 5.6 138.5 5.7 139.5 5.7 140.4 5.7 141.4 5.7 142.3 5.6 143.3 5.6 144.2 5.6 145.2 5.6 146.1 5.6 147.1 5.6 148.1 5.6 149 5.6 150 5.6 150.9 5.6 151.9 5.6 152.8 5.6 153.8 5.6 154.7 5.6 155.7 5.6 156.6 5.6 157.6 5.6 158.6 5.6 159.5 5.6 160.5 5.6 161.4 5.6 162.4 5.6 163.3 5.6 164.3 5.6 165.2 5.6 166.2 5.6 167.2 5.6 168.1 5.6 169.1 5.6 170 5.6 171 5.6 171.9 5.6 172.9 5.7 173.8 5.7 174.8 5.7 175.8 5.7 176.7 5.7 177.7 5.7 178.6 5.7 179.6 5.6 180.5 5.6 181.5 5.6 182.4 5.6 183.4 5.6 184.3 5.6 185.3 5.7 186.3 5.7 187.2 5.7 188.2 5.7 189.1 5.7 190.1 5.7 191 5.7 192 5.7 192.9 5.7 193.9 5.8 194.9 5.8 195.8 5.9 196.8 5.9 197.7 6 198.7 6.1 199.6 6.2 200.6 13.1 201.5 16.5 202.5 12.1 203.5 10.8 204.4 8.7 205.4 8 206.3 7.4 207.3 6.9 208.2 6.9 209.2 6.9 210.1 6.6 211.1 6.3 212 6.4 213 6.4 214 6.5 214.9 6.5 215.9 6.2 216.8 5.8 217.8 5.7 218.7 5.7 219.7 5.7 220.6 5.7 221.6 5.7 222.6 5.7 223.5 5.7 224.5 5.7 225.4 5.7 226.4 5.7 227.3 5.7 228.3 5.7 229.2 5.7 230.2 5.7 231.2 5.6 232.1 5.6 233.1 5.6 234 5.6 235 5.6 235.9 5.6 236.9 5.6 237.8 5.6 238.8 5.6 239.7 5.6 240.7 5.6 241.7 5.6 242.6 5.6 243.6 5.6 244.5 5.6 245.5 5.6 246.4 5.6 247.4 5.6 248.3 5.6 249.3 5.6 250.3 5.6 251.2 5.7 252.2 5.8 253.1 5.9 254.1 7 255 8 256 7.4 256.9 6.8 257.9 6.8 258.8 7 259.8 8.1 260.8 16.5 261.7 14.4 262.7 13 263.6 10.7 264.6 9 265.5 8.2 266.5 11.2 267.4 11.8 268.4 10.7 269.4 10.7 270.3 10.7 271.3 15.2 272.2 12.6 273.2 11.3 274.1 10.4 275.1 9.7 276 9 277 8.5 278 8.1 278.9 7.4 279.9 7 280.8 7 281.8 7 282.7 6.9 283.7 6.8 284.6 6.7 285.6 6.6 286.5 6.6 287.5 6.5 288.5 6.5 289.4 6.4 290.4 6.3 291.3 6.3 292.3 6.2 293.2 6.2 294.2 6.1 295.1 6 296.1 6 297.1 6 298 6.4 299 7 299.9 7.3 300.9 7.5 301.8 7.6 302.8 7.7 303.7 7.5 304.7 7.1 305.7 6.7 306.6 6.5 307.6 6.5 308.5 6.5 309.5 6.4 310.4 6.3 311.4 6.2 312.3 6.1 313.3 6.1 314.2 6 315.2 6 316.2 5.9 317.1 5.9 318.1 5.9 319 5.8 320 5.8 320.9 5.8 321.9 5.8 322.8 5.8 323.8 5.8 324.8 5.7 325.7 5.7 326.7 5.7 327.6 5.7 328.6 5.7 329.5 5.7 330.5 5.7 331.4 5.6 332.4 5.6 333.4 5.6 334.3 5.6 335.3 5.6 336.2 5.6 337.2 5.6 338.1 5.6 339.1 5.6 340 5.6 341 5.6 341.9 5.6 342.9 5.6 343.9 5.6 344.8 5.6 345.8 5.6 346.7 5.6 347.7 5.6 348.6 5.6 349.6 5.6 350.5 5.6 351.5 5.7 352.5 5.7 353.4 5.9 354.4 6.5 355.3 7.8 356.3 12.3 357.2 12 358.2 24.4 359.1 22 360.1 21 361.1 17.6 362 14.8 363 12.8 363.9 10.8 364.9 9.3 365.8 8.6 366.8 8.4 367.7 7.8 368.7 7.4 369.6 7.3 370.6 7.2 371.6 6.9 372.5 6.7 373.5 6.5 374.4 6.4 375.4 6.3 376.3 6.4 377.3 6.6 378.2 6.9 379.2 7.5 380.2 8.3 381.1 9.3 382.1 11.3 383 10.7 384 9.6 384.9 9 385.9 8.6 386.8 7.5 387.8 7.4 388.8 7.3 389.7 7.3 390.7 6.9 391.6 6.7 392.6 6.9 393.5 6.9 394.5 6.4 395.4 6.5 396.4 6.2 397.3 6.1 398.3 6.1 399.3 6.2 400.2 6.1 401.2 6 402.1 6 403.1 5.9 404 5.9 405 5.8 405.9 5.8 406.9 6.1 407.9 6.1 408.8 6 409.8 6 410.7 6.1 411.7 6.1 412.6 6 413.6 5.8 414.5 5.7 415.5 5.7 416.5 5.6 417.4 5.6 418.4 5.6 419.3 5.6 420.3 5.6 421.2 5.6 422.2 5.6 423.1 5.6 424.1 5.6 425 5.6 426 5.6 427 5.6 427.9 5.6 428.9 5.6 429.8 5.6 430.8 5.6 431.7 5.6 432.7 5.6 433.6 5.6 434.6 5.6 435.6 5.6 436.5 5.6 437.5 5.6 438.4 5.6 439.4 5.6 440.3 5.6 441.3 5.6 442.2 5.6 443.2 5.6 444.2 5.6 445.1 5.6 446.1 5.6 447 5.6 448 5.6 448.9 5.6 449.9 5.6 450.8 5.6 451.8 5.6 452.7 5.6 453.7 5.6 454.7 5.6 455.6 5.6 456.6 5.6 457.5 5.6 458.5 5.6 459.4 5.6 460.4 5.6 461.3 5.7 462.3 5.7 463.3 5.7 464.2 5.7 465.2 5.6 466.1 5.6 467.1 5.6 468 5.6 469 5.6 469.9 5.6 470.9 5.6 471.9 5.6 472.8 5.6 473.8 5.6 474.7 5.6 475.7 5.6 476.6 5.6 477.6 5.6 478.5 5.6 479.5 5.6 480.4 5.6 481.4 5.6 482.4 5.6 483.3 5.6 484.3 5.6 485.2 5.6 486.2 5.6 487.1 5.6 488.1 5.6 489 5.6 490 5.6" transform="matrix(1,0,0,-1,62.8,442.5)" fill="#d2dbee" fill-opacity="0.2"></polygon>
</g>
<g clip-path="url(#zr30-c2)">
<polyline points="0 5.7 1 5.7 1.9 5.7 2.9 5.7 3.8 5.7 4.8 5.7 5.7 5.7 6.7 5.7 7.6 5.7 8.6 5.7 9.6 5.7 10.5 5.7 11.5 5.7 12.4 5.7 13.4 5.7 14.3 5.7 15.3 5.7 16.2 5.7 17.2 5.7 18.1 5.7 19.1 5.7 20.1 5.7 21 5.7 22 5.6 22.9 5.6 23.9 5.6 24.8 5.6 25.8 5.6 26.7 5.7 27.7 5.7 28.7 5.7 29.6 5.7 30.6 5.7 31.5 5.7 32.5 5.7 33.4 5.7 34.4 5.7 35.3 5.7 36.3 5.7 37.3 5.7 38.2 5.7 39.2 5.7 40.1 5.7 41.1 5.7 42 5.7 43 5.7 43.9 5.7 44.9 5.7 45.8 5.7 46.8 5.6 47.8 5.6 48.7 5.6 49.7 5.6 50.6 5.6 51.6 5.6 52.5 5.6 53.5 5.6 54.4 5.6 55.4 5.6 56.4 5.6 57.3 5.6 58.3 5.6 59.2 5.6 60.2 5.6 61.1 5.6 62.1 5.6 63 5.6 64 5.6 65 5.6 65.9 5.6 66.9 5.6 67.8 5.6 68.8 5.6 69.7 5.6 70.7 5.6 71.6 5.6 72.6 5.6 73.5 5.6 74.5 5.6 75.5 5.6 76.4 5.6 77.4 5.6 78.3 5.6 79.3 5.6 80.2 5.6 81.2 5.6 82.1 5.6 83.1 5.6 84.1 5.7 85 5.8 86 5.8 86.9 5.8 87.9 5.7 88.8 5.7 89.8 5.7 90.7 5.7 91.7 5.7 92.7 5.7 93.6 5.7 94.6 5.7 95.5 5.7 96.5 5.6 97.4 5.6 98.4 5.6 99.3 5.6 100.3 5.6 101.2 5.6 102.2 5.6 103.2 5.6 104.1 5.6 105.1 5.6 106 5.6 107 5.6 107.9 5.6 108.9 5.6 109.8 5.6 110.8 5.6 111.8 5.6 112.7 5.6 113.7 5.6 114.6 5.6 115.6 5.6 116.5 5.6 117.5 5.6 118.4 5.6 119.4 5.6 120.4 5.6 121.3 5.6 122.3 5.6 123.2 5.6 124.2 5.6 125.1 5.6 126.1 5.6 127 5.6 128 5.6 128.9 5.6 129.9 5.6 130.9 5.6 131.8 5.6 132.8 5.6 133.7 5.6 134.7 5.6 135.6 5.6 136.6 5.6 137.5 5.6 138.5 5.7 139.5 5.7 140.4 5.7 141.4 5.7 142.3 5.6 143.3 5.6 144.2 5.6 145.2 5.6 146.1 5.6 147.1 5.6 148.1 5.6 149 5.6 150 5.6 150.9 5.6 151.9 5.6 152.8 5.6 153.8 5.6 154.7 5.6 155.7 5.6 156.6 5.6 157.6 5.6 158.6 5.6 159.5 5.6 160.5 5.6 161.4 5.6 162.4 5.6 163.3 5.6 164.3 5.6 165.2 5.6 166.2 5.6 167.2 5.6 168.1 5.6 169.1 5.6 170 5.6 171 5.6 171.9 5.6 172.9 5.7 173.8 5.7 174.8 5.7 175.8 5.7 176.7 5.7 177.7 5.7 178.6 5.7 179.6 5.6 180.5 5.6 181.5 5.6 182.4 5.6 183.4 5.6 184.3 5.6 185.3 5.7 186.3 5.7 187.2 5.7 188.2 5.7 189.1 5.7 190.1 5.7 191 5.7 192 5.7 192.9 5.7 193.9 5.8 194.9 5.8 195.8 5.9 196.8 5.9 197.7 6 198.7 6.1 199.6 6.2 200.6 13.1 201.5 16.5 202.5 12.1 203.5 10.8 204.4 8.7 205.4 8 206.3 7.4 207.3 6.9 208.2 6.9 209.2 6.9 210.1 6.6 211.1 6.3 212 6.4 213 6.4 214 6.5 214.9 6.5 215.9 6.2 216.8 5.8 217.8 5.7 218.7 5.7 219.7 5.7 220.6 5.7 221.6 5.7 222.6 5.7 223.5 5.7 224.5 5.7 225.4 5.7 226.4 5.7 227.3 5.7 228.3 5.7 229.2 5.7 230.2 5.7 231.2 5.6 232.1 5.6 233.1 5.6 234 5.6 235 5.6 235.9 5.6 236.9 5.6 237.8 5.6 238.8 5.6 239.7 5.6 240.7 5.6 241.7 5.6 242.6 5.6 243.6 5.6 244.5 5.6 245.5 5.6 246.4 5.6 247.4 5.6 248.3 5.6 249.3 5.6 250.3 5.6 251.2 5.7 252.2 5.8 253.1 5.9 254.1 7 255 8 256 7.4 256.9 6.8 257.9 6.8 258.8 7 259.8 8.1 260.8 16.5 261.7 14.4 262.7 13 263.6 10.7 264.6 9 265.5 8.2 266.5 11.2 267.4 11.8 268.4 10.7 269.4 10.7 270.3 10.7 271.3 15.2 272.2 12.6 273.2 11.3 274.1 10.4 275.1 9.7 276 9 277 8.5 278 8.1 278.9 7.4 279.9 7 280.8 7 281.8 7 282.7 6.9 283.7 6.8 284.6 6.7 285.6 6.6 286.5 6.6 287.5 6.5 288.5 6.5 289.4 6.4 290.4 6.3 291.3 6.3 292.3 6.2 293.2 6.2 294.2 6.1 295.1 6 296.1 6 297.1 6 298 6.4 299 7 299.9 7.3 300.9 7.5 301.8 7.6 302.8 7.7 303.7 7.5 304.7 7.1 305.7 6.7 306.6 6.5 307.6 6.5 308.5 6.5 309.5 6.4 310.4 6.3 311.4 6.2 312.3 6.1 313.3 6.1 314.2 6 315.2 6 316.2 5.9 317.1 5.9 318.1 5.9 319 5.8 320 5.8 320.9 5.8 321.9 5.8 322.8 5.8 323.8 5.8 324.8 5.7 325.7 5.7 326.7 5.7 327.6 5.7 328.6 5.7 329.5 5.7 330.5 5.7 331.4 5.6 332.4 5.6 333.4 5.6 334.3 5.6 335.3 5.6 336.2 5.6 337.2 5.6 338.1 5.6 339.1 5.6 340 5.6 341 5.6 341.9 5.6 342.9 5.6 343.9 5.6 344.8 5.6 345.8 5.6 346.7 5.6 347.7 5.6 348.6 5.6 349.6 5.6 350.5 5.6 351.5 5.7 352.5 5.7 353.4 5.9 354.4 6.5 355.3 7.8 356.3 12.3 357.2 12 358.2 24.4 359.1 22 360.1 21 361.1 17.6 362 14.8 363 12.8 363.9 10.8 364.9 9.3 365.8 8.6 366.8 8.4 367.7 7.8 368.7 7.4 369.6 7.3 370.6 7.2 371.6 6.9 372.5 6.7 373.5 6.5 374.4 6.4 375.4 6.3 376.3 6.4 377.3 6.6 378.2 6.9 379.2 7.5 380.2 8.3 381.1 9.3 382.1 11.3 383 10.7 384 9.6 384.9 9 385.9 8.6 386.8 7.5 387.8 7.4 388.8 7.3 389.7 7.3 390.7 6.9 391.6 6.7 392.6 6.9 393.5 6.9 394.5 6.4 395.4 6.5 396.4 6.2 397.3 6.1 398.3 6.1 399.3 6.2 400.2 6.1 401.2 6 402.1 6 403.1 5.9 404 5.9 405 5.8 405.9 5.8 406.9 6.1 407.9 6.1 408.8 6 409.8 6 410.7 6.1 411.7 6.1 412.6 6 413.6 5.8 414.5 5.7 415.5 5.7 416.5 5.6 417.4 5.6 418.4 5.6 419.3 5.6 420.3 5.6 421.2 5.6 422.2 5.6 423.1 5.6 424.1 5.6 425 5.6 426 5.6 427 5.6 427.9 5.6 428.9 5.6 429.8 5.6 430.8 5.6 431.7 5.6 432.7 5.6 433.6 5.6 434.6 5.6 435.6 5.6 436.5 5.6 437.5 5.6 438.4 5.6 439.4 5.6 440.3 5.6 441.3 5.6 442.2 5.6 443.2 5.6 444.2 5.6 445.1 5.6 446.1 5.6 447 5.6 448 5.6 448.9 5.6 449.9 5.6 450.8 5.6 451.8 5.6 452.7 5.6 453.7 5.6 454.7 5.6 455.6 5.6 456.6 5.6 457.5 5.6 458.5 5.6 459.4 5.6 460.4 5.6 461.3 5.7 462.3 5.7 463.3 5.7 464.2 5.7 465.2 5.6 466.1 5.6 467.1 5.6 468 5.6 469 5.6 469.9 5.6 470.9 5.6 471.9 5.6 472.8 5.6 473.8 5.6 474.7 5.6 475.7 5.6 476.6 5.6 477.6 5.6 478.5 5.6 479.5 5.6 480.4 5.6 481.4 5.6 482.4 5.6 483.3 5.6 484.3 5.6 485.2 5.6 486.2 5.6 487.1 5.6 488.1 5.6 489 5.6 490 5.6" transform="matrix(1,0,0,-1,62.8,442.5)" fill="none" stroke="#d2dbee" stroke-width="0.5"></polyline>
</g>
<g clip-path="url(#zr30-c3)">
<polyline points="0 5.7 1 5.7 1.9 5.7 2.9 5.7 3.8 5.7 4.8 5.7 5.7 5.7 6.7 5.7 7.6 5.7 8.6 5.7 9.6 5.7 10.5 5.7 11.5 5.7 12.4 5.7 13.4 5.7 14.3 5.7 15.3 5.7 16.2 5.7 17.2 5.7 18.1 5.7 19.1 5.7 20.1 5.7 21 5.7 22 5.6 22.9 5.6 23.9 5.6 24.8 5.6 25.8 5.6 26.7 5.7 27.7 5.7 28.7 5.7 29.6 5.7 30.6 5.7 31.5 5.7 32.5 5.7 33.4 5.7 34.4 5.7 35.3 5.7 36.3 5.7 37.3 5.7 38.2 5.7 39.2 5.7 40.1 5.7 41.1 5.7 42 5.7 43 5.7 43.9 5.7 44.9 5.7 45.8 5.7 46.8 5.6 47.8 5.6 48.7 5.6 49.7 5.6 50.6 5.6 51.6 5.6 52.5 5.6 53.5 5.6 54.4 5.6 55.4 5.6 56.4 5.6 57.3 5.6 58.3 5.6 59.2 5.6 60.2 5.6 61.1 5.6 62.1 5.6 63 5.6 64 5.6 65 5.6 65.9 5.6 66.9 5.6 67.8 5.6 68.8 5.6 69.7 5.6 70.7 5.6 71.6 5.6 72.6 5.6 73.5 5.6 74.5 5.6 75.5 5.6 76.4 5.6 77.4 5.6 78.3 5.6 79.3 5.6 80.2 5.6 81.2 5.6 82.1 5.6 83.1 5.6 84.1 5.7 85 5.8 86 5.8 86.9 5.8 87.9 5.7 88.8 5.7 89.8 5.7 90.7 5.7 91.7 5.7 92.7 5.7 93.6 5.7 94.6 5.7 95.5 5.7 96.5 5.6 97.4 5.6 98.4 5.6 99.3 5.6 100.3 5.6 101.2 5.6 102.2 5.6 103.2 5.6 104.1 5.6 105.1 5.6 106 5.6 107 5.6 107.9 5.6 108.9 5.6 109.8 5.6 110.8 5.6 111.8 5.6 112.7 5.6 113.7 5.6 114.6 5.6 115.6 5.6 116.5 5.6 117.5 5.6 118.4 5.6 119.4 5.6 120.4 5.6 121.3 5.6 122.3 5.6 123.2 5.6 124.2 5.6 125.1 5.6 126.1 5.6 127 5.6 128 5.6 128.9 5.6 129.9 5.6 130.9 5.6 131.8 5.6 132.8 5.6 133.7 5.6 134.7 5.6 135.6 5.6 136.6 5.6 137.5 5.6 138.5 5.7 139.5 5.7 140.4 5.7 141.4 5.7 142.3 5.6 143.3 5.6 144.2 5.6 145.2 5.6 146.1 5.6 147.1 5.6 148.1 5.6 149 5.6 150 5.6 150.9 5.6 151.9 5.6 152.8 5.6 153.8 5.6 154.7 5.6 155.7 5.6 156.6 5.6 157.6 5.6 158.6 5.6 159.5 5.6 160.5 5.6 161.4 5.6 162.4 5.6 163.3 5.6 164.3 5.6 165.2 5.6 166.2 5.6 167.2 5.6 168.1 5.6 169.1 5.6 170 5.6 171 5.6 171.9 5.6 172.9 5.7 173.8 5.7 174.8 5.7 175.8 5.7 176.7 5.7 177.7 5.7 178.6 5.7 179.6 5.6 180.5 5.6 181.5 5.6 182.4 5.6 183.4 5.6 184.3 5.6 185.3 5.7 186.3 5.7 187.2 5.7 188.2 5.7 189.1 5.7 190.1 5.7 191 5.7 192 5.7 192.9 5.7 193.9 5.8 194.9 5.8 195.8 5.9 196.8 5.9 197.7 6 198.7 6.1 199.6 6.2 200.6 13.1 201.5 16.5 202.5 12.1 203.5 10.8 204.4 8.7 205.4 8 206.3 7.4 207.3 6.9 208.2 6.9 209.2 6.9 210.1 6.6 211.1 6.3 212 6.4 213 6.4 214 6.5 214.9 6.5 215.9 6.2 216.8 5.8 217.8 5.7 218.7 5.7 219.7 5.7 220.6 5.7 221.6 5.7 222.6 5.7 223.5 5.7 224.5 5.7 225.4 5.7 226.4 5.7 227.3 5.7 228.3 5.7 229.2 5.7 230.2 5.7 231.2 5.6 232.1 5.6 233.1 5.6 234 5.6 235 5.6 235.9 5.6 236.9 5.6 237.8 5.6 238.8 5.6 239.7 5.6 240.7 5.6 241.7 5.6 242.6 5.6 243.6 5.6 244.5 5.6 245.5 5.6 246.4 5.6 247.4 5.6 248.3 5.6 249.3 5.6 250.3 5.6 251.2 5.7 252.2 5.8 253.1 5.9 254.1 7 255 8 256 7.4 256.9 6.8 257.9 6.8 258.8 7 259.8 8.1 260.8 16.5 261.7 14.4 262.7 13 263.6 10.7 264.6 9 265.5 8.2 266.5 11.2 267.4 11.8 268.4 10.7 269.4 10.7 270.3 10.7 271.3 15.2 272.2 12.6 273.2 11.3 274.1 10.4 275.1 9.7 276 9 277 8.5 278 8.1 278.9 7.4 279.9 7 280.8 7 281.8 7 282.7 6.9 283.7 6.8 284.6 6.7 285.6 6.6 286.5 6.6 287.5 6.5 288.5 6.5 289.4 6.4 290.4 6.3 291.3 6.3 292.3 6.2 293.2 6.2 294.2 6.1 295.1 6 296.1 6 297.1 6 298 6.4 299 7 299.9 7.3 300.9 7.5 301.8 7.6 302.8 7.7 303.7 7.5 304.7 7.1 305.7 6.7 306.6 6.5 307.6 6.5 308.5 6.5 309.5 6.4 310.4 6.3 311.4 6.2 312.3 6.1 313.3 6.1 314.2 6 315.2 6 316.2 5.9 317.1 5.9 318.1 5.9 319 5.8 320 5.8 320.9 5.8 321.9 5.8 322.8 5.8 323.8 5.8 324.8 5.7 325.7 5.7 326.7 5.7 327.6 5.7 328.6 5.7 329.5 5.7 330.5 5.7 331.4 5.6 332.4 5.6 333.4 5.6 334.3 5.6 335.3 5.6 336.2 5.6 337.2 5.6 338.1 5.6 339.1 5.6 340 5.6 341 5.6 341.9 5.6 342.9 5.6 343.9 5.6 344.8 5.6 345.8 5.6 346.7 5.6 347.7 5.6 348.6 5.6 349.6 5.6 350.5 5.6 351.5 5.7 352.5 5.7 353.4 5.9 354.4 6.5 355.3 7.8 356.3 12.3 357.2 12 358.2 24.4 359.1 22 360.1 21 361.1 17.6 362 14.8 363 12.8 363.9 10.8 364.9 9.3 365.8 8.6 366.8 8.4 367.7 7.8 368.7 7.4 369.6 7.3 370.6 7.2 371.6 6.9 372.5 6.7 373.5 6.5 374.4 6.4 375.4 6.3 376.3 6.4 377.3 6.6 378.2 6.9 379.2 7.5 380.2 8.3 381.1 9.3 382.1 11.3 383 10.7 384 9.6 384.9 9 385.9 8.6 386.8 7.5 387.8 7.4 388.8 7.3 389.7 7.3 390.7 6.9 391.6 6.7 392.6 6.9 393.5 6.9 394.5 6.4 395.4 6.5 396.4 6.2 397.3 6.1 398.3 6.1 399.3 6.2 400.2 6.1 401.2 6 402.1 6 403.1 5.9 404 5.9 405 5.8 405.9 5.8 406.9 6.1 407.9 6.1 408.8 6 409.8 6 410.7 6.1 411.7 6.1 412.6 6 413.6 5.8 414.5 5.7 415.5 5.7 416.5 5.6 417.4 5.6 418.4 5.6 419.3 5.6 420.3 5.6 421.2 5.6 422.2 5.6 423.1 5.6 424.1 5.6 425 5.6 426 5.6 427 5.6 427.9 5.6 428.9 5.6 429.8 5.6 430.8 5.6 431.7 5.6 432.7 5.6 433.6 5.6 434.6 5.6 435.6 5.6 436.5 5.6 437.5 5.6 438.4 5.6 439.4 5.6 440.3 5.6 441.3 5.6 442.2 5.6 443.2 5.6 444.2 5.6 445.1 5.6 446.1 5.6 447 5.6 448 5.6 448.9 5.6 449.9 5.6 450.8 5.6 451.8 5.6 452.7 5.6 453.7 5.6 454.7 5.6 455.6 5.6 456.6 5.6 457.5 5.6 458.5 5.6 459.4 5.6 460.4 5.6 461.3 5.7 462.3 5.7 463.3 5.7 464.2 5.7 465.2 5.6 466.1 5.6 467.1 5.6 468 5.6 469 5.6 469.9 5.6 470.9 5.6 471.9 5.6 472.8 5.6 473.8 5.6 474.7 5.6 475.7 5.6 476.6 5.6 477.6 5.6 478.5 5.6 479.5 5.6 480.4 5.6 481.4 5.6 482.4 5.6 483.3 5.6 484.3 5.6 485.2 5.6 486.2 5.6 487.1 5.6 488.1 5.6 489 5.6 490 5.6" transform="matrix(1,0,0,-1,62.8,442.5)" fill="none" stroke="#8fb0f7" stroke-width="0.5"></polyline>
</g>
<g clip-path="url(#zr30-c4)">
<polyline points="0 5.7 1 5.7 1.9 5.7 2.9 5.7 3.8 5.7 4.8 5.7 5.7 5.7 6.7 5.7 7.6 5.7 8.6 5.7 9.6 5.7 10.5 5.7 11.5 5.7 12.4 5.7 13.4 5.7 14.3 5.7 15.3 5.7 16.2 5.7 17.2 5.7 18.1 5.7 19.1 5.7 20.1 5.7 21 5.7 22 5.6 22.9 5.6 23.9 5.6 24.8 5.6 25.8 5.6 26.7 5.7 27.7 5.7 28.7 5.7 29.6 5.7 30.6 5.7 31.5 5.7 32.5 5.7 33.4 5.7 34.4 5.7 35.3 5.7 36.3 5.7 37.3 5.7 38.2 5.7 39.2 5.7 40.1 5.7 41.1 5.7 42 5.7 43 5.7 43.9 5.7 44.9 5.7 45.8 5.7 46.8 5.6 47.8 5.6 48.7 5.6 49.7 5.6 50.6 5.6 51.6 5.6 52.5 5.6 53.5 5.6 54.4 5.6 55.4 5.6 56.4 5.6 57.3 5.6 58.3 5.6 59.2 5.6 60.2 5.6 61.1 5.6 62.1 5.6 63 5.6 64 5.6 65 5.6 65.9 5.6 66.9 5.6 67.8 5.6 68.8 5.6 69.7 5.6 70.7 5.6 71.6 5.6 72.6 5.6 73.5 5.6 74.5 5.6 75.5 5.6 76.4 5.6 77.4 5.6 78.3 5.6 79.3 5.6 80.2 5.6 81.2 5.6 82.1 5.6 83.1 5.6 84.1 5.7 85 5.8 86 5.8 86.9 5.8 87.9 5.7 88.8 5.7 89.8 5.7 90.7 5.7 91.7 5.7 92.7 5.7 93.6 5.7 94.6 5.7 95.5 5.7 96.5 5.6 97.4 5.6 98.4 5.6 99.3 5.6 100.3 5.6 101.2 5.6 102.2 5.6 103.2 5.6 104.1 5.6 105.1 5.6 106 5.6 107 5.6 107.9 5.6 108.9 5.6 109.8 5.6 110.8 5.6 111.8 5.6 112.7 5.6 113.7 5.6 114.6 5.6 115.6 5.6 116.5 5.6 117.5 5.6 118.4 5.6 119.4 5.6 120.4 5.6 121.3 5.6 122.3 5.6 123.2 5.6 124.2 5.6 125.1 5.6 126.1 5.6 127 5.6 128 5.6 128.9 5.6 129.9 5.6 130.9 5.6 131.8 5.6 132.8 5.6 133.7 5.6 134.7 5.6 135.6 5.6 136.6 5.6 137.5 5.6 138.5 5.7 139.5 5.7 140.4 5.7 141.4 5.7 142.3 5.6 143.3 5.6 144.2 5.6 145.2 5.6 146.1 5.6 147.1 5.6 148.1 5.6 149 5.6 150 5.6 150.9 5.6 151.9 5.6 152.8 5.6 153.8 5.6 154.7 5.6 155.7 5.6 156.6 5.6 157.6 5.6 158.6 5.6 159.5 5.6 160.5 5.6 161.4 5.6 162.4 5.6 163.3 5.6 164.3 5.6 165.2 5.6 166.2 5.6 167.2 5.6 168.1 5.6 169.1 5.6 170 5.6 171 5.6 171.9 5.6 172.9 5.7 173.8 5.7 174.8 5.7 175.8 5.7 176.7 5.7 177.7 5.7 178.6 5.7 179.6 5.6 180.5 5.6 181.5 5.6 182.4 5.6 183.4 5.6 184.3 5.6 185.3 5.7 186.3 5.7 187.2 5.7 188.2 5.7 189.1 5.7 190.1 5.7 191 5.7 192 5.7 192.9 5.7 193.9 5.8 194.9 5.8 195.8 5.9 196.8 5.9 197.7 6 198.7 6.1 199.6 6.2 200.6 13.1 201.5 16.5 202.5 12.1 203.5 10.8 204.4 8.7 205.4 8 206.3 7.4 207.3 6.9 208.2 6.9 209.2 6.9 210.1 6.6 211.1 6.3 212 6.4 213 6.4 214 6.5 214.9 6.5 215.9 6.2 216.8 5.8 217.8 5.7 218.7 5.7 219.7 5.7 220.6 5.7 221.6 5.7 222.6 5.7 223.5 5.7 224.5 5.7 225.4 5.7 226.4 5.7 227.3 5.7 228.3 5.7 229.2 5.7 230.2 5.7 231.2 5.6 232.1 5.6 233.1 5.6 234 5.6 235 5.6 235.9 5.6 236.9 5.6 237.8 5.6 238.8 5.6 239.7 5.6 240.7 5.6 241.7 5.6 242.6 5.6 243.6 5.6 244.5 5.6 245.5 5.6 246.4 5.6 247.4 5.6 248.3 5.6 249.3 5.6 250.3 5.6 251.2 5.7 252.2 5.8 253.1 5.9 254.1 7 255 8 256 7.4 256.9 6.8 257.9 6.8 258.8 7 259.8 8.1 260.8 16.5 261.7 14.4 262.7 13 263.6 10.7 264.6 9 265.5 8.2 266.5 11.2 267.4 11.8 268.4 10.7 269.4 10.7 270.3 10.7 271.3 15.2 272.2 12.6 273.2 11.3 274.1 10.4 275.1 9.7 276 9 277 8.5 278 8.1 278.9 7.4 279.9 7 280.8 7 281.8 7 282.7 6.9 283.7 6.8 284.6 6.7 285.6 6.6 286.5 6.6 287.5 6.5 288.5 6.5 289.4 6.4 290.4 6.3 291.3 6.3 292.3 6.2 293.2 6.2 294.2 6.1 295.1 6 296.1 6 297.1 6 298 6.4 299 7 299.9 7.3 300.9 7.5 301.8 7.6 302.8 7.7 303.7 7.5 304.7 7.1 305.7 6.7 306.6 6.5 307.6 6.5 308.5 6.5 309.5 6.4 310.4 6.3 311.4 6.2 312.3 6.1 313.3 6.1 314.2 6 315.2 6 316.2 5.9 317.1 5.9 318.1 5.9 319 5.8 320 5.8 320.9 5.8 321.9 5.8 322.8 5.8 323.8 5.8 324.8 5.7 325.7 5.7 326.7 5.7 327.6 5.7 328.6 5.7 329.5 5.7 330.5 5.7 331.4 5.6 332.4 5.6 333.4 5.6 334.3 5.6 335.3 5.6 336.2 5.6 337.2 5.6 338.1 5.6 339.1 5.6 340 5.6 341 5.6 341.9 5.6 342.9 5.6 343.9 5.6 344.8 5.6 345.8 5.6 346.7 5.6 347.7 5.6 348.6 5.6 349.6 5.6 350.5 5.6 351.5 5.7 352.5 5.7 353.4 5.9 354.4 6.5 355.3 7.8 356.3 12.3 357.2 12 358.2 24.4 359.1 22 360.1 21 361.1 17.6 362 14.8 363 12.8 363.9 10.8 364.9 9.3 365.8 8.6 366.8 8.4 367.7 7.8 368.7 7.4 369.6 7.3 370.6 7.2 371.6 6.9 372.5 6.7 373.5 6.5 374.4 6.4 375.4 6.3 376.3 6.4 377.3 6.6 378.2 6.9 379.2 7.5 380.2 8.3 381.1 9.3 382.1 11.3 383 10.7 384 9.6 384.9 9 385.9 8.6 386.8 7.5 387.8 7.4 388.8 7.3 389.7 7.3 390.7 6.9 391.6 6.7 392.6 6.9 393.5 6.9 394.5 6.4 395.4 6.5 396.4 6.2 397.3 6.1 398.3 6.1 399.3 6.2 400.2 6.1 401.2 6 402.1 6 403.1 5.9 404 5.9 405 5.8 405.9 5.8 406.9 6.1 407.9 6.1 408.8 6 409.8 6 410.7 6.1 411.7 6.1 412.6 6 413.6 5.8 414.5 5.7 415.5 5.7 416.5 5.6 417.4 5.6 418.4 5.6 419.3 5.6 420.3 5.6 421.2 5.6 422.2 5.6 423.1 5.6 424.1 5.6 425 5.6 426 5.6 427 5.6 427.9 5.6 428.9 5.6 429.8 5.6 430.8 5.6 431.7 5.6 432.7 5.6 433.6 5.6 434.6 5.6 435.6 5.6 436.5 5.6 437.5 5.6 438.4 5.6 439.4 5.6 440.3 5.6 441.3 5.6 442.2 5.6 443.2 5.6 444.2 5.6 445.1 5.6 446.1 5.6 447 5.6 448 5.6 448.9 5.6 449.9 5.6 450.8 5.6 451.8 5.6 452.7 5.6 453.7 5.6 454.7 5.6 455.6 5.6 456.6 5.6 457.5 5.6 458.5 5.6 459.4 5.6 460.4 5.6 461.3 5.7 462.3 5.7 463.3 5.7 464.2 5.7 465.2 5.6 466.1 5.6 467.1 5.6 468 5.6 469 5.6 469.9 5.6 470.9 5.6 471.9 5.6 472.8 5.6 473.8 5.6 474.7 5.6 475.7 5.6 476.6 5.6 477.6 5.6 478.5 5.6 479.5 5.6 480.4 5.6 481.4 5.6 482.4 5.6 483.3 5.6 484.3 5.6 485.2 5.6 486.2 5.6 487.1 5.6 488.1 5.6 489 5.6 490 5.6" transform="matrix(1,0,0,-1,62.8,442.5)" fill="none" stroke="#d2dbee" stroke-width="0.5"></polyline>
</g>
<path d="M-5 -5l105.3 0l0 23.2l-105.3 0Z" transform="translate(15 5)" fill="rgb(0,0,0)" fill-opacity="0" stroke="#ccc" stroke-width="0"></path>
<path d="M0 7L25 7" transform="translate(16 4.6)" fill="#000" stroke="#5470c6" stroke-width="2" stroke-linecap="butt" stroke-miterlimit="10"></path>
<path d="M18.1 7A5.6 5.6 0 1 1 18.1 6.4A5.6 5.6 0 0 1 18.1 7" transform="translate(16 4.6)" fill="#fff" stroke="#5470c6" stroke-width="2" stroke-linecap="butt" stroke-miterlimit="10"></path>
<text dominant-baseline="central" text-anchor="start" style="font-size:12px;font-family:sans-serif;" x="30" y="7" transform="translate(16 4.6)" fill="#333">Evaporation</text>
<path d="M0 0l490 0l0 30l-490 0Z" transform="matrix(1,0,0,-1,62.8,442.5)" fill="none"></path>
<path d="M147 0l196 0l0 30l-196 0Z" transform="matrix(1,0,0,-1,62.8,442.5)" fill="rgb(135,175,255)" fill-opacity="0.2"></path>
<path d="M3.5 0.5L486.5 0.5A3 3 0 0 1 489.5 3.5L489.5 26.5A3 3 0 0 1 486.5 29.5L3.5 29.5A3 3 0 0 1 0.5 26.5L0.5 3.5A3 3 0 0 1 3.5 0.5" transform="matrix(1,0,0,-1,62.8,442.5)" fill="rgb(0,0,0)" fill-opacity="0" stroke="#d2dbee"></path>
<path d="M147 29.5L343 29.5L343 34.5A2 2 0 0 1 341 36.5L149 36.5A2 2 0 0 1 147 34.5L147 29.5" transform="matrix(1,0,0,-1,62.8,442.5)" fill="#D2DBEE" fill-opacity="0.7"></path>
<path d="M-2.2 -1.7C-1.9 -1.7 -1.7 -1.5 -1.7 -1.1L-1.7 1.1C-1.7 1.5 -1.9 1.7 -2.2 1.7C-2.6 1.7 -2.8 1.5 -2.8 1.1L-2.8 -1.1C-2.8 -1.5 -2.6 -1.7 -2.2 -1.7ZM0 -1.7C0.4 -1.7 0.6 -1.5 0.6 -1.1L0.6 1.1C0.6 1.5 0.4 1.7 0 1.7C-0.4 1.7 -0.6 1.5 -0.6 1.1L-0.6 -1.1C-0.6 -1.5 -0.4 -1.7 0 -1.7ZM2.2 -1.7C2.6 -1.7 2.8 -1.5 2.8 -1.1L2.8 1.1C2.8 1.5 2.6 1.7 2.2 1.7C1.9 1.7 1.7 1.5 1.7 1.1L1.7 -1.1C1.7 -1.5 1.9 -1.7 2.2 -1.7Z" transform="matrix(1,0,0,-1,307.8,409.5)" fill="#fff"></path>
<path d="M0 1.63L0 2M0 0L0 0.38M-0.1 0.38L0.1 0.38A0.1 0.1 0 0 1 0.2 0.47L0.2 1.52A0.1 0.1 0 0 1 0.1 1.62L-0.1 1.63A0.1 0.1 0 0 1 -0.2 1.52L-0.2 0.47A0.1 0.1 0 0 1 -0.1 0.37Z" transform="matrix(15,0,0,-15,210.8,442.5)" fill="#fff" stroke="#ACB8D1" stroke-width="0.06666666666666667"></path>
<path d="M0 1.63L0 2M0 0L0 0.38M-0.1 0.38L0.1 0.38A0.1 0.1 0 0 1 0.2 0.47L0.2 1.52A0.1 0.1 0 0 1 0.1 1.62L-0.1 1.63A0.1 0.1 0 0 1 -0.2 1.52L-0.2 0.47A0.1 0.1 0 0 1 -0.1 0.37Z" transform="matrix(15,0,0,-15,404.8,442.5)" fill="#fff" stroke="#ACB8D1" stroke-width="0.06666666666666667"></path>
<path d="M-14 -15l108.8 0l0 30l-108.8 0Z" transform="translate(505.2009 15)" fill="none" stroke="#ccc" stroke-width="0"></path>
<path d="M-97.3 -5l194.7 0l0 28l-194.7 0Z" transform="translate(300 5)" fill="rgb(0,0,0)" fill-opacity="0" stroke="#ccc" stroke-width="0"></path>
<path d="M-6.5 -1.6L-0.1 4.3L6.5 -1.4M-6.5 3.8L-6.5 7.5L6.2 7.5L6.2 3.8M-0.1 4.2L-0.1 -7.5" transform="translate(505.2009 15)" fill="none" stroke="#666"></path>
<path d="M-7 0.9M4.5 -3L7.2 -3L7.2 -5.7M7 -2.6C5.9 -5.6 2.8 -7.9 -0.9 -7.5C-4.6 -7 -7.6 -3.7 -7.5 0.2M-4.5 3L-7.2 3L-7.2 5.7M-7 2.6C-5.9 5.6 -2.8 7.9 0.9 7.5C4.6 7 7.6 3.7 7.5 -0.2" transform="translate(532.1373 15)" fill="none" stroke="#666"></path>
<path d="M-7.5 -4L-0.5 -4M-4 -0.5L-4 -7.5M0.8 -4L7.5 -4L7.5 7.5L-4 7.5L-4 0.8" transform="translate(560.0952 15)" fill="none" stroke="#666"></path>
<path d="M-2.8 -7.5L-6 -4.3L-2.7 -1M-5.8 -4.3L6 -4.3L6 7.5L-5.8 7.5L-5.8 0.6" transform="translate(586.5476 15)" fill="none" stroke="#666"></path>
<text dominant-baseline="central" text-anchor="middle" style="font-size:18px;font-family:sans-serif;font-weight:bold;" xml:space="preserve" y="9" transform="translate(300 5)" fill="#464646">Rainfall vs Evaporation</text>
<defs >
<clipPath id="zr30-c0">
<path d="M59 59l492 0l0 159.5l-492 0Z" fill="#000"></path>
</clipPath>
<clipPath id="zr30-c1">
<path d="M59 246.5l492 0l0 159.5l-492 0Z" fill="#000"></path>
</clipPath>
<clipPath id="zr30-c2">
<path d="M0 0l147 0l0 30l-147 0Z" transform="matrix(1,0,0,-1,62.8,442.5)" fill="#000"></path>
</clipPath>
<clipPath id="zr30-c3">
<path d="M147 0l196 0l0 30l-196 0Z" transform="matrix(1,0,0,-1,62.8,442.5)" fill="#000"></path>
</clipPath>
<clipPath id="zr30-c4">
<path d="M343 0l147 0l0 30l-147 0Z" transform="matrix(1,0,0,-1,62.8,442.5)" fill="#000"></path>
</clipPath>
</defs>
</svg>