<svg width="600" height="450" xmlns="http://www.w3.org/2000/svg" xmlns:xlink="http://www.w3.org/1999/xlink" version="1.1" baseProfile="full" viewBox="0 0 600 450">
<rect width="600" height="450" x="0" y="0" fill="none"></rect>
<path d="M46.2 416.5L576 416.5" fill="transparent" stroke="#E0E6F1" class="zr43-cls-228"></path>
<path d="M46.2 357.5L576 357.5" fill="transparent" stroke="#E0E6F1" class="zr43-cls-228"></path>
<path d="M46.2 297.5L576 297.5" fill="transparent" stroke="#E0E6F1" class="zr43-cls-228"></path>
<path d="M46.2 238.5L576 238.5" fill="transparent" stroke="#E0E6F1" class="zr43-cls-228"></path>
<path d="M46.2 179.5L576 179.5" fill="transparent" stroke="#E0E6F1" class="zr43-cls-228"></path>
<path d="M46.2 119.5L576 119.5" fill="transparent" stroke="#E0E6F1" class="zr43-cls-228"></path>
<path d="M46.2 60.5L576 60.5" fill="transparent" stroke="#E0E6F1" class="zr43-cls-228"></path>
<path d="M46.2 416.5L576 416.5" fill="transparent" stroke="#6E7079" stroke-linecap="round" class="zr43-cls-228"></path>
<path d="M46.5 416.5L46.5 421.5" fill="transparent" stroke="#6E7079" class="zr43-cls-228"></path>
<path d="M134.5 416.5L134.5 421.5" fill="transparent" stroke="#6E7079" class="zr43-cls-228"></path>
<path d="M223.5 416.5L223.5 421.5" fill="transparent" stroke="#6E7079" class="zr43-cls-228"></path>
<path d="M311.5 416.5L311.5 421.5" fill="transparent" stroke="#6E7079" class="zr43-cls-228"></path>
<path d="M399.5 416.5L399.5 421.5" fill="transparent" stroke="#6E7079" class="zr43-cls-228"></path>
<path d="M487.5 416.5L487.5 421.5" fill="transparent" stroke="#6E7079" class="zr43-cls-228"></path>
<path d="M576.5 416.5L576.5 421.5" fill="transparent" stroke="#6E7079" class="zr43-cls-228"></path>
<text dominant-baseline="central" text-anchor="end" style="font-size:12px;font-family:sans-serif;" transform="translate(38.16 416.5)" fill="#6E7079">0</text>
<text dominant-baseline="central" text-anchor="end" style="font-size:12px;font-family:sans-serif;" transform="translate(38.16 357.0833)" fill="#6E7079">100</text>
<text dominant-baseline="central" text-anchor="end" style="font-size:12px;font-family:sans-serif;" transform="translate(38.16 297.6667)" fill="#6E7079">200</text>
<text dominant-baseline="central" text-anchor="end" style="font-size:12px;font-family:sans-serif;" transform="translate(38.16 238.25)" fill="#6E7079">300</text>
<text dominant-baseline="central" text-anchor="end" style="font-size:12px;font-family:sans-serif;" transform="translate(38.16 178.8333)" fill="#6E7079">400</text>
<text dominant-baseline="central" text-anchor="end" style="font-size:12px;font-family:sans-serif;" transform="translate(38.16 119.4167)" fill="#6E7079">500</text>
<text dominant-baseline="central" text-anchor="end" style="font-size:12px;font-family:sans-serif;" transform="translate(38.16 60)" fill="#6E7079">600</text>
<text dominant-baseline="central" text-anchor="middle" style="font-size:12px;font-family:sans-serif;" y="6" transform="translate(46.16 424.5)" fill="#6E7079">Mon</text>
<text dominant-baseline="central" text-anchor="middle" style="font-size:12px;font-family:sans-serif;" y="6" transform="translate(134.4667 424.5)" fill="#6E7079">Tue</text>
<text dominant-baseline="central" text-anchor="middle" style="font-size:12px;font-family:sans-serif;" y="6" transform="translate(222.7733 424.5)" fill="#6E7079">Wed</text>
<text dominant-baseline="central" text-anchor="middle" style="font-size:12px;font-family:sans-serif;" y="6" transform="translate(311.08 424.5)" fill="#6E7079">Thu</text>
<text dominant-baseline="central" text-anchor="middle" style="font-size:12px;font-family:sans-serif;" y="6" transform="translate(399.3867 424.5)" fill="#6E7079">Fri</text>
<text dominant-baseline="central" text-anchor="middle" style="font-size:12px;font-family:sans-serif;" y="6" transform="translate(487.6933 424.5)" fill="#6E7079">Sat</text>
<text dominant-baseline="central" text-anchor="middle" style="font-size:12px;font-family:sans-serif;" y="6" transform="translate(576 424.5)" fill="#6E7079">Sun</text>
<g clip-path="url(#zr43-c0)">
<path d="M46.2 345.2L46.2 338.1L134.5 338.1L134.5 356.5L222.8 356.5L222.8 336.9L311.1 336.9L311.1 363L399.4 363L399.4 279.8L487.7 279.8L487.7 291.7L576 291.7" fill="transparent" stroke="#5470c6" stroke-width="2" stroke-linejoin="bevel" class="zr43-cls-230"></path>
</g>
<g clip-path="url(#zr43-c1)">
<path d="M46.2 285.8L90.3 285.8L90.3 248.9L134.5 248.9L178.6 248.9L178.6 297.1L222.8 297.1L266.9 297.1L266.9 277.5L311.1 277.5L355.2 277.5L355.2 244.2L399.4 244.2L443.5 244.2L443.5 161L487.7 161L531.8 161L531.8 172.9L576 172.9" fill="transparent" stroke="#91cc75" stroke-width="2" stroke-linejoin="bevel" class="zr43-cls-230"></path>
</g>
<g clip-path="url(#zr43-c2)">
<path d="M46.2 149.1L134.5 149.1L134.5 159.8L222.8 159.8L222.8 178.2L311.1 178.2L311.1 146.7L399.4 146.7L399.4 65.9L487.7 65.9L487.7 101.6L576 101.6L576 113.5" fill="transparent" stroke="#fac858" stroke-width="2" stroke-linejoin="bevel" class="zr43-cls-230"></path>
</g>
<path d="M1 0A1 1 0 1 1 1 -0.1A1 1 0 0 1 1 0" transform="matrix(2,0,0,2,46.16,345.2)" fill="#fff" stroke="#5470c6" ecmeta_series_index="0" ecmeta_data_index="0" ecmeta_ssr_type="chart" class="zr43-cls-231"></path>
<path d="M1 0A1 1 0 1 1 1 -0.1A1 1 0 0 1 1 0" transform="matrix(2,0,0,2,134.4667,338.07)" fill="#fff" stroke="#5470c6" ecmeta_series_index="0" ecmeta_data_index="1" ecmeta_ssr_type="chart" class="zr43-cls-231"></path>
<path d="M1 0A1 1 0 1 1 1 -0.1A1 1 0 0 1 1 0" transform="matrix(2,0,0,2,222.7733,356.4892)" fill="#fff" stroke="#5470c6" ecmeta_series_index="0" ecmeta_data_index="2" ecmeta_ssr_type="chart" class="zr43-cls-231"></path>
<path d="M1 0A1 1 0 1 1 1 -0.1A1 1 0 0 1 1 0" transform="matrix(2,0,0,2,311.08,336.8817)" fill="#fff" stroke="#5470c6" ecmeta_series_index="0" ecmeta_data_index="3" ecmeta_ssr_type="chart" class="zr43-cls-231"></path>
<path d="M1 0A1 1 0 1 1 1 -0.1A1 1 0 0 1 1 0" transform="matrix(2,0,0,2,399.3867,363.025)" fill="#fff" stroke="#5470c6" ecmeta_series_index="0" ecmeta_data_index="4" ecmeta_ssr_type="chart" class="zr43-cls-231"></path>
<path d="M1 0A1 1 0 1 1 1 -0.1A1 1 0 0 1 1 0" transform="matrix(2,0,0,2,487.6933,279.8417)" fill="#fff" stroke="#5470c6" ecmeta_series_index="0" ecmeta_data_index="5" ecmeta_ssr_type="chart" class="zr43-cls-231"></path>
<path d="M1 0A1 1 0 1 1 1 -0.1A1 1 0 0 1 1 0" transform="matrix(2,0,0,2,576,291.725)" fill="#fff" stroke="#5470c6" ecmeta_series_index="0" ecmeta_data_index="6" ecmeta_ssr_type="chart" class="zr43-cls-231"></path>
<path d="M1 0A1 1 0 1 1 1 -0.1A1 1 0 0 1 1 0" transform="matrix(2,0,0,2,46.16,285.7833)" fill="#fff" stroke="#91cc75" ecmeta_series_index="1" ecmeta_data_index="0" ecmeta_ssr_type="chart" class="zr43-cls-231"></path>
<path d="M1 0A1 1 0 1 1 1 -0.1A1 1 0 0 1 1 0" transform="matrix(2,0,0,2,134.4667,248.945)" fill="#fff" stroke="#91cc75" ecmeta_series_index="1" ecmeta_data_index="1" ecmeta_ssr_type="chart" class="zr43-cls-231"></path>
<path d="M1 0A1 1 0 1 1 1 -0.1A1 1 0 0 1 1 0" transform="matrix(2,0,0,2,222.7733,297.0725)" fill="#fff" stroke="#91cc75" ecmeta_series_index="1" ecmeta_data_index="2" ecmeta_ssr_type="chart" class="zr43-cls-231"></path>
<path d="M1 0A1 1 0 1 1 1 -0.1A1 1 0 0 1 1 0" transform="matrix(2,0,0,2,311.08,277.465)" fill="#fff" stroke="#91cc75" ecmeta_series_index="1" ecmeta_data_index="3" ecmeta_ssr_type="chart" class="zr43-cls-231"></path>
<path d="M1 0A1 1 0 1 1 1 -0.1A1 1 0 0 1 1 0" transform="matrix(2,0,0,2,399.3867,244.1917)" fill="#fff" stroke="#91cc75" ecmeta_series_index="1" ecmeta_data_index="4" ecmeta_ssr_type="chart" class="zr43-cls-231"></path>
<path d="M1 0A1 1 0 1 1 1 -0.1A1 1 0 0 1 1 0" transform="matrix(2,0,0,2,487.6933,161.0083)" fill="#fff" stroke="#91cc75" ecmeta_series_index="1" ecmeta_data_index="5" ecmeta_ssr_type="chart" class="zr43-cls-231"></path>
<path d="M1 0A1 1 0 1 1 1 -0.1A1 1 0 0 1 1 0" transform="matrix(2,0,0,2,576,172.8917)" fill="#fff" stroke="#91cc75" ecmeta_series_index="1" ecmeta_data_index="6" ecmeta_ssr_type="chart" class="zr43-cls-231"></path>
<path d="M1 0A1 1 0 1 1 1 -0.1A1 1 0 0 1 1 0" transform="matrix(2,0,0,2,46.16,149.125)" fill="#fff" stroke="#fac858" ecmeta_series_index="2" ecmeta_data_index="0" ecmeta_ssr_type="chart" class="zr43-cls-231"></path>
<path d="M1 0A1 1 0 1 1 1 -0.1A1 1 0 0 1 1 0" transform="matrix(2,0,0,2,134.4667,159.82)" fill="#fff" stroke="#fac858" ecmeta_series_index="2" ecmeta_data_index="1" ecmeta_ssr_type="chart" class="zr43-cls-231"></path>
<path d="M1 0A1 1 0 1 1 1 -0.1A1 1 0 0 1 1 0" transform="matrix(2,0,0,2,222.7733,178.2392)" fill="#fff" stroke="#fac858" ecmeta_series_index="2" ecmeta_data_index="2" ecmeta_ssr_type="chart" class="zr43-cls-231"></path>
<path d="M1 0A1 1 0 1 1 1 -0.1A1 1 0 0 1 1 0" transform="matrix(2,0,0,2,311.08,146.7483)" fill="#fff" stroke="#fac858" ecmeta_series_index="2" ecmeta_data_index="3" ecmeta_ssr_type="chart" class="zr43-cls-231"></path>
<path d="M1 0A1 1 0 1 1 1 -0.1A1 1 0 0 1 1 0" transform="matrix(2,0,0,2,399.3867,65.9417)" fill="#fff" stroke="#fac858" ecmeta_series_index="2" ecmeta_data_index="4" ecmeta_ssr_type="chart" class="zr43-cls-231"></path>
<path d="M1 0A1 1 0 1 1 1 -0.1A1 1 0 0 1 1 0" transform="matrix(2,0,0,2,487.6933,101.5917)" fill="#fff" stroke="#fac858" ecmeta_series_index="2" ecmeta_data_index="5" ecmeta_ssr_type="chart" class="zr43-cls-231"></path>
<path d="M1 0A1 1 0 1 1 1 -0.1A1 1 0 0 1 1 0" transform="matrix(2,0,0,2,576,113.475)" fill="#fff" stroke="#fac858" ecmeta_series_index="2" ecmeta_data_index="6" ecmeta_ssr_type="chart" class="zr43-cls-231"></path>
<path d="M-5 -5l289.9 0l0 23.2l-289.9 0Z" transform="translate(160.04 5)" fill="rgb(0,0,0)" fill-opacity="0" stroke="#ccc" stroke-width="0" class="zr43-cls-228"></path>
<path d="M0 7L25 7" transform="translate(161.04 4.6)" fill="#000" stroke="#5470c6" stroke-width="2" stroke-linecap="butt" stroke-miterlimit="10" class="zr43-cls-228"></path>
<path d="M18.1 7A5.6 5.6 0 1 1 18.1 6.4A5.6 5.6 0 0 1 18.1 7" transform="translate(161.04 4.6)" fill="#fff" stroke="#5470c6" stroke-width="2" stroke-linecap="butt" stroke-miterlimit="10" class="zr43-cls-228"></path>
<text dominant-baseline="central" text-anchor="start" style="font-size:12px;font-family:sans-serif;" xml:space="preserve" x="30" y="7" transform="translate(161.04 4.6)" fill="#333">Step Start</text>
<path d="M-1 0.4l84.6 0l0 13.2l-84.6 0Z" transform="translate(161.04 4.6)" fill="transparent" ecmeta_series_index="0" ecmeta_data_index="0" ecmeta_ssr_type="legend" class="zr43-cls-232"></path>
<path d="M0 7L25 7" transform="translate(255.68 4.6)" fill="#000" stroke="#91cc75" stroke-width="2" stroke-linecap="butt" stroke-miterlimit="10" class="zr43-cls-228"></path>
<path d="M18.1 7A5.6 5.6 0 1 1 18.1 6.4A5.6 5.6 0 0 1 18.1 7" transform="translate(255.68 4.6)" fill="#fff" stroke="#91cc75" stroke-width="2" stroke-linecap="butt" stroke-miterlimit="10" class="zr43-cls-228"></path>
<text dominant-baseline="central" text-anchor="start" style="font-size:12px;font-family:sans-serif;" xml:space="preserve" x="30" y="7" transform="translate(255.68 4.6)" fill="#333">Step Middle</text>
<path d="M-1 0.4l94.6 0l0 13.2l-94.6 0Z" transform="translate(255.68 4.6)" fill="transparent" ecmeta_series_index="1" ecmeta_data_index="1" ecmeta_ssr_type="legend" class="zr43-cls-232"></path>
<path d="M0 7L25 7" transform="translate(360.28 4.6)" fill="#000" stroke="#fac858" stroke-width="2" stroke-linecap="butt" stroke-miterlimit="10" class="zr43-cls-228"></path>
<path d="M18.1 7A5.6 5.6 0 1 1 18.1 6.4A5.6 5.6 0 0 1 18.1 7" transform="translate(360.28 4.6)" fill="#fff" stroke="#fac858" stroke-width="2" stroke-linecap="butt" stroke-miterlimit="10" class="zr43-cls-228"></path>
<text dominant-baseline="central" text-anchor="start" style="font-size:12px;font-family:sans-serif;" xml:space="preserve" x="30" y="7" transform="translate(360.28 4.6)" fill="#333">Step End</text>
<path d="M-1 0.4l80.7 0l0 13.2l-80.7 0Z" transform="translate(360.28 4.6)" fill="transparent" ecmeta_series_index="2" ecmeta_data_index="2" ecmeta_ssr_type="legend" class="zr43-cls-232"></path>
<path d="M-14 -15l28 0l0 30l-28 0Z" transform="translate(586.0216 15)" fill="transparent" stroke="#ccc" stroke-width="0" class="zr43-cls-228"></path>
<path d="M-5 -5l86.5 0l0 28l-86.5 0Z" transform="translate(5 5)" fill="rgb(0,0,0)" fill-opacity="0" stroke="#ccc" stroke-width="0" class="zr43-cls-228"></path>
<path d="M-6.5 -1.6L-0.1 4.3L6.5 -1.4M-6.5 3.8L-6.5 7.5L6.2 7.5L6.2 3.8M-0.1 4.2L-0.1 -7.5" transform="translate(586.0216 15)" fill="transparent" stroke="#666" class="zr43-cls-233"></path>
<text dominant-baseline="central" text-anchor="start" style="font-size:18px;font-family:sans-serif;font-weight:bold;" xml:space="preserve" y="9" transform="translate(5 5)" fill="#464646">Step Line</text>
<defs >
<clipPath id="zr43-c0">
<path d="M45 59l533 0l0 358.5l-533 0Z" fill="#000" class="zr43-cls-229"></path>
</clipPath>
<clipPath id="zr43-c1">
<path d="M45 59l533 0l0 358.5l-533 0Z" fill="#000" class="zr43-cls-229"></path>
</clipPath>
<clipPath id="zr43-c2">
<path d="M45 59l533 0l0 358.5l-533 0Z" fill="#000" class="zr43-cls-229"></path>
</clipPath>
</defs>
<style ><![CDATA[
.zr43-cls-228:hover {
pointer-events:none;
}
.zr43-cls-229:hover {
cursor:pointer;
fill:rgba(0,0,0,1);
}
.zr43-cls-230:hover {
cursor:pointer;
}
.zr43-cls-231:hover {
cursor:pointer;
fill:rgba(255,255,255,1);
}
.zr43-cls-232:hover {
cursor:pointer;
fill:rgba(0,0,0,0);
}
.zr43-cls-233:hover {
cursor:pointer;
stroke:#3E98C5;
}

]]>

</style>
</svg>