<svg width="600" height="450" xmlns="http://www.w3.org/2000/svg" xmlns:xlink="http://www.w3.org/1999/xlink" version="1.1" baseProfile="full" viewBox="0 0 600 450">
<rect width="600" height="450" x="0" y="0" id="0" fill="none"></rect>
<path d="M300 243A0 0 0 1 1 300 243A0 0 0 0 1 300 243M336 243A36 36 0 1 1 335.8 239.4A36 36 0 0 1 336 243M372 243A72 72 0 1 1 371.6 235.8A72 72 0 0 1 372 243M408 243A108 108 0 1 1 407.5 232.2A108 108 0 0 1 408 243M444 243A144 144 0 1 1 443.3 228.6A144 144 0 0 1 444 243M480 243A180 180 0 1 1 479.1 225A180 180 0 0 1 480 243" fill="none" stroke="#E0E6F1"></path>
<text dominant-baseline="central" text-anchor="start" style="font-size:12px;font-family:sans-serif;" x="488" y="243.00000000000003" fill="#6E7079">0</text>
<text dominant-baseline="central" text-anchor="start" style="font-size:12px;font-family:sans-serif;" x="462.8127759114745" y="343" fill="#6E7079">30</text>
<text dominant-baseline="central" text-anchor="start" style="font-size:12px;font-family:sans-serif;" x="394" y="411.8127759114745" fill="#6E7079">60</text>
<text dominant-baseline="central" text-anchor="middle" style="font-size:12px;font-family:sans-serif;" x="300" y="437" fill="#6E7079">90</text>
<text dominant-baseline="central" text-anchor="end" style="font-size:12px;font-family:sans-serif;" x="206.00000000000006" y="411.81277591147455" fill="#6E7079">120</text>
<text dominant-baseline="central" text-anchor="end" style="font-size:12px;font-family:sans-serif;" x="137.1872240885255" y="343" fill="#6E7079">150</text>
<text dominant-baseline="central" text-anchor="end" style="font-size:12px;font-family:sans-serif;" x="112" y="243.00000000000006" fill="#6E7079">180</text>
<text dominant-baseline="central" text-anchor="end" style="font-size:12px;font-family:sans-serif;" x="137.18722408852554" y="143" fill="#6E7079">210</text>
<text dominant-baseline="central" text-anchor="end" style="font-size:12px;font-family:sans-serif;" x="205.99999999999991" y="74.18722408852562" fill="#6E7079">240</text>
<text dominant-baseline="central" text-anchor="middle" style="font-size:12px;font-family:sans-serif;" x="299.99999999999994" y="49.00000000000003" fill="#6E7079">270</text>
<text dominant-baseline="central" text-anchor="start" style="font-size:12px;font-family:sans-serif;" x="394" y="74.18722408852557" fill="#6E7079">300</text>
<text dominant-baseline="central" text-anchor="start" style="font-size:12px;font-family:sans-serif;" x="462.81277591147443" y="142.99999999999994" fill="#6E7079">330</text>
<path d="M485 243L480 243M460.2 335.5L455.9 333M392.5 403.2L390 398.9M300 428L300 423M207.5 403.2L210 398.9M139.8 335.5L144.1 333M115 243L120 243M139.8 150.5L144.1 153M207.5 82.8L210 87.1M300 58L300 63M392.5 82.8L390 87.1M460.2 150.5L455.9 153" fill="#000" stroke="#6E7079"></path>
<path d="M480 243L300 243M455.9 333L300 243M390 398.9L300 243M300 423L300 243M210 398.9L300 243M144.1 333L300 243M120 243L300 243M144.1 153L300 243M210 87.1L300 243M300 63L300 243M390 87.1L300 243M455.9 153L300 243" fill="#000" stroke="#E0E6F1"></path>
<path d="M300 243.5L480 243.5" fill="none" stroke="#6E7079" stroke-linecap="round"></path>
<circle cx="300" cy="243" r="180" fill="none" stroke="#6E7079"></circle>
<path d="M300.5 243L300.5 238" fill="none" stroke="#6E7079"></path>
<path d="M336.5 243L336.5 238" fill="none" stroke="#6E7079"></path>
<path d="M372.5 243L372.5 238" fill="none" stroke="#6E7079"></path>
<path d="M408.5 243L408.5 238" fill="none" stroke="#6E7079"></path>
<path d="M444.5 243L444.5 238" fill="none" stroke="#6E7079"></path>
<path d="M480.5 243L480.5 238" fill="none" stroke="#6E7079"></path>
<text dominant-baseline="central" text-anchor="middle" style="font-size:12px;font-family:sans-serif;" y="-6" transform="translate(300 235)" fill="#6E7079">0</text>
<text dominant-baseline="central" text-anchor="middle" style="font-size:12px;font-family:sans-serif;" y="-6" transform="translate(336 235)" fill="#6E7079">0.1</text>
<text dominant-baseline="central" text-anchor="middle" style="font-size:12px;font-family:sans-serif;" y="-6" transform="translate(372 235)" fill="#6E7079">0.2</text>
<text dominant-baseline="central" text-anchor="middle" style="font-size:12px;font-family:sans-serif;" y="-6" transform="translate(408 235)" fill="#6E7079">0.3</text>
<text dominant-baseline="central" text-anchor="middle" style="font-size:12px;font-family:sans-serif;" y="-6" transform="translate(444 235)" fill="#6E7079">0.4</text>
<text dominant-baseline="central" text-anchor="middle" style="font-size:12px;font-family:sans-serif;" y="-6" transform="translate(480 235)" fill="#6E7079">0.5</text>
<g clip-path="url(#zr41-c0)">
<path d="M300 243L312.6 243.2L325 243.9L337.4 245L349.5 246.5L361.3 248.4L372.8 250.7L383.9 253.3L394.5 256.3L404.5 259.6L413.9 263.1L422.7 266.9L430.8 270.8L438.2 274.9L444.8 279.1L450.6 283.3L455.5 287.6L459.6 291.8L462.8 295.9L465.1 299.9L466.6 303.6L467.1 307.2L466.8 310.4L465.6 313.3L463.5 315.8L460.7 317.9L457 319.6L452.5 320.7L447.4 321.4L441.5 321.4L435 320.9L427.9 319.9L420.3 318.2L412.2 315.9L403.7 312.9L394.8 309.4L385.6 305.2L376.2 300.4L366.6 295L356.9 289.1L347.2 282.6L337.4 275.6L327.8 268L318.3 260.1L309 251.7L300 243L291.3 234L282.9 224.7L275 215.2L267.4 205.6L260.4 195.8L253.9 186.1L248 176.4L242.6 166.8L237.8 157.4L233.6 148.2L230.1 139.3L227.1 130.8L224.8 122.7L223.1 115.1L222.1 108L221.6 101.5L221.6 95.6L222.3 90.5L223.4 86L225.1 82.3L227.2 79.5L229.7 77.4L232.6 76.2L235.8 75.9L239.4 76.4L243.1 77.9L247.1 80.2L251.2 83.4L255.4 87.5L259.7 92.4L263.9 98.2L268.1 104.8L272.2 112.2L276.1 120.3L279.9 129.1L283.4 138.5L286.7 148.5L289.7 159.1L292.3 170.2L294.6 181.7L296.5 193.5L298 205.6L299.1 218L299.8 230.4L300 243L299.8 255.6L299.1 268L298 280.4L296.5 292.5L294.6 304.3L292.3 315.8L289.7 326.9L286.7 337.5L283.4 347.5L279.9 356.9L276.1 365.7L272.2 373.8L268.1 381.2L263.9 387.8L259.7 393.6L255.4 398.5L251.2 402.6L247.1 405.8L243.1 408.1L239.4 409.6L235.8 410.1L232.6 409.8L229.7 408.6L227.2 406.5L225.1 403.7L223.4 400L222.3 395.5L221.6 390.4L221.6 384.5L222.1 378L223.1 370.9L224.8 363.3L227.1 355.2L230.1 346.7L233.6 337.8L237.8 328.6L242.6 319.2L248 309.6L253.9 299.9L260.4 290.2L267.4 280.4L275 270.8L282.9 261.3L291.3 252L300 243L309 234.3L318.3 225.9L327.8 218L337.4 210.4L347.2 203.4L356.9 196.9L366.6 191L376.2 185.6L385.6 180.8L394.8 176.6L403.7 173.1L412.2 170.1L420.3 167.8L427.9 166.1L435 165.1L441.5 164.6L447.4 164.6L452.5 165.3L457 166.4L460.7 168.1L463.5 170.2L465.6 172.7L466.8 175.6L467.1 178.8L466.6 182.4L465.1 186.1L462.8 190.1L459.6 194.2L455.5 198.4L450.6 202.7L444.8 206.9L438.2 211.1L430.8 215.2L422.7 219.1L413.9 222.9L404.5 226.4L394.5 229.7L383.9 232.7L372.8 235.3L361.3 237.6L349.5 239.5L337.4 241L325 242.1L312.6 242.8L300 243L287.4 242.8L275 242.1L262.6 241L250.5 239.5L238.7 237.6L227.2 235.3L216.1 232.7L205.5 229.7L195.5 226.4L186.1 222.9L177.3 219.1L169.2 215.2L161.8 211.1L155.2 206.9L149.4 202.7L144.5 198.4L140.4 194.2L137.2 190.1L134.9 186.1L133.4 182.4L132.9 178.8L133.2 175.6L134.4 172.7L136.5 170.2L139.3 168.1L143 166.4L147.5 165.3L152.6 164.6L158.5 164.6L165 165.1L172.1 166.1L179.7 167.8L187.8 170.1L196.3 173.1L205.2 176.6L214.4 180.8L223.8 185.6L233.4 191L243.1 196.9L252.8 203.4L262.6 210.4L272.2 218L281.7 225.9L291 234.3L300 243L308.7 252L317.1 261.3L325 270.8L332.6 280.4L339.6 290.2L346.1 299.9L352 309.6L357.4 319.2L362.2 328.6L366.4 337.8L369.9 346.7L372.9 355.2L375.2 363.3L376.9 370.9L377.9 378L378.4 384.5L378.4 390.4L377.7 395.5L376.6 400L374.9 403.7L372.8 406.5L370.3 408.6L367.4 409.8L364.2 410.1L360.6 409.6L356.9 408.1L352.9 405.8L348.8 402.6L344.6 398.5L340.3 393.6L336.1 387.8L331.9 381.2L327.8 373.8L323.9 365.7L320.1 356.9L316.6 347.5L313.3 337.5L310.3 326.9L307.7 315.8L305.4 304.3L303.5 292.5L302 280.4L300.9 268L300.2 255.6L300 243L300.2 230.4L300.9 218L302 205.6L303.5 193.5L305.4 181.7L307.7 170.2L310.3 159.1L313.3 148.5L316.6 138.5L320.1 129.1L323.9 120.3L327.8 112.2L331.9 104.8L336.1 98.2L340.3 92.4L344.6 87.5L348.8 83.4L352.9 80.2L356.9 77.9L360.6 76.4L364.2 75.9L367.4 76.2L370.3 77.4L372.8 79.5L374.9 82.3L376.6 86L377.7 90.5L378.4 95.6L378.4 101.5L377.9 108L376.9 115.1L375.2 122.7L372.9 130.8L369.9 139.3L366.4 148.2L362.2 157.4L357.4 166.8L352 176.4L346.1 186.1L339.6 195.8L332.6 205.6L325 215.2L317.1 224.7L308.7 234L300 243L291 251.7L281.7 260.1L272.2 268L262.6 275.6L252.8 282.6L243.1 289.1L233.4 295L223.8 300.4L214.4 305.2L205.2 309.4L196.3 312.9L187.8 315.9L179.7 318.2L172.1 319.9L165 320.9L158.5 321.4L152.6 321.4L147.5 320.7L143 319.6L139.3 317.9L136.5 315.8L134.4 313.3L133.2 310.4L132.9 307.2L133.4 303.6L134.9 299.9L137.2 295.9L140.4 291.8L144.5 287.6L149.4 283.3L155.2 279.1L161.8 274.9L169.2 270.8L177.3 266.9L186.1 263.1L195.5 259.6L205.5 256.3L216.1 253.3L227.2 250.7L238.7 248.4L250.5 246.5L262.6 245L275 243.9L287.4 243.2L300 243" fill="none" stroke="#5470c6" stroke-width="2" stroke-linejoin="bevel"></path>
</g>
<path d="M-5 -5l59.7 0l0 23.2l-59.7 0Z" transform="translate(275.14 5)" fill="rgb(0,0,0)" fill-opacity="0" stroke="#ccc" stroke-width="0"></path>
<path d="M0 7L25 7" transform="translate(276.14 4.6)" fill="#000" stroke="#5470c6" stroke-width="2" stroke-linecap="butt" stroke-miterlimit="10"></path>
<path d="M18.1 7A5.6 5.6 0 1 1 18.1 6.4A5.6 5.6 0 0 1 18.1 7" transform="translate(276.14 4.6)" fill="#fff" stroke="#5470c6" stroke-width="2" stroke-linecap="butt" stroke-miterlimit="10"></path>
<text dominant-baseline="central" text-anchor="start" style="font-size:12px;font-family:sans-serif;" x="30" y="7" transform="translate(276.14 4.6)" fill="#333">line</text>
<path d="M-5 -5l207.6 0l0 28l-207.6 0Z" transform="translate(5 5)" fill="rgb(0,0,0)" fill-opacity="0" stroke="#ccc" stroke-width="0"></path>
<text dominant-baseline="central" text-anchor="start" style="font-size:18px;font-family:sans-serif;font-weight:bold;" xml:space="preserve" y="9" transform="translate(5 5)" fill="#464646">Two Value-Axes in Polar</text>
<defs >
<clipPath id="zr41-c0">
<path d="M480 243A180 180 0 1 1 479.1 225A180 180 0 0 1 480 243Z" fill="#000"></path>
</clipPath>
</defs>
</svg>