<svg width="600" height="450" xmlns="http://www.w3.org/2000/svg" xmlns:xlink="http://www.w3.org/1999/xlink" version="1.1" baseProfile="full" viewBox="0 0 600 450">
<rect width="600" height="450" x="0" y="0" id="0" fill="none"></rect>
<polyline points="204 326.3 224 326.3" fill="none" stroke="#5470c6"></polyline>
<polyline points="174 366.8 194 366.8" fill="none" stroke="#91cc75"></polyline>
<polyline points="156 407.3 176 407.3" fill="none" stroke="#fac858"></polyline>
<polyline points="234 285.8 254 285.8" fill="none" stroke="#ee6666"></polyline>
<polyline points="258 245.3 278 245.3" fill="none" stroke="#73c0de"></polyline>
<polyline points="204 123.8 224 123.8" fill="none" stroke="#5470c6"></polyline>
<polyline points="174 83.3 194 83.3" fill="none" stroke="#91cc75"></polyline>
<polyline points="156 42.8 176 42.8" fill="none" stroke="#fac858"></polyline>
<polyline points="234 164.3 254 164.3" fill="none" stroke="#ee6666"></polyline>
<polyline points="258 204.8 278 204.8" fill="none" stroke="#73c0de"></polyline>
<polyline points="396 123.8 376 123.8" fill="none" stroke="#5470c6"></polyline>
<polyline points="426 164.3 406 164.3" fill="none" stroke="#91cc75"></polyline>
<polyline points="444 204.8 424 204.8" fill="none" stroke="#fac858"></polyline>
<polyline points="366 83.3 346 83.3" fill="none" stroke="#ee6666"></polyline>
<polyline points="342 42.8 322 42.8" fill="none" stroke="#73c0de"></polyline>
<polyline points="396 326.3 376 326.3" fill="none" stroke="#5470c6"></polyline>
<polyline points="426 285.8 406 285.8" fill="none" stroke="#91cc75"></polyline>
<polyline points="444 245.3 424 245.3" fill="none" stroke="#fac858"></polyline>
<polyline points="366 366.8 346 366.8" fill="none" stroke="#ee6666"></polyline>
<polyline points="342 407.3 322 407.3" fill="none" stroke="#73c0de"></polyline>
<polygon points="78 306 222 306 186 346.5 114 346.5" fill="#5470c6" stroke="#fff" stroke-linejoin="round"></polygon>
<polygon points="114 346.5 186 346.5 162 387 138 387" fill="#91cc75" stroke="#fff" stroke-linejoin="round"></polygon>
<polygon points="138 387 162 387 150 427.5 150 427.5" fill="#fac858" stroke="#fff" stroke-linejoin="round"></polygon>
<polygon points="54 265.5 246 265.5 222 306 78 306" fill="#ee6666" stroke="#fff" stroke-linejoin="round"></polygon>
<polygon points="30 225 270 225 246 265.5 54 265.5" fill="#73c0de" stroke="#fff" stroke-linejoin="round"></polygon>
<polygon points="78 144 222 144 186 103.5 114 103.5" fill="#5470c6" stroke="#fff" stroke-linejoin="round"></polygon>
<polygon points="114 103.5 186 103.5 162 63 138 63" fill="#91cc75" stroke="#fff" stroke-linejoin="round"></polygon>
<polygon points="138 63 162 63 150 22.5 150 22.5" fill="#fac858" stroke="#fff" stroke-linejoin="round"></polygon>
<polygon points="54 184.5 246 184.5 222 144 78 144" fill="#ee6666" stroke="#fff" stroke-linejoin="round"></polygon>
<polygon points="30 225 270 225 246 184.5 54 184.5" fill="#73c0de" stroke="#fff" stroke-linejoin="round"></polygon>
<polygon points="378 103.5 522 103.5 486 144 414 144" fill="#5470c6" stroke="#fff" stroke-linejoin="round"></polygon>
<polygon points="414 144 486 144 462 184.5 438 184.5" fill="#91cc75" stroke="#fff" stroke-linejoin="round"></polygon>
<polygon points="438 184.5 462 184.5 450 225 450 225" fill="#fac858" stroke="#fff" stroke-linejoin="round"></polygon>
<polygon points="354 63 546 63 522 103.5 378 103.5" fill="#ee6666" stroke="#fff" stroke-linejoin="round"></polygon>
<polygon points="330 22.5 570 22.5 546 63 354 63" fill="#73c0de" stroke="#fff" stroke-linejoin="round"></polygon>
<polygon points="378 346.5 522 346.5 486 306 414 306" fill="#5470c6" stroke="#fff" stroke-linejoin="round"></polygon>
<polygon points="414 306 486 306 462 265.5 438 265.5" fill="#91cc75" stroke="#fff" stroke-linejoin="round"></polygon>
<polygon points="438 265.5 462 265.5 450 225 450 225" fill="#fac858" stroke="#fff" stroke-linejoin="round"></polygon>
<polygon points="354 387 546 387 522 346.5 378 346.5" fill="#ee6666" stroke="#fff" stroke-linejoin="round"></polygon>
<polygon points="330 427.5 570 427.5 546 387 354 387" fill="#73c0de" stroke="#fff" stroke-linejoin="round"></polygon>
<text dominant-baseline="central" text-anchor="start" style="font-size:12px;font-family:sans-serif;" x="229" y="326.25" fill="#5470c6" stroke="rgb(255,255,255)" stroke-width="2" paint-order="stroke" stroke-miterlimit="2">Visit</text>
<text dominant-baseline="central" text-anchor="start" style="font-size:12px;font-family:sans-serif;" x="199" y="366.75" fill="#91cc75" stroke="rgb(255,255,255)" stroke-width="2" paint-order="stroke" stroke-miterlimit="2">Inquiry</text>
<text dominant-baseline="central" text-anchor="start" style="font-size:12px;font-family:sans-serif;" x="181" y="407.25" fill="#fac858" stroke="rgb(255,255,255)" stroke-width="2" paint-order="stroke" stroke-miterlimit="2">Order</text>
<text dominant-baseline="central" text-anchor="start" style="font-size:12px;font-family:sans-serif;" x="259" y="285.75" fill="#ee6666" stroke="rgb(255,255,255)" stroke-width="2" paint-order="stroke" stroke-miterlimit="2">Click</text>
<text dominant-baseline="central" text-anchor="start" style="font-size:12px;font-family:sans-serif;" x="283" y="245.25" fill="#73c0de" stroke="rgb(255,255,255)" stroke-width="2" paint-order="stroke" stroke-miterlimit="2">Show</text>
<text dominant-baseline="central" text-anchor="start" style="font-size:12px;font-family:sans-serif;" x="229" y="123.75" fill="#5470c6" stroke="rgb(255,255,255)" stroke-width="2" paint-order="stroke" stroke-miterlimit="2">Visit</text>
<text dominant-baseline="central" text-anchor="start" style="font-size:12px;font-family:sans-serif;" x="199" y="83.25" fill="#91cc75" stroke="rgb(255,255,255)" stroke-width="2" paint-order="stroke" stroke-miterlimit="2">Inquiry</text>
<text dominant-baseline="central" text-anchor="start" style="font-size:12px;font-family:sans-serif;" x="181" y="42.75" fill="#fac858" stroke="rgb(255,255,255)" stroke-width="2" paint-order="stroke" stroke-miterlimit="2">Order</text>
<text dominant-baseline="central" text-anchor="start" style="font-size:12px;font-family:sans-serif;" x="259" y="164.25" fill="#ee6666" stroke="rgb(255,255,255)" stroke-width="2" paint-order="stroke" stroke-miterlimit="2">Click</text>
<text dominant-baseline="central" text-anchor="start" style="font-size:12px;font-family:sans-serif;" x="283" y="204.75" fill="#73c0de" stroke="rgb(255,255,255)" stroke-width="2" paint-order="stroke" stroke-miterlimit="2">Show</text>
<text dominant-baseline="central" text-anchor="end" style="font-size:12px;font-family:sans-serif;" x="371" y="123.75" fill="#5470c6" stroke="rgb(255,255,255)" stroke-width="2" paint-order="stroke" stroke-miterlimit="2">Visit</text>
<text dominant-baseline="central" text-anchor="end" style="font-size:12px;font-family:sans-serif;" x="401" y="164.25" fill="#91cc75" stroke="rgb(255,255,255)" stroke-width="2" paint-order="stroke" stroke-miterlimit="2">Inquiry</text>
<text dominant-baseline="central" text-anchor="end" style="font-size:12px;font-family:sans-serif;" x="419" y="204.75" fill="#fac858" stroke="rgb(255,255,255)" stroke-width="2" paint-order="stroke" stroke-miterlimit="2">Order</text>
<text dominant-baseline="central" text-anchor="end" style="font-size:12px;font-family:sans-serif;" x="341" y="83.25" fill="#ee6666" stroke="rgb(255,255,255)" stroke-width="2" paint-order="stroke" stroke-miterlimit="2">Click</text>
<text dominant-baseline="central" text-anchor="end" style="font-size:12px;font-family:sans-serif;" x="317" y="42.75" fill="#73c0de" stroke="rgb(255,255,255)" stroke-width="2" paint-order="stroke" stroke-miterlimit="2">Show</text>
<text dominant-baseline="central" text-anchor="end" style="font-size:12px;font-family:sans-serif;" x="371" y="326.25" fill="#5470c6" stroke="rgb(255,255,255)" stroke-width="2" paint-order="stroke" stroke-miterlimit="2">Visit</text>
<text dominant-baseline="central" text-anchor="end" style="font-size:12px;font-family:sans-serif;" x="401" y="285.75" fill="#91cc75" stroke="rgb(255,255,255)" stroke-width="2" paint-order="stroke" stroke-miterlimit="2">Inquiry</text>
<text dominant-baseline="central" text-anchor="end" style="font-size:12px;font-family:sans-serif;" x="419" y="245.25" fill="#fac858" stroke="rgb(255,255,255)" stroke-width="2" paint-order="stroke" stroke-miterlimit="2">Order</text>
<text dominant-baseline="central" text-anchor="end" style="font-size:12px;font-family:sans-serif;" x="341" y="366.75" fill="#ee6666" stroke="rgb(255,255,255)" stroke-width="2" paint-order="stroke" stroke-miterlimit="2">Click</text>
<text dominant-baseline="central" text-anchor="end" style="font-size:12px;font-family:sans-serif;" x="317" y="407.25" fill="#73c0de" stroke="rgb(255,255,255)" stroke-width="2" paint-order="stroke" stroke-miterlimit="2">Show</text>
<path d="M-5 -5l77.1 0l0 130l-77.1 0Z" transform="translate(5 5)" fill="rgb(0,0,0)" fill-opacity="0" stroke="#ccc" stroke-width="0"></path>
<path d="M3.5 0L21.5 0A3.5 3.5 0 0 1 25 3.5L25 10.5A3.5 3.5 0 0 1 21.5 14L3.5 14A3.5 3.5 0 0 1 0 10.5L0 3.5A3.5 3.5 0 0 1 3.5 0" transform="translate(6 6)" fill="#73c0de" stroke="#fff" stroke-width="2" stroke-linecap="butt" stroke-miterlimit="10"></path>
<text dominant-baseline="central" text-anchor="start" style="font-size:12px;font-family:sans-serif;" x="30" y="7" transform="translate(6 6)" fill="#333">Show</text>
<path d="M3.5 0L21.5 0A3.5 3.5 0 0 1 25 3.5L25 10.5A3.5 3.5 0 0 1 21.5 14L3.5 14A3.5 3.5 0 0 1 0 10.5L0 3.5A3.5 3.5 0 0 1 3.5 0" transform="translate(6 32)" fill="#ee6666" stroke="#fff" stroke-width="2" stroke-linecap="butt" stroke-miterlimit="10"></path>
<text dominant-baseline="central" text-anchor="start" style="font-size:12px;font-family:sans-serif;" x="30" y="7" transform="translate(6 32)" fill="#333">Click</text>
<path d="M3.5 0L21.5 0A3.5 3.5 0 0 1 25 3.5L25 10.5A3.5 3.5 0 0 1 21.5 14L3.5 14A3.5 3.5 0 0 1 0 10.5L0 3.5A3.5 3.5 0 0 1 3.5 0" transform="translate(6 58)" fill="#5470c6" stroke="#fff" stroke-width="2" stroke-linecap="butt" stroke-miterlimit="10"></path>
<text dominant-baseline="central" text-anchor="start" style="font-size:12px;font-family:sans-serif;" x="30" y="7" transform="translate(6 58)" fill="#333">Visit</text>
<path d="M3.5 0L21.5 0A3.5 3.5 0 0 1 25 3.5L25 10.5A3.5 3.5 0 0 1 21.5 14L3.5 14A3.5 3.5 0 0 1 0 10.5L0 3.5A3.5 3.5 0 0 1 3.5 0" transform="translate(6 84)" fill="#91cc75" stroke="#fff" stroke-width="2" stroke-linecap="butt" stroke-miterlimit="10"></path>
<text dominant-baseline="central" text-anchor="start" style="font-size:12px;font-family:sans-serif;" x="30" y="7" transform="translate(6 84)" fill="#333">Inquiry</text>
<path d="M3.5 0L21.5 0A3.5 3.5 0 0 1 25 3.5L25 10.5A3.5 3.5 0 0 1 21.5 14L3.5 14A3.5 3.5 0 0 1 0 10.5L0 3.5A3.5 3.5 0 0 1 3.5 0" transform="translate(6 110)" fill="#fac858" stroke="#fff" stroke-width="2" stroke-linecap="butt" stroke-miterlimit="10"></path>
<text dominant-baseline="central" text-anchor="start" style="font-size:12px;font-family:sans-serif;" x="30" y="7" transform="translate(6 110)" fill="#333">Order</text>
<path d="M-15 -15l29.9 0l0 86l-29.9 0Z" transform="translate(585.042 197)" fill="none" stroke="#ccc" stroke-width="0"></path>
<path d="M-5 -23l65.3 0l0 28l-65.3 0Z" transform="translate(5 445)" fill="rgb(0,0,0)" fill-opacity="0" stroke="#ccc" stroke-width="0"></path>
<path d="M-6.5 -1.6L-0.1 4.3L6.5 -1.4M-6.5 3.8L-6.5 7.5L6.2 7.5L6.2 3.8M-0.1 4.2L-0.1 -7.5" transform="translate(585.042 197)" fill="none" stroke="#666"></path>
<path d="M-7 0.9M4.5 -3L7.2 -3L7.2 -5.7M7 -2.6C5.9 -5.6 2.8 -7.9 -0.9 -7.5C-4.6 -7 -7.6 -3.7 -7.5 0.2M-4.5 3L-7.2 3L-7.2 5.7M-7 2.6C-5.9 5.6 -2.8 7.9 0.9 7.5C4.6 7 7.6 3.7 7.5 -0.2" transform="translate(585.042 225)" fill="none" stroke="#666"></path>
<path d="M-3.7 -3.4L0.5 -3.4M-3.7 -3.4L0.5 -3.4M3.8 -0.1L-3.7 -0.1M-5.3 -7.5L-5.3 7.5L5.3 7.5L5.3 -4.1L1.9 -7.5L-5.3 -7.5ZM1.9 -7.4L1.9 -4L5.3 -4M3.8 3.1L-3.7 3.1" transform="translate(585.042 253)" fill="none" stroke="#666"></path>
<text dominant-baseline="central" text-anchor="start" style="font-size:18px;font-family:sans-serif;font-weight:bold;" y="-9" transform="translate(5 445)" fill="#464646">Funnel</text>
</svg>