<svg width="600" height="450" xmlns="http://www.w3.org/2000/svg" xmlns:xlink="http://www.w3.org/1999/xlink" version="1.1" baseProfile="full" viewBox="0 0 600 450">
<rect width="600" height="450" x="0" y="0" fill="none"></rect>
<path d="M300 101.2A123.8 123.8 0 0 1 407.3 286.7L378 269.8A90 90 0 0 0 300 135Z" fill="#5470c6" ecmeta_series_index="0" ecmeta_data_index="0" ecmeta_ssr_type="chart" class="zr51-cls-269"></path>
<path d="M407.3 286.7A123.8 123.8 0 0 1 249.7 338.1L263.4 307.2A90 90 0 0 0 378 269.8Z" fill="#91cc75" ecmeta_series_index="0" ecmeta_data_index="1" ecmeta_ssr_type="chart" class="zr51-cls-270"></path>
<path d="M249.7 338.1A123.8 123.8 0 0 1 176.3 224.3L210 224.5A90 90 0 0 0 263.4 307.2Z" fill="#fac858" ecmeta_series_index="0" ecmeta_data_index="2" ecmeta_ssr_type="chart" class="zr51-cls-271"></path>
<path d="M176.3 224.3A123.8 123.8 0 0 1 230.2 122.8L249.3 150.7A90 90 0 0 0 210 224.5Z" fill="#ee6666" ecmeta_series_index="0" ecmeta_data_index="3" ecmeta_ssr_type="chart" class="zr51-cls-272"></path>
<path d="M230.2 122.8A123.8 123.8 0 0 1 300 101.2L300 135A90 90 0 0 0 249.3 150.7Z" fill="#73c0de" ecmeta_series_index="0" ecmeta_data_index="4" ecmeta_ssr_type="chart" class="zr51-cls-273"></path>
<path d="M-5 -5l549.2 0l0 24l-549.2 0Z" transform="translate(30.4 27.5)" fill="rgb(0,0,0)" fill-opacity="0" stroke="#ccc" stroke-width="0" class="zr51-cls-274"></path>
<path d="M3.5 0L21.5 0A3.5 3.5 0 0 1 25 3.5L25 10.5A3.5 3.5 0 0 1 21.5 14L3.5 14A3.5 3.5 0 0 1 0 10.5L0 3.5A3.5 3.5 0 0 1 3.5 0" transform="translate(30.4 27.5)" fill="#5470c6" ecmeta_series_index="0" ecmeta_data_index="0" ecmeta_ssr_type="legend" ecmeta_silent="true" class="zr51-cls-274"></path>
<text dominant-baseline="central" text-anchor="start" style="font-size:12px;font-family:sans-serif;" xml:space="preserve" x="30" y="7" transform="translate(30.4 27.5)" fill="#333">Search Engine</text>
<path d="M0 0l109.1 0l0 14l-109.1 0Z" transform="translate(30.4 27.5)" fill="transparent" ecmeta_series_index="0" ecmeta_data_index="0" ecmeta_ssr_type="legend" class="zr51-cls-275"></path>
<path d="M3.5 0L21.5 0A3.5 3.5 0 0 1 25 3.5L25 10.5A3.5 3.5 0 0 1 21.5 14L3.5 14A3.5 3.5 0 0 1 0 10.5L0 3.5A3.5 3.5 0 0 1 3.5 0" transform="translate(149.48 27.5)" fill="#91cc75" ecmeta_series_index="0" ecmeta_data_index="1" ecmeta_ssr_type="legend" ecmeta_silent="true" class="zr51-cls-274"></path>
<text dominant-baseline="central" text-anchor="start" style="font-size:12px;font-family:sans-serif;" xml:space="preserve" x="30" y="7" transform="translate(149.48 27.5)" fill="#333">Direct Access</text>
<path d="M0 0l103.4 0l0 14l-103.4 0Z" transform="translate(149.48 27.5)" fill="transparent" ecmeta_series_index="0" ecmeta_data_index="1" ecmeta_ssr_type="legend" class="zr51-cls-275"></path>
<path d="M3.5 0L21.5 0A3.5 3.5 0 0 1 25 3.5L25 10.5A3.5 3.5 0 0 1 21.5 14L3.5 14A3.5 3.5 0 0 1 0 10.5L0 3.5A3.5 3.5 0 0 1 3.5 0" transform="translate(262.92 27.5)" fill="#fac858" ecmeta_series_index="0" ecmeta_data_index="2" ecmeta_ssr_type="legend" ecmeta_silent="true" class="zr51-cls-274"></path>
<text dominant-baseline="central" text-anchor="start" style="font-size:12px;font-family:sans-serif;" xml:space="preserve" x="30" y="7" transform="translate(262.92 27.5)" fill="#333">Email Marketing</text>
<path d="M0 0l116.2 0l0 14l-116.2 0Z" transform="translate(262.92 27.5)" fill="transparent" ecmeta_series_index="0" ecmeta_data_index="2" ecmeta_ssr_type="legend" class="zr51-cls-275"></path>
<path d="M3.5 0L21.5 0A3.5 3.5 0 0 1 25 3.5L25 10.5A3.5 3.5 0 0 1 21.5 14L3.5 14A3.5 3.5 0 0 1 0 10.5L0 3.5A3.5 3.5 0 0 1 3.5 0" transform="translate(389.08 27.5)" fill="#ee6666" ecmeta_series_index="0" ecmeta_data_index="3" ecmeta_ssr_type="legend" ecmeta_silent="true" class="zr51-cls-274"></path>
<text dominant-baseline="central" text-anchor="start" style="font-size:12px;font-family:sans-serif;" xml:space="preserve" x="30" y="7" transform="translate(389.08 27.5)" fill="#333">Union Ads</text>
<path d="M0 0l85.6 0l0 14l-85.6 0Z" transform="translate(389.08 27.5)" fill="transparent" ecmeta_series_index="0" ecmeta_data_index="3" ecmeta_ssr_type="legend" class="zr51-cls-275"></path>
<path d="M3.5 0L21.5 0A3.5 3.5 0 0 1 25 3.5L25 10.5A3.5 3.5 0 0 1 21.5 14L3.5 14A3.5 3.5 0 0 1 0 10.5L0 3.5A3.5 3.5 0 0 1 3.5 0" transform="translate(484.64 27.5)" fill="#73c0de" ecmeta_series_index="0" ecmeta_data_index="4" ecmeta_ssr_type="legend" ecmeta_silent="true" class="zr51-cls-274"></path>
<text dominant-baseline="central" text-anchor="start" style="font-size:12px;font-family:sans-serif;" xml:space="preserve" x="30" y="7" transform="translate(484.64 27.5)" fill="#333">Video Ads</text>
<path d="M0 0l85 0l0 14l-85 0Z" transform="translate(484.64 27.5)" fill="transparent" ecmeta_series_index="0" ecmeta_data_index="4" ecmeta_ssr_type="legend" class="zr51-cls-275"></path>
<style ><![CDATA[
.zr51-cls-269:hover {
cursor:pointer;
fill:rgba(92,123,217,1);
}
.zr51-cls-270:hover {
cursor:pointer;
fill:rgba(159,224,128,1);
}
.zr51-cls-271:hover {
cursor:pointer;
fill:rgba(255,220,96,1);
}
.zr51-cls-272:hover {
cursor:pointer;
fill:rgba(255,112,112,1);
}
.zr51-cls-273:hover {
cursor:pointer;
fill:rgba(126,211,244,1);
}
.zr51-cls-274:hover {
pointer-events:none;
}
.zr51-cls-275:hover {
cursor:pointer;
fill:rgba(0,0,0,0);
}

]]>

</style>
</svg>