<svg width="600" height="450" xmlns="http://www.w3.org/2000/svg" xmlns:xlink="http://www.w3.org/1999/xlink" version="1.1" baseProfile="full" viewBox="0 0 600 450">
<rect width="600" height="450" x="0" y="0" id="0" fill="none"></rect>
<path d="M300 101.2A123.8 123.8 0 0 1 407.3 286.7L378 269.8A90 90 0 0 0 300 135Z" fill="#5470c6"></path>
<path d="M407.3 286.7A123.8 123.8 0 0 1 249.7 338.1L263.4 307.2A90 90 0 0 0 378 269.8Z" fill="#91cc75"></path>
<path d="M249.7 338.1A123.8 123.8 0 0 1 176.3 224.3L210 224.5A90 90 0 0 0 263.4 307.2Z" fill="#fac858"></path>
<path d="M176.3 224.3A123.8 123.8 0 0 1 230.2 122.8L249.3 150.7A90 90 0 0 0 210 224.5Z" fill="#ee6666"></path>
<path d="M230.2 122.8A123.8 123.8 0 0 1 300 101.2L300 135A90 90 0 0 0 249.3 150.7Z" fill="#73c0de"></path>
<path d="M-5 -5l549.2 0l0 24l-549.2 0Z" transform="translate(30.4 27.5)" fill="rgb(0,0,0)" fill-opacity="0" stroke="#ccc" stroke-width="0"></path>
<path d="M3.5 0L21.5 0A3.5 3.5 0 0 1 25 3.5L25 10.5A3.5 3.5 0 0 1 21.5 14L3.5 14A3.5 3.5 0 0 1 0 10.5L0 3.5A3.5 3.5 0 0 1 3.5 0" transform="translate(30.4 27.5)" fill="#5470c6"></path>
<text dominant-baseline="central" text-anchor="start" style="font-size:12px;font-family:sans-serif;" xml:space="preserve" x="30" y="7" transform="translate(30.4 27.5)" fill="#333">Search Engine</text>
<path d="M3.5 0L21.5 0A3.5 3.5 0 0 1 25 3.5L25 10.5A3.5 3.5 0 0 1 21.5 14L3.5 14A3.5 3.5 0 0 1 0 10.5L0 3.5A3.5 3.5 0 0 1 3.5 0" transform="translate(149.48 27.5)" fill="#91cc75"></path>
<text dominant-baseline="central" text-anchor="start" style="font-size:12px;font-family:sans-serif;" xml:space="preserve" x="30" y="7" transform="translate(149.48 27.5)" fill="#333">Direct Access</text>
<path d="M3.5 0L21.5 0A3.5 3.5 0 0 1 25 3.5L25 10.5A3.5 3.5 0 0 1 21.5 14L3.5 14A3.5 3.5 0 0 1 0 10.5L0 3.5A3.5 3.5 0 0 1 3.5 0" transform="translate(262.92 27.5)" fill="#fac858"></path>
<text dominant-baseline="central" text-anchor="start" style="font-size:12px;font-family:sans-serif;" xml:space="preserve" x="30" y="7" transform="translate(262.92 27.5)" fill="#333">Email Marketing</text>
<path d="M3.5 0L21.5 0A3.5 3.5 0 0 1 25 3.5L25 10.5A3.5 3.5 0 0 1 21.5 14L3.5 14A3.5 3.5 0 0 1 0 10.5L0 3.5A3.5 3.5 0 0 1 3.5 0" transform="translate(389.08 27.5)" fill="#ee6666"></path>
<text dominant-baseline="central" text-anchor="start" style="font-size:12px;font-family:sans-serif;" xml:space="preserve" x="30" y="7" transform="translate(389.08 27.5)" fill="#333">Union Ads</text>
<path d="M3.5 0L21.5 0A3.5 3.5 0 0 1 25 3.5L25 10.5A3.5 3.5 0 0 1 21.5 14L3.5 14A3.5 3.5 0 0 1 0 10.5L0 3.5A3.5 3.5 0 0 1 3.5 0" transform="translate(484.64 27.5)" fill="#73c0de"></path>
<text dominant-baseline="central" text-anchor="start" style="font-size:12px;font-family:sans-serif;" xml:space="preserve" x="30" y="7" transform="translate(484.64 27.5)" fill="#333">Video Ads</text>
</svg>