<svg width="600" height="450" xmlns="http://www.w3.org/2000/svg" xmlns:xlink="http://www.w3.org/1999/xlink" version="1.1" baseProfile="full" viewBox="0 0 600 450">
<rect width="600" height="450" x="0" y="0" fill="none"></rect>
<polyline points="376.7 96.1 384.4 83.2 399.4 83.2" fill="transparent" stroke="#5470c6" class="zr52-cls-276"></polyline>
<polyline points="445 226.9 465 227.2 480 227.2" fill="transparent" stroke="#91cc75" class="zr52-cls-276"></polyline>
<polyline points="375.3 331 395.5 359.5 410.5 359.5" fill="transparent" stroke="#fac858" class="zr52-cls-276"></polyline>
<polyline points="273.4 347.1 264.8 386.2 249.8 386.2" fill="transparent" stroke="#ee6666" class="zr52-cls-276"></polyline>
<polyline points="199.4 290.5 161.7 315.1 146.7 315.1" fill="transparent" stroke="#73c0de" class="zr52-cls-276"></polyline>
<polyline points="186.3 208.1 136.8 200.7 121.8 200.7" fill="transparent" stroke="#3ba272" class="zr52-cls-276"></polyline>
<polyline points="226.3 150.3 184.1 107.5 169.1 107.5" fill="transparent" stroke="#fc8452" class="zr52-cls-276"></polyline>
<polyline points="277.3 132.8 260.5 64.8 245.5 64.8" fill="transparent" stroke="#9a60b4" class="zr52-cls-276"></polyline>
<path d="M300 83.2A8 8 0 0 1 308.5 75.2A150 150 0 0 1 427.6 146.2A8 8 0 0 1 424.6 157.4L350.5 197.6A8 8 0 0 1 340.3 195.3A50 50 0 0 0 306.9 175.5A8 8 0 0 1 300 167.6Z" fill="#5470c6" ecmeta_series_index="0" ecmeta_data_index="0" ecmeta_ssr_type="chart" class="zr52-cls-277"></path>
<path d="M420.2 159.8A8 8 0 0 1 431.3 163.5A145 145 0 0 1 429.6 290A8 8 0 0 1 418.4 293.4L349.7 253.7A8 8 0 0 1 346.3 243.8A50 50 0 0 0 346.8 207.5A8 8 0 0 1 350.5 197.6Z" fill="#91cc75" ecmeta_series_index="0" ecmeta_data_index="1" ecmeta_ssr_type="chart" class="zr52-cls-278"></path>
<path d="M405.4 285.9A8 8 0 0 1 408.1 297.2A130 130 0 0 1 332.6 350.8A8 8 0 0 1 322.7 344.6L310.7 281.4A8 8 0 0 1 316 272.4A50 50 0 0 0 339.4 255.7A8 8 0 0 1 349.7 253.7Z" fill="#fac858" ecmeta_series_index="0" ecmeta_data_index="2" ecmeta_ssr_type="chart" class="zr52-cls-279"></path>
<path d="M321.8 339.7A8 8 0 0 1 314.9 349.1A125 125 0 0 1 234.8 331.6A8 8 0 0 1 232.4 320.2L266.7 271.8A8 8 0 0 1 276.9 269.4A50 50 0 0 0 302.5 274.9A8 8 0 0 1 310.7 281.4Z" fill="#ee6666" ecmeta_series_index="0" ecmeta_data_index="3" ecmeta_ssr_type="chart" class="zr52-cls-280"></path>
<path d="M235.3 316.1A8 8 0 0 1 223.7 317.6A120 120 0 0 1 184.4 257.3A8 8 0 0 1 190.5 247.3L243.7 236.5A8 8 0 0 1 252.9 241.7A50 50 0 0 0 265.7 261.4A8 8 0 0 1 266.7 271.8Z" fill="#73c0de" ecmeta_series_index="0" ecmeta_data_index="4" ecmeta_ssr_type="chart" class="zr52-cls-281"></path>
<path d="M195.5 246.3A8 8 0 0 1 185.9 239.5A115 115 0 0 1 195.1 177.9A8 8 0 0 1 206.2 174.1L249.5 197.6A8 8 0 0 1 253.2 207.5A50 50 0 0 0 250.1 228.1A8 8 0 0 1 243.7 236.5Z" fill="#3ba272" ecmeta_series_index="0" ecmeta_data_index="5" ecmeta_ssr_type="chart" class="zr52-cls-282"></path>
<path d="M215 178.9A8 8 0 0 1 212.1 167.5A105 105 0 0 1 243.7 136.4A8 8 0 0 1 255.1 139.4L273.3 174.1A8 8 0 0 1 270.9 184.4A50 50 0 0 0 259.7 195.3A8 8 0 0 1 249.5 197.6Z" fill="#fc8452" ecmeta_series_index="0" ecmeta_data_index="6" ecmeta_ssr_type="chart" class="zr52-cls-283"></path>
<path d="M259.7 148.3A8 8 0 0 1 263.8 137.2A95 95 0 0 1 291.3 130.4A8 8 0 0 1 300 138.4L300 167.6A8 8 0 0 1 293.1 175.5A50 50 0 0 0 283.1 177.9A8 8 0 0 1 273.3 174.1Z" fill="#9a60b4" ecmeta_series_index="0" ecmeta_data_index="7" ecmeta_ssr_type="chart" class="zr52-cls-284"></path>
<text dominant-baseline="central" text-anchor="start" style="font-size:12px;font-family:sans-serif;" xml:space="preserve" transform="translate(404.4109 83.2263)" fill="#333" stroke="rgb(255,255,255)" stroke-width="2" paint-order="stroke" stroke-miterlimit="2">rose 1</text>
<text dominant-baseline="central" text-anchor="start" style="font-size:12px;font-family:sans-serif;" xml:space="preserve" transform="translate(484.9851 227.2152)" fill="#333" stroke="rgb(255,255,255)" stroke-width="2" paint-order="stroke" stroke-miterlimit="2">rose 2</text>
<text dominant-baseline="central" text-anchor="start" style="font-size:12px;font-family:sans-serif;" xml:space="preserve" transform="translate(415.5453 359.5217)" fill="#333" stroke="rgb(255,255,255)" stroke-width="2" paint-order="stroke" stroke-miterlimit="2">rose 3</text>
<text dominant-baseline="central" text-anchor="end" style="font-size:12px;font-family:sans-serif;" xml:space="preserve" transform="translate(244.8283 386.2078)" fill="#333" stroke="rgb(255,255,255)" stroke-width="2" paint-order="stroke" stroke-miterlimit="2">rose 4</text>
<text dominant-baseline="central" text-anchor="end" style="font-size:12px;font-family:sans-serif;" xml:space="preserve" transform="translate(141.7401 315.0511)" fill="#333" stroke="rgb(255,255,255)" stroke-width="2" paint-order="stroke" stroke-miterlimit="2">rose 5</text>
<text dominant-baseline="central" text-anchor="end" style="font-size:12px;font-family:sans-serif;" xml:space="preserve" transform="translate(116.796 200.721)" fill="#333" stroke="rgb(255,255,255)" stroke-width="2" paint-order="stroke" stroke-miterlimit="2">rose 6</text>
<text dominant-baseline="central" text-anchor="end" style="font-size:12px;font-family:sans-serif;" xml:space="preserve" transform="translate(164.1132 107.5468)" fill="#333" stroke="rgb(255,255,255)" stroke-width="2" paint-order="stroke" stroke-miterlimit="2">rose 7</text>
<text dominant-baseline="central" text-anchor="end" style="font-size:12px;font-family:sans-serif;" xml:space="preserve" transform="translate(240.5129 64.7946)" fill="#333" stroke="rgb(255,255,255)" stroke-width="2" paint-order="stroke" stroke-miterlimit="2">rose 8</text>
<path d="M-5 -5l587.8 0l0 24l-587.8 0Z" transform="translate(11.08 431)" fill="rgb(0,0,0)" fill-opacity="0" stroke="#ccc" stroke-width="0" class="zr52-cls-285"></path>
<path d="M3.5 0L21.5 0A3.5 3.5 0 0 1 25 3.5L25 10.5A3.5 3.5 0 0 1 21.5 14L3.5 14A3.5 3.5 0 0 1 0 10.5L0 3.5A3.5 3.5 0 0 1 3.5 0" transform="translate(11.08 431)" fill="#5470c6" ecmeta_series_index="0" ecmeta_data_index="0" ecmeta_ssr_type="legend" ecmeta_silent="true" class="zr52-cls-285"></path>
<text dominant-baseline="central" text-anchor="start" style="font-size:12px;font-family:sans-serif;" xml:space="preserve" x="30" y="7" transform="translate(11.08 431)" fill="#333">rose 1</text>
<path d="M0 0l63.5 0l0 14l-63.5 0Z" transform="translate(11.08 431)" fill="transparent" ecmeta_series_index="0" ecmeta_data_index="0" ecmeta_ssr_type="legend" class="zr52-cls-286"></path>
<path d="M3.5 0L21.5 0A3.5 3.5 0 0 1 25 3.5L25 10.5A3.5 3.5 0 0 1 21.5 14L3.5 14A3.5 3.5 0 0 1 0 10.5L0 3.5A3.5 3.5 0 0 1 3.5 0" transform="translate(84.56 431)" fill="#91cc75" ecmeta_series_index="0" ecmeta_data_index="1" ecmeta_ssr_type="legend" ecmeta_silent="true" class="zr52-cls-285"></path>
<text dominant-baseline="central" text-anchor="start" style="font-size:12px;font-family:sans-serif;" xml:space="preserve" x="30" y="7" transform="translate(84.56 431)" fill="#333">rose 2</text>
<path d="M0 0l63.5 0l0 14l-63.5 0Z" transform="translate(84.56 431)" fill="transparent" ecmeta_series_index="0" ecmeta_data_index="1" ecmeta_ssr_type="legend" class="zr52-cls-286"></path>
<path d="M3.5 0L21.5 0A3.5 3.5 0 0 1 25 3.5L25 10.5A3.5 3.5 0 0 1 21.5 14L3.5 14A3.5 3.5 0 0 1 0 10.5L0 3.5A3.5 3.5 0 0 1 3.5 0" transform="translate(158.04 431)" fill="#fac858" ecmeta_series_index="0" ecmeta_data_index="2" ecmeta_ssr_type="legend" ecmeta_silent="true" class="zr52-cls-285"></path>
<text dominant-baseline="central" text-anchor="start" style="font-size:12px;font-family:sans-serif;" xml:space="preserve" x="30" y="7" transform="translate(158.04 431)" fill="#333">rose 3</text>
<path d="M0 0l63.5 0l0 14l-63.5 0Z" transform="translate(158.04 431)" fill="transparent" ecmeta_series_index="0" ecmeta_data_index="2" ecmeta_ssr_type="legend" class="zr52-cls-286"></path>
<path d="M3.5 0L21.5 0A3.5 3.5 0 0 1 25 3.5L25 10.5A3.5 3.5 0 0 1 21.5 14L3.5 14A3.5 3.5 0 0 1 0 10.5L0 3.5A3.5 3.5 0 0 1 3.5 0" transform="translate(231.52 431)" fill="#ee6666" ecmeta_series_index="0" ecmeta_data_index="3" ecmeta_ssr_type="legend" ecmeta_silent="true" class="zr52-cls-285"></path>
<text dominant-baseline="central" text-anchor="start" style="font-size:12px;font-family:sans-serif;" xml:space="preserve" x="30" y="7" transform="translate(231.52 431)" fill="#333">rose 4</text>
<path d="M0 0l63.5 0l0 14l-63.5 0Z" transform="translate(231.52 431)" fill="transparent" ecmeta_series_index="0" ecmeta_data_index="3" ecmeta_ssr_type="legend" class="zr52-cls-286"></path>
<path d="M3.5 0L21.5 0A3.5 3.5 0 0 1 25 3.5L25 10.5A3.5 3.5 0 0 1 21.5 14L3.5 14A3.5 3.5 0 0 1 0 10.5L0 3.5A3.5 3.5 0 0 1 3.5 0" transform="translate(305 431)" fill="#73c0de" ecmeta_series_index="0" ecmeta_data_index="4" ecmeta_ssr_type="legend" ecmeta_silent="true" class="zr52-cls-285"></path>
<text dominant-baseline="central" text-anchor="start" style="font-size:12px;font-family:sans-serif;" xml:space="preserve" x="30" y="7" transform="translate(305 431)" fill="#333">rose 5</text>
<path d="M0 0l63.5 0l0 14l-63.5 0Z" transform="translate(305 431)" fill="transparent" ecmeta_series_index="0" ecmeta_data_index="4" ecmeta_ssr_type="legend" class="zr52-cls-286"></path>
<path d="M3.5 0L21.5 0A3.5 3.5 0 0 1 25 3.5L25 10.5A3.5 3.5 0 0 1 21.5 14L3.5 14A3.5 3.5 0 0 1 0 10.5L0 3.5A3.5 3.5 0 0 1 3.5 0" transform="translate(378.48 431)" fill="#3ba272" ecmeta_series_index="0" ecmeta_data_index="5" ecmeta_ssr_type="legend" ecmeta_silent="true" class="zr52-cls-285"></path>
<text dominant-baseline="central" text-anchor="start" style="font-size:12px;font-family:sans-serif;" xml:space="preserve" x="30" y="7" transform="translate(378.48 431)" fill="#333">rose 6</text>
<path d="M0 0l63.5 0l0 14l-63.5 0Z" transform="translate(378.48 431)" fill="transparent" ecmeta_series_index="0" ecmeta_data_index="5" ecmeta_ssr_type="legend" class="zr52-cls-286"></path>
<path d="M3.5 0L21.5 0A3.5 3.5 0 0 1 25 3.5L25 10.5A3.5 3.5 0 0 1 21.5 14L3.5 14A3.5 3.5 0 0 1 0 10.5L0 3.5A3.5 3.5 0 0 1 3.5 0" transform="translate(451.96 431)" fill="#fc8452" ecmeta_series_index="0" ecmeta_data_index="6" ecmeta_ssr_type="legend" ecmeta_silent="true" class="zr52-cls-285"></path>
<text dominant-baseline="central" text-anchor="start" style="font-size:12px;font-family:sans-serif;" xml:space="preserve" x="30" y="7" transform="translate(451.96 431)" fill="#333">rose 7</text>
<path d="M0 0l63.5 0l0 14l-63.5 0Z" transform="translate(451.96 431)" fill="transparent" ecmeta_series_index="0" ecmeta_data_index="6" ecmeta_ssr_type="legend" class="zr52-cls-286"></path>
<path d="M3.5 0L21.5 0A3.5 3.5 0 0 1 25 3.5L25 10.5A3.5 3.5 0 0 1 21.5 14L3.5 14A3.5 3.5 0 0 1 0 10.5L0 3.5A3.5 3.5 0 0 1 3.5 0" transform="translate(525.44 431)" fill="#9a60b4" ecmeta_series_index="0" ecmeta_data_index="7" ecmeta_ssr_type="legend" ecmeta_silent="true" class="zr52-cls-285"></path>
<text dominant-baseline="central" text-anchor="start" style="font-size:12px;font-family:sans-serif;" xml:space="preserve" x="30" y="7" transform="translate(525.44 431)" fill="#333">rose 8</text>
<path d="M0 0l63.5 0l0 14l-63.5 0Z" transform="translate(525.44 431)" fill="transparent" ecmeta_series_index="0" ecmeta_data_index="7" ecmeta_ssr_type="legend" class="zr52-cls-286"></path>
<path d="M-14 -15l79.5 0l0 30l-79.5 0Z" transform="translate(534.5253 15)" fill="transparent" stroke="#ccc" stroke-width="0" class="zr52-cls-285"></path>
<path d="M-6.5 -1.6L-0.1 4.3L6.5 -1.4M-6.5 3.8L-6.5 7.5L6.2 7.5L6.2 3.8M-0.1 4.2L-0.1 -7.5" transform="translate(534.5253 15)" fill="transparent" stroke="#666" class="zr52-cls-287"></path>
<path d="M-7 0.9M4.5 -3L7.2 -3L7.2 -5.7M7 -2.6C5.9 -5.6 2.8 -7.9 -0.9 -7.5C-4.6 -7 -7.6 -3.7 -7.5 0.2M-4.5 3L-7.2 3L-7.2 5.7M-7 2.6C-5.9 5.6 -2.8 7.9 0.9 7.5C4.6 7 7.6 3.7 7.5 -0.2" transform="translate(561.4617 15)" fill="transparent" stroke="#666" class="zr52-cls-287"></path>
<path d="M-3.7 -3.4L0.5 -3.4M-3.7 -3.4L0.5 -3.4M3.8 -0.1L-3.7 -0.1M-5.3 -7.5L-5.3 7.5L5.3 7.5L5.3 -4.1L1.9 -7.5L-5.3 -7.5ZM1.9 -7.4L1.9 -4L5.3 -4M3.8 3.1L-3.7 3.1" transform="translate(587.2098 15)" fill="transparent" stroke="#666" class="zr52-cls-287"></path>
<style ><![CDATA[
.zr52-cls-276:hover {
cursor:pointer;
}
.zr52-cls-277:hover {
cursor:pointer;
fill:rgba(92,123,217,1);
}
.zr52-cls-278:hover {
cursor:pointer;
fill:rgba(159,224,128,1);
}
.zr52-cls-279:hover {
cursor:pointer;
fill:rgba(255,220,96,1);
}
.zr52-cls-280:hover {
cursor:pointer;
fill:rgba(255,112,112,1);
}
.zr52-cls-281:hover {
cursor:pointer;
fill:rgba(126,211,244,1);
}
.zr52-cls-282:hover {
cursor:pointer;
fill:rgba(64,178,125,1);
}
.zr52-cls-283:hover {
cursor:pointer;
fill:rgba(255,145,90,1);
}
.zr52-cls-284:hover {
cursor:pointer;
fill:rgba(169,105,198,1);
}
.zr52-cls-285:hover {
pointer-events:none;
}
.zr52-cls-286:hover {
cursor:pointer;
fill:rgba(0,0,0,0);
}
.zr52-cls-287:hover {
cursor:pointer;
stroke:#3E98C5;
}

]]>

</style>
</svg>