<svg width="600" height="450" xmlns="http://www.w3.org/2000/svg" xmlns:xlink="http://www.w3.org/1999/xlink" version="1.1" baseProfile="full" viewBox="0 0 600 450">
<rect width="600" height="450" x="0" y="0" fill="none"></rect>
<polyline points="397.4 168.7 410.4 161.1 425.4 161.1" fill="transparent" stroke="#5470c6" class="zr53-cls-288"></polyline>
<polyline points="334.9 331.9 339.6 346.2 354.6 346.2" fill="transparent" stroke="#91cc75" class="zr53-cls-288"></polyline>
<polyline points="205.5 286 192.9 294.2 177.9 294.2" fill="transparent" stroke="#fac858" class="zr53-cls-288"></polyline>
<polyline points="200.7 172.2 187.4 165.1 172.4 165.1" fill="transparent" stroke="#ee6666" class="zr53-cls-288"></polyline>
<polyline points="266.8 117.5 262.4 103.2 247.4 103.2" fill="transparent" stroke="#73c0de" class="zr53-cls-288"></polyline>
<path d="M300 112.5A112.5 112.5 0 0 1 397.5 281.1L300 225Z" fill="#5470c6" ecmeta_series_index="0" ecmeta_data_index="0" ecmeta_ssr_type="chart" class="zr53-cls-289"></path>
<path d="M397.5 281.1A112.5 112.5 0 0 1 254.3 327.8L300 225Z" fill="#91cc75" ecmeta_series_index="0" ecmeta_data_index="1" ecmeta_ssr_type="chart" class="zr53-cls-290"></path>
<path d="M254.3 327.8A112.5 112.5 0 0 1 187.5 224.4L300 225Z" fill="#fac858" ecmeta_series_index="0" ecmeta_data_index="2" ecmeta_ssr_type="chart" class="zr53-cls-291"></path>
<path d="M187.5 224.4A112.5 112.5 0 0 1 236.6 132.1L300 225Z" fill="#ee6666" ecmeta_series_index="0" ecmeta_data_index="3" ecmeta_ssr_type="chart" class="zr53-cls-292"></path>
<path d="M236.6 132.1A112.5 112.5 0 0 1 300 112.5L300 225Z" fill="#73c0de" ecmeta_series_index="0" ecmeta_data_index="4" ecmeta_ssr_type="chart" class="zr53-cls-293"></path>
<text dominant-baseline="central" text-anchor="start" style="font-size:12px;font-family:sans-serif;" xml:space="preserve" transform="translate(430.3545 161.1398)" fill="#333" stroke="rgb(255,255,255)" stroke-width="2" paint-order="stroke" stroke-miterlimit="2">Search Engine</text>
<text dominant-baseline="central" text-anchor="start" style="font-size:12px;font-family:sans-serif;" transform="translate(359.557 346.2085)" fill="#333" stroke="rgb(255,255,255)" stroke-width="2" paint-order="stroke" stroke-miterlimit="2">Direct</text>
<text dominant-baseline="central" text-anchor="end" style="font-size:12px;font-family:sans-serif;" transform="translate(172.9 294.1797)" fill="#333" stroke="rgb(255,255,255)" stroke-width="2" paint-order="stroke" stroke-miterlimit="2">Email</text>
<text dominant-baseline="central" text-anchor="end" style="font-size:12px;font-family:sans-serif;" xml:space="preserve" transform="translate(167.4222 165.1461)" fill="#333" stroke="rgb(255,255,255)" stroke-width="2" paint-order="stroke" stroke-miterlimit="2">Union Ads</text>
<text dominant-baseline="central" text-anchor="end" style="font-size:12px;font-family:sans-serif;" xml:space="preserve" transform="translate(242.384 103.1752)" fill="#333" stroke="rgb(255,255,255)" stroke-width="2" paint-order="stroke" stroke-miterlimit="2">Video Ads</text>
<path d="M-5 -5l119.1 0l0 120l-119.1 0Z" transform="translate(5 5)" fill="rgb(0,0,0)" fill-opacity="0" stroke="#ccc" stroke-width="0" class="zr53-cls-294"></path>
<path d="M3.5 0L21.5 0A3.5 3.5 0 0 1 25 3.5L25 10.5A3.5 3.5 0 0 1 21.5 14L3.5 14A3.5 3.5 0 0 1 0 10.5L0 3.5A3.5 3.5 0 0 1 3.5 0" transform="translate(5 5)" fill="#5470c6" ecmeta_series_index="0" ecmeta_data_index="0" ecmeta_ssr_type="legend" ecmeta_silent="true" class="zr53-cls-294"></path>
<text dominant-baseline="central" text-anchor="start" style="font-size:12px;font-family:sans-serif;" xml:space="preserve" x="30" y="7" transform="translate(5 5)" fill="#333">Search Engine</text>
<path d="M0 0l109.1 0l0 14l-109.1 0Z" transform="translate(5 5)" fill="transparent" ecmeta_series_index="0" ecmeta_data_index="0" ecmeta_ssr_type="legend" class="zr53-cls-295"></path>
<path d="M3.5 0L21.5 0A3.5 3.5 0 0 1 25 3.5L25 10.5A3.5 3.5 0 0 1 21.5 14L3.5 14A3.5 3.5 0 0 1 0 10.5L0 3.5A3.5 3.5 0 0 1 3.5 0" transform="translate(5 29)" fill="#91cc75" ecmeta_series_index="0" ecmeta_data_index="1" ecmeta_ssr_type="legend" ecmeta_silent="true" class="zr53-cls-294"></path>
<text dominant-baseline="central" text-anchor="start" style="font-size:12px;font-family:sans-serif;" x="30" y="7" transform="translate(5 29)" fill="#333">Direct</text>
<path d="M0 0l61.3 0l0 14l-61.3 0Z" transform="translate(5 29)" fill="transparent" ecmeta_series_index="0" ecmeta_data_index="1" ecmeta_ssr_type="legend" class="zr53-cls-295"></path>
<path d="M3.5 0L21.5 0A3.5 3.5 0 0 1 25 3.5L25 10.5A3.5 3.5 0 0 1 21.5 14L3.5 14A3.5 3.5 0 0 1 0 10.5L0 3.5A3.5 3.5 0 0 1 3.5 0" transform="translate(5 53)" fill="#fac858" ecmeta_series_index="0" ecmeta_data_index="2" ecmeta_ssr_type="legend" ecmeta_silent="true" class="zr53-cls-294"></path>
<text dominant-baseline="central" text-anchor="start" style="font-size:12px;font-family:sans-serif;" x="30" y="7" transform="translate(5 53)" fill="#333">Email</text>
<path d="M0 0l60 0l0 14l-60 0Z" transform="translate(5 53)" fill="transparent" ecmeta_series_index="0" ecmeta_data_index="2" ecmeta_ssr_type="legend" class="zr53-cls-295"></path>
<path d="M3.5 0L21.5 0A3.5 3.5 0 0 1 25 3.5L25 10.5A3.5 3.5 0 0 1 21.5 14L3.5 14A3.5 3.5 0 0 1 0 10.5L0 3.5A3.5 3.5 0 0 1 3.5 0" transform="translate(5 77)" fill="#ee6666" ecmeta_series_index="0" ecmeta_data_index="3" ecmeta_ssr_type="legend" ecmeta_silent="true" class="zr53-cls-294"></path>
<text dominant-baseline="central" text-anchor="start" style="font-size:12px;font-family:sans-serif;" xml:space="preserve" x="30" y="7" transform="translate(5 77)" fill="#333">Union Ads</text>
<path d="M0 0l85.6 0l0 14l-85.6 0Z" transform="translate(5 77)" fill="transparent" ecmeta_series_index="0" ecmeta_data_index="3" ecmeta_ssr_type="legend" class="zr53-cls-295"></path>
<path d="M3.5 0L21.5 0A3.5 3.5 0 0 1 25 3.5L25 10.5A3.5 3.5 0 0 1 21.5 14L3.5 14A3.5 3.5 0 0 1 0 10.5L0 3.5A3.5 3.5 0 0 1 3.5 0" transform="translate(5 101)" fill="#73c0de" ecmeta_series_index="0" ecmeta_data_index="4" ecmeta_ssr_type="legend" ecmeta_silent="true" class="zr53-cls-294"></path>
<text dominant-baseline="central" text-anchor="start" style="font-size:12px;font-family:sans-serif;" xml:space="preserve" x="30" y="7" transform="translate(5 101)" fill="#333">Video Ads</text>
<path d="M0 0l85 0l0 14l-85 0Z" transform="translate(5 101)" fill="transparent" ecmeta_series_index="0" ecmeta_data_index="4" ecmeta_ssr_type="legend" class="zr53-cls-295"></path>
<path d="M-87.8 -5l175.6 0l0 50l-175.6 0Z" transform="translate(300 5)" fill="rgb(0,0,0)" fill-opacity="0" stroke="#ccc" stroke-width="0" class="zr53-cls-294"></path>
<text dominant-baseline="central" text-anchor="middle" style="font-size:18px;font-family:sans-serif;font-weight:bold;" xml:space="preserve" y="9" transform="translate(300 5)" fill="#464646">Referer of a Website</text>
<text dominant-baseline="central" text-anchor="middle" style="font-size:12px;font-family:sans-serif;" xml:space="preserve" y="34" transform="translate(300 5)" fill="#6E7079">Fake Data</text>
<style ><![CDATA[
.zr53-cls-288:hover {
cursor:pointer;
}
.zr53-cls-289:hover {
cursor:pointer;
fill:rgba(92,123,217,1);
}
.zr53-cls-290:hover {
cursor:pointer;
fill:rgba(159,224,128,1);
}
.zr53-cls-291:hover {
cursor:pointer;
fill:rgba(255,220,96,1);
}
.zr53-cls-292:hover {
cursor:pointer;
fill:rgba(255,112,112,1);
}
.zr53-cls-293:hover {
cursor:pointer;
fill:rgba(126,211,244,1);
}
.zr53-cls-294:hover {
pointer-events:none;
}
.zr53-cls-295:hover {
cursor:pointer;
fill:rgba(0,0,0,0);
}

]]>

</style>
</svg>