<svg width="600" height="450" xmlns="http://www.w3.org/2000/svg" xmlns:xlink="http://www.w3.org/1999/xlink" version="1.1" baseProfile="full" viewBox="0 0 600 450">
<rect width="600" height="450" x="0" y="0" id="0" fill="none"></rect>
<path d="M60 270l480 0l0 -32.1l-480 0Z" fill="rgb(250,250,250)" fill-opacity="0.2"></path>
<path d="M60 237.9l480 0l0 -32.1l-480 0Z" fill="rgb(210,219,238)" fill-opacity="0.2"></path>
<path d="M60 205.7l480 0l0 -32.1l-480 0Z" fill="rgb(250,250,250)" fill-opacity="0.2"></path>
<path d="M60 173.6l480 0l0 -32.1l-480 0Z" fill="rgb(210,219,238)" fill-opacity="0.2"></path>
<path d="M60 141.4l480 0l0 -32.1l-480 0Z" fill="rgb(250,250,250)" fill-opacity="0.2"></path>
<path d="M60 109.3l480 0l0 -32.1l-480 0Z" fill="rgb(210,219,238)" fill-opacity="0.2"></path>
<path d="M60 77.1l480 0l0 -32.1l-480 0Z" fill="rgb(250,250,250)" fill-opacity="0.2"></path>
<path d="M60 45l40 0l0 225l-40 0Z" fill="rgb(250,250,250)" fill-opacity="0.2"></path>
<path d="M100 45l40 0l0 225l-40 0Z" fill="rgb(210,219,238)" fill-opacity="0.2"></path>
<path d="M140 45l40 0l0 225l-40 0Z" fill="rgb(250,250,250)" fill-opacity="0.2"></path>
<path d="M180 45l40 0l0 225l-40 0Z" fill="rgb(210,219,238)" fill-opacity="0.2"></path>
<path d="M220 45l40 0l0 225l-40 0Z" fill="rgb(250,250,250)" fill-opacity="0.2"></path>
<path d="M260 45l40 0l0 225l-40 0Z" fill="rgb(210,219,238)" fill-opacity="0.2"></path>
<path d="M300 45l40 0l0 225l-40 0Z" fill="rgb(250,250,250)" fill-opacity="0.2"></path>
<path d="M340 45l40 0l0 225l-40 0Z" fill="rgb(210,219,238)" fill-opacity="0.2"></path>
<path d="M380 45l40 0l0 225l-40 0Z" fill="rgb(250,250,250)" fill-opacity="0.2"></path>
<path d="M420 45l40 0l0 225l-40 0Z" fill="rgb(210,219,238)" fill-opacity="0.2"></path>
<path d="M460 45l40 0l0 225l-40 0Z" fill="rgb(250,250,250)" fill-opacity="0.2"></path>
<path d="M500 45l40 0l0 225l-40 0Z" fill="rgb(210,219,238)" fill-opacity="0.2"></path>
<path d="M60.5 270L60.5 45" fill="none" stroke="#6E7079" stroke-linecap="round"></path>
<path d="M60 270.5L540 270.5" fill="none" stroke="#6E7079" stroke-linecap="round"></path>
<path d="M60 270.5L55 270.5" fill="none" stroke="#6E7079"></path>
<path d="M60 238.5L55 238.5" fill="none" stroke="#6E7079"></path>
<path d="M60 205.5L55 205.5" fill="none" stroke="#6E7079"></path>
<path d="M60 173.5L55 173.5" fill="none" stroke="#6E7079"></path>
<path d="M60 141.5L55 141.5" fill="none" stroke="#6E7079"></path>
<path d="M60 109.5L55 109.5" fill="none" stroke="#6E7079"></path>
<path d="M60 77.5L55 77.5" fill="none" stroke="#6E7079"></path>
<path d="M60 45.5L55 45.5" fill="none" stroke="#6E7079"></path>
<path d="M60.5 270L60.5 275" fill="none" stroke="#6E7079"></path>
<path d="M100.5 270L100.5 275" fill="none" stroke="#6E7079"></path>
<path d="M140.5 270L140.5 275" fill="none" stroke="#6E7079"></path>
<path d="M180.5 270L180.5 275" fill="none" stroke="#6E7079"></path>
<path d="M220.5 270L220.5 275" fill="none" stroke="#6E7079"></path>
<path d="M260.5 270L260.5 275" fill="none" stroke="#6E7079"></path>
<path d="M300.5 270L300.5 275" fill="none" stroke="#6E7079"></path>
<path d="M340.5 270L340.5 275" fill="none" stroke="#6E7079"></path>
<path d="M380.5 270L380.5 275" fill="none" stroke="#6E7079"></path>
<path d="M420.5 270L420.5 275" fill="none" stroke="#6E7079"></path>
<path d="M460.5 270L460.5 275" fill="none" stroke="#6E7079"></path>
<path d="M500.5 270L500.5 275" fill="none" stroke="#6E7079"></path>
<path d="M540.5 270L540.5 275" fill="none" stroke="#6E7079"></path>
<text dominant-baseline="central" text-anchor="end" style="font-size:12px;font-family:sans-serif;" transform="translate(52 253.9286)" fill="#6E7079">Saturday</text>
<text dominant-baseline="central" text-anchor="end" style="font-size:12px;font-family:sans-serif;" transform="translate(52 221.7857)" fill="#6E7079">Friday</text>
<text dominant-baseline="central" text-anchor="end" style="font-size:12px;font-family:sans-serif;" transform="translate(52 189.6429)" fill="#6E7079">Thursday</text>
<text dominant-baseline="central" text-anchor="end" style="font-size:12px;font-family:sans-serif;" transform="translate(52 157.5)" fill="#6E7079">Wednesday</text>
<text dominant-baseline="central" text-anchor="end" style="font-size:12px;font-family:sans-serif;" transform="translate(52 125.3571)" fill="#6E7079">Tuesday</text>
<text dominant-baseline="central" text-anchor="end" style="font-size:12px;font-family:sans-serif;" transform="translate(52 93.2143)" fill="#6E7079">Monday</text>
<text dominant-baseline="central" text-anchor="end" style="font-size:12px;font-family:sans-serif;" transform="translate(52 61.0714)" fill="#6E7079">Sunday</text>
<text dominant-baseline="central" text-anchor="middle" style="font-size:12px;font-family:sans-serif;" y="6" transform="translate(70 278)" fill="#6E7079">12a</text>
<text dominant-baseline="central" text-anchor="middle" style="font-size:12px;font-family:sans-serif;" y="6" transform="translate(110 278)" fill="#6E7079">2a</text>
<text dominant-baseline="central" text-anchor="middle" style="font-size:12px;font-family:sans-serif;" y="6" transform="translate(150 278)" fill="#6E7079">4a</text>
<text dominant-baseline="central" text-anchor="middle" style="font-size:12px;font-family:sans-serif;" y="6" transform="translate(190 278)" fill="#6E7079">6a</text>
<text dominant-baseline="central" text-anchor="middle" style="font-size:12px;font-family:sans-serif;" y="6" transform="translate(230 278)" fill="#6E7079">8a</text>
<text dominant-baseline="central" text-anchor="middle" style="font-size:12px;font-family:sans-serif;" y="6" transform="translate(270 278)" fill="#6E7079">10a</text>
<text dominant-baseline="central" text-anchor="middle" style="font-size:12px;font-family:sans-serif;" y="6" transform="translate(310 278)" fill="#6E7079">12p</text>
<text dominant-baseline="central" text-anchor="middle" style="font-size:12px;font-family:sans-serif;" y="6" transform="translate(350 278)" fill="#6E7079">2p</text>
<text dominant-baseline="central" text-anchor="middle" style="font-size:12px;font-family:sans-serif;" y="6" transform="translate(390 278)" fill="#6E7079">4p</text>
<text dominant-baseline="central" text-anchor="middle" style="font-size:12px;font-family:sans-serif;" y="6" transform="translate(430 278)" fill="#6E7079">6p</text>
<text dominant-baseline="central" text-anchor="middle" style="font-size:12px;font-family:sans-serif;" y="6" transform="translate(470 278)" fill="#6E7079">8p</text>
<text dominant-baseline="central" text-anchor="middle" style="font-size:12px;font-family:sans-serif;" y="6" transform="translate(510 278)" fill="#6E7079">10p</text>
<path d="M59.8 237.6l20.5 0l0 32.6l-20.5 0Z" fill="rgb(216,130,115)"></path>
<path d="M79.8 237.6l20.5 0l0 32.6l-20.5 0Z" fill="rgb(240,217,156)"></path>
<path d="M279.8 237.6l20.5 0l0 32.6l-20.5 0Z" fill="rgb(234,195,146)"></path>
<path d="M299.8 237.6l20.5 0l0 32.6l-20.5 0Z" fill="rgb(222,152,125)"></path>
<path d="M319.8 237.6l20.5 0l0 32.6l-20.5 0Z" fill="rgb(240,217,156)"></path>
<path d="M339.8 237.6l20.5 0l0 32.6l-20.5 0Z" fill="rgb(240,217,156)"></path>
<path d="M359.8 237.6l20.5 0l0 32.6l-20.5 0Z" fill="rgb(228,174,135)"></path>
<path d="M379.8 237.6l20.5 0l0 32.6l-20.5 0Z" fill="rgb(222,152,125)"></path>
<path d="M399.8 237.6l20.5 0l0 32.6l-20.5 0Z" fill="rgb(211,118,107)"></path>
<path d="M419.8 237.6l20.5 0l0 32.6l-20.5 0Z" fill="rgb(222,152,125)"></path>
<path d="M439.8 237.6l20.5 0l0 32.6l-20.5 0Z" fill="rgb(222,152,125)"></path>
<path d="M459.8 237.6l20.5 0l0 32.6l-20.5 0Z" fill="rgb(228,174,135)"></path>
<path d="M479.8 237.6l20.5 0l0 32.6l-20.5 0Z" fill="rgb(228,174,135)"></path>
<path d="M499.8 237.6l20.5 0l0 32.6l-20.5 0Z" fill="rgb(234,195,146)"></path>
<path d="M519.8 237.6l20.5 0l0 32.6l-20.5 0Z" fill="rgb(216,130,115)"></path>
<path d="M59.8 205.5l20.5 0l0 32.6l-20.5 0Z" fill="rgb(206,105,99)"></path>
<path d="M259.8 205.5l20.5 0l0 32.6l-20.5 0Z" fill="rgb(216,130,115)"></path>
<path d="M279.8 205.5l20.5 0l0 32.6l-20.5 0Z" fill="rgb(234,195,146)"></path>
<path d="M299.8 205.5l20.5 0l0 32.6l-20.5 0Z" fill="rgb(234,195,146)"></path>
<path d="M319.8 205.5l20.5 0l0 32.6l-20.5 0Z" fill="rgb(211,118,107)"></path>
<path d="M339.8 205.5l20.5 0l0 32.6l-20.5 0Z" fill="rgb(196,80,84)"></path>
<path d="M359.8 205.5l20.5 0l0 32.6l-20.5 0Z" fill="rgb(191,68,76)"></path>
<path d="M379.8 205.5l20.5 0l0 32.6l-20.5 0Z" fill="rgb(211,118,107)"></path>
<path d="M399.8 205.5l20.5 0l0 32.6l-20.5 0Z" fill="rgb(206,105,99)"></path>
<path d="M419.8 205.5l20.5 0l0 32.6l-20.5 0Z" fill="rgb(201,93,92)"></path>
<path d="M439.8 205.5l20.5 0l0 32.6l-20.5 0Z" fill="rgb(191,68,76)"></path>
<path d="M459.8 205.5l20.5 0l0 32.6l-20.5 0Z" fill="rgb(216,130,115)"></path>
<path d="M479.8 205.5l20.5 0l0 32.6l-20.5 0Z" fill="rgb(216,130,115)"></path>
<path d="M499.8 205.5l20.5 0l0 32.6l-20.5 0Z" fill="rgb(206,105,99)"></path>
<path d="M519.8 205.5l20.5 0l0 32.6l-20.5 0Z" fill="rgb(234,195,146)"></path>
<path d="M59.8 173.3l20.5 0l0 32.6l-20.5 0Z" fill="rgb(240,217,156)"></path>
<path d="M79.8 173.3l20.5 0l0 32.6l-20.5 0Z" fill="rgb(240,217,156)"></path>
<path d="M259.8 173.3l20.5 0l0 32.6l-20.5 0Z" fill="rgb(228,174,135)"></path>
<path d="M279.8 173.3l20.5 0l0 32.6l-20.5 0Z" fill="rgb(234,195,146)"></path>
<path d="M299.8 173.3l20.5 0l0 32.6l-20.5 0Z" fill="rgb(240,217,156)"></path>
<path d="M319.8 173.3l20.5 0l0 32.6l-20.5 0Z" fill="rgb(196,80,84)"></path>
<path d="M339.8 173.3l20.5 0l0 32.6l-20.5 0Z" fill="rgb(201,93,92)"></path>
<path d="M359.8 173.3l20.5 0l0 32.6l-20.5 0Z" fill="rgb(191,68,76)"></path>
<path d="M379.8 173.3l20.5 0l0 32.6l-20.5 0Z" fill="rgb(211,118,107)"></path>
<path d="M399.8 173.3l20.5 0l0 32.6l-20.5 0Z" fill="rgb(216,130,115)"></path>
<path d="M419.8 173.3l20.5 0l0 32.6l-20.5 0Z" fill="rgb(216,130,115)"></path>
<path d="M439.8 173.3l20.5 0l0 32.6l-20.5 0Z" fill="rgb(216,130,115)"></path>
<path d="M459.8 173.3l20.5 0l0 32.6l-20.5 0Z" fill="rgb(206,105,99)"></path>
<path d="M479.8 173.3l20.5 0l0 32.6l-20.5 0Z" fill="rgb(222,152,125)"></path>
<path d="M499.8 173.3l20.5 0l0 32.6l-20.5 0Z" fill="rgb(234,195,146)"></path>
<path d="M519.8 173.3l20.5 0l0 32.6l-20.5 0Z" fill="rgb(222,152,125)"></path>
<path d="M59.8 141.2l20.5 0l0 32.6l-20.5 0Z" fill="rgb(206,105,99)"></path>
<path d="M79.8 141.2l20.5 0l0 32.6l-20.5 0Z" fill="rgb(228,174,135)"></path>
<path d="M219.8 141.2l20.5 0l0 32.6l-20.5 0Z" fill="rgb(240,217,156)"></path>
<path d="M259.8 141.2l20.5 0l0 32.6l-20.5 0Z" fill="rgb(216,130,115)"></path>
<path d="M279.8 141.2l20.5 0l0 32.6l-20.5 0Z" fill="rgb(222,152,125)"></path>
<path d="M299.8 141.2l20.5 0l0 32.6l-20.5 0Z" fill="rgb(206,105,99)"></path>
<path d="M319.8 141.2l20.5 0l0 32.6l-20.5 0Z" fill="rgb(191,68,76)"></path>
<path d="M339.8 141.2l20.5 0l0 32.6l-20.5 0Z" fill="rgb(191,68,76)"></path>
<path d="M359.8 141.2l20.5 0l0 32.6l-20.5 0Z" fill="rgb(191,68,76)"></path>
<path d="M379.8 141.2l20.5 0l0 32.6l-20.5 0Z" fill="rgb(196,80,84)"></path>
<path d="M399.8 141.2l20.5 0l0 32.6l-20.5 0Z" fill="rgb(216,130,115)"></path>
<path d="M419.8 141.2l20.5 0l0 32.6l-20.5 0Z" fill="rgb(216,130,115)"></path>
<path d="M439.8 141.2l20.5 0l0 32.6l-20.5 0Z" fill="rgb(191,68,76)"></path>
<path d="M459.8 141.2l20.5 0l0 32.6l-20.5 0Z" fill="rgb(211,118,107)"></path>
<path d="M479.8 141.2l20.5 0l0 32.6l-20.5 0Z" fill="rgb(222,152,125)"></path>
<path d="M499.8 141.2l20.5 0l0 32.6l-20.5 0Z" fill="rgb(222,152,125)"></path>
<path d="M519.8 141.2l20.5 0l0 32.6l-20.5 0Z" fill="rgb(240,217,156)"></path>
<path d="M59.8 109l20.5 0l0 32.6l-20.5 0Z" fill="rgb(240,217,156)"></path>
<path d="M79.8 109l20.5 0l0 32.6l-20.5 0Z" fill="rgb(228,174,135)"></path>
<path d="M159.8 109l20.5 0l0 32.6l-20.5 0Z" fill="rgb(240,217,156)"></path>
<path d="M239.8 109l20.5 0l0 32.6l-20.5 0Z" fill="rgb(234,195,146)"></path>
<path d="M259.8 109l20.5 0l0 32.6l-20.5 0Z" fill="rgb(222,152,125)"></path>
<path d="M279.8 109l20.5 0l0 32.6l-20.5 0Z" fill="rgb(222,152,125)"></path>
<path d="M299.8 109l20.5 0l0 32.6l-20.5 0Z" fill="rgb(234,195,146)"></path>
<path d="M319.8 109l20.5 0l0 32.6l-20.5 0Z" fill="rgb(222,152,125)"></path>
<path d="M339.8 109l20.5 0l0 32.6l-20.5 0Z" fill="rgb(222,152,125)"></path>
<path d="M359.8 109l20.5 0l0 32.6l-20.5 0Z" fill="rgb(191,68,76)"></path>
<path d="M379.8 109l20.5 0l0 32.6l-20.5 0Z" fill="rgb(191,68,76)"></path>
<path d="M399.8 109l20.5 0l0 32.6l-20.5 0Z" fill="rgb(240,217,156)"></path>
<path d="M419.8 109l20.5 0l0 32.6l-20.5 0Z" fill="rgb(201,93,92)"></path>
<path d="M439.8 109l20.5 0l0 32.6l-20.5 0Z" fill="rgb(216,130,115)"></path>
<path d="M459.8 109l20.5 0l0 32.6l-20.5 0Z" fill="rgb(228,174,135)"></path>
<path d="M479.8 109l20.5 0l0 32.6l-20.5 0Z" fill="rgb(206,105,99)"></path>
<path d="M499.8 109l20.5 0l0 32.6l-20.5 0Z" fill="rgb(228,174,135)"></path>
<path d="M59.8 76.9l20.5 0l0 32.6l-20.5 0Z" fill="rgb(234,195,146)"></path>
<path d="M79.8 76.9l20.5 0l0 32.6l-20.5 0Z" fill="rgb(240,217,156)"></path>
<path d="M119.8 76.9l20.5 0l0 32.6l-20.5 0Z" fill="rgb(228,174,135)"></path>
<path d="M219.8 76.9l20.5 0l0 32.6l-20.5 0Z" fill="rgb(234,195,146)"></path>
<path d="M259.8 76.9l20.5 0l0 32.6l-20.5 0Z" fill="rgb(222,152,125)"></path>
<path d="M279.8 76.9l20.5 0l0 32.6l-20.5 0Z" fill="rgb(240,217,156)"></path>
<path d="M299.8 76.9l20.5 0l0 32.6l-20.5 0Z" fill="rgb(216,130,115)"></path>
<path d="M319.8 76.9l20.5 0l0 32.6l-20.5 0Z" fill="rgb(191,68,76)"></path>
<path d="M339.8 76.9l20.5 0l0 32.6l-20.5 0Z" fill="rgb(216,130,115)"></path>
<path d="M359.8 76.9l20.5 0l0 32.6l-20.5 0Z" fill="rgb(206,105,99)"></path>
<path d="M379.8 76.9l20.5 0l0 32.6l-20.5 0Z" fill="rgb(191,68,76)"></path>
<path d="M399.8 76.9l20.5 0l0 32.6l-20.5 0Z" fill="rgb(211,118,107)"></path>
<path d="M439.8 76.9l20.5 0l0 32.6l-20.5 0Z" fill="rgb(216,130,115)"></path>
<path d="M459.8 76.9l20.5 0l0 32.6l-20.5 0Z" fill="rgb(228,174,135)"></path>
<path d="M479.8 76.9l20.5 0l0 32.6l-20.5 0Z" fill="rgb(222,152,125)"></path>
<path d="M499.8 76.9l20.5 0l0 32.6l-20.5 0Z" fill="rgb(234,195,146)"></path>
<path d="M59.8 44.8l20.5 0l0 32.6l-20.5 0Z" fill="rgb(240,217,156)"></path>
<path d="M259.8 44.8l20.5 0l0 32.6l-20.5 0Z" fill="rgb(240,217,156)"></path>
<path d="M299.8 44.8l20.5 0l0 32.6l-20.5 0Z" fill="rgb(234,195,146)"></path>
<path d="M319.8 44.8l20.5 0l0 32.6l-20.5 0Z" fill="rgb(240,217,156)"></path>
<path d="M339.8 44.8l20.5 0l0 32.6l-20.5 0Z" fill="rgb(228,174,135)"></path>
<path d="M359.8 44.8l20.5 0l0 32.6l-20.5 0Z" fill="rgb(222,152,125)"></path>
<path d="M459.8 44.8l20.5 0l0 32.6l-20.5 0Z" fill="rgb(240,217,156)"></path>
<path d="M479.8 44.8l20.5 0l0 32.6l-20.5 0Z" fill="rgb(234,195,146)"></path>
<path d="M499.8 44.8l20.5 0l0 32.6l-20.5 0Z" fill="rgb(234,195,146)"></path>
<path d="M519.8 44.8l20.5 0l0 32.6l-20.5 0Z" fill="rgb(211,118,107)"></path>
<text dominant-baseline="central" text-anchor="middle" style="font-size:12px;font-family:sans-serif;" transform="translate(70 253.9286)" fill="#333">5</text>
<text dominant-baseline="central" text-anchor="middle" style="font-size:12px;font-family:sans-serif;" transform="translate(90 253.9286)" fill="#333">1</text>
<text dominant-baseline="central" text-anchor="middle" style="font-size:12px;font-family:sans-serif;" transform="translate(290 253.9286)" fill="#333">2</text>
<text dominant-baseline="central" text-anchor="middle" style="font-size:12px;font-family:sans-serif;" transform="translate(310 253.9286)" fill="#333">4</text>
<text dominant-baseline="central" text-anchor="middle" style="font-size:12px;font-family:sans-serif;" transform="translate(330 253.9286)" fill="#333">1</text>
<text dominant-baseline="central" text-anchor="middle" style="font-size:12px;font-family:sans-serif;" transform="translate(350 253.9286)" fill="#333">1</text>
<text dominant-baseline="central" text-anchor="middle" style="font-size:12px;font-family:sans-serif;" transform="translate(370 253.9286)" fill="#333">3</text>
<text dominant-baseline="central" text-anchor="middle" style="font-size:12px;font-family:sans-serif;" transform="translate(390 253.9286)" fill="#333">4</text>
<text dominant-baseline="central" text-anchor="middle" style="font-size:12px;font-family:sans-serif;" transform="translate(410 253.9286)" fill="#333">6</text>
<text dominant-baseline="central" text-anchor="middle" style="font-size:12px;font-family:sans-serif;" transform="translate(430 253.9286)" fill="#333">4</text>
<text dominant-baseline="central" text-anchor="middle" style="font-size:12px;font-family:sans-serif;" transform="translate(450 253.9286)" fill="#333">4</text>
<text dominant-baseline="central" text-anchor="middle" style="font-size:12px;font-family:sans-serif;" transform="translate(470 253.9286)" fill="#333">3</text>
<text dominant-baseline="central" text-anchor="middle" style="font-size:12px;font-family:sans-serif;" transform="translate(490 253.9286)" fill="#333">3</text>
<text dominant-baseline="central" text-anchor="middle" style="font-size:12px;font-family:sans-serif;" transform="translate(510 253.9286)" fill="#333">2</text>
<text dominant-baseline="central" text-anchor="middle" style="font-size:12px;font-family:sans-serif;" transform="translate(530 253.9286)" fill="#333">5</text>
<text dominant-baseline="central" text-anchor="middle" style="font-size:12px;font-family:sans-serif;" transform="translate(70 221.7857)" fill="#333">7</text>
<text dominant-baseline="central" text-anchor="middle" style="font-size:12px;font-family:sans-serif;" transform="translate(270 221.7857)" fill="#333">5</text>
<text dominant-baseline="central" text-anchor="middle" style="font-size:12px;font-family:sans-serif;" transform="translate(290 221.7857)" fill="#333">2</text>
<text dominant-baseline="central" text-anchor="middle" style="font-size:12px;font-family:sans-serif;" transform="translate(310 221.7857)" fill="#333">2</text>
<text dominant-baseline="central" text-anchor="middle" style="font-size:12px;font-family:sans-serif;" transform="translate(330 221.7857)" fill="#333">6</text>
<text dominant-baseline="central" text-anchor="middle" style="font-size:12px;font-family:sans-serif;" transform="translate(350 221.7857)" fill="#eee" stroke="rgb(196,80,84)" stroke-width="2" paint-order="stroke" stroke-miterlimit="2">9</text>
<text dominant-baseline="central" text-anchor="middle" style="font-size:12px;font-family:sans-serif;" transform="translate(370 221.7857)" fill="#eee" stroke="rgb(191,68,76)" stroke-width="2" paint-order="stroke" stroke-miterlimit="2">11</text>
<text dominant-baseline="central" text-anchor="middle" style="font-size:12px;font-family:sans-serif;" transform="translate(390 221.7857)" fill="#333">6</text>
<text dominant-baseline="central" text-anchor="middle" style="font-size:12px;font-family:sans-serif;" transform="translate(410 221.7857)" fill="#333">7</text>
<text dominant-baseline="central" text-anchor="middle" style="font-size:12px;font-family:sans-serif;" transform="translate(430 221.7857)" fill="#eee" stroke="rgb(201,93,92)" stroke-width="2" paint-order="stroke" stroke-miterlimit="2">8</text>
<text dominant-baseline="central" text-anchor="middle" style="font-size:12px;font-family:sans-serif;" transform="translate(450 221.7857)" fill="#eee" stroke="rgb(191,68,76)" stroke-width="2" paint-order="stroke" stroke-miterlimit="2">12</text>
<text dominant-baseline="central" text-anchor="middle" style="font-size:12px;font-family:sans-serif;" transform="translate(470 221.7857)" fill="#333">5</text>
<text dominant-baseline="central" text-anchor="middle" style="font-size:12px;font-family:sans-serif;" transform="translate(490 221.7857)" fill="#333">5</text>
<text dominant-baseline="central" text-anchor="middle" style="font-size:12px;font-family:sans-serif;" transform="translate(510 221.7857)" fill="#333">7</text>
<text dominant-baseline="central" text-anchor="middle" style="font-size:12px;font-family:sans-serif;" transform="translate(530 221.7857)" fill="#333">2</text>
<text dominant-baseline="central" text-anchor="middle" style="font-size:12px;font-family:sans-serif;" transform="translate(70 189.6429)" fill="#333">1</text>
<text dominant-baseline="central" text-anchor="middle" style="font-size:12px;font-family:sans-serif;" transform="translate(90 189.6429)" fill="#333">1</text>
<text dominant-baseline="central" text-anchor="middle" style="font-size:12px;font-family:sans-serif;" transform="translate(270 189.6429)" fill="#333">3</text>
<text dominant-baseline="central" text-anchor="middle" style="font-size:12px;font-family:sans-serif;" transform="translate(290 189.6429)" fill="#333">2</text>
<text dominant-baseline="central" text-anchor="middle" style="font-size:12px;font-family:sans-serif;" transform="translate(310 189.6429)" fill="#333">1</text>
<text dominant-baseline="central" text-anchor="middle" style="font-size:12px;font-family:sans-serif;" transform="translate(330 189.6429)" fill="#eee" stroke="rgb(196,80,84)" stroke-width="2" paint-order="stroke" stroke-miterlimit="2">9</text>
<text dominant-baseline="central" text-anchor="middle" style="font-size:12px;font-family:sans-serif;" transform="translate(350 189.6429)" fill="#eee" stroke="rgb(201,93,92)" stroke-width="2" paint-order="stroke" stroke-miterlimit="2">8</text>
<text dominant-baseline="central" text-anchor="middle" style="font-size:12px;font-family:sans-serif;" transform="translate(370 189.6429)" fill="#eee" stroke="rgb(191,68,76)" stroke-width="2" paint-order="stroke" stroke-miterlimit="2">10</text>
<text dominant-baseline="central" text-anchor="middle" style="font-size:12px;font-family:sans-serif;" transform="translate(390 189.6429)" fill="#333">6</text>
<text dominant-baseline="central" text-anchor="middle" style="font-size:12px;font-family:sans-serif;" transform="translate(410 189.6429)" fill="#333">5</text>
<text dominant-baseline="central" text-anchor="middle" style="font-size:12px;font-family:sans-serif;" transform="translate(430 189.6429)" fill="#333">5</text>
<text dominant-baseline="central" text-anchor="middle" style="font-size:12px;font-family:sans-serif;" transform="translate(450 189.6429)" fill="#333">5</text>
<text dominant-baseline="central" text-anchor="middle" style="font-size:12px;font-family:sans-serif;" transform="translate(470 189.6429)" fill="#333">7</text>
<text dominant-baseline="central" text-anchor="middle" style="font-size:12px;font-family:sans-serif;" transform="translate(490 189.6429)" fill="#333">4</text>
<text dominant-baseline="central" text-anchor="middle" style="font-size:12px;font-family:sans-serif;" transform="translate(510 189.6429)" fill="#333">2</text>
<text dominant-baseline="central" text-anchor="middle" style="font-size:12px;font-family:sans-serif;" transform="translate(530 189.6429)" fill="#333">4</text>
<text dominant-baseline="central" text-anchor="middle" style="font-size:12px;font-family:sans-serif;" transform="translate(70 157.5)" fill="#333">7</text>
<text dominant-baseline="central" text-anchor="middle" style="font-size:12px;font-family:sans-serif;" transform="translate(90 157.5)" fill="#333">3</text>
<text dominant-baseline="central" text-anchor="middle" style="font-size:12px;font-family:sans-serif;" transform="translate(230 157.5)" fill="#333">1</text>
<text dominant-baseline="central" text-anchor="middle" style="font-size:12px;font-family:sans-serif;" transform="translate(270 157.5)" fill="#333">5</text>
<text dominant-baseline="central" text-anchor="middle" style="font-size:12px;font-family:sans-serif;" transform="translate(290 157.5)" fill="#333">4</text>
<text dominant-baseline="central" text-anchor="middle" style="font-size:12px;font-family:sans-serif;" transform="translate(310 157.5)" fill="#333">7</text>
<text dominant-baseline="central" text-anchor="middle" style="font-size:12px;font-family:sans-serif;" transform="translate(330 157.5)" fill="#eee" stroke="rgb(191,68,76)" stroke-width="2" paint-order="stroke" stroke-miterlimit="2">14</text>
<text dominant-baseline="central" text-anchor="middle" style="font-size:12px;font-family:sans-serif;" transform="translate(350 157.5)" fill="#eee" stroke="rgb(191,68,76)" stroke-width="2" paint-order="stroke" stroke-miterlimit="2">13</text>
<text dominant-baseline="central" text-anchor="middle" style="font-size:12px;font-family:sans-serif;" transform="translate(370 157.5)" fill="#eee" stroke="rgb(191,68,76)" stroke-width="2" paint-order="stroke" stroke-miterlimit="2">12</text>
<text dominant-baseline="central" text-anchor="middle" style="font-size:12px;font-family:sans-serif;" transform="translate(390 157.5)" fill="#eee" stroke="rgb(196,80,84)" stroke-width="2" paint-order="stroke" stroke-miterlimit="2">9</text>
<text dominant-baseline="central" text-anchor="middle" style="font-size:12px;font-family:sans-serif;" transform="translate(410 157.5)" fill="#333">5</text>
<text dominant-baseline="central" text-anchor="middle" style="font-size:12px;font-family:sans-serif;" transform="translate(430 157.5)" fill="#333">5</text>
<text dominant-baseline="central" text-anchor="middle" style="font-size:12px;font-family:sans-serif;" transform="translate(450 157.5)" fill="#eee" stroke="rgb(191,68,76)" stroke-width="2" paint-order="stroke" stroke-miterlimit="2">10</text>
<text dominant-baseline="central" text-anchor="middle" style="font-size:12px;font-family:sans-serif;" transform="translate(470 157.5)" fill="#333">6</text>
<text dominant-baseline="central" text-anchor="middle" style="font-size:12px;font-family:sans-serif;" transform="translate(490 157.5)" fill="#333">4</text>
<text dominant-baseline="central" text-anchor="middle" style="font-size:12px;font-family:sans-serif;" transform="translate(510 157.5)" fill="#333">4</text>
<text dominant-baseline="central" text-anchor="middle" style="font-size:12px;font-family:sans-serif;" transform="translate(530 157.5)" fill="#333">1</text>
<text dominant-baseline="central" text-anchor="middle" style="font-size:12px;font-family:sans-serif;" transform="translate(70 125.3571)" fill="#333">1</text>
<text dominant-baseline="central" text-anchor="middle" style="font-size:12px;font-family:sans-serif;" transform="translate(90 125.3571)" fill="#333">3</text>
<text dominant-baseline="central" text-anchor="middle" style="font-size:12px;font-family:sans-serif;" transform="translate(170 125.3571)" fill="#333">1</text>
<text dominant-baseline="central" text-anchor="middle" style="font-size:12px;font-family:sans-serif;" transform="translate(250 125.3571)" fill="#333">2</text>
<text dominant-baseline="central" text-anchor="middle" style="font-size:12px;font-family:sans-serif;" transform="translate(270 125.3571)" fill="#333">4</text>
<text dominant-baseline="central" text-anchor="middle" style="font-size:12px;font-family:sans-serif;" transform="translate(290 125.3571)" fill="#333">4</text>
<text dominant-baseline="central" text-anchor="middle" style="font-size:12px;font-family:sans-serif;" transform="translate(310 125.3571)" fill="#333">2</text>
<text dominant-baseline="central" text-anchor="middle" style="font-size:12px;font-family:sans-serif;" transform="translate(330 125.3571)" fill="#333">4</text>
<text dominant-baseline="central" text-anchor="middle" style="font-size:12px;font-family:sans-serif;" transform="translate(350 125.3571)" fill="#333">4</text>
<text dominant-baseline="central" text-anchor="middle" style="font-size:12px;font-family:sans-serif;" transform="translate(370 125.3571)" fill="#eee" stroke="rgb(191,68,76)" stroke-width="2" paint-order="stroke" stroke-miterlimit="2">14</text>
<text dominant-baseline="central" text-anchor="middle" style="font-size:12px;font-family:sans-serif;" transform="translate(390 125.3571)" fill="#eee" stroke="rgb(191,68,76)" stroke-width="2" paint-order="stroke" stroke-miterlimit="2">12</text>
<text dominant-baseline="central" text-anchor="middle" style="font-size:12px;font-family:sans-serif;" transform="translate(410 125.3571)" fill="#333">1</text>
<text dominant-baseline="central" text-anchor="middle" style="font-size:12px;font-family:sans-serif;" transform="translate(430 125.3571)" fill="#eee" stroke="rgb(201,93,92)" stroke-width="2" paint-order="stroke" stroke-miterlimit="2">8</text>
<text dominant-baseline="central" text-anchor="middle" style="font-size:12px;font-family:sans-serif;" transform="translate(450 125.3571)" fill="#333">5</text>
<text dominant-baseline="central" text-anchor="middle" style="font-size:12px;font-family:sans-serif;" transform="translate(470 125.3571)" fill="#333">3</text>
<text dominant-baseline="central" text-anchor="middle" style="font-size:12px;font-family:sans-serif;" transform="translate(490 125.3571)" fill="#333">7</text>
<text dominant-baseline="central" text-anchor="middle" style="font-size:12px;font-family:sans-serif;" transform="translate(510 125.3571)" fill="#333">3</text>
<text dominant-baseline="central" text-anchor="middle" style="font-size:12px;font-family:sans-serif;" transform="translate(70 93.2143)" fill="#333">2</text>
<text dominant-baseline="central" text-anchor="middle" style="font-size:12px;font-family:sans-serif;" transform="translate(90 93.2143)" fill="#333">1</text>
<text dominant-baseline="central" text-anchor="middle" style="font-size:12px;font-family:sans-serif;" transform="translate(130 93.2143)" fill="#333">3</text>
<text dominant-baseline="central" text-anchor="middle" style="font-size:12px;font-family:sans-serif;" transform="translate(230 93.2143)" fill="#333">2</text>
<text dominant-baseline="central" text-anchor="middle" style="font-size:12px;font-family:sans-serif;" transform="translate(270 93.2143)" fill="#333">4</text>
<text dominant-baseline="central" text-anchor="middle" style="font-size:12px;font-family:sans-serif;" transform="translate(290 93.2143)" fill="#333">1</text>
<text dominant-baseline="central" text-anchor="middle" style="font-size:12px;font-family:sans-serif;" transform="translate(310 93.2143)" fill="#333">5</text>
<text dominant-baseline="central" text-anchor="middle" style="font-size:12px;font-family:sans-serif;" transform="translate(330 93.2143)" fill="#eee" stroke="rgb(191,68,76)" stroke-width="2" paint-order="stroke" stroke-miterlimit="2">10</text>
<text dominant-baseline="central" text-anchor="middle" style="font-size:12px;font-family:sans-serif;" transform="translate(350 93.2143)" fill="#333">5</text>
<text dominant-baseline="central" text-anchor="middle" style="font-size:12px;font-family:sans-serif;" transform="translate(370 93.2143)" fill="#333">7</text>
<text dominant-baseline="central" text-anchor="middle" style="font-size:12px;font-family:sans-serif;" transform="translate(390 93.2143)" fill="#eee" stroke="rgb(191,68,76)" stroke-width="2" paint-order="stroke" stroke-miterlimit="2">11</text>
<text dominant-baseline="central" text-anchor="middle" style="font-size:12px;font-family:sans-serif;" transform="translate(410 93.2143)" fill="#333">6</text>
<text dominant-baseline="central" text-anchor="middle" style="font-size:12px;font-family:sans-serif;" transform="translate(450 93.2143)" fill="#333">5</text>
<text dominant-baseline="central" text-anchor="middle" style="font-size:12px;font-family:sans-serif;" transform="translate(470 93.2143)" fill="#333">3</text>
<text dominant-baseline="central" text-anchor="middle" style="font-size:12px;font-family:sans-serif;" transform="translate(490 93.2143)" fill="#333">4</text>
<text dominant-baseline="central" text-anchor="middle" style="font-size:12px;font-family:sans-serif;" transform="translate(510 93.2143)" fill="#333">2</text>
<text dominant-baseline="central" text-anchor="middle" style="font-size:12px;font-family:sans-serif;" transform="translate(70 61.0714)" fill="#333">1</text>
<text dominant-baseline="central" text-anchor="middle" style="font-size:12px;font-family:sans-serif;" transform="translate(270 61.0714)" fill="#333">1</text>
<text dominant-baseline="central" text-anchor="middle" style="font-size:12px;font-family:sans-serif;" transform="translate(310 61.0714)" fill="#333">2</text>
<text dominant-baseline="central" text-anchor="middle" style="font-size:12px;font-family:sans-serif;" transform="translate(330 61.0714)" fill="#333">1</text>
<text dominant-baseline="central" text-anchor="middle" style="font-size:12px;font-family:sans-serif;" transform="translate(350 61.0714)" fill="#333">3</text>
<text dominant-baseline="central" text-anchor="middle" style="font-size:12px;font-family:sans-serif;" transform="translate(370 61.0714)" fill="#333">4</text>
<text dominant-baseline="central" text-anchor="middle" style="font-size:12px;font-family:sans-serif;" transform="translate(470 61.0714)" fill="#333">1</text>
<text dominant-baseline="central" text-anchor="middle" style="font-size:12px;font-family:sans-serif;" transform="translate(490 61.0714)" fill="#333">2</text>
<text dominant-baseline="central" text-anchor="middle" style="font-size:12px;font-family:sans-serif;" transform="translate(510 61.0714)" fill="#333">2</text>
<text dominant-baseline="central" text-anchor="middle" style="font-size:12px;font-family:sans-serif;" transform="translate(530 61.0714)" fill="#333">6</text>
<path d="M-8.9 -45l160.6 0l0 53l-160.6 0Z" transform="translate(228.5883 374.5)" fill="rgb(0,0,0)" fill-opacity="0" stroke="#ccc" stroke-width="0"></path>
<text dominant-baseline="central" text-anchor="middle" style="font-size:12px;font-family:sans-serif;" x="2.0818995585505003e-15" y="-34" transform="translate(228.5883 374.5)" fill="#333">0</text>
<text dominant-baseline="central" text-anchor="middle" style="font-size:12px;font-family:sans-serif;" x="140" y="-33.99999999999999" transform="translate(228.5883 374.5)" fill="#333">10</text>
<g clip-path="url(#zr24-c0)">
<polygon points="0 0 20 0 20 140 0 140" transform="matrix(0,-1,1,0,228.5883,374.5)" fill="url(#zr24-g0)"></polygon>
<polygon points="0 0 20 0 20 140 0 140" transform="matrix(0,-1,1,0,228.5883,374.5)" fill="url(#zr24-g1)"></polygon>
</g>
<path d="M12 0A2.9 2.9 0 0 1 9.1 2.9L-9.1 2.9A2.9 2.9 0 0 1 -12 0L-12 0A2.9 2.9 0 0 1 -9.1 -2.9L9.1 -2.9A2.9 2.9 0 0 1 12 0Z" transform="matrix(0,-1,1,0,228.5883,364.5)" fill="rgb(246,239,166)" stroke="#fff" stroke-width="2" paint-order="stroke"></path>
<path d="M12 0A2.9 2.9 0 0 1 9.1 2.9L-9.1 2.9A2.9 2.9 0 0 1 -12 0L-12 0A2.9 2.9 0 0 1 -9.1 -2.9L9.1 -2.9A2.9 2.9 0 0 1 12 0Z" transform="matrix(0,-1,1,0,368.5883,364.5)" fill="rgb(191,68,76)" stroke="#fff" stroke-width="2" paint-order="stroke"></path>
<defs >
<clipPath id="zr24-c0">
<path d="M3 0L17 0A3 3 0 0 1 20 3L20 137A3 3 0 0 1 17 140L3 140A3 3 0 0 1 0 137L0 3A3 3 0 0 1 3 0" transform="matrix(0,-1,1,0,228.5883,374.5)" fill="#000"></path>
</clipPath>
<linearGradient gradientUnits="objectBoundingBox" x1="0" y1="0" x2="0" y2="1" id="zr24-g0">
<stop offset="0%" stop-color="rgb(170,170,170)"></stop>
<stop offset="1%" stop-color="rgb(170,170,170)"></stop>
<stop offset="2%" stop-color="rgb(170,170,170)"></stop>
<stop offset="3%" stop-color="rgb(170,170,170)"></stop>
<stop offset="4%" stop-color="rgb(170,170,170)"></stop>
<stop offset="5%" stop-color="rgb(170,170,170)"></stop>
<stop offset="6%" stop-color="rgb(170,170,170)"></stop>
<stop offset="7.000000000000001%" stop-color="rgb(170,170,170)"></stop>
<stop offset="8%" stop-color="rgb(170,170,170)"></stop>
<stop offset="9%" stop-color="rgb(170,170,170)"></stop>
<stop offset="10%" stop-color="rgb(170,170,170)"></stop>
<stop offset="11%" stop-color="rgb(170,170,170)"></stop>
<stop offset="12%" stop-color="rgb(170,170,170)"></stop>
<stop offset="13%" stop-color="rgb(170,170,170)"></stop>
<stop offset="14.000000000000002%" stop-color="rgb(170,170,170)"></stop>
<stop offset="15%" stop-color="rgb(170,170,170)"></stop>
<stop offset="16%" stop-color="rgb(170,170,170)"></stop>
<stop offset="17%" stop-color="rgb(170,170,170)"></stop>
<stop offset="18%" stop-color="rgb(170,170,170)"></stop>
<stop offset="19%" stop-color="rgb(170,170,170)"></stop>
<stop offset="20%" stop-color="rgb(170,170,170)"></stop>
<stop offset="21%" stop-color="rgb(170,170,170)"></stop>
<stop offset="22%" stop-color="rgb(170,170,170)"></stop>
<stop offset="23%" stop-color="rgb(170,170,170)"></stop>
<stop offset="24%" stop-color="rgb(170,170,170)"></stop>
<stop offset="25%" stop-color="rgb(170,170,170)"></stop>
<stop offset="26%" stop-color="rgb(170,170,170)"></stop>
<stop offset="27%" stop-color="rgb(170,170,170)"></stop>
<stop offset="28.000000000000004%" stop-color="rgb(170,170,170)"></stop>
<stop offset="28.999999999999996%" stop-color="rgb(170,170,170)"></stop>
<stop offset="30%" stop-color="rgb(170,170,170)"></stop>
<stop offset="31%" stop-color="rgb(170,170,170)"></stop>
<stop offset="32%" stop-color="rgb(170,170,170)"></stop>
<stop offset="33%" stop-color="rgb(170,170,170)"></stop>
<stop offset="34%" stop-color="rgb(170,170,170)"></stop>
<stop offset="35%" stop-color="rgb(170,170,170)"></stop>
<stop offset="36%" stop-color="rgb(170,170,170)"></stop>
<stop offset="37%" stop-color="rgb(170,170,170)"></stop>
<stop offset="38%" stop-color="rgb(170,170,170)"></stop>
<stop offset="39%" stop-color="rgb(170,170,170)"></stop>
<stop offset="40%" stop-color="rgb(170,170,170)"></stop>
<stop offset="41%" stop-color="rgb(170,170,170)"></stop>
<stop offset="42%" stop-color="rgb(170,170,170)"></stop>
<stop offset="43%" stop-color="rgb(170,170,170)"></stop>
<stop offset="44%" stop-color="rgb(170,170,170)"></stop>
<stop offset="45%" stop-color="rgb(170,170,170)"></stop>
<stop offset="46%" stop-color="rgb(170,170,170)"></stop>
<stop offset="47%" stop-color="rgb(170,170,170)"></stop>
<stop offset="48%" stop-color="rgb(170,170,170)"></stop>
<stop offset="49%" stop-color="rgb(170,170,170)"></stop>
<stop offset="50%" stop-color="rgb(170,170,170)"></stop>
<stop offset="51%" stop-color="rgb(170,170,170)"></stop>
<stop offset="52%" stop-color="rgb(170,170,170)"></stop>
<stop offset="53%" stop-color="rgb(170,170,170)"></stop>
<stop offset="54%" stop-color="rgb(170,170,170)"></stop>
<stop offset="55.00000000000001%" stop-color="rgb(170,170,170)"></stop>
<stop offset="56.00000000000001%" stop-color="rgb(170,170,170)"></stop>
<stop offset="56.99999999999999%" stop-color="rgb(170,170,170)"></stop>
<stop offset="57.99999999999999%" stop-color="rgb(170,170,170)"></stop>
<stop offset="59%" stop-color="rgb(170,170,170)"></stop>
<stop offset="60%" stop-color="rgb(170,170,170)"></stop>
<stop offset="61%" stop-color="rgb(170,170,170)"></stop>
<stop offset="62%" stop-color="rgb(170,170,170)"></stop>
<stop offset="63%" stop-color="rgb(170,170,170)"></stop>
<stop offset="64%" stop-color="rgb(170,170,170)"></stop>
<stop offset="65%" stop-color="rgb(170,170,170)"></stop>
<stop offset="66%" stop-color="rgb(170,170,170)"></stop>
<stop offset="67%" stop-color="rgb(170,170,170)"></stop>
<stop offset="68%" stop-color="rgb(170,170,170)"></stop>
<stop offset="69%" stop-color="rgb(170,170,170)"></stop>
<stop offset="70%" stop-color="rgb(170,170,170)"></stop>
<stop offset="71%" stop-color="rgb(170,170,170)"></stop>
<stop offset="72%" stop-color="rgb(170,170,170)"></stop>
<stop offset="73%" stop-color="rgb(170,170,170)"></stop>
<stop offset="74%" stop-color="rgb(170,170,170)"></stop>
<stop offset="75%" stop-color="rgb(170,170,170)"></stop>
<stop offset="76%" stop-color="rgb(170,170,170)"></stop>
<stop offset="77%" stop-color="rgb(170,170,170)"></stop>
<stop offset="78%" stop-color="rgb(170,170,170)"></stop>
<stop offset="79%" stop-color="rgb(170,170,170)"></stop>
<stop offset="80%" stop-color="rgb(170,170,170)"></stop>
<stop offset="81%" stop-color="rgb(170,170,170)"></stop>
<stop offset="82%" stop-color="rgb(170,170,170)"></stop>
<stop offset="83%" stop-color="rgb(170,170,170)"></stop>
<stop offset="84%" stop-color="rgb(170,170,170)"></stop>
<stop offset="85%" stop-color="rgb(170,170,170)"></stop>
<stop offset="86%" stop-color="rgb(170,170,170)"></stop>
<stop offset="87%" stop-color="rgb(170,170,170)"></stop>
<stop offset="88%" stop-color="rgb(170,170,170)"></stop>
<stop offset="89%" stop-color="rgb(170,170,170)"></stop>
<stop offset="90%" stop-color="rgb(170,170,170)"></stop>
<stop offset="91%" stop-color="rgb(170,170,170)"></stop>
<stop offset="92%" stop-color="rgb(170,170,170)"></stop>
<stop offset="93%" stop-color="rgb(170,170,170)"></stop>
<stop offset="94%" stop-color="rgb(170,170,170)"></stop>
<stop offset="95%" stop-color="rgb(170,170,170)"></stop>
<stop offset="96%" stop-color="rgb(170,170,170)"></stop>
<stop offset="97%" stop-color="rgb(170,170,170)"></stop>
<stop offset="98%" stop-color="rgb(170,170,170)"></stop>
<stop offset="99%" stop-color="rgb(170,170,170)"></stop>
<stop offset="100%" stop-color="rgb(170,170,170)"></stop>
</linearGradient>
<linearGradient gradientUnits="objectBoundingBox" x1="0" y1="0" x2="0" y2="1" id="zr24-g1">
<stop offset="0%" stop-color="rgb(246,239,166)"></stop>
<stop offset="1%" stop-color="rgb(245,237,165)"></stop>
<stop offset="2%" stop-color="rgb(245,235,164)"></stop>
<stop offset="3%" stop-color="rgb(244,232,163)"></stop>
<stop offset="4%" stop-color="rgb(244,230,162)"></stop>
<stop offset="5%" stop-color="rgb(243,228,161)"></stop>
<stop offset="6%" stop-color="rgb(242,226,160)"></stop>
<stop offset="7.000000000000001%" stop-color="rgb(242,224,159)"></stop>
<stop offset="8%" stop-color="rgb(241,222,158)"></stop>
<stop offset="9%" stop-color="rgb(241,219,157)"></stop>
<stop offset="10%" stop-color="rgb(240,217,156)"></stop>
<stop offset="11%" stop-color="rgb(239,215,155)"></stop>
<stop offset="12%" stop-color="rgb(239,213,154)"></stop>
<stop offset="13%" stop-color="rgb(238,211,153)"></stop>
<stop offset="14.000000000000002%" stop-color="rgb(238,208,152)"></stop>
<stop offset="15%" stop-color="rgb(237,206,151)"></stop>
<stop offset="16%" stop-color="rgb(236,204,150)"></stop>
<stop offset="17%" stop-color="rgb(236,202,149)"></stop>
<stop offset="18%" stop-color="rgb(235,200,148)"></stop>
<stop offset="19%" stop-color="rgb(235,198,147)"></stop>
<stop offset="20%" stop-color="rgb(234,195,146)"></stop>
<stop offset="21%" stop-color="rgb(233,193,145)"></stop>
<stop offset="22%" stop-color="rgb(233,191,144)"></stop>
<stop offset="23%" stop-color="rgb(232,189,143)"></stop>
<stop offset="24%" stop-color="rgb(232,187,142)"></stop>
<stop offset="25%" stop-color="rgb(231,185,141)"></stop>
<stop offset="26%" stop-color="rgb(230,182,139)"></stop>
<stop offset="27%" stop-color="rgb(230,180,138)"></stop>
<stop offset="28.000000000000004%" stop-color="rgb(229,178,137)"></stop>
<stop offset="28.999999999999996%" stop-color="rgb(229,176,136)"></stop>
<stop offset="30%" stop-color="rgb(228,174,135)"></stop>
<stop offset="31%" stop-color="rgb(227,171,134)"></stop>
<stop offset="32%" stop-color="rgb(227,169,133)"></stop>
<stop offset="33%" stop-color="rgb(226,167,132)"></stop>
<stop offset="34%" stop-color="rgb(226,165,131)"></stop>
<stop offset="35%" stop-color="rgb(225,163,130)"></stop>
<stop offset="36%" stop-color="rgb(224,161,129)"></stop>
<stop offset="37%" stop-color="rgb(224,158,128)"></stop>
<stop offset="38%" stop-color="rgb(223,156,127)"></stop>
<stop offset="39%" stop-color="rgb(223,154,126)"></stop>
<stop offset="40%" stop-color="rgb(222,152,125)"></stop>
<stop offset="41%" stop-color="rgb(221,150,124)"></stop>
<stop offset="42%" stop-color="rgb(221,147,123)"></stop>
<stop offset="43%" stop-color="rgb(220,145,122)"></stop>
<stop offset="44%" stop-color="rgb(220,143,121)"></stop>
<stop offset="45%" stop-color="rgb(219,141,120)"></stop>
<stop offset="46%" stop-color="rgb(218,139,119)"></stop>
<stop offset="47%" stop-color="rgb(218,137,118)"></stop>
<stop offset="48%" stop-color="rgb(217,134,117)"></stop>
<stop offset="49%" stop-color="rgb(217,132,116)"></stop>
<stop offset="50%" stop-color="rgb(216,130,115)"></stop>
<stop offset="51%" stop-color="rgb(216,129,114)"></stop>
<stop offset="52%" stop-color="rgb(215,128,113)"></stop>
<stop offset="53%" stop-color="rgb(215,126,113)"></stop>
<stop offset="54%" stop-color="rgb(214,125,112)"></stop>
<stop offset="55.00000000000001%" stop-color="rgb(214,124,111)"></stop>
<stop offset="56.00000000000001%" stop-color="rgb(213,123,110)"></stop>
<stop offset="56.99999999999999%" stop-color="rgb(213,121,110)"></stop>
<stop offset="57.99999999999999%" stop-color="rgb(212,120,109)"></stop>
<stop offset="59%" stop-color="rgb(212,119,108)"></stop>
<stop offset="60%" stop-color="rgb(211,118,107)"></stop>
<stop offset="61%" stop-color="rgb(211,116,106)"></stop>
<stop offset="62%" stop-color="rgb(210,115,106)"></stop>
<stop offset="63%" stop-color="rgb(210,114,105)"></stop>
<stop offset="64%" stop-color="rgb(209,113,104)"></stop>
<stop offset="65%" stop-color="rgb(209,111,103)"></stop>
<stop offset="66%" stop-color="rgb(208,110,103)"></stop>
<stop offset="67%" stop-color="rgb(208,109,102)"></stop>
<stop offset="68%" stop-color="rgb(207,108,101)"></stop>
<stop offset="69%" stop-color="rgb(207,106,100)"></stop>
<stop offset="70%" stop-color="rgb(206,105,99)"></stop>
<stop offset="71%" stop-color="rgb(206,104,99)"></stop>
<stop offset="72%" stop-color="rgb(205,103,98)"></stop>
<stop offset="73%" stop-color="rgb(205,101,97)"></stop>
<stop offset="74%" stop-color="rgb(204,100,96)"></stop>
<stop offset="75%" stop-color="rgb(204,99,96)"></stop>
<stop offset="76%" stop-color="rgb(203,98,95)"></stop>
<stop offset="77%" stop-color="rgb(203,97,94)"></stop>
<stop offset="78%" stop-color="rgb(202,95,93)"></stop>
<stop offset="79%" stop-color="rgb(202,94,92)"></stop>
<stop offset="80%" stop-color="rgb(201,93,92)"></stop>
<stop offset="81%" stop-color="rgb(201,92,91)"></stop>
<stop offset="82%" stop-color="rgb(200,90,90)"></stop>
<stop offset="83%" stop-color="rgb(200,89,89)"></stop>
<stop offset="84%" stop-color="rgb(199,88,88)"></stop>
<stop offset="85%" stop-color="rgb(199,87,88)"></stop>
<stop offset="86%" stop-color="rgb(198,85,87)"></stop>
<stop offset="87%" stop-color="rgb(198,84,86)"></stop>
<stop offset="88%" stop-color="rgb(197,83,85)"></stop>
<stop offset="89%" stop-color="rgb(197,82,85)"></stop>
<stop offset="90%" stop-color="rgb(196,80,84)"></stop>
<stop offset="91%" stop-color="rgb(196,79,83)"></stop>
<stop offset="92%" stop-color="rgb(195,78,82)"></stop>
<stop offset="93%" stop-color="rgb(195,77,81)"></stop>
<stop offset="94%" stop-color="rgb(194,75,81)"></stop>
<stop offset="95%" stop-color="rgb(194,74,80)"></stop>
<stop offset="96%" stop-color="rgb(193,73,79)"></stop>
<stop offset="97%" stop-color="rgb(193,72,78)"></stop>
<stop offset="98%" stop-color="rgb(192,70,78)"></stop>
<stop offset="99%" stop-color="rgb(192,69,77)"></stop>
<stop offset="100%" stop-color="rgb(191,68,76)"></stop>
</linearGradient>
</defs>
</svg>