<svg width="600" height="450" xmlns="http://www.w3.org/2000/svg" xmlns:xlink="http://www.w3.org/1999/xlink" version="1.1" baseProfile="full" viewBox="0 0 600 450">
<rect width="600" height="450" x="0" y="0" id="0" fill="none"></rect>
<path d="M60 380.5L540 380.5" fill="none" stroke="#E0E6F1"></path>
<path d="M60 334.5L540 334.5" fill="none" stroke="#E0E6F1"></path>
<path d="M60 288.5L540 288.5" fill="none" stroke="#E0E6F1"></path>
<path d="M60 243.5L540 243.5" fill="none" stroke="#E0E6F1"></path>
<path d="M60 197.5L540 197.5" fill="none" stroke="#E0E6F1"></path>
<path d="M60 151.5L540 151.5" fill="none" stroke="#E0E6F1"></path>
<path d="M60 105.5L540 105.5" fill="none" stroke="#E0E6F1"></path>
<path d="M60 60.5L540 60.5" fill="none" stroke="#E0E6F1"></path>
<path d="M60.5 60L60.5 380" fill="none" stroke="#E0E6F1"></path>
<path d="M156.5 60L156.5 380" fill="none" stroke="#E0E6F1"></path>
<path d="M252.5 60L252.5 380" fill="none" stroke="#E0E6F1"></path>
<path d="M348.5 60L348.5 380" fill="none" stroke="#E0E6F1"></path>
<path d="M444.5 60L444.5 380" fill="none" stroke="#E0E6F1"></path>
<path d="M540.5 60L540.5 380" fill="none" stroke="#E0E6F1"></path>
<path d="M60.5 380L60.5 60" fill="none" stroke="#6E7079" stroke-linecap="round"></path>
<path d="M60 380.5L540 380.5" fill="none" stroke="#6E7079" stroke-linecap="round"></path>
<path d="M60 380.5L55 380.5" fill="none" stroke="#6E7079"></path>
<path d="M60 334.5L55 334.5" fill="none" stroke="#6E7079"></path>
<path d="M60 288.5L55 288.5" fill="none" stroke="#6E7079"></path>
<path d="M60 243.5L55 243.5" fill="none" stroke="#6E7079"></path>
<path d="M60 197.5L55 197.5" fill="none" stroke="#6E7079"></path>
<path d="M60 151.5L55 151.5" fill="none" stroke="#6E7079"></path>
<path d="M60 105.5L55 105.5" fill="none" stroke="#6E7079"></path>
<path d="M60 60.5L55 60.5" fill="none" stroke="#6E7079"></path>
<path d="M60.5 380L60.5 385" fill="none" stroke="#6E7079"></path>
<path d="M156.5 380L156.5 385" fill="none" stroke="#6E7079"></path>
<path d="M252.5 380L252.5 385" fill="none" stroke="#6E7079"></path>
<path d="M348.5 380L348.5 385" fill="none" stroke="#6E7079"></path>
<path d="M444.5 380L444.5 385" fill="none" stroke="#6E7079"></path>
<path d="M540.5 380L540.5 385" fill="none" stroke="#6E7079"></path>
<text dominant-baseline="central" text-anchor="end" style="font-size:12px;font-family:sans-serif;" transform="translate(52 380)" fill="#6E7079">40</text>
<text dominant-baseline="central" text-anchor="end" style="font-size:12px;font-family:sans-serif;" transform="translate(52 334.2857)" fill="#6E7079">50</text>
<text dominant-baseline="central" text-anchor="end" style="font-size:12px;font-family:sans-serif;" transform="translate(52 288.5714)" fill="#6E7079">60</text>
<text dominant-baseline="central" text-anchor="end" style="font-size:12px;font-family:sans-serif;" transform="translate(52 242.8571)" fill="#6E7079">70</text>
<text dominant-baseline="central" text-anchor="end" style="font-size:12px;font-family:sans-serif;" transform="translate(52 197.1429)" fill="#6E7079">80</text>
<text dominant-baseline="central" text-anchor="end" style="font-size:12px;font-family:sans-serif;" transform="translate(52 151.4286)" fill="#6E7079">90</text>
<text dominant-baseline="central" text-anchor="end" style="font-size:12px;font-family:sans-serif;" transform="translate(52 105.7143)" fill="#6E7079">100</text>
<text dominant-baseline="central" text-anchor="end" style="font-size:12px;font-family:sans-serif;" transform="translate(52 60)" fill="#6E7079">110</text>
<text dominant-baseline="central" text-anchor="middle" style="font-size:12px;font-family:sans-serif;" y="6" transform="translate(60 388)" fill="#6E7079">140</text>
<text dominant-baseline="central" text-anchor="middle" style="font-size:12px;font-family:sans-serif;" y="6" transform="translate(156 388)" fill="#6E7079">150</text>
<text dominant-baseline="central" text-anchor="middle" style="font-size:12px;font-family:sans-serif;" y="6" transform="translate(252 388)" fill="#6E7079">160</text>
<text dominant-baseline="central" text-anchor="middle" style="font-size:12px;font-family:sans-serif;" y="6" transform="translate(348 388)" fill="#6E7079">170</text>
<text dominant-baseline="central" text-anchor="middle" style="font-size:12px;font-family:sans-serif;" y="6" transform="translate(444 388)" fill="#6E7079">180</text>
<text dominant-baseline="central" text-anchor="middle" style="font-size:12px;font-family:sans-serif;" y="6" transform="translate(540 388)" fill="#6E7079">190</text>
<path d="M1 0A1 1 0 1 1 1 -0.1A1 1 0 0 1 1 0" transform="matrix(10,0,0,10,373.92,81.9429)" fill="#5470c6" class="zr48-cls-0"></path>
<path d="M1 0A1 1 0 1 1 1 -0.1A1 1 0 0 1 1 0" transform="matrix(10,0,0,10,373.92,81.9429)" fill="#5470c6" class="zr48-cls-1"></path>
<path d="M1 0A1 1 0 1 1 1 -0.1A1 1 0 0 1 1 0" transform="matrix(10,0,0,10,373.92,81.9429)" fill="#5470c6" class="zr48-cls-2"></path>
<path d="M1 0A1 1 0 1 1 1 -0.1A1 1 0 0 1 1 0" transform="matrix(10,0,0,10,188.64,370.8571)" fill="#5470c6" class="zr48-cls-3"></path>
<path d="M1 0A1 1 0 1 1 1 -0.1A1 1 0 0 1 1 0" transform="matrix(10,0,0,10,188.64,370.8571)" fill="#5470c6" class="zr48-cls-4"></path>
<path d="M1 0A1 1 0 1 1 1 -0.1A1 1 0 0 1 1 0" transform="matrix(10,0,0,10,188.64,370.8571)" fill="#5470c6" class="zr48-cls-5"></path>
<path d="M1 0A1 1 0 1 1 1 -0.1A1 1 0 0 1 1 0" transform="matrix(10,0,0,10,373.92,81.9429)" fill="#5470c6"></path>
<path d="M1 0A1 1 0 1 1 1 -0.1A1 1 0 0 1 1 0" transform="matrix(10,0,0,10,188.64,370.8571)" fill="#5470c6"></path>
<path d="M1 0A1 1 0 1 1 1 -0.1A1 1 0 0 1 1 0" transform="matrix(5,0,0,5,263.52,326.9714)" fill="#91cc75" fill-opacity="0.8"></path>
<path d="M1 0A1 1 0 1 1 1 -0.1A1 1 0 0 1 1 0" transform="matrix(5,0,0,5,324,293.1429)" fill="#91cc75" fill-opacity="0.8"></path>
<path d="M1 0A1 1 0 1 1 1 -0.1A1 1 0 0 1 1 0" transform="matrix(5,0,0,5,247.2,337.9429)" fill="#91cc75" fill-opacity="0.8"></path>
<path d="M1 0A1 1 0 1 1 1 -0.1A1 1 0 0 1 1 0" transform="matrix(5,0,0,5,223.2,274.8571)" fill="#91cc75" fill-opacity="0.8"></path>
<path d="M1 0A1 1 0 1 1 1 -0.1A1 1 0 0 1 1 0" transform="matrix(5,0,0,5,211.68,317.8286)" fill="#91cc75" fill-opacity="0.8"></path>
<path d="M1 0A1 1 0 1 1 1 -0.1A1 1 0 0 1 1 0" transform="matrix(5,0,0,5,348,293.1429)" fill="#91cc75" fill-opacity="0.8"></path>
<path d="M1 0A1 1 0 1 1 1 -0.1A1 1 0 0 1 1 0" transform="matrix(5,0,0,5,243.36,345.2571)" fill="#91cc75" fill-opacity="0.8"></path>
<path d="M1 0A1 1 0 1 1 1 -0.1A1 1 0 0 1 1 0" transform="matrix(5,0,0,5,309.6,243.7714)" fill="#91cc75" fill-opacity="0.8"></path>
<path d="M1 0A1 1 0 1 1 1 -0.1A1 1 0 0 1 1 0" transform="matrix(5,0,0,5,407.52,257.4857)" fill="#91cc75" fill-opacity="0.8"></path>
<path d="M1 0A1 1 0 1 1 1 -0.1A1 1 0 0 1 1 0" transform="matrix(5,0,0,5,253.92,219.0857)" fill="#91cc75" fill-opacity="0.8"></path>
<path d="M1 0A1 1 0 1 1 1 -0.1A1 1 0 0 1 1 0" transform="matrix(5,0,0,5,372,310.5143)" fill="#91cc75" fill-opacity="0.8"></path>
<path d="M1 0A1 1 0 1 1 1 -0.1A1 1 0 0 1 1 0" transform="matrix(5,0,0,5,356.64,315.0857)" fill="#91cc75" fill-opacity="0.8"></path>
<path d="M1 0A1 1 0 1 1 1 -0.1A1 1 0 0 1 1 0" transform="matrix(5,0,0,5,375.84,277.1429)" fill="#91cc75" fill-opacity="0.8"></path>
<path d="M1 0A1 1 0 1 1 1 -0.1A1 1 0 0 1 1 0" transform="matrix(5,0,0,5,188.64,370.8571)" fill="#91cc75" fill-opacity="0.8"></path>
<path d="M1 0A1 1 0 1 1 1 -0.1A1 1 0 0 1 1 0" transform="matrix(5,0,0,5,252,334.2857)" fill="#91cc75" fill-opacity="0.8"></path>
<path d="M1 0A1 1 0 1 1 1 -0.1A1 1 0 0 1 1 0" transform="matrix(5,0,0,5,129.12,335.2)" fill="#91cc75" fill-opacity="0.8"></path>
<path d="M1 0A1 1 0 1 1 1 -0.1A1 1 0 0 1 1 0" transform="matrix(5,0,0,5,330.72,337.9429)" fill="#91cc75" fill-opacity="0.8"></path>
<path d="M1 0A1 1 0 1 1 1 -0.1A1 1 0 0 1 1 0" transform="matrix(5,0,0,5,396,228.2286)" fill="#91cc75" fill-opacity="0.8"></path>
<path d="M1 0A1 1 0 1 1 1 -0.1A1 1 0 0 1 1 0" transform="matrix(5,0,0,5,223.2,344.3429)" fill="#91cc75" fill-opacity="0.8"></path>
<path d="M1 0A1 1 0 1 1 1 -0.1A1 1 0 0 1 1 0" transform="matrix(5,0,0,5,324.96,248.3429)" fill="#91cc75" fill-opacity="0.8"></path>
<path d="M1 0A1 1 0 1 1 1 -0.1A1 1 0 0 1 1 0" transform="matrix(5,0,0,5,247.2,331.5429)" fill="#91cc75" fill-opacity="0.8"></path>
<path d="M1 0A1 1 0 1 1 1 -0.1A1 1 0 0 1 1 0" transform="matrix(5,0,0,5,396,185.7143)" fill="#91cc75" fill-opacity="0.8"></path>
<path d="M1 0A1 1 0 1 1 1 -0.1A1 1 0 0 1 1 0" transform="matrix(5,0,0,5,317.28,301.3714)" fill="#91cc75" fill-opacity="0.8"></path>
<path d="M1 0A1 1 0 1 1 1 -0.1A1 1 0 0 1 1 0" transform="matrix(5,0,0,5,410.4,161.4857)" fill="#91cc75" fill-opacity="0.8"></path>
<path d="M1 0A1 1 0 1 1 1 -0.1A1 1 0 0 1 1 0" transform="matrix(5,0,0,5,349.92,230.0571)" fill="#91cc75" fill-opacity="0.8"></path>
<path d="M1 0A1 1 0 1 1 1 -0.1A1 1 0 0 1 1 0" transform="matrix(5,0,0,5,386.4,313.7143)" fill="#91cc75" fill-opacity="0.8"></path>
<path d="M1 0A1 1 0 1 1 1 -0.1A1 1 0 0 1 1 0" transform="matrix(5,0,0,5,376.8,289.4857)" fill="#91cc75" fill-opacity="0.8"></path>
<path d="M1 0A1 1 0 1 1 1 -0.1A1 1 0 0 1 1 0" transform="matrix(5,0,0,5,443.04,255.2)" fill="#91cc75" fill-opacity="0.8"></path>
<path d="M1 0A1 1 0 1 1 1 -0.1A1 1 0 0 1 1 0" transform="matrix(5,0,0,5,352.8,252.9143)" fill="#91cc75" fill-opacity="0.8"></path>
<path d="M1 0A1 1 0 1 1 1 -0.1A1 1 0 0 1 1 0" transform="matrix(5,0,0,5,252,348)" fill="#91cc75" fill-opacity="0.8"></path>
<path d="M1 0A1 1 0 1 1 1 -0.1A1 1 0 0 1 1 0" transform="matrix(5,0,0,5,198.24,351.6571)" fill="#91cc75" fill-opacity="0.8"></path>
<path d="M1 0A1 1 0 1 1 1 -0.1A1 1 0 0 1 1 0" transform="matrix(5,0,0,5,271.2,311.4286)" fill="#91cc75" fill-opacity="0.8"></path>
<path d="M1 0A1 1 0 1 1 1 -0.1A1 1 0 0 1 1 0" transform="matrix(5,0,0,5,410.4,183.4286)" fill="#91cc75" fill-opacity="0.8"></path>
<path d="M1 0A1 1 0 1 1 1 -0.1A1 1 0 0 1 1 0" transform="matrix(5,0,0,5,252,314.1714)" fill="#91cc75" fill-opacity="0.8"></path>
<path d="M1 0A1 1 0 1 1 1 -0.1A1 1 0 0 1 1 0" transform="matrix(5,0,0,5,175.2,353.4857)" fill="#91cc75" fill-opacity="0.8"></path>
<path d="M1 0A1 1 0 1 1 1 -0.1A1 1 0 0 1 1 0" transform="matrix(5,0,0,5,272.16,317.8286)" fill="#91cc75" fill-opacity="0.8"></path>
<path d="M1 0A1 1 0 1 1 1 -0.1A1 1 0 0 1 1 0" transform="matrix(5,0,0,5,348,228.2286)" fill="#91cc75" fill-opacity="0.8"></path>
<path d="M1 0A1 1 0 1 1 1 -0.1A1 1 0 0 1 1 0" transform="matrix(5,0,0,5,253.92,324.6857)" fill="#91cc75" fill-opacity="0.8"></path>
<path d="M1 0A1 1 0 1 1 1 -0.1A1 1 0 0 1 1 0" transform="matrix(5,0,0,5,264.48,252.4571)" fill="#91cc75" fill-opacity="0.8"></path>
<path d="M1 0A1 1 0 1 1 1 -0.1A1 1 0 0 1 1 0" transform="matrix(5,0,0,5,313.44,304.1143)" fill="#91cc75" fill-opacity="0.8"></path>
<path d="M1 0A1 1 0 1 1 1 -0.1A1 1 0 0 1 1 0" transform="matrix(5,0,0,5,337.44,278.0571)" fill="#91cc75" fill-opacity="0.8"></path>
<path d="M1 0A1 1 0 1 1 1 -0.1A1 1 0 0 1 1 0" transform="matrix(5,0,0,5,288.48,295.4286)" fill="#91cc75" fill-opacity="0.8"></path>
<path d="M1 0A1 1 0 1 1 1 -0.1A1 1 0 0 1 1 0" transform="matrix(5,0,0,5,324.96,313.7143)" fill="#91cc75" fill-opacity="0.8"></path>
<path d="M1 0A1 1 0 1 1 1 -0.1A1 1 0 0 1 1 0" transform="matrix(5,0,0,5,252,333.3714)" fill="#91cc75" fill-opacity="0.8"></path>
<path d="M1 0A1 1 0 1 1 1 -0.1A1 1 0 0 1 1 0" transform="matrix(5,0,0,5,264.48,287.2)" fill="#91cc75" fill-opacity="0.8"></path>
<path d="M1 0A1 1 0 1 1 1 -0.1A1 1 0 0 1 1 0" transform="matrix(5,0,0,5,324.96,296.3429)" fill="#91cc75" fill-opacity="0.8"></path>
<path d="M1 0A1 1 0 1 1 1 -0.1A1 1 0 0 1 1 0" transform="matrix(5,0,0,5,300.96,305.9429)" fill="#91cc75" fill-opacity="0.8"></path>
<path d="M1 0A1 1 0 1 1 1 -0.1A1 1 0 0 1 1 0" transform="matrix(5,0,0,5,252,333.3714)" fill="#91cc75" fill-opacity="0.8"></path>
<path d="M1 0A1 1 0 1 1 1 -0.1A1 1 0 0 1 1 0" transform="matrix(5,0,0,5,348,229.6)" fill="#91cc75" fill-opacity="0.8"></path>
<path d="M1 0A1 1 0 1 1 1 -0.1A1 1 0 0 1 1 0" transform="matrix(5,0,0,5,228,289.4857)" fill="#91cc75" fill-opacity="0.8"></path>
<path d="M1 0A1 1 0 1 1 1 -0.1A1 1 0 0 1 1 0" transform="matrix(5,0,0,5,324.96,284)" fill="#91cc75" fill-opacity="0.8"></path>
<path d="M1 0A1 1 0 1 1 1 -0.1A1 1 0 0 1 1 0" transform="matrix(5,0,0,5,258.72,246.9714)" fill="#91cc75" fill-opacity="0.8"></path>
<path d="M1 0A1 1 0 1 1 1 -0.1A1 1 0 0 1 1 0" transform="matrix(5,0,0,5,282.72,307.3143)" fill="#91cc75" fill-opacity="0.8"></path>
<path d="M1 0A1 1 0 1 1 1 -0.1A1 1 0 0 1 1 0" transform="matrix(5,0,0,5,179.04,350.2857)" fill="#91cc75" fill-opacity="0.8"></path>
<path d="M1 0A1 1 0 1 1 1 -0.1A1 1 0 0 1 1 0" transform="matrix(5,0,0,5,228,314.6286)" fill="#91cc75" fill-opacity="0.8"></path>
<path d="M1 0A1 1 0 1 1 1 -0.1A1 1 0 0 1 1 0" transform="matrix(5,0,0,5,331.68,312.3429)" fill="#91cc75" fill-opacity="0.8"></path>
<path d="M1 0A1 1 0 1 1 1 -0.1A1 1 0 0 1 1 0" transform="matrix(5,0,0,5,446.88,285.3714)" fill="#91cc75" fill-opacity="0.8"></path>
<path d="M1 0A1 1 0 1 1 1 -0.1A1 1 0 0 1 1 0" transform="matrix(5,0,0,5,304.8,288.5714)" fill="#91cc75" fill-opacity="0.8"></path>
<path d="M1 0A1 1 0 1 1 1 -0.1A1 1 0 0 1 1 0" transform="matrix(5,0,0,5,300,279.4286)" fill="#91cc75" fill-opacity="0.8"></path>
<path d="M1 0A1 1 0 1 1 1 -0.1A1 1 0 0 1 1 0" transform="matrix(5,0,0,5,295.2,287.2)" fill="#91cc75" fill-opacity="0.8"></path>
<path d="M1 0A1 1 0 1 1 1 -0.1A1 1 0 0 1 1 0" transform="matrix(5,0,0,5,213.6,321.9429)" fill="#91cc75" fill-opacity="0.8"></path>
<path d="M1 0A1 1 0 1 1 1 -0.1A1 1 0 0 1 1 0" transform="matrix(5,0,0,5,252,223.2)" fill="#91cc75" fill-opacity="0.8"></path>
<path d="M1 0A1 1 0 1 1 1 -0.1A1 1 0 0 1 1 0" transform="matrix(5,0,0,5,280.8,279.4286)" fill="#91cc75" fill-opacity="0.8"></path>
<path d="M1 0A1 1 0 1 1 1 -0.1A1 1 0 0 1 1 0" transform="matrix(5,0,0,5,306.72,228.6857)" fill="#91cc75" fill-opacity="0.8"></path>
<path d="M1 0A1 1 0 1 1 1 -0.1A1 1 0 0 1 1 0" transform="matrix(5,0,0,5,261.6,197.1429)" fill="#91cc75" fill-opacity="0.8"></path>
<path d="M1 0A1 1 0 1 1 1 -0.1A1 1 0 0 1 1 0" transform="matrix(5,0,0,5,271.2,312.8)" fill="#91cc75" fill-opacity="0.8"></path>
<path d="M1 0A1 1 0 1 1 1 -0.1A1 1 0 0 1 1 0" transform="matrix(5,0,0,5,309.6,319.6571)" fill="#91cc75" fill-opacity="0.8"></path>
<path d="M1 0A1 1 0 1 1 1 -0.1A1 1 0 0 1 1 0" transform="matrix(5,0,0,5,386.4,216.8)" fill="#91cc75" fill-opacity="0.8"></path>
<path d="M1 0A1 1 0 1 1 1 -0.1A1 1 0 0 1 1 0" transform="matrix(5,0,0,5,373.92,283.5429)" fill="#91cc75" fill-opacity="0.8"></path>
<path d="M1 0A1 1 0 1 1 1 -0.1A1 1 0 0 1 1 0" transform="matrix(5,0,0,5,324.96,308.2286)" fill="#91cc75" fill-opacity="0.8"></path>
<path d="M1 0A1 1 0 1 1 1 -0.1A1 1 0 0 1 1 0" transform="matrix(5,0,0,5,166.56,340.2286)" fill="#91cc75" fill-opacity="0.8"></path>
<path d="M1 0A1 1 0 1 1 1 -0.1A1 1 0 0 1 1 0" transform="matrix(5,0,0,5,295.2,323.7714)" fill="#91cc75" fill-opacity="0.8"></path>
<path d="M1 0A1 1 0 1 1 1 -0.1A1 1 0 0 1 1 0" transform="matrix(5,0,0,5,285.6,334.2857)" fill="#91cc75" fill-opacity="0.8"></path>
<path d="M1 0A1 1 0 1 1 1 -0.1A1 1 0 0 1 1 0" transform="matrix(5,0,0,5,175.2,291.7714)" fill="#91cc75" fill-opacity="0.8"></path>
<path d="M1 0A1 1 0 1 1 1 -0.1A1 1 0 0 1 1 0" transform="matrix(5,0,0,5,338.4,277.1429)" fill="#91cc75" fill-opacity="0.8"></path>
<path d="M1 0A1 1 0 1 1 1 -0.1A1 1 0 0 1 1 0" transform="matrix(5,0,0,5,290.4,308.2286)" fill="#91cc75" fill-opacity="0.8"></path>
<path d="M1 0A1 1 0 1 1 1 -0.1A1 1 0 0 1 1 0" transform="matrix(5,0,0,5,263.52,312.3429)" fill="#91cc75" fill-opacity="0.8"></path>
<path d="M1 0A1 1 0 1 1 1 -0.1A1 1 0 0 1 1 0" transform="matrix(5,0,0,5,204,353.0286)" fill="#91cc75" fill-opacity="0.8"></path>
<path d="M1 0A1 1 0 1 1 1 -0.1A1 1 0 0 1 1 0" transform="matrix(5,0,0,5,348,240.1143)" fill="#91cc75" fill-opacity="0.8"></path>
<path d="M1 0A1 1 0 1 1 1 -0.1A1 1 0 0 1 1 0" transform="matrix(5,0,0,5,407.52,255.6571)" fill="#91cc75" fill-opacity="0.8"></path>
<path d="M1 0A1 1 0 1 1 1 -0.1A1 1 0 0 1 1 0" transform="matrix(5,0,0,5,348,245.6)" fill="#91cc75" fill-opacity="0.8"></path>
<path d="M1 0A1 1 0 1 1 1 -0.1A1 1 0 0 1 1 0" transform="matrix(5,0,0,5,276,296.8)" fill="#91cc75" fill-opacity="0.8"></path>
<path d="M1 0A1 1 0 1 1 1 -0.1A1 1 0 0 1 1 0" transform="matrix(5,0,0,5,350.88,266.6286)" fill="#91cc75" fill-opacity="0.8"></path>
<path d="M1 0A1 1 0 1 1 1 -0.1A1 1 0 0 1 1 0" transform="matrix(5,0,0,5,291.36,235.5429)" fill="#91cc75" fill-opacity="0.8"></path>
<path d="M1 0A1 1 0 1 1 1 -0.1A1 1 0 0 1 1 0" transform="matrix(5,0,0,5,343.2,321.4857)" fill="#91cc75" fill-opacity="0.8"></path>
<path d="M1 0A1 1 0 1 1 1 -0.1A1 1 0 0 1 1 0" transform="matrix(5,0,0,5,282.72,289.4857)" fill="#91cc75" fill-opacity="0.8"></path>
<path d="M1 0A1 1 0 1 1 1 -0.1A1 1 0 0 1 1 0" transform="matrix(5,0,0,5,199.2,338.8571)" fill="#91cc75" fill-opacity="0.8"></path>
<path d="M1 0A1 1 0 1 1 1 -0.1A1 1 0 0 1 1 0" transform="matrix(5,0,0,5,250.08,334.2857)" fill="#91cc75" fill-opacity="0.8"></path>
<path d="M1 0A1 1 0 1 1 1 -0.1A1 1 0 0 1 1 0" transform="matrix(5,0,0,5,378.72,246.5143)" fill="#91cc75" fill-opacity="0.8"></path>
<path d="M1 0A1 1 0 1 1 1 -0.1A1 1 0 0 1 1 0" transform="matrix(5,0,0,5,348,307.3143)" fill="#91cc75" fill-opacity="0.8"></path>
<path d="M1 0A1 1 0 1 1 1 -0.1A1 1 0 0 1 1 0" transform="matrix(5,0,0,5,265.44,273.0286)" fill="#91cc75" fill-opacity="0.8"></path>
<path d="M1 0A1 1 0 1 1 1 -0.1A1 1 0 0 1 1 0" transform="matrix(5,0,0,5,338.4,296.8)" fill="#91cc75" fill-opacity="0.8"></path>
<path d="M1 0A1 1 0 1 1 1 -0.1A1 1 0 0 1 1 0" transform="matrix(5,0,0,5,311.52,294.9714)" fill="#91cc75" fill-opacity="0.8"></path>
<path d="M1 0A1 1 0 1 1 1 -0.1A1 1 0 0 1 1 0" transform="matrix(5,0,0,5,246.24,353.9429)" fill="#91cc75" fill-opacity="0.8"></path>
<path d="M1 0A1 1 0 1 1 1 -0.1A1 1 0 0 1 1 0" transform="matrix(5,0,0,5,276,324.2286)" fill="#91cc75" fill-opacity="0.8"></path>
<path d="M1 0A1 1 0 1 1 1 -0.1A1 1 0 0 1 1 0" transform="matrix(5,0,0,5,242.4,340.6857)" fill="#91cc75" fill-opacity="0.8"></path>
<path d="M1 0A1 1 0 1 1 1 -0.1A1 1 0 0 1 1 0" transform="matrix(5,0,0,5,278.88,298.6286)" fill="#91cc75" fill-opacity="0.8"></path>
<path d="M1 0A1 1 0 1 1 1 -0.1A1 1 0 0 1 1 0" transform="matrix(5,0,0,5,242.4,308.6857)" fill="#91cc75" fill-opacity="0.8"></path>
<path d="M1 0A1 1 0 1 1 1 -0.1A1 1 0 0 1 1 0" transform="matrix(5,0,0,5,442.08,257.4857)" fill="#91cc75" fill-opacity="0.8"></path>
<path d="M1 0A1 1 0 1 1 1 -0.1A1 1 0 0 1 1 0" transform="matrix(5,0,0,5,279.84,291.3143)" fill="#91cc75" fill-opacity="0.8"></path>
<path d="M1 0A1 1 0 1 1 1 -0.1A1 1 0 0 1 1 0" transform="matrix(5,0,0,5,261.6,317.8286)" fill="#91cc75" fill-opacity="0.8"></path>
<path d="M1 0A1 1 0 1 1 1 -0.1A1 1 0 0 1 1 0" transform="matrix(5,0,0,5,166.56,228.2286)" fill="#91cc75" fill-opacity="0.8"></path>
<path d="M1 0A1 1 0 1 1 1 -0.1A1 1 0 0 1 1 0" transform="matrix(5,0,0,5,330.72,318.7429)" fill="#91cc75" fill-opacity="0.8"></path>
<path d="M1 0A1 1 0 1 1 1 -0.1A1 1 0 0 1 1 0" transform="matrix(5,0,0,5,337.44,247.4286)" fill="#91cc75" fill-opacity="0.8"></path>
<path d="M1 0A1 1 0 1 1 1 -0.1A1 1 0 0 1 1 0" transform="matrix(5,0,0,5,378.72,295.8857)" fill="#91cc75" fill-opacity="0.8"></path>
<path d="M1 0A1 1 0 1 1 1 -0.1A1 1 0 0 1 1 0" transform="matrix(5,0,0,5,365.28,305.9429)" fill="#91cc75" fill-opacity="0.8"></path>
<path d="M1 0A1 1 0 1 1 1 -0.1A1 1 0 0 1 1 0" transform="matrix(5,0,0,5,424.8,240.1143)" fill="#91cc75" fill-opacity="0.8"></path>
<path d="M1 0A1 1 0 1 1 1 -0.1A1 1 0 0 1 1 0" transform="matrix(5,0,0,5,293.28,289.4857)" fill="#91cc75" fill-opacity="0.8"></path>
<path d="M1 0A1 1 0 1 1 1 -0.1A1 1 0 0 1 1 0" transform="matrix(5,0,0,5,280.8,233.7143)" fill="#91cc75" fill-opacity="0.8"></path>
<path d="M1 0A1 1 0 1 1 1 -0.1A1 1 0 0 1 1 0" transform="matrix(5,0,0,5,333.6,264.8)" fill="#91cc75" fill-opacity="0.8"></path>
<path d="M1 0A1 1 0 1 1 1 -0.1A1 1 0 0 1 1 0" transform="matrix(5,0,0,5,317.28,304.1143)" fill="#91cc75" fill-opacity="0.8"></path>
<path d="M1 0A1 1 0 1 1 1 -0.1A1 1 0 0 1 1 0" transform="matrix(5,0,0,5,373.92,81.9429)" fill="#91cc75" fill-opacity="0.8"></path>
<path d="M1 0A1 1 0 1 1 1 -0.1A1 1 0 0 1 1 0" transform="matrix(5,0,0,5,285.6,326.0571)" fill="#91cc75" fill-opacity="0.8"></path>
<path d="M1 0A1 1 0 1 1 1 -0.1A1 1 0 0 1 1 0" transform="matrix(5,0,0,5,342.24,273.0286)" fill="#91cc75" fill-opacity="0.8"></path>
<path d="M1 0A1 1 0 1 1 1 -0.1A1 1 0 0 1 1 0" transform="matrix(5,0,0,5,326.88,293.1429)" fill="#91cc75" fill-opacity="0.8"></path>
<path d="M1 0A1 1 0 1 1 1 -0.1A1 1 0 0 1 1 0" transform="matrix(5,0,0,5,247.2,345.2571)" fill="#91cc75" fill-opacity="0.8"></path>
<path d="M1 0A1 1 0 1 1 1 -0.1A1 1 0 0 1 1 0" transform="matrix(5,0,0,5,324.96,274.8571)" fill="#91cc75" fill-opacity="0.8"></path>
<path d="M1 0A1 1 0 1 1 1 -0.1A1 1 0 0 1 1 0" transform="matrix(5,0,0,5,263.52,310.5143)" fill="#91cc75" fill-opacity="0.8"></path>
<path d="M1 0A1 1 0 1 1 1 -0.1A1 1 0 0 1 1 0" transform="matrix(5,0,0,5,252,357.1429)" fill="#91cc75" fill-opacity="0.8"></path>
<path d="M1 0A1 1 0 1 1 1 -0.1A1 1 0 0 1 1 0" transform="matrix(5,0,0,5,282.72,316)" fill="#91cc75" fill-opacity="0.8"></path>
<path d="M1 0A1 1 0 1 1 1 -0.1A1 1 0 0 1 1 0" transform="matrix(5,0,0,5,273.12,333.3714)" fill="#91cc75" fill-opacity="0.8"></path>
<path d="M1 0A1 1 0 1 1 1 -0.1A1 1 0 0 1 1 0" transform="matrix(5,0,0,5,264.48,287.6571)" fill="#91cc75" fill-opacity="0.8"></path>
<path d="M1 0A1 1 0 1 1 1 -0.1A1 1 0 0 1 1 0" transform="matrix(5,0,0,5,151.2,358.0571)" fill="#91cc75" fill-opacity="0.8"></path>
<path d="M1 0A1 1 0 1 1 1 -0.1A1 1 0 0 1 1 0" transform="matrix(5,0,0,5,228,294.0571)" fill="#91cc75" fill-opacity="0.8"></path>
<path d="M1 0A1 1 0 1 1 1 -0.1A1 1 0 0 1 1 0" transform="matrix(5,0,0,5,282.72,305.0286)" fill="#91cc75" fill-opacity="0.8"></path>
<path d="M1 0A1 1 0 1 1 1 -0.1A1 1 0 0 1 1 0" transform="matrix(5,0,0,5,373.92,279.4286)" fill="#91cc75" fill-opacity="0.8"></path>
<path d="M1 0A1 1 0 1 1 1 -0.1A1 1 0 0 1 1 0" transform="matrix(5,0,0,5,204,337.9429)" fill="#91cc75" fill-opacity="0.8"></path>
<path d="M1 0A1 1 0 1 1 1 -0.1A1 1 0 0 1 1 0" transform="matrix(5,0,0,5,218.4,255.6571)" fill="#91cc75" fill-opacity="0.8"></path>
<path d="M1 0A1 1 0 1 1 1 -0.1A1 1 0 0 1 1 0" transform="matrix(5,0,0,5,290.4,316.9143)" fill="#91cc75" fill-opacity="0.8"></path>
<path d="M1 0A1 1 0 1 1 1 -0.1A1 1 0 0 1 1 0" transform="matrix(5,0,0,5,260.64,314.1714)" fill="#91cc75" fill-opacity="0.8"></path>
<path d="M1 0A1 1 0 1 1 1 -0.1A1 1 0 0 1 1 0" transform="matrix(5,0,0,5,278.88,297.7143)" fill="#91cc75" fill-opacity="0.8"></path>
<path d="M1 0A1 1 0 1 1 1 -0.1A1 1 0 0 1 1 0" transform="matrix(5,0,0,5,319.2,289.4857)" fill="#91cc75" fill-opacity="0.8"></path>
<path d="M1 0A1 1 0 1 1 1 -0.1A1 1 0 0 1 1 0" transform="matrix(5,0,0,5,252,312.3429)" fill="#91cc75" fill-opacity="0.8"></path>
<path d="M1 0A1 1 0 1 1 1 -0.1A1 1 0 0 1 1 0" transform="matrix(5,0,0,5,252,365.3714)" fill="#91cc75" fill-opacity="0.8"></path>
<path d="M1 0A1 1 0 1 1 1 -0.1A1 1 0 0 1 1 0" transform="matrix(5,0,0,5,337.44,286.2857)" fill="#91cc75" fill-opacity="0.8"></path>
<path d="M1 0A1 1 0 1 1 1 -0.1A1 1 0 0 1 1 0" transform="matrix(5,0,0,5,234.72,350.7429)" fill="#91cc75" fill-opacity="0.8"></path>
<path d="M1 0A1 1 0 1 1 1 -0.1A1 1 0 0 1 1 0" transform="matrix(5,0,0,5,213.6,268.4571)" fill="#91cc75" fill-opacity="0.8"></path>
<path d="M1 0A1 1 0 1 1 1 -0.1A1 1 0 0 1 1 0" transform="matrix(5,0,0,5,252,339.7714)" fill="#91cc75" fill-opacity="0.8"></path>
<path d="M1 0A1 1 0 1 1 1 -0.1A1 1 0 0 1 1 0" transform="matrix(5,0,0,5,320.16,278.5143)" fill="#91cc75" fill-opacity="0.8"></path>
<path d="M1 0A1 1 0 1 1 1 -0.1A1 1 0 0 1 1 0" transform="matrix(5,0,0,5,232.8,309.1429)" fill="#91cc75" fill-opacity="0.8"></path>
<path d="M1 0A1 1 0 1 1 1 -0.1A1 1 0 0 1 1 0" transform="matrix(5,0,0,5,324.96,298.6286)" fill="#91cc75" fill-opacity="0.8"></path>
<path d="M1 0A1 1 0 1 1 1 -0.1A1 1 0 0 1 1 0" transform="matrix(5,0,0,5,213.6,313.2571)" fill="#91cc75" fill-opacity="0.8"></path>
<path d="M1 0A1 1 0 1 1 1 -0.1A1 1 0 0 1 1 0" transform="matrix(5,0,0,5,272.16,292.2286)" fill="#91cc75" fill-opacity="0.8"></path>
<path d="M1 0A1 1 0 1 1 1 -0.1A1 1 0 0 1 1 0" transform="matrix(5,0,0,5,380.64,321.9429)" fill="#91cc75" fill-opacity="0.8"></path>
<path d="M1 0A1 1 0 1 1 1 -0.1A1 1 0 0 1 1 0" transform="matrix(5,0,0,5,250.08,319.6571)" fill="#91cc75" fill-opacity="0.8"></path>
<path d="M1 0A1 1 0 1 1 1 -0.1A1 1 0 0 1 1 0" transform="matrix(5,0,0,5,352.8,268)" fill="#91cc75" fill-opacity="0.8"></path>
<path d="M1 0A1 1 0 1 1 1 -0.1A1 1 0 0 1 1 0" transform="matrix(5,0,0,5,244.32,326.0571)" fill="#91cc75" fill-opacity="0.8"></path>
<path d="M1 0A1 1 0 1 1 1 -0.1A1 1 0 0 1 1 0" transform="matrix(5,0,0,5,228,306.8571)" fill="#91cc75" fill-opacity="0.8"></path>
<path d="M1 0A1 1 0 1 1 1 -0.1A1 1 0 0 1 1 0" transform="matrix(5,0,0,5,264.48,272.1143)" fill="#91cc75" fill-opacity="0.8"></path>
<path d="M1 0A1 1 0 1 1 1 -0.1A1 1 0 0 1 1 0" transform="matrix(5,0,0,5,276.96,273.9429)" fill="#91cc75" fill-opacity="0.8"></path>
<path d="M1 0A1 1 0 1 1 1 -0.1A1 1 0 0 1 1 0" transform="matrix(5,0,0,5,252,290.8571)" fill="#91cc75" fill-opacity="0.8"></path>
<path d="M1 0A1 1 0 1 1 1 -0.1A1 1 0 0 1 1 0" transform="matrix(5,0,0,5,337.44,303.2)" fill="#91cc75" fill-opacity="0.8"></path>
<path d="M1 0A1 1 0 1 1 1 -0.1A1 1 0 0 1 1 0" transform="matrix(5,0,0,5,300.96,269.8286)" fill="#91cc75" fill-opacity="0.8"></path>
<path d="M1 0A1 1 0 1 1 1 -0.1A1 1 0 0 1 1 0" transform="matrix(5,0,0,5,276.96,334.2857)" fill="#91cc75" fill-opacity="0.8"></path>
<path d="M1 0A1 1 0 1 1 1 -0.1A1 1 0 0 1 1 0" transform="matrix(5,0,0,5,300.96,232.3429)" fill="#91cc75" fill-opacity="0.8"></path>
<path d="M1 0A1 1 0 1 1 1 -0.1A1 1 0 0 1 1 0" transform="matrix(5,0,0,5,313.44,311.4286)" fill="#91cc75" fill-opacity="0.8"></path>
<path d="M1 0A1 1 0 1 1 1 -0.1A1 1 0 0 1 1 0" transform="matrix(5,0,0,5,252,307.3143)" fill="#91cc75" fill-opacity="0.8"></path>
<path d="M1 0A1 1 0 1 1 1 -0.1A1 1 0 0 1 1 0" transform="matrix(5,0,0,5,179.04,286.7429)" fill="#91cc75" fill-opacity="0.8"></path>
<path d="M1 0A1 1 0 1 1 1 -0.1A1 1 0 0 1 1 0" transform="matrix(5,0,0,5,349.92,246.9714)" fill="#91cc75" fill-opacity="0.8"></path>
<path d="M1 0A1 1 0 1 1 1 -0.1A1 1 0 0 1 1 0" transform="matrix(5,0,0,5,276.96,176.5714)" fill="#91cc75" fill-opacity="0.8"></path>
<path d="M1 0A1 1 0 1 1 1 -0.1A1 1 0 0 1 1 0" transform="matrix(5,0,0,5,349.92,307.3143)" fill="#91cc75" fill-opacity="0.8"></path>
<path d="M1 0A1 1 0 1 1 1 -0.1A1 1 0 0 1 1 0" transform="matrix(5,0,0,5,240.48,309.1429)" fill="#91cc75" fill-opacity="0.8"></path>
<path d="M1 0A1 1 0 1 1 1 -0.1A1 1 0 0 1 1 0" transform="matrix(5,0,0,5,373.92,245.1429)" fill="#91cc75" fill-opacity="0.8"></path>
<path d="M1 0A1 1 0 1 1 1 -0.1A1 1 0 0 1 1 0" transform="matrix(5,0,0,5,324.96,213.6)" fill="#91cc75" fill-opacity="0.8"></path>
<path d="M1 0A1 1 0 1 1 1 -0.1A1 1 0 0 1 1 0" transform="matrix(5,0,0,5,276.96,282.1714)" fill="#91cc75" fill-opacity="0.8"></path>
<path d="M1 0A1 1 0 1 1 1 -0.1A1 1 0 0 1 1 0" transform="matrix(5,0,0,5,324.96,261.6)" fill="#91cc75" fill-opacity="0.8"></path>
<path d="M1 0A1 1 0 1 1 1 -0.1A1 1 0 0 1 1 0" transform="matrix(5,0,0,5,215.52,294.9714)" fill="#91cc75" fill-opacity="0.8"></path>
<path d="M1 0A1 1 0 1 1 1 -0.1A1 1 0 0 1 1 0" transform="matrix(5,0,0,5,397.92,257.4857)" fill="#91cc75" fill-opacity="0.8"></path>
<path d="M1 0A1 1 0 1 1 1 -0.1A1 1 0 0 1 1 0" transform="matrix(5,0,0,5,368.16,304.1143)" fill="#91cc75" fill-opacity="0.8"></path>
<path d="M1 0A1 1 0 1 1 1 -0.1A1 1 0 0 1 1 0" transform="matrix(5,0,0,5,276.96,294.9714)" fill="#91cc75" fill-opacity="0.8"></path>
<path d="M1 0A1 1 0 1 1 1 -0.1A1 1 0 0 1 1 0" transform="matrix(5,0,0,5,252,307.3143)" fill="#91cc75" fill-opacity="0.8"></path>
<path d="M1 0A1 1 0 1 1 1 -0.1A1 1 0 0 1 1 0" transform="matrix(5,0,0,5,300.96,292.6857)" fill="#91cc75" fill-opacity="0.8"></path>
<path d="M1 0A1 1 0 1 1 1 -0.1A1 1 0 0 1 1 0" transform="matrix(5,0,0,5,471.84,188.9143)" fill="#91cc75" fill-opacity="0.8"></path>
<path d="M1 0A1 1 0 1 1 1 -0.1A1 1 0 0 1 1 0" transform="matrix(5,0,0,5,313.44,239.6571)" fill="#91cc75" fill-opacity="0.8"></path>
<path d="M1 0A1 1 0 1 1 1 -0.1A1 1 0 0 1 1 0" transform="matrix(5,0,0,5,300.96,303.2)" fill="#91cc75" fill-opacity="0.8"></path>
<path d="M1 0A1 1 0 1 1 1 -0.1A1 1 0 0 1 1 0" transform="matrix(5,0,0,5,422.88,288.5714)" fill="#91cc75" fill-opacity="0.8"></path>
<path d="M1 0A1 1 0 1 1 1 -0.1A1 1 0 0 1 1 0" transform="matrix(5,0,0,5,300.96,296.8)" fill="#91cc75" fill-opacity="0.8"></path>
<path d="M1 0A1 1 0 1 1 1 -0.1A1 1 0 0 1 1 0" transform="matrix(5,0,0,5,398.88,230.5143)" fill="#91cc75" fill-opacity="0.8"></path>
<path d="M1 0A1 1 0 1 1 1 -0.1A1 1 0 0 1 1 0" transform="matrix(5,0,0,5,203.04,315.5429)" fill="#91cc75" fill-opacity="0.8"></path>
<path d="M1 0A1 1 0 1 1 1 -0.1A1 1 0 0 1 1 0" transform="matrix(5,0,0,5,240.48,338.4)" fill="#91cc75" fill-opacity="0.8"></path>
<path d="M1 0A1 1 0 1 1 1 -0.1A1 1 0 0 1 1 0" transform="matrix(5,0,0,5,373.92,215.8857)" fill="#91cc75" fill-opacity="0.8"></path>
<path d="M1 0A1 1 0 1 1 1 -0.1A1 1 0 0 1 1 0" transform="matrix(5,0,0,5,337.44,311.4286)" fill="#91cc75" fill-opacity="0.8"></path>
<path d="M1 0A1 1 0 1 1 1 -0.1A1 1 0 0 1 1 0" transform="matrix(5,0,0,5,264.48,300.9143)" fill="#91cc75" fill-opacity="0.8"></path>
<path d="M1 0A1 1 0 1 1 1 -0.1A1 1 0 0 1 1 0" transform="matrix(5,0,0,5,324.96,311.4286)" fill="#91cc75" fill-opacity="0.8"></path>
<path d="M1 0A1 1 0 1 1 1 -0.1A1 1 0 0 1 1 0" transform="matrix(5,0,0,5,300.96,263.4286)" fill="#91cc75" fill-opacity="0.8"></path>
<path d="M1 0A1 1 0 1 1 1 -0.1A1 1 0 0 1 1 0" transform="matrix(5,0,0,5,398.88,263.4286)" fill="#91cc75" fill-opacity="0.8"></path>
<path d="M1 0A1 1 0 1 1 1 -0.1A1 1 0 0 1 1 0" transform="matrix(5,0,0,5,228,340.6857)" fill="#91cc75" fill-opacity="0.8"></path>
<path d="M1 0A1 1 0 1 1 1 -0.1A1 1 0 0 1 1 0" transform="matrix(5,0,0,5,288.48,294.9714)" fill="#91cc75" fill-opacity="0.8"></path>
<path d="M1 0A1 1 0 1 1 1 -0.1A1 1 0 0 1 1 0" transform="matrix(5,0,0,5,324.96,272.1143)" fill="#91cc75" fill-opacity="0.8"></path>
<path d="M1 0A1 1 0 1 1 1 -0.1A1 1 0 0 1 1 0" transform="matrix(5,0,0,5,300.96,310.5143)" fill="#91cc75" fill-opacity="0.8"></path>
<path d="M1 0A1 1 0 1 1 1 -0.1A1 1 0 0 1 1 0" transform="matrix(5,0,0,5,300.96,276.2286)" fill="#91cc75" fill-opacity="0.8"></path>
<path d="M1 0A1 1 0 1 1 1 -0.1A1 1 0 0 1 1 0" transform="matrix(5,0,0,5,337.44,304.1143)" fill="#91cc75" fill-opacity="0.8"></path>
<path d="M1 0A1 1 0 1 1 1 -0.1A1 1 0 0 1 1 0" transform="matrix(5,0,0,5,276.96,316.4571)" fill="#91cc75" fill-opacity="0.8"></path>
<path d="M1 0A1 1 0 1 1 1 -0.1A1 1 0 0 1 1 0" transform="matrix(5,0,0,5,295.2,273.9429)" fill="#91cc75" fill-opacity="0.8"></path>
<path d="M1 0A1 1 0 1 1 1 -0.1A1 1 0 0 1 1 0" transform="matrix(5,0,0,5,410.4,226.4)" fill="#91cc75" fill-opacity="0.8"></path>
<path d="M1 0A1 1 0 1 1 1 -0.1A1 1 0 0 1 1 0" transform="matrix(5,0,0,5,337.44,279.4286)" fill="#91cc75" fill-opacity="0.8"></path>
<path d="M1 0A1 1 0 1 1 1 -0.1A1 1 0 0 1 1 0" transform="matrix(5,0,0,5,398.88,272.1143)" fill="#91cc75" fill-opacity="0.8"></path>
<path d="M1 0A1 1 0 1 1 1 -0.1A1 1 0 0 1 1 0" transform="matrix(5,0,0,5,246.24,319.6571)" fill="#91cc75" fill-opacity="0.8"></path>
<path d="M1 0A1 1 0 1 1 1 -0.1A1 1 0 0 1 1 0" transform="matrix(5,0,0,5,252,318.7429)" fill="#91cc75" fill-opacity="0.8"></path>
<path d="M1 0A1 1 0 1 1 1 -0.1A1 1 0 0 1 1 0" transform="matrix(5,0,0,5,349.92,311.4286)" fill="#91cc75" fill-opacity="0.8"></path>
<path d="M1 0A1 1 0 1 1 1 -0.1A1 1 0 0 1 1 0" transform="matrix(5,0,0,5,276.96,240.5714)" fill="#91cc75" fill-opacity="0.8"></path>
<path d="M1 0A1 1 0 1 1 1 -0.1A1 1 0 0 1 1 0" transform="matrix(5,0,0,5,324.96,313.7143)" fill="#91cc75" fill-opacity="0.8"></path>
<path d="M1 0A1 1 0 1 1 1 -0.1A1 1 0 0 1 1 0" transform="matrix(5,0,0,5,276.96,313.7143)" fill="#91cc75" fill-opacity="0.8"></path>
<path d="M1 0A1 1 0 1 1 1 -0.1A1 1 0 0 1 1 0" transform="matrix(5,0,0,5,258.72,307.3143)" fill="#91cc75" fill-opacity="0.8"></path>
<path d="M1 0A1 1 0 1 1 1 -0.1A1 1 0 0 1 1 0" transform="matrix(5,0,0,5,252,293.1429)" fill="#91cc75" fill-opacity="0.8"></path>
<path d="M1 0A1 1 0 1 1 1 -0.1A1 1 0 0 1 1 0" transform="matrix(5,0,0,5,228,272.1143)" fill="#91cc75" fill-opacity="0.8"></path>
<path d="M1 0A1 1 0 1 1 1 -0.1A1 1 0 0 1 1 0" transform="matrix(5,0,0,5,276.96,313.7143)" fill="#91cc75" fill-opacity="0.8"></path>
<path d="M1 0A1 1 0 1 1 1 -0.1A1 1 0 0 1 1 0" transform="matrix(5,0,0,5,179.04,346.6286)" fill="#91cc75" fill-opacity="0.8"></path>
<path d="M1 0A1 1 0 1 1 1 -0.1A1 1 0 0 1 1 0" transform="matrix(5,0,0,5,349.92,253.3714)" fill="#91cc75" fill-opacity="0.8"></path>
<path d="M1 0A1 1 0 1 1 1 -0.1A1 1 0 0 1 1 0" transform="matrix(5,0,0,5,300.96,193.0286)" fill="#91cc75" fill-opacity="0.8"></path>
<path d="M1 0A1 1 0 1 1 1 -0.1A1 1 0 0 1 1 0" transform="matrix(5,0,0,5,373.92,240.5714)" fill="#91cc75" fill-opacity="0.8"></path>
<path d="M1 0A1 1 0 1 1 1 -0.1A1 1 0 0 1 1 0" transform="matrix(5,0,0,5,300.96,284.4571)" fill="#91cc75" fill-opacity="0.8"></path>
<path d="M1 0A1 1 0 1 1 1 -0.1A1 1 0 0 1 1 0" transform="matrix(5,0,0,5,349.92,272.1143)" fill="#91cc75" fill-opacity="0.8"></path>
<path d="M1 0A1 1 0 1 1 1 -0.1A1 1 0 0 1 1 0" transform="matrix(5,0,0,5,349.92,313.7143)" fill="#91cc75" fill-opacity="0.8"></path>
<path d="M1 0A1 1 0 1 1 1 -0.1A1 1 0 0 1 1 0" transform="matrix(5,0,0,5,349.92,292.6857)" fill="#91cc75" fill-opacity="0.8"></path>
<path d="M1 0A1 1 0 1 1 1 -0.1A1 1 0 0 1 1 0" transform="matrix(5,0,0,5,264.48,240.5714)" fill="#91cc75" fill-opacity="0.8"></path>
<path d="M1 0A1 1 0 1 1 1 -0.1A1 1 0 0 1 1 0" transform="matrix(5,0,0,5,324.96,321.9429)" fill="#91cc75" fill-opacity="0.8"></path>
<path d="M1 0A1 1 0 1 1 1 -0.1A1 1 0 0 1 1 0" transform="matrix(5,0,0,5,324.96,276.2286)" fill="#91cc75" fill-opacity="0.8"></path>
<path d="M1 0A1 1 0 1 1 1 -0.1A1 1 0 0 1 1 0" transform="matrix(5,0,0,5,300.96,168.3429)" fill="#91cc75" fill-opacity="0.8"></path>
<path d="M1 0A1 1 0 1 1 1 -0.1A1 1 0 0 1 1 0" transform="matrix(5,0,0,5,276.96,259.3143)" fill="#91cc75" fill-opacity="0.8"></path>
<path d="M1 0A1 1 0 1 1 1 -0.1A1 1 0 0 1 1 0" transform="matrix(5,0,0,5,179.04,255.2)" fill="#91cc75" fill-opacity="0.8"></path>
<path d="M1 0A1 1 0 1 1 1 -0.1A1 1 0 0 1 1 0" transform="matrix(5,0,0,5,337.44,274.8571)" fill="#91cc75" fill-opacity="0.8"></path>
<path d="M1 0A1 1 0 1 1 1 -0.1A1 1 0 0 1 1 0" transform="matrix(5,0,0,5,349.92,226.4)" fill="#91cc75" fill-opacity="0.8"></path>
<path d="M1 0A1 1 0 1 1 1 -0.1A1 1 0 0 1 1 0" transform="matrix(5,0,0,5,397.92,278.0571)" fill="#91cc75" fill-opacity="0.8"></path>
<path d="M1 0A1 1 0 1 1 1 -0.1A1 1 0 0 1 1 0" transform="matrix(5,0,0,5,397.92,299.0857)" fill="#91cc75" fill-opacity="0.8"></path>
<path d="M1 0A1 1 0 1 1 1 -0.1A1 1 0 0 1 1 0" transform="matrix(5,0,0,5,252,309.6)" fill="#91cc75" fill-opacity="0.8"></path>
<path d="M1 0A1 1 0 1 1 1 -0.1A1 1 0 0 1 1 0" transform="matrix(5,0,0,5,300.96,86.9714)" fill="#91cc75" fill-opacity="0.8"></path>
<path d="M1 0A1 1 0 1 1 1 -0.1A1 1 0 0 1 1 0" transform="matrix(5,0,0,5,386.4,309.1429)" fill="#91cc75" fill-opacity="0.8"></path>
<path d="M1 0A1 1 0 1 1 1 -0.1A1 1 0 0 1 1 0" transform="matrix(5,0,0,5,349.92,209.4857)" fill="#91cc75" fill-opacity="0.8"></path>
<path d="M1 0A1 1 0 1 1 1 -0.1A1 1 0 0 1 1 0" transform="matrix(5,0,0,5,252,194.8571)" fill="#91cc75" fill-opacity="0.8"></path>
<path d="M1 0A1 1 0 1 1 1 -0.1A1 1 0 0 1 1 0" transform="matrix(5,0,0,5,324.96,268)" fill="#91cc75" fill-opacity="0.8"></path>
<path d="M1 0A1 1 0 1 1 1 -0.1A1 1 0 0 1 1 0" transform="matrix(5,0,0,5,324.96,232.3429)" fill="#91cc75" fill-opacity="0.8"></path>
<path d="M1 0A1 1 0 1 1 1 -0.1A1 1 0 0 1 1 0" transform="matrix(5,0,0,5,324.96,282.1714)" fill="#91cc75" fill-opacity="0.8"></path>
<path d="M1 0A1 1 0 1 1 1 -0.1A1 1 0 0 1 1 0" transform="matrix(5,0,0,5,203.04,296.8)" fill="#91cc75" fill-opacity="0.8"></path>
<path d="M1 0A1 1 0 1 1 1 -0.1A1 1 0 0 1 1 0" transform="matrix(5,0,0,5,276.96,188.9143)" fill="#91cc75" fill-opacity="0.8"></path>
<path d="M1 0A1 1 0 1 1 1 -0.1A1 1 0 0 1 1 0" transform="matrix(5,0,0,5,398.88,272.1143)" fill="#91cc75" fill-opacity="0.8"></path>
<path d="M1 0A1 1 0 1 1 1 -0.1A1 1 0 0 1 1 0" transform="matrix(5,0,0,5,361.44,318.7429)" fill="#91cc75" fill-opacity="0.8"></path>
<path d="M1 0A1 1 0 1 1 1 -0.1A1 1 0 0 1 1 0" transform="matrix(5,0,0,5,228,313.7143)" fill="#91cc75" fill-opacity="0.8"></path>
<path d="M1 0A1 1 0 1 1 1 -0.1A1 1 0 0 1 1 0" transform="matrix(5,0,0,5,300.96,317.8286)" fill="#91cc75" fill-opacity="0.8"></path>
<path d="M1 0A1 1 0 1 1 1 -0.1A1 1 0 0 1 1 0" transform="matrix(5,0,0,5,252,288.5714)" fill="#91cc75" fill-opacity="0.8"></path>
<path d="M1 0A1 1 0 1 1 1 -0.1A1 1 0 0 1 1 0" transform="matrix(5,0,0,5,386.4,226.4)" fill="#91cc75" fill-opacity="0.8"></path>
<path d="M1 0A1 1 0 1 1 1 -0.1A1 1 0 0 1 1 0" transform="matrix(5,0,0,5,276.96,282.1714)" fill="#91cc75" fill-opacity="0.8"></path>
<path d="M1 0A1 1 0 1 1 1 -0.1A1 1 0 0 1 1 0" transform="matrix(5,0,0,5,386.4,309.1429)" fill="#91cc75" fill-opacity="0.8"></path>
<path d="M1 0A1 1 0 1 1 1 -0.1A1 1 0 0 1 1 0" transform="matrix(5,0,0,5,276.96,272.1143)" fill="#91cc75" fill-opacity="0.8"></path>
<path d="M1 0A1 1 0 1 1 1 -0.1A1 1 0 0 1 1 0" transform="matrix(5,0,0,5,264.48,284.4571)" fill="#91cc75" fill-opacity="0.8"></path>
<path d="M1 0A1 1 0 1 1 1 -0.1A1 1 0 0 1 1 0" transform="matrix(5,0,0,5,215.52,288.5714)" fill="#91cc75" fill-opacity="0.8"></path>
<path d="M1 0A1 1 0 1 1 1 -0.1A1 1 0 0 1 1 0" transform="matrix(5,0,0,5,155.04,348.9143)" fill="#91cc75" fill-opacity="0.8"></path>
<path d="M1 0A1 1 0 1 1 1 -0.1A1 1 0 0 1 1 0" transform="matrix(5,0,0,5,343.2,300.9143)" fill="#91cc75" fill-opacity="0.8"></path>
<path d="M1 0A1 1 0 1 1 1 -0.1A1 1 0 0 1 1 0" transform="matrix(5,0,0,5,252,269.8286)" fill="#91cc75" fill-opacity="0.8"></path>
<path d="M1 0A1 1 0 1 1 1 -0.1A1 1 0 0 1 1 0" transform="matrix(5,0,0,5,398.88,272.1143)" fill="#91cc75" fill-opacity="0.8"></path>
<path d="M1 0A1 1 0 1 1 1 -0.1A1 1 0 0 1 1 0" transform="matrix(5,0,0,5,343.2,255.2)" fill="#91cc75" fill-opacity="0.8"></path>
<path d="M1 0A1 1 0 1 1 1 -0.1A1 1 0 0 1 1 0" transform="matrix(5,0,0,5,252,217.7143)" fill="#91cc75" fill-opacity="0.8"></path>
<path d="M1 0A1 1 0 1 1 1 -0.1A1 1 0 0 1 1 0" transform="matrix(5,0,0,5,373.92,251.0857)" fill="#91cc75" fill-opacity="0.8"></path>
<path d="M1 0A1 1 0 1 1 1 -0.1A1 1 0 0 1 1 0" transform="matrix(5,0,0,5,276.96,282.1714)" fill="#91cc75" fill-opacity="0.8"></path>
<path d="M1 0A1 1 0 1 1 1 -0.1A1 1 0 0 1 1 0" transform="matrix(5,0,0,5,228,211.7714)" fill="#91cc75" fill-opacity="0.8"></path>
<path d="M1 0A1 1 0 1 1 1 -0.1A1 1 0 0 1 1 0" transform="matrix(5,0,0,5,410.4,234.6286)" fill="#91cc75" fill-opacity="0.8"></path>
<path d="M1 0A1 1 0 1 1 1 -0.1A1 1 0 0 1 1 0" transform="matrix(5,0,0,5,294.24,309.1429)" fill="#91cc75" fill-opacity="0.8"></path>
<path d="M1 0A1 1 0 1 1 1 -0.1A1 1 0 0 1 1 0" transform="matrix(5,0,0,5,258.72,340.6857)" fill="#91cc75" fill-opacity="0.8"></path>
<path d="M1 0A1 1 0 1 1 1 -0.1A1 1 0 0 1 1 0" transform="matrix(5,0,0,5,386.4,259.3143)" fill="#91cc75" fill-opacity="0.8"></path>
<path d="M1 0A1 1 0 1 1 1 -0.1A1 1 0 0 1 1 0" transform="matrix(5,0,0,5,288.48,255.2)" fill="#91cc75" fill-opacity="0.8"></path>
<style ><![CDATA[
.zr48-cls-0 {
animation:zr48-ani-0 4s linear infinite both;
}
.zr48-cls-1 {
animation:zr48-ani-1 4s linear -1.3333333333333333s infinite both;
}
.zr48-cls-2 {
animation:zr48-ani-2 4s linear -2.6666666666666665s infinite both;
}
.zr48-cls-3 {
animation:zr48-ani-3 4s linear 0.0005s infinite both;
}
.zr48-cls-4 {
animation:zr48-ani-4 4s linear -1.3328333333333333s infinite both;
}
.zr48-cls-5 {
animation:zr48-ani-5 4s linear -2.6661666666666664s infinite both;
}
@keyframes zr48-ani-0 {
0% {
transform:scale(0.5,0.5);
opacity:1;
}
100% {
transform:scale(1.25,1.25);
opacity:0;
}
}
@keyframes zr48-ani-1 {
0% {
transform:scale(0.5,0.5);
opacity:1;
}
100% {
transform:scale(1.25,1.25);
opacity:0;
}
}
@keyframes zr48-ani-2 {
0% {
transform:scale(0.5,0.5);
opacity:1;
}
100% {
transform:scale(1.25,1.25);
opacity:0;
}
}
@keyframes zr48-ani-3 {
0% {
transform:scale(0.5,0.5);
opacity:1;
}
100% {
transform:scale(1.25,1.25);
opacity:0;
}
}
@keyframes zr48-ani-4 {
0% {
transform:scale(0.5,0.5);
opacity:1;
}
100% {
transform:scale(1.25,1.25);
opacity:0;
}
}
@keyframes zr48-ani-5 {
0% {
transform:scale(0.5,0.5);
opacity:1;
}
100% {
transform:scale(1.25,1.25);
opacity:0;
}
}
]]>

</style>
</svg>