<svg width="600" height="450" xmlns="http://www.w3.org/2000/svg" xmlns:xlink="http://www.w3.org/1999/xlink" version="1.1" baseProfile="full" viewBox="0 0 600 450">
<rect width="600" height="450" x="0" y="0" id="0" fill="none"></rect>
<text dominant-baseline="central" text-anchor="middle" style="font-size:12px;font-family:sans-serif;" x="300" y="31" fill="#6E7079">12a</text>
<text dominant-baseline="central" text-anchor="middle" style="font-size:12px;font-family:sans-serif;" x="348.6579804792739" y="37.40594465765517" fill="#6E7079">1a</text>
<text dominant-baseline="central" text-anchor="start" style="font-size:12px;font-family:sans-serif;" x="394" y="56.18722408852554" fill="#6E7079">2a</text>
<text dominant-baseline="central" text-anchor="start" style="font-size:12px;font-family:sans-serif;" x="432.936074863071" y="86.06392513692907" fill="#6E7079">3a</text>
<text dominant-baseline="central" text-anchor="start" style="font-size:12px;font-family:sans-serif;" x="462.8127759114745" y="125" fill="#6E7079">4a</text>
<text dominant-baseline="central" text-anchor="start" style="font-size:12px;font-family:sans-serif;" x="481.59405534234486" y="176.3420195207261" fill="#6E7079">5a</text>
<text dominant-baseline="central" text-anchor="start" style="font-size:12px;font-family:sans-serif;" x="488" y="225" fill="#6E7079">6a</text>
<text dominant-baseline="central" text-anchor="start" style="font-size:12px;font-family:sans-serif;" x="481.59405534234486" y="273.6579804792739" fill="#6E7079">7a</text>
<text dominant-baseline="central" text-anchor="start" style="font-size:12px;font-family:sans-serif;" x="462.8127759114745" y="325" fill="#6E7079">8a</text>
<text dominant-baseline="central" text-anchor="start" style="font-size:12px;font-family:sans-serif;" x="432.936074863071" y="363.9360748630709" fill="#6E7079">9a</text>
<text dominant-baseline="central" text-anchor="start" style="font-size:12px;font-family:sans-serif;" x="394" y="393.81277591147443" fill="#6E7079">10a</text>
<text dominant-baseline="central" text-anchor="middle" style="font-size:12px;font-family:sans-serif;" x="348.6579804792739" y="412.59405534234486" fill="#6E7079">11a</text>
<text dominant-baseline="central" text-anchor="middle" style="font-size:12px;font-family:sans-serif;" x="300" y="419" fill="#6E7079">12p</text>
<text dominant-baseline="central" text-anchor="middle" style="font-size:12px;font-family:sans-serif;" x="251.3420195207262" y="412.59405534234486" fill="#6E7079">1p</text>
<text dominant-baseline="central" text-anchor="end" style="font-size:12px;font-family:sans-serif;" x="206.00000000000006" y="393.8127759114745" fill="#6E7079">2p</text>
<text dominant-baseline="central" text-anchor="end" style="font-size:12px;font-family:sans-serif;" x="167.06392513692907" y="363.936074863071" fill="#6E7079">3p</text>
<text dominant-baseline="central" text-anchor="end" style="font-size:12px;font-family:sans-serif;" x="137.1872240885255" y="325" fill="#6E7079">4p</text>
<text dominant-baseline="central" text-anchor="end" style="font-size:12px;font-family:sans-serif;" x="118.4059446576552" y="273.65798047927404" fill="#6E7079">5p</text>
<text dominant-baseline="central" text-anchor="end" style="font-size:12px;font-family:sans-serif;" x="112" y="225.00000000000003" fill="#6E7079">6p</text>
<text dominant-baseline="central" text-anchor="end" style="font-size:12px;font-family:sans-serif;" x="118.40594465765514" y="176.34201952072618" fill="#6E7079">7p</text>
<text dominant-baseline="central" text-anchor="end" style="font-size:12px;font-family:sans-serif;" x="137.18722408852554" y="125" fill="#6E7079">8p</text>
<text dominant-baseline="central" text-anchor="end" style="font-size:12px;font-family:sans-serif;" x="167.06392513692904" y="86.06392513692907" fill="#6E7079">9p</text>
<text dominant-baseline="central" text-anchor="end" style="font-size:12px;font-family:sans-serif;" x="205.99999999999991" y="56.187224088525596" fill="#6E7079">10p</text>
<text dominant-baseline="central" text-anchor="middle" style="font-size:12px;font-family:sans-serif;" x="251.34201952072613" y="37.40594465765517" fill="#6E7079">11p</text>
<path d="M300 40L300 45M347.9 46.3L346.6 51.1M392.5 64.8L390 69.1M430.8 94.2L427.3 97.7M460.2 132.5L455.9 135M478.7 177.1L473.9 178.4M485 225L480 225M478.7 272.9L473.9 271.6M460.2 317.5L455.9 315M430.8 355.8L427.3 352.3M392.5 385.2L390 380.9M347.9 403.7L346.6 398.9M300 410L300 405M252.1 403.7L253.4 398.9M207.5 385.2L210 380.9M169.2 355.8L172.7 352.3M139.8 317.5L144.1 315M121.3 272.9L126.1 271.6M115 225L120 225M121.3 177.1L126.1 178.4M139.8 132.5L144.1 135M169.2 94.2L172.7 97.7M207.5 64.8L210 69.1M252.1 46.3L253.4 51.1" fill="#000" stroke="#6E7079"></path>
<path d="M300 45L300 225M346.6 51.1L300 225M390 69.1L300 225M427.3 97.7L300 225M455.9 135L300 225M473.9 178.4L300 225M480 225L300 225M473.9 271.6L300 225M455.9 315L300 225M427.3 352.3L300 225M390 380.9L300 225M346.6 398.9L300 225M300 405L300 225M253.4 398.9L300 225M210 380.9L300 225M172.7 352.3L300 225M144.1 315L300 225M126.1 271.6L300 225M120 225L300 225M126.1 178.4L300 225M144.1 135L300 225M172.7 97.7L300 225M210 69.1L300 225M253.4 51.1L300 225" fill="#000" stroke="#E0E6F1"></path>
<path d="M300 225.5L295 225.5" fill="none" stroke="#6E7079"></path>
<path d="M300 199.5L295 199.5" fill="none" stroke="#6E7079"></path>
<path d="M300 173.5L295 173.5" fill="none" stroke="#6E7079"></path>
<path d="M300 148.5L295 148.5" fill="none" stroke="#6E7079"></path>
<path d="M300 122.5L295 122.5" fill="none" stroke="#6E7079"></path>
<path d="M300 96.5L295 96.5" fill="none" stroke="#6E7079"></path>
<path d="M300 70.5L295 70.5" fill="none" stroke="#6E7079"></path>
<path d="M300 45.5L295 45.5" fill="none" stroke="#6E7079"></path>
<text dominant-baseline="central" text-anchor="end" style="font-size:12px;font-family:sans-serif;" transform="matrix(0.707,-0.707,0.707,0.707,292,212.1429)" fill="#6E7079">Saturday</text>
<text dominant-baseline="central" text-anchor="end" style="font-size:12px;font-family:sans-serif;" transform="matrix(0.707,-0.707,0.707,0.707,292,186.4286)" fill="#6E7079">Friday</text>
<text dominant-baseline="central" text-anchor="end" style="font-size:12px;font-family:sans-serif;" transform="matrix(0.707,-0.707,0.707,0.707,292,160.7143)" fill="#6E7079">Thursday</text>
<text dominant-baseline="central" text-anchor="end" style="font-size:12px;font-family:sans-serif;" transform="matrix(0.707,-0.707,0.707,0.707,292,135)" fill="#6E7079">Wednesday</text>
<text dominant-baseline="central" text-anchor="end" style="font-size:12px;font-family:sans-serif;" transform="matrix(0.707,-0.707,0.707,0.707,292,109.2857)" fill="#6E7079">Tuesday</text>
<text dominant-baseline="central" text-anchor="end" style="font-size:12px;font-family:sans-serif;" transform="matrix(0.707,-0.707,0.707,0.707,292,83.5714)" fill="#6E7079">Monday</text>
<text dominant-baseline="central" text-anchor="end" style="font-size:12px;font-family:sans-serif;" transform="matrix(0.707,-0.707,0.707,0.707,292,57.8571)" fill="#6E7079">Sunday</text>
<path d="M1 0A1 1 0 1 1 1 -0.1A1 1 0 0 1 1 0" transform="matrix(5,0,0,5,300,212.1429)" fill="#5470c6" fill-opacity="0.8"></path>
<path d="M1 0A1 1 0 1 1 1 -0.1A1 1 0 0 1 1 0" transform="translate(303.3277 212.581)" fill="#5470c6" fill-opacity="0.8"></path>
<path d="M1 0A1 1 0 1 1 1 -0.1A1 1 0 0 1 1 0" transform="matrix(0,0,0,0,306.4286,213.8654)" fill="#5470c6" fill-opacity="0.8"></path>
<path d="M1 0A1 1 0 1 1 1 -0.1A1 1 0 0 1 1 0" transform="matrix(0,0,0,0,309.0914,215.9086)" fill="#5470c6" fill-opacity="0.8"></path>
<path d="M1 0A1 1 0 1 1 1 -0.1A1 1 0 0 1 1 0" transform="matrix(0,0,0,0,311.1346,218.5714)" fill="#5470c6" fill-opacity="0.8"></path>
<path d="M1 0A1 1 0 1 1 1 -0.1A1 1 0 0 1 1 0" transform="matrix(0,0,0,0,312.419,221.6723)" fill="#5470c6" fill-opacity="0.8"></path>
<path d="M1 0A1 1 0 1 1 1 -0.1A1 1 0 0 1 1 0" transform="matrix(0,0,0,0,312.8571,225)" fill="#5470c6" fill-opacity="0.8"></path>
<path d="M1 0A1 1 0 1 1 1 -0.1A1 1 0 0 1 1 0" transform="matrix(0,0,0,0,312.419,228.3277)" fill="#5470c6" fill-opacity="0.8"></path>
<path d="M1 0A1 1 0 1 1 1 -0.1A1 1 0 0 1 1 0" transform="matrix(0,0,0,0,311.1346,231.4286)" fill="#5470c6" fill-opacity="0.8"></path>
<path d="M1 0A1 1 0 1 1 1 -0.1A1 1 0 0 1 1 0" transform="matrix(0,0,0,0,309.0914,234.0914)" fill="#5470c6" fill-opacity="0.8"></path>
<path d="M1 0A1 1 0 1 1 1 -0.1A1 1 0 0 1 1 0" transform="matrix(0,0,0,0,306.4286,236.1346)" fill="#5470c6" fill-opacity="0.8"></path>
<path d="M1 0A1 1 0 1 1 1 -0.1A1 1 0 0 1 1 0" transform="matrix(2,0,0,2,303.3277,237.419)" fill="#5470c6" fill-opacity="0.8"></path>
<path d="M1 0A1 1 0 1 1 1 -0.1A1 1 0 0 1 1 0" transform="matrix(4,0,0,4,300,237.8571)" fill="#5470c6" fill-opacity="0.8"></path>
<path d="M1 0A1 1 0 1 1 1 -0.1A1 1 0 0 1 1 0" transform="translate(296.6723 237.419)" fill="#5470c6" fill-opacity="0.8"></path>
<path d="M1 0A1 1 0 1 1 1 -0.1A1 1 0 0 1 1 0" transform="translate(293.5714 236.1346)" fill="#5470c6" fill-opacity="0.8"></path>
<path d="M1 0A1 1 0 1 1 1 -0.1A1 1 0 0 1 1 0" transform="matrix(3,0,0,3,290.9086,234.0914)" fill="#5470c6" fill-opacity="0.8"></path>
<path d="M1 0A1 1 0 1 1 1 -0.1A1 1 0 0 1 1 0" transform="matrix(4,0,0,4,288.8654,231.4286)" fill="#5470c6" fill-opacity="0.8"></path>
<path d="M1 0A1 1 0 1 1 1 -0.1A1 1 0 0 1 1 0" transform="matrix(6,0,0,6,287.581,228.3277)" fill="#5470c6" fill-opacity="0.8"></path>
<path d="M1 0A1 1 0 1 1 1 -0.1A1 1 0 0 1 1 0" transform="matrix(4,0,0,4,287.1429,225)" fill="#5470c6" fill-opacity="0.8"></path>
<path d="M1 0A1 1 0 1 1 1 -0.1A1 1 0 0 1 1 0" transform="matrix(4,0,0,4,287.581,221.6723)" fill="#5470c6" fill-opacity="0.8"></path>
<path d="M1 0A1 1 0 1 1 1 -0.1A1 1 0 0 1 1 0" transform="matrix(3,0,0,3,288.8654,218.5714)" fill="#5470c6" fill-opacity="0.8"></path>
<path d="M1 0A1 1 0 1 1 1 -0.1A1 1 0 0 1 1 0" transform="matrix(3,0,0,3,290.9086,215.9086)" fill="#5470c6" fill-opacity="0.8"></path>
<path d="M1 0A1 1 0 1 1 1 -0.1A1 1 0 0 1 1 0" transform="matrix(2,0,0,2,293.5714,213.8654)" fill="#5470c6" fill-opacity="0.8"></path>
<path d="M1 0A1 1 0 1 1 1 -0.1A1 1 0 0 1 1 0" transform="matrix(5,0,0,5,296.6723,212.581)" fill="#5470c6" fill-opacity="0.8"></path>
<path d="M1 0A1 1 0 1 1 1 -0.1A1 1 0 0 1 1 0" transform="matrix(7,0,0,7,300,186.4286)" fill="#5470c6" fill-opacity="0.8"></path>
<path d="M1 0A1 1 0 1 1 1 -0.1A1 1 0 0 1 1 0" transform="matrix(0,0,0,0,309.983,187.7429)" fill="#5470c6" fill-opacity="0.8"></path>
<path d="M1 0A1 1 0 1 1 1 -0.1A1 1 0 0 1 1 0" transform="matrix(0,0,0,0,319.2857,191.5962)" fill="#5470c6" fill-opacity="0.8"></path>
<path d="M1 0A1 1 0 1 1 1 -0.1A1 1 0 0 1 1 0" transform="matrix(0,0,0,0,327.2741,197.7259)" fill="#5470c6" fill-opacity="0.8"></path>
<path d="M1 0A1 1 0 1 1 1 -0.1A1 1 0 0 1 1 0" transform="matrix(0,0,0,0,333.4038,205.7143)" fill="#5470c6" fill-opacity="0.8"></path>
<path d="M1 0A1 1 0 1 1 1 -0.1A1 1 0 0 1 1 0" transform="matrix(0,0,0,0,337.2571,215.017)" fill="#5470c6" fill-opacity="0.8"></path>
<path d="M1 0A1 1 0 1 1 1 -0.1A1 1 0 0 1 1 0" transform="matrix(0,0,0,0,338.5714,225)" fill="#5470c6" fill-opacity="0.8"></path>
<path d="M1 0A1 1 0 1 1 1 -0.1A1 1 0 0 1 1 0" transform="matrix(0,0,0,0,337.2571,234.983)" fill="#5470c6" fill-opacity="0.8"></path>
<path d="M1 0A1 1 0 1 1 1 -0.1A1 1 0 0 1 1 0" transform="matrix(0,0,0,0,333.4038,244.2857)" fill="#5470c6" fill-opacity="0.8"></path>
<path d="M1 0A1 1 0 1 1 1 -0.1A1 1 0 0 1 1 0" transform="matrix(0,0,0,0,327.2741,252.2741)" fill="#5470c6" fill-opacity="0.8"></path>
<path d="M1 0A1 1 0 1 1 1 -0.1A1 1 0 0 1 1 0" transform="matrix(5,0,0,5,319.2857,258.4038)" fill="#5470c6" fill-opacity="0.8"></path>
<path d="M1 0A1 1 0 1 1 1 -0.1A1 1 0 0 1 1 0" transform="matrix(2,0,0,2,309.983,262.2571)" fill="#5470c6" fill-opacity="0.8"></path>
<path d="M1 0A1 1 0 1 1 1 -0.1A1 1 0 0 1 1 0" transform="matrix(2,0,0,2,300,263.5714)" fill="#5470c6" fill-opacity="0.8"></path>
<path d="M1 0A1 1 0 1 1 1 -0.1A1 1 0 0 1 1 0" transform="matrix(6,0,0,6,290.017,262.2571)" fill="#5470c6" fill-opacity="0.8"></path>
<path d="M1 0A1 1 0 1 1 1 -0.1A1 1 0 0 1 1 0" transform="matrix(9,0,0,9,280.7143,258.4038)" fill="#5470c6" fill-opacity="0.8"></path>
<path d="M1 0A1 1 0 1 1 1 -0.01" transform="matrix(11,0,0,11,272.7259,252.2741)" fill="#5470c6" fill-opacity="0.8"></path>
<path d="M1 0A1 1 0 1 1 1 -0.1A1 1 0 0 1 1 0" transform="matrix(6,0,0,6,266.5962,244.2857)" fill="#5470c6" fill-opacity="0.8"></path>
<path d="M1 0A1 1 0 1 1 1 -0.1A1 1 0 0 1 1 0" transform="matrix(7,0,0,7,262.7429,234.983)" fill="#5470c6" fill-opacity="0.8"></path>
<path d="M1 0A1 1 0 1 1 1 -0.1A1 1 0 0 1 1 0" transform="matrix(8,0,0,8,261.4286,225)" fill="#5470c6" fill-opacity="0.8"></path>
<path d="M1 0A1 1 0 1 1 1 -0.01" transform="matrix(12,0,0,12,262.7429,215.017)" fill="#5470c6" fill-opacity="0.8"></path>
<path d="M1 0A1 1 0 1 1 1 -0.1A1 1 0 0 1 1 0" transform="matrix(5,0,0,5,266.5962,205.7143)" fill="#5470c6" fill-opacity="0.8"></path>
<path d="M1 0A1 1 0 1 1 1 -0.1A1 1 0 0 1 1 0" transform="matrix(5,0,0,5,272.7259,197.7259)" fill="#5470c6" fill-opacity="0.8"></path>
<path d="M1 0A1 1 0 1 1 1 -0.1A1 1 0 0 1 1 0" transform="matrix(7,0,0,7,280.7143,191.5962)" fill="#5470c6" fill-opacity="0.8"></path>
<path d="M1 0A1 1 0 1 1 1 -0.1A1 1 0 0 1 1 0" transform="matrix(2,0,0,2,290.017,187.7429)" fill="#5470c6" fill-opacity="0.8"></path>
<path d="M1 0A1 1 0 1 1 1 -0.1A1 1 0 0 1 1 0" transform="translate(300 160.7143)" fill="#5470c6" fill-opacity="0.8"></path>
<path d="M1 0A1 1 0 1 1 1 -0.1A1 1 0 0 1 1 0" transform="translate(316.6384 162.9048)" fill="#5470c6" fill-opacity="0.8"></path>
<path d="M1 0A1 1 0 1 1 1 -0.1A1 1 0 0 1 1 0" transform="matrix(0,0,0,0,332.1429,169.3269)" fill="#5470c6" fill-opacity="0.8"></path>
<path d="M1 0A1 1 0 1 1 1 -0.1A1 1 0 0 1 1 0" transform="matrix(0,0,0,0,345.4569,179.5431)" fill="#5470c6" fill-opacity="0.8"></path>
<path d="M1 0A1 1 0 1 1 1 -0.1A1 1 0 0 1 1 0" transform="matrix(0,0,0,0,355.6731,192.8571)" fill="#5470c6" fill-opacity="0.8"></path>
<path d="M1 0A1 1 0 1 1 1 -0.1A1 1 0 0 1 1 0" transform="matrix(0,0,0,0,362.0952,208.3616)" fill="#5470c6" fill-opacity="0.8"></path>
<path d="M1 0A1 1 0 1 1 1 -0.1A1 1 0 0 1 1 0" transform="matrix(0,0,0,0,364.2857,225)" fill="#5470c6" fill-opacity="0.8"></path>
<path d="M1 0A1 1 0 1 1 1 -0.1A1 1 0 0 1 1 0" transform="matrix(0,0,0,0,362.0952,241.6384)" fill="#5470c6" fill-opacity="0.8"></path>
<path d="M1 0A1 1 0 1 1 1 -0.1A1 1 0 0 1 1 0" transform="matrix(0,0,0,0,355.6731,257.1429)" fill="#5470c6" fill-opacity="0.8"></path>
<path d="M1 0A1 1 0 1 1 1 -0.1A1 1 0 0 1 1 0" transform="matrix(0,0,0,0,345.4569,270.4569)" fill="#5470c6" fill-opacity="0.8"></path>
<path d="M1 0A1 1 0 1 1 1 -0.1A1 1 0 0 1 1 0" transform="matrix(3,0,0,3,332.1429,280.6731)" fill="#5470c6" fill-opacity="0.8"></path>
<path d="M1 0A1 1 0 1 1 1 -0.1A1 1 0 0 1 1 0" transform="matrix(2,0,0,2,316.6384,287.0952)" fill="#5470c6" fill-opacity="0.8"></path>
<path d="M1 0A1 1 0 1 1 1 -0.1A1 1 0 0 1 1 0" transform="translate(300 289.2857)" fill="#5470c6" fill-opacity="0.8"></path>
<path d="M1 0A1 1 0 1 1 1 -0.1A1 1 0 0 1 1 0" transform="matrix(9,0,0,9,283.3616,287.0952)" fill="#5470c6" fill-opacity="0.8"></path>
<path d="M1 0A1 1 0 1 1 1 -0.1A1 1 0 0 1 1 0" transform="matrix(8,0,0,8,267.8571,280.6731)" fill="#5470c6" fill-opacity="0.8"></path>
<path d="M1 0A1 1 0 1 1 1 -0.1A1 1 0 0 1 1 0" transform="matrix(10,0,0,10,254.5431,270.4569)" fill="#5470c6" fill-opacity="0.8"></path>
<path d="M1 0A1 1 0 1 1 1 -0.1A1 1 0 0 1 1 0" transform="matrix(6,0,0,6,244.3269,257.1429)" fill="#5470c6" fill-opacity="0.8"></path>
<path d="M1 0A1 1 0 1 1 1 -0.1A1 1 0 0 1 1 0" transform="matrix(5,0,0,5,237.9048,241.6384)" fill="#5470c6" fill-opacity="0.8"></path>
<path d="M1 0A1 1 0 1 1 1 -0.1A1 1 0 0 1 1 0" transform="matrix(5,0,0,5,235.7143,225)" fill="#5470c6" fill-opacity="0.8"></path>
<path d="M1 0A1 1 0 1 1 1 -0.1A1 1 0 0 1 1 0" transform="matrix(5,0,0,5,237.9048,208.3616)" fill="#5470c6" fill-opacity="0.8"></path>
<path d="M1 0A1 1 0 1 1 1 -0.1A1 1 0 0 1 1 0" transform="matrix(7,0,0,7,244.3269,192.8571)" fill="#5470c6" fill-opacity="0.8"></path>
<path d="M1 0A1 1 0 1 1 1 -0.1A1 1 0 0 1 1 0" transform="matrix(4,0,0,4,254.5431,179.5431)" fill="#5470c6" fill-opacity="0.8"></path>
<path d="M1 0A1 1 0 1 1 1 -0.1A1 1 0 0 1 1 0" transform="matrix(2,0,0,2,267.8571,169.3269)" fill="#5470c6" fill-opacity="0.8"></path>
<path d="M1 0A1 1 0 1 1 1 -0.1A1 1 0 0 1 1 0" transform="matrix(4,0,0,4,283.3616,162.9048)" fill="#5470c6" fill-opacity="0.8"></path>
<path d="M1 0A1 1 0 1 1 1 -0.1A1 1 0 0 1 1 0" transform="matrix(7,0,0,7,300,135)" fill="#5470c6" fill-opacity="0.8"></path>
<path d="M1 0A1 1 0 1 1 1 -0.1A1 1 0 0 1 1 0" transform="matrix(3,0,0,3,323.2937,138.0667)" fill="#5470c6" fill-opacity="0.8"></path>
<path d="M1 0A1 1 0 1 1 1 -0.1A1 1 0 0 1 1 0" transform="matrix(0,0,0,0,345,147.0577)" fill="#5470c6" fill-opacity="0.8"></path>
<path d="M1 0A1 1 0 1 1 1 -0.1A1 1 0 0 1 1 0" transform="matrix(0,0,0,0,363.6396,161.3604)" fill="#5470c6" fill-opacity="0.8"></path>
<path d="M1 0A1 1 0 1 1 1 -0.1A1 1 0 0 1 1 0" transform="matrix(0,0,0,0,377.9423,180)" fill="#5470c6" fill-opacity="0.8"></path>
<path d="M1 0A1 1 0 1 1 1 -0.1A1 1 0 0 1 1 0" transform="matrix(0,0,0,0,386.9333,201.7063)" fill="#5470c6" fill-opacity="0.8"></path>
<path d="M1 0A1 1 0 1 1 1 -0.1A1 1 0 0 1 1 0" transform="matrix(0,0,0,0,390,225)" fill="#5470c6" fill-opacity="0.8"></path>
<path d="M1 0A1 1 0 1 1 1 -0.1A1 1 0 0 1 1 0" transform="matrix(0,0,0,0,386.9333,248.2937)" fill="#5470c6" fill-opacity="0.8"></path>
<path d="M1 0A1 1 0 1 1 1 -0.1A1 1 0 0 1 1 0" transform="translate(377.9423 270)" fill="#5470c6" fill-opacity="0.8"></path>
<path d="M1 0A1 1 0 1 1 1 -0.1A1 1 0 0 1 1 0" transform="matrix(0,0,0,0,363.6396,288.6396)" fill="#5470c6" fill-opacity="0.8"></path>
<path d="M1 0A1 1 0 1 1 1 -0.1A1 1 0 0 1 1 0" transform="matrix(5,0,0,5,345,302.9423)" fill="#5470c6" fill-opacity="0.8"></path>
<path d="M1 0A1 1 0 1 1 1 -0.1A1 1 0 0 1 1 0" transform="matrix(4,0,0,4,323.2937,311.9333)" fill="#5470c6" fill-opacity="0.8"></path>
<path d="M1 0A1 1 0 1 1 1 -0.1A1 1 0 0 1 1 0" transform="matrix(7,0,0,7,300,315)" fill="#5470c6" fill-opacity="0.8"></path>
<path d="M1 0A1 1 0 1 1 1 -0.01" transform="matrix(14,0,0,14,276.7063,311.9333)" fill="#5470c6" fill-opacity="0.8"></path>
<path d="M1 0A1 1 0 1 1 1 -0.01" transform="matrix(13,0,0,13,255,302.9423)" fill="#5470c6" fill-opacity="0.8"></path>
<path d="M1 0A1 1 0 1 1 1 -0.01" transform="matrix(12,0,0,12,236.3604,288.6396)" fill="#5470c6" fill-opacity="0.8"></path>
<path d="M1 0A1 1 0 1 1 1 -0.1A1 1 0 0 1 1 0" transform="matrix(9,0,0,9,222.0577,270)" fill="#5470c6" fill-opacity="0.8"></path>
<path d="M1 0A1 1 0 1 1 1 -0.1A1 1 0 0 1 1 0" transform="matrix(5,0,0,5,213.0667,248.2937)" fill="#5470c6" fill-opacity="0.8"></path>
<path d="M1 0A1 1 0 1 1 1 -0.1A1 1 0 0 1 1 0" transform="matrix(5,0,0,5,210,225)" fill="#5470c6" fill-opacity="0.8"></path>
<path d="M1 0A1 1 0 1 1 1 -0.1A1 1 0 0 1 1 0" transform="matrix(10,0,0,10,213.0667,201.7063)" fill="#5470c6" fill-opacity="0.8"></path>
<path d="M1 0A1 1 0 1 1 1 -0.1A1 1 0 0 1 1 0" transform="matrix(6,0,0,6,222.0577,180)" fill="#5470c6" fill-opacity="0.8"></path>
<path d="M1 0A1 1 0 1 1 1 -0.1A1 1 0 0 1 1 0" transform="matrix(4,0,0,4,236.3604,161.3604)" fill="#5470c6" fill-opacity="0.8"></path>
<path d="M1 0A1 1 0 1 1 1 -0.1A1 1 0 0 1 1 0" transform="matrix(4,0,0,4,255,147.0577)" fill="#5470c6" fill-opacity="0.8"></path>
<path d="M1 0A1 1 0 1 1 1 -0.1A1 1 0 0 1 1 0" transform="translate(276.7063 138.0667)" fill="#5470c6" fill-opacity="0.8"></path>
<path d="M1 0A1 1 0 1 1 1 -0.1A1 1 0 0 1 1 0" transform="translate(300 109.2857)" fill="#5470c6" fill-opacity="0.8"></path>
<path d="M1 0A1 1 0 1 1 1 -0.1A1 1 0 0 1 1 0" transform="matrix(3,0,0,3,329.9491,113.2286)" fill="#5470c6" fill-opacity="0.8"></path>
<path d="M1 0A1 1 0 1 1 1 -0.1A1 1 0 0 1 1 0" transform="matrix(0,0,0,0,357.8571,124.7885)" fill="#5470c6" fill-opacity="0.8"></path>
<path d="M1 0A1 1 0 1 1 1 -0.1A1 1 0 0 1 1 0" transform="matrix(0,0,0,0,381.8224,143.1776)" fill="#5470c6" fill-opacity="0.8"></path>
<path d="M1 0A1 1 0 1 1 1 -0.1A1 1 0 0 1 1 0" transform="matrix(0,0,0,0,400.2115,167.1429)" fill="#5470c6" fill-opacity="0.8"></path>
<path d="M1 0A1 1 0 1 1 1 -0.1A1 1 0 0 1 1 0" transform="translate(411.7714 195.0509)" fill="#5470c6" fill-opacity="0.8"></path>
<path d="M1 0A1 1 0 1 1 1 -0.1A1 1 0 0 1 1 0" transform="matrix(0,0,0,0,415.7143,225)" fill="#5470c6" fill-opacity="0.8"></path>
<path d="M1 0A1 1 0 1 1 1 -0.1A1 1 0 0 1 1 0" transform="matrix(0,0,0,0,411.7714,254.9491)" fill="#5470c6" fill-opacity="0.8"></path>
<path d="M1 0A1 1 0 1 1 1 -0.1A1 1 0 0 1 1 0" transform="matrix(0,0,0,0,400.2115,282.8571)" fill="#5470c6" fill-opacity="0.8"></path>
<path d="M1 0A1 1 0 1 1 1 -0.1A1 1 0 0 1 1 0" transform="matrix(2,0,0,2,381.8224,306.8224)" fill="#5470c6" fill-opacity="0.8"></path>
<path d="M1 0A1 1 0 1 1 1 -0.1A1 1 0 0 1 1 0" transform="matrix(4,0,0,4,357.8571,325.2115)" fill="#5470c6" fill-opacity="0.8"></path>
<path d="M1 0A1 1 0 1 1 1 -0.1A1 1 0 0 1 1 0" transform="matrix(4,0,0,4,329.9491,336.7714)" fill="#5470c6" fill-opacity="0.8"></path>
<path d="M1 0A1 1 0 1 1 1 -0.1A1 1 0 0 1 1 0" transform="matrix(2,0,0,2,300,340.7143)" fill="#5470c6" fill-opacity="0.8"></path>
<path d="M1 0A1 1 0 1 1 1 -0.1A1 1 0 0 1 1 0" transform="matrix(4,0,0,4,270.0509,336.7714)" fill="#5470c6" fill-opacity="0.8"></path>
<path d="M1 0A1 1 0 1 1 1 -0.1A1 1 0 0 1 1 0" transform="matrix(4,0,0,4,242.1429,325.2115)" fill="#5470c6" fill-opacity="0.8"></path>
<path d="M1 0A1 1 0 1 1 1 -0.01" transform="matrix(14,0,0,14,218.1776,306.8224)" fill="#5470c6" fill-opacity="0.8"></path>
<path d="M1 0A1 1 0 1 1 1 -0.01" transform="matrix(12,0,0,12,199.7885,282.8571)" fill="#5470c6" fill-opacity="0.8"></path>
<path d="M1 0A1 1 0 1 1 1 -0.1A1 1 0 0 1 1 0" transform="translate(188.2286 254.9491)" fill="#5470c6" fill-opacity="0.8"></path>
<path d="M1 0A1 1 0 1 1 1 -0.1A1 1 0 0 1 1 0" transform="matrix(8,0,0,8,184.2857,225)" fill="#5470c6" fill-opacity="0.8"></path>
<path d="M1 0A1 1 0 1 1 1 -0.1A1 1 0 0 1 1 0" transform="matrix(5,0,0,5,188.2286,195.0509)" fill="#5470c6" fill-opacity="0.8"></path>
<path d="M1 0A1 1 0 1 1 1 -0.1A1 1 0 0 1 1 0" transform="matrix(3,0,0,3,199.7885,167.1429)" fill="#5470c6" fill-opacity="0.8"></path>
<path d="M1 0A1 1 0 1 1 1 -0.1A1 1 0 0 1 1 0" transform="matrix(7,0,0,7,218.1776,143.1776)" fill="#5470c6" fill-opacity="0.8"></path>
<path d="M1 0A1 1 0 1 1 1 -0.1A1 1 0 0 1 1 0" transform="matrix(3,0,0,3,242.1429,124.7885)" fill="#5470c6" fill-opacity="0.8"></path>
<path d="M1 0A1 1 0 1 1 1 -0.1A1 1 0 0 1 1 0" transform="matrix(0,0,0,0,270.0509,113.2286)" fill="#5470c6" fill-opacity="0.8"></path>
<path d="M1 0A1 1 0 1 1 1 -0.1A1 1 0 0 1 1 0" transform="matrix(2,0,0,2,300,83.5714)" fill="#5470c6" fill-opacity="0.8"></path>
<path d="M1 0A1 1 0 1 1 1 -0.1A1 1 0 0 1 1 0" transform="translate(336.6044 88.3905)" fill="#5470c6" fill-opacity="0.8"></path>
<path d="M1 0A1 1 0 1 1 1 -0.1A1 1 0 0 1 1 0" transform="matrix(0,0,0,0,370.7143,102.5193)" fill="#5470c6" fill-opacity="0.8"></path>
<path d="M1 0A1 1 0 1 1 1 -0.1A1 1 0 0 1 1 0" transform="matrix(3,0,0,3,400.0051,124.9949)" fill="#5470c6" fill-opacity="0.8"></path>
<path d="M1 0A1 1 0 1 1 1 -0.1A1 1 0 0 1 1 0" transform="matrix(0,0,0,0,422.4807,154.2857)" fill="#5470c6" fill-opacity="0.8"></path>
<path d="M1 0A1 1 0 1 1 1 -0.1A1 1 0 0 1 1 0" transform="matrix(0,0,0,0,436.6095,188.3956)" fill="#5470c6" fill-opacity="0.8"></path>
<path d="M1 0A1 1 0 1 1 1 -0.1A1 1 0 0 1 1 0" transform="matrix(0,0,0,0,441.4286,225)" fill="#5470c6" fill-opacity="0.8"></path>
<path d="M1 0A1 1 0 1 1 1 -0.1A1 1 0 0 1 1 0" transform="matrix(0,0,0,0,436.6095,261.6044)" fill="#5470c6" fill-opacity="0.8"></path>
<path d="M1 0A1 1 0 1 1 1 -0.1A1 1 0 0 1 1 0" transform="matrix(2,0,0,2,422.4807,295.7143)" fill="#5470c6" fill-opacity="0.8"></path>
<path d="M1 0A1 1 0 1 1 1 -0.1A1 1 0 0 1 1 0" transform="matrix(0,0,0,0,400.0051,325.0051)" fill="#5470c6" fill-opacity="0.8"></path>
<path d="M1 0A1 1 0 1 1 1 -0.1A1 1 0 0 1 1 0" transform="matrix(4,0,0,4,370.7143,347.4807)" fill="#5470c6" fill-opacity="0.8"></path>
<path d="M1 0A1 1 0 1 1 1 -0.1A1 1 0 0 1 1 0" transform="translate(336.6044 361.6095)" fill="#5470c6" fill-opacity="0.8"></path>
<path d="M1 0A1 1 0 1 1 1 -0.1A1 1 0 0 1 1 0" transform="matrix(5,0,0,5,300,366.4286)" fill="#5470c6" fill-opacity="0.8"></path>
<path d="M1 0A1 1 0 1 1 1 -0.1A1 1 0 0 1 1 0" transform="matrix(10,0,0,10,263.3956,361.6095)" fill="#5470c6" fill-opacity="0.8"></path>
<path d="M1 0A1 1 0 1 1 1 -0.1A1 1 0 0 1 1 0" transform="matrix(5,0,0,5,229.2857,347.4807)" fill="#5470c6" fill-opacity="0.8"></path>
<path d="M1 0A1 1 0 1 1 1 -0.1A1 1 0 0 1 1 0" transform="matrix(7,0,0,7,199.9949,325.0051)" fill="#5470c6" fill-opacity="0.8"></path>
<path d="M1 0A1 1 0 1 1 1 -0.01" transform="matrix(11,0,0,11,177.5193,295.7143)" fill="#5470c6" fill-opacity="0.8"></path>
<path d="M1 0A1 1 0 1 1 1 -0.1A1 1 0 0 1 1 0" transform="matrix(6,0,0,6,163.3905,261.6044)" fill="#5470c6" fill-opacity="0.8"></path>
<path d="M1 0A1 1 0 1 1 1 -0.1A1 1 0 0 1 1 0" transform="matrix(0,0,0,0,158.5714,225)" fill="#5470c6" fill-opacity="0.8"></path>
<path d="M1 0A1 1 0 1 1 1 -0.1A1 1 0 0 1 1 0" transform="matrix(5,0,0,5,163.3905,188.3956)" fill="#5470c6" fill-opacity="0.8"></path>
<path d="M1 0A1 1 0 1 1 1 -0.1A1 1 0 0 1 1 0" transform="matrix(3,0,0,3,177.5193,154.2857)" fill="#5470c6" fill-opacity="0.8"></path>
<path d="M1 0A1 1 0 1 1 1 -0.1A1 1 0 0 1 1 0" transform="matrix(4,0,0,4,199.9949,124.9949)" fill="#5470c6" fill-opacity="0.8"></path>
<path d="M1 0A1 1 0 1 1 1 -0.1A1 1 0 0 1 1 0" transform="matrix(2,0,0,2,229.2857,102.5193)" fill="#5470c6" fill-opacity="0.8"></path>
<path d="M1 0A1 1 0 1 1 1 -0.1A1 1 0 0 1 1 0" transform="matrix(0,0,0,0,263.3956,88.3905)" fill="#5470c6" fill-opacity="0.8"></path>
<path d="M1 0A1 1 0 1 1 1 -0.1A1 1 0 0 1 1 0" transform="translate(300 57.8571)" fill="#5470c6" fill-opacity="0.8"></path>
<path d="M1 0A1 1 0 1 1 1 -0.1A1 1 0 0 1 1 0" transform="matrix(0,0,0,0,343.2598,63.5524)" fill="#5470c6" fill-opacity="0.8"></path>
<path d="M1 0A1 1 0 1 1 1 -0.1A1 1 0 0 1 1 0" transform="matrix(0,0,0,0,383.5714,80.25)" fill="#5470c6" fill-opacity="0.8"></path>
<path d="M1 0A1 1 0 1 1 1 -0.1A1 1 0 0 1 1 0" transform="matrix(0,0,0,0,418.1878,106.8122)" fill="#5470c6" fill-opacity="0.8"></path>
<path d="M1 0A1 1 0 1 1 1 -0.1A1 1 0 0 1 1 0" transform="matrix(0,0,0,0,444.75,141.4286)" fill="#5470c6" fill-opacity="0.8"></path>
<path d="M1 0A1 1 0 1 1 1 -0.1A1 1 0 0 1 1 0" transform="matrix(0,0,0,0,461.4476,181.7402)" fill="#5470c6" fill-opacity="0.8"></path>
<path d="M1 0A1 1 0 1 1 1 -0.1A1 1 0 0 1 1 0" transform="matrix(0,0,0,0,467.1429,225)" fill="#5470c6" fill-opacity="0.8"></path>
<path d="M1 0A1 1 0 1 1 1 -0.1A1 1 0 0 1 1 0" transform="matrix(0,0,0,0,461.4476,268.2598)" fill="#5470c6" fill-opacity="0.8"></path>
<path d="M1 0A1 1 0 1 1 1 -0.1A1 1 0 0 1 1 0" transform="matrix(0,0,0,0,444.75,308.5714)" fill="#5470c6" fill-opacity="0.8"></path>
<path d="M1 0A1 1 0 1 1 1 -0.1A1 1 0 0 1 1 0" transform="matrix(0,0,0,0,418.1878,343.1878)" fill="#5470c6" fill-opacity="0.8"></path>
<path d="M1 0A1 1 0 1 1 1 -0.1A1 1 0 0 1 1 0" transform="translate(383.5714 369.75)" fill="#5470c6" fill-opacity="0.8"></path>
<path d="M1 0A1 1 0 1 1 1 -0.1A1 1 0 0 1 1 0" transform="matrix(0,0,0,0,343.2598,386.4476)" fill="#5470c6" fill-opacity="0.8"></path>
<path d="M1 0A1 1 0 1 1 1 -0.1A1 1 0 0 1 1 0" transform="matrix(2,0,0,2,300,392.1429)" fill="#5470c6" fill-opacity="0.8"></path>
<path d="M1 0A1 1 0 1 1 1 -0.1A1 1 0 0 1 1 0" transform="translate(256.7402 386.4476)" fill="#5470c6" fill-opacity="0.8"></path>
<path d="M1 0A1 1 0 1 1 1 -0.1A1 1 0 0 1 1 0" transform="matrix(3,0,0,3,216.4286,369.75)" fill="#5470c6" fill-opacity="0.8"></path>
<path d="M1 0A1 1 0 1 1 1 -0.1A1 1 0 0 1 1 0" transform="matrix(4,0,0,4,181.8122,343.1878)" fill="#5470c6" fill-opacity="0.8"></path>
<path d="M1 0A1 1 0 1 1 1 -0.1A1 1 0 0 1 1 0" transform="matrix(0,0,0,0,155.25,308.5714)" fill="#5470c6" fill-opacity="0.8"></path>
<path d="M1 0A1 1 0 1 1 1 -0.1A1 1 0 0 1 1 0" transform="matrix(0,0,0,0,138.5524,268.2598)" fill="#5470c6" fill-opacity="0.8"></path>
<path d="M1 0A1 1 0 1 1 1 -0.1A1 1 0 0 1 1 0" transform="matrix(0,0,0,0,132.8571,225)" fill="#5470c6" fill-opacity="0.8"></path>
<path d="M1 0A1 1 0 1 1 1 -0.1A1 1 0 0 1 1 0" transform="matrix(0,0,0,0,138.5524,181.7402)" fill="#5470c6" fill-opacity="0.8"></path>
<path d="M1 0A1 1 0 1 1 1 -0.1A1 1 0 0 1 1 0" transform="translate(155.25 141.4286)" fill="#5470c6" fill-opacity="0.8"></path>
<path d="M1 0A1 1 0 1 1 1 -0.1A1 1 0 0 1 1 0" transform="matrix(2,0,0,2,181.8122,106.8122)" fill="#5470c6" fill-opacity="0.8"></path>
<path d="M1 0A1 1 0 1 1 1 -0.1A1 1 0 0 1 1 0" transform="matrix(2,0,0,2,216.4286,80.25)" fill="#5470c6" fill-opacity="0.8"></path>
<path d="M1 0A1 1 0 1 1 1 -0.1A1 1 0 0 1 1 0" transform="matrix(6,0,0,6,256.7402,63.5524)" fill="#5470c6" fill-opacity="0.8"></path>
<path d="M-5 -5l98.1 0l0 24l-98.1 0Z" transform="translate(506.9 5)" fill="rgb(0,0,0)" fill-opacity="0" stroke="#ccc" stroke-width="0"></path>
<path d="M19.5 7A7 7 0 1 1 19.5 6.3A7 7 0 0 1 19.5 7" transform="translate(501.4 5)" fill="#5470c6" fill-opacity="0.8"></path>
<text dominant-baseline="central" text-anchor="start" style="font-size:12px;font-family:sans-serif;" xml:space="preserve" x="30" y="7" transform="translate(501.4 5)" fill="#333">Punch Card</text>
<path d="M-5 -5l183.9 0l0 28l-183.9 0Z" transform="translate(5 5)" fill="rgb(0,0,0)" fill-opacity="0" stroke="#ccc" stroke-width="0"></path>
<text dominant-baseline="central" text-anchor="start" style="font-size:18px;font-family:sans-serif;font-weight:bold;" xml:space="preserve" y="9" transform="translate(5 5)" fill="#464646">Punch Card of Github</text>
</svg>