<svg width="600" height="450" xmlns="http://www.w3.org/2000/svg" xmlns:xlink="http://www.w3.org/1999/xlink" version="1.1" baseProfile="full" viewBox="0 0 600 450">
<rect width="600" height="450" x="0" y="0" id="0" fill="none"></rect>
<path d="M0 227.7C109.5 227.7 109.5 52.7 219 52.7" transform="translate(42 4.5)" fill="none" stroke="#ccc" stroke-width="1.5"></path>
<path d="M0 227.7C109.5 227.7 109.5 62.3 219 62.3" transform="translate(42 4.5)" fill="none" stroke="#ccc" stroke-width="1.5"></path>
<path d="M219 62.3C328.5 62.3 328.5 9.6 438 9.6" transform="translate(42 4.5)" fill="none" stroke="#ccc" stroke-width="1.5"></path>
<path d="M219 62.3C328.5 62.3 328.5 19.2 438 19.2" transform="translate(42 4.5)" fill="none" stroke="#ccc" stroke-width="1.5"></path>
<path d="M219 62.3C328.5 62.3 328.5 28.8 438 28.8" transform="translate(42 4.5)" fill="none" stroke="#ccc" stroke-width="1.5"></path>
<path d="M219 62.3C328.5 62.3 328.5 38.3 438 38.3" transform="translate(42 4.5)" fill="none" stroke="#ccc" stroke-width="1.5"></path>
<path d="M219 62.3C328.5 62.3 328.5 47.9 438 47.9" transform="translate(42 4.5)" fill="none" stroke="#ccc" stroke-width="1.5"></path>
<path d="M219 62.3C328.5 62.3 328.5 57.5 438 57.5" transform="translate(42 4.5)" fill="none" stroke="#ccc" stroke-width="1.5"></path>
<path d="M219 62.3C328.5 62.3 328.5 67.1 438 67.1" transform="translate(42 4.5)" fill="none" stroke="#ccc" stroke-width="1.5"></path>
<path d="M219 62.3C328.5 62.3 328.5 76.7 438 76.7" transform="translate(42 4.5)" fill="none" stroke="#ccc" stroke-width="1.5"></path>
<path d="M219 62.3C328.5 62.3 328.5 86.3 438 86.3" transform="translate(42 4.5)" fill="none" stroke="#ccc" stroke-width="1.5"></path>
<path d="M219 62.3C328.5 62.3 328.5 95.9 438 95.9" transform="translate(42 4.5)" fill="none" stroke="#ccc" stroke-width="1.5"></path>
<path d="M219 62.3C328.5 62.3 328.5 105.5 438 105.5" transform="translate(42 4.5)" fill="none" stroke="#ccc" stroke-width="1.5"></path>
<path d="M219 62.3C328.5 62.3 328.5 115 438 115" transform="translate(42 4.5)" fill="none" stroke="#ccc" stroke-width="1.5"></path>
<path d="M0 227.7C109.5 227.7 109.5 105.5 219 105.5" transform="translate(42 4.5)" fill="none" stroke="#ccc" stroke-width="1.5"></path>
<path d="M0 227.7C109.5 227.7 109.5 148.6 219 148.6" transform="translate(42 4.5)" fill="none" stroke="#ccc" stroke-width="1.5"></path>
<path d="M219 148.6C328.5 148.6 328.5 134.2 438 134.2" transform="translate(42 4.5)" fill="none" stroke="#ccc" stroke-width="1.5"></path>
<path d="M219 148.6C328.5 148.6 328.5 143.8 438 143.8" transform="translate(42 4.5)" fill="none" stroke="#ccc" stroke-width="1.5"></path>
<path d="M219 148.6C328.5 148.6 328.5 153.4 438 153.4" transform="translate(42 4.5)" fill="none" stroke="#ccc" stroke-width="1.5"></path>
<path d="M219 148.6C328.5 148.6 328.5 163 438 163" transform="translate(42 4.5)" fill="none" stroke="#ccc" stroke-width="1.5"></path>
<path d="M0 227.7C109.5 227.7 109.5 182.2 219 182.2" transform="translate(42 4.5)" fill="none" stroke="#ccc" stroke-width="1.5"></path>
<path d="M0 227.7C109.5 227.7 109.5 215.7 219 215.7" transform="translate(42 4.5)" fill="none" stroke="#ccc" stroke-width="1.5"></path>
<path d="M219 215.7C328.5 215.7 328.5 182.2 438 182.2" transform="translate(42 4.5)" fill="none" stroke="#ccc" stroke-width="1.5"></path>
<path d="M219 215.7C328.5 215.7 328.5 191.7 438 191.7" transform="translate(42 4.5)" fill="none" stroke="#ccc" stroke-width="1.5"></path>
<path d="M219 215.7C328.5 215.7 328.5 201.3 438 201.3" transform="translate(42 4.5)" fill="none" stroke="#ccc" stroke-width="1.5"></path>
<path d="M219 215.7C328.5 215.7 328.5 210.9 438 210.9" transform="translate(42 4.5)" fill="none" stroke="#ccc" stroke-width="1.5"></path>
<path d="M219 215.7C328.5 215.7 328.5 220.5 438 220.5" transform="translate(42 4.5)" fill="none" stroke="#ccc" stroke-width="1.5"></path>
<path d="M219 215.7C328.5 215.7 328.5 230.1 438 230.1" transform="translate(42 4.5)" fill="none" stroke="#ccc" stroke-width="1.5"></path>
<path d="M219 215.7C328.5 215.7 328.5 239.7 438 239.7" transform="translate(42 4.5)" fill="none" stroke="#ccc" stroke-width="1.5"></path>
<path d="M219 215.7C328.5 215.7 328.5 249.3 438 249.3" transform="translate(42 4.5)" fill="none" stroke="#ccc" stroke-width="1.5"></path>
<path d="M0 227.7C109.5 227.7 109.5 263.6 219 263.6" transform="translate(42 4.5)" fill="none" stroke="#ccc" stroke-width="1.5"></path>
<path d="M0 227.7C109.5 227.7 109.5 311.6 219 311.6" transform="translate(42 4.5)" fill="none" stroke="#ccc" stroke-width="1.5"></path>
<path d="M219 311.6C328.5 311.6 328.5 268.4 438 268.4" transform="translate(42 4.5)" fill="none" stroke="#ccc" stroke-width="1.5"></path>
<path d="M219 311.6C328.5 311.6 328.5 278 438 278" transform="translate(42 4.5)" fill="none" stroke="#ccc" stroke-width="1.5"></path>
<path d="M219 311.6C328.5 311.6 328.5 287.6 438 287.6" transform="translate(42 4.5)" fill="none" stroke="#ccc" stroke-width="1.5"></path>
<path d="M219 311.6C328.5 311.6 328.5 297.2 438 297.2" transform="translate(42 4.5)" fill="none" stroke="#ccc" stroke-width="1.5"></path>
<path d="M219 311.6C328.5 311.6 328.5 306.8 438 306.8" transform="translate(42 4.5)" fill="none" stroke="#ccc" stroke-width="1.5"></path>
<path d="M219 311.6C328.5 311.6 328.5 316.4 438 316.4" transform="translate(42 4.5)" fill="none" stroke="#ccc" stroke-width="1.5"></path>
<path d="M219 311.6C328.5 311.6 328.5 326 438 326" transform="translate(42 4.5)" fill="none" stroke="#ccc" stroke-width="1.5"></path>
<path d="M219 311.6C328.5 311.6 328.5 335.5 438 335.5" transform="translate(42 4.5)" fill="none" stroke="#ccc" stroke-width="1.5"></path>
<path d="M219 311.6C328.5 311.6 328.5 345.1 438 345.1" transform="translate(42 4.5)" fill="none" stroke="#ccc" stroke-width="1.5"></path>
<path d="M219 311.6C328.5 311.6 328.5 354.7 438 354.7" transform="translate(42 4.5)" fill="none" stroke="#ccc" stroke-width="1.5"></path>
<path d="M0 227.7C109.5 227.7 109.5 357.1 219 357.1" transform="translate(42 4.5)" fill="none" stroke="#ccc" stroke-width="1.5"></path>
<path d="M0 227.7C109.5 227.7 109.5 402.7 219 402.7" transform="translate(42 4.5)" fill="none" stroke="#ccc" stroke-width="1.5"></path>
<path d="M219 402.7C328.5 402.7 328.5 373.9 438 373.9" transform="translate(42 4.5)" fill="none" stroke="#ccc" stroke-width="1.5"></path>
<path d="M219 402.7C328.5 402.7 328.5 383.5 438 383.5" transform="translate(42 4.5)" fill="none" stroke="#ccc" stroke-width="1.5"></path>
<path d="M219 402.7C328.5 402.7 328.5 393.1 438 393.1" transform="translate(42 4.5)" fill="none" stroke="#ccc" stroke-width="1.5"></path>
<path d="M219 402.7C328.5 402.7 328.5 402.7 438 402.7" transform="translate(42 4.5)" fill="none" stroke="#ccc" stroke-width="1.5"></path>
<path d="M219 402.7C328.5 402.7 328.5 412.2 438 412.2" transform="translate(42 4.5)" fill="none" stroke="#ccc" stroke-width="1.5"></path>
<path d="M219 402.7C328.5 402.7 328.5 421.8 438 421.8" transform="translate(42 4.5)" fill="none" stroke="#ccc" stroke-width="1.5"></path>
<path d="M219 402.7C328.5 402.7 328.5 431.4 438 431.4" transform="translate(42 4.5)" fill="none" stroke="#ccc" stroke-width="1.5"></path>
<path d="M1 0A1 1 0 1 1 1 -0.1A1 1 0 0 1 1 0" transform="matrix(3.5,0,0,3.5,42,232.1902)" fill="#fff" stroke="lightsteelblue" stroke-width="0.5714285714285714"></path>
<path d="M1 0A1 1 0 1 1 1 -0.1A1 1 0 0 1 1 0" transform="matrix(3.5,0,0,3.5,261,57.2283)" fill="lightsteelblue" stroke="lightsteelblue" stroke-width="0.5714285714285714"></path>
<path d="M1 0A1 1 0 1 1 1 -0.1A1 1 0 0 1 1 0" transform="matrix(3.5,0,0,3.5,261,66.8152)" fill="#fff" stroke="lightsteelblue" stroke-width="0.5714285714285714"></path>
<path d="M1 0A1 1 0 1 1 1 -0.1A1 1 0 0 1 1 0" transform="matrix(3.5,0,0,3.5,480,14.087)" fill="#fff" stroke="lightsteelblue" stroke-width="0.5714285714285714"></path>
<path d="M1 0A1 1 0 1 1 1 -0.1A1 1 0 0 1 1 0" transform="matrix(3.5,0,0,3.5,480,23.6739)" fill="#fff" stroke="lightsteelblue" stroke-width="0.5714285714285714"></path>
<path d="M1 0A1 1 0 1 1 1 -0.1A1 1 0 0 1 1 0" transform="matrix(3.5,0,0,3.5,480,33.2609)" fill="lightsteelblue" stroke="lightsteelblue" stroke-width="0.5714285714285714"></path>
<path d="M1 0A1 1 0 1 1 1 -0.1A1 1 0 0 1 1 0" transform="matrix(3.5,0,0,3.5,480,42.8478)" fill="#fff" stroke="lightsteelblue" stroke-width="0.5714285714285714"></path>
<path d="M1 0A1 1 0 1 1 1 -0.1A1 1 0 0 1 1 0" transform="matrix(3.5,0,0,3.5,480,52.4348)" fill="#fff" stroke="lightsteelblue" stroke-width="0.5714285714285714"></path>
<path d="M1 0A1 1 0 1 1 1 -0.1A1 1 0 0 1 1 0" transform="matrix(3.5,0,0,3.5,480,62.0217)" fill="#fff" stroke="lightsteelblue" stroke-width="0.5714285714285714"></path>
<path d="M1 0A1 1 0 1 1 1 -0.1A1 1 0 0 1 1 0" transform="matrix(3.5,0,0,3.5,480,71.6087)" fill="#fff" stroke="lightsteelblue" stroke-width="0.5714285714285714"></path>
<path d="M1 0A1 1 0 1 1 1 -0.1A1 1 0 0 1 1 0" transform="matrix(3.5,0,0,3.5,480,81.1957)" fill="#fff" stroke="lightsteelblue" stroke-width="0.5714285714285714"></path>
<path d="M1 0A1 1 0 1 1 1 -0.1A1 1 0 0 1 1 0" transform="matrix(3.5,0,0,3.5,480,90.7826)" fill="#fff" stroke="lightsteelblue" stroke-width="0.5714285714285714"></path>
<path d="M1 0A1 1 0 1 1 1 -0.1A1 1 0 0 1 1 0" transform="matrix(3.5,0,0,3.5,480,100.3696)" fill="#fff" stroke="lightsteelblue" stroke-width="0.5714285714285714"></path>
<path d="M1 0A1 1 0 1 1 1 -0.1A1 1 0 0 1 1 0" transform="matrix(3.5,0,0,3.5,480,109.9565)" fill="#fff" stroke="lightsteelblue" stroke-width="0.5714285714285714"></path>
<path d="M1 0A1 1 0 1 1 1 -0.1A1 1 0 0 1 1 0" transform="matrix(3.5,0,0,3.5,480,119.5435)" fill="#fff" stroke="lightsteelblue" stroke-width="0.5714285714285714"></path>
<path d="M1 0A1 1 0 1 1 1 -0.1A1 1 0 0 1 1 0" transform="matrix(3.5,0,0,3.5,261,109.9565)" fill="lightsteelblue" stroke="lightsteelblue" stroke-width="0.5714285714285714"></path>
<path d="M1 0A1 1 0 1 1 1 -0.1A1 1 0 0 1 1 0" transform="matrix(3.5,0,0,3.5,261,153.0978)" fill="#fff" stroke="lightsteelblue" stroke-width="0.5714285714285714"></path>
<path d="M1 0A1 1 0 1 1 1 -0.1A1 1 0 0 1 1 0" transform="matrix(3.5,0,0,3.5,480,138.7174)" fill="#fff" stroke="lightsteelblue" stroke-width="0.5714285714285714"></path>
<path d="M1 0A1 1 0 1 1 1 -0.1A1 1 0 0 1 1 0" transform="matrix(3.5,0,0,3.5,480,148.3043)" fill="#fff" stroke="lightsteelblue" stroke-width="0.5714285714285714"></path>
<path d="M1 0A1 1 0 1 1 1 -0.1A1 1 0 0 1 1 0" transform="matrix(3.5,0,0,3.5,480,157.8913)" fill="#fff" stroke="lightsteelblue" stroke-width="0.5714285714285714"></path>
<path d="M1 0A1 1 0 1 1 1 -0.1A1 1 0 0 1 1 0" transform="matrix(3.5,0,0,3.5,480,167.4783)" fill="#fff" stroke="lightsteelblue" stroke-width="0.5714285714285714"></path>
<path d="M1 0A1 1 0 1 1 1 -0.1A1 1 0 0 1 1 0" transform="matrix(3.5,0,0,3.5,261,186.6522)" fill="lightsteelblue" stroke="lightsteelblue" stroke-width="0.5714285714285714"></path>
<path d="M1 0A1 1 0 1 1 1 -0.1A1 1 0 0 1 1 0" transform="matrix(3.5,0,0,3.5,261,220.2065)" fill="#fff" stroke="lightsteelblue" stroke-width="0.5714285714285714"></path>
<path d="M1 0A1 1 0 1 1 1 -0.1A1 1 0 0 1 1 0" transform="matrix(3.5,0,0,3.5,480,186.6522)" fill="#fff" stroke="lightsteelblue" stroke-width="0.5714285714285714"></path>
<path d="M1 0A1 1 0 1 1 1 -0.1A1 1 0 0 1 1 0" transform="matrix(3.5,0,0,3.5,480,196.2391)" fill="#fff" stroke="lightsteelblue" stroke-width="0.5714285714285714"></path>
<path d="M1 0A1 1 0 1 1 1 -0.1A1 1 0 0 1 1 0" transform="matrix(3.5,0,0,3.5,480,205.8261)" fill="#fff" stroke="lightsteelblue" stroke-width="0.5714285714285714"></path>
<path d="M1 0A1 1 0 1 1 1 -0.1A1 1 0 0 1 1 0" transform="matrix(3.5,0,0,3.5,480,215.413)" fill="#fff" stroke="lightsteelblue" stroke-width="0.5714285714285714"></path>
<path d="M1 0A1 1 0 1 1 1 -0.1A1 1 0 0 1 1 0" transform="matrix(3.5,0,0,3.5,480,225)" fill="#fff" stroke="lightsteelblue" stroke-width="0.5714285714285714"></path>
<path d="M1 0A1 1 0 1 1 1 -0.1A1 1 0 0 1 1 0" transform="matrix(3.5,0,0,3.5,480,234.587)" fill="#fff" stroke="lightsteelblue" stroke-width="0.5714285714285714"></path>
<path d="M1 0A1 1 0 1 1 1 -0.1A1 1 0 0 1 1 0" transform="matrix(3.5,0,0,3.5,480,244.1739)" fill="#fff" stroke="lightsteelblue" stroke-width="0.5714285714285714"></path>
<path d="M1 0A1 1 0 1 1 1 -0.1A1 1 0 0 1 1 0" transform="matrix(3.5,0,0,3.5,480,253.7609)" fill="#fff" stroke="lightsteelblue" stroke-width="0.5714285714285714"></path>
<path d="M1 0A1 1 0 1 1 1 -0.1A1 1 0 0 1 1 0" transform="matrix(3.5,0,0,3.5,261,268.1413)" fill="lightsteelblue" stroke="lightsteelblue" stroke-width="0.5714285714285714"></path>
<path d="M1 0A1 1 0 1 1 1 -0.1A1 1 0 0 1 1 0" transform="matrix(3.5,0,0,3.5,261,316.0761)" fill="#fff" stroke="lightsteelblue" stroke-width="0.5714285714285714"></path>
<path d="M1 0A1 1 0 1 1 1 -0.1A1 1 0 0 1 1 0" transform="matrix(3.5,0,0,3.5,480,272.9348)" fill="#fff" stroke="lightsteelblue" stroke-width="0.5714285714285714"></path>
<path d="M1 0A1 1 0 1 1 1 -0.1A1 1 0 0 1 1 0" transform="matrix(3.5,0,0,3.5,480,282.5217)" fill="#fff" stroke="lightsteelblue" stroke-width="0.5714285714285714"></path>
<path d="M1 0A1 1 0 1 1 1 -0.1A1 1 0 0 1 1 0" transform="matrix(3.5,0,0,3.5,480,292.1087)" fill="#fff" stroke="lightsteelblue" stroke-width="0.5714285714285714"></path>
<path d="M1 0A1 1 0 1 1 1 -0.1A1 1 0 0 1 1 0" transform="matrix(3.5,0,0,3.5,480,301.6957)" fill="#fff" stroke="lightsteelblue" stroke-width="0.5714285714285714"></path>
<path d="M1 0A1 1 0 1 1 1 -0.1A1 1 0 0 1 1 0" transform="matrix(3.5,0,0,3.5,480,311.2826)" fill="#fff" stroke="lightsteelblue" stroke-width="0.5714285714285714"></path>
<path d="M1 0A1 1 0 1 1 1 -0.1A1 1 0 0 1 1 0" transform="matrix(3.5,0,0,3.5,480,320.8696)" fill="#fff" stroke="lightsteelblue" stroke-width="0.5714285714285714"></path>
<path d="M1 0A1 1 0 1 1 1 -0.1A1 1 0 0 1 1 0" transform="matrix(3.5,0,0,3.5,480,330.4565)" fill="#fff" stroke="lightsteelblue" stroke-width="0.5714285714285714"></path>
<path d="M1 0A1 1 0 1 1 1 -0.1A1 1 0 0 1 1 0" transform="matrix(3.5,0,0,3.5,480,340.0435)" fill="#fff" stroke="lightsteelblue" stroke-width="0.5714285714285714"></path>
<path d="M1 0A1 1 0 1 1 1 -0.1A1 1 0 0 1 1 0" transform="matrix(3.5,0,0,3.5,480,349.6304)" fill="#fff" stroke="lightsteelblue" stroke-width="0.5714285714285714"></path>
<path d="M1 0A1 1 0 1 1 1 -0.1A1 1 0 0 1 1 0" transform="matrix(3.5,0,0,3.5,480,359.2174)" fill="#fff" stroke="lightsteelblue" stroke-width="0.5714285714285714"></path>
<path d="M1 0A1 1 0 1 1 1 -0.1A1 1 0 0 1 1 0" transform="matrix(3.5,0,0,3.5,261,361.6141)" fill="lightsteelblue" stroke="lightsteelblue" stroke-width="0.5714285714285714"></path>
<path d="M1 0A1 1 0 1 1 1 -0.1A1 1 0 0 1 1 0" transform="matrix(3.5,0,0,3.5,261,407.1522)" fill="#fff" stroke="lightsteelblue" stroke-width="0.5714285714285714"></path>
<path d="M1 0A1 1 0 1 1 1 -0.1A1 1 0 0 1 1 0" transform="matrix(3.5,0,0,3.5,480,378.3913)" fill="lightsteelblue" stroke="lightsteelblue" stroke-width="0.5714285714285714"></path>
<path d="M1 0A1 1 0 1 1 1 -0.1A1 1 0 0 1 1 0" transform="matrix(3.5,0,0,3.5,480,387.9783)" fill="lightsteelblue" stroke="lightsteelblue" stroke-width="0.5714285714285714"></path>
<path d="M1 0A1 1 0 1 1 1 -0.1A1 1 0 0 1 1 0" transform="matrix(3.5,0,0,3.5,480,397.5652)" fill="lightsteelblue" stroke="lightsteelblue" stroke-width="0.5714285714285714"></path>
<path d="M1 0A1 1 0 1 1 1 -0.1A1 1 0 0 1 1 0" transform="matrix(3.5,0,0,3.5,480,407.1522)" fill="lightsteelblue" stroke="lightsteelblue" stroke-width="0.5714285714285714"></path>
<path d="M1 0A1 1 0 1 1 1 -0.1A1 1 0 0 1 1 0" transform="matrix(3.5,0,0,3.5,480,416.7391)" fill="lightsteelblue" stroke="lightsteelblue" stroke-width="0.5714285714285714"></path>
<path d="M1 0A1 1 0 1 1 1 -0.1A1 1 0 0 1 1 0" transform="matrix(3.5,0,0,3.5,480,426.3261)" fill="lightsteelblue" stroke="lightsteelblue" stroke-width="0.5714285714285714"></path>
<path d="M1 0A1 1 0 1 1 1 -0.1A1 1 0 0 1 1 0" transform="matrix(3.5,0,0,3.5,480,435.913)" fill="#fff" stroke="lightsteelblue" stroke-width="0.5714285714285714"></path>
<text dominant-baseline="central" text-anchor="end" style="font-size:9px;font-family:sans-serif;" transform="translate(32.5 232.1902)" fill="#333" stroke="rgb(255,255,255)" stroke-width="2" paint-order="stroke" stroke-miterlimit="2">flare</text>
<text dominant-baseline="central" text-anchor="end" style="font-size:9px;font-family:sans-serif;" transform="translate(251.5 57.2283)" fill="#333" stroke="rgb(255,255,255)" stroke-width="2" paint-order="stroke" stroke-miterlimit="2">analytics</text>
<text dominant-baseline="central" text-anchor="end" style="font-size:9px;font-family:sans-serif;" transform="translate(251.5 66.8152)" fill="#333" stroke="rgb(255,255,255)" stroke-width="2" paint-order="stroke" stroke-miterlimit="2">animate</text>
<text dominant-baseline="central" text-anchor="end" style="font-size:9px;font-family:sans-serif;" transform="translate(470.5 14.087)" fill="#333" stroke="rgb(255,255,255)" stroke-width="2" paint-order="stroke" stroke-miterlimit="2">Easing</text>
<text dominant-baseline="central" text-anchor="end" style="font-size:9px;font-family:sans-serif;" transform="translate(470.5 23.6739)" fill="#333" stroke="rgb(255,255,255)" stroke-width="2" paint-order="stroke" stroke-miterlimit="2">FunctionSequence</text>
<text dominant-baseline="central" text-anchor="end" style="font-size:9px;font-family:sans-serif;" transform="translate(470.5 33.2609)" fill="#333" stroke="rgb(255,255,255)" stroke-width="2" paint-order="stroke" stroke-miterlimit="2">interpolate</text>
<text dominant-baseline="central" text-anchor="end" style="font-size:9px;font-family:sans-serif;" transform="translate(470.5 42.8478)" fill="#333" stroke="rgb(255,255,255)" stroke-width="2" paint-order="stroke" stroke-miterlimit="2">ISchedulable</text>
<text dominant-baseline="central" text-anchor="end" style="font-size:9px;font-family:sans-serif;" transform="translate(470.5 52.4348)" fill="#333" stroke="rgb(255,255,255)" stroke-width="2" paint-order="stroke" stroke-miterlimit="2">Parallel</text>
<text dominant-baseline="central" text-anchor="end" style="font-size:9px;font-family:sans-serif;" transform="translate(470.5 62.0217)" fill="#333" stroke="rgb(255,255,255)" stroke-width="2" paint-order="stroke" stroke-miterlimit="2">Pause</text>
<text dominant-baseline="central" text-anchor="end" style="font-size:9px;font-family:sans-serif;" transform="translate(470.5 71.6087)" fill="#333" stroke="rgb(255,255,255)" stroke-width="2" paint-order="stroke" stroke-miterlimit="2">Scheduler</text>
<text dominant-baseline="central" text-anchor="end" style="font-size:9px;font-family:sans-serif;" transform="translate(470.5 81.1957)" fill="#333" stroke="rgb(255,255,255)" stroke-width="2" paint-order="stroke" stroke-miterlimit="2">Sequence</text>
<text dominant-baseline="central" text-anchor="end" style="font-size:9px;font-family:sans-serif;" transform="translate(470.5 90.7826)" fill="#333" stroke="rgb(255,255,255)" stroke-width="2" paint-order="stroke" stroke-miterlimit="2">Transition</text>
<text dominant-baseline="central" text-anchor="end" style="font-size:9px;font-family:sans-serif;" transform="translate(470.5 100.3696)" fill="#333" stroke="rgb(255,255,255)" stroke-width="2" paint-order="stroke" stroke-miterlimit="2">Transitioner</text>
<text dominant-baseline="central" text-anchor="end" style="font-size:9px;font-family:sans-serif;" transform="translate(470.5 109.9565)" fill="#333" stroke="rgb(255,255,255)" stroke-width="2" paint-order="stroke" stroke-miterlimit="2">TransitionEvent</text>
<text dominant-baseline="central" text-anchor="end" style="font-size:9px;font-family:sans-serif;" transform="translate(470.5 119.5435)" fill="#333" stroke="rgb(255,255,255)" stroke-width="2" paint-order="stroke" stroke-miterlimit="2">Tween</text>
<text dominant-baseline="central" text-anchor="end" style="font-size:9px;font-family:sans-serif;" transform="translate(251.5 109.9565)" fill="#333" stroke="rgb(255,255,255)" stroke-width="2" paint-order="stroke" stroke-miterlimit="2">data</text>
<text dominant-baseline="central" text-anchor="end" style="font-size:9px;font-family:sans-serif;" transform="translate(251.5 153.0978)" fill="#333" stroke="rgb(255,255,255)" stroke-width="2" paint-order="stroke" stroke-miterlimit="2">display</text>
<text dominant-baseline="central" text-anchor="end" style="font-size:9px;font-family:sans-serif;" transform="translate(470.5 138.7174)" fill="#333" stroke="rgb(255,255,255)" stroke-width="2" paint-order="stroke" stroke-miterlimit="2">DirtySprite</text>
<text dominant-baseline="central" text-anchor="end" style="font-size:9px;font-family:sans-serif;" transform="translate(470.5 148.3043)" fill="#333" stroke="rgb(255,255,255)" stroke-width="2" paint-order="stroke" stroke-miterlimit="2">LineSprite</text>
<text dominant-baseline="central" text-anchor="end" style="font-size:9px;font-family:sans-serif;" transform="translate(470.5 157.8913)" fill="#333" stroke="rgb(255,255,255)" stroke-width="2" paint-order="stroke" stroke-miterlimit="2">RectSprite</text>
<text dominant-baseline="central" text-anchor="end" style="font-size:9px;font-family:sans-serif;" transform="translate(470.5 167.4783)" fill="#333" stroke="rgb(255,255,255)" stroke-width="2" paint-order="stroke" stroke-miterlimit="2">TextSprite</text>
<text dominant-baseline="central" text-anchor="end" style="font-size:9px;font-family:sans-serif;" transform="translate(251.5 186.6522)" fill="#333" stroke="rgb(255,255,255)" stroke-width="2" paint-order="stroke" stroke-miterlimit="2">flex</text>
<text dominant-baseline="central" text-anchor="end" style="font-size:9px;font-family:sans-serif;" transform="translate(251.5 220.2065)" fill="#333" stroke="rgb(255,255,255)" stroke-width="2" paint-order="stroke" stroke-miterlimit="2">physics</text>
<text dominant-baseline="central" text-anchor="end" style="font-size:9px;font-family:sans-serif;" transform="translate(470.5 186.6522)" fill="#333" stroke="rgb(255,255,255)" stroke-width="2" paint-order="stroke" stroke-miterlimit="2">DragForce</text>
<text dominant-baseline="central" text-anchor="end" style="font-size:9px;font-family:sans-serif;" transform="translate(470.5 196.2391)" fill="#333" stroke="rgb(255,255,255)" stroke-width="2" paint-order="stroke" stroke-miterlimit="2">GravityForce</text>
<text dominant-baseline="central" text-anchor="end" style="font-size:9px;font-family:sans-serif;" transform="translate(470.5 205.8261)" fill="#333" stroke="rgb(255,255,255)" stroke-width="2" paint-order="stroke" stroke-miterlimit="2">IForce</text>
<text dominant-baseline="central" text-anchor="end" style="font-size:9px;font-family:sans-serif;" transform="translate(470.5 215.413)" fill="#333" stroke="rgb(255,255,255)" stroke-width="2" paint-order="stroke" stroke-miterlimit="2">NBodyForce</text>
<text dominant-baseline="central" text-anchor="end" style="font-size:9px;font-family:sans-serif;" transform="translate(470.5 225)" fill="#333" stroke="rgb(255,255,255)" stroke-width="2" paint-order="stroke" stroke-miterlimit="2">Particle</text>
<text dominant-baseline="central" text-anchor="end" style="font-size:9px;font-family:sans-serif;" transform="translate(470.5 234.587)" fill="#333" stroke="rgb(255,255,255)" stroke-width="2" paint-order="stroke" stroke-miterlimit="2">Simulation</text>
<text dominant-baseline="central" text-anchor="end" style="font-size:9px;font-family:sans-serif;" transform="translate(470.5 244.1739)" fill="#333" stroke="rgb(255,255,255)" stroke-width="2" paint-order="stroke" stroke-miterlimit="2">Spring</text>
<text dominant-baseline="central" text-anchor="end" style="font-size:9px;font-family:sans-serif;" transform="translate(470.5 253.7609)" fill="#333" stroke="rgb(255,255,255)" stroke-width="2" paint-order="stroke" stroke-miterlimit="2">SpringForce</text>
<text dominant-baseline="central" text-anchor="end" style="font-size:9px;font-family:sans-serif;" transform="translate(251.5 268.1413)" fill="#333" stroke="rgb(255,255,255)" stroke-width="2" paint-order="stroke" stroke-miterlimit="2">query</text>
<text dominant-baseline="central" text-anchor="end" style="font-size:9px;font-family:sans-serif;" transform="translate(251.5 316.0761)" fill="#333" stroke="rgb(255,255,255)" stroke-width="2" paint-order="stroke" stroke-miterlimit="2">scale</text>
<text dominant-baseline="central" text-anchor="end" style="font-size:9px;font-family:sans-serif;" transform="translate(470.5 272.9348)" fill="#333" stroke="rgb(255,255,255)" stroke-width="2" paint-order="stroke" stroke-miterlimit="2">IScaleMap</text>
<text dominant-baseline="central" text-anchor="end" style="font-size:9px;font-family:sans-serif;" transform="translate(470.5 282.5217)" fill="#333" stroke="rgb(255,255,255)" stroke-width="2" paint-order="stroke" stroke-miterlimit="2">LinearScale</text>
<text dominant-baseline="central" text-anchor="end" style="font-size:9px;font-family:sans-serif;" transform="translate(470.5 292.1087)" fill="#333" stroke="rgb(255,255,255)" stroke-width="2" paint-order="stroke" stroke-miterlimit="2">LogScale</text>
<text dominant-baseline="central" text-anchor="end" style="font-size:9px;font-family:sans-serif;" transform="translate(470.5 301.6957)" fill="#333" stroke="rgb(255,255,255)" stroke-width="2" paint-order="stroke" stroke-miterlimit="2">OrdinalScale</text>
<text dominant-baseline="central" text-anchor="end" style="font-size:9px;font-family:sans-serif;" transform="translate(470.5 311.2826)" fill="#333" stroke="rgb(255,255,255)" stroke-width="2" paint-order="stroke" stroke-miterlimit="2">QuantileScale</text>
<text dominant-baseline="central" text-anchor="end" style="font-size:9px;font-family:sans-serif;" transform="translate(470.5 320.8696)" fill="#333" stroke="rgb(255,255,255)" stroke-width="2" paint-order="stroke" stroke-miterlimit="2">QuantitativeScale</text>
<text dominant-baseline="central" text-anchor="end" style="font-size:9px;font-family:sans-serif;" transform="translate(470.5 330.4565)" fill="#333" stroke="rgb(255,255,255)" stroke-width="2" paint-order="stroke" stroke-miterlimit="2">RootScale</text>
<text dominant-baseline="central" text-anchor="end" style="font-size:9px;font-family:sans-serif;" transform="translate(470.5 340.0435)" fill="#333" stroke="rgb(255,255,255)" stroke-width="2" paint-order="stroke" stroke-miterlimit="2">Scale</text>
<text dominant-baseline="central" text-anchor="end" style="font-size:9px;font-family:sans-serif;" transform="translate(470.5 349.6304)" fill="#333" stroke="rgb(255,255,255)" stroke-width="2" paint-order="stroke" stroke-miterlimit="2">ScaleType</text>
<text dominant-baseline="central" text-anchor="end" style="font-size:9px;font-family:sans-serif;" transform="translate(470.5 359.2174)" fill="#333" stroke="rgb(255,255,255)" stroke-width="2" paint-order="stroke" stroke-miterlimit="2">TimeScale</text>
<text dominant-baseline="central" text-anchor="end" style="font-size:9px;font-family:sans-serif;" transform="translate(251.5 361.6141)" fill="#333" stroke="rgb(255,255,255)" stroke-width="2" paint-order="stroke" stroke-miterlimit="2">util</text>
<text dominant-baseline="central" text-anchor="end" style="font-size:9px;font-family:sans-serif;" transform="translate(251.5 407.1522)" fill="#333" stroke="rgb(255,255,255)" stroke-width="2" paint-order="stroke" stroke-miterlimit="2">vis</text>
<text dominant-baseline="central" text-anchor="end" style="font-size:9px;font-family:sans-serif;" transform="translate(470.5 378.3913)" fill="#333" stroke="rgb(255,255,255)" stroke-width="2" paint-order="stroke" stroke-miterlimit="2">axis</text>
<text dominant-baseline="central" text-anchor="end" style="font-size:9px;font-family:sans-serif;" transform="translate(470.5 387.9783)" fill="#333" stroke="rgb(255,255,255)" stroke-width="2" paint-order="stroke" stroke-miterlimit="2">controls</text>
<text dominant-baseline="central" text-anchor="end" style="font-size:9px;font-family:sans-serif;" transform="translate(470.5 397.5652)" fill="#333" stroke="rgb(255,255,255)" stroke-width="2" paint-order="stroke" stroke-miterlimit="2">data</text>
<text dominant-baseline="central" text-anchor="end" style="font-size:9px;font-family:sans-serif;" transform="translate(470.5 407.1522)" fill="#333" stroke="rgb(255,255,255)" stroke-width="2" paint-order="stroke" stroke-miterlimit="2">events</text>
<text dominant-baseline="central" text-anchor="end" style="font-size:9px;font-family:sans-serif;" transform="translate(470.5 416.7391)" fill="#333" stroke="rgb(255,255,255)" stroke-width="2" paint-order="stroke" stroke-miterlimit="2">legend</text>
<text dominant-baseline="central" text-anchor="end" style="font-size:9px;font-family:sans-serif;" transform="translate(470.5 426.3261)" fill="#333" stroke="rgb(255,255,255)" stroke-width="2" paint-order="stroke" stroke-miterlimit="2">operator</text>
<text dominant-baseline="central" text-anchor="end" style="font-size:9px;font-family:sans-serif;" transform="translate(470.5 435.913)" fill="#333" stroke="rgb(255,255,255)" stroke-width="2" paint-order="stroke" stroke-miterlimit="2">Visualization</text>
</svg>