<svg width="600" height="450" xmlns="http://www.w3.org/2000/svg" xmlns:xlink="http://www.w3.org/1999/xlink" version="1.1" baseProfile="full" viewBox="0 0 600 450">
<rect width="600" height="450" x="0" y="0" id="0" fill="none"></rect>
<path d="M0 192.5C49.5 192.5 49.5 12.6 99 12.6" transform="translate(42 22.5)" fill="none" stroke="#ccc" stroke-width="1.5"></path>
<path d="M99 12.6C148.5 12.6 148.5 8.4 198 8.4" transform="translate(42 22.5)" fill="none" stroke="#ccc" stroke-width="1.5"></path>
<path d="M99 12.6C148.5 12.6 148.5 16.7 198 16.7" transform="translate(42 22.5)" fill="none" stroke="#ccc" stroke-width="1.5"></path>
<path d="M0 192.5C49.5 192.5 49.5 41.8 99 41.8" transform="translate(42 22.5)" fill="none" stroke="#ccc" stroke-width="1.5"></path>
<path d="M99 41.8C148.5 41.8 148.5 33.5 198 33.5" transform="translate(42 22.5)" fill="none" stroke="#ccc" stroke-width="1.5"></path>
<path d="M99 41.8C148.5 41.8 148.5 41.8 198 41.8" transform="translate(42 22.5)" fill="none" stroke="#ccc" stroke-width="1.5"></path>
<path d="M99 41.8C148.5 41.8 148.5 50.2 198 50.2" transform="translate(42 22.5)" fill="none" stroke="#ccc" stroke-width="1.5"></path>
<path d="M0 192.5C49.5 192.5 49.5 67 99 67" transform="translate(42 22.5)" fill="none" stroke="#ccc" stroke-width="1.5"></path>
<path d="M99 67C148.5 67 148.5 67 198 67" transform="translate(42 22.5)" fill="none" stroke="#ccc" stroke-width="1.5"></path>
<path d="M0 192.5C49.5 192.5 49.5 200.9 99 200.9" transform="translate(42 22.5)" fill="none" stroke="#ccc" stroke-width="1.5"></path>
<path d="M99 200.9C148.5 200.9 148.5 83.7 198 83.7" transform="translate(42 22.5)" fill="none" stroke="#ccc" stroke-width="1.5"></path>
<path d="M99 200.9C148.5 200.9 148.5 92.1 198 92.1" transform="translate(42 22.5)" fill="none" stroke="#ccc" stroke-width="1.5"></path>
<path d="M99 200.9C148.5 200.9 148.5 100.4 198 100.4" transform="translate(42 22.5)" fill="none" stroke="#ccc" stroke-width="1.5"></path>
<path d="M99 200.9C148.5 200.9 148.5 108.8 198 108.8" transform="translate(42 22.5)" fill="none" stroke="#ccc" stroke-width="1.5"></path>
<path d="M99 200.9C148.5 200.9 148.5 117.2 198 117.2" transform="translate(42 22.5)" fill="none" stroke="#ccc" stroke-width="1.5"></path>
<path d="M99 200.9C148.5 200.9 148.5 125.5 198 125.5" transform="translate(42 22.5)" fill="none" stroke="#ccc" stroke-width="1.5"></path>
<path d="M99 200.9C148.5 200.9 148.5 133.9 198 133.9" transform="translate(42 22.5)" fill="none" stroke="#ccc" stroke-width="1.5"></path>
<path d="M99 200.9C148.5 200.9 148.5 142.3 198 142.3" transform="translate(42 22.5)" fill="none" stroke="#ccc" stroke-width="1.5"></path>
<path d="M99 200.9C148.5 200.9 148.5 150.7 198 150.7" transform="translate(42 22.5)" fill="none" stroke="#ccc" stroke-width="1.5"></path>
<path d="M99 200.9C148.5 200.9 148.5 159 198 159" transform="translate(42 22.5)" fill="none" stroke="#ccc" stroke-width="1.5"></path>
<path d="M99 200.9C148.5 200.9 148.5 167.4 198 167.4" transform="translate(42 22.5)" fill="none" stroke="#ccc" stroke-width="1.5"></path>
<path d="M99 200.9C148.5 200.9 148.5 175.8 198 175.8" transform="translate(42 22.5)" fill="none" stroke="#ccc" stroke-width="1.5"></path>
<path d="M99 200.9C148.5 200.9 148.5 184.1 198 184.1" transform="translate(42 22.5)" fill="none" stroke="#ccc" stroke-width="1.5"></path>
<path d="M99 200.9C148.5 200.9 148.5 192.5 198 192.5" transform="translate(42 22.5)" fill="none" stroke="#ccc" stroke-width="1.5"></path>
<path d="M99 200.9C148.5 200.9 148.5 200.9 198 200.9" transform="translate(42 22.5)" fill="none" stroke="#ccc" stroke-width="1.5"></path>
<path d="M99 200.9C148.5 200.9 148.5 209.2 198 209.2" transform="translate(42 22.5)" fill="none" stroke="#ccc" stroke-width="1.5"></path>
<path d="M99 200.9C148.5 200.9 148.5 217.6 198 217.6" transform="translate(42 22.5)" fill="none" stroke="#ccc" stroke-width="1.5"></path>
<path d="M99 200.9C148.5 200.9 148.5 226 198 226" transform="translate(42 22.5)" fill="none" stroke="#ccc" stroke-width="1.5"></path>
<path d="M99 200.9C148.5 200.9 148.5 234.4 198 234.4" transform="translate(42 22.5)" fill="none" stroke="#ccc" stroke-width="1.5"></path>
<path d="M99 200.9C148.5 200.9 148.5 242.7 198 242.7" transform="translate(42 22.5)" fill="none" stroke="#ccc" stroke-width="1.5"></path>
<path d="M99 200.9C148.5 200.9 148.5 251.1 198 251.1" transform="translate(42 22.5)" fill="none" stroke="#ccc" stroke-width="1.5"></path>
<path d="M99 200.9C148.5 200.9 148.5 259.5 198 259.5" transform="translate(42 22.5)" fill="none" stroke="#ccc" stroke-width="1.5"></path>
<path d="M99 200.9C148.5 200.9 148.5 267.8 198 267.8" transform="translate(42 22.5)" fill="none" stroke="#ccc" stroke-width="1.5"></path>
<path d="M99 200.9C148.5 200.9 148.5 276.2 198 276.2" transform="translate(42 22.5)" fill="none" stroke="#ccc" stroke-width="1.5"></path>
<path d="M99 200.9C148.5 200.9 148.5 284.6 198 284.6" transform="translate(42 22.5)" fill="none" stroke="#ccc" stroke-width="1.5"></path>
<path d="M99 200.9C148.5 200.9 148.5 293 198 293" transform="translate(42 22.5)" fill="none" stroke="#ccc" stroke-width="1.5"></path>
<path d="M99 200.9C148.5 200.9 148.5 301.3 198 301.3" transform="translate(42 22.5)" fill="none" stroke="#ccc" stroke-width="1.5"></path>
<path d="M99 200.9C148.5 200.9 148.5 309.7 198 309.7" transform="translate(42 22.5)" fill="none" stroke="#ccc" stroke-width="1.5"></path>
<path d="M99 200.9C148.5 200.9 148.5 318.1 198 318.1" transform="translate(42 22.5)" fill="none" stroke="#ccc" stroke-width="1.5"></path>
<path d="M0 192.5C49.5 192.5 49.5 372.5 99 372.5" transform="translate(42 22.5)" fill="none" stroke="#ccc" stroke-width="1.5"></path>
<path d="M99 372.5C148.5 372.5 148.5 334.8 198 334.8" transform="translate(42 22.5)" fill="none" stroke="#ccc" stroke-width="1.5"></path>
<path d="M99 372.5C148.5 372.5 148.5 343.2 198 343.2" transform="translate(42 22.5)" fill="none" stroke="#ccc" stroke-width="1.5"></path>
<path d="M99 372.5C148.5 372.5 148.5 351.5 198 351.5" transform="translate(42 22.5)" fill="none" stroke="#ccc" stroke-width="1.5"></path>
<path d="M99 372.5C148.5 372.5 148.5 359.9 198 359.9" transform="translate(42 22.5)" fill="none" stroke="#ccc" stroke-width="1.5"></path>
<path d="M99 372.5C148.5 372.5 148.5 368.3 198 368.3" transform="translate(42 22.5)" fill="none" stroke="#ccc" stroke-width="1.5"></path>
<path d="M99 372.5C148.5 372.5 148.5 376.7 198 376.7" transform="translate(42 22.5)" fill="none" stroke="#ccc" stroke-width="1.5"></path>
<path d="M99 372.5C148.5 372.5 148.5 385 198 385" transform="translate(42 22.5)" fill="none" stroke="#ccc" stroke-width="1.5"></path>
<path d="M99 372.5C148.5 372.5 148.5 393.4 198 393.4" transform="translate(42 22.5)" fill="none" stroke="#ccc" stroke-width="1.5"></path>
<path d="M99 372.5C148.5 372.5 148.5 401.8 198 401.8" transform="translate(42 22.5)" fill="none" stroke="#ccc" stroke-width="1.5"></path>
<path d="M99 372.5C148.5 372.5 148.5 410.1 198 410.1" transform="translate(42 22.5)" fill="none" stroke="#ccc" stroke-width="1.5"></path>
<path d="M0 130.5C33 130.5 33 9.3 66 9.3" transform="translate(360 90)" fill="none" stroke="#ccc" stroke-width="1.5"></path>
<path d="M66 9.3C99 9.3 99 9.3 132 9.3" transform="translate(360 90)" fill="none" stroke="#ccc" stroke-width="1.5"></path>
<path d="M0 130.5C33 130.5 33 130.5 66 130.5" transform="translate(360 90)" fill="none" stroke="#ccc" stroke-width="1.5"></path>
<path d="M66 130.5C99 130.5 99 46.6 132 46.6" transform="translate(360 90)" fill="none" stroke="#ccc" stroke-width="1.5"></path>
<path d="M66 130.5C99 130.5 99 65.3 132 65.3" transform="translate(360 90)" fill="none" stroke="#ccc" stroke-width="1.5"></path>
<path d="M66 130.5C99 130.5 99 83.9 132 83.9" transform="translate(360 90)" fill="none" stroke="#ccc" stroke-width="1.5"></path>
<path d="M66 130.5C99 130.5 99 102.5 132 102.5" transform="translate(360 90)" fill="none" stroke="#ccc" stroke-width="1.5"></path>
<path d="M66 130.5C99 130.5 99 121.2 132 121.2" transform="translate(360 90)" fill="none" stroke="#ccc" stroke-width="1.5"></path>
<path d="M66 130.5C99 130.5 99 139.8 132 139.8" transform="translate(360 90)" fill="none" stroke="#ccc" stroke-width="1.5"></path>
<path d="M66 130.5C99 130.5 99 158.5 132 158.5" transform="translate(360 90)" fill="none" stroke="#ccc" stroke-width="1.5"></path>
<path d="M66 130.5C99 130.5 99 177.1 132 177.1" transform="translate(360 90)" fill="none" stroke="#ccc" stroke-width="1.5"></path>
<path d="M66 130.5C99 130.5 99 195.8 132 195.8" transform="translate(360 90)" fill="none" stroke="#ccc" stroke-width="1.5"></path>
<path d="M66 130.5C99 130.5 99 214.4 132 214.4" transform="translate(360 90)" fill="none" stroke="#ccc" stroke-width="1.5"></path>
<path d="M0 130.5C33 130.5 33 251.7 66 251.7" transform="translate(360 90)" fill="none" stroke="#ccc" stroke-width="1.5"></path>
<path d="M66 251.7C99 251.7 99 251.7 132 251.7" transform="translate(360 90)" fill="none" stroke="#ccc" stroke-width="1.5"></path>
<path d="M1 0A1 1 0 1 1 1 -0.1A1 1 0 0 1 1 0" transform="matrix(3.5,0,0,3.5,42,215.01)" fill="#fff" stroke="lightsteelblue" stroke-width="0.5714285714285714"></path>
<path d="M1 0A1 1 0 1 1 1 -0.1A1 1 0 0 1 1 0" transform="matrix(3.5,0,0,3.5,141,35.055)" fill="#fff" stroke="lightsteelblue" stroke-width="0.5714285714285714"></path>
<path d="M1 0A1 1 0 1 1 1 -0.1A1 1 0 0 1 1 0" transform="matrix(3.5,0,0,3.5,240,30.87)" fill="lightsteelblue" stroke="lightsteelblue" stroke-width="0.5714285714285714"></path>
<path d="M1 0A1 1 0 1 1 1 -0.1A1 1 0 0 1 1 0" transform="matrix(3.5,0,0,3.5,240,39.24)" fill="#fff" stroke="lightsteelblue" stroke-width="0.5714285714285714"></path>
<path d="M1 0A1 1 0 1 1 1 -0.1A1 1 0 0 1 1 0" transform="matrix(3.5,0,0,3.5,141,64.35)" fill="#fff" stroke="lightsteelblue" stroke-width="0.5714285714285714"></path>
<path d="M1 0A1 1 0 1 1 1 -0.1A1 1 0 0 1 1 0" transform="matrix(3.5,0,0,3.5,240,55.98)" fill="#fff" stroke="lightsteelblue" stroke-width="0.5714285714285714"></path>
<path d="M1 0A1 1 0 1 1 1 -0.1A1 1 0 0 1 1 0" transform="matrix(3.5,0,0,3.5,240,64.35)" fill="#fff" stroke="lightsteelblue" stroke-width="0.5714285714285714"></path>
<path d="M1 0A1 1 0 1 1 1 -0.1A1 1 0 0 1 1 0" transform="matrix(3.5,0,0,3.5,240,72.72)" fill="#fff" stroke="lightsteelblue" stroke-width="0.5714285714285714"></path>
<path d="M1 0A1 1 0 1 1 1 -0.1A1 1 0 0 1 1 0" transform="matrix(3.5,0,0,3.5,141,89.46)" fill="#fff" stroke="lightsteelblue" stroke-width="0.5714285714285714"></path>
<path d="M1 0A1 1 0 1 1 1 -0.1A1 1 0 0 1 1 0" transform="matrix(3.5,0,0,3.5,240,89.46)" fill="#fff" stroke="lightsteelblue" stroke-width="0.5714285714285714"></path>
<path d="M1 0A1 1 0 1 1 1 -0.1A1 1 0 0 1 1 0" transform="matrix(3.5,0,0,3.5,141,223.38)" fill="#fff" stroke="lightsteelblue" stroke-width="0.5714285714285714"></path>
<path d="M1 0A1 1 0 1 1 1 -0.1A1 1 0 0 1 1 0" transform="matrix(3.5,0,0,3.5,240,106.2)" fill="#fff" stroke="lightsteelblue" stroke-width="0.5714285714285714"></path>
<path d="M1 0A1 1 0 1 1 1 -0.1A1 1 0 0 1 1 0" transform="matrix(3.5,0,0,3.5,240,114.57)" fill="#fff" stroke="lightsteelblue" stroke-width="0.5714285714285714"></path>
<path d="M1 0A1 1 0 1 1 1 -0.1A1 1 0 0 1 1 0" transform="matrix(3.5,0,0,3.5,240,122.94)" fill="#fff" stroke="lightsteelblue" stroke-width="0.5714285714285714"></path>
<path d="M1 0A1 1 0 1 1 1 -0.1A1 1 0 0 1 1 0" transform="matrix(3.5,0,0,3.5,240,131.31)" fill="#fff" stroke="lightsteelblue" stroke-width="0.5714285714285714"></path>
<path d="M1 0A1 1 0 1 1 1 -0.1A1 1 0 0 1 1 0" transform="matrix(3.5,0,0,3.5,240,139.68)" fill="#fff" stroke="lightsteelblue" stroke-width="0.5714285714285714"></path>
<path d="M1 0A1 1 0 1 1 1 -0.1A1 1 0 0 1 1 0" transform="matrix(3.5,0,0,3.5,240,148.05)" fill="#fff" stroke="lightsteelblue" stroke-width="0.5714285714285714"></path>
<path d="M1 0A1 1 0 1 1 1 -0.1A1 1 0 0 1 1 0" transform="matrix(3.5,0,0,3.5,240,156.42)" fill="#fff" stroke="lightsteelblue" stroke-width="0.5714285714285714"></path>
<path d="M1 0A1 1 0 1 1 1 -0.1A1 1 0 0 1 1 0" transform="matrix(3.5,0,0,3.5,240,164.79)" fill="#fff" stroke="lightsteelblue" stroke-width="0.5714285714285714"></path>
<path d="M1 0A1 1 0 1 1 1 -0.1A1 1 0 0 1 1 0" transform="matrix(3.5,0,0,3.5,240,173.16)" fill="#fff" stroke="lightsteelblue" stroke-width="0.5714285714285714"></path>
<path d="M1 0A1 1 0 1 1 1 -0.1A1 1 0 0 1 1 0" transform="matrix(3.5,0,0,3.5,240,181.53)" fill="#fff" stroke="lightsteelblue" stroke-width="0.5714285714285714"></path>
<path d="M1 0A1 1 0 1 1 1 -0.1A1 1 0 0 1 1 0" transform="matrix(3.5,0,0,3.5,240,189.9)" fill="#fff" stroke="lightsteelblue" stroke-width="0.5714285714285714"></path>
<path d="M1 0A1 1 0 1 1 1 -0.1A1 1 0 0 1 1 0" transform="matrix(3.5,0,0,3.5,240,198.27)" fill="#fff" stroke="lightsteelblue" stroke-width="0.5714285714285714"></path>
<path d="M1 0A1 1 0 1 1 1 -0.1A1 1 0 0 1 1 0" transform="matrix(3.5,0,0,3.5,240,206.64)" fill="#fff" stroke="lightsteelblue" stroke-width="0.5714285714285714"></path>
<path d="M1 0A1 1 0 1 1 1 -0.1A1 1 0 0 1 1 0" transform="matrix(3.5,0,0,3.5,240,215.01)" fill="#fff" stroke="lightsteelblue" stroke-width="0.5714285714285714"></path>
<path d="M1 0A1 1 0 1 1 1 -0.1A1 1 0 0 1 1 0" transform="matrix(3.5,0,0,3.5,240,223.38)" fill="#fff" stroke="lightsteelblue" stroke-width="0.5714285714285714"></path>
<path d="M1 0A1 1 0 1 1 1 -0.1A1 1 0 0 1 1 0" transform="matrix(3.5,0,0,3.5,240,231.75)" fill="#fff" stroke="lightsteelblue" stroke-width="0.5714285714285714"></path>
<path d="M1 0A1 1 0 1 1 1 -0.1A1 1 0 0 1 1 0" transform="matrix(3.5,0,0,3.5,240,240.12)" fill="#fff" stroke="lightsteelblue" stroke-width="0.5714285714285714"></path>
<path d="M1 0A1 1 0 1 1 1 -0.1A1 1 0 0 1 1 0" transform="matrix(3.5,0,0,3.5,240,248.49)" fill="#fff" stroke="lightsteelblue" stroke-width="0.5714285714285714"></path>
<path d="M1 0A1 1 0 1 1 1 -0.1A1 1 0 0 1 1 0" transform="matrix(3.5,0,0,3.5,240,256.86)" fill="lightsteelblue" stroke="lightsteelblue" stroke-width="0.5714285714285714"></path>
<path d="M1 0A1 1 0 1 1 1 -0.1A1 1 0 0 1 1 0" transform="matrix(3.5,0,0,3.5,240,265.23)" fill="#fff" stroke="lightsteelblue" stroke-width="0.5714285714285714"></path>
<path d="M1 0A1 1 0 1 1 1 -0.1A1 1 0 0 1 1 0" transform="matrix(3.5,0,0,3.5,240,273.6)" fill="#fff" stroke="lightsteelblue" stroke-width="0.5714285714285714"></path>
<path d="M1 0A1 1 0 1 1 1 -0.1A1 1 0 0 1 1 0" transform="matrix(3.5,0,0,3.5,240,281.97)" fill="#fff" stroke="lightsteelblue" stroke-width="0.5714285714285714"></path>
<path d="M1 0A1 1 0 1 1 1 -0.1A1 1 0 0 1 1 0" transform="matrix(3.5,0,0,3.5,240,290.34)" fill="#fff" stroke="lightsteelblue" stroke-width="0.5714285714285714"></path>
<path d="M1 0A1 1 0 1 1 1 -0.1A1 1 0 0 1 1 0" transform="matrix(3.5,0,0,3.5,240,298.71)" fill="#fff" stroke="lightsteelblue" stroke-width="0.5714285714285714"></path>
<path d="M1 0A1 1 0 1 1 1 -0.1A1 1 0 0 1 1 0" transform="matrix(3.5,0,0,3.5,240,307.08)" fill="#fff" stroke="lightsteelblue" stroke-width="0.5714285714285714"></path>
<path d="M1 0A1 1 0 1 1 1 -0.1A1 1 0 0 1 1 0" transform="matrix(3.5,0,0,3.5,240,315.45)" fill="#fff" stroke="lightsteelblue" stroke-width="0.5714285714285714"></path>
<path d="M1 0A1 1 0 1 1 1 -0.1A1 1 0 0 1 1 0" transform="matrix(3.5,0,0,3.5,240,323.82)" fill="#fff" stroke="lightsteelblue" stroke-width="0.5714285714285714"></path>
<path d="M1 0A1 1 0 1 1 1 -0.1A1 1 0 0 1 1 0" transform="matrix(3.5,0,0,3.5,240,332.19)" fill="#fff" stroke="lightsteelblue" stroke-width="0.5714285714285714"></path>
<path d="M1 0A1 1 0 1 1 1 -0.1A1 1 0 0 1 1 0" transform="matrix(3.5,0,0,3.5,240,340.56)" fill="#fff" stroke="lightsteelblue" stroke-width="0.5714285714285714"></path>
<path d="M1 0A1 1 0 1 1 1 -0.1A1 1 0 0 1 1 0" transform="matrix(3.5,0,0,3.5,141,394.965)" fill="#fff" stroke="lightsteelblue" stroke-width="0.5714285714285714"></path>
<path d="M1 0A1 1 0 1 1 1 -0.1A1 1 0 0 1 1 0" transform="matrix(3.5,0,0,3.5,240,357.3)" fill="#fff" stroke="lightsteelblue" stroke-width="0.5714285714285714"></path>
<path d="M1 0A1 1 0 1 1 1 -0.1A1 1 0 0 1 1 0" transform="matrix(3.5,0,0,3.5,240,365.67)" fill="#fff" stroke="lightsteelblue" stroke-width="0.5714285714285714"></path>
<path d="M1 0A1 1 0 1 1 1 -0.1A1 1 0 0 1 1 0" transform="matrix(3.5,0,0,3.5,240,374.04)" fill="#fff" stroke="lightsteelblue" stroke-width="0.5714285714285714"></path>
<path d="M1 0A1 1 0 1 1 1 -0.1A1 1 0 0 1 1 0" transform="matrix(3.5,0,0,3.5,240,382.41)" fill="#fff" stroke="lightsteelblue" stroke-width="0.5714285714285714"></path>
<path d="M1 0A1 1 0 1 1 1 -0.1A1 1 0 0 1 1 0" transform="matrix(3.5,0,0,3.5,240,390.78)" fill="#fff" stroke="lightsteelblue" stroke-width="0.5714285714285714"></path>
<path d="M1 0A1 1 0 1 1 1 -0.1A1 1 0 0 1 1 0" transform="matrix(3.5,0,0,3.5,240,399.15)" fill="#fff" stroke="lightsteelblue" stroke-width="0.5714285714285714"></path>
<path d="M1 0A1 1 0 1 1 1 -0.1A1 1 0 0 1 1 0" transform="matrix(3.5,0,0,3.5,240,407.52)" fill="#fff" stroke="lightsteelblue" stroke-width="0.5714285714285714"></path>
<path d="M1 0A1 1 0 1 1 1 -0.1A1 1 0 0 1 1 0" transform="matrix(3.5,0,0,3.5,240,415.89)" fill="#fff" stroke="lightsteelblue" stroke-width="0.5714285714285714"></path>
<path d="M1 0A1 1 0 1 1 1 -0.1A1 1 0 0 1 1 0" transform="matrix(3.5,0,0,3.5,240,424.26)" fill="#fff" stroke="lightsteelblue" stroke-width="0.5714285714285714"></path>
<path d="M1 0A1 1 0 1 1 1 -0.1A1 1 0 0 1 1 0" transform="matrix(3.5,0,0,3.5,240,432.63)" fill="#fff" stroke="lightsteelblue" stroke-width="0.5714285714285714"></path>
<path d="M1 0A1 1 0 1 1 1 -0.1A1 1 0 0 1 1 0" transform="matrix(3.5,0,0,3.5,360,220.5)" fill="#fff" stroke="lightsteelblue" stroke-width="0.5714285714285714"></path>
<path d="M1 0A1 1 0 1 1 1 -0.1A1 1 0 0 1 1 0" transform="matrix(3.5,0,0,3.5,426,99.3214)" fill="#fff" stroke="lightsteelblue" stroke-width="0.5714285714285714"></path>
<path d="M1 0A1 1 0 1 1 1 -0.1A1 1 0 0 1 1 0" transform="matrix(3.5,0,0,3.5,492,99.3214)" fill="#fff" stroke="lightsteelblue" stroke-width="0.5714285714285714"></path>
<path d="M1 0A1 1 0 1 1 1 -0.1A1 1 0 0 1 1 0" transform="matrix(3.5,0,0,3.5,426,220.5)" fill="#fff" stroke="lightsteelblue" stroke-width="0.5714285714285714"></path>
<path d="M1 0A1 1 0 1 1 1 -0.1A1 1 0 0 1 1 0" transform="matrix(3.5,0,0,3.5,492,136.6071)" fill="#fff" stroke="lightsteelblue" stroke-width="0.5714285714285714"></path>
<path d="M1 0A1 1 0 1 1 1 -0.1A1 1 0 0 1 1 0" transform="matrix(3.5,0,0,3.5,492,155.25)" fill="#fff" stroke="lightsteelblue" stroke-width="0.5714285714285714"></path>
<path d="M1 0A1 1 0 1 1 1 -0.1A1 1 0 0 1 1 0" transform="matrix(3.5,0,0,3.5,492,173.8929)" fill="#fff" stroke="lightsteelblue" stroke-width="0.5714285714285714"></path>
<path d="M1 0A1 1 0 1 1 1 -0.1A1 1 0 0 1 1 0" transform="matrix(3.5,0,0,3.5,492,192.5357)" fill="#fff" stroke="lightsteelblue" stroke-width="0.5714285714285714"></path>
<path d="M1 0A1 1 0 1 1 1 -0.1A1 1 0 0 1 1 0" transform="matrix(3.5,0,0,3.5,492,211.1786)" fill="#fff" stroke="lightsteelblue" stroke-width="0.5714285714285714"></path>
<path d="M1 0A1 1 0 1 1 1 -0.1A1 1 0 0 1 1 0" transform="matrix(3.5,0,0,3.5,492,229.8214)" fill="#fff" stroke="lightsteelblue" stroke-width="0.5714285714285714"></path>
<path d="M1 0A1 1 0 1 1 1 -0.1A1 1 0 0 1 1 0" transform="matrix(3.5,0,0,3.5,492,248.4643)" fill="#fff" stroke="lightsteelblue" stroke-width="0.5714285714285714"></path>
<path d="M1 0A1 1 0 1 1 1 -0.1A1 1 0 0 1 1 0" transform="matrix(3.5,0,0,3.5,492,267.1071)" fill="#fff" stroke="lightsteelblue" stroke-width="0.5714285714285714"></path>
<path d="M1 0A1 1 0 1 1 1 -0.1A1 1 0 0 1 1 0" transform="matrix(3.5,0,0,3.5,492,285.75)" fill="#fff" stroke="lightsteelblue" stroke-width="0.5714285714285714"></path>
<path d="M1 0A1 1 0 1 1 1 -0.1A1 1 0 0 1 1 0" transform="matrix(3.5,0,0,3.5,492,304.3929)" fill="#fff" stroke="lightsteelblue" stroke-width="0.5714285714285714"></path>
<path d="M1 0A1 1 0 1 1 1 -0.1A1 1 0 0 1 1 0" transform="matrix(3.5,0,0,3.5,426,341.6786)" fill="#fff" stroke="lightsteelblue" stroke-width="0.5714285714285714"></path>
<path d="M1 0A1 1 0 1 1 1 -0.1A1 1 0 0 1 1 0" transform="matrix(3.5,0,0,3.5,492,341.6786)" fill="#fff" stroke="lightsteelblue" stroke-width="0.5714285714285714"></path>
<text dominant-baseline="central" text-anchor="end" style="font-size:12px;font-family:sans-serif;" transform="translate(32.5 215.01)" fill="#333" stroke="rgb(255,255,255)" stroke-width="2" paint-order="stroke" stroke-miterlimit="2">flare</text>
<text dominant-baseline="central" text-anchor="end" style="font-size:12px;font-family:sans-serif;" transform="translate(131.5 35.055)" fill="#333" stroke="rgb(255,255,255)" stroke-width="2" paint-order="stroke" stroke-miterlimit="2">data</text>
<text dominant-baseline="central" text-anchor="start" style="font-size:12px;font-family:sans-serif;" transform="translate(249.5 30.87)" fill="#333" stroke="rgb(255,255,255)" stroke-width="2" paint-order="stroke" stroke-miterlimit="2">converters</text>
<text dominant-baseline="central" text-anchor="start" style="font-size:12px;font-family:sans-serif;" transform="translate(249.5 39.24)" fill="#333" stroke="rgb(255,255,255)" stroke-width="2" paint-order="stroke" stroke-miterlimit="2">DataUtil</text>
<text dominant-baseline="central" text-anchor="end" style="font-size:12px;font-family:sans-serif;" transform="translate(131.5 64.35)" fill="#333" stroke="rgb(255,255,255)" stroke-width="2" paint-order="stroke" stroke-miterlimit="2">display</text>
<text dominant-baseline="central" text-anchor="start" style="font-size:12px;font-family:sans-serif;" transform="translate(249.5 55.98)" fill="#333" stroke="rgb(255,255,255)" stroke-width="2" paint-order="stroke" stroke-miterlimit="2">DirtySprite</text>
<text dominant-baseline="central" text-anchor="start" style="font-size:12px;font-family:sans-serif;" transform="translate(249.5 64.35)" fill="#333" stroke="rgb(255,255,255)" stroke-width="2" paint-order="stroke" stroke-miterlimit="2">LineSprite</text>
<text dominant-baseline="central" text-anchor="start" style="font-size:12px;font-family:sans-serif;" transform="translate(249.5 72.72)" fill="#333" stroke="rgb(255,255,255)" stroke-width="2" paint-order="stroke" stroke-miterlimit="2">RectSprite</text>
<text dominant-baseline="central" text-anchor="end" style="font-size:12px;font-family:sans-serif;" transform="translate(131.5 89.46)" fill="#333" stroke="rgb(255,255,255)" stroke-width="2" paint-order="stroke" stroke-miterlimit="2">flex</text>
<text dominant-baseline="central" text-anchor="start" style="font-size:12px;font-family:sans-serif;" transform="translate(249.5 89.46)" fill="#333" stroke="rgb(255,255,255)" stroke-width="2" paint-order="stroke" stroke-miterlimit="2">FlareVis</text>
<text dominant-baseline="central" text-anchor="end" style="font-size:12px;font-family:sans-serif;" transform="translate(131.5 223.38)" fill="#333" stroke="rgb(255,255,255)" stroke-width="2" paint-order="stroke" stroke-miterlimit="2">query</text>
<text dominant-baseline="central" text-anchor="start" style="font-size:12px;font-family:sans-serif;" transform="translate(249.5 106.2)" fill="#333" stroke="rgb(255,255,255)" stroke-width="2" paint-order="stroke" stroke-miterlimit="2">AggregateExpression</text>
<text dominant-baseline="central" text-anchor="start" style="font-size:12px;font-family:sans-serif;" transform="translate(249.5 114.57)" fill="#333" stroke="rgb(255,255,255)" stroke-width="2" paint-order="stroke" stroke-miterlimit="2">And</text>
<text dominant-baseline="central" text-anchor="start" style="font-size:12px;font-family:sans-serif;" transform="translate(249.5 122.94)" fill="#333" stroke="rgb(255,255,255)" stroke-width="2" paint-order="stroke" stroke-miterlimit="2">Arithmetic</text>
<text dominant-baseline="central" text-anchor="start" style="font-size:12px;font-family:sans-serif;" transform="translate(249.5 131.31)" fill="#333" stroke="rgb(255,255,255)" stroke-width="2" paint-order="stroke" stroke-miterlimit="2">Average</text>
<text dominant-baseline="central" text-anchor="start" style="font-size:12px;font-family:sans-serif;" transform="translate(249.5 139.68)" fill="#333" stroke="rgb(255,255,255)" stroke-width="2" paint-order="stroke" stroke-miterlimit="2">BinaryExpression</text>
<text dominant-baseline="central" text-anchor="start" style="font-size:12px;font-family:sans-serif;" transform="translate(249.5 148.05)" fill="#333" stroke="rgb(255,255,255)" stroke-width="2" paint-order="stroke" stroke-miterlimit="2">Comparison</text>
<text dominant-baseline="central" text-anchor="start" style="font-size:12px;font-family:sans-serif;" transform="translate(249.5 156.42)" fill="#333" stroke="rgb(255,255,255)" stroke-width="2" paint-order="stroke" stroke-miterlimit="2">CompositeExpression</text>
<text dominant-baseline="central" text-anchor="start" style="font-size:12px;font-family:sans-serif;" transform="translate(249.5 164.79)" fill="#333" stroke="rgb(255,255,255)" stroke-width="2" paint-order="stroke" stroke-miterlimit="2">Count</text>
<text dominant-baseline="central" text-anchor="start" style="font-size:12px;font-family:sans-serif;" transform="translate(249.5 173.16)" fill="#333" stroke="rgb(255,255,255)" stroke-width="2" paint-order="stroke" stroke-miterlimit="2">DateUtil</text>
<text dominant-baseline="central" text-anchor="start" style="font-size:12px;font-family:sans-serif;" transform="translate(249.5 181.53)" fill="#333" stroke="rgb(255,255,255)" stroke-width="2" paint-order="stroke" stroke-miterlimit="2">Distinct</text>
<text dominant-baseline="central" text-anchor="start" style="font-size:12px;font-family:sans-serif;" transform="translate(249.5 189.9)" fill="#333" stroke="rgb(255,255,255)" stroke-width="2" paint-order="stroke" stroke-miterlimit="2">Expression</text>
<text dominant-baseline="central" text-anchor="start" style="font-size:12px;font-family:sans-serif;" transform="translate(249.5 198.27)" fill="#333" stroke="rgb(255,255,255)" stroke-width="2" paint-order="stroke" stroke-miterlimit="2">ExpressionIterator</text>
<text dominant-baseline="central" text-anchor="start" style="font-size:12px;font-family:sans-serif;" transform="translate(249.5 206.64)" fill="#333" stroke="rgb(255,255,255)" stroke-width="2" paint-order="stroke" stroke-miterlimit="2">Fn</text>
<text dominant-baseline="central" text-anchor="start" style="font-size:12px;font-family:sans-serif;" transform="translate(249.5 215.01)" fill="#333" stroke="rgb(255,255,255)" stroke-width="2" paint-order="stroke" stroke-miterlimit="2">If</text>
<text dominant-baseline="central" text-anchor="start" style="font-size:12px;font-family:sans-serif;" transform="translate(249.5 223.38)" fill="#333" stroke="rgb(255,255,255)" stroke-width="2" paint-order="stroke" stroke-miterlimit="2">IsA</text>
<text dominant-baseline="central" text-anchor="start" style="font-size:12px;font-family:sans-serif;" transform="translate(249.5 231.75)" fill="#333" stroke="rgb(255,255,255)" stroke-width="2" paint-order="stroke" stroke-miterlimit="2">Literal</text>
<text dominant-baseline="central" text-anchor="start" style="font-size:12px;font-family:sans-serif;" transform="translate(249.5 240.12)" fill="#333" stroke="rgb(255,255,255)" stroke-width="2" paint-order="stroke" stroke-miterlimit="2">Match</text>
<text dominant-baseline="central" text-anchor="start" style="font-size:12px;font-family:sans-serif;" transform="translate(249.5 248.49)" fill="#333" stroke="rgb(255,255,255)" stroke-width="2" paint-order="stroke" stroke-miterlimit="2">Maximum</text>
<text dominant-baseline="central" text-anchor="start" style="font-size:12px;font-family:sans-serif;" transform="translate(249.5 256.86)" fill="#333" stroke="rgb(255,255,255)" stroke-width="2" paint-order="stroke" stroke-miterlimit="2">methods</text>
<text dominant-baseline="central" text-anchor="start" style="font-size:12px;font-family:sans-serif;" transform="translate(249.5 265.23)" fill="#333" stroke="rgb(255,255,255)" stroke-width="2" paint-order="stroke" stroke-miterlimit="2">Minimum</text>
<text dominant-baseline="central" text-anchor="start" style="font-size:12px;font-family:sans-serif;" transform="translate(249.5 273.6)" fill="#333" stroke="rgb(255,255,255)" stroke-width="2" paint-order="stroke" stroke-miterlimit="2">Not</text>
<text dominant-baseline="central" text-anchor="start" style="font-size:12px;font-family:sans-serif;" transform="translate(249.5 281.97)" fill="#333" stroke="rgb(255,255,255)" stroke-width="2" paint-order="stroke" stroke-miterlimit="2">Or</text>
<text dominant-baseline="central" text-anchor="start" style="font-size:12px;font-family:sans-serif;" transform="translate(249.5 290.34)" fill="#333" stroke="rgb(255,255,255)" stroke-width="2" paint-order="stroke" stroke-miterlimit="2">Query</text>
<text dominant-baseline="central" text-anchor="start" style="font-size:12px;font-family:sans-serif;" transform="translate(249.5 298.71)" fill="#333" stroke="rgb(255,255,255)" stroke-width="2" paint-order="stroke" stroke-miterlimit="2">Range</text>
<text dominant-baseline="central" text-anchor="start" style="font-size:12px;font-family:sans-serif;" transform="translate(249.5 307.08)" fill="#333" stroke="rgb(255,255,255)" stroke-width="2" paint-order="stroke" stroke-miterlimit="2">StringUtil</text>
<text dominant-baseline="central" text-anchor="start" style="font-size:12px;font-family:sans-serif;" transform="translate(249.5 315.45)" fill="#333" stroke="rgb(255,255,255)" stroke-width="2" paint-order="stroke" stroke-miterlimit="2">Sum</text>
<text dominant-baseline="central" text-anchor="start" style="font-size:12px;font-family:sans-serif;" transform="translate(249.5 323.82)" fill="#333" stroke="rgb(255,255,255)" stroke-width="2" paint-order="stroke" stroke-miterlimit="2">Variable</text>
<text dominant-baseline="central" text-anchor="start" style="font-size:12px;font-family:sans-serif;" transform="translate(249.5 332.19)" fill="#333" stroke="rgb(255,255,255)" stroke-width="2" paint-order="stroke" stroke-miterlimit="2">Variance</text>
<text dominant-baseline="central" text-anchor="start" style="font-size:12px;font-family:sans-serif;" transform="translate(249.5 340.56)" fill="#333" stroke="rgb(255,255,255)" stroke-width="2" paint-order="stroke" stroke-miterlimit="2">Xor</text>
<text dominant-baseline="central" text-anchor="end" style="font-size:12px;font-family:sans-serif;" transform="translate(131.5 394.965)" fill="#333" stroke="rgb(255,255,255)" stroke-width="2" paint-order="stroke" stroke-miterlimit="2">scale</text>
<text dominant-baseline="central" text-anchor="start" style="font-size:12px;font-family:sans-serif;" transform="translate(249.5 357.3)" fill="#333" stroke="rgb(255,255,255)" stroke-width="2" paint-order="stroke" stroke-miterlimit="2">IScaleMap</text>
<text dominant-baseline="central" text-anchor="start" style="font-size:12px;font-family:sans-serif;" transform="translate(249.5 365.67)" fill="#333" stroke="rgb(255,255,255)" stroke-width="2" paint-order="stroke" stroke-miterlimit="2">LinearScale</text>
<text dominant-baseline="central" text-anchor="start" style="font-size:12px;font-family:sans-serif;" transform="translate(249.5 374.04)" fill="#333" stroke="rgb(255,255,255)" stroke-width="2" paint-order="stroke" stroke-miterlimit="2">LogScale</text>
<text dominant-baseline="central" text-anchor="start" style="font-size:12px;font-family:sans-serif;" transform="translate(249.5 382.41)" fill="#333" stroke="rgb(255,255,255)" stroke-width="2" paint-order="stroke" stroke-miterlimit="2">OrdinalScale</text>
<text dominant-baseline="central" text-anchor="start" style="font-size:12px;font-family:sans-serif;" transform="translate(249.5 390.78)" fill="#333" stroke="rgb(255,255,255)" stroke-width="2" paint-order="stroke" stroke-miterlimit="2">QuantileScale</text>
<text dominant-baseline="central" text-anchor="start" style="font-size:12px;font-family:sans-serif;" transform="translate(249.5 399.15)" fill="#333" stroke="rgb(255,255,255)" stroke-width="2" paint-order="stroke" stroke-miterlimit="2">QuantitativeScale</text>
<text dominant-baseline="central" text-anchor="start" style="font-size:12px;font-family:sans-serif;" transform="translate(249.5 407.52)" fill="#333" stroke="rgb(255,255,255)" stroke-width="2" paint-order="stroke" stroke-miterlimit="2">RootScale</text>
<text dominant-baseline="central" text-anchor="start" style="font-size:12px;font-family:sans-serif;" transform="translate(249.5 415.89)" fill="#333" stroke="rgb(255,255,255)" stroke-width="2" paint-order="stroke" stroke-miterlimit="2">Scale</text>
<text dominant-baseline="central" text-anchor="start" style="font-size:12px;font-family:sans-serif;" transform="translate(249.5 424.26)" fill="#333" stroke="rgb(255,255,255)" stroke-width="2" paint-order="stroke" stroke-miterlimit="2">ScaleType</text>
<text dominant-baseline="central" text-anchor="start" style="font-size:12px;font-family:sans-serif;" transform="translate(249.5 432.63)" fill="#333" stroke="rgb(255,255,255)" stroke-width="2" paint-order="stroke" stroke-miterlimit="2">TimeScale</text>
<text dominant-baseline="central" text-anchor="end" style="font-size:12px;font-family:sans-serif;" transform="translate(350.5 220.5)" fill="#333" stroke="rgb(255,255,255)" stroke-width="2" paint-order="stroke" stroke-miterlimit="2">flare</text>
<text dominant-baseline="central" text-anchor="end" style="font-size:12px;font-family:sans-serif;" transform="translate(416.5 99.3214)" fill="#333" stroke="rgb(255,255,255)" stroke-width="2" paint-order="stroke" stroke-miterlimit="2">flex</text>
<text dominant-baseline="central" text-anchor="start" style="font-size:12px;font-family:sans-serif;" transform="translate(501.5 99.3214)" fill="#333" stroke="rgb(255,255,255)" stroke-width="2" paint-order="stroke" stroke-miterlimit="2">FlareVis</text>
<text dominant-baseline="central" text-anchor="end" style="font-size:12px;font-family:sans-serif;" transform="translate(416.5 220.5)" fill="#333" stroke="rgb(255,255,255)" stroke-width="2" paint-order="stroke" stroke-miterlimit="2">scale</text>
<text dominant-baseline="central" text-anchor="start" style="font-size:12px;font-family:sans-serif;" transform="translate(501.5 136.6071)" fill="#333" stroke="rgb(255,255,255)" stroke-width="2" paint-order="stroke" stroke-miterlimit="2">IScaleMap</text>
<text dominant-baseline="central" text-anchor="start" style="font-size:12px;font-family:sans-serif;" transform="translate(501.5 155.25)" fill="#333" stroke="rgb(255,255,255)" stroke-width="2" paint-order="stroke" stroke-miterlimit="2">LinearScale</text>
<text dominant-baseline="central" text-anchor="start" style="font-size:12px;font-family:sans-serif;" transform="translate(501.5 173.8929)" fill="#333" stroke="rgb(255,255,255)" stroke-width="2" paint-order="stroke" stroke-miterlimit="2">LogScale</text>
<text dominant-baseline="central" text-anchor="start" style="font-size:12px;font-family:sans-serif;" transform="translate(501.5 192.5357)" fill="#333" stroke="rgb(255,255,255)" stroke-width="2" paint-order="stroke" stroke-miterlimit="2">OrdinalScale</text>
<text dominant-baseline="central" text-anchor="start" style="font-size:12px;font-family:sans-serif;" transform="translate(501.5 211.1786)" fill="#333" stroke="rgb(255,255,255)" stroke-width="2" paint-order="stroke" stroke-miterlimit="2">QuantileScale</text>
<text dominant-baseline="central" text-anchor="start" style="font-size:12px;font-family:sans-serif;" transform="translate(501.5 229.8214)" fill="#333" stroke="rgb(255,255,255)" stroke-width="2" paint-order="stroke" stroke-miterlimit="2">QuantitativeScale</text>
<text dominant-baseline="central" text-anchor="start" style="font-size:12px;font-family:sans-serif;" transform="translate(501.5 248.4643)" fill="#333" stroke="rgb(255,255,255)" stroke-width="2" paint-order="stroke" stroke-miterlimit="2">RootScale</text>
<text dominant-baseline="central" text-anchor="start" style="font-size:12px;font-family:sans-serif;" transform="translate(501.5 267.1071)" fill="#333" stroke="rgb(255,255,255)" stroke-width="2" paint-order="stroke" stroke-miterlimit="2">Scale</text>
<text dominant-baseline="central" text-anchor="start" style="font-size:12px;font-family:sans-serif;" transform="translate(501.5 285.75)" fill="#333" stroke="rgb(255,255,255)" stroke-width="2" paint-order="stroke" stroke-miterlimit="2">ScaleType</text>
<text dominant-baseline="central" text-anchor="start" style="font-size:12px;font-family:sans-serif;" transform="translate(501.5 304.3929)" fill="#333" stroke="rgb(255,255,255)" stroke-width="2" paint-order="stroke" stroke-miterlimit="2">TimeScale</text>
<text dominant-baseline="central" text-anchor="end" style="font-size:12px;font-family:sans-serif;" transform="translate(416.5 341.6786)" fill="#333" stroke="rgb(255,255,255)" stroke-width="2" paint-order="stroke" stroke-miterlimit="2">display</text>
<text dominant-baseline="central" text-anchor="start" style="font-size:12px;font-family:sans-serif;" transform="translate(501.5 341.6786)" fill="#333" stroke="rgb(255,255,255)" stroke-width="2" paint-order="stroke" stroke-miterlimit="2">DirtySprite</text>
<path d="M-5 -5l67.5 0l0 48l-67.5 0Z" transform="translate(23 14)" fill="rgb(0,0,0)" fill-opacity="0" stroke="#c23531" stroke-width="0"></path>
<path d="M0 0l25 0l0 14l-25 0Z" transform="translate(23 14)" fill="lightsteelblue"></path>
<text dominant-baseline="central" text-anchor="start" style="font-size:12px;font-family:sans-serif;" x="30" y="7" transform="translate(23 14)" fill="#333">tree1</text>
<path d="M0 0l25 0l0 14l-25 0Z" transform="translate(23 38)" fill="lightsteelblue"></path>
<text dominant-baseline="central" text-anchor="start" style="font-size:12px;font-family:sans-serif;" x="30" y="7" transform="translate(23 38)" fill="#333">tree2</text>
</svg>