<svg width="600" height="450" xmlns="http://www.w3.org/2000/svg" xmlns:xlink="http://www.w3.org/1999/xlink" version="1.1" baseProfile="full" viewBox="0 0 600 450">
<rect width="600" height="450" x="0" y="0" fill="none"></rect>
<path d="M60 60l80 0l0 322.5l-80 0Z" fill="rgb(250,250,250)" fill-opacity="0.2" class="zr11-cls-42"></path>
<path d="M140 60l80 0l0 322.5l-80 0Z" fill="rgb(210,219,238)" fill-opacity="0.2" class="zr11-cls-42"></path>
<path d="M220 60l80 0l0 322.5l-80 0Z" fill="rgb(250,250,250)" fill-opacity="0.2" class="zr11-cls-42"></path>
<path d="M300 60l80 0l0 322.5l-80 0Z" fill="rgb(210,219,238)" fill-opacity="0.2" class="zr11-cls-42"></path>
<path d="M380 60l80 0l0 322.5l-80 0Z" fill="rgb(250,250,250)" fill-opacity="0.2" class="zr11-cls-42"></path>
<path d="M460 60l80 0l0 322.5l-80 0Z" fill="rgb(210,219,238)" fill-opacity="0.2" class="zr11-cls-42"></path>
<path d="M60.5 60L60.5 382.5" fill="transparent" stroke="#E0E6F1" class="zr11-cls-42"></path>
<path d="M140.5 60L140.5 382.5" fill="transparent" stroke="#E0E6F1" class="zr11-cls-42"></path>
<path d="M220.5 60L220.5 382.5" fill="transparent" stroke="#E0E6F1" class="zr11-cls-42"></path>
<path d="M300.5 60L300.5 382.5" fill="transparent" stroke="#E0E6F1" class="zr11-cls-42"></path>
<path d="M380.5 60L380.5 382.5" fill="transparent" stroke="#E0E6F1" class="zr11-cls-42"></path>
<path d="M460.5 60L460.5 382.5" fill="transparent" stroke="#E0E6F1" class="zr11-cls-42"></path>
<path d="M540.5 60L540.5 382.5" fill="transparent" stroke="#E0E6F1" class="zr11-cls-42"></path>
<path d="M60.5 382.5L60.5 60" fill="transparent" stroke="#6E7079" stroke-linecap="round" class="zr11-cls-42"></path>
<text dominant-baseline="central" text-anchor="start" style="font-size:12px;font-family:sans-serif;" xml:space="preserve" transform="translate(555 382.5)" fill="#6E7079">km/s minus 299,000</text>
<path d="M60 382.5L55 382.5" fill="transparent" stroke="#6E7079" class="zr11-cls-42"></path>
<path d="M60 318.5L55 318.5" fill="transparent" stroke="#6E7079" class="zr11-cls-42"></path>
<path d="M60 253.5L55 253.5" fill="transparent" stroke="#6E7079" class="zr11-cls-42"></path>
<path d="M60 189.5L55 189.5" fill="transparent" stroke="#6E7079" class="zr11-cls-42"></path>
<path d="M60 124.5L55 124.5" fill="transparent" stroke="#6E7079" class="zr11-cls-42"></path>
<path d="M60 60.5L55 60.5" fill="transparent" stroke="#6E7079" class="zr11-cls-42"></path>
<text dominant-baseline="central" text-anchor="end" style="font-size:12px;font-family:sans-serif;" xml:space="preserve" transform="translate(52 350.25)" fill="#6E7079">expr 0</text>
<text dominant-baseline="central" text-anchor="end" style="font-size:12px;font-family:sans-serif;" xml:space="preserve" transform="translate(52 285.75)" fill="#6E7079">expr 1</text>
<text dominant-baseline="central" text-anchor="end" style="font-size:12px;font-family:sans-serif;" xml:space="preserve" transform="translate(52 221.25)" fill="#6E7079">expr 2</text>
<text dominant-baseline="central" text-anchor="end" style="font-size:12px;font-family:sans-serif;" xml:space="preserve" transform="translate(52 156.75)" fill="#6E7079">expr 3</text>
<text dominant-baseline="central" text-anchor="end" style="font-size:12px;font-family:sans-serif;" xml:space="preserve" transform="translate(52 92.25)" fill="#6E7079">expr 4</text>
<text dominant-baseline="central" text-anchor="middle" style="font-size:12px;font-family:sans-serif;" y="6" transform="translate(60 390.5)" fill="#6E7079">0</text>
<text dominant-baseline="central" text-anchor="middle" style="font-size:12px;font-family:sans-serif;" y="6" transform="translate(140 390.5)" fill="#6E7079">200</text>
<text dominant-baseline="central" text-anchor="middle" style="font-size:12px;font-family:sans-serif;" y="6" transform="translate(220 390.5)" fill="#6E7079">400</text>
<text dominant-baseline="central" text-anchor="middle" style="font-size:12px;font-family:sans-serif;" y="6" transform="translate(300 390.5)" fill="#6E7079">600</text>
<text dominant-baseline="central" text-anchor="middle" style="font-size:12px;font-family:sans-serif;" y="6" transform="translate(380 390.5)" fill="#6E7079">800</text>
<text dominant-baseline="central" text-anchor="middle" style="font-size:12px;font-family:sans-serif;" y="6" transform="translate(460 390.5)" fill="#6E7079">1,000</text>
<text dominant-baseline="central" text-anchor="middle" style="font-size:12px;font-family:sans-serif;" y="6" transform="translate(540 390.5)" fill="#6E7079">1,200</text>
<path d="M400 325.5L400 375.1L452 375.1L452 325.5ZM322 350.3L400 350.3M488 350.3L452 350.3M322 325.5L322 375.1M488 325.5L488 375.1M436 325.5L436 375.1" fill="#fff" stroke="#5470c6" ecmeta_series_index="0" ecmeta_data_index="0" ecmeta_ssr_type="chart" class="zr11-cls-43"></path>
<path d="M380 261L380 310.6L414 310.6L414 261ZM364 285.8L380 285.8M444 285.8L414 285.8M364 261L364 310.6M444 261L444 310.6M398 261L398 310.6" fill="#fff" stroke="#5470c6" ecmeta_series_index="0" ecmeta_data_index="1" ecmeta_ssr_type="chart" class="zr11-cls-43"></path>
<path d="M396 196.5L396 246.1L412 246.1L412 196.5ZM372 221.3L396 221.3M436 221.3L412 221.3M372 196.5L372 246.1M436 196.5L436 246.1M402 196.5L402 246.1" fill="#fff" stroke="#5470c6" ecmeta_series_index="0" ecmeta_data_index="2" ecmeta_ssr_type="chart" class="zr11-cls-43"></path>
<path d="M367 132L367 181.6L406 181.6L406 132ZM348 156.8L367 156.8M428 156.8L406 156.8M348 132L348 181.6M428 132L428 181.6M386 132L386 181.6" fill="#fff" stroke="#5470c6" ecmeta_series_index="0" ecmeta_data_index="3" ecmeta_ssr_type="chart" class="zr11-cls-43"></path>
<path d="M383 67.5L383 117.1L408 117.1L408 67.5ZM356 92.3L383 92.3M440 92.3L408 92.3M356 67.5L356 117.1M440 67.5L440 117.1M384 67.5L384 117.1" fill="#fff" stroke="#5470c6" ecmeta_series_index="0" ecmeta_data_index="4" ecmeta_ssr_type="chart" class="zr11-cls-43"></path>
<path d="M1 0A1 1 0 1 1 1 -0.1A1 1 0 0 1 1 0" transform="matrix(5,0,0,5,320,350.25)" fill="#91cc75" fill-opacity="0.8" ecmeta_series_index="1" ecmeta_data_index="0" ecmeta_ssr_type="chart" class="zr11-cls-44"></path>
<path d="M1 0A1 1 0 1 1 1 -0.1A1 1 0 0 1 1 0" transform="matrix(5,0,0,5,308,221.25)" fill="#91cc75" fill-opacity="0.8" ecmeta_series_index="1" ecmeta_data_index="1" ecmeta_ssr_type="chart" class="zr11-cls-44"></path>
<path d="M1 0A1 1 0 1 1 1 -0.1A1 1 0 0 1 1 0" transform="matrix(5,0,0,5,348,221.25)" fill="#91cc75" fill-opacity="0.8" ecmeta_series_index="1" ecmeta_data_index="2" ecmeta_ssr_type="chart" class="zr11-cls-44"></path>
<path d="M1 0A1 1 0 1 1 1 -0.1A1 1 0 0 1 1 0" transform="matrix(5,0,0,5,348,221.25)" fill="#91cc75" fill-opacity="0.8" ecmeta_series_index="1" ecmeta_data_index="3" ecmeta_ssr_type="chart" class="zr11-cls-44"></path>
<path d="M1 0A1 1 0 1 1 1 -0.1A1 1 0 0 1 1 0" transform="matrix(5,0,0,5,440,221.25)" fill="#91cc75" fill-opacity="0.8" ecmeta_series_index="1" ecmeta_data_index="4" ecmeta_ssr_type="chart" class="zr11-cls-44"></path>
<path d="M1 0A1 1 0 1 1 1 -0.1A1 1 0 0 1 1 0" transform="matrix(5,0,0,5,448,221.25)" fill="#91cc75" fill-opacity="0.8" ecmeta_series_index="1" ecmeta_data_index="5" ecmeta_ssr_type="chart" class="zr11-cls-44"></path>
<path d="M-123.7 -5l247.4 0l0 28l-247.4 0Z" transform="translate(300 5)" fill="rgb(0,0,0)" fill-opacity="0" stroke="#ccc" stroke-width="0" class="zr11-cls-42"></path>
<path d="M-4.5 -4.5l150 0l0 37l-150 0Z" transform="translate(65 410)" fill="rgb(0,0,0)" fill-opacity="0" stroke="#999" class="zr11-cls-42"></path>
<text dominant-baseline="central" text-anchor="middle" style="font-size:18px;font-family:sans-serif;font-weight:bold;" xml:space="preserve" y="9" transform="translate(300 5)" fill="#464646">Michelson-Morley Experiment</text>
<text dominant-baseline="central" text-anchor="start" style="font-size:14px;font-family:sans-serif;font-weight:bold;" xml:space="preserve" y="7" transform="translate(65 410)" fill="#464646">upper: Q3 + 1.5 * IQR </text>
<text dominant-baseline="central" text-anchor="start" style="font-size:14px;font-family:sans-serif;font-weight:bold;" xml:space="preserve" y="21" transform="translate(65 410)" fill="#464646">lower: Q1 - 1.5 * IQR</text>
<style ><![CDATA[
.zr11-cls-42:hover {
pointer-events:none;
}
.zr11-cls-43:hover {
cursor:pointer;
fill:rgba(255,255,255,1);
stroke-width:2;
}
.zr11-cls-44:hover {
cursor:pointer;
fill:rgba(159,224,128,1);
}

]]>

</style>
</svg>