<svg width="600" height="450" xmlns="http://www.w3.org/2000/svg" xmlns:xlink="http://www.w3.org/1999/xlink" version="1.1" baseProfile="full" viewBox="0 0 600 450">
<rect width="600" height="450" x="0" y="0" fill="none"></rect>
<path d="M60 382.5L540 382.5" fill="transparent" stroke="#E0E6F1" class="zr13-cls-45"></path>
<path d="M60 324.5L540 324.5" fill="transparent" stroke="#E0E6F1" class="zr13-cls-45"></path>
<path d="M60 265.5L540 265.5" fill="transparent" stroke="#E0E6F1" class="zr13-cls-45"></path>
<path d="M60 207.5L540 207.5" fill="transparent" stroke="#E0E6F1" class="zr13-cls-45"></path>
<path d="M60 148.5L540 148.5" fill="transparent" stroke="#E0E6F1" class="zr13-cls-45"></path>
<path d="M60 90.5L540 90.5" fill="transparent" stroke="#E0E6F1" class="zr13-cls-45"></path>
<path d="M60 90l120 0l0 292.5l-120 0Z" fill="rgb(250,250,250)" fill-opacity="0.2" class="zr13-cls-45"></path>
<path d="M180 90l120 0l0 292.5l-120 0Z" fill="rgb(210,219,238)" fill-opacity="0.2" class="zr13-cls-45"></path>
<path d="M300 90l120 0l0 292.5l-120 0Z" fill="rgb(250,250,250)" fill-opacity="0.2" class="zr13-cls-45"></path>
<path d="M420 90l120 0l0 292.5l-120 0Z" fill="rgb(210,219,238)" fill-opacity="0.2" class="zr13-cls-45"></path>
<text dominant-baseline="central" text-anchor="middle" style="font-size:12px;font-family:sans-serif;" y="-6" transform="translate(60 75)" fill="#6E7079">Value</text>
<path d="M60 265.5L540 265.5" fill="transparent" stroke="#6E7079" stroke-linecap="round" class="zr13-cls-45"></path>
<path d="M60.5 265.5L60.5 270.5" fill="transparent" stroke="#6E7079" class="zr13-cls-45"></path>
<path d="M180.5 265.5L180.5 270.5" fill="transparent" stroke="#6E7079" class="zr13-cls-45"></path>
<path d="M300.5 265.5L300.5 270.5" fill="transparent" stroke="#6E7079" class="zr13-cls-45"></path>
<path d="M420.5 265.5L420.5 270.5" fill="transparent" stroke="#6E7079" class="zr13-cls-45"></path>
<path d="M540.5 265.5L540.5 270.5" fill="transparent" stroke="#6E7079" class="zr13-cls-45"></path>
<text dominant-baseline="central" text-anchor="end" style="font-size:12px;font-family:sans-serif;" transform="translate(52 382.5)" fill="#6E7079">-400</text>
<text dominant-baseline="central" text-anchor="end" style="font-size:12px;font-family:sans-serif;" transform="translate(52 324)" fill="#6E7079">-200</text>
<text dominant-baseline="central" text-anchor="end" style="font-size:12px;font-family:sans-serif;" transform="translate(52 265.5)" fill="#6E7079">0</text>
<text dominant-baseline="central" text-anchor="end" style="font-size:12px;font-family:sans-serif;" transform="translate(52 207)" fill="#6E7079">200</text>
<text dominant-baseline="central" text-anchor="end" style="font-size:12px;font-family:sans-serif;" transform="translate(52 148.5)" fill="#6E7079">400</text>
<text dominant-baseline="central" text-anchor="end" style="font-size:12px;font-family:sans-serif;" transform="translate(52 90)" fill="#6E7079">600</text>
<text dominant-baseline="central" text-anchor="middle" style="font-size:12px;font-family:sans-serif;" y="6" transform="translate(120 390.5)" fill="#6E7079">0</text>
<text dominant-baseline="central" text-anchor="middle" style="font-size:12px;font-family:sans-serif;" y="6" transform="translate(240 390.5)" fill="#6E7079">1</text>
<text dominant-baseline="central" text-anchor="middle" style="font-size:12px;font-family:sans-serif;" y="6" transform="translate(360 390.5)" fill="#6E7079">2</text>
<text dominant-baseline="central" text-anchor="middle" style="font-size:12px;font-family:sans-serif;" y="6" transform="translate(480 390.5)" fill="#6E7079">3</text>
<path d="M73 253.9L98.1 253.9L98.1 222.8L73 222.8ZM85.5 264.8L85.5 253.9M85.5 207.3L85.5 222.8M73 264.8L98.1 264.8M73 207.3L98.1 207.3M73 236L98.1 236" fill="#fff" stroke="#5470c6" ecmeta_series_index="0" ecmeta_data_index="0" ecmeta_ssr_type="chart" class="zr13-cls-46"></path>
<path d="M193 249.6L218.1 249.6L218.1 223.2L193 223.2ZM205.5 265.1L205.5 249.6M205.5 207.9L205.5 223.2M193 265.1L218.1 265.1M193 207.9L218.1 207.9M193 237.4L218.1 237.4" fill="#fff" stroke="#5470c6" ecmeta_series_index="0" ecmeta_data_index="1" ecmeta_ssr_type="chart" class="zr13-cls-46"></path>
<path d="M313 252.3L338.1 252.3L338.1 223.2L313 223.2ZM325.5 265.5L325.5 252.3M325.5 207.3L325.5 223.2M313 265.5L338.1 265.5M313 207.3L338.1 207.3M313 237.3L338.1 237.3" fill="#fff" stroke="#5470c6" ecmeta_series_index="0" ecmeta_data_index="2" ecmeta_ssr_type="chart" class="zr13-cls-46"></path>
<path d="M433 252.3L458.1 252.3L458.1 224.8L433 224.8ZM445.5 265L445.5 252.3M445.5 207.3L445.5 224.8M433 265L458.1 265M433 207.3L458.1 207.3M433 234.4L458.1 234.4" fill="#fff" stroke="#5470c6" ecmeta_series_index="0" ecmeta_data_index="3" ecmeta_ssr_type="chart" class="zr13-cls-46"></path>
<path d="M107.5 250.8L132.5 250.8L132.5 226.5L107.5 226.5ZM120 265.3L120 250.8M120 207.7L120 226.5M107.5 265.3L132.5 265.3M107.5 207.7L132.5 207.7M107.5 240.5L132.5 240.5" fill="#fff" stroke="#91cc75" ecmeta_series_index="1" ecmeta_data_index="0" ecmeta_ssr_type="chart" class="zr13-cls-46"></path>
<path d="M227.5 255.7L252.5 255.7L252.5 226.1L227.5 226.1ZM240 265.3L240 255.7M240 207.5L240 226.1M227.5 265.3L252.5 265.3M227.5 207.5L252.5 207.5M227.5 240.9L252.5 240.9" fill="#fff" stroke="#91cc75" ecmeta_series_index="1" ecmeta_data_index="1" ecmeta_ssr_type="chart" class="zr13-cls-46"></path>
<path d="M347.5 250.4L372.5 250.4L372.5 220.9L347.5 220.9ZM360 264.1L360 250.4M360 207.8L360 220.9M347.5 264.1L372.5 264.1M347.5 207.8L372.5 207.8M347.5 237.2L372.5 237.2" fill="#fff" stroke="#91cc75" ecmeta_series_index="1" ecmeta_data_index="2" ecmeta_ssr_type="chart" class="zr13-cls-46"></path>
<path d="M467.5 248.6L492.5 248.6L492.5 223.7L467.5 223.7ZM480 264.7L480 248.6M480 207.7L480 223.7M467.5 264.7L492.5 264.7M467.5 207.7L492.5 207.7M467.5 233.4L492.5 233.4" fill="#fff" stroke="#91cc75" ecmeta_series_index="1" ecmeta_data_index="3" ecmeta_ssr_type="chart" class="zr13-cls-46"></path>
<path d="M141.9 248.9L167 248.9L167 222.9L141.9 222.9ZM154.5 264.8L154.5 248.9M154.5 208.6L154.5 222.9M141.9 264.8L167 264.8M141.9 208.6L167 208.6M141.9 235.4L167 235.4" fill="#fff" stroke="#fac858" ecmeta_series_index="2" ecmeta_data_index="0" ecmeta_ssr_type="chart" class="zr13-cls-46"></path>
<path d="M261.9 249.8L287 249.8L287 223.5L261.9 223.5ZM274.5 265.5L274.5 249.8M274.5 207.9L274.5 223.5M261.9 265.5L287 265.5M261.9 207.9L287 207.9M261.9 235.5L287 235.5" fill="#fff" stroke="#fac858" ecmeta_series_index="2" ecmeta_data_index="1" ecmeta_ssr_type="chart" class="zr13-cls-46"></path>
<path d="M381.9 252.3L407 252.3L407 223.4L381.9 223.4ZM394.5 264.3L394.5 252.3M394.5 207.4L394.5 223.4M381.9 264.3L407 264.3M381.9 207.4L407 207.4M381.9 239L407 239" fill="#fff" stroke="#fac858" ecmeta_series_index="2" ecmeta_data_index="2" ecmeta_ssr_type="chart" class="zr13-cls-46"></path>
<path d="M501.9 252.4L527 252.4L527 222.6L501.9 222.6ZM514.5 265.3L514.5 252.4M514.5 207.5L514.5 222.6M501.9 265.3L527 265.3M501.9 207.5L527 207.5M501.9 236.4L527 236.4" fill="#fff" stroke="#fac858" ecmeta_series_index="2" ecmeta_data_index="3" ecmeta_ssr_type="chart" class="zr13-cls-46"></path>
<path d="M0 0l480 0l0 30l-480 0Z" transform="matrix(1,0,0,-1,62.8,441.5)" fill="rgb(47,69,84)" fill-opacity="0" class="zr13-cls-45"></path>
<path d="M-5 -5l281.8 0l0 26l-281.8 0Z" transform="translate(164.12 50)" fill="rgb(0,0,0)" fill-opacity="0" stroke="#ccc" stroke-width="0" class="zr13-cls-45"></path>
<path d="M3.5 0L21.5 0A3.5 3.5 0 0 1 25 3.5L25 10.5A3.5 3.5 0 0 1 21.5 14L3.5 14A3.5 3.5 0 0 1 0 10.5L0 3.5A3.5 3.5 0 0 1 3.5 0" transform="translate(165.12 51)" fill="#5470c6" stroke="#5470c6" stroke-width="2" stroke-linecap="butt" stroke-miterlimit="10" ecmeta_series_index="0" ecmeta_data_index="0" ecmeta_ssr_type="legend" ecmeta_silent="true" class="zr13-cls-45"></path>
<text dominant-baseline="central" text-anchor="start" style="font-size:12px;font-family:sans-serif;" x="30" y="7" transform="translate(165.12 51)" fill="#333">category0</text>
<path d="M-1 -1l83.9 0l0 16l-83.9 0Z" transform="translate(165.12 51)" fill="transparent" ecmeta_series_index="0" ecmeta_data_index="0" ecmeta_ssr_type="legend" class="zr13-cls-47"></path>
<path d="M3.5 0L21.5 0A3.5 3.5 0 0 1 25 3.5L25 10.5A3.5 3.5 0 0 1 21.5 14L3.5 14A3.5 3.5 0 0 1 0 10.5L0 3.5A3.5 3.5 0 0 1 3.5 0" transform="translate(259.04 51)" fill="#91cc75" stroke="#91cc75" stroke-width="2" stroke-linecap="butt" stroke-miterlimit="10" ecmeta_series_index="1" ecmeta_data_index="1" ecmeta_ssr_type="legend" ecmeta_silent="true" class="zr13-cls-45"></path>
<text dominant-baseline="central" text-anchor="start" style="font-size:12px;font-family:sans-serif;" x="30" y="7" transform="translate(259.04 51)" fill="#333">category1</text>
<path d="M-1 -1l83.9 0l0 16l-83.9 0Z" transform="translate(259.04 51)" fill="transparent" ecmeta_series_index="1" ecmeta_data_index="1" ecmeta_ssr_type="legend" class="zr13-cls-47"></path>
<path d="M3.5 0L21.5 0A3.5 3.5 0 0 1 25 3.5L25 10.5A3.5 3.5 0 0 1 21.5 14L3.5 14A3.5 3.5 0 0 1 0 10.5L0 3.5A3.5 3.5 0 0 1 3.5 0" transform="translate(352.96 51)" fill="#fac858" stroke="#fac858" stroke-width="2" stroke-linecap="butt" stroke-miterlimit="10" ecmeta_series_index="2" ecmeta_data_index="2" ecmeta_ssr_type="legend" ecmeta_silent="true" class="zr13-cls-45"></path>
<text dominant-baseline="central" text-anchor="start" style="font-size:12px;font-family:sans-serif;" x="30" y="7" transform="translate(352.96 51)" fill="#333">category2</text>
<path d="M-1 -1l83.9 0l0 16l-83.9 0Z" transform="translate(352.96 51)" fill="transparent" ecmeta_series_index="2" ecmeta_data_index="2" ecmeta_ssr_type="legend" class="zr13-cls-47"></path>
<path d="M0 0l480 0l0 30l-480 0Z" transform="matrix(1,0,0,-1,62.8,441.5)" fill="transparent" class="zr13-cls-47"></path>
<path d="M0 0l96 0l0 30l-96 0Z" transform="matrix(1,0,0,-1,62.8,441.5)" fill="rgb(135,175,255)" fill-opacity="0.2" class="zr13-cls-45"></path>
<path d="M3.5 0.5L476.5 0.5A3 3 0 0 1 479.5 3.5L479.5 26.5A3 3 0 0 1 476.5 29.5L3.5 29.5A3 3 0 0 1 0.5 26.5L0.5 3.5A3 3 0 0 1 3.5 0.5" transform="matrix(1,0,0,-1,62.8,441.5)" fill="rgb(0,0,0)" fill-opacity="0" stroke="#d2dbee" class="zr13-cls-45"></path>
<path d="M0 29.5L96 29.5L96 34.5A2 2 0 0 1 94 36.5L2 36.5A2 2 0 0 1 0 34.5L0 29.5" transform="matrix(1,0,0,-1,62.8,441.5)" fill="#D2DBEE" fill-opacity="0.7" class="zr13-cls-45"></path>
<path d="M-2.2 -1.7C-1.9 -1.7 -1.7 -1.5 -1.7 -1.1L-1.7 1.1C-1.7 1.5 -1.9 1.7 -2.2 1.7C-2.6 1.7 -2.8 1.5 -2.8 1.1L-2.8 -1.1C-2.8 -1.5 -2.6 -1.7 -2.2 -1.7ZM0 -1.7C0.4 -1.7 0.6 -1.5 0.6 -1.1L0.6 1.1C0.6 1.5 0.4 1.7 0 1.7C-0.4 1.7 -0.6 1.5 -0.6 1.1L-0.6 -1.1C-0.6 -1.5 -0.4 -1.7 0 -1.7ZM2.2 -1.7C2.6 -1.7 2.8 -1.5 2.8 -1.1L2.8 1.1C2.8 1.5 2.6 1.7 2.2 1.7C1.9 1.7 1.7 1.5 1.7 1.1L1.7 -1.1C1.7 -1.5 1.9 -1.7 2.2 -1.7Z" transform="matrix(1,0,0,-1,110.8,408.5)" fill="#fff" class="zr13-cls-45"></path>
<path d="M0 1.63L0 2M0 0L0 0.38M-0.1 0.38L0.1 0.38A0.1 0.1 0 0 1 0.2 0.47L0.2 1.52A0.1 0.1 0 0 1 0.1 1.62L-0.1 1.63A0.1 0.1 0 0 1 -0.2 1.52L-0.2 0.47A0.1 0.1 0 0 1 -0.1 0.37Z" transform="matrix(15,0,0,-15,63.8,441.5)" fill="#fff" stroke="#ACB8D1" stroke-width="0.06666666666666667" class="zr13-cls-48"></path>
<path d="M0 1.63L0 2M0 0L0 0.38M-0.1 0.38L0.1 0.38A0.1 0.1 0 0 1 0.2 0.47L0.2 1.52A0.1 0.1 0 0 1 0.1 1.62L-0.1 1.63A0.1 0.1 0 0 1 -0.2 1.52L-0.2 0.47A0.1 0.1 0 0 1 -0.1 0.37Z" transform="matrix(15,0,0,-15,157.8,441.5)" fill="#fff" stroke="#ACB8D1" stroke-width="0.06666666666666667" class="zr13-cls-48"></path>
<path d="M-82.2 -5l164.4 0l0 28l-164.4 0Z" transform="translate(300 5)" fill="rgb(0,0,0)" fill-opacity="0" stroke="#ccc" stroke-width="0" class="zr13-cls-45"></path>
<text dominant-baseline="central" text-anchor="middle" style="font-size:18px;font-family:sans-serif;font-weight:bold;" xml:space="preserve" y="9" transform="translate(300 5)" fill="#464646">Multiple Categories</text>
<style ><![CDATA[
.zr13-cls-45:hover {
pointer-events:none;
}
.zr13-cls-46:hover {
cursor:pointer;
fill:rgba(255,255,255,1);
stroke-width:2;
}
.zr13-cls-47:hover {
cursor:pointer;
fill:rgba(0,0,0,0);
}
.zr13-cls-48:hover {
cursor:pointer;
fill:rgba(255,255,255,1);
stroke:#8FB0F7;
}

]]>

</style>
</svg>