<svg width="600" height="450" xmlns="http://www.w3.org/2000/svg" xmlns:xlink="http://www.w3.org/1999/xlink" version="1.1" baseProfile="full" viewBox="0 0 600 450">
<rect width="600" height="450" x="0" y="0" id="0" fill="#333"></rect>
<g clip-path="url(#zr36-c0)">
<polyline points="30 69.4 96 296.8 162 339.6 228 295.9 294 323.3 360 312.7 426 328.3 492 277.5" fill="none" stroke="rgb(98,167,170)" stroke-opacity="0.5"></polyline>
<polyline points="30 78.7 96 325.8 162 337.2 228 329.7 294 312.3 360 279.6 426 317.4 492 325.8" fill="none" stroke="rgb(103,168,167)" stroke-opacity="0.5"></polyline>
<polyline points="30 88.1 96 295.9 162 341.9 228 289.1 294 332.6 360 321 426 331.9 492 277.5" fill="none" stroke="rgb(94,166,174)" stroke-opacity="0.5"></polyline>
<polyline points="30 97.4 96 318.1 162 341.9 228 322 294 330.9 360 316.9 426 328.3 492 325.8" fill="none" stroke="rgb(94,166,174)" stroke-opacity="0.5"></polyline>
<polyline points="30 106.8 96 309.4 162 322.2 228 307.5 294 305.9 360 267.1 426 292 492 325.8" fill="none" stroke="rgb(129,175,144)" stroke-opacity="0.5"></polyline>
<polyline points="30 116.1 96 270.7 162 282.7 228 263 294 247.3 360 209.1 426 230.4 492 277.5" fill="none" stroke="rgb(199,191,84)" stroke-opacity="0.5"></polyline>
<polyline points="30 125.5 96 278.5 162 293.2 228 275.6 294 265.3 360 250.6 426 252.1 492 277.5" fill="none" stroke="rgb(181,187,100)" stroke-opacity="0.5"></polyline>
<polyline points="30 134.8 96 274.6 162 286.2 228 272.7 294 275.2 360 227.8 426 244.9 492 277.5" fill="none" stroke="rgb(193,189,89)" stroke-opacity="0.5"></polyline>
<polyline points="30 144.2 96 91.9 162 99.4 228 79.3 294 71.6 360 126.3 426 118 492 132.5" fill="none" stroke="rgb(217,78,93)" stroke-opacity="0.5"></polyline>
<polyline points="30 153.5 96 171.2 162 202.7 228 141.2 294 203.8 360 223.6 426 252.1 492 180.8" fill="none" stroke="rgb(222,115,81)" stroke-opacity="0.5"></polyline>
<polyline points="30 162.9 96 312.3 162 328 228 313.3 294 316.9 360 285.8 426 295.6 492 325.8" fill="none" stroke="rgb(119,172,153)" stroke-opacity="0.5"></polyline>
<polyline points="30 172.3 96 310.4 162 337.2 228 311.3 294 325.1 360 306.5 426 324.6 492 325.8" fill="none" stroke="rgb(103,168,167)" stroke-opacity="0.5"></polyline>
<polyline points="30 181.6 96 288.1 162 305.9 228 278.5 294 289.7 360 254.7 426 270.3 492 277.5" fill="none" stroke="rgb(158,181,119)" stroke-opacity="0.5"></polyline>
<polyline points="30 191 96 245.6 162 258.4 228 234 294 251.4 360 194.6 426 201.4 492 229.2" fill="none" stroke="rgb(233,193,56)" stroke-opacity="0.5"></polyline>
<polyline points="30 200.3 96 245.6 162 276.9 228 237.9 294 264.2 360 258.9 426 255.8 492 229.2" fill="none" stroke="rgb(209,193,75)" stroke-opacity="0.5"></polyline>
<polyline points="30 209.7 96 318.1 162 343 228 322 294 330.3 360 323.1 426 331.9 492 325.8" fill="none" stroke="rgb(92,166,175)" stroke-opacity="0.5"></polyline>
<polyline points="30 219 96 259.1 162 273.4 228 243.7 294 260.7 360 221.6 426 237.6 492 277.5" fill="none" stroke="rgb(216,195,70)" stroke-opacity="0.5"></polyline>
<polyline points="30 228.4 96 170.2 162 185.3 228 164.4 294 125 360 157.4 426 63.6 492 180.8" fill="none" stroke="rgb(219,91,89)" stroke-opacity="0.5"></polyline>
<polyline points="30 237.7 96 294.9 162 314 228 297.8 294 294.3 360 283.7 426 299.3 492 277.5" fill="none" stroke="rgb(144,178,131)" stroke-opacity="0.5"></polyline>
<polyline points="30 247.1 96 328.7 162 340.7 228 333.6 294 322.2 360 302.4 426 313.8 492 325.8" fill="none" stroke="rgb(96,167,172)" stroke-opacity="0.5"></polyline>
<polyline points="30 256.5 96 312.3 162 332.6 228 315.2 294 314.6 360 289.9 426 302.9 492 325.8" fill="none" stroke="rgb(111,170,160)" stroke-opacity="0.5"></polyline>
<polyline points="30 265.8 96 259.1 162 270 228 239.8 294 229.4 360 198.8 426 208.6 492 277.5" fill="none" stroke="rgb(222,196,65)" stroke-opacity="0.5"></polyline>
<polyline points="30 275.2 96 254.3 162 265.3 228 243.7 294 209.1 360 192.6 426 176 492 277.5" fill="none" stroke="rgb(230,198,58)" stroke-opacity="0.5"></polyline>
<polyline points="30 284.5 96 320 162 336.1 228 321 294 321 360 283.7 426 292 492 325.8" fill="none" stroke="rgb(105,169,165)" stroke-opacity="0.5"></polyline>
<polyline points="30 293.9 96 309.4 162 318.7 228 308.4 294 292 360 240.2 426 270.3 492 325.8" fill="none" stroke="rgb(135,176,138)" stroke-opacity="0.5"></polyline>
<polyline points="30 303.2 96 201.1 162 214.3 228 198.2 294 173.1 360 159.4 426 139.8 492 180.8" fill="none" stroke="rgb(224,131,76)" stroke-opacity="0.5"></polyline>
<polyline points="30 312.6 96 123.8 162 135.4 228 127.7 294 112.8 360 95.2 426 99.9 492 132.5" fill="none" stroke="rgb(217,78,93)" stroke-opacity="0.5"></polyline>
<polyline points="30 321.9 96 195.3 162 210.8 228 170.2 294 189.3 360 161.5 426 168.8 492 180.8" fill="none" stroke="rgb(224,126,77)" stroke-opacity="0.5"></polyline>
<polyline points="30 331.3 96 220.5 162 238.6 228 190.5 294 189.9 360 178.1 426 201.4 492 229.2" fill="none" stroke="rgb(229,165,65)" stroke-opacity="0.5"></polyline>
<polyline points="30 340.6 96 299.7 162 322.2 228 292 294 290.3 360 246.4 426 273.9 492 277.5" fill="none" stroke="rgb(129,175,144)" stroke-opacity="0.5"></polyline>
<polyline points="30 350 96 305.5 162 344.2 228 302.6 294 333.8 360 329.3 426 328.3 492 325.8" fill="none" stroke="rgb(90,165,177)" stroke-opacity="0.5"></polyline>
</g>
<g clip-path="url(#zr36-c1)">
<polyline points="30 69.4 96 262 162 297.8 228 229.2 294 302.4 360 279.6 426 266.6 492 277.5" fill="none" stroke="rgb(172,185,107)" stroke-opacity="0.5"></polyline>
<polyline points="30 78.7 96 287.2 162 318.7 228 274.6 294 300.1 360 256.8 426 244.9 492 277.5" fill="none" stroke="rgb(135,176,138)" stroke-opacity="0.5"></polyline>
<polyline points="30 88.1 96 269.8 162 280.4 228 268.8 294 286.8 360 198.8 426 252.1 492 277.5" fill="none" stroke="rgb(203,192,80)" stroke-opacity="0.5"></polyline>
<polyline points="30 97.4 96 244.6 162 256 228 233 294 275.8 360 209.1 426 165.1 492 229.2" fill="none" stroke="rgb(233,189,57)" stroke-opacity="0.5"></polyline>
<polyline points="30 106.8 96 247.5 162 260.7 228 239.8 294 287.9 360 236.1 426 165.1 492 229.2" fill="none" stroke="rgb(234,196,55)" stroke-opacity="0.5"></polyline>
<polyline points="30 116.1 96 244.6 162 256 228 233 294 275.8 360 209.1 426 165.1 492 229.2" fill="none" stroke="rgb(233,189,57)" stroke-opacity="0.5"></polyline>
<polyline points="30 125.5 96 247.5 162 260.7 228 239.8 294 287.9 360 236.1 426 165.1 492 229.2" fill="none" stroke="rgb(234,196,55)" stroke-opacity="0.5"></polyline>
<polyline points="30 134.8 96 264 162 274.6 228 274.6 294 300.1 360 244.4 426 255.8 492 277.5" fill="none" stroke="rgb(213,194,72)" stroke-opacity="0.5"></polyline>
<polyline points="30 144.2 96 298.8 162 311.7 228 304.6 294 312.9 360 246.4 426 288.4 492 277.5" fill="none" stroke="rgb(148,179,128)" stroke-opacity="0.5"></polyline>
<polyline points="30 153.5 96 272.7 162 286.2 228 272.7 294 291.4 360 194.6 426 263 492 277.5" fill="none" stroke="rgb(193,189,89)" stroke-opacity="0.5"></polyline>
<polyline points="30 162.9 96 236.9 162 256 228 230.1 294 290.3 360 256.8 426 263 492 229.2" fill="none" stroke="rgb(233,189,57)" stroke-opacity="0.5"></polyline>
<polyline points="30 172.3 96 254.3 162 267.6 228 212.7 294 286.2 360 221.6 426 197.8 492 277.5" fill="none" stroke="rgb(226,197,61)" stroke-opacity="0.5"></polyline>
<polyline points="30 181.6 96 258.2 162 270 228 224.3 294 275.8 360 196.7 426 168.8 492 277.5" fill="none" stroke="rgb(222,196,65)" stroke-opacity="0.5"></polyline>
<polyline points="30 191 96 237.9 162 249.1 228 223.4 294 264.7 360 176 426 205 492 229.2" fill="none" stroke="rgb(231,180,60)" stroke-opacity="0.5"></polyline>
<polyline points="30 200.3 96 245.6 162 257.2 228 233 294 274.6 360 173.9 426 215.9 492 229.2" fill="none" stroke="rgb(233,191,57)" stroke-opacity="0.5"></polyline>
<polyline points="30 209.7 96 220.5 162 253.7 228 188.6 294 282.7 360 231.9 426 194.1 492 229.2" fill="none" stroke="rgb(232,186,58)" stroke-opacity="0.5"></polyline>
<polyline points="30 219 96 273.6 162 300.1 228 246.6 294 289.1 360 227.8 426 215.9 492 277.5" fill="none" stroke="rgb(168,184,110)" stroke-opacity="0.5"></polyline>
<polyline points="30 228.4 96 281.4 162 296.6 228 264 294 300.1 360 217.4 426 259.4 492 277.5" fill="none" stroke="rgb(174,185,105)" stroke-opacity="0.5"></polyline>
<polyline points="30 237.7 96 256.2 162 267.6 228 240.8 294 282.1 360 167.7 426 237.6 492 277.5" fill="none" stroke="rgb(226,197,61)" stroke-opacity="0.5"></polyline>
<polyline points="30 247.1 96 268.8 162 283.9 228 262 294 300.7 360 236.1 426 237.6 492 277.5" fill="none" stroke="rgb(197,190,86)" stroke-opacity="0.5"></polyline>
<polyline points="30 256.5 96 265.9 162 276.9 228 252.4 294 297.8 360 234 426 201.4 492 277.5" fill="none" stroke="rgb(209,193,75)" stroke-opacity="0.5"></polyline>
<polyline points="30 265.8 96 249.5 162 260.7 228 235 294 286.8 360 198.8 426 176 492 229.2" fill="none" stroke="rgb(234,196,55)" stroke-opacity="0.5"></polyline>
<polyline points="30 275.2 96 265.9 162 278.1 228 253.3 294 292 360 200.9 426 248.5 492 277.5" fill="none" stroke="rgb(207,193,77)" stroke-opacity="0.5"></polyline>
<polyline points="30 284.5 96 187.6 162 201.5 228 183.7 294 263.6 360 149.1 426 147 492 180.8" fill="none" stroke="rgb(222,113,82)" stroke-opacity="0.5"></polyline>
<polyline points="30 293.9 96 287.2 162 297.8 228 300.7 294 307.1 360 269.2 426 288.4 492 277.5" fill="none" stroke="rgb(172,185,107)" stroke-opacity="0.5"></polyline>
<polyline points="30 303.2 96 312.3 162 322.2 228 313.3 294 314.6 360 252.6 426 288.4 492 325.8" fill="none" stroke="rgb(129,175,144)" stroke-opacity="0.5"></polyline>
<polyline points="30 312.6 96 312.3 162 322.2 228 312.3 294 315.8 360 246.4 426 281.1 492 325.8" fill="none" stroke="rgb(129,175,144)" stroke-opacity="0.5"></polyline>
<polyline points="30 321.9 96 260.1 162 271.1 228 257.2 294 289.1 360 186.4 426 244.9 492 277.5" fill="none" stroke="rgb(220,196,66)" stroke-opacity="0.5"></polyline>
<polyline points="30 331.3 96 168.3 162 184.1 228 159.6 294 253.7 360 144.9 426 165.1 492 180.8" fill="none" stroke="rgb(219,89,89)" stroke-opacity="0.5"></polyline>
<polyline points="30 340.6 96 181.8 162 198 228 181.8 294 260.1 360 126.3 426 168.8 492 180.8" fill="none" stroke="rgb(221,109,83)" stroke-opacity="0.5"></polyline>
<polyline points="30 350 96 169.2 162 184.1 228 155.7 294 269.4 360 165.6 426 157.9 492 180.8" fill="none" stroke="rgb(219,89,89)" stroke-opacity="0.5"></polyline>
</g>
<g clip-path="url(#zr36-c2)">
<polyline points="30 69.4 96 324.9 162 307.1 228 323.9 294 282.5 360 294.1 426 302.9 492 325.8" fill="none" stroke="rgb(156,181,121)" stroke-opacity="0.5"></polyline>
<polyline points="30 78.7 96 267.8 162 278.1 228 281.4 294 280.7 360 225.7 426 321 492 277.5" fill="none" stroke="rgb(207,193,77)" stroke-opacity="0.5"></polyline>
<polyline points="30 88.1 96 274.6 162 305.9 228 278.5 294 270.9 360 273.4 426 324.6 492 277.5" fill="none" stroke="rgb(158,181,119)" stroke-opacity="0.5"></polyline>
<polyline points="30 97.4 96 329.7 162 325.6 228 315.2 294 313.2 360 267.1 426 317.4 492 325.8" fill="none" stroke="rgb(123,173,149)" stroke-opacity="0.5"></polyline>
<polyline points="30 106.8 96 310.4 162 301.3 228 305.5 294 296.9 360 182.2 426 302.9 492 325.8" fill="none" stroke="rgb(166,183,112)" stroke-opacity="0.5"></polyline>
<polyline points="30 116.1 96 295.9 162 289.7 228 283.3 294 288.1 360 159.4 426 292 492 277.5" fill="none" stroke="rgb(187,188,94)" stroke-opacity="0.5"></polyline>
<polyline points="30 125.5 96 288.1 162 315.2 228 322.9 294 296.4 360 244.4 426 342.8 492 277.5" fill="none" stroke="rgb(142,177,133)" stroke-opacity="0.5"></polyline>
<polyline points="30 134.8 96 296.8 162 294.3 228 278.5 294 278.3 360 194.6 426 255.8 492 277.5" fill="none" stroke="rgb(179,186,102)" stroke-opacity="0.5"></polyline>
<polyline points="30 144.2 96 276.5 162 251.4 228 240.8 294 278.3 360 113.9 426 252.1 492 277.5" fill="none" stroke="rgb(232,183,59)" stroke-opacity="0.5"></polyline>
<polyline points="30 153.5 96 262 162 256 228 249.5 294 289.6 360 234 426 205 492 277.5" fill="none" stroke="rgb(233,189,57)" stroke-opacity="0.5"></polyline>
<polyline points="30 162.9 96 268.8 162 304.8 228 292 294 294.1 360 298.2 426 310.1 492 277.5" fill="none" stroke="rgb(160,182,117)" stroke-opacity="0.5"></polyline>
<polyline points="30 172.3 96 288.1 162 290.8 228 252.4 294 300 360 229.9 426 266.6 492 277.5" fill="none" stroke="rgb(185,187,96)" stroke-opacity="0.5"></polyline>
<polyline points="30 181.6 96 282.3 162 270 228 234 294 280.5 360 215.4 426 219.5 492 277.5" fill="none" stroke="rgb(222,196,65)" stroke-opacity="0.5"></polyline>
<polyline points="30 191 96 275.6 162 228.2 228 177.9 294 202.2 360 217.4 426 292 492 277.5" fill="none" stroke="rgb(227,151,70)" stroke-opacity="0.5"></polyline>
<polyline points="30 200.3 96 244.6 162 271.1 228 265.9 294 292.2 360 196.7 426 244.9 492 229.2" fill="none" stroke="rgb(220,196,66)" stroke-opacity="0.5"></polyline>
<polyline points="30 209.7 96 279.4 162 271.1 228 256.2 294 297.5 360 244.4 426 226.8 492 277.5" fill="none" stroke="rgb(220,196,66)" stroke-opacity="0.5"></polyline>
<polyline points="30 219 96 297.8 162 318.7 228 304.6 294 315.7 360 240.2 426 306.5 492 277.5" fill="none" stroke="rgb(135,176,138)" stroke-opacity="0.5"></polyline>
<polyline points="30 228.4 96 300.7 162 279.2 228 256.2 294 303 360 215.4 426 281.1 492 277.5" fill="none" stroke="rgb(205,192,79)" stroke-opacity="0.5"></polyline>
<polyline points="30 237.7 96 262 162 267.6 228 233 294 270.3 360 260.9 426 284.8 492 277.5" fill="none" stroke="rgb(226,197,61)" stroke-opacity="0.5"></polyline>
<polyline points="30 247.1 96 279.4 162 231.7 228 174.1 294 188.4 360 258.9 426 281.1 492 277.5" fill="none" stroke="rgb(228,155,68)" stroke-opacity="0.5"></polyline>
<polyline points="30 256.5 96 279.4 162 292 228 276.5 294 308.4 360 285.8 426 277.5 492 277.5" fill="none" stroke="rgb(183,187,98)" stroke-opacity="0.5"></polyline>
<polyline points="30 265.8 96 268.8 162 241 228 214.7 294 220.2 360 209.1 426 284.8 492 277.5" fill="none" stroke="rgb(230,168,64)" stroke-opacity="0.5"></polyline>
<polyline points="30 275.2 96 260.1 162 260.7 228 249.5 294 282.4 360 240.2 426 324.6 492 277.5" fill="none" stroke="rgb(234,196,55)" stroke-opacity="0.5"></polyline>
<polyline points="30 284.5 96 254.3 162 199.2 228 130.6 294 119.7 360 236.1 426 295.6 492 277.5" fill="none" stroke="rgb(222,110,83)" stroke-opacity="0.5"></polyline>
<polyline points="30 293.9 96 208.9 162 252.6 228 215.6 294 286.5 360 267.1 426 288.4 492 229.2" fill="none" stroke="rgb(232,184,59)" stroke-opacity="0.5"></polyline>
<polyline points="30 303.2 96 240.8 162 224.7 228 217.6 294 264.1 360 250.6 426 295.6 492 229.2" fill="none" stroke="rgb(227,146,71)" stroke-opacity="0.5"></polyline>
<polyline points="30 312.6 96 271.7 162 294.3 228 290.1 294 256.1 360 296.1 426 339.1 492 277.5" fill="none" stroke="rgb(179,186,102)" stroke-opacity="0.5"></polyline>
<polyline points="30 321.9 96 295.9 162 294.3 228 284.3 294 272.5 360 273.4 426 317.4 492 277.5" fill="none" stroke="rgb(179,186,102)" stroke-opacity="0.5"></polyline>
<polyline points="30 331.3 96 270.7 162 243.3 228 181.8 294 159.2 360 350 426 302.9 492 277.5" fill="none" stroke="rgb(230,172,63)" stroke-opacity="0.5"></polyline>
<polyline points="30 340.6 96 247.5 162 215.4 228 168.3 294 139.6 360 140.8 426 292 492 229.2" fill="none" stroke="rgb(225,133,75)" stroke-opacity="0.5"></polyline>
<polyline points="30 350 96 235.9 162 292 228 350 294 269.8 360 192.6 426 310.1 492 229.2" fill="none" stroke="rgb(183,187,98)" stroke-opacity="0.5"></polyline>
</g>
<path d="M-5 -145l30 0l0 150l-30 0Z" transform="translate(5 445)" fill="rgb(0,0,0)" fill-opacity="0" stroke="#ccc" stroke-width="0"></path>
<path d="M-5 -5l317.4 0l0 26l-317.4 0Z" transform="translate(146.28 399)" fill="rgb(0,0,0)" fill-opacity="0" stroke="#ccc" stroke-width="0"></path>
<g clip-path="url(#zr36-c3)">
<polygon points="0 0 20 0 20 140 0 140" transform="matrix(1,0,0,-1,5,445)" fill="url(#zr36-g0)"></polygon>
<polygon points="0 0 20 0 20 140 0 140" transform="matrix(1,0,0,-1,5,445)" fill="url(#zr36-g1)"></polygon>
</g>
<path d="M3.5 0L21.5 0A3.5 3.5 0 0 1 25 3.5L25 10.5A3.5 3.5 0 0 1 21.5 14L3.5 14A3.5 3.5 0 0 1 0 10.5L0 3.5A3.5 3.5 0 0 1 3.5 0" transform="translate(147.28 400)" fill="#5470c6" stroke="#5470c6" stroke-width="2" stroke-linecap="butt" stroke-miterlimit="10"></path>
<text dominant-baseline="central" text-anchor="start" style="font-size:14px;font-family:sans-serif;" x="30" y="7" transform="translate(147.28 400)" fill="#fff">Beijing</text>
<path d="M3.5 0L21.5 0A3.5 3.5 0 0 1 25 3.5L25 10.5A3.5 3.5 0 0 1 21.5 14L3.5 14A3.5 3.5 0 0 1 0 10.5L0 3.5A3.5 3.5 0 0 1 3.5 0" transform="translate(240.42 400)" fill="#91cc75" stroke="#91cc75" stroke-width="2" stroke-linecap="butt" stroke-miterlimit="10"></path>
<text dominant-baseline="central" text-anchor="start" style="font-size:14px;font-family:sans-serif;" x="30" y="7" transform="translate(240.42 400)" fill="#fff">Shanghai</text>
<path d="M3.5 0L21.5 0A3.5 3.5 0 0 1 25 3.5L25 10.5A3.5 3.5 0 0 1 21.5 14L3.5 14A3.5 3.5 0 0 1 0 10.5L0 3.5A3.5 3.5 0 0 1 3.5 0" transform="translate(350.92 400)" fill="#fac858" stroke="#fac858" stroke-width="2" stroke-linecap="butt" stroke-miterlimit="10"></path>
<text dominant-baseline="central" text-anchor="start" style="font-size:14px;font-family:sans-serif;" x="30" y="7" transform="translate(350.92 400)" fill="#fff">Guangzhou</text>
<path d="M30.5 60L30.5 350" fill="none" stroke="#6E7079" stroke-linecap="round"></path>
<text dominant-baseline="central" text-anchor="middle" style="font-size:12px;font-family:sans-serif;" y="-6" transform="translate(30 40)" fill="#fff">日期</text>
<path d="M96.5 350L96.5 60" fill="none" stroke="#6E7079" stroke-linecap="round"></path>
<text dominant-baseline="central" text-anchor="middle" style="font-size:12px;font-family:sans-serif;" y="-6" transform="translate(96 40)" fill="#fff">AQI</text>
<path d="M162.5 350L162.5 60" fill="none" stroke="#6E7079" stroke-linecap="round"></path>
<text dominant-baseline="central" text-anchor="middle" style="font-size:12px;font-family:sans-serif;" y="-6" transform="translate(162 40)" fill="#fff">PM2.5</text>
<path d="M228.5 350L228.5 60" fill="none" stroke="#6E7079" stroke-linecap="round"></path>
<text dominant-baseline="central" text-anchor="middle" style="font-size:12px;font-family:sans-serif;" y="-6" transform="translate(228 40)" fill="#fff">PM10</text>
<path d="M294.5 350L294.5 60" fill="none" stroke="#6E7079" stroke-linecap="round"></path>
<text dominant-baseline="central" text-anchor="middle" style="font-size:12px;font-family:sans-serif;" y="-6" transform="translate(294 40)" fill="#fff">CO</text>
<path d="M360.5 350L360.5 60" fill="none" stroke="#6E7079" stroke-linecap="round"></path>
<text dominant-baseline="central" text-anchor="middle" style="font-size:12px;font-family:sans-serif;" y="-6" transform="translate(360 40)" fill="#fff">NO2</text>
<path d="M426.5 350L426.5 60" fill="none" stroke="#6E7079" stroke-linecap="round"></path>
<text dominant-baseline="central" text-anchor="middle" style="font-size:12px;font-family:sans-serif;" y="-6" transform="translate(426 40)" fill="#fff">SO2</text>
<path d="M492.5 350L492.5 60" fill="none" stroke="#6E7079" stroke-linecap="round"></path>
<text dominant-baseline="central" text-anchor="middle" style="font-size:12px;font-family:sans-serif;" y="-6" transform="translate(492 40)" fill="#fff">等级</text>
<path d="M30 60.5L35 60.5" fill="none" stroke="#777"></path>
<path d="M30 107.5L35 107.5" fill="none" stroke="#777"></path>
<path d="M30 153.5L35 153.5" fill="none" stroke="#777"></path>
<path d="M30 200.5L35 200.5" fill="none" stroke="#777"></path>
<path d="M30 247.5L35 247.5" fill="none" stroke="#777"></path>
<path d="M30 294.5L35 294.5" fill="none" stroke="#777"></path>
<path d="M30 340.5L35 340.5" fill="none" stroke="#777"></path>
<path d="M96 350.5L101 350.5" fill="none" stroke="#777"></path>
<path d="M96 301.5L101 301.5" fill="none" stroke="#777"></path>
<path d="M96 253.5L101 253.5" fill="none" stroke="#777"></path>
<path d="M96 205.5L101 205.5" fill="none" stroke="#777"></path>
<path d="M96 156.5L101 156.5" fill="none" stroke="#777"></path>
<path d="M96 108.5L101 108.5" fill="none" stroke="#777"></path>
<path d="M96 60.5L101 60.5" fill="none" stroke="#777"></path>
<path d="M162 350.5L167 350.5" fill="none" stroke="#777"></path>
<path d="M162 292.5L167 292.5" fill="none" stroke="#777"></path>
<path d="M162 234.5L167 234.5" fill="none" stroke="#777"></path>
<path d="M162 176.5L167 176.5" fill="none" stroke="#777"></path>
<path d="M162 118.5L167 118.5" fill="none" stroke="#777"></path>
<path d="M162 60.5L167 60.5" fill="none" stroke="#777"></path>
<path d="M228 350.5L233 350.5" fill="none" stroke="#777"></path>
<path d="M228 301.5L233 301.5" fill="none" stroke="#777"></path>
<path d="M228 253.5L233 253.5" fill="none" stroke="#777"></path>
<path d="M228 205.5L233 205.5" fill="none" stroke="#777"></path>
<path d="M228 156.5L233 156.5" fill="none" stroke="#777"></path>
<path d="M228 108.5L233 108.5" fill="none" stroke="#777"></path>
<path d="M228 60.5L233 60.5" fill="none" stroke="#777"></path>
<path d="M294 350.5L299 350.5" fill="none" stroke="#777"></path>
<path d="M294 292.5L299 292.5" fill="none" stroke="#777"></path>
<path d="M294 234.5L299 234.5" fill="none" stroke="#777"></path>
<path d="M294 176.5L299 176.5" fill="none" stroke="#777"></path>
<path d="M294 118.5L299 118.5" fill="none" stroke="#777"></path>
<path d="M294 60.5L299 60.5" fill="none" stroke="#777"></path>
<path d="M360 350.5L365 350.5" fill="none" stroke="#777"></path>
<path d="M360 308.5L365 308.5" fill="none" stroke="#777"></path>
<path d="M360 267.5L365 267.5" fill="none" stroke="#777"></path>
<path d="M360 225.5L365 225.5" fill="none" stroke="#777"></path>
<path d="M360 184.5L365 184.5" fill="none" stroke="#777"></path>
<path d="M360 143.5L365 143.5" fill="none" stroke="#777"></path>
<path d="M360 101.5L365 101.5" fill="none" stroke="#777"></path>
<path d="M360 60.5L365 60.5" fill="none" stroke="#777"></path>
<path d="M426 350.5L431 350.5" fill="none" stroke="#777"></path>
<path d="M426 277.5L431 277.5" fill="none" stroke="#777"></path>
<path d="M426 205.5L431 205.5" fill="none" stroke="#777"></path>
<path d="M426 132.5L431 132.5" fill="none" stroke="#777"></path>
<path d="M426 60.5L431 60.5" fill="none" stroke="#777"></path>
<path d="M492 350.5L497 350.5" fill="none" stroke="#777"></path>
<path d="M492 301.5L497 301.5" fill="none" stroke="#777"></path>
<path d="M492 253.5L497 253.5" fill="none" stroke="#777"></path>
<path d="M492 205.5L497 205.5" fill="none" stroke="#777"></path>
<path d="M492 156.5L497 156.5" fill="none" stroke="#777"></path>
<path d="M492 108.5L497 108.5" fill="none" stroke="#777"></path>
<path d="M492 60.5L497 60.5" fill="none" stroke="#777"></path>
<text dominant-baseline="central" text-anchor="start" style="font-size:12px;font-family:sans-serif;" transform="translate(38 60)" fill="#fff">0</text>
<text dominant-baseline="central" text-anchor="start" style="font-size:12px;font-family:sans-serif;" transform="translate(38 106.7742)" fill="#fff">5</text>
<text dominant-baseline="central" text-anchor="start" style="font-size:12px;font-family:sans-serif;" transform="translate(38 153.5484)" fill="#fff">10</text>
<text dominant-baseline="central" text-anchor="start" style="font-size:12px;font-family:sans-serif;" transform="translate(38 200.3226)" fill="#fff">15</text>
<text dominant-baseline="central" text-anchor="start" style="font-size:12px;font-family:sans-serif;" transform="translate(38 247.0968)" fill="#fff">20</text>
<text dominant-baseline="central" text-anchor="start" style="font-size:12px;font-family:sans-serif;" transform="translate(38 293.871)" fill="#fff">25</text>
<text dominant-baseline="central" text-anchor="start" style="font-size:12px;font-family:sans-serif;" transform="translate(38 340.6452)" fill="#fff">30</text>
<text dominant-baseline="central" text-anchor="start" style="font-size:12px;font-family:sans-serif;" transform="translate(104 350)" fill="#fff">0</text>
<text dominant-baseline="central" text-anchor="start" style="font-size:12px;font-family:sans-serif;" transform="translate(104 301.6667)" fill="#fff">50</text>
<text dominant-baseline="central" text-anchor="start" style="font-size:12px;font-family:sans-serif;" transform="translate(104 253.3333)" fill="#fff">100</text>
<text dominant-baseline="central" text-anchor="start" style="font-size:12px;font-family:sans-serif;" transform="translate(104 205)" fill="#fff">150</text>
<text dominant-baseline="central" text-anchor="start" style="font-size:12px;font-family:sans-serif;" transform="translate(104 156.6667)" fill="#fff">200</text>
<text dominant-baseline="central" text-anchor="start" style="font-size:12px;font-family:sans-serif;" transform="translate(104 108.3333)" fill="#fff">250</text>
<text dominant-baseline="central" text-anchor="start" style="font-size:12px;font-family:sans-serif;" transform="translate(104 60)" fill="#fff">300</text>
<text dominant-baseline="central" text-anchor="start" style="font-size:12px;font-family:sans-serif;" transform="translate(170 350)" fill="#fff">0</text>
<text dominant-baseline="central" text-anchor="start" style="font-size:12px;font-family:sans-serif;" transform="translate(170 292)" fill="#fff">50</text>
<text dominant-baseline="central" text-anchor="start" style="font-size:12px;font-family:sans-serif;" transform="translate(170 234)" fill="#fff">100</text>
<text dominant-baseline="central" text-anchor="start" style="font-size:12px;font-family:sans-serif;" transform="translate(170 176)" fill="#fff">150</text>
<text dominant-baseline="central" text-anchor="start" style="font-size:12px;font-family:sans-serif;" transform="translate(170 118)" fill="#fff">200</text>
<text dominant-baseline="central" text-anchor="start" style="font-size:12px;font-family:sans-serif;" transform="translate(170 60)" fill="#fff">250</text>
<text dominant-baseline="central" text-anchor="start" style="font-size:12px;font-family:sans-serif;" transform="translate(236 350)" fill="#fff">0</text>
<text dominant-baseline="central" text-anchor="start" style="font-size:12px;font-family:sans-serif;" transform="translate(236 301.6667)" fill="#fff">50</text>
<text dominant-baseline="central" text-anchor="start" style="font-size:12px;font-family:sans-serif;" transform="translate(236 253.3333)" fill="#fff">100</text>
<text dominant-baseline="central" text-anchor="start" style="font-size:12px;font-family:sans-serif;" transform="translate(236 205)" fill="#fff">150</text>
<text dominant-baseline="central" text-anchor="start" style="font-size:12px;font-family:sans-serif;" transform="translate(236 156.6667)" fill="#fff">200</text>
<text dominant-baseline="central" text-anchor="start" style="font-size:12px;font-family:sans-serif;" transform="translate(236 108.3333)" fill="#fff">250</text>
<text dominant-baseline="central" text-anchor="start" style="font-size:12px;font-family:sans-serif;" transform="translate(236 60)" fill="#fff">300</text>
<text dominant-baseline="central" text-anchor="start" style="font-size:12px;font-family:sans-serif;" transform="translate(302 350)" fill="#fff">0</text>
<text dominant-baseline="central" text-anchor="start" style="font-size:12px;font-family:sans-serif;" transform="translate(302 292)" fill="#fff">1</text>
<text dominant-baseline="central" text-anchor="start" style="font-size:12px;font-family:sans-serif;" transform="translate(302 234)" fill="#fff">2</text>
<text dominant-baseline="central" text-anchor="start" style="font-size:12px;font-family:sans-serif;" transform="translate(302 176)" fill="#fff">3</text>
<text dominant-baseline="central" text-anchor="start" style="font-size:12px;font-family:sans-serif;" transform="translate(302 118)" fill="#fff">4</text>
<text dominant-baseline="central" text-anchor="start" style="font-size:12px;font-family:sans-serif;" transform="translate(302 60)" fill="#fff">5</text>
<text dominant-baseline="central" text-anchor="start" style="font-size:12px;font-family:sans-serif;" transform="translate(368 350)" fill="#fff">0</text>
<text dominant-baseline="central" text-anchor="start" style="font-size:12px;font-family:sans-serif;" transform="translate(368 308.5714)" fill="#fff">20</text>
<text dominant-baseline="central" text-anchor="start" style="font-size:12px;font-family:sans-serif;" transform="translate(368 267.1429)" fill="#fff">40</text>
<text dominant-baseline="central" text-anchor="start" style="font-size:12px;font-family:sans-serif;" transform="translate(368 225.7143)" fill="#fff">60</text>
<text dominant-baseline="central" text-anchor="start" style="font-size:12px;font-family:sans-serif;" transform="translate(368 184.2857)" fill="#fff">80</text>
<text dominant-baseline="central" text-anchor="start" style="font-size:12px;font-family:sans-serif;" transform="translate(368 142.8571)" fill="#fff">100</text>
<text dominant-baseline="central" text-anchor="start" style="font-size:12px;font-family:sans-serif;" transform="translate(368 101.4286)" fill="#fff">120</text>
<text dominant-baseline="central" text-anchor="start" style="font-size:12px;font-family:sans-serif;" transform="translate(368 60)" fill="#fff">140</text>
<text dominant-baseline="central" text-anchor="start" style="font-size:12px;font-family:sans-serif;" transform="translate(434 350)" fill="#fff">0</text>
<text dominant-baseline="central" text-anchor="start" style="font-size:12px;font-family:sans-serif;" transform="translate(434 277.5)" fill="#fff">20</text>
<text dominant-baseline="central" text-anchor="start" style="font-size:12px;font-family:sans-serif;" transform="translate(434 205)" fill="#fff">40</text>
<text dominant-baseline="central" text-anchor="start" style="font-size:12px;font-family:sans-serif;" transform="translate(434 132.5)" fill="#fff">60</text>
<text dominant-baseline="central" text-anchor="start" style="font-size:12px;font-family:sans-serif;" transform="translate(434 60)" fill="#fff">80</text>
<text dominant-baseline="central" text-anchor="start" style="font-size:12px;font-family:sans-serif;" transform="translate(500 325.8333)" fill="#fff">优</text>
<text dominant-baseline="central" text-anchor="start" style="font-size:12px;font-family:sans-serif;" transform="translate(500 277.5)" fill="#fff">良</text>
<text dominant-baseline="central" text-anchor="start" style="font-size:12px;font-family:sans-serif;" transform="translate(500 229.1667)" fill="#fff">轻度污染</text>
<text dominant-baseline="central" text-anchor="start" style="font-size:12px;font-family:sans-serif;" transform="translate(500 180.8333)" fill="#fff">中度污染</text>
<text dominant-baseline="central" text-anchor="start" style="font-size:12px;font-family:sans-serif;" transform="translate(500 132.5)" fill="#fff">重度污染</text>
<text dominant-baseline="central" text-anchor="start" style="font-size:12px;font-family:sans-serif;" transform="translate(500 84.1667)" fill="#fff">严重污染</text>
<defs >
<clipPath id="zr36-c0">
<path d="M30 60l462 0l0 290l-462 0Z" fill="#000"></path>
</clipPath>
<clipPath id="zr36-c1">
<path d="M30 60l462 0l0 290l-462 0Z" fill="#000"></path>
</clipPath>
<clipPath id="zr36-c2">
<path d="M30 60l462 0l0 290l-462 0Z" fill="#000"></path>
</clipPath>
<clipPath id="zr36-c3">
<path d="M3 0L17 0A3 3 0 0 1 20 3L20 137A3 3 0 0 1 17 140L3 140A3 3 0 0 1 0 137L0 3A3 3 0 0 1 3 0" transform="matrix(1,0,0,-1,5,445)" fill="#000"></path>
</clipPath>
<linearGradient gradientUnits="objectBoundingBox" x1="0" y1="0" x2="0" y2="1" id="zr36-g0">
<stop offset="0%" stop-color="rgb(170,170,170)"></stop>
<stop offset="1%" stop-color="rgb(170,170,170)"></stop>
<stop offset="2%" stop-color="rgb(170,170,170)"></stop>
<stop offset="3%" stop-color="rgb(170,170,170)"></stop>
<stop offset="4%" stop-color="rgb(170,170,170)"></stop>
<stop offset="5%" stop-color="rgb(170,170,170)"></stop>
<stop offset="6%" stop-color="rgb(170,170,170)"></stop>
<stop offset="7.000000000000001%" stop-color="rgb(170,170,170)"></stop>
<stop offset="8%" stop-color="rgb(170,170,170)"></stop>
<stop offset="9%" stop-color="rgb(170,170,170)"></stop>
<stop offset="10%" stop-color="rgb(170,170,170)"></stop>
<stop offset="11%" stop-color="rgb(170,170,170)"></stop>
<stop offset="12%" stop-color="rgb(170,170,170)"></stop>
<stop offset="13%" stop-color="rgb(170,170,170)"></stop>
<stop offset="14.000000000000002%" stop-color="rgb(170,170,170)"></stop>
<stop offset="15%" stop-color="rgb(170,170,170)"></stop>
<stop offset="16%" stop-color="rgb(170,170,170)"></stop>
<stop offset="17%" stop-color="rgb(170,170,170)"></stop>
<stop offset="18%" stop-color="rgb(170,170,170)"></stop>
<stop offset="19%" stop-color="rgb(170,170,170)"></stop>
<stop offset="20%" stop-color="rgb(170,170,170)"></stop>
<stop offset="21%" stop-color="rgb(170,170,170)"></stop>
<stop offset="22%" stop-color="rgb(170,170,170)"></stop>
<stop offset="23%" stop-color="rgb(170,170,170)"></stop>
<stop offset="24%" stop-color="rgb(170,170,170)"></stop>
<stop offset="25%" stop-color="rgb(170,170,170)"></stop>
<stop offset="26%" stop-color="rgb(170,170,170)"></stop>
<stop offset="27%" stop-color="rgb(170,170,170)"></stop>
<stop offset="28.000000000000004%" stop-color="rgb(170,170,170)"></stop>
<stop offset="28.999999999999996%" stop-color="rgb(170,170,170)"></stop>
<stop offset="30%" stop-color="rgb(170,170,170)"></stop>
<stop offset="31%" stop-color="rgb(170,170,170)"></stop>
<stop offset="32%" stop-color="rgb(170,170,170)"></stop>
<stop offset="33%" stop-color="rgb(170,170,170)"></stop>
<stop offset="34%" stop-color="rgb(170,170,170)"></stop>
<stop offset="35%" stop-color="rgb(170,170,170)"></stop>
<stop offset="36%" stop-color="rgb(170,170,170)"></stop>
<stop offset="37%" stop-color="rgb(170,170,170)"></stop>
<stop offset="38%" stop-color="rgb(170,170,170)"></stop>
<stop offset="39%" stop-color="rgb(170,170,170)"></stop>
<stop offset="40%" stop-color="rgb(170,170,170)"></stop>
<stop offset="41%" stop-color="rgb(170,170,170)"></stop>
<stop offset="42%" stop-color="rgb(170,170,170)"></stop>
<stop offset="43%" stop-color="rgb(170,170,170)"></stop>
<stop offset="44%" stop-color="rgb(170,170,170)"></stop>
<stop offset="45%" stop-color="rgb(170,170,170)"></stop>
<stop offset="46%" stop-color="rgb(170,170,170)"></stop>
<stop offset="47%" stop-color="rgb(170,170,170)"></stop>
<stop offset="48%" stop-color="rgb(170,170,170)"></stop>
<stop offset="49%" stop-color="rgb(170,170,170)"></stop>
<stop offset="50%" stop-color="rgb(170,170,170)"></stop>
<stop offset="51%" stop-color="rgb(170,170,170)"></stop>
<stop offset="52%" stop-color="rgb(170,170,170)"></stop>
<stop offset="53%" stop-color="rgb(170,170,170)"></stop>
<stop offset="54%" stop-color="rgb(170,170,170)"></stop>
<stop offset="55.00000000000001%" stop-color="rgb(170,170,170)"></stop>
<stop offset="56.00000000000001%" stop-color="rgb(170,170,170)"></stop>
<stop offset="56.99999999999999%" stop-color="rgb(170,170,170)"></stop>
<stop offset="57.99999999999999%" stop-color="rgb(170,170,170)"></stop>
<stop offset="59%" stop-color="rgb(170,170,170)"></stop>
<stop offset="60%" stop-color="rgb(170,170,170)"></stop>
<stop offset="61%" stop-color="rgb(170,170,170)"></stop>
<stop offset="62%" stop-color="rgb(170,170,170)"></stop>
<stop offset="63%" stop-color="rgb(170,170,170)"></stop>
<stop offset="64%" stop-color="rgb(170,170,170)"></stop>
<stop offset="65%" stop-color="rgb(170,170,170)"></stop>
<stop offset="66%" stop-color="rgb(170,170,170)"></stop>
<stop offset="67%" stop-color="rgb(170,170,170)"></stop>
<stop offset="68%" stop-color="rgb(170,170,170)"></stop>
<stop offset="69%" stop-color="rgb(170,170,170)"></stop>
<stop offset="70%" stop-color="rgb(170,170,170)"></stop>
<stop offset="71%" stop-color="rgb(170,170,170)"></stop>
<stop offset="72%" stop-color="rgb(170,170,170)"></stop>
<stop offset="73%" stop-color="rgb(170,170,170)"></stop>
<stop offset="74%" stop-color="rgb(170,170,170)"></stop>
<stop offset="75%" stop-color="rgb(170,170,170)"></stop>
<stop offset="76%" stop-color="rgb(170,170,170)"></stop>
<stop offset="77%" stop-color="rgb(170,170,170)"></stop>
<stop offset="78%" stop-color="rgb(170,170,170)"></stop>
<stop offset="79%" stop-color="rgb(170,170,170)"></stop>
<stop offset="80%" stop-color="rgb(170,170,170)"></stop>
<stop offset="81%" stop-color="rgb(170,170,170)"></stop>
<stop offset="82%" stop-color="rgb(170,170,170)"></stop>
<stop offset="83%" stop-color="rgb(170,170,170)"></stop>
<stop offset="84%" stop-color="rgb(170,170,170)"></stop>
<stop offset="85%" stop-color="rgb(170,170,170)"></stop>
<stop offset="86%" stop-color="rgb(170,170,170)"></stop>
<stop offset="87%" stop-color="rgb(170,170,170)"></stop>
<stop offset="88%" stop-color="rgb(170,170,170)"></stop>
<stop offset="89%" stop-color="rgb(170,170,170)"></stop>
<stop offset="90%" stop-color="rgb(170,170,170)"></stop>
<stop offset="91%" stop-color="rgb(170,170,170)"></stop>
<stop offset="92%" stop-color="rgb(170,170,170)"></stop>
<stop offset="93%" stop-color="rgb(170,170,170)"></stop>
<stop offset="94%" stop-color="rgb(170,170,170)"></stop>
<stop offset="95%" stop-color="rgb(170,170,170)"></stop>
<stop offset="96%" stop-color="rgb(170,170,170)"></stop>
<stop offset="97%" stop-color="rgb(170,170,170)"></stop>
<stop offset="98%" stop-color="rgb(170,170,170)"></stop>
<stop offset="99%" stop-color="rgb(170,170,170)"></stop>
<stop offset="100%" stop-color="rgb(170,170,170)"></stop>
</linearGradient>
<linearGradient gradientUnits="objectBoundingBox" x1="0" y1="0" x2="0" y2="1" id="zr36-g1">
<stop offset="0%" stop-color="rgb(80,163,186)"></stop>
<stop offset="1%" stop-color="rgb(83,164,183)"></stop>
<stop offset="2%" stop-color="rgb(86,164,181)"></stop>
<stop offset="3%" stop-color="rgb(89,165,178)"></stop>
<stop offset="4%" stop-color="rgb(92,166,175)"></stop>
<stop offset="5%" stop-color="rgb(95,167,173)"></stop>
<stop offset="6%" stop-color="rgb(98,167,170)"></stop>
<stop offset="7.000000000000001%" stop-color="rgb(102,168,168)"></stop>
<stop offset="8%" stop-color="rgb(105,169,165)"></stop>
<stop offset="9%" stop-color="rgb(108,169,162)"></stop>
<stop offset="10%" stop-color="rgb(111,170,160)"></stop>
<stop offset="11%" stop-color="rgb(114,171,157)"></stop>
<stop offset="12%" stop-color="rgb(117,172,154)"></stop>
<stop offset="13%" stop-color="rgb(120,172,152)"></stop>
<stop offset="14.000000000000002%" stop-color="rgb(123,173,149)"></stop>
<stop offset="15%" stop-color="rgb(126,174,146)"></stop>
<stop offset="16%" stop-color="rgb(129,175,144)"></stop>
<stop offset="17%" stop-color="rgb(132,175,141)"></stop>
<stop offset="18%" stop-color="rgb(135,176,138)"></stop>
<stop offset="19%" stop-color="rgb(139,177,136)"></stop>
<stop offset="20%" stop-color="rgb(142,177,133)"></stop>
<stop offset="21%" stop-color="rgb(145,178,131)"></stop>
<stop offset="22%" stop-color="rgb(148,179,128)"></stop>
<stop offset="23%" stop-color="rgb(151,180,125)"></stop>
<stop offset="24%" stop-color="rgb(154,180,123)"></stop>
<stop offset="25%" stop-color="rgb(157,181,120)"></stop>
<stop offset="26%" stop-color="rgb(160,182,117)"></stop>
<stop offset="27%" stop-color="rgb(163,182,115)"></stop>
<stop offset="28.000000000000004%" stop-color="rgb(166,183,112)"></stop>
<stop offset="28.999999999999996%" stop-color="rgb(169,184,109)"></stop>
<stop offset="30%" stop-color="rgb(172,185,107)"></stop>
<stop offset="31%" stop-color="rgb(175,185,104)"></stop>
<stop offset="32%" stop-color="rgb(179,186,102)"></stop>
<stop offset="33%" stop-color="rgb(182,187,99)"></stop>
<stop offset="34%" stop-color="rgb(185,187,96)"></stop>
<stop offset="35%" stop-color="rgb(188,188,94)"></stop>
<stop offset="36%" stop-color="rgb(191,189,91)"></stop>
<stop offset="37%" stop-color="rgb(194,190,88)"></stop>
<stop offset="38%" stop-color="rgb(197,190,86)"></stop>
<stop offset="39%" stop-color="rgb(200,191,83)"></stop>
<stop offset="40%" stop-color="rgb(203,192,80)"></stop>
<stop offset="41%" stop-color="rgb(206,193,78)"></stop>
<stop offset="42%" stop-color="rgb(209,193,75)"></stop>
<stop offset="43%" stop-color="rgb(212,194,72)"></stop>
<stop offset="44%" stop-color="rgb(216,195,70)"></stop>
<stop offset="45%" stop-color="rgb(219,195,67)"></stop>
<stop offset="46%" stop-color="rgb(222,196,65)"></stop>
<stop offset="47%" stop-color="rgb(225,197,62)"></stop>
<stop offset="48%" stop-color="rgb(228,198,59)"></stop>
<stop offset="49%" stop-color="rgb(231,198,57)"></stop>
<stop offset="50%" stop-color="rgb(234,199,54)"></stop>
<stop offset="51%" stop-color="rgb(234,197,55)"></stop>
<stop offset="52%" stop-color="rgb(233,194,56)"></stop>
<stop offset="53%" stop-color="rgb(233,192,56)"></stop>
<stop offset="54%" stop-color="rgb(233,189,57)"></stop>
<stop offset="55.00000000000001%" stop-color="rgb(232,187,58)"></stop>
<stop offset="56.00000000000001%" stop-color="rgb(232,184,59)"></stop>
<stop offset="56.99999999999999%" stop-color="rgb(232,182,59)"></stop>
<stop offset="57.99999999999999%" stop-color="rgb(231,180,60)"></stop>
<stop offset="59%" stop-color="rgb(231,177,61)"></stop>
<stop offset="60%" stop-color="rgb(231,175,62)"></stop>
<stop offset="61%" stop-color="rgb(230,172,63)"></stop>
<stop offset="62%" stop-color="rgb(230,170,63)"></stop>
<stop offset="63%" stop-color="rgb(230,168,64)"></stop>
<stop offset="64%" stop-color="rgb(229,165,65)"></stop>
<stop offset="65%" stop-color="rgb(229,163,66)"></stop>
<stop offset="66%" stop-color="rgb(229,160,66)"></stop>
<stop offset="67%" stop-color="rgb(228,158,67)"></stop>
<stop offset="68%" stop-color="rgb(228,155,68)"></stop>
<stop offset="69%" stop-color="rgb(228,153,69)"></stop>
<stop offset="70%" stop-color="rgb(227,151,70)"></stop>
<stop offset="71%" stop-color="rgb(227,148,70)"></stop>
<stop offset="72%" stop-color="rgb(227,146,71)"></stop>
<stop offset="73%" stop-color="rgb(226,143,72)"></stop>
<stop offset="74%" stop-color="rgb(226,141,73)"></stop>
<stop offset="75%" stop-color="rgb(226,139,74)"></stop>
<stop offset="76%" stop-color="rgb(225,136,74)"></stop>
<stop offset="77%" stop-color="rgb(225,134,75)"></stop>
<stop offset="78%" stop-color="rgb(224,131,76)"></stop>
<stop offset="79%" stop-color="rgb(224,129,77)"></stop>
<stop offset="80%" stop-color="rgb(224,126,77)"></stop>
<stop offset="81%" stop-color="rgb(223,124,78)"></stop>
<stop offset="82%" stop-color="rgb(223,122,79)"></stop>
<stop offset="83%" stop-color="rgb(223,119,80)"></stop>
<stop offset="84%" stop-color="rgb(222,117,81)"></stop>
<stop offset="85%" stop-color="rgb(222,114,81)"></stop>
<stop offset="86%" stop-color="rgb(222,112,82)"></stop>
<stop offset="87%" stop-color="rgb(221,109,83)"></stop>
<stop offset="88%" stop-color="rgb(221,107,84)"></stop>
<stop offset="89%" stop-color="rgb(221,105,84)"></stop>
<stop offset="90%" stop-color="rgb(220,102,85)"></stop>
<stop offset="91%" stop-color="rgb(220,100,86)"></stop>
<stop offset="92%" stop-color="rgb(220,97,87)"></stop>
<stop offset="93%" stop-color="rgb(219,95,88)"></stop>
<stop offset="94%" stop-color="rgb(219,93,88)"></stop>
<stop offset="95%" stop-color="rgb(219,90,89)"></stop>
<stop offset="96%" stop-color="rgb(218,88,90)"></stop>
<stop offset="97%" stop-color="rgb(218,85,91)"></stop>
<stop offset="98%" stop-color="rgb(218,83,91)"></stop>
<stop offset="99%" stop-color="rgb(217,80,92)"></stop>
<stop offset="100%" stop-color="rgb(217,78,93)"></stop>
</linearGradient>
</defs>
</svg>