<svg width="600" height="450" xmlns="http://www.w3.org/2000/svg" xmlns:xlink="http://www.w3.org/1999/xlink" version="1.1" baseProfile="full" viewBox="0 0 600 450">
<rect width="600" height="450" x="0" y="0" id="0" fill="none"></rect>
<path d="M300 191.3L270.8 208.1L270.8 241.9L300 258.8L329.2 241.9L329.2 208.1L300 191.3L300 225ZM300 123.8L212.3 174.4L212.3 275.6L300 326.3L387.7 275.6L387.7 174.4L300 123.8L300 157.5L358.5 191.3L358.5 258.8L300 292.5L241.5 258.8L241.5 191.2L300 157.5ZM300 56.3L153.9 140.6L153.9 309.4L300 393.8L446.1 309.4L446.1 140.6L300 56.3L300 90L416.9 157.5L416.9 292.5L300 360L183.1 292.5L183.1 157.5L300 90Z" fill="rgb(250,250,250)" fill-opacity="0.2"></path>
<path d="M300 157.5L241.5 191.2L241.5 258.8L300 292.5L358.5 258.8L358.5 191.3L300 157.5L300 191.3L329.2 208.1L329.2 241.9L300 258.8L270.8 241.9L270.8 208.1L300 191.3ZM300 90L183.1 157.5L183.1 292.5L300 360L416.9 292.5L416.9 157.5L300 90L300 123.8L387.7 174.4L387.7 275.6L300 326.3L212.3 275.6L212.3 174.4L300 123.8Z" fill="rgb(210,219,238)" fill-opacity="0.2"></path>
<path d="M300 225M300 191.3L270.8 208.1L270.8 241.9L300 258.8L329.2 241.9L329.2 208.1L300 191.3M300 157.5L241.5 191.2L241.5 258.8L300 292.5L358.5 258.8L358.5 191.3L300 157.5M300 123.8L212.3 174.4L212.3 275.6L300 326.3L387.7 275.6L387.7 174.4L300 123.8M300 90L183.1 157.5L183.1 292.5L300 360L416.9 292.5L416.9 157.5L300 90M300 56.3L153.9 140.6L153.9 309.4L300 393.8L446.1 309.4L446.1 140.6L300 56.3" fill="none" stroke="#E0E6F1"></path>
<path d="M300.5 225L300.5 56.3" fill="none" stroke="#bbb" stroke-linecap="round"></path>
<text dominant-baseline="central" text-anchor="middle" style="font-size:12px;font-family:sans-serif;" y="-6" transform="translate(300 41.25)" fill="#bbb">Sales</text>
<path d="M300 225L153.9 140.6" fill="none" stroke="#bbb" stroke-linecap="round"></path>
<text dominant-baseline="central" text-anchor="end" style="font-size:12px;font-family:sans-serif;" transform="translate(140.8678 133.125)" fill="#bbb">Administration</text>
<path d="M300 225L153.9 309.4" fill="none" stroke="#bbb" stroke-linecap="round"></path>
<text dominant-baseline="central" text-anchor="end" style="font-size:12px;font-family:sans-serif;" xml:space="preserve" transform="translate(140.8678 316.875)" fill="#bbb">Information Technology</text>
<path d="M300.5 225L300.5 393.8" fill="none" stroke="#bbb" stroke-linecap="round"></path>
<text dominant-baseline="central" text-anchor="middle" style="font-size:12px;font-family:sans-serif;" xml:space="preserve" y="6" transform="translate(300 408.75)" fill="#bbb">Customer Support</text>
<path d="M300 225L446.1 309.4" fill="none" stroke="#bbb" stroke-linecap="round"></path>
<text dominant-baseline="central" text-anchor="start" style="font-size:12px;font-family:sans-serif;" transform="translate(459.1322 316.875)" fill="#bbb">Development</text>
<path d="M300 225L446.1 140.6" fill="none" stroke="#bbb" stroke-linecap="round"></path>
<text dominant-baseline="central" text-anchor="start" style="font-size:12px;font-family:sans-serif;" transform="translate(459.1322 133.125)" fill="#bbb">Marketing</text>
<polyline points="300 116 272.6 209.2 202.6 281.2 300 380.4 440.5 306.1 405.2 164.3 300 116" fill="none" stroke="#5470c6" stroke-width="2" stroke-linejoin="round"></polyline>
<polyline points="300 95.2 172.1 151.2 163.6 303.7 300 340.5 418 293.1 422.8 154.1 300 95.2" fill="none" stroke="#91cc75" stroke-width="2" stroke-linejoin="round"></polyline>
<path d="M1 0A1 1 0 1 1 1 -0.1A1 1 0 0 1 1 0" transform="matrix(4,0,0,4,300,115.9615)" fill="#5470c6"></path>
<path d="M1 0A1 1 0 1 1 1 -0.1A1 1 0 0 1 1 0" transform="matrix(4,0,0,4,272.5984,209.1797)" fill="#5470c6"></path>
<path d="M1 0A1 1 0 1 1 1 -0.1A1 1 0 0 1 1 0" transform="matrix(4,0,0,4,202.5721,281.25)" fill="#5470c6"></path>
<path d="M1 0A1 1 0 1 1 1 -0.1A1 1 0 0 1 1 0" transform="matrix(4,0,0,4,300,380.4276)" fill="#5470c6"></path>
<path d="M1 0A1 1 0 1 1 1 -0.1A1 1 0 0 1 1 0" transform="matrix(4,0,0,4,440.5209,306.1298)" fill="#5470c6"></path>
<path d="M1 0A1 1 0 1 1 1 -0.1A1 1 0 0 1 1 0" transform="matrix(4,0,0,4,405.2221,164.25)" fill="#5470c6"></path>
<path d="M1 0A1 1 0 1 1 1 -0.1A1 1 0 0 1 1 0" transform="matrix(4,0,0,4,300,95.1923)" fill="#91cc75"></path>
<path d="M1 0A1 1 0 1 1 1 -0.1A1 1 0 0 1 1 0" transform="matrix(4,0,0,4,172.1259,151.1719)" fill="#91cc75"></path>
<path d="M1 0A1 1 0 1 1 1 -0.1A1 1 0 0 1 1 0" transform="matrix(4,0,0,4,163.601,303.75)" fill="#91cc75"></path>
<path d="M1 0A1 1 0 1 1 1 -0.1A1 1 0 0 1 1 0" transform="matrix(4,0,0,4,300,340.4605)" fill="#91cc75"></path>
<path d="M1 0A1 1 0 1 1 1 -0.1A1 1 0 0 1 1 0" transform="matrix(4,0,0,4,418.0376,293.149)" fill="#91cc75"></path>
<path d="M1 0A1 1 0 1 1 1 -0.1A1 1 0 0 1 1 0" transform="matrix(4,0,0,4,422.7591,154.125)" fill="#91cc75"></path>
<path d="M-5 -5l259 0l0 24l-259 0Z" transform="translate(175.48 5)" fill="rgb(0,0,0)" fill-opacity="0" stroke="#ccc" stroke-width="0"></path>
<path d="M3.5 0L21.5 0A3.5 3.5 0 0 1 25 3.5L25 10.5A3.5 3.5 0 0 1 21.5 14L3.5 14A3.5 3.5 0 0 1 0 10.5L0 3.5A3.5 3.5 0 0 1 3.5 0" transform="translate(175.48 5)" fill="#5470c6"></path>
<text dominant-baseline="central" text-anchor="start" style="font-size:12px;font-family:sans-serif;" xml:space="preserve" x="30" y="7" transform="translate(175.48 5)" fill="#333">Allocated Budget</text>
<path d="M3.5 0L21.5 0A3.5 3.5 0 0 1 25 3.5L25 10.5A3.5 3.5 0 0 1 21.5 14L3.5 14A3.5 3.5 0 0 1 0 10.5L0 3.5A3.5 3.5 0 0 1 3.5 0" transform="translate(306.68 5)" fill="#91cc75"></path>
<text dominant-baseline="central" text-anchor="start" style="font-size:12px;font-family:sans-serif;" xml:space="preserve" x="30" y="7" transform="translate(306.68 5)" fill="#333">Actual Spending</text>
<path d="M-5 -5l157.4 0l0 28l-157.4 0Z" transform="translate(5 5)" fill="rgb(0,0,0)" fill-opacity="0" stroke="#ccc" stroke-width="0"></path>
<text dominant-baseline="central" text-anchor="start" style="font-size:18px;font-family:sans-serif;font-weight:bold;" xml:space="preserve" y="9" transform="translate(5 5)" fill="#464646">Basic Radar Chart</text>
</svg>