<svg width="600" height="450" xmlns="http://www.w3.org/2000/svg" xmlns:xlink="http://www.w3.org/1999/xlink" version="1.1" baseProfile="full" viewBox="0 0 600 450">
<rect width="600" height="450" x="0" y="0" id="0" fill="none"></rect>
<path d="M150 164L134 180L150 196L166 180L150 164L150 180ZM150 132L102 180L150 228L198 180L150 132L150 148L182 180L150 212L118 180L150 148ZM150 100L70 180L150 260L230 180L150 100L150 116L214 180L150 244L86 180L150 116Z" fill="rgb(250,250,250)" fill-opacity="0.2"></path>
<path d="M150 148L118 180L150 212L182 180L150 148L150 164L166 180L150 196L134 180L150 164ZM150 116L86 180L150 244L214 180L150 116L150 132L198 180L150 228L102 180L150 132Z" fill="rgb(210,219,238)" fill-opacity="0.2"></path>
<path d="M150 180M150 164L134 180L150 196L166 180L150 164M150 148L118 180L150 212L182 180L150 148M150 132L102 180L150 228L198 180L150 132M150 116L86 180L150 244L214 180L150 116M150 100L70 180L150 260L230 180L150 100" fill="none" stroke="#E0E6F1"></path>
<path d="M300 254L284.8 265.1L290.6 282.9L309.4 282.9L315.2 265.1L300 254L300 270ZM300 222L254.3 255.2L271.8 308.8L328.2 308.8L345.7 255.2L300 222L300 238L330.4 260.1L318.8 295.9L281.2 295.9L269.6 260.1L300 238ZM300 190L223.9 245.3L253 334.7L347 334.7L376.1 245.3L300 190L300 206L360.9 250.2L337.6 321.8L262.4 321.8L239.1 250.2L300 206Z" fill="rgb(250,250,250)" fill-opacity="0.2"></path>
<path d="M300 238L269.6 260.1L281.2 295.9L318.8 295.9L330.4 260.1L300 238L300 254L315.2 265.1L309.4 282.9L290.6 282.9L284.8 265.1L300 254ZM300 206L239.1 250.2L262.4 321.8L337.6 321.8L360.9 250.2L300 206L300 222L345.7 255.2L328.2 308.8L271.8 308.8L254.3 255.2L300 222Z" fill="rgb(210,219,238)" fill-opacity="0.2"></path>
<path d="M300 270M300 254L284.8 265.1L290.6 282.9L309.4 282.9L315.2 265.1L300 254M300 238L269.6 260.1L281.2 295.9L318.8 295.9L330.4 260.1L300 238M300 222L254.3 255.2L271.8 308.8L328.2 308.8L345.7 255.2L300 222M300 206L239.1 250.2L262.4 321.8L337.6 321.8L360.9 250.2L300 206M300 190L223.9 245.3L253 334.7L347 334.7L376.1 245.3L300 190" fill="none" stroke="#E0E6F1"></path>
<path d="M450 164L442 166.1L436.1 172L434 180L436.1 188L442 193.9L450 196L458 193.9L463.9 188L466 180L463.9 172L458 166.1L450 164L450 180ZM450 132L426 138.4L408.4 156L402 180L408.4 204L426 221.6L450 228L474 221.6L491.6 204L498 180L491.6 156L474 138.4L450 132L450 148L466 152.3L477.7 164L482 180L477.7 196L466 207.7L450 212L434 207.7L422.3 196L418 180L422.3 164L434 152.3L450 148ZM450 100L410 110.7L380.7 140L370 180L380.7 220L410 249.3L450 260L490 249.3L519.3 220L530 180L519.3 140L490 110.7L450 100L450 116L482 124.6L505.4 148L514 180L505.4 212L482 235.4L450 244L418 235.4L394.6 212L386 180L394.6 148L418 124.6L450 116Z" fill="rgb(250,250,250)" fill-opacity="0.2"></path>
<path d="M450 148L434 152.3L422.3 164L418 180L422.3 196L434 207.7L450 212L466 207.7L477.7 196L482 180L477.7 164L466 152.3L450 148L450 164L458 166.1L463.9 172L466 180L463.9 188L458 193.9L450 196L442 193.9L436.1 188L434 180L436.1 172L442 166.1L450 164ZM450 116L418 124.6L394.6 148L386 180L394.6 212L418 235.4L450 244L482 235.4L505.4 212L514 180L505.4 148L482 124.6L450 116L450 132L474 138.4L491.6 156L498 180L491.6 204L474 221.6L450 228L426 221.6L408.4 204L402 180L408.4 156L426 138.4L450 132Z" fill="rgb(210,219,238)" fill-opacity="0.2"></path>
<path d="M450 180M450 164L442 166.1L436.1 172L434 180L436.1 188L442 193.9L450 196L458 193.9L463.9 188L466 180L463.9 172L458 166.1L450 164M450 148L434 152.3L422.3 164L418 180L422.3 196L434 207.7L450 212L466 207.7L477.7 196L482 180L477.7 164L466 152.3L450 148M450 132L426 138.4L408.4 156L402 180L408.4 204L426 221.6L450 228L474 221.6L491.6 204L498 180L491.6 156L474 138.4L450 132M450 116L418 124.6L394.6 148L386 180L394.6 212L418 235.4L450 244L482 235.4L505.4 212L514 180L505.4 148L482 124.6L450 116M450 100L410 110.7L380.7 140L370 180L380.7 220L410 249.3L450 260L490 249.3L519.3 220L530 180L519.3 140L490 110.7L450 100" fill="none" stroke="#E0E6F1"></path>
<path d="M150.5 180L150.5 100" fill="none" stroke="#bbb" stroke-linecap="round"></path>
<text dominant-baseline="central" text-anchor="middle" style="font-size:12px;font-family:sans-serif;" y="-6" transform="translate(150 85)" fill="#bbb">Brand</text>
<path d="M150 180.5L70 180.5" fill="none" stroke="#bbb" stroke-linecap="round"></path>
<text dominant-baseline="central" text-anchor="end" style="font-size:12px;font-family:sans-serif;" transform="translate(55 180)" fill="#bbb">Content</text>
<path d="M150.5 180L150.5 260" fill="none" stroke="#bbb" stroke-linecap="round"></path>
<text dominant-baseline="central" text-anchor="middle" style="font-size:12px;font-family:sans-serif;" y="6" transform="translate(150 275)" fill="#bbb">Usability</text>
<path d="M150 180.5L230 180.5" fill="none" stroke="#bbb" stroke-linecap="round"></path>
<text dominant-baseline="central" text-anchor="start" style="font-size:12px;font-family:sans-serif;" transform="translate(245 180)" fill="#bbb">Function</text>
<path d="M300.5 270L300.5 190" fill="none" stroke="#bbb" stroke-linecap="round"></path>
<text dominant-baseline="central" text-anchor="middle" style="font-size:12px;font-family:sans-serif;" y="-6" transform="translate(300 175)" fill="#bbb">Look</text>
<path d="M300 270L223.9 245.3" fill="none" stroke="#bbb" stroke-linecap="round"></path>
<text dominant-baseline="central" text-anchor="end" style="font-size:12px;font-family:sans-serif;" transform="translate(209.6496 240.6434)" fill="#bbb">Photo</text>
<path d="M300 270L253 334.7" fill="none" stroke="#bbb" stroke-linecap="round"></path>
<text dominant-baseline="central" text-anchor="end" style="font-size:12px;font-family:sans-serif;" transform="translate(244.1604 346.8566)" fill="#bbb">System</text>
<path d="M300 270L347 334.7" fill="none" stroke="#bbb" stroke-linecap="round"></path>
<text dominant-baseline="central" text-anchor="start" style="font-size:12px;font-family:sans-serif;" transform="translate(355.8396 346.8566)" fill="#bbb">Performance</text>
<path d="M300 270L376.1 245.3" fill="none" stroke="#bbb" stroke-linecap="round"></path>
<text dominant-baseline="central" text-anchor="start" style="font-size:12px;font-family:sans-serif;" transform="translate(390.3504 240.6434)" fill="#bbb">Screen</text>
<path d="M450.5 180L450.5 100" fill="none" stroke="#bbb" stroke-linecap="round"></path>
<text dominant-baseline="central" text-anchor="middle" style="font-size:12px;font-family:sans-serif;" y="-6" transform="translate(450 85)" fill="#bbb">1月</text>
<path d="M450 180L410 110.7" fill="none" stroke="#bbb" stroke-linecap="round"></path>
<text dominant-baseline="central" text-anchor="end" style="font-size:12px;font-family:sans-serif;" transform="translate(402.5 97.7276)" fill="#bbb">2月</text>
<path d="M450 180L380.7 140" fill="none" stroke="#bbb" stroke-linecap="round"></path>
<text dominant-baseline="central" text-anchor="end" style="font-size:12px;font-family:sans-serif;" transform="translate(367.7276 132.5)" fill="#bbb">3月</text>
<path d="M450 180.5L370 180.5" fill="none" stroke="#bbb" stroke-linecap="round"></path>
<text dominant-baseline="central" text-anchor="end" style="font-size:12px;font-family:sans-serif;" transform="translate(355 180)" fill="#bbb">4月</text>
<path d="M450 180L380.7 220" fill="none" stroke="#bbb" stroke-linecap="round"></path>
<text dominant-baseline="central" text-anchor="end" style="font-size:12px;font-family:sans-serif;" transform="translate(367.7276 227.5)" fill="#bbb">5月</text>
<path d="M450 180L410 249.3" fill="none" stroke="#bbb" stroke-linecap="round"></path>
<text dominant-baseline="central" text-anchor="end" style="font-size:12px;font-family:sans-serif;" transform="translate(402.5 262.2724)" fill="#bbb">6月</text>
<path d="M450.5 180L450.5 260" fill="none" stroke="#bbb" stroke-linecap="round"></path>
<text dominant-baseline="central" text-anchor="middle" style="font-size:12px;font-family:sans-serif;" y="6" transform="translate(450 275)" fill="#bbb">7月</text>
<path d="M450 180L490 249.3" fill="none" stroke="#bbb" stroke-linecap="round"></path>
<text dominant-baseline="central" text-anchor="start" style="font-size:12px;font-family:sans-serif;" transform="translate(497.5 262.2724)" fill="#bbb">8月</text>
<path d="M450 180L519.3 220" fill="none" stroke="#bbb" stroke-linecap="round"></path>
<text dominant-baseline="central" text-anchor="start" style="font-size:12px;font-family:sans-serif;" transform="translate(532.2724 227.5)" fill="#bbb">9月</text>
<path d="M450 180.5L530 180.5" fill="none" stroke="#bbb" stroke-linecap="round"></path>
<text dominant-baseline="central" text-anchor="start" style="font-size:12px;font-family:sans-serif;" transform="translate(545 180)" fill="#bbb">10月</text>
<path d="M450 180L519.3 140" fill="none" stroke="#bbb" stroke-linecap="round"></path>
<text dominant-baseline="central" text-anchor="start" style="font-size:12px;font-family:sans-serif;" transform="translate(532.2724 132.5)" fill="#bbb">11月</text>
<path d="M450 180L490 110.7" fill="none" stroke="#bbb" stroke-linecap="round"></path>
<text dominant-baseline="central" text-anchor="start" style="font-size:12px;font-family:sans-serif;" transform="translate(497.5 97.7276)" fill="#bbb">12月</text>
<polyline points="150 132 91.6 180 150 248 182 180 150 132" fill="none" stroke="#5470c6" stroke-width="2" stroke-linejoin="round"></polyline>
<polygon points="150 132 91.6 180 150 248 182 180 150 132" fill="#5470c6" fill-opacity="0.7"></polygon>
<polyline points="300 202 231.5 247.8 257.7 328.2 344.7 331.5 372.3 246.5 300 202" fill="none" stroke="#91cc75" stroke-width="2" stroke-linejoin="round"></polyline>
<polygon points="300 202 231.5 247.8 257.7 328.2 344.7 331.5 372.3 246.5 300 202" fill="#91cc75" fill-opacity="0.7"></polygon>
<polyline points="300 194 239.1 250.2 255.3 331.5 342.3 328.2 370.8 247 300 194" fill="none" stroke="#fac858" stroke-width="2" stroke-linejoin="round"></polyline>
<polygon points="300 194 239.1 250.2 255.3 331.5 342.3 328.2 370.8 247 300 194" fill="#fac858" fill-opacity="0.7"></polygon>
<polyline points="450 177.9 447.6 175.9 443.8 176.4 428.9 180 430.1 191.5 421.7 229 450 240.5 482.9 236.9 483.7 199.5 465 180 454.2 177.6 450.9 178.4 450 177.9" fill="none" stroke="#ee6666" stroke-width="2" stroke-linejoin="round"></polyline>
<polygon points="450 177.9 447.6 175.9 443.8 176.4 428.9 180 430.1 191.5 421.7 229 450 240.5 482.9 236.9 483.7 199.5 465 180 454.2 177.6 450.9 178.4 450 177.9" fill="#ee6666" fill-opacity="0.7"></polygon>
<polyline points="450 178.4 448 176.6 445.2 177.2 431.4 180 432.3 190.2 419.3 233.1 450 208.5 474.9 223.1 472.6 193 466 180 454.4 177.4 451.3 177.7 450 178.4" fill="none" stroke="#73c0de" stroke-width="2" stroke-linejoin="round"></polyline>
<polygon points="450 178.4 448 176.6 445.2 177.2 431.4 180 432.3 190.2 419.3 233.1 450 208.5 474.9 223.1 472.6 193 466 180 454.4 177.4 451.3 177.7 450 178.4" fill="#73c0de" fill-opacity="0.7"></polygon>
<path d="M1 0A1 1 0 1 1 1 -0.1A1 1 0 0 1 1 0" transform="matrix(4,0,0,4,150,132)" fill="#5470c6"></path>
<path d="M1 0A1 1 0 1 1 1 -0.1A1 1 0 0 1 1 0" transform="matrix(4,0,0,4,91.6,180)" fill="#5470c6"></path>
<path d="M1 0A1 1 0 1 1 1 -0.1A1 1 0 0 1 1 0" transform="matrix(4,0,0,4,150,248)" fill="#5470c6"></path>
<path d="M1 0A1 1 0 1 1 1 -0.1A1 1 0 0 1 1 0" transform="matrix(4,0,0,4,182,180)" fill="#5470c6"></path>
<path d="M1 0A1 1 0 1 1 1 -0.1A1 1 0 0 1 1 0" transform="matrix(4,0,0,4,300,202)" fill="#91cc75"></path>
<path d="M1 0A1 1 0 1 1 1 -0.1A1 1 0 0 1 1 0" transform="matrix(4,0,0,4,231.5239,247.7508)" fill="#91cc75"></path>
<path d="M1 0A1 1 0 1 1 1 -0.1A1 1 0 0 1 1 0" transform="matrix(4,0,0,4,257.6795,328.2492)" fill="#91cc75"></path>
<path d="M1 0A1 1 0 1 1 1 -0.1A1 1 0 0 1 1 0" transform="matrix(4,0,0,4,344.6717,331.4853)" fill="#91cc75"></path>
<path d="M1 0A1 1 0 1 1 1 -0.1A1 1 0 0 1 1 0" transform="matrix(4,0,0,4,372.2803,246.5147)" fill="#91cc75"></path>
<path d="M1 0A1 1 0 1 1 1 -0.1A1 1 0 0 1 1 0" transform="matrix(4,0,0,4,300,194)" fill="#fac858"></path>
<path d="M1 0A1 1 0 1 1 1 -0.1A1 1 0 0 1 1 0" transform="matrix(4,0,0,4,239.1324,250.2229)" fill="#fac858"></path>
<path d="M1 0A1 1 0 1 1 1 -0.1A1 1 0 0 1 1 0" transform="matrix(4,0,0,4,255.3283,331.4853)" fill="#fac858"></path>
<path d="M1 0A1 1 0 1 1 1 -0.1A1 1 0 0 1 1 0" transform="matrix(4,0,0,4,342.3205,328.2492)" fill="#fac858"></path>
<path d="M1 0A1 1 0 1 1 1 -0.1A1 1 0 0 1 1 0" transform="matrix(4,0,0,4,370.7586,247.0091)" fill="#fac858"></path>
<path d="M1 0A1 1 0 1 1 1 -0.1A1 1 0 0 1 1 0" transform="matrix(4,0,0,4,450,177.92)" fill="#ee6666"></path>
<path d="M1 0A1 1 0 1 1 1 -0.1A1 1 0 0 1 1 0" transform="matrix(4,0,0,4,447.64,175.9124)" fill="#ee6666"></path>
<path d="M1 0A1 1 0 1 1 1 -0.1A1 1 0 0 1 1 0" transform="matrix(4,0,0,4,443.7646,176.4)" fill="#ee6666"></path>
<path d="M1 0A1 1 0 1 1 1 -0.1A1 1 0 0 1 1 0" transform="matrix(4,0,0,4,428.88,180)" fill="#ee6666"></path>
<path d="M1 0A1 1 0 1 1 1 -0.1A1 1 0 0 1 1 0" transform="matrix(4,0,0,4,430.1161,191.48)" fill="#ee6666"></path>
<path d="M1 0A1 1 0 1 1 1 -0.1A1 1 0 0 1 1 0" transform="matrix(4,0,0,4,421.72,228.9824)" fill="#ee6666"></path>
<path d="M1 0A1 1 0 1 1 1 -0.1A1 1 0 0 1 1 0" transform="matrix(4,0,0,4,450,240.48)" fill="#ee6666"></path>
<path d="M1 0A1 1 0 1 1 1 -0.1A1 1 0 0 1 1 0" transform="matrix(4,0,0,4,482.88,236.9498)" fill="#ee6666"></path>
<path d="M1 0A1 1 0 1 1 1 -0.1A1 1 0 0 1 1 0" transform="matrix(4,0,0,4,483.7403,199.48)" fill="#ee6666"></path>
<path d="M1 0A1 1 0 1 1 1 -0.1A1 1 0 0 1 1 0" transform="matrix(4,0,0,4,465.04,180)" fill="#ee6666"></path>
<path d="M1 0A1 1 0 1 1 1 -0.1A1 1 0 0 1 1 0" transform="matrix(4,0,0,4,454.1569,177.6)" fill="#ee6666"></path>
<path d="M1 0A1 1 0 1 1 1 -0.1A1 1 0 0 1 1 0" transform="matrix(4,0,0,4,450.92,178.4065)" fill="#ee6666"></path>
<path d="M1 0A1 1 0 1 1 1 -0.1A1 1 0 0 1 1 0" transform="matrix(4,0,0,4,450,178.4)" fill="#73c0de"></path>
<path d="M1 0A1 1 0 1 1 1 -0.1A1 1 0 0 1 1 0" transform="matrix(4,0,0,4,448.04,176.6052)" fill="#73c0de"></path>
<path d="M1 0A1 1 0 1 1 1 -0.1A1 1 0 0 1 1 0" transform="matrix(4,0,0,4,445.1503,177.2)" fill="#73c0de"></path>
<path d="M1 0A1 1 0 1 1 1 -0.1A1 1 0 0 1 1 0" transform="matrix(4,0,0,4,431.44,180)" fill="#73c0de"></path>
<path d="M1 0A1 1 0 1 1 1 -0.1A1 1 0 0 1 1 0" transform="matrix(4,0,0,4,432.2638,190.24)" fill="#73c0de"></path>
<path d="M1 0A1 1 0 1 1 1 -0.1A1 1 0 0 1 1 0" transform="matrix(4,0,0,4,419.32,233.1393)" fill="#73c0de"></path>
<path d="M1 0A1 1 0 1 1 1 -0.1A1 1 0 0 1 1 0" transform="matrix(4,0,0,4,450,208.48)" fill="#73c0de"></path>
<path d="M1 0A1 1 0 1 1 1 -0.1A1 1 0 0 1 1 0" transform="matrix(4,0,0,4,474.88,223.0934)" fill="#73c0de"></path>
<path d="M1 0A1 1 0 1 1 1 -0.1A1 1 0 0 1 1 0" transform="matrix(4,0,0,4,472.5859,193.04)" fill="#73c0de"></path>
<path d="M1 0A1 1 0 1 1 1 -0.1A1 1 0 0 1 1 0" transform="matrix(4,0,0,4,466,180)" fill="#73c0de"></path>
<path d="M1 0A1 1 0 1 1 1 -0.1A1 1 0 0 1 1 0" transform="matrix(4,0,0,4,454.4341,177.44)" fill="#73c0de"></path>
<path d="M1 0A1 1 0 1 1 1 -0.1A1 1 0 0 1 1 0" transform="matrix(4,0,0,4,451.32,177.7137)" fill="#73c0de"></path>
<path d="M-5 -5l516.3 0l0 24l-516.3 0Z" transform="translate(46.84 5)" fill="rgb(0,0,0)" fill-opacity="0" stroke="#ccc" stroke-width="0"></path>
<path d="M3.5 0L21.5 0A3.5 3.5 0 0 1 25 3.5L25 10.5A3.5 3.5 0 0 1 21.5 14L3.5 14A3.5 3.5 0 0 1 0 10.5L0 3.5A3.5 3.5 0 0 1 3.5 0" transform="translate(46.84 5)" fill="#5470c6"></path>
<text dominant-baseline="central" text-anchor="start" style="font-size:12px;font-family:sans-serif;" xml:space="preserve" x="30" y="7" transform="translate(46.84 5)" fill="#333">A Software</text>
<path d="M3.5 0L21.5 0A3.5 3.5 0 0 1 25 3.5L25 10.5A3.5 3.5 0 0 1 21.5 14L3.5 14A3.5 3.5 0 0 1 0 10.5L0 3.5A3.5 3.5 0 0 1 3.5 0" transform="translate(145.76 5)" fill="#91cc75"></path>
<text dominant-baseline="central" text-anchor="start" style="font-size:12px;font-family:sans-serif;" xml:space="preserve" x="30" y="7" transform="translate(145.76 5)" fill="#333">A Phone</text>
<path d="M3.5 0L21.5 0A3.5 3.5 0 0 1 25 3.5L25 10.5A3.5 3.5 0 0 1 21.5 14L3.5 14A3.5 3.5 0 0 1 0 10.5L0 3.5A3.5 3.5 0 0 1 3.5 0" transform="translate(232.08 5)" fill="#fac858"></path>
<text dominant-baseline="central" text-anchor="start" style="font-size:12px;font-family:sans-serif;" xml:space="preserve" x="30" y="7" transform="translate(232.08 5)" fill="#333">Another Phone</text>
<path d="M3.5 0L21.5 0A3.5 3.5 0 0 1 25 3.5L25 10.5A3.5 3.5 0 0 1 21.5 14L3.5 14A3.5 3.5 0 0 1 0 10.5L0 3.5A3.5 3.5 0 0 1 3.5 0" transform="translate(352.6 5)" fill="#ee6666"></path>
<text dominant-baseline="central" text-anchor="start" style="font-size:12px;font-family:sans-serif;" x="30" y="7" transform="translate(352.6 5)" fill="#333">Precipitation</text>
<path d="M3.5 0L21.5 0A3.5 3.5 0 0 1 25 3.5L25 10.5A3.5 3.5 0 0 1 21.5 14L3.5 14A3.5 3.5 0 0 1 0 10.5L0 3.5A3.5 3.5 0 0 1 3.5 0" transform="translate(458.84 5)" fill="#73c0de"></path>
<text dominant-baseline="central" text-anchor="start" style="font-size:12px;font-family:sans-serif;" x="30" y="7" transform="translate(458.84 5)" fill="#333">Evaporation</text>
<path d="M-5 -5l126.3 0l0 28l-126.3 0Z" transform="translate(5 5)" fill="rgb(0,0,0)" fill-opacity="0" stroke="#ccc" stroke-width="0"></path>
<text dominant-baseline="central" text-anchor="start" style="font-size:18px;font-family:sans-serif;font-weight:bold;" xml:space="preserve" y="9" transform="translate(5 5)" fill="#464646">Multiple Radar</text>
</svg>