<svg width="600" height="450" xmlns="http://www.w3.org/2000/svg" xmlns:xlink="http://www.w3.org/1999/xlink" version="1.1" baseProfile="full" viewBox="0 0 600 450">
<rect width="600" height="450" x="0" y="0" id="0" fill="none"></rect>
<path d="M300 191.3L267.9 214.6L280.2 252.3L319.8 252.3L332.1 214.6L300 191.3L300 225ZM300 123.8L203.7 193.7L240.5 306.9L359.5 306.9L396.3 193.7L300 123.8L300 157.5L364.2 204.1L339.7 279.6L260.3 279.6L235.8 204.1L300 157.5ZM300 56.3L139.5 172.9L200.8 361.5L399.2 361.5L460.5 172.9L300 56.3L300 90L428.4 183.3L379.4 334.2L220.6 334.2L171.6 183.3L300 90Z" fill="rgb(250,250,250)" fill-opacity="0.2"></path>
<path d="M300 157.5L235.8 204.1L260.3 279.6L339.7 279.6L364.2 204.1L300 157.5L300 191.3L332.1 214.6L319.8 252.3L280.2 252.3L267.9 214.6L300 191.3ZM300 90L171.6 183.3L220.6 334.2L379.4 334.2L428.4 183.3L300 90L300 123.8L396.3 193.7L359.5 306.9L240.5 306.9L203.7 193.7L300 123.8Z" fill="rgb(210,219,238)" fill-opacity="0.2"></path>
<path d="M300 225M300 191.3L267.9 214.6L280.2 252.3L319.8 252.3L332.1 214.6L300 191.3M300 157.5L235.8 204.1L260.3 279.6L339.7 279.6L364.2 204.1L300 157.5M300 123.8L203.7 193.7L240.5 306.9L359.5 306.9L396.3 193.7L300 123.8M300 90L171.6 183.3L220.6 334.2L379.4 334.2L428.4 183.3L300 90M300 56.3L139.5 172.9L200.8 361.5L399.2 361.5L460.5 172.9L300 56.3" fill="none" stroke="#E0E6F1"></path>
<path d="M300.5 225L300.5 56.3" fill="none" stroke="#bbb" stroke-linecap="round"></path>
<text dominant-baseline="central" text-anchor="middle" style="font-size:12px;font-family:sans-serif;" y="-6" transform="translate(300 41.25)" fill="#bbb">IE8-</text>
<path d="M300 225L139.5 172.9" fill="none" stroke="#bbb" stroke-linecap="round"></path>
<text dominant-baseline="central" text-anchor="end" style="font-size:12px;font-family:sans-serif;" transform="translate(125.2434 168.2181)" fill="#bbb">IE9+</text>
<path d="M300 225L200.8 361.5" fill="none" stroke="#bbb" stroke-linecap="round"></path>
<text dominant-baseline="central" text-anchor="end" style="font-size:12px;font-family:sans-serif;" transform="translate(191.9945 373.6569)" fill="#bbb">Safari</text>
<path d="M300 225L399.2 361.5" fill="none" stroke="#bbb" stroke-linecap="round"></path>
<text dominant-baseline="central" text-anchor="start" style="font-size:12px;font-family:sans-serif;" transform="translate(408.0055 373.6569)" fill="#bbb">Firefox</text>
<path d="M300 225L460.5 172.9" fill="none" stroke="#bbb" stroke-linecap="round"></path>
<text dominant-baseline="central" text-anchor="start" style="font-size:12px;font-family:sans-serif;" transform="translate(474.7566 168.2181)" fill="#bbb">Chrome</text>
<polyline points="300 60.5 216.5 197.9 296.3 230.1 302.2 228.1 300.2 224.9 300 60.5" fill="none" stroke="rgb(255,254,0)" stroke-linejoin="round"></polyline>
<polyline points="300 64.7 218.1 198.4 295 231.8 304.5 231.1 300.8 224.7 300 64.7" fill="none" stroke="rgb(255,252,0)" stroke-linejoin="round"></polyline>
<polyline points="300 68.9 219.8 198.9 293.8 233.5 306.7 234.2 301.8 224.4 300 68.9" fill="none" stroke="rgb(255,249,0)" stroke-linejoin="round"></polyline>
<polyline points="300 73.1 221.4 199.4 292.6 235.2 308.9 237.3 303.2 224 300 73.1" fill="none" stroke="rgb(255,245,0)" stroke-linejoin="round"></polyline>
<polyline points="300 77.3 223 200 291.3 236.9 311.2 240.4 305 223.4 300 77.3" fill="none" stroke="rgb(255,239,0)" stroke-linejoin="round"></polyline>
<polyline points="300 81.6 224.6 200.5 290.1 238.7 313.4 243.4 307.2 222.7 300 81.6" fill="none" stroke="rgb(255,232,0)" stroke-linejoin="round"></polyline>
<polyline points="300 85.8 226.2 201 288.8 240.4 315.6 246.5 309.8 221.8 300 85.8" fill="none" stroke="rgb(255,224,0)" stroke-linejoin="round"></polyline>
<polyline points="300 90 227.8 201.5 287.6 242.1 317.9 249.6 312.8 220.8 300 90" fill="none" stroke="rgb(255,214,0)" stroke-linejoin="round"></polyline>
<polyline points="300 94.2 229.4 202.1 286.4 243.8 320.1 252.6 316.2 219.7 300 94.2" fill="none" stroke="rgb(255,203,0)" stroke-linejoin="round"></polyline>
<polyline points="300 98.4 231 202.6 285.1 245.5 322.3 255.7 320.1 218.5 300 98.4" fill="none" stroke="rgb(255,191,0)" stroke-linejoin="round"></polyline>
<polyline points="300 102.7 232.6 203.1 283.9 247.2 324.5 258.8 324.3 217.1 300 102.7" fill="none" stroke="rgb(255,178,0)" stroke-linejoin="round"></polyline>
<polyline points="300 106.9 234.2 203.6 282.6 248.9 326.8 261.9 328.9 215.6 300 106.9" fill="none" stroke="rgb(255,163,0)" stroke-linejoin="round"></polyline>
<polyline points="300 111.1 235.8 204.1 281.4 250.6 329 264.9 333.9 214 300 111.1" fill="none" stroke="rgb(255,147,0)" stroke-linejoin="round"></polyline>
<polyline points="300 115.3 237.4 204.7 280.2 252.3 331.2 268 339.3 212.2 300 115.3" fill="none" stroke="rgb(255,130,0)" stroke-linejoin="round"></polyline>
<polyline points="300 119.5 239 205.2 278.9 254 333.5 271.1 345.1 210.3 300 119.5" fill="none" stroke="rgb(255,112,0)" stroke-linejoin="round"></polyline>
<polyline points="300 123.8 240.6 205.7 277.7 255.7 335.7 274.1 351.4 208.3 300 123.8" fill="none" stroke="rgb(255,92,0)" stroke-linejoin="round"></polyline>
<polyline points="300 128 242.2 206.2 276.4 257.4 337.9 277.2 358 206.2 300 128" fill="none" stroke="rgb(255,71,0)" stroke-linejoin="round"></polyline>
<polyline points="300 132.2 243.8 206.7 275.2 259.1 340.2 280.3 365 203.9 300 132.2" fill="none" stroke="rgb(255,48,0)" stroke-linejoin="round"></polyline>
<polyline points="300 136.4 245.4 207.3 274 260.8 342.4 283.4 372.4 201.5 300 136.4" fill="none" stroke="rgb(255,25,0)" stroke-linejoin="round"></polyline>
<polyline points="300 140.6 247 207.8 272.7 262.5 344.6 286.4 380.2 198.9 300 140.6" fill="none" stroke="rgb(255,0,0)" stroke-linejoin="round"></polyline>
<polyline points="300 144.8 248.6 208.3 271.5 264.2 346.9 289.5 388.5 196.3 300 144.8" fill="none" stroke="rgb(255,0,0)" stroke-linejoin="round"></polyline>
<polyline points="300 149.1 250.2 208.8 270.2 266 349.1 292.6 397.1 193.5 300 149.1" fill="none" stroke="rgb(255,0,0)" stroke-linejoin="round"></polyline>
<polyline points="300 153.3 251.9 209.4 269 267.7 351.3 295.6 406.1 190.5 300 153.3" fill="none" stroke="rgb(255,0,0)" stroke-linejoin="round"></polyline>
<polyline points="300 157.5 253.5 209.9 267.8 269.4 353.6 298.7 415.6 187.5 300 157.5" fill="none" stroke="rgb(255,0,0)" stroke-linejoin="round"></polyline>
<polyline points="300 161.7 255.1 210.4 266.5 271.1 355.8 301.8 425.4 184.3 300 161.7" fill="none" stroke="rgb(255,0,0)" stroke-linejoin="round"></polyline>
<polyline points="300 165.9 256.7 210.9 265.3 272.8 358 304.9 435.6 180.9 300 165.9" fill="none" stroke="rgb(255,0,0)" stroke-linejoin="round"></polyline>
<polyline points="300 170.2 258.3 211.4 264 274.5 360.3 307.9 446.2 177.5 300 170.2" fill="none" stroke="rgb(255,0,0)" stroke-linejoin="round"></polyline>
<polyline points="300 174.4 259.9 212 262.8 276.2 362.5 311 457.3 173.9 300 174.4" fill="none" stroke="rgb(255,0,0)" stroke-linejoin="round"></polyline>
<path d="M-25 -145l30 0l0 150l-30 0Z" transform="translate(585 295)" fill="rgb(0,0,0)" fill-opacity="0" stroke="#ccc" stroke-width="0"></path>
<path d="M-5 -5.5l600 0l0 25l-600 0Z" transform="translate(5 420.5)" fill="rgb(0,0,0)" fill-opacity="0" stroke="#ccc" stroke-width="0"></path>
<g clip-path="url(#zr45-c0)">
<polygon points="0 0 20 0 20 140 0 140" transform="matrix(-1,0,0,-1,585,295)" fill="url(#zr45-g0)"></polygon>
<polygon points="0 0 20 0 20 140 0 140" transform="matrix(-1,0,0,-1,585,295)" fill="url(#zr45-g1)"></polygon>
</g>
<g clip-path="url(#zr45-c1)">
<path d="M3.5 0L21.5 0A3.5 3.5 0 0 1 25 3.5L25 10.5A3.5 3.5 0 0 1 21.5 14L3.5 14A3.5 3.5 0 0 1 0 10.5L0 3.5A3.5 3.5 0 0 1 3.5 0" transform="translate(5 420.5)" fill="rgb(255,254,0)"></path>
<text dominant-baseline="central" text-anchor="start" style="font-size:12px;font-family:sans-serif;" x="30" y="7" transform="translate(5 420.5)" fill="#333">2001</text>
<path d="M3.5 0L21.5 0A3.5 3.5 0 0 1 25 3.5L25 10.5A3.5 3.5 0 0 1 21.5 14L3.5 14A3.5 3.5 0 0 1 0 10.5L0 3.5A3.5 3.5 0 0 1 3.5 0" transform="translate(71.88 420.5)" fill="rgb(255,252,0)"></path>
<text dominant-baseline="central" text-anchor="start" style="font-size:12px;font-family:sans-serif;" x="30" y="7" transform="translate(71.88 420.5)" fill="#333">2002</text>
<path d="M3.5 0L21.5 0A3.5 3.5 0 0 1 25 3.5L25 10.5A3.5 3.5 0 0 1 21.5 14L3.5 14A3.5 3.5 0 0 1 0 10.5L0 3.5A3.5 3.5 0 0 1 3.5 0" transform="translate(138.76 420.5)" fill="rgb(255,249,0)"></path>
<text dominant-baseline="central" text-anchor="start" style="font-size:12px;font-family:sans-serif;" x="30" y="7" transform="translate(138.76 420.5)" fill="#333">2003</text>
<path d="M3.5 0L21.5 0A3.5 3.5 0 0 1 25 3.5L25 10.5A3.5 3.5 0 0 1 21.5 14L3.5 14A3.5 3.5 0 0 1 0 10.5L0 3.5A3.5 3.5 0 0 1 3.5 0" transform="translate(205.64 420.5)" fill="rgb(255,245,0)"></path>
<text dominant-baseline="central" text-anchor="start" style="font-size:12px;font-family:sans-serif;" x="30" y="7" transform="translate(205.64 420.5)" fill="#333">2004</text>
<path d="M3.5 0L21.5 0A3.5 3.5 0 0 1 25 3.5L25 10.5A3.5 3.5 0 0 1 21.5 14L3.5 14A3.5 3.5 0 0 1 0 10.5L0 3.5A3.5 3.5 0 0 1 3.5 0" transform="translate(272.52 420.5)" fill="rgb(255,239,0)"></path>
<text dominant-baseline="central" text-anchor="start" style="font-size:12px;font-family:sans-serif;" x="30" y="7" transform="translate(272.52 420.5)" fill="#333">2005</text>
<path d="M3.5 0L21.5 0A3.5 3.5 0 0 1 25 3.5L25 10.5A3.5 3.5 0 0 1 21.5 14L3.5 14A3.5 3.5 0 0 1 0 10.5L0 3.5A3.5 3.5 0 0 1 3.5 0" transform="translate(339.4 420.5)" fill="rgb(255,232,0)"></path>
<text dominant-baseline="central" text-anchor="start" style="font-size:12px;font-family:sans-serif;" x="30" y="7" transform="translate(339.4 420.5)" fill="#333">2006</text>
<path d="M3.5 0L21.5 0A3.5 3.5 0 0 1 25 3.5L25 10.5A3.5 3.5 0 0 1 21.5 14L3.5 14A3.5 3.5 0 0 1 0 10.5L0 3.5A3.5 3.5 0 0 1 3.5 0" transform="translate(406.28 420.5)" fill="rgb(255,224,0)"></path>
<text dominant-baseline="central" text-anchor="start" style="font-size:12px;font-family:sans-serif;" x="30" y="7" transform="translate(406.28 420.5)" fill="#333">2007</text>
<path d="M3.5 0L21.5 0A3.5 3.5 0 0 1 25 3.5L25 10.5A3.5 3.5 0 0 1 21.5 14L3.5 14A3.5 3.5 0 0 1 0 10.5L0 3.5A3.5 3.5 0 0 1 3.5 0" transform="translate(473.16 420.5)" fill="rgb(255,214,0)"></path>
<text dominant-baseline="central" text-anchor="start" style="font-size:12px;font-family:sans-serif;" x="30" y="7" transform="translate(473.16 420.5)" fill="#333">2008</text>
<path d="M3.5 0L21.5 0A3.5 3.5 0 0 1 25 3.5L25 10.5A3.5 3.5 0 0 1 21.5 14L3.5 14A3.5 3.5 0 0 1 0 10.5L0 3.5A3.5 3.5 0 0 1 3.5 0" transform="translate(540.04 420.5)" fill="rgb(255,203,0)"></path>
<text dominant-baseline="central" text-anchor="start" style="font-size:12px;font-family:sans-serif;" x="30" y="7" transform="translate(540.04 420.5)" fill="#333">2009</text>
<path d="M3.5 0L21.5 0A3.5 3.5 0 0 1 25 3.5L25 10.5A3.5 3.5 0 0 1 21.5 14L3.5 14A3.5 3.5 0 0 1 0 10.5L0 3.5A3.5 3.5 0 0 1 3.5 0" transform="translate(606.92 420.5)" fill="rgb(255,191,0)"></path>
<text dominant-baseline="central" text-anchor="start" style="font-size:12px;font-family:sans-serif;" x="30" y="7" transform="translate(606.92 420.5)" fill="#333">2010</text>
<path d="M3.5 0L21.5 0A3.5 3.5 0 0 1 25 3.5L25 10.5A3.5 3.5 0 0 1 21.5 14L3.5 14A3.5 3.5 0 0 1 0 10.5L0 3.5A3.5 3.5 0 0 1 3.5 0" transform="translate(673.8 420.5)" fill="rgb(255,178,0)"></path>
<text dominant-baseline="central" text-anchor="start" style="font-size:12px;font-family:sans-serif;" x="30" y="7" transform="translate(673.8 420.5)" fill="#333">2011</text>
<path d="M3.5 0L21.5 0A3.5 3.5 0 0 1 25 3.5L25 10.5A3.5 3.5 0 0 1 21.5 14L3.5 14A3.5 3.5 0 0 1 0 10.5L0 3.5A3.5 3.5 0 0 1 3.5 0" transform="translate(740.68 420.5)" fill="rgb(255,163,0)"></path>
<text dominant-baseline="central" text-anchor="start" style="font-size:12px;font-family:sans-serif;" x="30" y="7" transform="translate(740.68 420.5)" fill="#333">2012</text>
<path d="M3.5 0L21.5 0A3.5 3.5 0 0 1 25 3.5L25 10.5A3.5 3.5 0 0 1 21.5 14L3.5 14A3.5 3.5 0 0 1 0 10.5L0 3.5A3.5 3.5 0 0 1 3.5 0" transform="translate(807.56 420.5)" fill="rgb(255,147,0)"></path>
<text dominant-baseline="central" text-anchor="start" style="font-size:12px;font-family:sans-serif;" x="30" y="7" transform="translate(807.56 420.5)" fill="#333">2013</text>
<path d="M3.5 0L21.5 0A3.5 3.5 0 0 1 25 3.5L25 10.5A3.5 3.5 0 0 1 21.5 14L3.5 14A3.5 3.5 0 0 1 0 10.5L0 3.5A3.5 3.5 0 0 1 3.5 0" transform="translate(874.44 420.5)" fill="rgb(255,130,0)"></path>
<text dominant-baseline="central" text-anchor="start" style="font-size:12px;font-family:sans-serif;" x="30" y="7" transform="translate(874.44 420.5)" fill="#333">2014</text>
<path d="M3.5 0L21.5 0A3.5 3.5 0 0 1 25 3.5L25 10.5A3.5 3.5 0 0 1 21.5 14L3.5 14A3.5 3.5 0 0 1 0 10.5L0 3.5A3.5 3.5 0 0 1 3.5 0" transform="translate(941.32 420.5)" fill="rgb(255,112,0)"></path>
<text dominant-baseline="central" text-anchor="start" style="font-size:12px;font-family:sans-serif;" x="30" y="7" transform="translate(941.32 420.5)" fill="#333">2015</text>
<path d="M3.5 0L21.5 0A3.5 3.5 0 0 1 25 3.5L25 10.5A3.5 3.5 0 0 1 21.5 14L3.5 14A3.5 3.5 0 0 1 0 10.5L0 3.5A3.5 3.5 0 0 1 3.5 0" transform="translate(1008.2 420.5)" fill="rgb(255,92,0)"></path>
<text dominant-baseline="central" text-anchor="start" style="font-size:12px;font-family:sans-serif;" x="30" y="7" transform="translate(1008.2 420.5)" fill="#333">2016</text>
<path d="M3.5 0L21.5 0A3.5 3.5 0 0 1 25 3.5L25 10.5A3.5 3.5 0 0 1 21.5 14L3.5 14A3.5 3.5 0 0 1 0 10.5L0 3.5A3.5 3.5 0 0 1 3.5 0" transform="translate(1075.08 420.5)" fill="rgb(255,71,0)"></path>
<text dominant-baseline="central" text-anchor="start" style="font-size:12px;font-family:sans-serif;" x="30" y="7" transform="translate(1075.08 420.5)" fill="#333">2017</text>
<path d="M3.5 0L21.5 0A3.5 3.5 0 0 1 25 3.5L25 10.5A3.5 3.5 0 0 1 21.5 14L3.5 14A3.5 3.5 0 0 1 0 10.5L0 3.5A3.5 3.5 0 0 1 3.5 0" transform="translate(1141.96 420.5)" fill="rgb(255,48,0)"></path>
<text dominant-baseline="central" text-anchor="start" style="font-size:12px;font-family:sans-serif;" x="30" y="7" transform="translate(1141.96 420.5)" fill="#333">2018</text>
<path d="M3.5 0L21.5 0A3.5 3.5 0 0 1 25 3.5L25 10.5A3.5 3.5 0 0 1 21.5 14L3.5 14A3.5 3.5 0 0 1 0 10.5L0 3.5A3.5 3.5 0 0 1 3.5 0" transform="translate(1208.84 420.5)" fill="rgb(255,25,0)"></path>
<text dominant-baseline="central" text-anchor="start" style="font-size:12px;font-family:sans-serif;" x="30" y="7" transform="translate(1208.84 420.5)" fill="#333">2019</text>
<path d="M3.5 0L21.5 0A3.5 3.5 0 0 1 25 3.5L25 10.5A3.5 3.5 0 0 1 21.5 14L3.5 14A3.5 3.5 0 0 1 0 10.5L0 3.5A3.5 3.5 0 0 1 3.5 0" transform="translate(1275.72 420.5)" fill="rgb(255,0,0)"></path>
<text dominant-baseline="central" text-anchor="start" style="font-size:12px;font-family:sans-serif;" x="30" y="7" transform="translate(1275.72 420.5)" fill="#333">2020</text>
<path d="M3.5 0L21.5 0A3.5 3.5 0 0 1 25 3.5L25 10.5A3.5 3.5 0 0 1 21.5 14L3.5 14A3.5 3.5 0 0 1 0 10.5L0 3.5A3.5 3.5 0 0 1 3.5 0" transform="translate(1342.6 420.5)" fill="rgb(255,0,0)"></path>
<text dominant-baseline="central" text-anchor="start" style="font-size:12px;font-family:sans-serif;" x="30" y="7" transform="translate(1342.6 420.5)" fill="#333">2021</text>
<path d="M3.5 0L21.5 0A3.5 3.5 0 0 1 25 3.5L25 10.5A3.5 3.5 0 0 1 21.5 14L3.5 14A3.5 3.5 0 0 1 0 10.5L0 3.5A3.5 3.5 0 0 1 3.5 0" transform="translate(1409.48 420.5)" fill="rgb(255,0,0)"></path>
<text dominant-baseline="central" text-anchor="start" style="font-size:12px;font-family:sans-serif;" x="30" y="7" transform="translate(1409.48 420.5)" fill="#333">2022</text>
<path d="M3.5 0L21.5 0A3.5 3.5 0 0 1 25 3.5L25 10.5A3.5 3.5 0 0 1 21.5 14L3.5 14A3.5 3.5 0 0 1 0 10.5L0 3.5A3.5 3.5 0 0 1 3.5 0" transform="translate(1476.36 420.5)" fill="rgb(255,0,0)"></path>
<text dominant-baseline="central" text-anchor="start" style="font-size:12px;font-family:sans-serif;" x="30" y="7" transform="translate(1476.36 420.5)" fill="#333">2023</text>
<path d="M3.5 0L21.5 0A3.5 3.5 0 0 1 25 3.5L25 10.5A3.5 3.5 0 0 1 21.5 14L3.5 14A3.5 3.5 0 0 1 0 10.5L0 3.5A3.5 3.5 0 0 1 3.5 0" transform="translate(1543.24 420.5)" fill="rgb(255,0,0)"></path>
<text dominant-baseline="central" text-anchor="start" style="font-size:12px;font-family:sans-serif;" x="30" y="7" transform="translate(1543.24 420.5)" fill="#333">2024</text>
<path d="M3.5 0L21.5 0A3.5 3.5 0 0 1 25 3.5L25 10.5A3.5 3.5 0 0 1 21.5 14L3.5 14A3.5 3.5 0 0 1 0 10.5L0 3.5A3.5 3.5 0 0 1 3.5 0" transform="translate(1610.12 420.5)" fill="rgb(255,0,0)"></path>
<text dominant-baseline="central" text-anchor="start" style="font-size:12px;font-family:sans-serif;" x="30" y="7" transform="translate(1610.12 420.5)" fill="#333">2025</text>
<path d="M3.5 0L21.5 0A3.5 3.5 0 0 1 25 3.5L25 10.5A3.5 3.5 0 0 1 21.5 14L3.5 14A3.5 3.5 0 0 1 0 10.5L0 3.5A3.5 3.5 0 0 1 3.5 0" transform="translate(1677 420.5)" fill="rgb(255,0,0)"></path>
<text dominant-baseline="central" text-anchor="start" style="font-size:12px;font-family:sans-serif;" x="30" y="7" transform="translate(1677 420.5)" fill="#333">2026</text>
<path d="M3.5 0L21.5 0A3.5 3.5 0 0 1 25 3.5L25 10.5A3.5 3.5 0 0 1 21.5 14L3.5 14A3.5 3.5 0 0 1 0 10.5L0 3.5A3.5 3.5 0 0 1 3.5 0" transform="translate(1743.88 420.5)" fill="rgb(255,0,0)"></path>
<text dominant-baseline="central" text-anchor="start" style="font-size:12px;font-family:sans-serif;" x="30" y="7" transform="translate(1743.88 420.5)" fill="#333">2027</text>
<path d="M3.5 0L21.5 0A3.5 3.5 0 0 1 25 3.5L25 10.5A3.5 3.5 0 0 1 21.5 14L3.5 14A3.5 3.5 0 0 1 0 10.5L0 3.5A3.5 3.5 0 0 1 3.5 0" transform="translate(1810.76 420.5)" fill="rgb(255,0,0)"></path>
<text dominant-baseline="central" text-anchor="start" style="font-size:12px;font-family:sans-serif;" x="30" y="7" transform="translate(1810.76 420.5)" fill="#333">2028</text>
</g>
<path d="M-4.5 0L4.5 -7.5L4.5 7.5Z" transform="translate(544.14 427.5)" fill="#aaa"></path>
<text dominant-baseline="central" text-anchor="middle" style="font: normal normal 12px sans-serif" transform="translate(567.32 427.5)" fill="#333">1/4</text>
<path d="M4.5 0L-4.5 -7.5L-4.5 7.5Z" transform="translate(590.5 427.5)" fill="#2f4554"></path>
<path d="M-5 -5l193.6 0l0 50l-193.6 0Z" transform="translate(15 15)" fill="rgb(0,0,0)" fill-opacity="0" stroke="#ccc" stroke-width="0"></path>
<text dominant-baseline="central" text-anchor="start" style="font-size:18px;font-family:sans-serif;font-weight:bold;" xml:space="preserve" y="9" transform="translate(15 15)" fill="#464646">Proportion of Browsers</text>
<text dominant-baseline="central" text-anchor="start" style="font-size:12px;font-family:sans-serif;" xml:space="preserve" y="34" transform="translate(15 15)" fill="#6E7079">Fake Data</text>
<defs >
<clipPath id="zr45-c0">
<path d="M3 0L17 0A3 3 0 0 1 20 3L20 137A3 3 0 0 1 17 140L3 140A3 3 0 0 1 0 137L0 3A3 3 0 0 1 3 0" transform="matrix(-1,0,0,-1,585,295)" fill="#000"></path>
</clipPath>
<linearGradient gradientUnits="objectBoundingBox" x1="0" y1="0" x2="0" y2="1" id="zr45-g0">
<stop offset="0%" stop-color="rgb(170,170,170)"></stop>
<stop offset="1%" stop-color="rgb(170,170,170)"></stop>
<stop offset="2%" stop-color="rgb(170,170,170)"></stop>
<stop offset="3%" stop-color="rgb(170,170,170)"></stop>
<stop offset="4%" stop-color="rgb(170,170,170)"></stop>
<stop offset="5%" stop-color="rgb(170,170,170)"></stop>
<stop offset="6%" stop-color="rgb(170,170,170)"></stop>
<stop offset="7.000000000000001%" stop-color="rgb(170,170,170)"></stop>
<stop offset="8%" stop-color="rgb(170,170,170)"></stop>
<stop offset="9%" stop-color="rgb(170,170,170)"></stop>
<stop offset="10%" stop-color="rgb(170,170,170)"></stop>
<stop offset="11%" stop-color="rgb(170,170,170)"></stop>
<stop offset="12%" stop-color="rgb(170,170,170)"></stop>
<stop offset="13%" stop-color="rgb(170,170,170)"></stop>
<stop offset="14.000000000000002%" stop-color="rgb(170,170,170)"></stop>
<stop offset="15%" stop-color="rgb(170,170,170)"></stop>
<stop offset="16%" stop-color="rgb(170,170,170)"></stop>
<stop offset="17%" stop-color="rgb(170,170,170)"></stop>
<stop offset="18%" stop-color="rgb(170,170,170)"></stop>
<stop offset="19%" stop-color="rgb(170,170,170)"></stop>
<stop offset="20%" stop-color="rgb(170,170,170)"></stop>
<stop offset="21%" stop-color="rgb(170,170,170)"></stop>
<stop offset="22%" stop-color="rgb(170,170,170)"></stop>
<stop offset="23%" stop-color="rgb(170,170,170)"></stop>
<stop offset="24%" stop-color="rgb(170,170,170)"></stop>
<stop offset="25%" stop-color="rgb(170,170,170)"></stop>
<stop offset="26%" stop-color="rgb(170,170,170)"></stop>
<stop offset="27%" stop-color="rgb(170,170,170)"></stop>
<stop offset="28.000000000000004%" stop-color="rgb(170,170,170)"></stop>
<stop offset="28.999999999999996%" stop-color="rgb(170,170,170)"></stop>
<stop offset="30%" stop-color="rgb(170,170,170)"></stop>
<stop offset="31%" stop-color="rgb(170,170,170)"></stop>
<stop offset="32%" stop-color="rgb(170,170,170)"></stop>
<stop offset="33%" stop-color="rgb(170,170,170)"></stop>
<stop offset="34%" stop-color="rgb(170,170,170)"></stop>
<stop offset="35%" stop-color="rgb(170,170,170)"></stop>
<stop offset="36%" stop-color="rgb(170,170,170)"></stop>
<stop offset="37%" stop-color="rgb(170,170,170)"></stop>
<stop offset="38%" stop-color="rgb(170,170,170)"></stop>
<stop offset="39%" stop-color="rgb(170,170,170)"></stop>
<stop offset="40%" stop-color="rgb(170,170,170)"></stop>
<stop offset="41%" stop-color="rgb(170,170,170)"></stop>
<stop offset="42%" stop-color="rgb(170,170,170)"></stop>
<stop offset="43%" stop-color="rgb(170,170,170)"></stop>
<stop offset="44%" stop-color="rgb(170,170,170)"></stop>
<stop offset="45%" stop-color="rgb(170,170,170)"></stop>
<stop offset="46%" stop-color="rgb(170,170,170)"></stop>
<stop offset="47%" stop-color="rgb(170,170,170)"></stop>
<stop offset="48%" stop-color="rgb(170,170,170)"></stop>
<stop offset="49%" stop-color="rgb(170,170,170)"></stop>
<stop offset="50%" stop-color="rgb(170,170,170)"></stop>
<stop offset="51%" stop-color="rgb(170,170,170)"></stop>
<stop offset="52%" stop-color="rgb(170,170,170)"></stop>
<stop offset="53%" stop-color="rgb(170,170,170)"></stop>
<stop offset="54%" stop-color="rgb(170,170,170)"></stop>
<stop offset="55.00000000000001%" stop-color="rgb(170,170,170)"></stop>
<stop offset="56.00000000000001%" stop-color="rgb(170,170,170)"></stop>
<stop offset="56.99999999999999%" stop-color="rgb(170,170,170)"></stop>
<stop offset="57.99999999999999%" stop-color="rgb(170,170,170)"></stop>
<stop offset="59%" stop-color="rgb(170,170,170)"></stop>
<stop offset="60%" stop-color="rgb(170,170,170)"></stop>
<stop offset="61%" stop-color="rgb(170,170,170)"></stop>
<stop offset="62%" stop-color="rgb(170,170,170)"></stop>
<stop offset="63%" stop-color="rgb(170,170,170)"></stop>
<stop offset="64%" stop-color="rgb(170,170,170)"></stop>
<stop offset="65%" stop-color="rgb(170,170,170)"></stop>
<stop offset="66%" stop-color="rgb(170,170,170)"></stop>
<stop offset="67%" stop-color="rgb(170,170,170)"></stop>
<stop offset="68%" stop-color="rgb(170,170,170)"></stop>
<stop offset="69%" stop-color="rgb(170,170,170)"></stop>
<stop offset="70%" stop-color="rgb(170,170,170)"></stop>
<stop offset="71%" stop-color="rgb(170,170,170)"></stop>
<stop offset="72%" stop-color="rgb(170,170,170)"></stop>
<stop offset="73%" stop-color="rgb(170,170,170)"></stop>
<stop offset="74%" stop-color="rgb(170,170,170)"></stop>
<stop offset="75%" stop-color="rgb(170,170,170)"></stop>
<stop offset="76%" stop-color="rgb(170,170,170)"></stop>
<stop offset="77%" stop-color="rgb(170,170,170)"></stop>
<stop offset="78%" stop-color="rgb(170,170,170)"></stop>
<stop offset="79%" stop-color="rgb(170,170,170)"></stop>
<stop offset="80%" stop-color="rgb(170,170,170)"></stop>
<stop offset="81%" stop-color="rgb(170,170,170)"></stop>
<stop offset="82%" stop-color="rgb(170,170,170)"></stop>
<stop offset="83%" stop-color="rgb(170,170,170)"></stop>
<stop offset="84%" stop-color="rgb(170,170,170)"></stop>
<stop offset="85%" stop-color="rgb(170,170,170)"></stop>
<stop offset="86%" stop-color="rgb(170,170,170)"></stop>
<stop offset="87%" stop-color="rgb(170,170,170)"></stop>
<stop offset="88%" stop-color="rgb(170,170,170)"></stop>
<stop offset="89%" stop-color="rgb(170,170,170)"></stop>
<stop offset="90%" stop-color="rgb(170,170,170)"></stop>
<stop offset="91%" stop-color="rgb(170,170,170)"></stop>
<stop offset="92%" stop-color="rgb(170,170,170)"></stop>
<stop offset="93%" stop-color="rgb(170,170,170)"></stop>
<stop offset="94%" stop-color="rgb(170,170,170)"></stop>
<stop offset="95%" stop-color="rgb(170,170,170)"></stop>
<stop offset="96%" stop-color="rgb(170,170,170)"></stop>
<stop offset="97%" stop-color="rgb(170,170,170)"></stop>
<stop offset="98%" stop-color="rgb(170,170,170)"></stop>
<stop offset="99%" stop-color="rgb(170,170,170)"></stop>
<stop offset="100%" stop-color="rgb(170,170,170)"></stop>
</linearGradient>
<linearGradient gradientUnits="objectBoundingBox" x1="0" y1="0" x2="0" y2="1" id="zr45-g1">
<stop offset="0%" stop-color="rgb(255,255,0)"></stop>
<stop offset="1%" stop-color="rgb(255,252,0)"></stop>
<stop offset="2%" stop-color="rgb(255,250,0)"></stop>
<stop offset="3%" stop-color="rgb(255,247,0)"></stop>
<stop offset="4%" stop-color="rgb(255,245,0)"></stop>
<stop offset="5%" stop-color="rgb(255,242,0)"></stop>
<stop offset="6%" stop-color="rgb(255,240,0)"></stop>
<stop offset="7.000000000000001%" stop-color="rgb(255,237,0)"></stop>
<stop offset="8%" stop-color="rgb(255,235,0)"></stop>
<stop offset="9%" stop-color="rgb(255,232,0)"></stop>
<stop offset="10%" stop-color="rgb(255,230,0)"></stop>
<stop offset="11%" stop-color="rgb(255,227,0)"></stop>
<stop offset="12%" stop-color="rgb(255,224,0)"></stop>
<stop offset="13%" stop-color="rgb(255,222,0)"></stop>
<stop offset="14.000000000000002%" stop-color="rgb(255,219,0)"></stop>
<stop offset="15%" stop-color="rgb(255,217,0)"></stop>
<stop offset="16%" stop-color="rgb(255,214,0)"></stop>
<stop offset="17%" stop-color="rgb(255,212,0)"></stop>
<stop offset="18%" stop-color="rgb(255,209,0)"></stop>
<stop offset="19%" stop-color="rgb(255,207,0)"></stop>
<stop offset="20%" stop-color="rgb(255,204,0)"></stop>
<stop offset="21%" stop-color="rgb(255,201,0)"></stop>
<stop offset="22%" stop-color="rgb(255,199,0)"></stop>
<stop offset="23%" stop-color="rgb(255,196,0)"></stop>
<stop offset="24%" stop-color="rgb(255,194,0)"></stop>
<stop offset="25%" stop-color="rgb(255,191,0)"></stop>
<stop offset="26%" stop-color="rgb(255,189,0)"></stop>
<stop offset="27%" stop-color="rgb(255,186,0)"></stop>
<stop offset="28.000000000000004%" stop-color="rgb(255,184,0)"></stop>
<stop offset="28.999999999999996%" stop-color="rgb(255,181,0)"></stop>
<stop offset="30%" stop-color="rgb(255,179,0)"></stop>
<stop offset="31%" stop-color="rgb(255,176,0)"></stop>
<stop offset="32%" stop-color="rgb(255,173,0)"></stop>
<stop offset="33%" stop-color="rgb(255,171,0)"></stop>
<stop offset="34%" stop-color="rgb(255,168,0)"></stop>
<stop offset="35%" stop-color="rgb(255,166,0)"></stop>
<stop offset="36%" stop-color="rgb(255,163,0)"></stop>
<stop offset="37%" stop-color="rgb(255,161,0)"></stop>
<stop offset="38%" stop-color="rgb(255,158,0)"></stop>
<stop offset="39%" stop-color="rgb(255,156,0)"></stop>
<stop offset="40%" stop-color="rgb(255,153,0)"></stop>
<stop offset="41%" stop-color="rgb(255,150,0)"></stop>
<stop offset="42%" stop-color="rgb(255,148,0)"></stop>
<stop offset="43%" stop-color="rgb(255,145,0)"></stop>
<stop offset="44%" stop-color="rgb(255,143,0)"></stop>
<stop offset="45%" stop-color="rgb(255,140,0)"></stop>
<stop offset="46%" stop-color="rgb(255,138,0)"></stop>
<stop offset="47%" stop-color="rgb(255,135,0)"></stop>
<stop offset="48%" stop-color="rgb(255,133,0)"></stop>
<stop offset="49%" stop-color="rgb(255,130,0)"></stop>
<stop offset="50%" stop-color="rgb(255,128,0)"></stop>
<stop offset="51%" stop-color="rgb(255,125,0)"></stop>
<stop offset="52%" stop-color="rgb(255,122,0)"></stop>
<stop offset="53%" stop-color="rgb(255,120,0)"></stop>
<stop offset="54%" stop-color="rgb(255,117,0)"></stop>
<stop offset="55.00000000000001%" stop-color="rgb(255,115,0)"></stop>
<stop offset="56.00000000000001%" stop-color="rgb(255,112,0)"></stop>
<stop offset="56.99999999999999%" stop-color="rgb(255,110,0)"></stop>
<stop offset="57.99999999999999%" stop-color="rgb(255,107,0)"></stop>
<stop offset="59%" stop-color="rgb(255,105,0)"></stop>
<stop offset="60%" stop-color="rgb(255,102,0)"></stop>
<stop offset="61%" stop-color="rgb(255,99,0)"></stop>
<stop offset="62%" stop-color="rgb(255,97,0)"></stop>
<stop offset="63%" stop-color="rgb(255,94,0)"></stop>
<stop offset="64%" stop-color="rgb(255,92,0)"></stop>
<stop offset="65%" stop-color="rgb(255,89,0)"></stop>
<stop offset="66%" stop-color="rgb(255,87,0)"></stop>
<stop offset="67%" stop-color="rgb(255,84,0)"></stop>
<stop offset="68%" stop-color="rgb(255,82,0)"></stop>
<stop offset="69%" stop-color="rgb(255,79,0)"></stop>
<stop offset="70%" stop-color="rgb(255,77,0)"></stop>
<stop offset="71%" stop-color="rgb(255,74,0)"></stop>
<stop offset="72%" stop-color="rgb(255,71,0)"></stop>
<stop offset="73%" stop-color="rgb(255,69,0)"></stop>
<stop offset="74%" stop-color="rgb(255,66,0)"></stop>
<stop offset="75%" stop-color="rgb(255,64,0)"></stop>
<stop offset="76%" stop-color="rgb(255,61,0)"></stop>
<stop offset="77%" stop-color="rgb(255,59,0)"></stop>
<stop offset="78%" stop-color="rgb(255,56,0)"></stop>
<stop offset="79%" stop-color="rgb(255,54,0)"></stop>
<stop offset="80%" stop-color="rgb(255,51,0)"></stop>
<stop offset="81%" stop-color="rgb(255,48,0)"></stop>
<stop offset="82%" stop-color="rgb(255,46,0)"></stop>
<stop offset="83%" stop-color="rgb(255,43,0)"></stop>
<stop offset="84%" stop-color="rgb(255,41,0)"></stop>
<stop offset="85%" stop-color="rgb(255,38,0)"></stop>
<stop offset="86%" stop-color="rgb(255,36,0)"></stop>
<stop offset="87%" stop-color="rgb(255,33,0)"></stop>
<stop offset="88%" stop-color="rgb(255,31,0)"></stop>
<stop offset="89%" stop-color="rgb(255,28,0)"></stop>
<stop offset="90%" stop-color="rgb(255,26,0)"></stop>
<stop offset="91%" stop-color="rgb(255,23,0)"></stop>
<stop offset="92%" stop-color="rgb(255,20,0)"></stop>
<stop offset="93%" stop-color="rgb(255,18,0)"></stop>
<stop offset="94%" stop-color="rgb(255,15,0)"></stop>
<stop offset="95%" stop-color="rgb(255,13,0)"></stop>
<stop offset="96%" stop-color="rgb(255,10,0)"></stop>
<stop offset="97%" stop-color="rgb(255,8,0)"></stop>
<stop offset="98%" stop-color="rgb(255,5,0)"></stop>
<stop offset="99%" stop-color="rgb(255,3,0)"></stop>
<stop offset="100%" stop-color="rgb(255,0,0)"></stop>
</linearGradient>
<clipPath id="zr45-c1">
<path d="M0 0l524.6 0l0 15l-524.6 0Z" transform="translate(5 420.5)" fill="#000"></path>
</clipPath>
</defs>
</svg>