<svg width="600" height="450" xmlns="http://www.w3.org/2000/svg" xmlns:xlink="http://www.w3.org/1999/xlink" version="1.1" baseProfile="full" viewBox="0 0 600 450">
<rect width="600" height="450" x="0" y="0" fill="none"></rect>
<path d="M80 120l20 0l0 20l-20 0Z" fill="#fff" stroke="#ccc" stroke-width="0.5" class="zr14-cls-49"></path>
<path d="M80 140l20 0l0 20l-20 0Z" fill="#fff" stroke="#ccc" stroke-width="0.5" class="zr14-cls-49"></path>
<path d="M80 160l20 0l0 20l-20 0Z" fill="#fff" stroke="#ccc" stroke-width="0.5" class="zr14-cls-49"></path>
<path d="M80 180l20 0l0 20l-20 0Z" fill="#fff" stroke="#ccc" stroke-width="0.5" class="zr14-cls-49"></path>
<path d="M80 200l20 0l0 20l-20 0Z" fill="#fff" stroke="#ccc" stroke-width="0.5" class="zr14-cls-49"></path>
<path d="M80 220l20 0l0 20l-20 0Z" fill="#fff" stroke="#ccc" stroke-width="0.5" class="zr14-cls-49"></path>
<path d="M80 240l20 0l0 20l-20 0Z" fill="#fff" stroke="#ccc" stroke-width="0.5" class="zr14-cls-49"></path>
<path d="M100 120l20 0l0 20l-20 0Z" fill="#fff" stroke="#ccc" stroke-width="0.5" class="zr14-cls-49"></path>
<path d="M100 140l20 0l0 20l-20 0Z" fill="#fff" stroke="#ccc" stroke-width="0.5" class="zr14-cls-49"></path>
<path d="M100 160l20 0l0 20l-20 0Z" fill="#fff" stroke="#ccc" stroke-width="0.5" class="zr14-cls-49"></path>
<path d="M100 180l20 0l0 20l-20 0Z" fill="#fff" stroke="#ccc" stroke-width="0.5" class="zr14-cls-49"></path>
<path d="M100 200l20 0l0 20l-20 0Z" fill="#fff" stroke="#ccc" stroke-width="0.5" class="zr14-cls-49"></path>
<path d="M100 220l20 0l0 20l-20 0Z" fill="#fff" stroke="#ccc" stroke-width="0.5" class="zr14-cls-49"></path>
<path d="M100 240l20 0l0 20l-20 0Z" fill="#fff" stroke="#ccc" stroke-width="0.5" class="zr14-cls-49"></path>
<path d="M120 120l20 0l0 20l-20 0Z" fill="#fff" stroke="#ccc" stroke-width="0.5" class="zr14-cls-49"></path>
<path d="M120 140l20 0l0 20l-20 0Z" fill="#fff" stroke="#ccc" stroke-width="0.5" class="zr14-cls-49"></path>
<path d="M120 160l20 0l0 20l-20 0Z" fill="#fff" stroke="#ccc" stroke-width="0.5" class="zr14-cls-49"></path>
<path d="M120 180l20 0l0 20l-20 0Z" fill="#fff" stroke="#ccc" stroke-width="0.5" class="zr14-cls-49"></path>
<path d="M120 200l20 0l0 20l-20 0Z" fill="#fff" stroke="#ccc" stroke-width="0.5" class="zr14-cls-49"></path>
<path d="M120 220l20 0l0 20l-20 0Z" fill="#fff" stroke="#ccc" stroke-width="0.5" class="zr14-cls-49"></path>
<path d="M120 240l20 0l0 20l-20 0Z" fill="#fff" stroke="#ccc" stroke-width="0.5" class="zr14-cls-49"></path>
<path d="M140 120l20 0l0 20l-20 0Z" fill="#fff" stroke="#ccc" stroke-width="0.5" class="zr14-cls-49"></path>
<path d="M140 140l20 0l0 20l-20 0Z" fill="#fff" stroke="#ccc" stroke-width="0.5" class="zr14-cls-49"></path>
<path d="M140 160l20 0l0 20l-20 0Z" fill="#fff" stroke="#ccc" stroke-width="0.5" class="zr14-cls-49"></path>
<path d="M140 180l20 0l0 20l-20 0Z" fill="#fff" stroke="#ccc" stroke-width="0.5" class="zr14-cls-49"></path>
<path d="M140 200l20 0l0 20l-20 0Z" fill="#fff" stroke="#ccc" stroke-width="0.5" class="zr14-cls-49"></path>
<path d="M140 220l20 0l0 20l-20 0Z" fill="#fff" stroke="#ccc" stroke-width="0.5" class="zr14-cls-49"></path>
<path d="M140 240l20 0l0 20l-20 0Z" fill="#fff" stroke="#ccc" stroke-width="0.5" class="zr14-cls-49"></path>
<path d="M160 120l20 0l0 20l-20 0Z" fill="#fff" stroke="#ccc" stroke-width="0.5" class="zr14-cls-49"></path>
<path d="M160 140l20 0l0 20l-20 0Z" fill="#fff" stroke="#ccc" stroke-width="0.5" class="zr14-cls-49"></path>
<path d="M160 160l20 0l0 20l-20 0Z" fill="#fff" stroke="#ccc" stroke-width="0.5" class="zr14-cls-49"></path>
<path d="M160 180l20 0l0 20l-20 0Z" fill="#fff" stroke="#ccc" stroke-width="0.5" class="zr14-cls-49"></path>
<path d="M160 200l20 0l0 20l-20 0Z" fill="#fff" stroke="#ccc" stroke-width="0.5" class="zr14-cls-49"></path>
<path d="M160 220l20 0l0 20l-20 0Z" fill="#fff" stroke="#ccc" stroke-width="0.5" class="zr14-cls-49"></path>
<path d="M160 240l20 0l0 20l-20 0Z" fill="#fff" stroke="#ccc" stroke-width="0.5" class="zr14-cls-49"></path>
<path d="M180 120l20 0l0 20l-20 0Z" fill="#fff" stroke="#ccc" stroke-width="0.5" class="zr14-cls-49"></path>
<path d="M180 140l20 0l0 20l-20 0Z" fill="#fff" stroke="#ccc" stroke-width="0.5" class="zr14-cls-49"></path>
<path d="M180 160l20 0l0 20l-20 0Z" fill="#fff" stroke="#ccc" stroke-width="0.5" class="zr14-cls-49"></path>
<path d="M180 180l20 0l0 20l-20 0Z" fill="#fff" stroke="#ccc" stroke-width="0.5" class="zr14-cls-49"></path>
<path d="M180 200l20 0l0 20l-20 0Z" fill="#fff" stroke="#ccc" stroke-width="0.5" class="zr14-cls-49"></path>
<path d="M180 220l20 0l0 20l-20 0Z" fill="#fff" stroke="#ccc" stroke-width="0.5" class="zr14-cls-49"></path>
<path d="M180 240l20 0l0 20l-20 0Z" fill="#fff" stroke="#ccc" stroke-width="0.5" class="zr14-cls-49"></path>
<path d="M200 120l20 0l0 20l-20 0Z" fill="#fff" stroke="#ccc" stroke-width="0.5" class="zr14-cls-49"></path>
<path d="M200 140l20 0l0 20l-20 0Z" fill="#fff" stroke="#ccc" stroke-width="0.5" class="zr14-cls-49"></path>
<path d="M200 160l20 0l0 20l-20 0Z" fill="#fff" stroke="#ccc" stroke-width="0.5" class="zr14-cls-49"></path>
<path d="M200 180l20 0l0 20l-20 0Z" fill="#fff" stroke="#ccc" stroke-width="0.5" class="zr14-cls-49"></path>
<path d="M200 200l20 0l0 20l-20 0Z" fill="#fff" stroke="#ccc" stroke-width="0.5" class="zr14-cls-49"></path>
<path d="M200 220l20 0l0 20l-20 0Z" fill="#fff" stroke="#ccc" stroke-width="0.5" class="zr14-cls-49"></path>
<path d="M200 240l20 0l0 20l-20 0Z" fill="#fff" stroke="#ccc" stroke-width="0.5" class="zr14-cls-49"></path>
<path d="M220 120l20 0l0 20l-20 0Z" fill="#fff" stroke="#ccc" stroke-width="0.5" class="zr14-cls-49"></path>
<path d="M220 140l20 0l0 20l-20 0Z" fill="#fff" stroke="#ccc" stroke-width="0.5" class="zr14-cls-49"></path>
<path d="M220 160l20 0l0 20l-20 0Z" fill="#fff" stroke="#ccc" stroke-width="0.5" class="zr14-cls-49"></path>
<path d="M220 180l20 0l0 20l-20 0Z" fill="#fff" stroke="#ccc" stroke-width="0.5" class="zr14-cls-49"></path>
<path d="M220 200l20 0l0 20l-20 0Z" fill="#fff" stroke="#ccc" stroke-width="0.5" class="zr14-cls-49"></path>
<path d="M220 220l20 0l0 20l-20 0Z" fill="#fff" stroke="#ccc" stroke-width="0.5" class="zr14-cls-49"></path>
<path d="M220 240l20 0l0 20l-20 0Z" fill="#fff" stroke="#ccc" stroke-width="0.5" class="zr14-cls-49"></path>
<path d="M240 120l20 0l0 20l-20 0Z" fill="#fff" stroke="#ccc" stroke-width="0.5" class="zr14-cls-49"></path>
<path d="M240 140l20 0l0 20l-20 0Z" fill="#fff" stroke="#ccc" stroke-width="0.5" class="zr14-cls-49"></path>
<path d="M240 160l20 0l0 20l-20 0Z" fill="#fff" stroke="#ccc" stroke-width="0.5" class="zr14-cls-49"></path>
<path d="M240 180l20 0l0 20l-20 0Z" fill="#fff" stroke="#ccc" stroke-width="0.5" class="zr14-cls-49"></path>
<path d="M240 200l20 0l0 20l-20 0Z" fill="#fff" stroke="#ccc" stroke-width="0.5" class="zr14-cls-49"></path>
<path d="M240 220l20 0l0 20l-20 0Z" fill="#fff" stroke="#ccc" stroke-width="0.5" class="zr14-cls-49"></path>
<path d="M240 240l20 0l0 20l-20 0Z" fill="#fff" stroke="#ccc" stroke-width="0.5" class="zr14-cls-49"></path>
<path d="M260 120l20 0l0 20l-20 0Z" fill="#fff" stroke="#ccc" stroke-width="0.5" class="zr14-cls-49"></path>
<path d="M260 140l20 0l0 20l-20 0Z" fill="#fff" stroke="#ccc" stroke-width="0.5" class="zr14-cls-49"></path>
<path d="M260 160l20 0l0 20l-20 0Z" fill="#fff" stroke="#ccc" stroke-width="0.5" class="zr14-cls-49"></path>
<path d="M260 180l20 0l0 20l-20 0Z" fill="#fff" stroke="#ccc" stroke-width="0.5" class="zr14-cls-49"></path>
<path d="M260 200l20 0l0 20l-20 0Z" fill="#fff" stroke="#ccc" stroke-width="0.5" class="zr14-cls-49"></path>
<path d="M260 220l20 0l0 20l-20 0Z" fill="#fff" stroke="#ccc" stroke-width="0.5" class="zr14-cls-49"></path>
<path d="M260 240l20 0l0 20l-20 0Z" fill="#fff" stroke="#ccc" stroke-width="0.5" class="zr14-cls-49"></path>
<path d="M280 120l20 0l0 20l-20 0Z" fill="#fff" stroke="#ccc" stroke-width="0.5" class="zr14-cls-49"></path>
<path d="M280 140l20 0l0 20l-20 0Z" fill="#fff" stroke="#ccc" stroke-width="0.5" class="zr14-cls-49"></path>
<path d="M280 160l20 0l0 20l-20 0Z" fill="#fff" stroke="#ccc" stroke-width="0.5" class="zr14-cls-49"></path>
<path d="M280 180l20 0l0 20l-20 0Z" fill="#fff" stroke="#ccc" stroke-width="0.5" class="zr14-cls-49"></path>
<path d="M280 200l20 0l0 20l-20 0Z" fill="#fff" stroke="#ccc" stroke-width="0.5" class="zr14-cls-49"></path>
<path d="M280 220l20 0l0 20l-20 0Z" fill="#fff" stroke="#ccc" stroke-width="0.5" class="zr14-cls-49"></path>
<path d="M280 240l20 0l0 20l-20 0Z" fill="#fff" stroke="#ccc" stroke-width="0.5" class="zr14-cls-49"></path>
<path d="M300 120l20 0l0 20l-20 0Z" fill="#fff" stroke="#ccc" stroke-width="0.5" class="zr14-cls-49"></path>
<path d="M300 140l20 0l0 20l-20 0Z" fill="#fff" stroke="#ccc" stroke-width="0.5" class="zr14-cls-49"></path>
<path d="M300 160l20 0l0 20l-20 0Z" fill="#fff" stroke="#ccc" stroke-width="0.5" class="zr14-cls-49"></path>
<path d="M300 180l20 0l0 20l-20 0Z" fill="#fff" stroke="#ccc" stroke-width="0.5" class="zr14-cls-49"></path>
<path d="M300 200l20 0l0 20l-20 0Z" fill="#fff" stroke="#ccc" stroke-width="0.5" class="zr14-cls-49"></path>
<path d="M300 220l20 0l0 20l-20 0Z" fill="#fff" stroke="#ccc" stroke-width="0.5" class="zr14-cls-49"></path>
<path d="M300 240l20 0l0 20l-20 0Z" fill="#fff" stroke="#ccc" stroke-width="0.5" class="zr14-cls-49"></path>
<path d="M320 120l20 0l0 20l-20 0Z" fill="#fff" stroke="#ccc" stroke-width="0.5" class="zr14-cls-49"></path>
<path d="M320 140l20 0l0 20l-20 0Z" fill="#fff" stroke="#ccc" stroke-width="0.5" class="zr14-cls-49"></path>
<path d="M320 160l20 0l0 20l-20 0Z" fill="#fff" stroke="#ccc" stroke-width="0.5" class="zr14-cls-49"></path>
<path d="M320 180l20 0l0 20l-20 0Z" fill="#fff" stroke="#ccc" stroke-width="0.5" class="zr14-cls-49"></path>
<path d="M320 200l20 0l0 20l-20 0Z" fill="#fff" stroke="#ccc" stroke-width="0.5" class="zr14-cls-49"></path>
<path d="M320 220l20 0l0 20l-20 0Z" fill="#fff" stroke="#ccc" stroke-width="0.5" class="zr14-cls-49"></path>
<path d="M320 240l20 0l0 20l-20 0Z" fill="#fff" stroke="#ccc" stroke-width="0.5" class="zr14-cls-49"></path>
<path d="M340 120l20 0l0 20l-20 0Z" fill="#fff" stroke="#ccc" stroke-width="0.5" class="zr14-cls-49"></path>
<path d="M340 140l20 0l0 20l-20 0Z" fill="#fff" stroke="#ccc" stroke-width="0.5" class="zr14-cls-49"></path>
<path d="M340 160l20 0l0 20l-20 0Z" fill="#fff" stroke="#ccc" stroke-width="0.5" class="zr14-cls-49"></path>
<path d="M340 180l20 0l0 20l-20 0Z" fill="#fff" stroke="#ccc" stroke-width="0.5" class="zr14-cls-49"></path>
<path d="M340 200l20 0l0 20l-20 0Z" fill="#fff" stroke="#ccc" stroke-width="0.5" class="zr14-cls-49"></path>
<path d="M340 220l20 0l0 20l-20 0Z" fill="#fff" stroke="#ccc" stroke-width="0.5" class="zr14-cls-49"></path>
<path d="M340 240l20 0l0 20l-20 0Z" fill="#fff" stroke="#ccc" stroke-width="0.5" class="zr14-cls-49"></path>
<path d="M360 120l20 0l0 20l-20 0Z" fill="#fff" stroke="#ccc" stroke-width="0.5" class="zr14-cls-49"></path>
<path d="M360 140l20 0l0 20l-20 0Z" fill="#fff" stroke="#ccc" stroke-width="0.5" class="zr14-cls-49"></path>
<path d="M360 160l20 0l0 20l-20 0Z" fill="#fff" stroke="#ccc" stroke-width="0.5" class="zr14-cls-49"></path>
<path d="M360 180l20 0l0 20l-20 0Z" fill="#fff" stroke="#ccc" stroke-width="0.5" class="zr14-cls-49"></path>
<path d="M360 200l20 0l0 20l-20 0Z" fill="#fff" stroke="#ccc" stroke-width="0.5" class="zr14-cls-49"></path>
<path d="M360 220l20 0l0 20l-20 0Z" fill="#fff" stroke="#ccc" stroke-width="0.5" class="zr14-cls-49"></path>
<path d="M360 240l20 0l0 20l-20 0Z" fill="#fff" stroke="#ccc" stroke-width="0.5" class="zr14-cls-49"></path>
<path d="M380 120l20 0l0 20l-20 0Z" fill="#fff" stroke="#ccc" stroke-width="0.5" class="zr14-cls-49"></path>
<path d="M380 140l20 0l0 20l-20 0Z" fill="#fff" stroke="#ccc" stroke-width="0.5" class="zr14-cls-49"></path>
<path d="M380 160l20 0l0 20l-20 0Z" fill="#fff" stroke="#ccc" stroke-width="0.5" class="zr14-cls-49"></path>
<path d="M380 180l20 0l0 20l-20 0Z" fill="#fff" stroke="#ccc" stroke-width="0.5" class="zr14-cls-49"></path>
<path d="M380 200l20 0l0 20l-20 0Z" fill="#fff" stroke="#ccc" stroke-width="0.5" class="zr14-cls-49"></path>
<path d="M380 220l20 0l0 20l-20 0Z" fill="#fff" stroke="#ccc" stroke-width="0.5" class="zr14-cls-49"></path>
<path d="M380 240l20 0l0 20l-20 0Z" fill="#fff" stroke="#ccc" stroke-width="0.5" class="zr14-cls-49"></path>
<path d="M400 120l20 0l0 20l-20 0Z" fill="#fff" stroke="#ccc" stroke-width="0.5" class="zr14-cls-49"></path>
<path d="M400 140l20 0l0 20l-20 0Z" fill="#fff" stroke="#ccc" stroke-width="0.5" class="zr14-cls-49"></path>
<path d="M400 160l20 0l0 20l-20 0Z" fill="#fff" stroke="#ccc" stroke-width="0.5" class="zr14-cls-49"></path>
<path d="M400 180l20 0l0 20l-20 0Z" fill="#fff" stroke="#ccc" stroke-width="0.5" class="zr14-cls-49"></path>
<path d="M400 200l20 0l0 20l-20 0Z" fill="#fff" stroke="#ccc" stroke-width="0.5" class="zr14-cls-49"></path>
<path d="M400 220l20 0l0 20l-20 0Z" fill="#fff" stroke="#ccc" stroke-width="0.5" class="zr14-cls-49"></path>
<path d="M400 240l20 0l0 20l-20 0Z" fill="#fff" stroke="#ccc" stroke-width="0.5" class="zr14-cls-49"></path>
<path d="M420 120l20 0l0 20l-20 0Z" fill="#fff" stroke="#ccc" stroke-width="0.5" class="zr14-cls-49"></path>
<path d="M420 140l20 0l0 20l-20 0Z" fill="#fff" stroke="#ccc" stroke-width="0.5" class="zr14-cls-49"></path>
<path d="M420 160l20 0l0 20l-20 0Z" fill="#fff" stroke="#ccc" stroke-width="0.5" class="zr14-cls-49"></path>
<path d="M420 180l20 0l0 20l-20 0Z" fill="#fff" stroke="#ccc" stroke-width="0.5" class="zr14-cls-49"></path>
<path d="M420 200l20 0l0 20l-20 0Z" fill="#fff" stroke="#ccc" stroke-width="0.5" class="zr14-cls-49"></path>
<path d="M420 220l20 0l0 20l-20 0Z" fill="#fff" stroke="#ccc" stroke-width="0.5" class="zr14-cls-49"></path>
<path d="M420 240l20 0l0 20l-20 0Z" fill="#fff" stroke="#ccc" stroke-width="0.5" class="zr14-cls-49"></path>
<path d="M440 120l20 0l0 20l-20 0Z" fill="#fff" stroke="#ccc" stroke-width="0.5" class="zr14-cls-49"></path>
<path d="M440 140l20 0l0 20l-20 0Z" fill="#fff" stroke="#ccc" stroke-width="0.5" class="zr14-cls-49"></path>
<path d="M440 160l20 0l0 20l-20 0Z" fill="#fff" stroke="#ccc" stroke-width="0.5" class="zr14-cls-49"></path>
<path d="M440 180l20 0l0 20l-20 0Z" fill="#fff" stroke="#ccc" stroke-width="0.5" class="zr14-cls-49"></path>
<path d="M440 200l20 0l0 20l-20 0Z" fill="#fff" stroke="#ccc" stroke-width="0.5" class="zr14-cls-49"></path>
<path d="M440 220l20 0l0 20l-20 0Z" fill="#fff" stroke="#ccc" stroke-width="0.5" class="zr14-cls-49"></path>
<path d="M440 240l20 0l0 20l-20 0Z" fill="#fff" stroke="#ccc" stroke-width="0.5" class="zr14-cls-49"></path>
<path d="M460 120l20 0l0 20l-20 0Z" fill="#fff" stroke="#ccc" stroke-width="0.5" class="zr14-cls-49"></path>
<path d="M460 140l20 0l0 20l-20 0Z" fill="#fff" stroke="#ccc" stroke-width="0.5" class="zr14-cls-49"></path>
<path d="M460 160l20 0l0 20l-20 0Z" fill="#fff" stroke="#ccc" stroke-width="0.5" class="zr14-cls-49"></path>
<path d="M460 180l20 0l0 20l-20 0Z" fill="#fff" stroke="#ccc" stroke-width="0.5" class="zr14-cls-49"></path>
<path d="M460 200l20 0l0 20l-20 0Z" fill="#fff" stroke="#ccc" stroke-width="0.5" class="zr14-cls-49"></path>
<path d="M460 220l20 0l0 20l-20 0Z" fill="#fff" stroke="#ccc" stroke-width="0.5" class="zr14-cls-49"></path>
<path d="M460 240l20 0l0 20l-20 0Z" fill="#fff" stroke="#ccc" stroke-width="0.5" class="zr14-cls-49"></path>
<path d="M480 120l20 0l0 20l-20 0Z" fill="#fff" stroke="#ccc" stroke-width="0.5" class="zr14-cls-49"></path>
<path d="M480 140l20 0l0 20l-20 0Z" fill="#fff" stroke="#ccc" stroke-width="0.5" class="zr14-cls-49"></path>
<path d="M480 160l20 0l0 20l-20 0Z" fill="#fff" stroke="#ccc" stroke-width="0.5" class="zr14-cls-49"></path>
<path d="M480 180l20 0l0 20l-20 0Z" fill="#fff" stroke="#ccc" stroke-width="0.5" class="zr14-cls-49"></path>
<path d="M480 200l20 0l0 20l-20 0Z" fill="#fff" stroke="#ccc" stroke-width="0.5" class="zr14-cls-49"></path>
<path d="M480 220l20 0l0 20l-20 0Z" fill="#fff" stroke="#ccc" stroke-width="0.5" class="zr14-cls-49"></path>
<path d="M480 240l20 0l0 20l-20 0Z" fill="#fff" stroke="#ccc" stroke-width="0.5" class="zr14-cls-49"></path>
<path d="M500 120l20 0l0 20l-20 0Z" fill="#fff" stroke="#ccc" stroke-width="0.5" class="zr14-cls-49"></path>
<path d="M500 140l20 0l0 20l-20 0Z" fill="#fff" stroke="#ccc" stroke-width="0.5" class="zr14-cls-49"></path>
<path d="M500 160l20 0l0 20l-20 0Z" fill="#fff" stroke="#ccc" stroke-width="0.5" class="zr14-cls-49"></path>
<path d="M500 180l20 0l0 20l-20 0Z" fill="#fff" stroke="#ccc" stroke-width="0.5" class="zr14-cls-49"></path>
<path d="M80.3 120.3l19.5 0l0 19.5l-19.5 0Z" fill="rgb(216,130,115)" ecmeta_series_index="0" ecmeta_data_index="0" ecmeta_ssr_type="chart" class="zr14-cls-50"></path>
<path d="M80.3 140.3l19.5 0l0 19.5l-19.5 0Z" fill="rgb(191,68,76)" ecmeta_series_index="0" ecmeta_data_index="1" ecmeta_ssr_type="chart" class="zr14-cls-51"></path>
<path d="M80.3 160.3l19.5 0l0 19.5l-19.5 0Z" fill="rgb(191,68,76)" ecmeta_series_index="0" ecmeta_data_index="2" ecmeta_ssr_type="chart" class="zr14-cls-51"></path>
<path d="M80.3 180.3l19.5 0l0 19.5l-19.5 0Z" fill="rgb(204,99,96)" ecmeta_series_index="0" ecmeta_data_index="3" ecmeta_ssr_type="chart" class="zr14-cls-52"></path>
<path d="M80.3 200.3l19.5 0l0 19.5l-19.5 0Z" fill="rgb(191,68,76)" ecmeta_series_index="0" ecmeta_data_index="4" ecmeta_ssr_type="chart" class="zr14-cls-51"></path>
<path d="M80.3 220.3l19.5 0l0 19.5l-19.5 0Z" fill="rgb(191,68,76)" ecmeta_series_index="0" ecmeta_data_index="5" ecmeta_ssr_type="chart" class="zr14-cls-51"></path>
<path d="M80.3 240.3l19.5 0l0 19.5l-19.5 0Z" fill="rgb(246,239,166)" ecmeta_series_index="0" ecmeta_data_index="6" ecmeta_ssr_type="chart" class="zr14-cls-53"></path>
<path d="M100.3 120.3l19.5 0l0 19.5l-19.5 0Z" fill="rgb(204,99,96)" ecmeta_series_index="0" ecmeta_data_index="7" ecmeta_ssr_type="chart" class="zr14-cls-52"></path>
<path d="M100.3 140.3l19.5 0l0 19.5l-19.5 0Z" fill="rgb(191,68,76)" ecmeta_series_index="0" ecmeta_data_index="8" ecmeta_ssr_type="chart" class="zr14-cls-51"></path>
<path d="M100.3 160.3l19.5 0l0 19.5l-19.5 0Z" fill="rgb(191,68,76)" ecmeta_series_index="0" ecmeta_data_index="9" ecmeta_ssr_type="chart" class="zr14-cls-51"></path>
<path d="M100.3 180.3l19.5 0l0 19.5l-19.5 0Z" fill="rgb(204,99,96)" ecmeta_series_index="0" ecmeta_data_index="10" ecmeta_ssr_type="chart" class="zr14-cls-52"></path>
<path d="M100.3 200.3l19.5 0l0 19.5l-19.5 0Z" fill="rgb(216,130,115)" ecmeta_series_index="0" ecmeta_data_index="11" ecmeta_ssr_type="chart" class="zr14-cls-50"></path>
<path d="M100.3 220.3l19.5 0l0 19.5l-19.5 0Z" fill="rgb(204,99,96)" ecmeta_series_index="0" ecmeta_data_index="12" ecmeta_ssr_type="chart" class="zr14-cls-52"></path>
<path d="M100.3 240.3l19.5 0l0 19.5l-19.5 0Z" fill="rgb(246,239,166)" ecmeta_series_index="0" ecmeta_data_index="13" ecmeta_ssr_type="chart" class="zr14-cls-53"></path>
<path d="M120.3 120.3l19.5 0l0 19.5l-19.5 0Z" fill="rgb(231,185,141)" ecmeta_series_index="0" ecmeta_data_index="14" ecmeta_ssr_type="chart" class="zr14-cls-54"></path>
<path d="M120.3 140.3l19.5 0l0 19.5l-19.5 0Z" fill="rgb(216,130,115)" ecmeta_series_index="0" ecmeta_data_index="15" ecmeta_ssr_type="chart" class="zr14-cls-50"></path>
<path d="M120.3 160.3l19.5 0l0 19.5l-19.5 0Z" fill="rgb(246,239,166)" ecmeta_series_index="0" ecmeta_data_index="16" ecmeta_ssr_type="chart" class="zr14-cls-53"></path>
<path d="M120.3 180.3l19.5 0l0 19.5l-19.5 0Z" fill="rgb(216,130,115)" ecmeta_series_index="0" ecmeta_data_index="17" ecmeta_ssr_type="chart" class="zr14-cls-50"></path>
<path d="M120.3 200.3l19.5 0l0 19.5l-19.5 0Z" fill="rgb(231,185,141)" ecmeta_series_index="0" ecmeta_data_index="18" ecmeta_ssr_type="chart" class="zr14-cls-54"></path>
<path d="M120.3 220.3l19.5 0l0 19.5l-19.5 0Z" fill="rgb(246,239,166)" ecmeta_series_index="0" ecmeta_data_index="19" ecmeta_ssr_type="chart" class="zr14-cls-53"></path>
<path d="M120.3 240.3l19.5 0l0 19.5l-19.5 0Z" fill="rgb(216,130,115)" ecmeta_series_index="0" ecmeta_data_index="20" ecmeta_ssr_type="chart" class="zr14-cls-50"></path>
<path d="M140.3 120.3l19.5 0l0 19.5l-19.5 0Z" fill="rgb(246,239,166)" ecmeta_series_index="0" ecmeta_data_index="21" ecmeta_ssr_type="chart" class="zr14-cls-53"></path>
<path d="M140.3 140.3l19.5 0l0 19.5l-19.5 0Z" fill="rgb(246,239,166)" ecmeta_series_index="0" ecmeta_data_index="22" ecmeta_ssr_type="chart" class="zr14-cls-53"></path>
<path d="M140.3 160.3l19.5 0l0 19.5l-19.5 0Z" fill="rgb(231,185,141)" ecmeta_series_index="0" ecmeta_data_index="23" ecmeta_ssr_type="chart" class="zr14-cls-54"></path>
<path d="M140.3 180.3l19.5 0l0 19.5l-19.5 0Z" fill="rgb(204,99,96)" ecmeta_series_index="0" ecmeta_data_index="24" ecmeta_ssr_type="chart" class="zr14-cls-52"></path>
<path d="M140.3 200.3l19.5 0l0 19.5l-19.5 0Z" fill="rgb(191,68,76)" ecmeta_series_index="0" ecmeta_data_index="25" ecmeta_ssr_type="chart" class="zr14-cls-51"></path>
<path d="M140.3 220.3l19.5 0l0 19.5l-19.5 0Z" fill="rgb(231,185,141)" ecmeta_series_index="0" ecmeta_data_index="26" ecmeta_ssr_type="chart" class="zr14-cls-54"></path>
<path d="M140.3 240.3l19.5 0l0 19.5l-19.5 0Z" fill="rgb(191,68,76)" ecmeta_series_index="0" ecmeta_data_index="27" ecmeta_ssr_type="chart" class="zr14-cls-51"></path>
<path d="M160.3 120.3l19.5 0l0 19.5l-19.5 0Z" fill="rgb(204,99,96)" ecmeta_series_index="0" ecmeta_data_index="28" ecmeta_ssr_type="chart" class="zr14-cls-52"></path>
<path d="M160.3 140.3l19.5 0l0 19.5l-19.5 0Z" fill="rgb(231,185,141)" ecmeta_series_index="0" ecmeta_data_index="29" ecmeta_ssr_type="chart" class="zr14-cls-54"></path>
<path d="M160.3 160.3l19.5 0l0 19.5l-19.5 0Z" fill="rgb(216,130,115)" ecmeta_series_index="0" ecmeta_data_index="30" ecmeta_ssr_type="chart" class="zr14-cls-50"></path>
<path d="M160.3 180.3l19.5 0l0 19.5l-19.5 0Z" fill="rgb(246,239,166)" ecmeta_series_index="0" ecmeta_data_index="31" ecmeta_ssr_type="chart" class="zr14-cls-53"></path>
<path d="M160.3 200.3l19.5 0l0 19.5l-19.5 0Z" fill="rgb(191,68,76)" ecmeta_series_index="0" ecmeta_data_index="32" ecmeta_ssr_type="chart" class="zr14-cls-51"></path>
<path d="M160.3 220.3l19.5 0l0 19.5l-19.5 0Z" fill="rgb(191,68,76)" ecmeta_series_index="0" ecmeta_data_index="33" ecmeta_ssr_type="chart" class="zr14-cls-51"></path>
<path d="M160.3 240.3l19.5 0l0 19.5l-19.5 0Z" fill="rgb(216,130,115)" ecmeta_series_index="0" ecmeta_data_index="34" ecmeta_ssr_type="chart" class="zr14-cls-50"></path>
<path d="M180.3 120.3l19.5 0l0 19.5l-19.5 0Z" fill="rgb(216,130,115)" ecmeta_series_index="0" ecmeta_data_index="35" ecmeta_ssr_type="chart" class="zr14-cls-50"></path>
<path d="M180.3 140.3l19.5 0l0 19.5l-19.5 0Z" fill="rgb(246,239,166)" ecmeta_series_index="0" ecmeta_data_index="36" ecmeta_ssr_type="chart" class="zr14-cls-53"></path>
<path d="M180.3 160.3l19.5 0l0 19.5l-19.5 0Z" fill="rgb(216,130,115)" ecmeta_series_index="0" ecmeta_data_index="37" ecmeta_ssr_type="chart" class="zr14-cls-50"></path>
<path d="M180.3 180.3l19.5 0l0 19.5l-19.5 0Z" fill="rgb(191,68,76)" ecmeta_series_index="0" ecmeta_data_index="38" ecmeta_ssr_type="chart" class="zr14-cls-51"></path>
<path d="M180.3 200.3l19.5 0l0 19.5l-19.5 0Z" fill="rgb(246,239,166)" ecmeta_series_index="0" ecmeta_data_index="39" ecmeta_ssr_type="chart" class="zr14-cls-53"></path>
<path d="M180.3 220.3l19.5 0l0 19.5l-19.5 0Z" fill="rgb(231,185,141)" ecmeta_series_index="0" ecmeta_data_index="40" ecmeta_ssr_type="chart" class="zr14-cls-54"></path>
<path d="M180.3 240.3l19.5 0l0 19.5l-19.5 0Z" fill="rgb(231,185,141)" ecmeta_series_index="0" ecmeta_data_index="41" ecmeta_ssr_type="chart" class="zr14-cls-54"></path>
<path d="M200.3 120.3l19.5 0l0 19.5l-19.5 0Z" fill="rgb(231,185,141)" ecmeta_series_index="0" ecmeta_data_index="42" ecmeta_ssr_type="chart" class="zr14-cls-54"></path>
<path d="M200.3 140.3l19.5 0l0 19.5l-19.5 0Z" fill="rgb(204,99,96)" ecmeta_series_index="0" ecmeta_data_index="43" ecmeta_ssr_type="chart" class="zr14-cls-52"></path>
<path d="M200.3 160.3l19.5 0l0 19.5l-19.5 0Z" fill="rgb(204,99,96)" ecmeta_series_index="0" ecmeta_data_index="44" ecmeta_ssr_type="chart" class="zr14-cls-52"></path>
<path d="M200.3 180.3l19.5 0l0 19.5l-19.5 0Z" fill="rgb(231,185,141)" ecmeta_series_index="0" ecmeta_data_index="45" ecmeta_ssr_type="chart" class="zr14-cls-54"></path>
<path d="M200.3 200.3l19.5 0l0 19.5l-19.5 0Z" fill="rgb(204,99,96)" ecmeta_series_index="0" ecmeta_data_index="46" ecmeta_ssr_type="chart" class="zr14-cls-52"></path>
<path d="M200.3 220.3l19.5 0l0 19.5l-19.5 0Z" fill="rgb(191,68,76)" ecmeta_series_index="0" ecmeta_data_index="47" ecmeta_ssr_type="chart" class="zr14-cls-51"></path>
<path d="M200.3 240.3l19.5 0l0 19.5l-19.5 0Z" fill="rgb(246,239,166)" ecmeta_series_index="0" ecmeta_data_index="48" ecmeta_ssr_type="chart" class="zr14-cls-53"></path>
<path d="M220.3 120.3l19.5 0l0 19.5l-19.5 0Z" fill="rgb(246,239,166)" ecmeta_series_index="0" ecmeta_data_index="49" ecmeta_ssr_type="chart" class="zr14-cls-53"></path>
<path d="M220.3 140.3l19.5 0l0 19.5l-19.5 0Z" fill="rgb(191,68,76)" ecmeta_series_index="0" ecmeta_data_index="50" ecmeta_ssr_type="chart" class="zr14-cls-51"></path>
<path d="M220.3 160.3l19.5 0l0 19.5l-19.5 0Z" fill="rgb(246,239,166)" ecmeta_series_index="0" ecmeta_data_index="51" ecmeta_ssr_type="chart" class="zr14-cls-53"></path>
<path d="M220.3 180.3l19.5 0l0 19.5l-19.5 0Z" fill="rgb(191,68,76)" ecmeta_series_index="0" ecmeta_data_index="52" ecmeta_ssr_type="chart" class="zr14-cls-51"></path>
<path d="M220.3 200.3l19.5 0l0 19.5l-19.5 0Z" fill="rgb(246,239,166)" ecmeta_series_index="0" ecmeta_data_index="53" ecmeta_ssr_type="chart" class="zr14-cls-53"></path>
<path d="M220.3 220.3l19.5 0l0 19.5l-19.5 0Z" fill="rgb(246,239,166)" ecmeta_series_index="0" ecmeta_data_index="54" ecmeta_ssr_type="chart" class="zr14-cls-53"></path>
<path d="M220.3 240.3l19.5 0l0 19.5l-19.5 0Z" fill="rgb(231,185,141)" ecmeta_series_index="0" ecmeta_data_index="55" ecmeta_ssr_type="chart" class="zr14-cls-54"></path>
<path d="M240.3 120.3l19.5 0l0 19.5l-19.5 0Z" fill="rgb(216,130,115)" ecmeta_series_index="0" ecmeta_data_index="56" ecmeta_ssr_type="chart" class="zr14-cls-50"></path>
<path d="M240.3 140.3l19.5 0l0 19.5l-19.5 0Z" fill="rgb(191,68,76)" ecmeta_series_index="0" ecmeta_data_index="57" ecmeta_ssr_type="chart" class="zr14-cls-51"></path>
<path d="M240.3 160.3l19.5 0l0 19.5l-19.5 0Z" fill="rgb(191,68,76)" ecmeta_series_index="0" ecmeta_data_index="58" ecmeta_ssr_type="chart" class="zr14-cls-51"></path>
<path d="M240.3 180.3l19.5 0l0 19.5l-19.5 0Z" fill="rgb(191,68,76)" ecmeta_series_index="0" ecmeta_data_index="59" ecmeta_ssr_type="chart" class="zr14-cls-51"></path>
<path d="M240.3 200.3l19.5 0l0 19.5l-19.5 0Z" fill="rgb(231,185,141)" ecmeta_series_index="0" ecmeta_data_index="60" ecmeta_ssr_type="chart" class="zr14-cls-54"></path>
<path d="M240.3 220.3l19.5 0l0 19.5l-19.5 0Z" fill="rgb(231,185,141)" ecmeta_series_index="0" ecmeta_data_index="61" ecmeta_ssr_type="chart" class="zr14-cls-54"></path>
<path d="M240.3 240.3l19.5 0l0 19.5l-19.5 0Z" fill="rgb(191,68,76)" ecmeta_series_index="0" ecmeta_data_index="62" ecmeta_ssr_type="chart" class="zr14-cls-51"></path>
<path d="M260.3 120.3l19.5 0l0 19.5l-19.5 0Z" fill="rgb(216,130,115)" ecmeta_series_index="0" ecmeta_data_index="63" ecmeta_ssr_type="chart" class="zr14-cls-50"></path>
<path d="M260.3 140.3l19.5 0l0 19.5l-19.5 0Z" fill="rgb(204,99,96)" ecmeta_series_index="0" ecmeta_data_index="64" ecmeta_ssr_type="chart" class="zr14-cls-52"></path>
<path d="M260.3 160.3l19.5 0l0 19.5l-19.5 0Z" fill="rgb(231,185,141)" ecmeta_series_index="0" ecmeta_data_index="65" ecmeta_ssr_type="chart" class="zr14-cls-54"></path>
<path d="M260.3 180.3l19.5 0l0 19.5l-19.5 0Z" fill="rgb(204,99,96)" ecmeta_series_index="0" ecmeta_data_index="66" ecmeta_ssr_type="chart" class="zr14-cls-52"></path>
<path d="M260.3 200.3l19.5 0l0 19.5l-19.5 0Z" fill="rgb(231,185,141)" ecmeta_series_index="0" ecmeta_data_index="67" ecmeta_ssr_type="chart" class="zr14-cls-54"></path>
<path d="M260.3 220.3l19.5 0l0 19.5l-19.5 0Z" fill="rgb(216,130,115)" ecmeta_series_index="0" ecmeta_data_index="68" ecmeta_ssr_type="chart" class="zr14-cls-50"></path>
<path d="M260.3 240.3l19.5 0l0 19.5l-19.5 0Z" fill="rgb(231,185,141)" ecmeta_series_index="0" ecmeta_data_index="69" ecmeta_ssr_type="chart" class="zr14-cls-54"></path>
<path d="M280.3 120.3l19.5 0l0 19.5l-19.5 0Z" fill="rgb(204,99,96)" ecmeta_series_index="0" ecmeta_data_index="70" ecmeta_ssr_type="chart" class="zr14-cls-52"></path>
<path d="M280.3 140.3l19.5 0l0 19.5l-19.5 0Z" fill="rgb(204,99,96)" ecmeta_series_index="0" ecmeta_data_index="71" ecmeta_ssr_type="chart" class="zr14-cls-52"></path>
<path d="M280.3 160.3l19.5 0l0 19.5l-19.5 0Z" fill="rgb(216,130,115)" ecmeta_series_index="0" ecmeta_data_index="72" ecmeta_ssr_type="chart" class="zr14-cls-50"></path>
<path d="M280.3 180.3l19.5 0l0 19.5l-19.5 0Z" fill="rgb(204,99,96)" ecmeta_series_index="0" ecmeta_data_index="73" ecmeta_ssr_type="chart" class="zr14-cls-52"></path>
<path d="M280.3 200.3l19.5 0l0 19.5l-19.5 0Z" fill="rgb(204,99,96)" ecmeta_series_index="0" ecmeta_data_index="74" ecmeta_ssr_type="chart" class="zr14-cls-52"></path>
<path d="M280.3 220.3l19.5 0l0 19.5l-19.5 0Z" fill="rgb(204,99,96)" ecmeta_series_index="0" ecmeta_data_index="75" ecmeta_ssr_type="chart" class="zr14-cls-52"></path>
<path d="M280.3 240.3l19.5 0l0 19.5l-19.5 0Z" fill="rgb(191,68,76)" ecmeta_series_index="0" ecmeta_data_index="76" ecmeta_ssr_type="chart" class="zr14-cls-51"></path>
<path d="M300.3 120.3l19.5 0l0 19.5l-19.5 0Z" fill="rgb(231,185,141)" ecmeta_series_index="0" ecmeta_data_index="77" ecmeta_ssr_type="chart" class="zr14-cls-54"></path>
<path d="M300.3 140.3l19.5 0l0 19.5l-19.5 0Z" fill="rgb(191,68,76)" ecmeta_series_index="0" ecmeta_data_index="78" ecmeta_ssr_type="chart" class="zr14-cls-51"></path>
<path d="M300.3 160.3l19.5 0l0 19.5l-19.5 0Z" fill="rgb(191,68,76)" ecmeta_series_index="0" ecmeta_data_index="79" ecmeta_ssr_type="chart" class="zr14-cls-51"></path>
<path d="M300.3 180.3l19.5 0l0 19.5l-19.5 0Z" fill="rgb(246,239,166)" ecmeta_series_index="0" ecmeta_data_index="80" ecmeta_ssr_type="chart" class="zr14-cls-53"></path>
<path d="M300.3 200.3l19.5 0l0 19.5l-19.5 0Z" fill="rgb(191,68,76)" ecmeta_series_index="0" ecmeta_data_index="81" ecmeta_ssr_type="chart" class="zr14-cls-51"></path>
<path d="M300.3 220.3l19.5 0l0 19.5l-19.5 0Z" fill="rgb(191,68,76)" ecmeta_series_index="0" ecmeta_data_index="82" ecmeta_ssr_type="chart" class="zr14-cls-51"></path>
<path d="M300.3 240.3l19.5 0l0 19.5l-19.5 0Z" fill="rgb(231,185,141)" ecmeta_series_index="0" ecmeta_data_index="83" ecmeta_ssr_type="chart" class="zr14-cls-54"></path>
<path d="M320.3 120.3l19.5 0l0 19.5l-19.5 0Z" fill="rgb(231,185,141)" ecmeta_series_index="0" ecmeta_data_index="84" ecmeta_ssr_type="chart" class="zr14-cls-54"></path>
<path d="M320.3 140.3l19.5 0l0 19.5l-19.5 0Z" fill="rgb(191,68,76)" ecmeta_series_index="0" ecmeta_data_index="85" ecmeta_ssr_type="chart" class="zr14-cls-51"></path>
<path d="M320.3 160.3l19.5 0l0 19.5l-19.5 0Z" fill="rgb(246,239,166)" ecmeta_series_index="0" ecmeta_data_index="86" ecmeta_ssr_type="chart" class="zr14-cls-53"></path>
<path d="M320.3 180.3l19.5 0l0 19.5l-19.5 0Z" fill="rgb(231,185,141)" ecmeta_series_index="0" ecmeta_data_index="87" ecmeta_ssr_type="chart" class="zr14-cls-54"></path>
<path d="M320.3 200.3l19.5 0l0 19.5l-19.5 0Z" fill="rgb(204,99,96)" ecmeta_series_index="0" ecmeta_data_index="88" ecmeta_ssr_type="chart" class="zr14-cls-52"></path>
<path d="M320.3 220.3l19.5 0l0 19.5l-19.5 0Z" fill="rgb(191,68,76)" ecmeta_series_index="0" ecmeta_data_index="89" ecmeta_ssr_type="chart" class="zr14-cls-51"></path>
<path d="M320.3 240.3l19.5 0l0 19.5l-19.5 0Z" fill="rgb(191,68,76)" ecmeta_series_index="0" ecmeta_data_index="90" ecmeta_ssr_type="chart" class="zr14-cls-51"></path>
<path d="M340.3 120.3l19.5 0l0 19.5l-19.5 0Z" fill="rgb(216,130,115)" ecmeta_series_index="0" ecmeta_data_index="91" ecmeta_ssr_type="chart" class="zr14-cls-50"></path>
<path d="M340.3 140.3l19.5 0l0 19.5l-19.5 0Z" fill="rgb(191,68,76)" ecmeta_series_index="0" ecmeta_data_index="92" ecmeta_ssr_type="chart" class="zr14-cls-51"></path>
<path d="M340.3 160.3l19.5 0l0 19.5l-19.5 0Z" fill="rgb(231,185,141)" ecmeta_series_index="0" ecmeta_data_index="93" ecmeta_ssr_type="chart" class="zr14-cls-54"></path>
<path d="M340.3 180.3l19.5 0l0 19.5l-19.5 0Z" fill="rgb(216,130,115)" ecmeta_series_index="0" ecmeta_data_index="94" ecmeta_ssr_type="chart" class="zr14-cls-50"></path>
<path d="M340.3 200.3l19.5 0l0 19.5l-19.5 0Z" fill="rgb(216,130,115)" ecmeta_series_index="0" ecmeta_data_index="95" ecmeta_ssr_type="chart" class="zr14-cls-50"></path>
<path d="M340.3 220.3l19.5 0l0 19.5l-19.5 0Z" fill="rgb(204,99,96)" ecmeta_series_index="0" ecmeta_data_index="96" ecmeta_ssr_type="chart" class="zr14-cls-52"></path>
<path d="M340.3 240.3l19.5 0l0 19.5l-19.5 0Z" fill="rgb(246,239,166)" ecmeta_series_index="0" ecmeta_data_index="97" ecmeta_ssr_type="chart" class="zr14-cls-53"></path>
<path d="M360.3 120.3l19.5 0l0 19.5l-19.5 0Z" fill="rgb(191,68,76)" ecmeta_series_index="0" ecmeta_data_index="98" ecmeta_ssr_type="chart" class="zr14-cls-51"></path>
<path d="M360.3 140.3l19.5 0l0 19.5l-19.5 0Z" fill="rgb(191,68,76)" ecmeta_series_index="0" ecmeta_data_index="99" ecmeta_ssr_type="chart" class="zr14-cls-51"></path>
<path d="M360.3 160.3l19.5 0l0 19.5l-19.5 0Z" fill="rgb(246,239,166)" ecmeta_series_index="0" ecmeta_data_index="100" ecmeta_ssr_type="chart" class="zr14-cls-53"></path>
<path d="M360.3 180.3l19.5 0l0 19.5l-19.5 0Z" fill="rgb(191,68,76)" ecmeta_series_index="0" ecmeta_data_index="101" ecmeta_ssr_type="chart" class="zr14-cls-51"></path>
<path d="M360.3 200.3l19.5 0l0 19.5l-19.5 0Z" fill="rgb(246,239,166)" ecmeta_series_index="0" ecmeta_data_index="102" ecmeta_ssr_type="chart" class="zr14-cls-53"></path>
<path d="M360.3 220.3l19.5 0l0 19.5l-19.5 0Z" fill="rgb(216,130,115)" ecmeta_series_index="0" ecmeta_data_index="103" ecmeta_ssr_type="chart" class="zr14-cls-50"></path>
<path d="M360.3 240.3l19.5 0l0 19.5l-19.5 0Z" fill="rgb(204,99,96)" ecmeta_series_index="0" ecmeta_data_index="104" ecmeta_ssr_type="chart" class="zr14-cls-52"></path>
<path d="M380.3 120.3l19.5 0l0 19.5l-19.5 0Z" fill="rgb(246,239,166)" ecmeta_series_index="0" ecmeta_data_index="105" ecmeta_ssr_type="chart" class="zr14-cls-53"></path>
<path d="M380.3 140.3l19.5 0l0 19.5l-19.5 0Z" fill="rgb(204,99,96)" ecmeta_series_index="0" ecmeta_data_index="106" ecmeta_ssr_type="chart" class="zr14-cls-52"></path>
<path d="M380.3 160.3l19.5 0l0 19.5l-19.5 0Z" fill="rgb(231,185,141)" ecmeta_series_index="0" ecmeta_data_index="107" ecmeta_ssr_type="chart" class="zr14-cls-54"></path>
<path d="M380.3 180.3l19.5 0l0 19.5l-19.5 0Z" fill="rgb(231,185,141)" ecmeta_series_index="0" ecmeta_data_index="108" ecmeta_ssr_type="chart" class="zr14-cls-54"></path>
<path d="M380.3 200.3l19.5 0l0 19.5l-19.5 0Z" fill="rgb(246,239,166)" ecmeta_series_index="0" ecmeta_data_index="109" ecmeta_ssr_type="chart" class="zr14-cls-53"></path>
<path d="M380.3 220.3l19.5 0l0 19.5l-19.5 0Z" fill="rgb(204,99,96)" ecmeta_series_index="0" ecmeta_data_index="110" ecmeta_ssr_type="chart" class="zr14-cls-52"></path>
<path d="M380.3 240.3l19.5 0l0 19.5l-19.5 0Z" fill="rgb(204,99,96)" ecmeta_series_index="0" ecmeta_data_index="111" ecmeta_ssr_type="chart" class="zr14-cls-52"></path>
<path d="M400.3 120.3l19.5 0l0 19.5l-19.5 0Z" fill="rgb(216,130,115)" ecmeta_series_index="0" ecmeta_data_index="112" ecmeta_ssr_type="chart" class="zr14-cls-50"></path>
<path d="M400.3 140.3l19.5 0l0 19.5l-19.5 0Z" fill="rgb(204,99,96)" ecmeta_series_index="0" ecmeta_data_index="113" ecmeta_ssr_type="chart" class="zr14-cls-52"></path>
<path d="M400.3 160.3l19.5 0l0 19.5l-19.5 0Z" fill="rgb(216,130,115)" ecmeta_series_index="0" ecmeta_data_index="114" ecmeta_ssr_type="chart" class="zr14-cls-50"></path>
<path d="M400.3 180.3l19.5 0l0 19.5l-19.5 0Z" fill="rgb(204,99,96)" ecmeta_series_index="0" ecmeta_data_index="115" ecmeta_ssr_type="chart" class="zr14-cls-52"></path>
<path d="M400.3 200.3l19.5 0l0 19.5l-19.5 0Z" fill="rgb(231,185,141)" ecmeta_series_index="0" ecmeta_data_index="116" ecmeta_ssr_type="chart" class="zr14-cls-54"></path>
<path d="M400.3 220.3l19.5 0l0 19.5l-19.5 0Z" fill="rgb(231,185,141)" ecmeta_series_index="0" ecmeta_data_index="117" ecmeta_ssr_type="chart" class="zr14-cls-54"></path>
<path d="M400.3 240.3l19.5 0l0 19.5l-19.5 0Z" fill="rgb(204,99,96)" ecmeta_series_index="0" ecmeta_data_index="118" ecmeta_ssr_type="chart" class="zr14-cls-52"></path>
<path d="M420.3 120.3l19.5 0l0 19.5l-19.5 0Z" fill="rgb(246,239,166)" ecmeta_series_index="0" ecmeta_data_index="119" ecmeta_ssr_type="chart" class="zr14-cls-53"></path>
<path d="M420.3 140.3l19.5 0l0 19.5l-19.5 0Z" fill="rgb(191,68,76)" ecmeta_series_index="0" ecmeta_data_index="120" ecmeta_ssr_type="chart" class="zr14-cls-51"></path>
<path d="M420.3 160.3l19.5 0l0 19.5l-19.5 0Z" fill="rgb(204,99,96)" ecmeta_series_index="0" ecmeta_data_index="121" ecmeta_ssr_type="chart" class="zr14-cls-52"></path>
<path d="M420.3 180.3l19.5 0l0 19.5l-19.5 0Z" fill="rgb(191,68,76)" ecmeta_series_index="0" ecmeta_data_index="122" ecmeta_ssr_type="chart" class="zr14-cls-51"></path>
<path d="M420.3 200.3l19.5 0l0 19.5l-19.5 0Z" fill="rgb(246,239,166)" ecmeta_series_index="0" ecmeta_data_index="123" ecmeta_ssr_type="chart" class="zr14-cls-53"></path>
<path d="M420.3 220.3l19.5 0l0 19.5l-19.5 0Z" fill="rgb(204,99,96)" ecmeta_series_index="0" ecmeta_data_index="124" ecmeta_ssr_type="chart" class="zr14-cls-52"></path>
<path d="M420.3 240.3l19.5 0l0 19.5l-19.5 0Z" fill="rgb(216,130,115)" ecmeta_series_index="0" ecmeta_data_index="125" ecmeta_ssr_type="chart" class="zr14-cls-50"></path>
<path d="M440.3 120.3l19.5 0l0 19.5l-19.5 0Z" fill="rgb(216,130,115)" ecmeta_series_index="0" ecmeta_data_index="126" ecmeta_ssr_type="chart" class="zr14-cls-50"></path>
<path d="M440.3 140.3l19.5 0l0 19.5l-19.5 0Z" fill="rgb(216,130,115)" ecmeta_series_index="0" ecmeta_data_index="127" ecmeta_ssr_type="chart" class="zr14-cls-50"></path>
<path d="M440.3 160.3l19.5 0l0 19.5l-19.5 0Z" fill="rgb(231,185,141)" ecmeta_series_index="0" ecmeta_data_index="128" ecmeta_ssr_type="chart" class="zr14-cls-54"></path>
<path d="M440.3 180.3l19.5 0l0 19.5l-19.5 0Z" fill="rgb(246,239,166)" ecmeta_series_index="0" ecmeta_data_index="129" ecmeta_ssr_type="chart" class="zr14-cls-53"></path>
<path d="M440.3 200.3l19.5 0l0 19.5l-19.5 0Z" fill="rgb(204,99,96)" ecmeta_series_index="0" ecmeta_data_index="130" ecmeta_ssr_type="chart" class="zr14-cls-52"></path>
<path d="M440.3 220.3l19.5 0l0 19.5l-19.5 0Z" fill="rgb(246,239,166)" ecmeta_series_index="0" ecmeta_data_index="131" ecmeta_ssr_type="chart" class="zr14-cls-53"></path>
<path d="M440.3 240.3l19.5 0l0 19.5l-19.5 0Z" fill="rgb(246,239,166)" ecmeta_series_index="0" ecmeta_data_index="132" ecmeta_ssr_type="chart" class="zr14-cls-53"></path>
<path d="M460.3 120.3l19.5 0l0 19.5l-19.5 0Z" fill="rgb(231,185,141)" ecmeta_series_index="0" ecmeta_data_index="133" ecmeta_ssr_type="chart" class="zr14-cls-54"></path>
<path d="M460.3 140.3l19.5 0l0 19.5l-19.5 0Z" fill="rgb(204,99,96)" ecmeta_series_index="0" ecmeta_data_index="134" ecmeta_ssr_type="chart" class="zr14-cls-52"></path>
<path d="M460.3 160.3l19.5 0l0 19.5l-19.5 0Z" fill="rgb(216,130,115)" ecmeta_series_index="0" ecmeta_data_index="135" ecmeta_ssr_type="chart" class="zr14-cls-50"></path>
<path d="M460.3 180.3l19.5 0l0 19.5l-19.5 0Z" fill="rgb(216,130,115)" ecmeta_series_index="0" ecmeta_data_index="136" ecmeta_ssr_type="chart" class="zr14-cls-50"></path>
<path d="M460.3 200.3l19.5 0l0 19.5l-19.5 0Z" fill="rgb(191,68,76)" ecmeta_series_index="0" ecmeta_data_index="137" ecmeta_ssr_type="chart" class="zr14-cls-51"></path>
<path d="M460.3 220.3l19.5 0l0 19.5l-19.5 0Z" fill="rgb(204,99,96)" ecmeta_series_index="0" ecmeta_data_index="138" ecmeta_ssr_type="chart" class="zr14-cls-52"></path>
<path d="M460.3 240.3l19.5 0l0 19.5l-19.5 0Z" fill="rgb(231,185,141)" ecmeta_series_index="0" ecmeta_data_index="139" ecmeta_ssr_type="chart" class="zr14-cls-54"></path>
<path d="M480.3 120.3l19.5 0l0 19.5l-19.5 0Z" fill="rgb(204,99,96)" ecmeta_series_index="0" ecmeta_data_index="140" ecmeta_ssr_type="chart" class="zr14-cls-52"></path>
<path d="M480.3 140.3l19.5 0l0 19.5l-19.5 0Z" fill="rgb(231,185,141)" ecmeta_series_index="0" ecmeta_data_index="141" ecmeta_ssr_type="chart" class="zr14-cls-54"></path>
<path d="M480.3 160.3l19.5 0l0 19.5l-19.5 0Z" fill="rgb(216,130,115)" ecmeta_series_index="0" ecmeta_data_index="142" ecmeta_ssr_type="chart" class="zr14-cls-50"></path>
<path d="M480.3 180.3l19.5 0l0 19.5l-19.5 0Z" fill="rgb(204,99,96)" ecmeta_series_index="0" ecmeta_data_index="143" ecmeta_ssr_type="chart" class="zr14-cls-52"></path>
<path d="M480.3 200.3l19.5 0l0 19.5l-19.5 0Z" fill="rgb(204,99,96)" ecmeta_series_index="0" ecmeta_data_index="144" ecmeta_ssr_type="chart" class="zr14-cls-52"></path>
<path d="M480.3 220.3l19.5 0l0 19.5l-19.5 0Z" fill="rgb(204,99,96)" ecmeta_series_index="0" ecmeta_data_index="145" ecmeta_ssr_type="chart" class="zr14-cls-52"></path>
<path d="M480.3 240.3l19.5 0l0 19.5l-19.5 0Z" fill="rgb(204,99,96)" ecmeta_series_index="0" ecmeta_data_index="146" ecmeta_ssr_type="chart" class="zr14-cls-52"></path>
<path d="M500.3 120.3l19.5 0l0 19.5l-19.5 0Z" fill="rgb(231,185,141)" ecmeta_series_index="0" ecmeta_data_index="147" ecmeta_ssr_type="chart" class="zr14-cls-54"></path>
<path d="M500.3 140.3l19.5 0l0 19.5l-19.5 0Z" fill="rgb(204,99,96)" ecmeta_series_index="0" ecmeta_data_index="148" ecmeta_ssr_type="chart" class="zr14-cls-52"></path>
<path d="M500.3 160.3l19.5 0l0 19.5l-19.5 0Z" fill="rgb(246,239,166)" ecmeta_series_index="0" ecmeta_data_index="149" ecmeta_ssr_type="chart" class="zr14-cls-53"></path>
<path d="M500.3 180.3l19.5 0l0 19.5l-19.5 0Z" fill="rgb(246,239,166)" ecmeta_series_index="0" ecmeta_data_index="150" ecmeta_ssr_type="chart" class="zr14-cls-53"></path>
<polyline points="80 120 80 140 80 140 80 160 80 160 80 180 80 180 80 200 80 200 80 220 80 220 80 240 80 240 80 260" fill="transparent" stroke="#000" class="zr14-cls-55"></polyline>
<polyline points="180 120 180 140 180 140 180 160 180 160 180 180 160 180 160 200 160 200 160 220 160 220 160 240 160 240 160 260" fill="transparent" stroke="#000" class="zr14-cls-55"></polyline>
<polyline points="260 120 260 140 260 140 260 160 260 160 260 180 240 180 240 200 240 200 240 220 240 220 240 240 240 240 240 260" fill="transparent" stroke="#000" class="zr14-cls-55"></polyline>
<polyline points="340 120 340 140 340 140 340 160 340 160 340 180 340 180 340 200 340 200 340 220 340 220 340 240 320 240 320 260" fill="transparent" stroke="#000" class="zr14-cls-55"></polyline>
<polyline points="440 120 440 140 420 140 420 160 420 160 420 180 420 180 420 200 420 200 420 220 420 220 420 240 420 240 420 260" fill="transparent" stroke="#000" class="zr14-cls-55"></polyline>
<polyline points="520 120 520 140 520 140 520 160 520 160 520 180 520 180 520 200 500 200 500 220 500 220 500 240 500 240 500 260" fill="transparent" stroke="#000" class="zr14-cls-55"></polyline>
<polyline points="79.5 120 520.5 120" fill="transparent" stroke="#000" class="zr14-cls-55"></polyline>
<polyline points="79.5 260 500.5 260" fill="transparent" stroke="#000" class="zr14-cls-55"></polyline>
<text dominant-baseline="central" text-anchor="middle" style="font-size:20px;font-family:sans-serif;font-weight:bolder;" y="-10" transform="matrix(0,-1,1,0,50,190)" fill="#ccc">2017</text>
<text dominant-baseline="central" text-anchor="middle" style="font-size:12px;font-family:sans-serif;" x="130" y="109" fill="#000">Jan</text>
<text dominant-baseline="central" text-anchor="middle" style="font-size:12px;font-family:sans-serif;" x="210" y="109" fill="#000">Feb</text>
<text dominant-baseline="central" text-anchor="middle" style="font-size:12px;font-family:sans-serif;" x="290" y="109" fill="#000">Mar</text>
<text dominant-baseline="central" text-anchor="middle" style="font-size:12px;font-family:sans-serif;" x="380" y="109" fill="#000">Apr</text>
<text dominant-baseline="central" text-anchor="middle" style="font-size:12px;font-family:sans-serif;" x="470" y="109" fill="#000">May</text>
<text dominant-baseline="central" text-anchor="end" style="font-size:12px;font-family:sans-serif;" x="70" y="130" fill="#000">S</text>
<text dominant-baseline="central" text-anchor="end" style="font-size:12px;font-family:sans-serif;" x="70" y="150" fill="#000">M</text>
<text dominant-baseline="central" text-anchor="end" style="font-size:12px;font-family:sans-serif;" x="70" y="170" fill="#000">T</text>
<text dominant-baseline="central" text-anchor="end" style="font-size:12px;font-family:sans-serif;" x="70" y="190" fill="#000">W</text>
<text dominant-baseline="central" text-anchor="end" style="font-size:12px;font-family:sans-serif;" x="70" y="210" fill="#000">T</text>
<text dominant-baseline="central" text-anchor="end" style="font-size:12px;font-family:sans-serif;" x="70" y="230" fill="#000">F</text>
<text dominant-baseline="central" text-anchor="end" style="font-size:12px;font-family:sans-serif;" x="70" y="250" fill="#000">S</text>
<path d="M-5 -5l508.8 0l0 24l-508.8 0Z" transform="translate(50.62 70)" fill="rgb(0,0,0)" fill-opacity="0" stroke="#ccc" stroke-width="0" class="zr14-cls-56"></path>
<path d="M3.5 0L16.5 0A3.5 3.5 0 0 1 20 3.5L20 10.5A3.5 3.5 0 0 1 16.5 14L3.5 14A3.5 3.5 0 0 1 0 10.5L0 3.5A3.5 3.5 0 0 1 3.5 0" transform="translate(50.62 70)" fill="rgb(246,239,166)" class="zr14-cls-53"></path>
<text dominant-baseline="central" text-anchor="start" style="font: normal normal 12px sans-serif" xml:space="preserve" x="30" y="7" transform="translate(50.62 70)" fill="#333">0 - 2000</text>
<path d="M3.5 0L16.5 0A3.5 3.5 0 0 1 20 3.5L20 10.5A3.5 3.5 0 0 1 16.5 14L3.5 14A3.5 3.5 0 0 1 0 10.5L0 3.5A3.5 3.5 0 0 1 3.5 0" transform="translate(134.9 70)" fill="rgb(231,185,141)" class="zr14-cls-54"></path>
<text dominant-baseline="central" text-anchor="start" style="font: normal normal 12px sans-serif" xml:space="preserve" x="30" y="7" transform="translate(134.9 70)" fill="#333">2000 - 4000</text>
<path d="M3.5 0L16.5 0A3.5 3.5 0 0 1 20 3.5L20 10.5A3.5 3.5 0 0 1 16.5 14L3.5 14A3.5 3.5 0 0 1 0 10.5L0 3.5A3.5 3.5 0 0 1 3.5 0" transform="translate(239.34 70)" fill="rgb(216,130,115)" class="zr14-cls-50"></path>
<text dominant-baseline="central" text-anchor="start" style="font: normal normal 12px sans-serif" xml:space="preserve" x="30" y="7" transform="translate(239.34 70)" fill="#333">4000 - 6000</text>
<path d="M3.5 0L16.5 0A3.5 3.5 0 0 1 20 3.5L20 10.5A3.5 3.5 0 0 1 16.5 14L3.5 14A3.5 3.5 0 0 1 0 10.5L0 3.5A3.5 3.5 0 0 1 3.5 0" transform="translate(343.78 70)" fill="rgb(204,99,96)" class="zr14-cls-52"></path>
<text dominant-baseline="central" text-anchor="start" style="font: normal normal 12px sans-serif" xml:space="preserve" x="30" y="7" transform="translate(343.78 70)" fill="#333">6000 - 8000</text>
<path d="M3.5 0L16.5 0A3.5 3.5 0 0 1 20 3.5L20 10.5A3.5 3.5 0 0 1 16.5 14L3.5 14A3.5 3.5 0 0 1 0 10.5L0 3.5A3.5 3.5 0 0 1 3.5 0" transform="translate(448.22 70)" fill="rgb(191,68,76)" class="zr14-cls-51"></path>
<text dominant-baseline="central" text-anchor="start" style="font: normal normal 12px sans-serif" xml:space="preserve" x="30" y="7" transform="translate(448.22 70)" fill="#333">8000 - 10000</text>
<path d="M-72.8 -5l145.5 0l0 28l-145.5 0Z" transform="translate(300 35)" fill="rgb(0,0,0)" fill-opacity="0" stroke="#ccc" stroke-width="0" class="zr14-cls-56"></path>
<text dominant-baseline="central" text-anchor="middle" style="font-size:18px;font-family:sans-serif;font-weight:bold;" xml:space="preserve" y="9" transform="translate(300 35)" fill="#464646">Daily Step Count</text>
<style ><![CDATA[
.zr14-cls-49:hover {
cursor:pointer;
fill:rgba(255,255,255,1);
}
.zr14-cls-50:hover {
cursor:pointer;
fill:rgba(237,143,126,1);
}
.zr14-cls-51:hover {
cursor:pointer;
fill:rgba(210,74,83,1);
}
.zr14-cls-52:hover {
cursor:pointer;
fill:rgba(224,108,105,1);
}
.zr14-cls-53:hover {
cursor:pointer;
fill:rgba(255,255,182,1);
}
.zr14-cls-54:hover {
cursor:pointer;
fill:rgba(254,203,155,1);
}
.zr14-cls-55:hover {
cursor:pointer;
}
.zr14-cls-56:hover {
pointer-events:none;
}

]]>

</style>
</svg>