<svg width="600" height="450" xmlns="http://www.w3.org/2000/svg" xmlns:xlink="http://www.w3.org/1999/xlink" version="1.1" baseProfile="full" viewBox="0 0 600 450">
<rect width="600" height="450" x="0" y="0" fill="none"></rect>
<path d="M80 60l20 0l0 20l-20 0Z" fill="#fff" stroke="#ccc" class="zr15-cls-57"></path>
<path d="M80 80l20 0l0 20l-20 0Z" fill="#fff" stroke="#ccc" class="zr15-cls-57"></path>
<path d="M80 100l20 0l0 20l-20 0Z" fill="#fff" stroke="#ccc" class="zr15-cls-57"></path>
<path d="M80 120l20 0l0 20l-20 0Z" fill="#fff" stroke="#ccc" class="zr15-cls-57"></path>
<path d="M80 140l20 0l0 20l-20 0Z" fill="#fff" stroke="#ccc" class="zr15-cls-57"></path>
<path d="M80 160l20 0l0 20l-20 0Z" fill="#fff" stroke="#ccc" class="zr15-cls-57"></path>
<path d="M80 180l20 0l0 20l-20 0Z" fill="#fff" stroke="#ccc" class="zr15-cls-57"></path>
<path d="M100 60l20 0l0 20l-20 0Z" fill="#fff" stroke="#ccc" class="zr15-cls-57"></path>
<path d="M100 80l20 0l0 20l-20 0Z" fill="#fff" stroke="#ccc" class="zr15-cls-57"></path>
<path d="M100 100l20 0l0 20l-20 0Z" fill="#fff" stroke="#ccc" class="zr15-cls-57"></path>
<path d="M100 120l20 0l0 20l-20 0Z" fill="#fff" stroke="#ccc" class="zr15-cls-57"></path>
<path d="M100 140l20 0l0 20l-20 0Z" fill="#fff" stroke="#ccc" class="zr15-cls-57"></path>
<path d="M100 160l20 0l0 20l-20 0Z" fill="#fff" stroke="#ccc" class="zr15-cls-57"></path>
<path d="M100 180l20 0l0 20l-20 0Z" fill="#fff" stroke="#ccc" class="zr15-cls-57"></path>
<path d="M120 60l20 0l0 20l-20 0Z" fill="#fff" stroke="#ccc" class="zr15-cls-57"></path>
<path d="M120 80l20 0l0 20l-20 0Z" fill="#fff" stroke="#ccc" class="zr15-cls-57"></path>
<path d="M120 100l20 0l0 20l-20 0Z" fill="#fff" stroke="#ccc" class="zr15-cls-57"></path>
<path d="M120 120l20 0l0 20l-20 0Z" fill="#fff" stroke="#ccc" class="zr15-cls-57"></path>
<path d="M120 140l20 0l0 20l-20 0Z" fill="#fff" stroke="#ccc" class="zr15-cls-57"></path>
<path d="M120 160l20 0l0 20l-20 0Z" fill="#fff" stroke="#ccc" class="zr15-cls-57"></path>
<path d="M120 180l20 0l0 20l-20 0Z" fill="#fff" stroke="#ccc" class="zr15-cls-57"></path>
<path d="M140 60l20 0l0 20l-20 0Z" fill="#fff" stroke="#ccc" class="zr15-cls-57"></path>
<path d="M140 80l20 0l0 20l-20 0Z" fill="#fff" stroke="#ccc" class="zr15-cls-57"></path>
<path d="M140 100l20 0l0 20l-20 0Z" fill="#fff" stroke="#ccc" class="zr15-cls-57"></path>
<path d="M140 120l20 0l0 20l-20 0Z" fill="#fff" stroke="#ccc" class="zr15-cls-57"></path>
<path d="M140 140l20 0l0 20l-20 0Z" fill="#fff" stroke="#ccc" class="zr15-cls-57"></path>
<path d="M140 160l20 0l0 20l-20 0Z" fill="#fff" stroke="#ccc" class="zr15-cls-57"></path>
<path d="M140 180l20 0l0 20l-20 0Z" fill="#fff" stroke="#ccc" class="zr15-cls-57"></path>
<path d="M160 60l20 0l0 20l-20 0Z" fill="#fff" stroke="#ccc" class="zr15-cls-57"></path>
<path d="M160 80l20 0l0 20l-20 0Z" fill="#fff" stroke="#ccc" class="zr15-cls-57"></path>
<path d="M160 100l20 0l0 20l-20 0Z" fill="#fff" stroke="#ccc" class="zr15-cls-57"></path>
<path d="M160 120l20 0l0 20l-20 0Z" fill="#fff" stroke="#ccc" class="zr15-cls-57"></path>
<path d="M160 140l20 0l0 20l-20 0Z" fill="#fff" stroke="#ccc" class="zr15-cls-57"></path>
<path d="M160 160l20 0l0 20l-20 0Z" fill="#fff" stroke="#ccc" class="zr15-cls-57"></path>
<path d="M160 180l20 0l0 20l-20 0Z" fill="#fff" stroke="#ccc" class="zr15-cls-57"></path>
<path d="M180 60l20 0l0 20l-20 0Z" fill="#fff" stroke="#ccc" class="zr15-cls-57"></path>
<path d="M180 80l20 0l0 20l-20 0Z" fill="#fff" stroke="#ccc" class="zr15-cls-57"></path>
<path d="M180 100l20 0l0 20l-20 0Z" fill="#fff" stroke="#ccc" class="zr15-cls-57"></path>
<path d="M180 120l20 0l0 20l-20 0Z" fill="#fff" stroke="#ccc" class="zr15-cls-57"></path>
<path d="M180 140l20 0l0 20l-20 0Z" fill="#fff" stroke="#ccc" class="zr15-cls-57"></path>
<path d="M180 160l20 0l0 20l-20 0Z" fill="#fff" stroke="#ccc" class="zr15-cls-57"></path>
<path d="M180 180l20 0l0 20l-20 0Z" fill="#fff" stroke="#ccc" class="zr15-cls-57"></path>
<path d="M200 60l20 0l0 20l-20 0Z" fill="#fff" stroke="#ccc" class="zr15-cls-57"></path>
<path d="M200 80l20 0l0 20l-20 0Z" fill="#fff" stroke="#ccc" class="zr15-cls-57"></path>
<path d="M200 100l20 0l0 20l-20 0Z" fill="#fff" stroke="#ccc" class="zr15-cls-57"></path>
<path d="M200 120l20 0l0 20l-20 0Z" fill="#fff" stroke="#ccc" class="zr15-cls-57"></path>
<path d="M200 140l20 0l0 20l-20 0Z" fill="#fff" stroke="#ccc" class="zr15-cls-57"></path>
<path d="M200 160l20 0l0 20l-20 0Z" fill="#fff" stroke="#ccc" class="zr15-cls-57"></path>
<path d="M200 180l20 0l0 20l-20 0Z" fill="#fff" stroke="#ccc" class="zr15-cls-57"></path>
<path d="M220 60l20 0l0 20l-20 0Z" fill="#fff" stroke="#ccc" class="zr15-cls-57"></path>
<path d="M220 80l20 0l0 20l-20 0Z" fill="#fff" stroke="#ccc" class="zr15-cls-57"></path>
<path d="M220 100l20 0l0 20l-20 0Z" fill="#fff" stroke="#ccc" class="zr15-cls-57"></path>
<path d="M220 120l20 0l0 20l-20 0Z" fill="#fff" stroke="#ccc" class="zr15-cls-57"></path>
<path d="M220 140l20 0l0 20l-20 0Z" fill="#fff" stroke="#ccc" class="zr15-cls-57"></path>
<path d="M220 160l20 0l0 20l-20 0Z" fill="#fff" stroke="#ccc" class="zr15-cls-57"></path>
<path d="M220 180l20 0l0 20l-20 0Z" fill="#fff" stroke="#ccc" class="zr15-cls-57"></path>
<path d="M240 60l20 0l0 20l-20 0Z" fill="#fff" stroke="#ccc" class="zr15-cls-57"></path>
<path d="M240 80l20 0l0 20l-20 0Z" fill="#fff" stroke="#ccc" class="zr15-cls-57"></path>
<path d="M240 100l20 0l0 20l-20 0Z" fill="#fff" stroke="#ccc" class="zr15-cls-57"></path>
<path d="M240 120l20 0l0 20l-20 0Z" fill="#fff" stroke="#ccc" class="zr15-cls-57"></path>
<path d="M240 140l20 0l0 20l-20 0Z" fill="#fff" stroke="#ccc" class="zr15-cls-57"></path>
<path d="M240 160l20 0l0 20l-20 0Z" fill="#fff" stroke="#ccc" class="zr15-cls-57"></path>
<path d="M240 180l20 0l0 20l-20 0Z" fill="#fff" stroke="#ccc" class="zr15-cls-57"></path>
<path d="M260 60l20 0l0 20l-20 0Z" fill="#fff" stroke="#ccc" class="zr15-cls-57"></path>
<path d="M260 80l20 0l0 20l-20 0Z" fill="#fff" stroke="#ccc" class="zr15-cls-57"></path>
<path d="M260 100l20 0l0 20l-20 0Z" fill="#fff" stroke="#ccc" class="zr15-cls-57"></path>
<path d="M260 120l20 0l0 20l-20 0Z" fill="#fff" stroke="#ccc" class="zr15-cls-57"></path>
<path d="M260 140l20 0l0 20l-20 0Z" fill="#fff" stroke="#ccc" class="zr15-cls-57"></path>
<path d="M260 160l20 0l0 20l-20 0Z" fill="#fff" stroke="#ccc" class="zr15-cls-57"></path>
<path d="M260 180l20 0l0 20l-20 0Z" fill="#fff" stroke="#ccc" class="zr15-cls-57"></path>
<path d="M280 60l20 0l0 20l-20 0Z" fill="#fff" stroke="#ccc" class="zr15-cls-57"></path>
<path d="M280 80l20 0l0 20l-20 0Z" fill="#fff" stroke="#ccc" class="zr15-cls-57"></path>
<path d="M280 100l20 0l0 20l-20 0Z" fill="#fff" stroke="#ccc" class="zr15-cls-57"></path>
<path d="M280 120l20 0l0 20l-20 0Z" fill="#fff" stroke="#ccc" class="zr15-cls-57"></path>
<path d="M280 140l20 0l0 20l-20 0Z" fill="#fff" stroke="#ccc" class="zr15-cls-57"></path>
<path d="M280 160l20 0l0 20l-20 0Z" fill="#fff" stroke="#ccc" class="zr15-cls-57"></path>
<path d="M280 180l20 0l0 20l-20 0Z" fill="#fff" stroke="#ccc" class="zr15-cls-57"></path>
<path d="M300 60l20 0l0 20l-20 0Z" fill="#fff" stroke="#ccc" class="zr15-cls-57"></path>
<path d="M300 80l20 0l0 20l-20 0Z" fill="#fff" stroke="#ccc" class="zr15-cls-57"></path>
<path d="M300 100l20 0l0 20l-20 0Z" fill="#fff" stroke="#ccc" class="zr15-cls-57"></path>
<path d="M300 120l20 0l0 20l-20 0Z" fill="#fff" stroke="#ccc" class="zr15-cls-57"></path>
<path d="M300 140l20 0l0 20l-20 0Z" fill="#fff" stroke="#ccc" class="zr15-cls-57"></path>
<path d="M300 160l20 0l0 20l-20 0Z" fill="#fff" stroke="#ccc" class="zr15-cls-57"></path>
<path d="M300 180l20 0l0 20l-20 0Z" fill="#fff" stroke="#ccc" class="zr15-cls-57"></path>
<path d="M320 60l20 0l0 20l-20 0Z" fill="#fff" stroke="#ccc" class="zr15-cls-57"></path>
<path d="M320 80l20 0l0 20l-20 0Z" fill="#fff" stroke="#ccc" class="zr15-cls-57"></path>
<path d="M320 100l20 0l0 20l-20 0Z" fill="#fff" stroke="#ccc" class="zr15-cls-57"></path>
<path d="M320 120l20 0l0 20l-20 0Z" fill="#fff" stroke="#ccc" class="zr15-cls-57"></path>
<path d="M320 140l20 0l0 20l-20 0Z" fill="#fff" stroke="#ccc" class="zr15-cls-57"></path>
<path d="M320 160l20 0l0 20l-20 0Z" fill="#fff" stroke="#ccc" class="zr15-cls-57"></path>
<path d="M320 180l20 0l0 20l-20 0Z" fill="#fff" stroke="#ccc" class="zr15-cls-57"></path>
<path d="M340 60l20 0l0 20l-20 0Z" fill="#fff" stroke="#ccc" class="zr15-cls-57"></path>
<path d="M340 80l20 0l0 20l-20 0Z" fill="#fff" stroke="#ccc" class="zr15-cls-57"></path>
<path d="M340 100l20 0l0 20l-20 0Z" fill="#fff" stroke="#ccc" class="zr15-cls-57"></path>
<path d="M340 120l20 0l0 20l-20 0Z" fill="#fff" stroke="#ccc" class="zr15-cls-57"></path>
<path d="M340 140l20 0l0 20l-20 0Z" fill="#fff" stroke="#ccc" class="zr15-cls-57"></path>
<path d="M340 160l20 0l0 20l-20 0Z" fill="#fff" stroke="#ccc" class="zr15-cls-57"></path>
<path d="M340 180l20 0l0 20l-20 0Z" fill="#fff" stroke="#ccc" class="zr15-cls-57"></path>
<path d="M360 60l20 0l0 20l-20 0Z" fill="#fff" stroke="#ccc" class="zr15-cls-57"></path>
<path d="M360 80l20 0l0 20l-20 0Z" fill="#fff" stroke="#ccc" class="zr15-cls-57"></path>
<path d="M360 100l20 0l0 20l-20 0Z" fill="#fff" stroke="#ccc" class="zr15-cls-57"></path>
<path d="M360 120l20 0l0 20l-20 0Z" fill="#fff" stroke="#ccc" class="zr15-cls-57"></path>
<path d="M360 140l20 0l0 20l-20 0Z" fill="#fff" stroke="#ccc" class="zr15-cls-57"></path>
<path d="M360 160l20 0l0 20l-20 0Z" fill="#fff" stroke="#ccc" class="zr15-cls-57"></path>
<path d="M360 180l20 0l0 20l-20 0Z" fill="#fff" stroke="#ccc" class="zr15-cls-57"></path>
<path d="M380 60l20 0l0 20l-20 0Z" fill="#fff" stroke="#ccc" class="zr15-cls-57"></path>
<path d="M380 80l20 0l0 20l-20 0Z" fill="#fff" stroke="#ccc" class="zr15-cls-57"></path>
<path d="M380 100l20 0l0 20l-20 0Z" fill="#fff" stroke="#ccc" class="zr15-cls-57"></path>
<path d="M380 120l20 0l0 20l-20 0Z" fill="#fff" stroke="#ccc" class="zr15-cls-57"></path>
<path d="M380 140l20 0l0 20l-20 0Z" fill="#fff" stroke="#ccc" class="zr15-cls-57"></path>
<path d="M380 160l20 0l0 20l-20 0Z" fill="#fff" stroke="#ccc" class="zr15-cls-57"></path>
<path d="M380 180l20 0l0 20l-20 0Z" fill="#fff" stroke="#ccc" class="zr15-cls-57"></path>
<path d="M400 60l20 0l0 20l-20 0Z" fill="#fff" stroke="#ccc" class="zr15-cls-57"></path>
<path d="M400 80l20 0l0 20l-20 0Z" fill="#fff" stroke="#ccc" class="zr15-cls-57"></path>
<path d="M400 100l20 0l0 20l-20 0Z" fill="#fff" stroke="#ccc" class="zr15-cls-57"></path>
<path d="M400 120l20 0l0 20l-20 0Z" fill="#fff" stroke="#ccc" class="zr15-cls-57"></path>
<path d="M400 140l20 0l0 20l-20 0Z" fill="#fff" stroke="#ccc" class="zr15-cls-57"></path>
<path d="M400 160l20 0l0 20l-20 0Z" fill="#fff" stroke="#ccc" class="zr15-cls-57"></path>
<path d="M400 180l20 0l0 20l-20 0Z" fill="#fff" stroke="#ccc" class="zr15-cls-57"></path>
<path d="M420 60l20 0l0 20l-20 0Z" fill="#fff" stroke="#ccc" class="zr15-cls-57"></path>
<path d="M420 80l20 0l0 20l-20 0Z" fill="#fff" stroke="#ccc" class="zr15-cls-57"></path>
<path d="M420 100l20 0l0 20l-20 0Z" fill="#fff" stroke="#ccc" class="zr15-cls-57"></path>
<path d="M420 120l20 0l0 20l-20 0Z" fill="#fff" stroke="#ccc" class="zr15-cls-57"></path>
<path d="M420 140l20 0l0 20l-20 0Z" fill="#fff" stroke="#ccc" class="zr15-cls-57"></path>
<path d="M420 160l20 0l0 20l-20 0Z" fill="#fff" stroke="#ccc" class="zr15-cls-57"></path>
<path d="M420 180l20 0l0 20l-20 0Z" fill="#fff" stroke="#ccc" class="zr15-cls-57"></path>
<path d="M440 60l20 0l0 20l-20 0Z" fill="#fff" stroke="#ccc" class="zr15-cls-57"></path>
<path d="M440 80l20 0l0 20l-20 0Z" fill="#fff" stroke="#ccc" class="zr15-cls-57"></path>
<path d="M440 100l20 0l0 20l-20 0Z" fill="#fff" stroke="#ccc" class="zr15-cls-57"></path>
<path d="M440 120l20 0l0 20l-20 0Z" fill="#fff" stroke="#ccc" class="zr15-cls-57"></path>
<path d="M440 140l20 0l0 20l-20 0Z" fill="#fff" stroke="#ccc" class="zr15-cls-57"></path>
<path d="M440 160l20 0l0 20l-20 0Z" fill="#fff" stroke="#ccc" class="zr15-cls-57"></path>
<path d="M440 180l20 0l0 20l-20 0Z" fill="#fff" stroke="#ccc" class="zr15-cls-57"></path>
<path d="M460 60l20 0l0 20l-20 0Z" fill="#fff" stroke="#ccc" class="zr15-cls-57"></path>
<path d="M460 80l20 0l0 20l-20 0Z" fill="#fff" stroke="#ccc" class="zr15-cls-57"></path>
<path d="M460 100l20 0l0 20l-20 0Z" fill="#fff" stroke="#ccc" class="zr15-cls-57"></path>
<path d="M460 120l20 0l0 20l-20 0Z" fill="#fff" stroke="#ccc" class="zr15-cls-57"></path>
<path d="M460 140l20 0l0 20l-20 0Z" fill="#fff" stroke="#ccc" class="zr15-cls-57"></path>
<path d="M460 160l20 0l0 20l-20 0Z" fill="#fff" stroke="#ccc" class="zr15-cls-57"></path>
<path d="M460 180l20 0l0 20l-20 0Z" fill="#fff" stroke="#ccc" class="zr15-cls-57"></path>
<path d="M480 60l20 0l0 20l-20 0Z" fill="#fff" stroke="#ccc" class="zr15-cls-57"></path>
<path d="M480 80l20 0l0 20l-20 0Z" fill="#fff" stroke="#ccc" class="zr15-cls-57"></path>
<path d="M480 100l20 0l0 20l-20 0Z" fill="#fff" stroke="#ccc" class="zr15-cls-57"></path>
<path d="M480 120l20 0l0 20l-20 0Z" fill="#fff" stroke="#ccc" class="zr15-cls-57"></path>
<path d="M480 140l20 0l0 20l-20 0Z" fill="#fff" stroke="#ccc" class="zr15-cls-57"></path>
<path d="M480 160l20 0l0 20l-20 0Z" fill="#fff" stroke="#ccc" class="zr15-cls-57"></path>
<path d="M480 180l20 0l0 20l-20 0Z" fill="#fff" stroke="#ccc" class="zr15-cls-57"></path>
<path d="M500 60l20 0l0 20l-20 0Z" fill="#fff" stroke="#ccc" class="zr15-cls-57"></path>
<path d="M500 80l20 0l0 20l-20 0Z" fill="#fff" stroke="#ccc" class="zr15-cls-57"></path>
<path d="M500 100l20 0l0 20l-20 0Z" fill="#fff" stroke="#ccc" class="zr15-cls-57"></path>
<path d="M500 120l20 0l0 20l-20 0Z" fill="#fff" stroke="#ccc" class="zr15-cls-57"></path>
<path d="M80.5 60.5l19 0l0 19l-19 0Z" fill="rgb(219,143,121)" ecmeta_series_index="0" ecmeta_data_index="0" ecmeta_ssr_type="chart" class="zr15-cls-58"></path>
<path d="M80.5 80.5l19 0l0 19l-19 0Z" fill="rgb(194,76,81)" ecmeta_series_index="0" ecmeta_data_index="1" ecmeta_ssr_type="chart" class="zr15-cls-59"></path>
<path d="M80.5 100.5l19 0l0 19l-19 0Z" fill="rgb(200,90,90)" ecmeta_series_index="0" ecmeta_data_index="2" ecmeta_ssr_type="chart" class="zr15-cls-60"></path>
<path d="M80.5 120.5l19 0l0 19l-19 0Z" fill="rgb(206,105,99)" ecmeta_series_index="0" ecmeta_data_index="3" ecmeta_ssr_type="chart" class="zr15-cls-61"></path>
<path d="M80.5 140.5l19 0l0 19l-19 0Z" fill="rgb(199,87,88)" ecmeta_series_index="0" ecmeta_data_index="4" ecmeta_ssr_type="chart" class="zr15-cls-62"></path>
<path d="M80.5 160.5l19 0l0 19l-19 0Z" fill="rgb(196,81,84)" ecmeta_series_index="0" ecmeta_data_index="5" ecmeta_ssr_type="chart" class="zr15-cls-63"></path>
<path d="M80.5 180.5l19 0l0 19l-19 0Z" fill="rgb(235,200,148)" ecmeta_series_index="0" ecmeta_data_index="6" ecmeta_ssr_type="chart" class="zr15-cls-64"></path>
<path d="M100.5 60.5l19 0l0 19l-19 0Z" fill="rgb(205,103,98)" ecmeta_series_index="0" ecmeta_data_index="7" ecmeta_ssr_type="chart" class="zr15-cls-65"></path>
<path d="M100.5 80.5l19 0l0 19l-19 0Z" fill="rgb(194,76,81)" ecmeta_series_index="0" ecmeta_data_index="8" ecmeta_ssr_type="chart" class="zr15-cls-59"></path>
<path d="M100.5 100.5l19 0l0 19l-19 0Z" fill="rgb(192,71,78)" ecmeta_series_index="0" ecmeta_data_index="9" ecmeta_ssr_type="chart" class="zr15-cls-66"></path>
<path d="M100.5 120.5l19 0l0 19l-19 0Z" fill="rgb(209,112,104)" ecmeta_series_index="0" ecmeta_data_index="10" ecmeta_ssr_type="chart" class="zr15-cls-67"></path>
<path d="M100.5 140.5l19 0l0 19l-19 0Z" fill="rgb(213,122,110)" ecmeta_series_index="0" ecmeta_data_index="11" ecmeta_ssr_type="chart" class="zr15-cls-68"></path>
<path d="M100.5 160.5l19 0l0 19l-19 0Z" fill="rgb(203,97,94)" ecmeta_series_index="0" ecmeta_data_index="12" ecmeta_ssr_type="chart" class="zr15-cls-69"></path>
<path d="M100.5 180.5l19 0l0 19l-19 0Z" fill="rgb(236,203,149)" ecmeta_series_index="0" ecmeta_data_index="13" ecmeta_ssr_type="chart" class="zr15-cls-70"></path>
<path d="M120.5 60.5l19 0l0 19l-19 0Z" fill="rgb(229,177,137)" ecmeta_series_index="0" ecmeta_data_index="14" ecmeta_ssr_type="chart" class="zr15-cls-71"></path>
<path d="M120.5 80.5l19 0l0 19l-19 0Z" fill="rgb(217,135,117)" ecmeta_series_index="0" ecmeta_data_index="15" ecmeta_ssr_type="chart" class="zr15-cls-72"></path>
<path d="M120.5 100.5l19 0l0 19l-19 0Z" fill="rgb(235,199,147)" ecmeta_series_index="0" ecmeta_data_index="16" ecmeta_ssr_type="chart" class="zr15-cls-73"></path>
<path d="M120.5 120.5l19 0l0 19l-19 0Z" fill="rgb(212,121,109)" ecmeta_series_index="0" ecmeta_data_index="17" ecmeta_ssr_type="chart" class="zr15-cls-74"></path>
<path d="M120.5 140.5l19 0l0 19l-19 0Z" fill="rgb(233,193,144)" ecmeta_series_index="0" ecmeta_data_index="18" ecmeta_ssr_type="chart" class="zr15-cls-75"></path>
<path d="M120.5 160.5l19 0l0 19l-19 0Z" fill="rgb(235,199,147)" ecmeta_series_index="0" ecmeta_data_index="19" ecmeta_ssr_type="chart" class="zr15-cls-73"></path>
<path d="M120.5 180.5l19 0l0 19l-19 0Z" fill="rgb(217,133,116)" ecmeta_series_index="0" ecmeta_data_index="20" ecmeta_ssr_type="chart" class="zr15-cls-76"></path>
<path d="M140.5 60.5l19 0l0 19l-19 0Z" fill="rgb(239,214,154)" ecmeta_series_index="0" ecmeta_data_index="21" ecmeta_ssr_type="chart" class="zr15-cls-77"></path>
<path d="M140.5 80.5l19 0l0 19l-19 0Z" fill="rgb(244,232,163)" ecmeta_series_index="0" ecmeta_data_index="22" ecmeta_ssr_type="chart" class="zr15-cls-78"></path>
<path d="M140.5 100.5l19 0l0 19l-19 0Z" fill="rgb(229,175,136)" ecmeta_series_index="0" ecmeta_data_index="23" ecmeta_ssr_type="chart" class="zr15-cls-79"></path>
<path d="M140.5 120.5l19 0l0 19l-19 0Z" fill="rgb(204,100,96)" ecmeta_series_index="0" ecmeta_data_index="24" ecmeta_ssr_type="chart" class="zr15-cls-80"></path>
<path d="M140.5 140.5l19 0l0 19l-19 0Z" fill="rgb(197,84,86)" ecmeta_series_index="0" ecmeta_data_index="25" ecmeta_ssr_type="chart" class="zr15-cls-81"></path>
<path d="M140.5 160.5l19 0l0 19l-19 0Z" fill="rgb(224,158,128)" ecmeta_series_index="0" ecmeta_data_index="26" ecmeta_ssr_type="chart" class="zr15-cls-82"></path>
<path d="M140.5 180.5l19 0l0 19l-19 0Z" fill="rgb(200,91,90)" ecmeta_series_index="0" ecmeta_data_index="27" ecmeta_ssr_type="chart" class="zr15-cls-83"></path>
<path d="M160.5 60.5l19 0l0 19l-19 0Z" fill="rgb(210,114,105)" ecmeta_series_index="0" ecmeta_data_index="28" ecmeta_ssr_type="chart" class="zr15-cls-84"></path>
<path d="M160.5 80.5l19 0l0 19l-19 0Z" fill="rgb(224,160,129)" ecmeta_series_index="0" ecmeta_data_index="29" ecmeta_ssr_type="chart" class="zr15-cls-85"></path>
<path d="M160.5 100.5l19 0l0 19l-19 0Z" fill="rgb(217,133,116)" ecmeta_series_index="0" ecmeta_data_index="30" ecmeta_ssr_type="chart" class="zr15-cls-76"></path>
<path d="M160.5 120.5l19 0l0 19l-19 0Z" fill="rgb(238,212,153)" ecmeta_series_index="0" ecmeta_data_index="31" ecmeta_ssr_type="chart" class="zr15-cls-86"></path>
<path d="M160.5 140.5l19 0l0 19l-19 0Z" fill="rgb(193,74,80)" ecmeta_series_index="0" ecmeta_data_index="32" ecmeta_ssr_type="chart" class="zr15-cls-87"></path>
<path d="M160.5 160.5l19 0l0 19l-19 0Z" fill="rgb(201,92,91)" ecmeta_series_index="0" ecmeta_data_index="33" ecmeta_ssr_type="chart" class="zr15-cls-88"></path>
<path d="M160.5 180.5l19 0l0 19l-19 0Z" fill="rgb(221,147,123)" ecmeta_series_index="0" ecmeta_data_index="34" ecmeta_ssr_type="chart" class="zr15-cls-89"></path>
<path d="M180.5 60.5l19 0l0 19l-19 0Z" fill="rgb(214,125,112)" ecmeta_series_index="0" ecmeta_data_index="35" ecmeta_ssr_type="chart" class="zr15-cls-90"></path>
<path d="M180.5 80.5l19 0l0 19l-19 0Z" fill="rgb(237,208,151)" ecmeta_series_index="0" ecmeta_data_index="36" ecmeta_ssr_type="chart" class="zr15-cls-91"></path>
<path d="M180.5 100.5l19 0l0 19l-19 0Z" fill="rgb(221,148,123)" ecmeta_series_index="0" ecmeta_data_index="37" ecmeta_ssr_type="chart" class="zr15-cls-92"></path>
<path d="M180.5 120.5l19 0l0 19l-19 0Z" fill="rgb(193,73,79)" ecmeta_series_index="0" ecmeta_data_index="38" ecmeta_ssr_type="chart" class="zr15-cls-93"></path>
<path d="M180.5 140.5l19 0l0 19l-19 0Z" fill="rgb(241,222,158)" ecmeta_series_index="0" ecmeta_data_index="39" ecmeta_ssr_type="chart" class="zr15-cls-94"></path>
<path d="M180.5 160.5l19 0l0 19l-19 0Z" fill="rgb(231,184,140)" ecmeta_series_index="0" ecmeta_data_index="40" ecmeta_ssr_type="chart" class="zr15-cls-95"></path>
<path d="M180.5 180.5l19 0l0 19l-19 0Z" fill="rgb(227,171,134)" ecmeta_series_index="0" ecmeta_data_index="41" ecmeta_ssr_type="chart" class="zr15-cls-96"></path>
<path d="M200.5 60.5l19 0l0 19l-19 0Z" fill="rgb(224,159,129)" ecmeta_series_index="0" ecmeta_data_index="42" ecmeta_ssr_type="chart" class="zr15-cls-97"></path>
<path d="M200.5 80.5l19 0l0 19l-19 0Z" fill="rgb(209,114,105)" ecmeta_series_index="0" ecmeta_data_index="43" ecmeta_ssr_type="chart" class="zr15-cls-98"></path>
<path d="M200.5 100.5l19 0l0 19l-19 0Z" fill="rgb(211,117,107)" ecmeta_series_index="0" ecmeta_data_index="44" ecmeta_ssr_type="chart" class="zr15-cls-99"></path>
<path d="M200.5 120.5l19 0l0 19l-19 0Z" fill="rgb(234,195,145)" ecmeta_series_index="0" ecmeta_data_index="45" ecmeta_ssr_type="chart" class="zr15-cls-100"></path>
<path d="M200.5 140.5l19 0l0 19l-19 0Z" fill="rgb(207,108,101)" ecmeta_series_index="0" ecmeta_data_index="46" ecmeta_ssr_type="chart" class="zr15-cls-101"></path>
<path d="M200.5 160.5l19 0l0 19l-19 0Z" fill="rgb(200,90,90)" ecmeta_series_index="0" ecmeta_data_index="47" ecmeta_ssr_type="chart" class="zr15-cls-60"></path>
<path d="M200.5 180.5l19 0l0 19l-19 0Z" fill="rgb(235,200,148)" ecmeta_series_index="0" ecmeta_data_index="48" ecmeta_ssr_type="chart" class="zr15-cls-64"></path>
<path d="M220.5 60.5l19 0l0 19l-19 0Z" fill="rgb(245,234,164)" ecmeta_series_index="0" ecmeta_data_index="49" ecmeta_ssr_type="chart" class="zr15-cls-102"></path>
<path d="M220.5 80.5l19 0l0 19l-19 0Z" fill="rgb(198,85,87)" ecmeta_series_index="0" ecmeta_data_index="50" ecmeta_ssr_type="chart" class="zr15-cls-103"></path>
<path d="M220.5 100.5l19 0l0 19l-19 0Z" fill="rgb(241,222,158)" ecmeta_series_index="0" ecmeta_data_index="51" ecmeta_ssr_type="chart" class="zr15-cls-94"></path>
<path d="M220.5 120.5l19 0l0 19l-19 0Z" fill="rgb(195,77,82)" ecmeta_series_index="0" ecmeta_data_index="52" ecmeta_ssr_type="chart" class="zr15-cls-104"></path>
<path d="M220.5 140.5l19 0l0 19l-19 0Z" fill="rgb(237,205,150)" ecmeta_series_index="0" ecmeta_data_index="53" ecmeta_ssr_type="chart" class="zr15-cls-105"></path>
<path d="M220.5 160.5l19 0l0 19l-19 0Z" fill="rgb(238,210,153)" ecmeta_series_index="0" ecmeta_data_index="54" ecmeta_ssr_type="chart" class="zr15-cls-106"></path>
<path d="M220.5 180.5l19 0l0 19l-19 0Z" fill="rgb(230,182,139)" ecmeta_series_index="0" ecmeta_data_index="55" ecmeta_ssr_type="chart" class="zr15-cls-107"></path>
<path d="M240.5 60.5l19 0l0 19l-19 0Z" fill="rgb(212,119,108)" ecmeta_series_index="0" ecmeta_data_index="56" ecmeta_ssr_type="chart" class="zr15-cls-108"></path>
<path d="M240.5 80.5l19 0l0 19l-19 0Z" fill="rgb(196,80,84)" ecmeta_series_index="0" ecmeta_data_index="57" ecmeta_ssr_type="chart" class="zr15-cls-109"></path>
<path d="M240.5 100.5l19 0l0 19l-19 0Z" fill="rgb(195,78,82)" ecmeta_series_index="0" ecmeta_data_index="58" ecmeta_ssr_type="chart" class="zr15-cls-110"></path>
<path d="M240.5 120.5l19 0l0 19l-19 0Z" fill="rgb(192,71,78)" ecmeta_series_index="0" ecmeta_data_index="59" ecmeta_ssr_type="chart" class="zr15-cls-66"></path>
<path d="M240.5 140.5l19 0l0 19l-19 0Z" fill="rgb(226,166,132)" ecmeta_series_index="0" ecmeta_data_index="60" ecmeta_ssr_type="chart" class="zr15-cls-111"></path>
<path d="M240.5 160.5l19 0l0 19l-19 0Z" fill="rgb(233,192,144)" ecmeta_series_index="0" ecmeta_data_index="61" ecmeta_ssr_type="chart" class="zr15-cls-112"></path>
<path d="M240.5 180.5l19 0l0 19l-19 0Z" fill="rgb(195,78,82)" ecmeta_series_index="0" ecmeta_data_index="62" ecmeta_ssr_type="chart" class="zr15-cls-110"></path>
<path d="M260.5 60.5l19 0l0 19l-19 0Z" fill="rgb(212,120,109)" ecmeta_series_index="0" ecmeta_data_index="63" ecmeta_ssr_type="chart" class="zr15-cls-113"></path>
<path d="M260.5 80.5l19 0l0 19l-19 0Z" fill="rgb(210,115,106)" ecmeta_series_index="0" ecmeta_data_index="64" ecmeta_ssr_type="chart" class="zr15-cls-114"></path>
<path d="M260.5 100.5l19 0l0 19l-19 0Z" fill="rgb(227,169,133)" ecmeta_series_index="0" ecmeta_data_index="65" ecmeta_ssr_type="chart" class="zr15-cls-115"></path>
<path d="M260.5 120.5l19 0l0 19l-19 0Z" fill="rgb(202,95,93)" ecmeta_series_index="0" ecmeta_data_index="66" ecmeta_ssr_type="chart" class="zr15-cls-116"></path>
<path d="M260.5 140.5l19 0l0 19l-19 0Z" fill="rgb(229,179,138)" ecmeta_series_index="0" ecmeta_data_index="67" ecmeta_ssr_type="chart" class="zr15-cls-117"></path>
<path d="M260.5 160.5l19 0l0 19l-19 0Z" fill="rgb(216,129,114)" ecmeta_series_index="0" ecmeta_data_index="68" ecmeta_ssr_type="chart" class="zr15-cls-118"></path>
<path d="M260.5 180.5l19 0l0 19l-19 0Z" fill="rgb(231,186,141)" ecmeta_series_index="0" ecmeta_data_index="69" ecmeta_ssr_type="chart" class="zr15-cls-119"></path>
<path d="M280.5 60.5l19 0l0 19l-19 0Z" fill="rgb(208,111,103)" ecmeta_series_index="0" ecmeta_data_index="70" ecmeta_ssr_type="chart" class="zr15-cls-120"></path>
<path d="M280.5 80.5l19 0l0 19l-19 0Z" fill="rgb(211,117,107)" ecmeta_series_index="0" ecmeta_data_index="71" ecmeta_ssr_type="chart" class="zr15-cls-99"></path>
<path d="M280.5 100.5l19 0l0 19l-19 0Z" fill="rgb(220,143,121)" ecmeta_series_index="0" ecmeta_data_index="72" ecmeta_ssr_type="chart" class="zr15-cls-121"></path>
<path d="M280.5 120.5l19 0l0 19l-19 0Z" fill="rgb(207,107,100)" ecmeta_series_index="0" ecmeta_data_index="73" ecmeta_ssr_type="chart" class="zr15-cls-122"></path>
<path d="M280.5 140.5l19 0l0 19l-19 0Z" fill="rgb(205,102,98)" ecmeta_series_index="0" ecmeta_data_index="74" ecmeta_ssr_type="chart" class="zr15-cls-123"></path>
<path d="M280.5 160.5l19 0l0 19l-19 0Z" fill="rgb(209,114,105)" ecmeta_series_index="0" ecmeta_data_index="75" ecmeta_ssr_type="chart" class="zr15-cls-98"></path>
<path d="M280.5 180.5l19 0l0 19l-19 0Z" fill="rgb(196,80,83)" ecmeta_series_index="0" ecmeta_data_index="76" ecmeta_ssr_type="chart" class="zr15-cls-124"></path>
<path d="M300.5 60.5l19 0l0 19l-19 0Z" fill="rgb(227,170,133)" ecmeta_series_index="0" ecmeta_data_index="77" ecmeta_ssr_type="chart" class="zr15-cls-125"></path>
<path d="M300.5 80.5l19 0l0 19l-19 0Z" fill="rgb(198,86,87)" ecmeta_series_index="0" ecmeta_data_index="78" ecmeta_ssr_type="chart" class="zr15-cls-126"></path>
<path d="M300.5 100.5l19 0l0 19l-19 0Z" fill="rgb(193,73,79)" ecmeta_series_index="0" ecmeta_data_index="79" ecmeta_ssr_type="chart" class="zr15-cls-93"></path>
<path d="M300.5 120.5l19 0l0 19l-19 0Z" fill="rgb(246,238,166)" ecmeta_series_index="0" ecmeta_data_index="80" ecmeta_ssr_type="chart" class="zr15-cls-127"></path>
<path d="M300.5 140.5l19 0l0 19l-19 0Z" fill="rgb(194,74,80)" ecmeta_series_index="0" ecmeta_data_index="81" ecmeta_ssr_type="chart" class="zr15-cls-128"></path>
<path d="M300.5 160.5l19 0l0 19l-19 0Z" fill="rgb(192,70,77)" ecmeta_series_index="0" ecmeta_data_index="82" ecmeta_ssr_type="chart" class="zr15-cls-129"></path>
<path d="M300.5 180.5l19 0l0 19l-19 0Z" fill="rgb(226,167,132)" ecmeta_series_index="0" ecmeta_data_index="83" ecmeta_ssr_type="chart" class="zr15-cls-130"></path>
<path d="M320.5 60.5l19 0l0 19l-19 0Z" fill="rgb(222,152,125)" ecmeta_series_index="0" ecmeta_data_index="84" ecmeta_ssr_type="chart" class="zr15-cls-131"></path>
<path d="M320.5 80.5l19 0l0 19l-19 0Z" fill="rgb(198,86,87)" ecmeta_series_index="0" ecmeta_data_index="85" ecmeta_ssr_type="chart" class="zr15-cls-126"></path>
<path d="M320.5 100.5l19 0l0 19l-19 0Z" fill="rgb(244,233,163)" ecmeta_series_index="0" ecmeta_data_index="86" ecmeta_ssr_type="chart" class="zr15-cls-78"></path>
<path d="M320.5 120.5l19 0l0 19l-19 0Z" fill="rgb(231,183,140)" ecmeta_series_index="0" ecmeta_data_index="87" ecmeta_ssr_type="chart" class="zr15-cls-132"></path>
<path d="M320.5 140.5l19 0l0 19l-19 0Z" fill="rgb(207,106,100)" ecmeta_series_index="0" ecmeta_data_index="88" ecmeta_ssr_type="chart" class="zr15-cls-133"></path>
<path d="M320.5 160.5l19 0l0 19l-19 0Z" fill="rgb(194,74,80)" ecmeta_series_index="0" ecmeta_data_index="89" ecmeta_ssr_type="chart" class="zr15-cls-128"></path>
<path d="M320.5 180.5l19 0l0 19l-19 0Z" fill="rgb(200,91,90)" ecmeta_series_index="0" ecmeta_data_index="90" ecmeta_ssr_type="chart" class="zr15-cls-83"></path>
<path d="M340.5 60.5l19 0l0 19l-19 0Z" fill="rgb(214,124,112)" ecmeta_series_index="0" ecmeta_data_index="91" ecmeta_ssr_type="chart" class="zr15-cls-134"></path>
<path d="M340.5 80.5l19 0l0 19l-19 0Z" fill="rgb(195,79,83)" ecmeta_series_index="0" ecmeta_data_index="92" ecmeta_ssr_type="chart" class="zr15-cls-135"></path>
<path d="M340.5 100.5l19 0l0 19l-19 0Z" fill="rgb(228,174,136)" ecmeta_series_index="0" ecmeta_data_index="93" ecmeta_ssr_type="chart" class="zr15-cls-136"></path>
<path d="M340.5 120.5l19 0l0 19l-19 0Z" fill="rgb(214,126,112)" ecmeta_series_index="0" ecmeta_data_index="94" ecmeta_ssr_type="chart" class="zr15-cls-137"></path>
<path d="M340.5 140.5l19 0l0 19l-19 0Z" fill="rgb(222,150,124)" ecmeta_series_index="0" ecmeta_data_index="95" ecmeta_ssr_type="chart" class="zr15-cls-138"></path>
<path d="M340.5 160.5l19 0l0 19l-19 0Z" fill="rgb(203,98,95)" ecmeta_series_index="0" ecmeta_data_index="96" ecmeta_ssr_type="chart" class="zr15-cls-139"></path>
<path d="M340.5 180.5l19 0l0 19l-19 0Z" fill="rgb(234,196,146)" ecmeta_series_index="0" ecmeta_data_index="97" ecmeta_ssr_type="chart" class="zr15-cls-140"></path>
<path d="M360.5 60.5l19 0l0 19l-19 0Z" fill="rgb(195,79,83)" ecmeta_series_index="0" ecmeta_data_index="98" ecmeta_ssr_type="chart" class="zr15-cls-135"></path>
<path d="M360.5 80.5l19 0l0 19l-19 0Z" fill="rgb(198,86,87)" ecmeta_series_index="0" ecmeta_data_index="99" ecmeta_ssr_type="chart" class="zr15-cls-126"></path>
<path d="M360.5 100.5l19 0l0 19l-19 0Z" fill="rgb(243,227,160)" ecmeta_series_index="0" ecmeta_data_index="100" ecmeta_ssr_type="chart" class="zr15-cls-141"></path>
<path d="M360.5 120.5l19 0l0 19l-19 0Z" fill="rgb(200,90,90)" ecmeta_series_index="0" ecmeta_data_index="101" ecmeta_ssr_type="chart" class="zr15-cls-60"></path>
<path d="M360.5 140.5l19 0l0 19l-19 0Z" fill="rgb(237,205,150)" ecmeta_series_index="0" ecmeta_data_index="102" ecmeta_ssr_type="chart" class="zr15-cls-105"></path>
<path d="M360.5 160.5l19 0l0 19l-19 0Z" fill="rgb(214,125,112)" ecmeta_series_index="0" ecmeta_data_index="103" ecmeta_ssr_type="chart" class="zr15-cls-90"></path>
<path d="M360.5 180.5l19 0l0 19l-19 0Z" fill="rgb(205,103,98)" ecmeta_series_index="0" ecmeta_data_index="104" ecmeta_ssr_type="chart" class="zr15-cls-65"></path>
<path d="M380.5 60.5l19 0l0 19l-19 0Z" fill="rgb(238,209,152)" ecmeta_series_index="0" ecmeta_data_index="105" ecmeta_ssr_type="chart" class="zr15-cls-142"></path>
<path d="M380.5 80.5l19 0l0 19l-19 0Z" fill="rgb(209,113,104)" ecmeta_series_index="0" ecmeta_data_index="106" ecmeta_ssr_type="chart" class="zr15-cls-143"></path>
<path d="M380.5 100.5l19 0l0 19l-19 0Z" fill="rgb(234,194,145)" ecmeta_series_index="0" ecmeta_data_index="107" ecmeta_ssr_type="chart" class="zr15-cls-144"></path>
<path d="M380.5 120.5l19 0l0 19l-19 0Z" fill="rgb(229,176,136)" ecmeta_series_index="0" ecmeta_data_index="108" ecmeta_ssr_type="chart" class="zr15-cls-145"></path>
<path d="M380.5 140.5l19 0l0 19l-19 0Z" fill="rgb(236,204,150)" ecmeta_series_index="0" ecmeta_data_index="109" ecmeta_ssr_type="chart" class="zr15-cls-146"></path>
<path d="M380.5 160.5l19 0l0 19l-19 0Z" fill="rgb(209,113,104)" ecmeta_series_index="0" ecmeta_data_index="110" ecmeta_ssr_type="chart" class="zr15-cls-143"></path>
<path d="M380.5 180.5l19 0l0 19l-19 0Z" fill="rgb(201,94,92)" ecmeta_series_index="0" ecmeta_data_index="111" ecmeta_ssr_type="chart" class="zr15-cls-147"></path>
<path d="M400.5 60.5l19 0l0 19l-19 0Z" fill="rgb(213,123,111)" ecmeta_series_index="0" ecmeta_data_index="112" ecmeta_ssr_type="chart" class="zr15-cls-148"></path>
<path d="M400.5 80.5l19 0l0 19l-19 0Z" fill="rgb(202,96,93)" ecmeta_series_index="0" ecmeta_data_index="113" ecmeta_ssr_type="chart" class="zr15-cls-149"></path>
<path d="M400.5 100.5l19 0l0 19l-19 0Z" fill="rgb(219,141,120)" ecmeta_series_index="0" ecmeta_data_index="114" ecmeta_ssr_type="chart" class="zr15-cls-150"></path>
<path d="M400.5 120.5l19 0l0 19l-19 0Z" fill="rgb(202,95,93)" ecmeta_series_index="0" ecmeta_data_index="115" ecmeta_ssr_type="chart" class="zr15-cls-116"></path>
<path d="M400.5 140.5l19 0l0 19l-19 0Z" fill="rgb(223,155,127)" ecmeta_series_index="0" ecmeta_data_index="116" ecmeta_ssr_type="chart" class="zr15-cls-151"></path>
<path d="M400.5 160.5l19 0l0 19l-19 0Z" fill="rgb(230,181,139)" ecmeta_series_index="0" ecmeta_data_index="117" ecmeta_ssr_type="chart" class="zr15-cls-152"></path>
<path d="M400.5 180.5l19 0l0 19l-19 0Z" fill="rgb(204,101,97)" ecmeta_series_index="0" ecmeta_data_index="118" ecmeta_ssr_type="chart" class="zr15-cls-153"></path>
<path d="M420.5 60.5l19 0l0 19l-19 0Z" fill="rgb(237,206,151)" ecmeta_series_index="0" ecmeta_data_index="119" ecmeta_ssr_type="chart" class="zr15-cls-154"></path>
<path d="M420.5 80.5l19 0l0 19l-19 0Z" fill="rgb(195,79,83)" ecmeta_series_index="0" ecmeta_data_index="120" ecmeta_ssr_type="chart" class="zr15-cls-135"></path>
<path d="M420.5 100.5l19 0l0 19l-19 0Z" fill="rgb(202,95,93)" ecmeta_series_index="0" ecmeta_data_index="121" ecmeta_ssr_type="chart" class="zr15-cls-116"></path>
<path d="M420.5 120.5l19 0l0 19l-19 0Z" fill="rgb(199,88,89)" ecmeta_series_index="0" ecmeta_data_index="122" ecmeta_ssr_type="chart" class="zr15-cls-155"></path>
<path d="M420.5 140.5l19 0l0 19l-19 0Z" fill="rgb(242,223,158)" ecmeta_series_index="0" ecmeta_data_index="123" ecmeta_ssr_type="chart" class="zr15-cls-156"></path>
<path d="M420.5 160.5l19 0l0 19l-19 0Z" fill="rgb(210,115,105)" ecmeta_series_index="0" ecmeta_data_index="124" ecmeta_ssr_type="chart" class="zr15-cls-157"></path>
<path d="M420.5 180.5l19 0l0 19l-19 0Z" fill="rgb(215,127,113)" ecmeta_series_index="0" ecmeta_data_index="125" ecmeta_ssr_type="chart" class="zr15-cls-158"></path>
<path d="M440.5 60.5l19 0l0 19l-19 0Z" fill="rgb(220,145,122)" ecmeta_series_index="0" ecmeta_data_index="126" ecmeta_ssr_type="chart" class="zr15-cls-159"></path>
<path d="M440.5 80.5l19 0l0 19l-19 0Z" fill="rgb(213,124,111)" ecmeta_series_index="0" ecmeta_data_index="127" ecmeta_ssr_type="chart" class="zr15-cls-160"></path>
<path d="M440.5 100.5l19 0l0 19l-19 0Z" fill="rgb(232,187,141)" ecmeta_series_index="0" ecmeta_data_index="128" ecmeta_ssr_type="chart" class="zr15-cls-161"></path>
<path d="M440.5 120.5l19 0l0 19l-19 0Z" fill="rgb(246,237,165)" ecmeta_series_index="0" ecmeta_data_index="129" ecmeta_ssr_type="chart" class="zr15-cls-162"></path>
<path d="M440.5 140.5l19 0l0 19l-19 0Z" fill="rgb(211,116,106)" ecmeta_series_index="0" ecmeta_data_index="130" ecmeta_ssr_type="chart" class="zr15-cls-163"></path>
<path d="M440.5 160.5l19 0l0 19l-19 0Z" fill="rgb(238,212,153)" ecmeta_series_index="0" ecmeta_data_index="131" ecmeta_ssr_type="chart" class="zr15-cls-86"></path>
<path d="M440.5 180.5l19 0l0 19l-19 0Z" fill="rgb(237,208,151)" ecmeta_series_index="0" ecmeta_data_index="132" ecmeta_ssr_type="chart" class="zr15-cls-91"></path>
<path d="M460.5 60.5l19 0l0 19l-19 0Z" fill="rgb(230,180,138)" ecmeta_series_index="0" ecmeta_data_index="133" ecmeta_ssr_type="chart" class="zr15-cls-164"></path>
<path d="M460.5 80.5l19 0l0 19l-19 0Z" fill="rgb(208,111,103)" ecmeta_series_index="0" ecmeta_data_index="134" ecmeta_ssr_type="chart" class="zr15-cls-120"></path>
<path d="M460.5 100.5l19 0l0 19l-19 0Z" fill="rgb(214,126,113)" ecmeta_series_index="0" ecmeta_data_index="135" ecmeta_ssr_type="chart" class="zr15-cls-165"></path>
<path d="M460.5 120.5l19 0l0 19l-19 0Z" fill="rgb(221,147,123)" ecmeta_series_index="0" ecmeta_data_index="136" ecmeta_ssr_type="chart" class="zr15-cls-89"></path>
<path d="M460.5 140.5l19 0l0 19l-19 0Z" fill="rgb(197,82,85)" ecmeta_series_index="0" ecmeta_data_index="137" ecmeta_ssr_type="chart" class="zr15-cls-166"></path>
<path d="M460.5 160.5l19 0l0 19l-19 0Z" fill="rgb(208,109,102)" ecmeta_series_index="0" ecmeta_data_index="138" ecmeta_ssr_type="chart" class="zr15-cls-167"></path>
<path d="M460.5 180.5l19 0l0 19l-19 0Z" fill="rgb(232,189,143)" ecmeta_series_index="0" ecmeta_data_index="139" ecmeta_ssr_type="chart" class="zr15-cls-168"></path>
<path d="M480.5 60.5l19 0l0 19l-19 0Z" fill="rgb(208,110,102)" ecmeta_series_index="0" ecmeta_data_index="140" ecmeta_ssr_type="chart" class="zr15-cls-169"></path>
<path d="M480.5 80.5l19 0l0 19l-19 0Z" fill="rgb(233,191,144)" ecmeta_series_index="0" ecmeta_data_index="141" ecmeta_ssr_type="chart" class="zr15-cls-170"></path>
<path d="M480.5 100.5l19 0l0 19l-19 0Z" fill="rgb(214,126,112)" ecmeta_series_index="0" ecmeta_data_index="142" ecmeta_ssr_type="chart" class="zr15-cls-137"></path>
<path d="M480.5 120.5l19 0l0 19l-19 0Z" fill="rgb(202,95,93)" ecmeta_series_index="0" ecmeta_data_index="143" ecmeta_ssr_type="chart" class="zr15-cls-116"></path>
<path d="M480.5 140.5l19 0l0 19l-19 0Z" fill="rgb(211,117,107)" ecmeta_series_index="0" ecmeta_data_index="144" ecmeta_ssr_type="chart" class="zr15-cls-99"></path>
<path d="M480.5 160.5l19 0l0 19l-19 0Z" fill="rgb(203,98,95)" ecmeta_series_index="0" ecmeta_data_index="145" ecmeta_ssr_type="chart" class="zr15-cls-139"></path>
<path d="M480.5 180.5l19 0l0 19l-19 0Z" fill="rgb(207,107,101)" ecmeta_series_index="0" ecmeta_data_index="146" ecmeta_ssr_type="chart" class="zr15-cls-171"></path>
<path d="M500.5 60.5l19 0l0 19l-19 0Z" fill="rgb(229,176,137)" ecmeta_series_index="0" ecmeta_data_index="147" ecmeta_ssr_type="chart" class="zr15-cls-172"></path>
<path d="M500.5 80.5l19 0l0 19l-19 0Z" fill="rgb(209,113,104)" ecmeta_series_index="0" ecmeta_data_index="148" ecmeta_ssr_type="chart" class="zr15-cls-143"></path>
<path d="M500.5 100.5l19 0l0 19l-19 0Z" fill="rgb(246,238,165)" ecmeta_series_index="0" ecmeta_data_index="149" ecmeta_ssr_type="chart" class="zr15-cls-162"></path>
<path d="M500.5 120.5l19 0l0 19l-19 0Z" fill="rgb(237,206,150)" ecmeta_series_index="0" ecmeta_data_index="150" ecmeta_ssr_type="chart" class="zr15-cls-173"></path>
<polyline points="80 60 80 80 80 80 80 100 80 100 80 120 80 120 80 140 80 140 80 160 80 160 80 180 80 180 80 200" fill="transparent" stroke="#000" class="zr15-cls-174"></polyline>
<polyline points="180 60 180 80 180 80 180 100 180 100 180 120 160 120 160 140 160 140 160 160 160 160 160 180 160 180 160 200" fill="transparent" stroke="#000" class="zr15-cls-174"></polyline>
<polyline points="260 60 260 80 260 80 260 100 260 100 260 120 240 120 240 140 240 140 240 160 240 160 240 180 240 180 240 200" fill="transparent" stroke="#000" class="zr15-cls-174"></polyline>
<polyline points="340 60 340 80 340 80 340 100 340 100 340 120 340 120 340 140 340 140 340 160 340 160 340 180 320 180 320 200" fill="transparent" stroke="#000" class="zr15-cls-174"></polyline>
<polyline points="440 60 440 80 420 80 420 100 420 100 420 120 420 120 420 140 420 140 420 160 420 160 420 180 420 180 420 200" fill="transparent" stroke="#000" class="zr15-cls-174"></polyline>
<polyline points="520 60 520 80 520 80 520 100 520 100 520 120 520 120 520 140 500 140 500 160 500 160 500 180 500 180 500 200" fill="transparent" stroke="#000" class="zr15-cls-174"></polyline>
<polyline points="79.5 60 520.5 60" fill="transparent" stroke="#000" class="zr15-cls-174"></polyline>
<polyline points="79.5 200 500.5 200" fill="transparent" stroke="#000" class="zr15-cls-174"></polyline>
<text dominant-baseline="central" text-anchor="middle" style="font-size:20px;font-family:sans-serif;font-weight:bolder;" y="-10" transform="matrix(0,-1,1,0,50,130)" fill="#ccc">2017</text>
<text dominant-baseline="central" text-anchor="middle" style="font-size:12px;font-family:sans-serif;" x="130" y="49" fill="#000">Jan</text>
<text dominant-baseline="central" text-anchor="middle" style="font-size:12px;font-family:sans-serif;" x="210" y="49" fill="#000">Feb</text>
<text dominant-baseline="central" text-anchor="middle" style="font-size:12px;font-family:sans-serif;" x="290" y="49" fill="#000">Mar</text>
<text dominant-baseline="central" text-anchor="middle" style="font-size:12px;font-family:sans-serif;" x="380" y="49" fill="#000">Apr</text>
<text dominant-baseline="central" text-anchor="middle" style="font-size:12px;font-family:sans-serif;" x="470" y="49" fill="#000">May</text>
<text dominant-baseline="central" text-anchor="end" style="font-size:12px;font-family:sans-serif;" x="70" y="70" fill="#000">S</text>
<text dominant-baseline="central" text-anchor="end" style="font-size:12px;font-family:sans-serif;" x="70" y="90" fill="#000">M</text>
<text dominant-baseline="central" text-anchor="end" style="font-size:12px;font-family:sans-serif;" x="70" y="110" fill="#000">T</text>
<text dominant-baseline="central" text-anchor="end" style="font-size:12px;font-family:sans-serif;" x="70" y="130" fill="#000">W</text>
<text dominant-baseline="central" text-anchor="end" style="font-size:12px;font-family:sans-serif;" x="70" y="150" fill="#000">T</text>
<text dominant-baseline="central" text-anchor="end" style="font-size:12px;font-family:sans-serif;" x="70" y="170" fill="#000">F</text>
<text dominant-baseline="central" text-anchor="end" style="font-size:12px;font-family:sans-serif;" x="70" y="190" fill="#000">S</text>
<style ><![CDATA[
.zr15-cls-57:hover {
cursor:pointer;
fill:rgba(255,255,255,1);
}
.zr15-cls-58:hover {
cursor:pointer;
fill:rgba(240,157,133,1);
}
.zr15-cls-59:hover {
cursor:pointer;
fill:rgba(213,83,89,1);
}
.zr15-cls-60:hover {
cursor:pointer;
fill:rgba(220,99,99,1);
}
.zr15-cls-61:hover {
cursor:pointer;
fill:rgba(226,115,108,1);
}
.zr15-cls-62:hover {
cursor:pointer;
fill:rgba(218,95,96,1);
}
.zr15-cls-63:hover {
cursor:pointer;
fill:rgba(215,89,92,1);
}
.zr15-cls-64:hover {
cursor:pointer;
fill:rgba(255,220,162,1);
}
.zr15-cls-65:hover {
cursor:pointer;
fill:rgba(225,113,107,1);
}
.zr15-cls-66:hover {
cursor:pointer;
fill:rgba(211,78,85,1);
}
.zr15-cls-67:hover {
cursor:pointer;
fill:rgba(229,123,114,1);
}
.zr15-cls-68:hover {
cursor:pointer;
fill:rgba(234,134,121,1);
}
.zr15-cls-69:hover {
cursor:pointer;
fill:rgba(223,106,103,1);
}
.zr15-cls-70:hover {
cursor:pointer;
fill:rgba(255,223,163,1);
}
.zr15-cls-71:hover {
cursor:pointer;
fill:rgba(251,194,150,1);
}
.zr15-cls-72:hover {
cursor:pointer;
fill:rgba(238,148,128,1);
}
.zr15-cls-73:hover {
cursor:pointer;
fill:rgba(255,218,161,1);
}
.zr15-cls-74:hover {
cursor:pointer;
fill:rgba(233,133,119,1);
}
.zr15-cls-75:hover {
cursor:pointer;
fill:rgba(255,212,158,1);
}
.zr15-cls-76:hover {
cursor:pointer;
fill:rgba(238,146,127,1);
}
.zr15-cls-77:hover {
cursor:pointer;
fill:rgba(255,235,169,1);
}
.zr15-cls-78:hover {
cursor:pointer;
fill:rgba(255,255,179,1);
}
.zr15-cls-79:hover {
cursor:pointer;
fill:rgba(251,192,149,1);
}
.zr15-cls-80:hover {
cursor:pointer;
fill:rgba(224,110,105,1);
}
.zr15-cls-81:hover {
cursor:pointer;
fill:rgba(216,92,94,1);
}
.zr15-cls-82:hover {
cursor:pointer;
fill:rgba(246,173,140,1);
}
.zr15-cls-83:hover {
cursor:pointer;
fill:rgba(220,100,99,1);
}
.zr15-cls-84:hover {
cursor:pointer;
fill:rgba(231,125,115,1);
}
.zr15-cls-85:hover {
cursor:pointer;
fill:rgba(246,176,141,1);
}
.zr15-cls-86:hover {
cursor:pointer;
fill:rgba(255,233,168,1);
}
.zr15-cls-87:hover {
cursor:pointer;
fill:rgba(212,81,88,1);
}
.zr15-cls-88:hover {
cursor:pointer;
fill:rgba(221,101,100,1);
}
.zr15-cls-89:hover {
cursor:pointer;
fill:rgba(243,161,135,1);
}
.zr15-cls-90:hover {
cursor:pointer;
fill:rgba(235,137,123,1);
}
.zr15-cls-91:hover {
cursor:pointer;
fill:rgba(255,228,166,1);
}
.zr15-cls-92:hover {
cursor:pointer;
fill:rgba(243,162,135,1);
}
.zr15-cls-93:hover {
cursor:pointer;
fill:rgba(212,80,86,1);
}
.zr15-cls-94:hover {
cursor:pointer;
fill:rgba(255,244,173,1);
}
.zr15-cls-95:hover {
cursor:pointer;
fill:rgba(254,202,154,1);
}
.zr15-cls-96:hover {
cursor:pointer;
fill:rgba(249,188,147,1);
}
.zr15-cls-97:hover {
cursor:pointer;
fill:rgba(246,174,141,1);
}
.zr15-cls-98:hover {
cursor:pointer;
fill:rgba(229,125,115,1);
}
.zr15-cls-99:hover {
cursor:pointer;
fill:rgba(232,128,117,1);
}
.zr15-cls-100:hover {
cursor:pointer;
fill:rgba(255,214,159,1);
}
.zr15-cls-101:hover {
cursor:pointer;
fill:rgba(227,118,111,1);
}
.zr15-cls-102:hover {
cursor:pointer;
fill:rgba(255,255,180,1);
}
.zr15-cls-103:hover {
cursor:pointer;
fill:rgba(217,93,95,1);
}
.zr15-cls-104:hover {
cursor:pointer;
fill:rgba(214,84,90,1);
}
.zr15-cls-105:hover {
cursor:pointer;
fill:rgba(255,225,165,1);
}
.zr15-cls-106:hover {
cursor:pointer;
fill:rgba(255,231,168,1);
}
.zr15-cls-107:hover {
cursor:pointer;
fill:rgba(253,200,152,1);
}
.zr15-cls-108:hover {
cursor:pointer;
fill:rgba(233,130,118,1);
}
.zr15-cls-109:hover {
cursor:pointer;
fill:rgba(215,88,92,1);
}
.zr15-cls-110:hover {
cursor:pointer;
fill:rgba(214,85,90,1);
}
.zr15-cls-111:hover {
cursor:pointer;
fill:rgba(248,182,145,1);
}
.zr15-cls-112:hover {
cursor:pointer;
fill:rgba(255,211,158,1);
}
.zr15-cls-113:hover {
cursor:pointer;
fill:rgba(233,132,119,1);
}
.zr15-cls-114:hover {
cursor:pointer;
fill:rgba(231,126,116,1);
}
.zr15-cls-115:hover {
cursor:pointer;
fill:rgba(249,185,146,1);
}
.zr15-cls-116:hover {
cursor:pointer;
fill:rgba(222,104,102,1);
}
.zr15-cls-117:hover {
cursor:pointer;
fill:rgba(251,196,151,1);
}
.zr15-cls-118:hover {
cursor:pointer;
fill:rgba(237,141,125,1);
}
.zr15-cls-119:hover {
cursor:pointer;
fill:rgba(254,204,155,1);
}
.zr15-cls-120:hover {
cursor:pointer;
fill:rgba(228,122,113,1);
}
.zr15-cls-121:hover {
cursor:pointer;
fill:rgba(242,157,133,1);
}
.zr15-cls-122:hover {
cursor:pointer;
fill:rgba(227,117,110,1);
}
.zr15-cls-123:hover {
cursor:pointer;
fill:rgba(225,112,107,1);
}
.zr15-cls-124:hover {
cursor:pointer;
fill:rgba(215,88,91,1);
}
.zr15-cls-125:hover {
cursor:pointer;
fill:rgba(249,187,146,1);
}
.zr15-cls-126:hover {
cursor:pointer;
fill:rgba(217,94,95,1);
}
.zr15-cls-127:hover {
cursor:pointer;
fill:rgba(255,255,182,1);
}
.zr15-cls-128:hover {
cursor:pointer;
fill:rgba(213,81,88,1);
}
.zr15-cls-129:hover {
cursor:pointer;
fill:rgba(211,77,84,1);
}
.zr15-cls-130:hover {
cursor:pointer;
fill:rgba(248,183,145,1);
}
.zr15-cls-131:hover {
cursor:pointer;
fill:rgba(244,167,137,1);
}
.zr15-cls-132:hover {
cursor:pointer;
fill:rgba(254,201,154,1);
}
.zr15-cls-133:hover {
cursor:pointer;
fill:rgba(227,116,110,1);
}
.zr15-cls-134:hover {
cursor:pointer;
fill:rgba(235,136,123,1);
}
.zr15-cls-135:hover {
cursor:pointer;
fill:rgba(214,86,91,1);
}
.zr15-cls-136:hover {
cursor:pointer;
fill:rgba(250,191,149,1);
}
.zr15-cls-137:hover {
cursor:pointer;
fill:rgba(235,138,123,1);
}
.zr15-cls-138:hover {
cursor:pointer;
fill:rgba(244,165,136,1);
}
.zr15-cls-139:hover {
cursor:pointer;
fill:rgba(223,107,104,1);
}
.zr15-cls-140:hover {
cursor:pointer;
fill:rgba(255,215,160,1);
}
.zr15-cls-141:hover {
cursor:pointer;
fill:rgba(255,249,176,1);
}
.zr15-cls-142:hover {
cursor:pointer;
fill:rgba(255,229,167,1);
}
.zr15-cls-143:hover {
cursor:pointer;
fill:rgba(229,124,114,1);
}
.zr15-cls-144:hover {
cursor:pointer;
fill:rgba(255,213,159,1);
}
.zr15-cls-145:hover {
cursor:pointer;
fill:rgba(251,193,149,1);
}
.zr15-cls-146:hover {
cursor:pointer;
fill:rgba(255,224,165,1);
}
.zr15-cls-147:hover {
cursor:pointer;
fill:rgba(221,103,101,1);
}
.zr15-cls-148:hover {
cursor:pointer;
fill:rgba(234,135,122,1);
}
.zr15-cls-149:hover {
cursor:pointer;
fill:rgba(222,105,102,1);
}
.zr15-cls-150:hover {
cursor:pointer;
fill:rgba(240,155,132,1);
}
.zr15-cls-151:hover {
cursor:pointer;
fill:rgba(245,170,139,1);
}
.zr15-cls-152:hover {
cursor:pointer;
fill:rgba(253,199,152,1);
}
.zr15-cls-153:hover {
cursor:pointer;
fill:rgba(224,111,106,1);
}
.zr15-cls-154:hover {
cursor:pointer;
fill:rgba(255,226,166,1);
}
.zr15-cls-155:hover {
cursor:pointer;
fill:rgba(218,96,97,1);
}
.zr15-cls-156:hover {
cursor:pointer;
fill:rgba(255,245,173,1);
}
.zr15-cls-157:hover {
cursor:pointer;
fill:rgba(231,126,115,1);
}
.zr15-cls-158:hover {
cursor:pointer;
fill:rgba(236,139,124,1);
}
.zr15-cls-159:hover {
cursor:pointer;
fill:rgba(242,159,134,1);
}
.zr15-cls-160:hover {
cursor:pointer;
fill:rgba(234,136,122,1);
}
.zr15-cls-161:hover {
cursor:pointer;
fill:rgba(255,205,155,1);
}
.zr15-cls-162:hover {
cursor:pointer;
fill:rgba(255,255,181,1);
}
.zr15-cls-163:hover {
cursor:pointer;
fill:rgba(232,127,116,1);
}
.zr15-cls-164:hover {
cursor:pointer;
fill:rgba(253,198,151,1);
}
.zr15-cls-165:hover {
cursor:pointer;
fill:rgba(235,138,124,1);
}
.zr15-cls-166:hover {
cursor:pointer;
fill:rgba(216,90,93,1);
}
.zr15-cls-167:hover {
cursor:pointer;
fill:rgba(228,119,112,1);
}
.zr15-cls-168:hover {
cursor:pointer;
fill:rgba(255,207,157,1);
}
.zr15-cls-169:hover {
cursor:pointer;
fill:rgba(228,121,112,1);
}
.zr15-cls-170:hover {
cursor:pointer;
fill:rgba(255,210,158,1);
}
.zr15-cls-171:hover {
cursor:pointer;
fill:rgba(227,117,111,1);
}
.zr15-cls-172:hover {
cursor:pointer;
fill:rgba(251,193,150,1);
}
.zr15-cls-173:hover {
cursor:pointer;
fill:rgba(255,226,165,1);
}
.zr15-cls-174:hover {
cursor:pointer;
}

]]>

</style>
</svg>