<svg width="600" height="450" xmlns="http://www.w3.org/2000/svg" xmlns:xlink="http://www.w3.org/1999/xlink" version="1.1" baseProfile="full" viewBox="0 0 600 450">
<rect width="600" height="450" x="0" y="0" fill="none"></rect>
<path d="M60 300l492 0l0 -48l-492 0Z" fill="rgb(250,250,250)" fill-opacity="0.2" class="zr15-cls-52"></path>
<path d="M60 252l492 0l0 -48l-492 0Z" fill="rgb(210,219,238)" fill-opacity="0.2" class="zr15-cls-52"></path>
<path d="M60 204l492 0l0 -48l-492 0Z" fill="rgb(250,250,250)" fill-opacity="0.2" class="zr15-cls-52"></path>
<path d="M60 156l492 0l0 -48l-492 0Z" fill="rgb(210,219,238)" fill-opacity="0.2" class="zr15-cls-52"></path>
<path d="M60 108l492 0l0 -48l-492 0Z" fill="rgb(250,250,250)" fill-opacity="0.2" class="zr15-cls-52"></path>
<path d="M60 300.5L552 300.5" fill="transparent" stroke="#E0E6F1" class="zr15-cls-52"></path>
<path d="M60 252.5L552 252.5" fill="transparent" stroke="#E0E6F1" class="zr15-cls-52"></path>
<path d="M60 204.5L552 204.5" fill="transparent" stroke="#E0E6F1" class="zr15-cls-52"></path>
<path d="M60 156.5L552 156.5" fill="transparent" stroke="#E0E6F1" class="zr15-cls-52"></path>
<path d="M60 108.5L552 108.5" fill="transparent" stroke="#E0E6F1" class="zr15-cls-52"></path>
<path d="M60 60.5L552 60.5" fill="transparent" stroke="#E0E6F1" class="zr15-cls-52"></path>
<path d="M60 300.5L552 300.5" fill="transparent" stroke="#6E7079" stroke-linecap="round" class="zr15-cls-52"></path>
<path d="M83.5 300L83.5 305" fill="transparent" stroke="#6E7079" class="zr15-cls-52"></path>
<path d="M169.5 300L169.5 305" fill="transparent" stroke="#6E7079" class="zr15-cls-52"></path>
<path d="M255.5 300L255.5 305" fill="transparent" stroke="#6E7079" class="zr15-cls-52"></path>
<path d="M341.5 300L341.5 305" fill="transparent" stroke="#6E7079" class="zr15-cls-52"></path>
<path d="M427.5 300L427.5 305" fill="transparent" stroke="#6E7079" class="zr15-cls-52"></path>
<path d="M513.5 300L513.5 305" fill="transparent" stroke="#6E7079" class="zr15-cls-52"></path>
<text dominant-baseline="central" text-anchor="end" style="font-size:12px;font-family:sans-serif;" transform="translate(52 300)" fill="#6E7079">17,200</text>
<text dominant-baseline="central" text-anchor="end" style="font-size:12px;font-family:sans-serif;" transform="translate(52 252)" fill="#6E7079">17,400</text>
<text dominant-baseline="central" text-anchor="end" style="font-size:12px;font-family:sans-serif;" transform="translate(52 204)" fill="#6E7079">17,600</text>
<text dominant-baseline="central" text-anchor="end" style="font-size:12px;font-family:sans-serif;" transform="translate(52 156)" fill="#6E7079">17,800</text>
<text dominant-baseline="central" text-anchor="end" style="font-size:12px;font-family:sans-serif;" transform="translate(52 108)" fill="#6E7079">18,000</text>
<text dominant-baseline="central" text-anchor="end" style="font-size:12px;font-family:sans-serif;" transform="translate(52 60)" fill="#6E7079">18,200</text>
<text dominant-baseline="central" text-anchor="middle" style="font-size:12px;font-family:sans-serif;" y="6" transform="translate(83.4286 308)" fill="#6E7079">2016-03-29</text>
<text dominant-baseline="central" text-anchor="middle" style="font-size:12px;font-family:sans-serif;" y="6" transform="translate(169.3333 308)" fill="#6E7079">2016-04-13</text>
<text dominant-baseline="central" text-anchor="middle" style="font-size:12px;font-family:sans-serif;" y="6" transform="translate(255.2381 308)" fill="#6E7079">2016-04-28</text>
<text dominant-baseline="central" text-anchor="middle" style="font-size:12px;font-family:sans-serif;" y="6" transform="translate(341.1429 308)" fill="#6E7079">2016-05-13</text>
<text dominant-baseline="central" text-anchor="middle" style="font-size:12px;font-family:sans-serif;" y="6" transform="translate(427.0476 308)" fill="#6E7079">2016-05-31</text>
<text dominant-baseline="central" text-anchor="middle" style="font-size:12px;font-family:sans-serif;" y="6" transform="translate(512.9524 308)" fill="#6E7079">2016-06-15</text>
<path d="M60 231.3L60 206.7" fill="#5470c6" stroke="#5470c6" ecmeta_series_index="0" ecmeta_data_index="0" ecmeta_ssr_type="chart" class="zr15-cls-53"></path>
<path d="M60 206.7L57.3 206.7" fill="#5470c6" stroke="#5470c6" ecmeta_series_index="0" ecmeta_data_index="0" ecmeta_ssr_type="chart" class="zr15-cls-53"></path>
<path d="M60 227.4L62.7 227.4" fill="#5470c6" stroke="#5470c6" ecmeta_series_index="0" ecmeta_data_index="0" ecmeta_ssr_type="chart" class="zr15-cls-53"></path>
<path d="M67.8 252.2L67.8 223.9" fill="#5470c6" stroke="#5470c6" ecmeta_series_index="0" ecmeta_data_index="1" ecmeta_ssr_type="chart" class="zr15-cls-53"></path>
<path d="M67.8 231.5L65.1 231.5" fill="#5470c6" stroke="#5470c6" ecmeta_series_index="0" ecmeta_data_index="1" ecmeta_ssr_type="chart" class="zr15-cls-53"></path>
<path d="M67.8 224.2L70.5 224.2" fill="#5470c6" stroke="#5470c6" ecmeta_series_index="0" ecmeta_data_index="1" ecmeta_ssr_type="chart" class="zr15-cls-53"></path>
<path d="M75.6 229.7L75.6 207.9" fill="#5470c6" stroke="#5470c6" ecmeta_series_index="0" ecmeta_data_index="2" ecmeta_ssr_type="chart" class="zr15-cls-53"></path>
<path d="M75.6 221.7L72.9 221.7" fill="#5470c6" stroke="#5470c6" ecmeta_series_index="0" ecmeta_data_index="2" ecmeta_ssr_type="chart" class="zr15-cls-53"></path>
<path d="M75.6 219.5L78.4 219.5" fill="#5470c6" stroke="#5470c6" ecmeta_series_index="0" ecmeta_data_index="2" ecmeta_ssr_type="chart" class="zr15-cls-53"></path>
<path d="M83.4 243.8L83.4 193.7" fill="#5470c6" stroke="#5470c6" ecmeta_series_index="0" ecmeta_data_index="3" ecmeta_ssr_type="chart" class="zr15-cls-53"></path>
<path d="M83.4 225L80.7 225" fill="#5470c6" stroke="#5470c6" ecmeta_series_index="0" ecmeta_data_index="3" ecmeta_ssr_type="chart" class="zr15-cls-53"></path>
<path d="M83.4 196.1L86.2 196.1" fill="#5470c6" stroke="#5470c6" ecmeta_series_index="0" ecmeta_data_index="3" ecmeta_ssr_type="chart" class="zr15-cls-53"></path>
<path d="M91.2 191.4L91.2 158.4" fill="#5470c6" stroke="#5470c6" ecmeta_series_index="0" ecmeta_data_index="4" ecmeta_ssr_type="chart" class="zr15-cls-53"></path>
<path d="M91.2 191.4L88.5 191.4" fill="#5470c6" stroke="#5470c6" ecmeta_series_index="0" ecmeta_data_index="4" ecmeta_ssr_type="chart" class="zr15-cls-53"></path>
<path d="M91.2 176L94 176" fill="#5470c6" stroke="#5470c6" ecmeta_series_index="0" ecmeta_data_index="4" ecmeta_ssr_type="chart" class="zr15-cls-53"></path>
<path d="M99 187.3L99 166.6" fill="#5470c6" stroke="#5470c6" ecmeta_series_index="0" ecmeta_data_index="5" ecmeta_ssr_type="chart" class="zr15-cls-53"></path>
<path d="M99 176.1L96.3 176.1" fill="#5470c6" stroke="#5470c6" ecmeta_series_index="0" ecmeta_data_index="5" ecmeta_ssr_type="chart" class="zr15-cls-53"></path>
<path d="M99 183.6L101.8 183.6" fill="#5470c6" stroke="#5470c6" ecmeta_series_index="0" ecmeta_data_index="5" ecmeta_ssr_type="chart" class="zr15-cls-53"></path>
<path d="M106.9 211.7L106.9 153.2" fill="#5470c6" stroke="#5470c6" ecmeta_series_index="0" ecmeta_data_index="6" ecmeta_ssr_type="chart" class="zr15-cls-53"></path>
<path d="M106.9 189.2L104.1 189.2" fill="#5470c6" stroke="#5470c6" ecmeta_series_index="0" ecmeta_data_index="6" ecmeta_ssr_type="chart" class="zr15-cls-53"></path>
<path d="M106.9 157.7L109.6 157.7" fill="#5470c6" stroke="#5470c6" ecmeta_series_index="0" ecmeta_data_index="6" ecmeta_ssr_type="chart" class="zr15-cls-53"></path>
<path d="M114.7 177.4L114.7 154.5" fill="#5470c6" stroke="#5470c6" ecmeta_series_index="0" ecmeta_data_index="7" ecmeta_ssr_type="chart" class="zr15-cls-53"></path>
<path d="M114.7 156.1L111.9 156.1" fill="#5470c6" stroke="#5470c6" ecmeta_series_index="0" ecmeta_data_index="7" ecmeta_ssr_type="chart" class="zr15-cls-53"></path>
<path d="M114.7 171.1L117.4 171.1" fill="#5470c6" stroke="#5470c6" ecmeta_series_index="0" ecmeta_data_index="7" ecmeta_ssr_type="chart" class="zr15-cls-53"></path>
<path d="M122.5 208.9L122.5 175.7" fill="#5470c6" stroke="#5470c6" ecmeta_series_index="0" ecmeta_data_index="8" ecmeta_ssr_type="chart" class="zr15-cls-53"></path>
<path d="M122.5 175.7L119.7 175.7" fill="#5470c6" stroke="#5470c6" ecmeta_series_index="0" ecmeta_data_index="8" ecmeta_ssr_type="chart" class="zr15-cls-53"></path>
<path d="M122.5 203.2L125.2 203.2" fill="#5470c6" stroke="#5470c6" ecmeta_series_index="0" ecmeta_data_index="8" ecmeta_ssr_type="chart" class="zr15-cls-53"></path>
<path d="M130.3 217.8L130.3 174.3" fill="#5470c6" stroke="#5470c6" ecmeta_series_index="0" ecmeta_data_index="9" ecmeta_ssr_type="chart" class="zr15-cls-53"></path>
<path d="M130.3 202.7L127.6 202.7" fill="#5470c6" stroke="#5470c6" ecmeta_series_index="0" ecmeta_data_index="9" ecmeta_ssr_type="chart" class="zr15-cls-53"></path>
<path d="M130.3 176.1L133 176.1" fill="#5470c6" stroke="#5470c6" ecmeta_series_index="0" ecmeta_data_index="9" ecmeta_ssr_type="chart" class="zr15-cls-53"></path>
<path d="M138.1 231.8L138.1 183.1" fill="#5470c6" stroke="#5470c6" ecmeta_series_index="0" ecmeta_data_index="10" ecmeta_ssr_type="chart" class="zr15-cls-53"></path>
<path d="M138.1 183.1L135.4 183.1" fill="#5470c6" stroke="#5470c6" ecmeta_series_index="0" ecmeta_data_index="10" ecmeta_ssr_type="chart" class="zr15-cls-53"></path>
<path d="M138.1 217.9L140.8 217.9" fill="#5470c6" stroke="#5470c6" ecmeta_series_index="0" ecmeta_data_index="10" ecmeta_ssr_type="chart" class="zr15-cls-53"></path>
<path d="M145.9 221.2L145.9 181.3" fill="#5470c6" stroke="#5470c6" ecmeta_series_index="0" ecmeta_data_index="11" ecmeta_ssr_type="chart" class="zr15-cls-53"></path>
<path d="M145.9 214.7L143.2 214.7" fill="#5470c6" stroke="#5470c6" ecmeta_series_index="0" ecmeta_data_index="11" ecmeta_ssr_type="chart" class="zr15-cls-53"></path>
<path d="M145.9 209.5L148.6 209.5" fill="#5470c6" stroke="#5470c6" ecmeta_series_index="0" ecmeta_data_index="11" ecmeta_ssr_type="chart" class="zr15-cls-53"></path>
<path d="M153.7 214.6L153.7 172.4" fill="#5470c6" stroke="#5470c6" ecmeta_series_index="0" ecmeta_data_index="12" ecmeta_ssr_type="chart" class="zr15-cls-53"></path>
<path d="M153.7 207.2L151 207.2" fill="#5470c6" stroke="#5470c6" ecmeta_series_index="0" ecmeta_data_index="12" ecmeta_ssr_type="chart" class="zr15-cls-53"></path>
<path d="M153.7 214.5L156.4 214.5" fill="#5470c6" stroke="#5470c6" ecmeta_series_index="0" ecmeta_data_index="12" ecmeta_ssr_type="chart" class="zr15-cls-53"></path>
<path d="M161.5 215.1L161.5 169.3" fill="#5470c6" stroke="#5470c6" ecmeta_series_index="0" ecmeta_data_index="13" ecmeta_ssr_type="chart" class="zr15-cls-53"></path>
<path d="M161.5 210.9L158.8 210.9" fill="#5470c6" stroke="#5470c6" ecmeta_series_index="0" ecmeta_data_index="13" ecmeta_ssr_type="chart" class="zr15-cls-53"></path>
<path d="M161.5 174.9L164.3 174.9" fill="#5470c6" stroke="#5470c6" ecmeta_series_index="0" ecmeta_data_index="13" ecmeta_ssr_type="chart" class="zr15-cls-53"></path>
<path d="M169.3 170L169.3 127.6" fill="#5470c6" stroke="#5470c6" ecmeta_series_index="0" ecmeta_data_index="14" ecmeta_ssr_type="chart" class="zr15-cls-53"></path>
<path d="M169.3 170L166.6 170" fill="#5470c6" stroke="#5470c6" ecmeta_series_index="0" ecmeta_data_index="14" ecmeta_ssr_type="chart" class="zr15-cls-53"></path>
<path d="M169.3 130L172.1 130" fill="#5470c6" stroke="#5470c6" ecmeta_series_index="0" ecmeta_data_index="14" ecmeta_ssr_type="chart" class="zr15-cls-53"></path>
<path d="M177.1 135.5L177.1 117.1" fill="#5470c6" stroke="#5470c6" ecmeta_series_index="0" ecmeta_data_index="15" ecmeta_ssr_type="chart" class="zr15-cls-53"></path>
<path d="M177.1 129.1L174.4 129.1" fill="#5470c6" stroke="#5470c6" ecmeta_series_index="0" ecmeta_data_index="15" ecmeta_ssr_type="chart" class="zr15-cls-53"></path>
<path d="M177.1 125.7L179.9 125.7" fill="#5470c6" stroke="#5470c6" ecmeta_series_index="0" ecmeta_data_index="15" ecmeta_ssr_type="chart" class="zr15-cls-53"></path>
<path d="M185 139.8L185 123" fill="#5470c6" stroke="#5470c6" ecmeta_series_index="0" ecmeta_data_index="16" ecmeta_ssr_type="chart" class="zr15-cls-53"></path>
<path d="M185 125.8L182.2 125.8" fill="#5470c6" stroke="#5470c6" ecmeta_series_index="0" ecmeta_data_index="16" ecmeta_ssr_type="chart" class="zr15-cls-53"></path>
<path d="M185 132.6L187.7 132.6" fill="#5470c6" stroke="#5470c6" ecmeta_series_index="0" ecmeta_data_index="16" ecmeta_ssr_type="chart" class="zr15-cls-53"></path>
<path d="M192.8 144.4L192.8 105.7" fill="#5470c6" stroke="#5470c6" ecmeta_series_index="0" ecmeta_data_index="17" ecmeta_ssr_type="chart" class="zr15-cls-53"></path>
<path d="M192.8 134.4L190 134.4" fill="#5470c6" stroke="#5470c6" ecmeta_series_index="0" ecmeta_data_index="17" ecmeta_ssr_type="chart" class="zr15-cls-53"></path>
<path d="M192.8 107L195.5 107" fill="#5470c6" stroke="#5470c6" ecmeta_series_index="0" ecmeta_data_index="17" ecmeta_ssr_type="chart" class="zr15-cls-53"></path>
<path d="M200.6 111.7L200.6 83.2" fill="#5470c6" stroke="#5470c6" ecmeta_series_index="0" ecmeta_data_index="18" ecmeta_ssr_type="chart" class="zr15-cls-53"></path>
<path d="M200.6 105.1L197.8 105.1" fill="#5470c6" stroke="#5470c6" ecmeta_series_index="0" ecmeta_data_index="18" ecmeta_ssr_type="chart" class="zr15-cls-53"></path>
<path d="M200.6 95.1L203.3 95.1" fill="#5470c6" stroke="#5470c6" ecmeta_series_index="0" ecmeta_data_index="18" ecmeta_ssr_type="chart" class="zr15-cls-53"></path>
<path d="M208.4 100.5L208.4 67.8" fill="#5470c6" stroke="#5470c6" ecmeta_series_index="0" ecmeta_data_index="19" ecmeta_ssr_type="chart" class="zr15-cls-53"></path>
<path d="M208.4 93.7L205.6 93.7" fill="#5470c6" stroke="#5470c6" ecmeta_series_index="0" ecmeta_data_index="19" ecmeta_ssr_type="chart" class="zr15-cls-53"></path>
<path d="M208.4 84.9L211.1 84.9" fill="#5470c6" stroke="#5470c6" ecmeta_series_index="0" ecmeta_data_index="19" ecmeta_ssr_type="chart" class="zr15-cls-53"></path>
<path d="M216.2 116.7L216.2 82.3" fill="#5470c6" stroke="#5470c6" ecmeta_series_index="0" ecmeta_data_index="20" ecmeta_ssr_type="chart" class="zr15-cls-53"></path>
<path d="M216.2 85.7L213.5 85.7" fill="#5470c6" stroke="#5470c6" ecmeta_series_index="0" ecmeta_data_index="20" ecmeta_ssr_type="chart" class="zr15-cls-53"></path>
<path d="M216.2 112.2L218.9 112.2" fill="#5470c6" stroke="#5470c6" ecmeta_series_index="0" ecmeta_data_index="20" ecmeta_ssr_type="chart" class="zr15-cls-53"></path>
<path d="M224 129.6L224 101.6" fill="#5470c6" stroke="#5470c6" ecmeta_series_index="0" ecmeta_data_index="21" ecmeta_ssr_type="chart" class="zr15-cls-53"></path>
<path d="M224 111.6L221.3 111.6" fill="#5470c6" stroke="#5470c6" ecmeta_series_index="0" ecmeta_data_index="21" ecmeta_ssr_type="chart" class="zr15-cls-53"></path>
<path d="M224 107.1L226.7 107.1" fill="#5470c6" stroke="#5470c6" ecmeta_series_index="0" ecmeta_data_index="21" ecmeta_ssr_type="chart" class="zr15-cls-53"></path>
<path d="M231.8 142.7L231.8 110.2" fill="#5470c6" stroke="#5470c6" ecmeta_series_index="0" ecmeta_data_index="22" ecmeta_ssr_type="chart" class="zr15-cls-53"></path>
<path d="M231.8 110.2L229.1 110.2" fill="#5470c6" stroke="#5470c6" ecmeta_series_index="0" ecmeta_data_index="22" ecmeta_ssr_type="chart" class="zr15-cls-53"></path>
<path d="M231.8 113.5L234.5 113.5" fill="#5470c6" stroke="#5470c6" ecmeta_series_index="0" ecmeta_data_index="22" ecmeta_ssr_type="chart" class="zr15-cls-53"></path>
<path d="M239.6 123.8L239.6 97.5" fill="#5470c6" stroke="#5470c6" ecmeta_series_index="0" ecmeta_data_index="23" ecmeta_ssr_type="chart" class="zr15-cls-53"></path>
<path d="M239.6 111L236.9 111" fill="#5470c6" stroke="#5470c6" ecmeta_series_index="0" ecmeta_data_index="23" ecmeta_ssr_type="chart" class="zr15-cls-53"></path>
<path d="M239.6 110.3L242.4 110.3" fill="#5470c6" stroke="#5470c6" ecmeta_series_index="0" ecmeta_data_index="23" ecmeta_ssr_type="chart" class="zr15-cls-53"></path>
<path d="M247.4 127.1L247.4 87.7" fill="#5470c6" stroke="#5470c6" ecmeta_series_index="0" ecmeta_data_index="24" ecmeta_ssr_type="chart" class="zr15-cls-53"></path>
<path d="M247.4 108.9L244.7 108.9" fill="#5470c6" stroke="#5470c6" ecmeta_series_index="0" ecmeta_data_index="24" ecmeta_ssr_type="chart" class="zr15-cls-53"></path>
<path d="M247.4 98L250.2 98" fill="#5470c6" stroke="#5470c6" ecmeta_series_index="0" ecmeta_data_index="24" ecmeta_ssr_type="chart" class="zr15-cls-53"></path>
<path d="M255.2 156.8L255.2 99.4" fill="#5470c6" stroke="#5470c6" ecmeta_series_index="0" ecmeta_data_index="25" ecmeta_ssr_type="chart" class="zr15-cls-53"></path>
<path d="M255.2 102.3L252.5 102.3" fill="#5470c6" stroke="#5470c6" ecmeta_series_index="0" ecmeta_data_index="25" ecmeta_ssr_type="chart" class="zr15-cls-53"></path>
<path d="M255.2 148.6L258 148.6" fill="#5470c6" stroke="#5470c6" ecmeta_series_index="0" ecmeta_data_index="25" ecmeta_ssr_type="chart" class="zr15-cls-53"></path>
<path d="M263 191.5L263 152.4" fill="#5470c6" stroke="#5470c6" ecmeta_series_index="0" ecmeta_data_index="26" ecmeta_ssr_type="chart" class="zr15-cls-53"></path>
<path d="M263 152.9L260.3 152.9" fill="#5470c6" stroke="#5470c6" ecmeta_series_index="0" ecmeta_data_index="26" ecmeta_ssr_type="chart" class="zr15-cls-53"></path>
<path d="M263 162.3L265.8 162.3" fill="#5470c6" stroke="#5470c6" ecmeta_series_index="0" ecmeta_data_index="26" ecmeta_ssr_type="chart" class="zr15-cls-53"></path>
<path d="M270.9 162.3L270.9 129" fill="#5470c6" stroke="#5470c6" ecmeta_series_index="0" ecmeta_data_index="27" ecmeta_ssr_type="chart" class="zr15-cls-53"></path>
<path d="M270.9 159.9L268.1 159.9" fill="#5470c6" stroke="#5470c6" ecmeta_series_index="0" ecmeta_data_index="27" ecmeta_ssr_type="chart" class="zr15-cls-53"></path>
<path d="M270.9 134.1L273.6 134.1" fill="#5470c6" stroke="#5470c6" ecmeta_series_index="0" ecmeta_data_index="27" ecmeta_ssr_type="chart" class="zr15-cls-53"></path>
<path d="M278.7 187L278.7 139" fill="#5470c6" stroke="#5470c6" ecmeta_series_index="0" ecmeta_data_index="28" ecmeta_ssr_type="chart" class="zr15-cls-53"></path>
<path d="M278.7 139L275.9 139" fill="#5470c6" stroke="#5470c6" ecmeta_series_index="0" ecmeta_data_index="28" ecmeta_ssr_type="chart" class="zr15-cls-53"></path>
<path d="M278.7 167.8L281.4 167.8" fill="#5470c6" stroke="#5470c6" ecmeta_series_index="0" ecmeta_data_index="28" ecmeta_ssr_type="chart" class="zr15-cls-53"></path>
<path d="M286.5 201.8L286.5 170.9" fill="#5470c6" stroke="#5470c6" ecmeta_series_index="0" ecmeta_data_index="29" ecmeta_ssr_type="chart" class="zr15-cls-53"></path>
<path d="M286.5 171.6L283.7 171.6" fill="#5470c6" stroke="#5470c6" ecmeta_series_index="0" ecmeta_data_index="29" ecmeta_ssr_type="chart" class="zr15-cls-53"></path>
<path d="M286.5 191.7L289.2 191.7" fill="#5470c6" stroke="#5470c6" ecmeta_series_index="0" ecmeta_data_index="29" ecmeta_ssr_type="chart" class="zr15-cls-53"></path>
<path d="M294.3 200.2L294.3 171.3" fill="#5470c6" stroke="#5470c6" ecmeta_series_index="0" ecmeta_data_index="30" ecmeta_ssr_type="chart" class="zr15-cls-53"></path>
<path d="M294.3 188.5L291.6 188.5" fill="#5470c6" stroke="#5470c6" ecmeta_series_index="0" ecmeta_data_index="30" ecmeta_ssr_type="chart" class="zr15-cls-53"></path>
<path d="M294.3 189.4L297 189.4" fill="#5470c6" stroke="#5470c6" ecmeta_series_index="0" ecmeta_data_index="30" ecmeta_ssr_type="chart" class="zr15-cls-53"></path>
<path d="M302.1 208.7L302.1 169.3" fill="#5470c6" stroke="#5470c6" ecmeta_series_index="0" ecmeta_data_index="31" ecmeta_ssr_type="chart" class="zr15-cls-53"></path>
<path d="M302.1 191.9L299.4 191.9" fill="#5470c6" stroke="#5470c6" ecmeta_series_index="0" ecmeta_data_index="31" ecmeta_ssr_type="chart" class="zr15-cls-53"></path>
<path d="M302.1 170.2L304.8 170.2" fill="#5470c6" stroke="#5470c6" ecmeta_series_index="0" ecmeta_data_index="31" ecmeta_ssr_type="chart" class="zr15-cls-53"></path>
<path d="M309.9 187.6L309.9 160" fill="#5470c6" stroke="#5470c6" ecmeta_series_index="0" ecmeta_data_index="32" ecmeta_ssr_type="chart" class="zr15-cls-53"></path>
<path d="M309.9 169.5L307.2 169.5" fill="#5470c6" stroke="#5470c6" ecmeta_series_index="0" ecmeta_data_index="32" ecmeta_ssr_type="chart" class="zr15-cls-53"></path>
<path d="M309.9 178.6L312.6 178.6" fill="#5470c6" stroke="#5470c6" ecmeta_series_index="0" ecmeta_data_index="32" ecmeta_ssr_type="chart" class="zr15-cls-53"></path>
<path d="M317.7 173.6L317.7 123.7" fill="#5470c6" stroke="#5470c6" ecmeta_series_index="0" ecmeta_data_index="33" ecmeta_ssr_type="chart" class="zr15-cls-53"></path>
<path d="M317.7 173.6L315 173.6" fill="#5470c6" stroke="#5470c6" ecmeta_series_index="0" ecmeta_data_index="33" ecmeta_ssr_type="chart" class="zr15-cls-53"></path>
<path d="M317.7 125.2L320.4 125.2" fill="#5470c6" stroke="#5470c6" ecmeta_series_index="0" ecmeta_data_index="33" ecmeta_ssr_type="chart" class="zr15-cls-53"></path>
<path d="M325.5 177.3L325.5 127.4" fill="#5470c6" stroke="#5470c6" ecmeta_series_index="0" ecmeta_data_index="34" ecmeta_ssr_type="chart" class="zr15-cls-53"></path>
<path d="M325.5 127.4L322.8 127.4" fill="#5470c6" stroke="#5470c6" ecmeta_series_index="0" ecmeta_data_index="34" ecmeta_ssr_type="chart" class="zr15-cls-53"></path>
<path d="M325.5 177.3L328.3 177.3" fill="#5470c6" stroke="#5470c6" ecmeta_series_index="0" ecmeta_data_index="34" ecmeta_ssr_type="chart" class="zr15-cls-53"></path>
<path d="M333.3 197.9L333.3 156.4" fill="#5470c6" stroke="#5470c6" ecmeta_series_index="0" ecmeta_data_index="35" ecmeta_ssr_type="chart" class="zr15-cls-53"></path>
<path d="M333.3 177.3L330.6 177.3" fill="#5470c6" stroke="#5470c6" ecmeta_series_index="0" ecmeta_data_index="35" ecmeta_ssr_type="chart" class="zr15-cls-53"></path>
<path d="M333.3 175.1L336.1 175.1" fill="#5470c6" stroke="#5470c6" ecmeta_series_index="0" ecmeta_data_index="35" ecmeta_ssr_type="chart" class="zr15-cls-53"></path>
<path d="M341.1 225L341.1 171.7" fill="#5470c6" stroke="#5470c6" ecmeta_series_index="0" ecmeta_data_index="36" ecmeta_ssr_type="chart" class="zr15-cls-53"></path>
<path d="M341.1 177.3L338.4 177.3" fill="#5470c6" stroke="#5470c6" ecmeta_series_index="0" ecmeta_data_index="36" ecmeta_ssr_type="chart" class="zr15-cls-53"></path>
<path d="M341.1 219.5L343.9 219.5" fill="#5470c6" stroke="#5470c6" ecmeta_series_index="0" ecmeta_data_index="36" ecmeta_ssr_type="chart" class="zr15-cls-53"></path>
<path d="M349 220.4L349 166.6" fill="#5470c6" stroke="#5470c6" ecmeta_series_index="0" ecmeta_data_index="37" ecmeta_ssr_type="chart" class="zr15-cls-53"></path>
<path d="M349 220.4L346.2 220.4" fill="#5470c6" stroke="#5470c6" ecmeta_series_index="0" ecmeta_data_index="37" ecmeta_ssr_type="chart" class="zr15-cls-53"></path>
<path d="M349 177.4L351.7 177.4" fill="#5470c6" stroke="#5470c6" ecmeta_series_index="0" ecmeta_data_index="37" ecmeta_ssr_type="chart" class="zr15-cls-53"></path>
<path d="M356.8 235.2L356.8 179.6" fill="#5470c6" stroke="#5470c6" ecmeta_series_index="0" ecmeta_data_index="38" ecmeta_ssr_type="chart" class="zr15-cls-53"></path>
<path d="M356.8 179.6L354 179.6" fill="#5470c6" stroke="#5470c6" ecmeta_series_index="0" ecmeta_data_index="38" ecmeta_ssr_type="chart" class="zr15-cls-53"></path>
<path d="M356.8 220.8L359.5 220.8" fill="#5470c6" stroke="#5470c6" ecmeta_series_index="0" ecmeta_data_index="38" ecmeta_ssr_type="chart" class="zr15-cls-53"></path>
<path d="M364.6 247.6L364.6 195.3" fill="#5470c6" stroke="#5470c6" ecmeta_series_index="0" ecmeta_data_index="39" ecmeta_ssr_type="chart" class="zr15-cls-53"></path>
<path d="M364.6 227.7L361.8 227.7" fill="#5470c6" stroke="#5470c6" ecmeta_series_index="0" ecmeta_data_index="39" ecmeta_ssr_type="chart" class="zr15-cls-53"></path>
<path d="M364.6 221.6L367.3 221.6" fill="#5470c6" stroke="#5470c6" ecmeta_series_index="0" ecmeta_data_index="39" ecmeta_ssr_type="chart" class="zr15-cls-53"></path>
<path d="M372.4 268.5L372.4 224.6" fill="#5470c6" stroke="#5470c6" ecmeta_series_index="0" ecmeta_data_index="40" ecmeta_ssr_type="chart" class="zr15-cls-53"></path>
<path d="M372.4 224.6L369.6 224.6" fill="#5470c6" stroke="#5470c6" ecmeta_series_index="0" ecmeta_data_index="40" ecmeta_ssr_type="chart" class="zr15-cls-53"></path>
<path d="M372.4 243.5L375.1 243.5" fill="#5470c6" stroke="#5470c6" ecmeta_series_index="0" ecmeta_data_index="40" ecmeta_ssr_type="chart" class="zr15-cls-53"></path>
<path d="M380.2 243L380.2 210.8" fill="#5470c6" stroke="#5470c6" ecmeta_series_index="0" ecmeta_data_index="41" ecmeta_ssr_type="chart" class="zr15-cls-53"></path>
<path d="M380.2 243L377.5 243" fill="#5470c6" stroke="#5470c6" ecmeta_series_index="0" ecmeta_data_index="41" ecmeta_ssr_type="chart" class="zr15-cls-53"></path>
<path d="M380.2 227.8L382.9 227.8" fill="#5470c6" stroke="#5470c6" ecmeta_series_index="0" ecmeta_data_index="41" ecmeta_ssr_type="chart" class="zr15-cls-53"></path>
<path d="M388 232.8L388 215.8" fill="#5470c6" stroke="#5470c6" ecmeta_series_index="0" ecmeta_data_index="42" ecmeta_ssr_type="chart" class="zr15-cls-53"></path>
<path d="M388 226.3L385.3 226.3" fill="#5470c6" stroke="#5470c6" ecmeta_series_index="0" ecmeta_data_index="42" ecmeta_ssr_type="chart" class="zr15-cls-53"></path>
<path d="M388 229.7L390.7 229.7" fill="#5470c6" stroke="#5470c6" ecmeta_series_index="0" ecmeta_data_index="42" ecmeta_ssr_type="chart" class="zr15-cls-53"></path>
<path d="M395.8 222L395.8 169.8" fill="#5470c6" stroke="#5470c6" ecmeta_series_index="0" ecmeta_data_index="43" ecmeta_ssr_type="chart" class="zr15-cls-53"></path>
<path d="M395.8 222L393.1 222" fill="#5470c6" stroke="#5470c6" ecmeta_series_index="0" ecmeta_data_index="43" ecmeta_ssr_type="chart" class="zr15-cls-53"></path>
<path d="M395.8 178.5L398.5 178.5" fill="#5470c6" stroke="#5470c6" ecmeta_series_index="0" ecmeta_data_index="43" ecmeta_ssr_type="chart" class="zr15-cls-53"></path>
<path d="M403.6 171.6L403.6 134" fill="#5470c6" stroke="#5470c6" ecmeta_series_index="0" ecmeta_data_index="44" ecmeta_ssr_type="chart" class="zr15-cls-53"></path>
<path d="M403.6 171.6L400.9 171.6" fill="#5470c6" stroke="#5470c6" ecmeta_series_index="0" ecmeta_data_index="44" ecmeta_ssr_type="chart" class="zr15-cls-53"></path>
<path d="M403.6 143.6L406.4 143.6" fill="#5470c6" stroke="#5470c6" ecmeta_series_index="0" ecmeta_data_index="44" ecmeta_ssr_type="chart" class="zr15-cls-53"></path>
<path d="M411.4 155.1L411.4 134.7" fill="#5470c6" stroke="#5470c6" ecmeta_series_index="0" ecmeta_data_index="45" ecmeta_ssr_type="chart" class="zr15-cls-53"></path>
<path d="M411.4 141.7L408.7 141.7" fill="#5470c6" stroke="#5470c6" ecmeta_series_index="0" ecmeta_data_index="45" ecmeta_ssr_type="chart" class="zr15-cls-53"></path>
<path d="M411.4 149.2L414.2 149.2" fill="#5470c6" stroke="#5470c6" ecmeta_series_index="0" ecmeta_data_index="45" ecmeta_ssr_type="chart" class="zr15-cls-53"></path>
<path d="M419.2 150.1L419.2 138.4" fill="#5470c6" stroke="#5470c6" ecmeta_series_index="0" ecmeta_data_index="46" ecmeta_ssr_type="chart" class="zr15-cls-53"></path>
<path d="M419.2 149.6L416.5 149.6" fill="#5470c6" stroke="#5470c6" ecmeta_series_index="0" ecmeta_data_index="46" ecmeta_ssr_type="chart" class="zr15-cls-53"></path>
<path d="M419.2 138.4L422 138.4" fill="#5470c6" stroke="#5470c6" ecmeta_series_index="0" ecmeta_data_index="46" ecmeta_ssr_type="chart" class="zr15-cls-53"></path>
<path d="M427 174.2L427 132.2" fill="#5470c6" stroke="#5470c6" ecmeta_series_index="0" ecmeta_data_index="47" ecmeta_ssr_type="chart" class="zr15-cls-53"></path>
<path d="M427 134L424.3 134" fill="#5470c6" stroke="#5470c6" ecmeta_series_index="0" ecmeta_data_index="47" ecmeta_ssr_type="chart" class="zr15-cls-53"></path>
<path d="M427 159.1L429.8 159.1" fill="#5470c6" stroke="#5470c6" ecmeta_series_index="0" ecmeta_data_index="47" ecmeta_ssr_type="chart" class="zr15-cls-53"></path>
<path d="M434.9 188.5L434.9 153.8" fill="#5470c6" stroke="#5470c6" ecmeta_series_index="0" ecmeta_data_index="48" ecmeta_ssr_type="chart" class="zr15-cls-53"></path>
<path d="M434.9 166.9L432.1 166.9" fill="#5470c6" stroke="#5470c6" ecmeta_series_index="0" ecmeta_data_index="48" ecmeta_ssr_type="chart" class="zr15-cls-53"></path>
<path d="M434.9 158.5L437.6 158.5" fill="#5470c6" stroke="#5470c6" ecmeta_series_index="0" ecmeta_data_index="48" ecmeta_ssr_type="chart" class="zr15-cls-53"></path>
<path d="M442.7 179.1L442.7 146.7" fill="#5470c6" stroke="#5470c6" ecmeta_series_index="0" ecmeta_data_index="49" ecmeta_ssr_type="chart" class="zr15-cls-53"></path>
<path d="M442.7 158.6L439.9 158.6" fill="#5470c6" stroke="#5470c6" ecmeta_series_index="0" ecmeta_data_index="49" ecmeta_ssr_type="chart" class="zr15-cls-53"></path>
<path d="M442.7 146.7L445.4 146.7" fill="#5470c6" stroke="#5470c6" ecmeta_series_index="0" ecmeta_data_index="49" ecmeta_ssr_type="chart" class="zr15-cls-53"></path>
<path d="M450.5 182.5L450.5 148" fill="#5470c6" stroke="#5470c6" ecmeta_series_index="0" ecmeta_data_index="50" ecmeta_ssr_type="chart" class="zr15-cls-53"></path>
<path d="M450.5 156L447.7 156" fill="#5470c6" stroke="#5470c6" ecmeta_series_index="0" ecmeta_data_index="50" ecmeta_ssr_type="chart" class="zr15-cls-53"></path>
<path d="M450.5 154.3L453.2 154.3" fill="#5470c6" stroke="#5470c6" ecmeta_series_index="0" ecmeta_data_index="50" ecmeta_ssr_type="chart" class="zr15-cls-53"></path>
<path d="M458.3 150.5L458.3 120.1" fill="#5470c6" stroke="#5470c6" ecmeta_series_index="0" ecmeta_data_index="51" ecmeta_ssr_type="chart" class="zr15-cls-53"></path>
<path d="M458.3 149.8L455.6 149.8" fill="#5470c6" stroke="#5470c6" ecmeta_series_index="0" ecmeta_data_index="51" ecmeta_ssr_type="chart" class="zr15-cls-53"></path>
<path d="M458.3 127.1L461 127.1" fill="#5470c6" stroke="#5470c6" ecmeta_series_index="0" ecmeta_data_index="51" ecmeta_ssr_type="chart" class="zr15-cls-53"></path>
<path d="M466.1 123.3L466.1 107.2" fill="#5470c6" stroke="#5470c6" ecmeta_series_index="0" ecmeta_data_index="52" ecmeta_ssr_type="chart" class="zr15-cls-53"></path>
<path d="M466.1 123.3L463.4 123.3" fill="#5470c6" stroke="#5470c6" ecmeta_series_index="0" ecmeta_data_index="52" ecmeta_ssr_type="chart" class="zr15-cls-53"></path>
<path d="M466.1 122.8L468.8 122.8" fill="#5470c6" stroke="#5470c6" ecmeta_series_index="0" ecmeta_data_index="52" ecmeta_ssr_type="chart" class="zr15-cls-53"></path>
<path d="M473.9 124.3L473.9 104.2" fill="#5470c6" stroke="#5470c6" ecmeta_series_index="0" ecmeta_data_index="53" ecmeta_ssr_type="chart" class="zr15-cls-53"></path>
<path d="M473.9 124.3L471.2 124.3" fill="#5470c6" stroke="#5470c6" ecmeta_series_index="0" ecmeta_data_index="53" ecmeta_ssr_type="chart" class="zr15-cls-53"></path>
<path d="M473.9 106.8L476.6 106.8" fill="#5470c6" stroke="#5470c6" ecmeta_series_index="0" ecmeta_data_index="53" ecmeta_ssr_type="chart" class="zr15-cls-53"></path>
<path d="M481.7 128.2L481.7 106.7" fill="#5470c6" stroke="#5470c6" ecmeta_series_index="0" ecmeta_data_index="54" ecmeta_ssr_type="chart" class="zr15-cls-53"></path>
<path d="M481.7 115.2L479 115.2" fill="#5470c6" stroke="#5470c6" ecmeta_series_index="0" ecmeta_data_index="54" ecmeta_ssr_type="chart" class="zr15-cls-53"></path>
<path d="M481.7 111.6L484.4 111.6" fill="#5470c6" stroke="#5470c6" ecmeta_series_index="0" ecmeta_data_index="54" ecmeta_ssr_type="chart" class="zr15-cls-53"></path>
<path d="M489.5 153L489.5 122.7" fill="#5470c6" stroke="#5470c6" ecmeta_series_index="0" ecmeta_data_index="55" ecmeta_ssr_type="chart" class="zr15-cls-53"></path>
<path d="M489.5 122.7L486.8 122.7" fill="#5470c6" stroke="#5470c6" ecmeta_series_index="0" ecmeta_data_index="55" ecmeta_ssr_type="chart" class="zr15-cls-53"></path>
<path d="M489.5 140.3L492.3 140.3" fill="#5470c6" stroke="#5470c6" ecmeta_series_index="0" ecmeta_data_index="55" ecmeta_ssr_type="chart" class="zr15-cls-53"></path>
<path d="M497.3 172.5L497.3 133.6" fill="#5470c6" stroke="#5470c6" ecmeta_series_index="0" ecmeta_data_index="56" ecmeta_ssr_type="chart" class="zr15-cls-53"></path>
<path d="M497.3 148.7L494.6 148.7" fill="#5470c6" stroke="#5470c6" ecmeta_series_index="0" ecmeta_data_index="56" ecmeta_ssr_type="chart" class="zr15-cls-53"></path>
<path d="M497.3 172.2L500.1 172.2" fill="#5470c6" stroke="#5470c6" ecmeta_series_index="0" ecmeta_data_index="56" ecmeta_ssr_type="chart" class="zr15-cls-53"></path>
<path d="M505.1 205L505.1 171.9" fill="#5470c6" stroke="#5470c6" ecmeta_series_index="0" ecmeta_data_index="57" ecmeta_ssr_type="chart" class="zr15-cls-53"></path>
<path d="M505.1 177.4L502.4 177.4" fill="#5470c6" stroke="#5470c6" ecmeta_series_index="0" ecmeta_data_index="57" ecmeta_ssr_type="chart" class="zr15-cls-53"></path>
<path d="M505.1 186L507.9 186" fill="#5470c6" stroke="#5470c6" ecmeta_series_index="0" ecmeta_data_index="57" ecmeta_ssr_type="chart" class="zr15-cls-53"></path>
<path d="M513 197L513 164.9" fill="#5470c6" stroke="#5470c6" ecmeta_series_index="0" ecmeta_data_index="58" ecmeta_ssr_type="chart" class="zr15-cls-53"></path>
<path d="M513 179.1L510.2 179.1" fill="#5470c6" stroke="#5470c6" ecmeta_series_index="0" ecmeta_data_index="58" ecmeta_ssr_type="chart" class="zr15-cls-53"></path>
<path d="M513 194.4L515.7 194.4" fill="#5470c6" stroke="#5470c6" ecmeta_series_index="0" ecmeta_data_index="58" ecmeta_ssr_type="chart" class="zr15-cls-53"></path>
<path d="M520.8 234.9L520.8 166.8" fill="#5470c6" stroke="#5470c6" ecmeta_series_index="0" ecmeta_data_index="59" ecmeta_ssr_type="chart" class="zr15-cls-53"></path>
<path d="M520.8 203.5L518 203.5" fill="#5470c6" stroke="#5470c6" ecmeta_series_index="0" ecmeta_data_index="59" ecmeta_ssr_type="chart" class="zr15-cls-53"></path>
<path d="M520.8 172.1L523.5 172.1" fill="#5470c6" stroke="#5470c6" ecmeta_series_index="0" ecmeta_data_index="59" ecmeta_ssr_type="chart" class="zr15-cls-53"></path>
<path d="M528.6 203.3L528.6 172" fill="#5470c6" stroke="#5470c6" ecmeta_series_index="0" ecmeta_data_index="60" ecmeta_ssr_type="chart" class="zr15-cls-53"></path>
<path d="M528.6 172L525.8 172" fill="#5470c6" stroke="#5470c6" ecmeta_series_index="0" ecmeta_data_index="60" ecmeta_ssr_type="chart" class="zr15-cls-53"></path>
<path d="M528.6 186L531.3 186" fill="#5470c6" stroke="#5470c6" ecmeta_series_index="0" ecmeta_data_index="60" ecmeta_ssr_type="chart" class="zr15-cls-53"></path>
<path d="M536.4 171.2L536.4 120.9" fill="#5470c6" stroke="#5470c6" ecmeta_series_index="0" ecmeta_data_index="61" ecmeta_ssr_type="chart" class="zr15-cls-53"></path>
<path d="M536.4 171.2L533.6 171.2" fill="#5470c6" stroke="#5470c6" ecmeta_series_index="0" ecmeta_data_index="61" ecmeta_ssr_type="chart" class="zr15-cls-53"></path>
<path d="M536.4 154.8L539.1 154.8" fill="#5470c6" stroke="#5470c6" ecmeta_series_index="0" ecmeta_data_index="61" ecmeta_ssr_type="chart" class="zr15-cls-53"></path>
<path d="M544.2 156L544.2 137.3" fill="#5470c6" stroke="#5470c6" ecmeta_series_index="0" ecmeta_data_index="62" ecmeta_ssr_type="chart" class="zr15-cls-53"></path>
<path d="M544.2 149.4L541.5 149.4" fill="#5470c6" stroke="#5470c6" ecmeta_series_index="0" ecmeta_data_index="62" ecmeta_ssr_type="chart" class="zr15-cls-53"></path>
<path d="M544.2 148.9L546.9 148.9" fill="#5470c6" stroke="#5470c6" ecmeta_series_index="0" ecmeta_data_index="62" ecmeta_ssr_type="chart" class="zr15-cls-53"></path>
<path d="M552 163.1L552 127.2" fill="#5470c6" stroke="#5470c6" ecmeta_series_index="0" ecmeta_data_index="63" ecmeta_ssr_type="chart" class="zr15-cls-53"></path>
<path d="M552 148.2L549.3 148.2" fill="#5470c6" stroke="#5470c6" ecmeta_series_index="0" ecmeta_data_index="63" ecmeta_ssr_type="chart" class="zr15-cls-53"></path>
<path d="M552 160.6L554.7 160.6" fill="#5470c6" stroke="#5470c6" ecmeta_series_index="0" ecmeta_data_index="63" ecmeta_ssr_type="chart" class="zr15-cls-53"></path>
<path d="M0 0l492 0l0 30l-492 0Z" transform="matrix(1,0,0,-1,62.8,396.5)" fill="rgb(47,69,84)" fill-opacity="0" class="zr15-cls-52"></path>
<path d="M-5 -5l132.3 0l0 24l-132.3 0Z" transform="translate(238.86 421)" fill="rgb(0,0,0)" fill-opacity="0" stroke="#ccc" stroke-width="0" class="zr15-cls-52"></path>
<path d="M3.5 0L21.5 0A3.5 3.5 0 0 1 25 3.5L25 10.5A3.5 3.5 0 0 1 21.5 14L3.5 14A3.5 3.5 0 0 1 0 10.5L0 3.5A3.5 3.5 0 0 1 3.5 0" transform="translate(238.86 421)" fill="#5470c6" ecmeta_series_index="0" ecmeta_data_index="0" ecmeta_ssr_type="legend" ecmeta_silent="true" class="zr15-cls-52"></path>
<text dominant-baseline="central" text-anchor="start" style="font-size:12px;font-family:sans-serif;" xml:space="preserve" x="30" y="7" transform="translate(238.86 421)" fill="#333">Dow-Jones index</text>
<path d="M0 0l122.3 0l0 14l-122.3 0Z" transform="translate(238.86 421)" fill="transparent" ecmeta_series_index="0" ecmeta_data_index="0" ecmeta_ssr_type="legend" class="zr15-cls-54"></path>
<path d="M0 0l492 0l0 30l-492 0Z" transform="matrix(1,0,0,-1,62.8,396.5)" fill="transparent" class="zr15-cls-54"></path>
<path d="M482.2 0l9.8 0l0 30l-9.8 0Z" transform="matrix(1,0,0,-1,62.8,396.5)" fill="rgb(135,175,255)" fill-opacity="0.2" class="zr15-cls-52"></path>
<path d="M3.5 0.5L488.5 0.5A3 3 0 0 1 491.5 3.5L491.5 26.5A3 3 0 0 1 488.5 29.5L3.5 29.5A3 3 0 0 1 0.5 26.5L0.5 3.5A3 3 0 0 1 3.5 0.5" transform="matrix(1,0,0,-1,62.8,396.5)" fill="rgb(0,0,0)" fill-opacity="0" stroke="#d2dbee" class="zr15-cls-52"></path>
<path d="M482.2 29.5L492 29.5L492 34.5A2 2 0 0 1 490 36.5L484.2 36.5A2 2 0 0 1 482.2 34.5L482.2 29.5" transform="matrix(1,0,0,-1,62.8,396.5)" fill="#D2DBEE" fill-opacity="0.7" class="zr15-cls-52"></path>
<path d="M-2.2 -1.7C-1.9 -1.7 -1.7 -1.5 -1.7 -1.1L-1.7 1.1C-1.7 1.5 -1.9 1.7 -2.2 1.7C-2.6 1.7 -2.8 1.5 -2.8 1.1L-2.8 -1.1C-2.8 -1.5 -2.6 -1.7 -2.2 -1.7ZM0 -1.7C0.4 -1.7 0.6 -1.5 0.6 -1.1L0.6 1.1C0.6 1.5 0.4 1.7 0 1.7C-0.4 1.7 -0.6 1.5 -0.6 1.1L-0.6 -1.1C-0.6 -1.5 -0.4 -1.7 0 -1.7ZM2.2 -1.7C2.6 -1.7 2.8 -1.5 2.8 -1.1L2.8 1.1C2.8 1.5 2.6 1.7 2.2 1.7C1.9 1.7 1.7 1.5 1.7 1.1L1.7 -1.1C1.7 -1.5 1.9 -1.7 2.2 -1.7Z" transform="matrix(1,0,0,-1,549.88,363.5)" fill="#fff" class="zr15-cls-52"></path>
<path d="M0 1.63L0 2M0 0L0 0.38M-0.1 0.38L0.1 0.38A0.1 0.1 0 0 1 0.2 0.47L0.2 1.52A0.1 0.1 0 0 1 0.1 1.62L-0.1 1.63A0.1 0.1 0 0 1 -0.2 1.52L-0.2 0.47A0.1 0.1 0 0 1 -0.1 0.37Z" transform="matrix(15,0,0,-15,545.96,396.5)" fill="#fff" stroke="#ACB8D1" stroke-width="0.06666666666666667" class="zr15-cls-55"></path>
<path d="M0 1.63L0 2M0 0L0 0.38M-0.1 0.38L0.1 0.38A0.1 0.1 0 0 1 0.2 0.47L0.2 1.52A0.1 0.1 0 0 1 0.1 1.62L-0.1 1.63A0.1 0.1 0 0 1 -0.2 1.52L-0.2 0.47A0.1 0.1 0 0 1 -0.1 0.37Z" transform="matrix(15,0,0,-15,553.8,396.5)" fill="#fff" stroke="#ACB8D1" stroke-width="0.06666666666666667" class="zr15-cls-55"></path>
<path d="M-15 -15l110.9 0l0 30l-110.9 0Z" transform="translate(504.0952 15)" fill="transparent" stroke="#ccc" stroke-width="0" class="zr15-cls-52"></path>
<path d="M-7.5 -4L-0.5 -4M-4 -0.5L-4 -7.5M0.8 -4L7.5 -4L7.5 7.5L-4 7.5L-4 0.8" transform="translate(504.0952 15)" fill="transparent" stroke="#666" class="zr15-cls-56"></path>
<path d="M-2.8 -7.5L-6 -4.3L-2.7 -1M-5.8 -4.3L6 -4.3L6 7.5L-5.8 7.5L-5.8 0.6" transform="translate(530.5476 15)" fill="transparent" stroke="#666" class="zr15-cls-56"></path>
<path d="M-4.9 0M-3.9 -3.1L-3.9 -6.1L-1.9 -6.1M-0.6 -6.1L0.6 -6.1M3.9 -3.1L3.9 -6.1L1.8 -6.1M-3.9 3.1L-3.9 6.1L-1.9 6.1M-0.6 6.1L0.6 6.1M3.9 3.1L3.9 6.1L1.8 6.1M-5.5 -2.1L-7.5 0L-5.4 2.1M-7.5 0L-3.9 0M5.5 -2.1L7.5 0L5.4 2.1M7.5 0L3.9 0" transform="translate(557 15)" fill="transparent" stroke="#666" class="zr15-cls-56"></path>
<path d="M-3.5 -3.5L3.5 3.6M3.5 -3.5L-3.5 3.6M-7.5 -3L-7.5 -5.9L-4.5 -5.9M-2.6 -5.9L-0.8 -5.9M0.9 -5.9L2.7 -5.9M7.5 -3L7.5 -5.9L4.5 -5.9M-7.5 -0.9L-7.5 1M7.5 -0.9L7.5 1M-7.5 3L-7.5 5.9L-4.5 5.9M-2.6 5.9L-0.8 5.9M0.9 5.9L2.7 5.9M7.5 3L7.5 5.9L4.5 5.9" transform="translate(585 15)" fill="transparent" stroke="#666" class="zr15-cls-56"></path>
<style ><![CDATA[
.zr15-cls-52:hover {
pointer-events:none;
}
.zr15-cls-53:hover {
cursor:pointer;
fill:rgba(92,123,217,1);
}
.zr15-cls-54:hover {
cursor:pointer;
fill:rgba(0,0,0,0);
}
.zr15-cls-55:hover {
cursor:pointer;
fill:rgba(255,255,255,1);
stroke:#8FB0F7;
}
.zr15-cls-56:hover {
cursor:pointer;
stroke:#3E98C5;
}

]]>

</style>
</svg>