<svg width="600" height="450" xmlns="http://www.w3.org/2000/svg" xmlns:xlink="http://www.w3.org/1999/xlink" version="1.1" baseProfile="full" viewBox="0 0 600 450">
<rect width="600" height="450" x="0" y="0" id="0" fill="none"></rect>
<path d="M60 370.5L540 370.5" fill="none" stroke="#6E7079" stroke-linecap="round"></path>
<path d="M60.5 370L60.5 375" fill="none" stroke="#6E7079"></path>
<path d="M140.5 370L140.5 375" fill="none" stroke="#6E7079"></path>
<path d="M220.5 370L220.5 375" fill="none" stroke="#6E7079"></path>
<path d="M300.5 370L300.5 375" fill="none" stroke="#6E7079"></path>
<path d="M380.5 370L380.5 375" fill="none" stroke="#6E7079"></path>
<path d="M460.5 370L460.5 375" fill="none" stroke="#6E7079"></path>
<path d="M540.5 370L540.5 375" fill="none" stroke="#6E7079"></path>
<text dominant-baseline="central" text-anchor="end" style="font-size:12px;font-family:sans-serif;" transform="translate(52 370)" fill="#6E7079">0</text>
<text dominant-baseline="central" text-anchor="end" style="font-size:12px;font-family:sans-serif;" transform="translate(52 318.3333)" fill="#6E7079">1,000</text>
<text dominant-baseline="central" text-anchor="end" style="font-size:12px;font-family:sans-serif;" transform="translate(52 266.6667)" fill="#6E7079">2,000</text>
<text dominant-baseline="central" text-anchor="end" style="font-size:12px;font-family:sans-serif;" transform="translate(52 215)" fill="#6E7079">3,000</text>
<text dominant-baseline="central" text-anchor="end" style="font-size:12px;font-family:sans-serif;" transform="translate(52 163.3333)" fill="#6E7079">4,000</text>
<text dominant-baseline="central" text-anchor="end" style="font-size:12px;font-family:sans-serif;" transform="translate(52 111.6667)" fill="#6E7079">5,000</text>
<text dominant-baseline="central" text-anchor="end" style="font-size:12px;font-family:sans-serif;" transform="translate(52 60)" fill="#6E7079">6,000</text>
<text dominant-baseline="central" text-anchor="middle" style="font-size:12px;font-family:sans-serif;" y="6" transform="translate(140.9756 378)" fill="#6E7079">2015/3/6</text>
<text dominant-baseline="central" text-anchor="middle" style="font-size:12px;font-family:sans-serif;" y="6" transform="translate(220.9756 378)" fill="#6E7079">2015/5/6</text>
<text dominant-baseline="central" text-anchor="middle" style="font-size:12px;font-family:sans-serif;" y="6" transform="translate(300.9756 378)" fill="#6E7079">2015/7/3</text>
<text dominant-baseline="central" text-anchor="middle" style="font-size:12px;font-family:sans-serif;" y="6" transform="translate(380.9756 378)" fill="#6E7079">2015/8/31</text>
<text dominant-baseline="central" text-anchor="middle" style="font-size:12px;font-family:sans-serif;" y="6" transform="translate(460.9756 378)" fill="#6E7079">2015/11/5</text>
<path d="M60.5 370" fill="#eb5454" stroke="#eb5454"></path>
<path d="M62.5 370" fill="#eb5454" stroke="#eb5454"></path>
<path d="M64.5 195.9L64.5 201.9" fill="#eb5454" stroke="#eb5454"></path>
<path d="M66.5 194.6L66.5 199.3" fill="#eb5454" stroke="#eb5454"></path>
<path d="M68.5 195.6L68.5 198.9" fill="#eb5454" stroke="#eb5454"></path>
<path d="M70.5 195.3L70.5 200.3" fill="#47b262" stroke="#47b262"></path>
<path d="M72.5 194.1L72.5 201.2" fill="#eb5454" stroke="#eb5454"></path>
<path d="M74.5 200.8L74.5 205.1" fill="#47b262" stroke="#47b262"></path>
<path d="M76.5 201.6L76.5 203.9" fill="#eb5454" stroke="#eb5454"></path>
<path d="M78.5 201.1L78.5 205" fill="#47b262" stroke="#47b262"></path>
<path d="M80.5 197.6L80.5 204.3" fill="#eb5454" stroke="#eb5454"></path>
<path d="M82.5 194.3L82.5 197.4" fill="#eb5454" stroke="#eb5454"></path>
<path d="M84.5 201.5L84.5 210.1" fill="#47b262" stroke="#47b262"></path>
<path d="M86.5 205.2L86.5 209.8" fill="#eb5454" stroke="#eb5454"></path>
<path d="M88.5 197.6L88.5 205.8" fill="#eb5454" stroke="#eb5454"></path>
<path d="M89.5 196.8L89.5 199.8" fill="#eb5454" stroke="#eb5454"></path>
<path d="M91.5 194L91.5 198" fill="#47b262" stroke="#47b262"></path>
<path d="M93.5 195.1L93.5 198.4" fill="#eb5454" stroke="#eb5454"></path>
<path d="M95.5 194.8L95.5 200" fill="#47b262" stroke="#47b262"></path>
<path d="M97.5 196.7L97.5 199.8" fill="#47b262" stroke="#47b262"></path>
<path d="M99.5 200.2L99.5 202.9" fill="#eb5454" stroke="#eb5454"></path>
<path d="M101.5 200.1L101.5 204.1" fill="#47b262" stroke="#47b262"></path>
<path d="M103.5 206L103.5 208.7" fill="#47b262" stroke="#47b262"></path>
<path d="M105.5 204.3L105.5 208.3" fill="#eb5454" stroke="#eb5454"></path>
<path d="M107.5 202.7L107.5 206.2" fill="#47b262" stroke="#47b262"></path>
<path d="M109.5 202L109.5 208" fill="#47b262" stroke="#47b262"></path>
<path d="M111.5 208.3L111.5 212.3" fill="#47b262" stroke="#47b262"></path>
<path d="M113.5 208.9L113.5 212.5" fill="#eb5454" stroke="#eb5454"></path>
<path d="M115.5 207.7L115.5 210.6" fill="#eb5454" stroke="#eb5454"></path>
<path d="M117.5 206.4L117.5 207.8" fill="#eb5454" stroke="#eb5454"></path>
<path d="M119.5 205.6L119.5 208.1" fill="#eb5454" stroke="#eb5454"></path>
<path d="M121.5 202.7L121.5 205.6" fill="#eb5454" stroke="#eb5454"></path>
<path d="M123.5 203.2L123.5 204.9" fill="#eb5454" stroke="#eb5454"></path>
<path d="M125.5 201.8L125.5 203.1" fill="#eb5454" stroke="#eb5454"></path>
<path d="M127.5 201.7L127.5 203.9" fill="#47b262" stroke="#47b262"></path>
<path d="M129.5 199.5L129.5 204.6" fill="#eb5454" stroke="#eb5454"></path>
<path d="M130.5 198.2L130.5 200" fill="#eb5454" stroke="#eb5454"></path>
<path d="M132.5 197.6L132.5 199.6" fill="#eb5454" stroke="#eb5454"></path>
<path d="M134.5 198.6L134.5 201.5" fill="#47b262" stroke="#47b262"></path>
<path d="M136.5 200.2L136.5 202.1" fill="#eb5454" stroke="#eb5454"></path>
<path d="M138.5 201.2L138.5 203.5" fill="#47b262" stroke="#47b262"></path>
<path d="M140.5 201.2L140.5 202.9" fill="#47b262" stroke="#47b262"></path>
<path d="M142.5 199.1L142.5 204.8" fill="#eb5454" stroke="#eb5454"></path>
<path d="M144.5 199L144.5 200.7" fill="#47b262" stroke="#47b262"></path>
<path d="M146.5 198.2L146.5 200.6" fill="#eb5454" stroke="#eb5454"></path>
<path d="M148.5 196.4L148.5 199.5" fill="#eb5454" stroke="#eb5454"></path>
<path d="M150.5 194.8L150.5 196.8" fill="#eb5454" stroke="#eb5454"></path>
<path d="M152.5 191.8L152.5 195.5" fill="#eb5454" stroke="#eb5454"></path>
<path d="M154.5 189L154.5 191.2" fill="#eb5454" stroke="#eb5454"></path>
<path d="M156.5 185.2L156.5 189" fill="#eb5454" stroke="#eb5454"></path>
<path d="M158.5 184L158.5 186.7" fill="#eb5454" stroke="#eb5454"></path>
<path d="M160.5 182.3L160.5 185.6" fill="#eb5454" stroke="#eb5454"></path>
<path d="M162.5 179.4L162.5 182.2" fill="#eb5454" stroke="#eb5454"></path>
<path d="M164.5 178L164.5 184" fill="#47b262" stroke="#47b262"></path>
<path d="M166.5 179.2L166.5 182.2" fill="#47b262" stroke="#47b262"></path>
<path d="M168.5 178.5L168.5 183.2" fill="#eb5454" stroke="#eb5454"></path>
<path d="M169.5 178.3L169.5 181.1" fill="#eb5454" stroke="#eb5454"></path>
<path d="M171.5 173.9L171.5 178.3" fill="#eb5454" stroke="#eb5454"></path>
<path d="M173.5 171.8L173.5 176.9" fill="#47b262" stroke="#47b262"></path>
<path d="M175.5 172.8L175.5 176.7" fill="#eb5454" stroke="#eb5454"></path>
<path d="M177.5 171.8L177.5 174.9" fill="#47b262" stroke="#47b262"></path>
<path d="M179.5 170.3L179.5 174.1" fill="#eb5454" stroke="#eb5454"></path>
<path d="M181.5 165.3L181.5 168.9" fill="#eb5454" stroke="#eb5454"></path>
<path d="M183.5 163.3L183.5 168.3" fill="#eb5454" stroke="#eb5454"></path>
<path d="M185.5 162.5L185.5 168.5" fill="#47b262" stroke="#47b262"></path>
<path d="M187.5 161.2L187.5 167" fill="#eb5454" stroke="#eb5454"></path>
<path d="M189.5 156.7L189.5 160.4" fill="#eb5454" stroke="#eb5454"></path>
<path d="M191.5 154.6L191.5 158.6" fill="#eb5454" stroke="#eb5454"></path>
<path d="M193.5 154.3L193.5 159.8" fill="#47b262" stroke="#47b262"></path>
<path d="M195.5 153.2L195.5 161.7" fill="#eb5454" stroke="#eb5454"></path>
<path d="M197.5 146.9L197.5 151" fill="#eb5454" stroke="#eb5454"></path>
<path d="M199.5 144.9L199.5 153.5" fill="#47b262" stroke="#47b262"></path>
<path d="M201.5 148.1L201.5 153.6" fill="#eb5454" stroke="#eb5454"></path>
<path d="M203.5 142.7L203.5 147.9" fill="#eb5454" stroke="#eb5454"></path>
<path d="M205.5 140.4L205.5 144.8" fill="#eb5454" stroke="#eb5454"></path>
<path d="M207.5 141.8L207.5 146.9" fill="#eb5454" stroke="#eb5454"></path>
<path d="M209.5 136L209.5 140.5" fill="#eb5454" stroke="#eb5454"></path>
<path d="M210.5 133.8L210.5 141" fill="#47b262" stroke="#47b262"></path>
<path d="M212.5 137.5L212.5 142.7" fill="#eb5454" stroke="#eb5454"></path>
<path d="M214.5 137.1L214.5 140.5" fill="#47b262" stroke="#47b262"></path>
<path d="M216.5 138.1L216.5 143.3" fill="#eb5454" stroke="#eb5454"></path>
<path d="M218.5 138.1L218.5 148.8" fill="#47b262" stroke="#47b262"></path>
<path d="M220.5 143.9L220.5 153.7" fill="#47b262" stroke="#47b262"></path>
<path d="M222.5 152.3L222.5 157.8" fill="#47b262" stroke="#47b262"></path>
<path d="M224.5 152.6L224.5 158.2" fill="#eb5454" stroke="#eb5454"></path>
<path d="M226.5 146L226.5 153.6" fill="#eb5454" stroke="#eb5454"></path>
<path d="M228.5 142.5L228.5 146.9" fill="#eb5454" stroke="#eb5454"></path>
<path d="M230.5 141.9L230.5 145.6" fill="#47b262" stroke="#47b262"></path>
<path d="M232.5 142.8L232.5 146.3" fill="#eb5454" stroke="#eb5454"></path>
<path d="M234.5 144.4L234.5 148.9" fill="#47b262" stroke="#47b262"></path>
<path d="M236.5 146.6L236.5 149.9" fill="#eb5454" stroke="#eb5454"></path>
<path d="M238.5 141.7L238.5 148.6" fill="#eb5454" stroke="#eb5454"></path>
<path d="M240.5 136.4L240.5 141" fill="#eb5454" stroke="#eb5454"></path>
<path d="M242.5 135.9L242.5 140.7" fill="#eb5454" stroke="#eb5454"></path>
<path d="M244.5 129.3L244.5 134.2" fill="#eb5454" stroke="#eb5454"></path>
<path d="M246.5 121.2L246.5 129.4" fill="#eb5454" stroke="#eb5454"></path>
<path d="M248.5 116.2L248.5 123.1" fill="#eb5454" stroke="#eb5454"></path>
<path d="M249.5 113.8L249.5 119.1" fill="#eb5454" stroke="#eb5454"></path>
<path d="M251.5 112.4L251.5 131.6" fill="#47b262" stroke="#47b262"></path>
<path d="M253.5 127.3L253.5 141" fill="#eb5454" stroke="#eb5454"></path>
<path d="M255.5 120.5L255.5 131.5" fill="#eb5454" stroke="#eb5454"></path>
<path d="M257.5 116.2L257.5 122.1" fill="#eb5454" stroke="#eb5454"></path>
<path d="M259.5 114.7L259.5 120.8" fill="#47b262" stroke="#47b262"></path>
<path d="M261.5 114.4L261.5 129.9" fill="#eb5454" stroke="#eb5454"></path>
<path d="M263.5 109L263.5 116.9" fill="#eb5454" stroke="#eb5454"></path>
<path d="M265.5 104.1L265.5 111.8" fill="#eb5454" stroke="#eb5454"></path>
<path d="M267.5 104L267.5 109.4" fill="#47b262" stroke="#47b262"></path>
<path d="M269.5 103.2L269.5 111.6" fill="#eb5454" stroke="#eb5454"></path>
<path d="M271.5 105.3L271.5 109" fill="#eb5454" stroke="#eb5454"></path>
<path d="M273.5 102.5L273.5 106.3" fill="#eb5454" stroke="#eb5454"></path>
<path d="M275.5 102.5L275.5 109.1" fill="#47b262" stroke="#47b262"></path>
<path d="M277.5 110.1L277.5 119.8" fill="#47b262" stroke="#47b262"></path>
<path d="M279.5 112.5L279.5 123.7" fill="#eb5454" stroke="#eb5454"></path>
<path d="M281.5 113.4L281.5 123" fill="#47b262" stroke="#47b262"></path>
<path d="M283.5 124.9L283.5 138.7" fill="#47b262" stroke="#47b262"></path>
<path d="M285.5 133.5L285.5 149.7" fill="#eb5454" stroke="#eb5454"></path>
<path d="M287.5 127.6L287.5 134.8" fill="#eb5454" stroke="#eb5454"></path>
<path d="M289.5 126.1L289.5 138.3" fill="#47b262" stroke="#47b262"></path>
<path d="M290.5 139.7L290.5 156.1" fill="#47b262" stroke="#47b262"></path>
<path d="M292.5 148L292.5 169.8" fill="#47b262" stroke="#47b262"></path>
<path d="M294.5 148.9L294.5 171.2" fill="#eb5454" stroke="#eb5454"></path>
<path d="M296.5 147L296.5 161.1" fill="#47b262" stroke="#47b262"></path>
<path d="M298.5 159.2L298.5 173.9" fill="#47b262" stroke="#47b262"></path>
<path d="M300.5 167.1L300.5 182.5" fill="#47b262" stroke="#47b262"></path>
<path d="M302.5 164.6L302.5 181.3" fill="#47b262" stroke="#47b262"></path>
<path d="M304.5 176.2L304.5 184.8" fill="#eb5454" stroke="#eb5454"></path>
<path d="M306.5 184L306.5 193.2" fill="#eb5454" stroke="#eb5454"></path>
<path d="M308.5 176.3L308.5 195.7" fill="#eb5454" stroke="#eb5454"></path>
<path d="M310.5 165.4L310.5 180" fill="#eb5454" stroke="#eb5454"></path>
<path d="M312.5 161.8L312.5 170.6" fill="#eb5454" stroke="#eb5454"></path>
<path d="M314.5 161.5L314.5 170.8" fill="#47b262" stroke="#47b262"></path>
<path d="M316.5 167.8L316.5 176.7" fill="#47b262" stroke="#47b262"></path>
<path d="M318.5 169.7L318.5 179.4" fill="#eb5454" stroke="#eb5454"></path>
<path d="M320.5 163.6L320.5 172.9" fill="#eb5454" stroke="#eb5454"></path>
<path d="M322.5 162.2L322.5 167.1" fill="#eb5454" stroke="#eb5454"></path>
<path d="M324.5 161.2L324.5 167.8" fill="#eb5454" stroke="#eb5454"></path>
<path d="M326.5 161.1L326.5 165.4" fill="#eb5454" stroke="#eb5454"></path>
<path d="M328.5 156.5L328.5 162.3" fill="#eb5454" stroke="#eb5454"></path>
<path d="M329.5 153.8L329.5 161" fill="#47b262" stroke="#47b262"></path>
<path d="M331.5 160.7L331.5 177.8" fill="#47b262" stroke="#47b262"></path>
<path d="M333.5 175.6L333.5 187.2" fill="#eb5454" stroke="#eb5454"></path>
<path d="M335.5 174.1L335.5 183.4" fill="#eb5454" stroke="#eb5454"></path>
<path d="M337.5 171.4L337.5 179.6" fill="#47b262" stroke="#47b262"></path>
<path d="M339.5 177.3L339.5 183" fill="#eb5454" stroke="#eb5454"></path>
<path d="M341.5 181.5L341.5 186.6" fill="#eb5454" stroke="#eb5454"></path>
<path d="M343.5 175.9L343.5 183.9" fill="#eb5454" stroke="#eb5454"></path>
<path d="M345.5 174.6L345.5 180.1" fill="#47b262" stroke="#47b262"></path>
<path d="M347.5 178.3L347.5 183.2" fill="#eb5454" stroke="#eb5454"></path>
<path d="M349.5 175.9L349.5 179.5" fill="#eb5454" stroke="#eb5454"></path>
<path d="M351.5 166.2L351.5 174.9" fill="#eb5454" stroke="#eb5454"></path>
<path d="M353.5 164.9L353.5 169" fill="#47b262" stroke="#47b262"></path>
<path d="M355.5 166.5L355.5 170" fill="#eb5454" stroke="#eb5454"></path>
<path d="M357.5 165.6L357.5 171.7" fill="#eb5454" stroke="#eb5454"></path>
<path d="M359.5 163.3L359.5 166.4" fill="#47b262" stroke="#47b262"></path>
<path d="M361.5 163.6L361.5 168.1" fill="#eb5454" stroke="#eb5454"></path>
<path d="M363.5 163L363.5 176.6" fill="#47b262" stroke="#47b262"></path>
<path d="M365.5 173.1L365.5 186.2" fill="#eb5454" stroke="#eb5454"></path>
<path d="M367.5 174.3L367.5 180.7" fill="#47b262" stroke="#47b262"></path>
<path d="M369.5 181.3L369.5 189.7" fill="#47b262" stroke="#47b262"></path>
<path d="M370.5 194.9L370.5 205.1" fill="#47b262" stroke="#47b262"></path>
<path d="M372.5 208.6L372.5 217.7" fill="#47b262" stroke="#47b262"></path>
<path d="M374.5 210.2L374.5 222.7" fill="#47b262" stroke="#47b262"></path>
<path d="M376.5 210.6L376.5 219.8" fill="#eb5454" stroke="#eb5454"></path>
<path d="M378.5 202.8L378.5 209.7" fill="#eb5454" stroke="#eb5454"></path>
<path d="M380.5 204.3L380.5 209.4" fill="#eb5454" stroke="#eb5454"></path>
<path d="M382.5 205.7L382.5 212.2" fill="#eb5454" stroke="#eb5454"></path>
<path d="M384.5 205L384.5 214" fill="#eb5454" stroke="#eb5454"></path>
<path d="M386.5 203.8L386.5 211.6" fill="#47b262" stroke="#47b262"></path>
<path d="M388.5 206L388.5 214.4" fill="#eb5454" stroke="#eb5454"></path>
<path d="M390.5 201.7L390.5 206.4" fill="#eb5454" stroke="#eb5454"></path>
<path d="M392.5 202.4L392.5 205.8" fill="#eb5454" stroke="#eb5454"></path>
<path d="M394.5 203.4L394.5 206.6" fill="#eb5454" stroke="#eb5454"></path>
<path d="M396.5 203.1L396.5 212.5" fill="#47b262" stroke="#47b262"></path>
<path d="M398.5 210.8L398.5 215.8" fill="#47b262" stroke="#47b262"></path>
<path d="M400.5 205.5L400.5 215.9" fill="#eb5454" stroke="#eb5454"></path>
<path d="M402.5 204.4L402.5 210.6" fill="#47b262" stroke="#47b262"></path>
<path d="M404.5 208.7L404.5 211.4" fill="#47b262" stroke="#47b262"></path>
<path d="M406.5 206.7L406.5 211.9" fill="#eb5454" stroke="#eb5454"></path>
<path d="M408.5 204L408.5 207.1" fill="#eb5454" stroke="#eb5454"></path>
<path d="M409.5 206.5L409.5 209.6" fill="#47b262" stroke="#47b262"></path>
<path d="M411.5 207.2L411.5 209.3" fill="#eb5454" stroke="#eb5454"></path>
<path d="M413.5 207.3L413.5 211.7" fill="#47b262" stroke="#47b262"></path>
<path d="M415.5 209.7L415.5 212.8" fill="#eb5454" stroke="#eb5454"></path>
<path d="M417.5 211.5L417.5 213.9" fill="#47b262" stroke="#47b262"></path>
<path d="M419.5 211.2L419.5 212.9" fill="#47b262" stroke="#47b262"></path>
<path d="M421.5 206.1L421.5 208.1" fill="#47b262" stroke="#47b262"></path>
<path d="M423.5 205L423.5 207.9" fill="#eb5454" stroke="#eb5454"></path>
<path d="M425.5 198.5L425.5 205.3" fill="#eb5454" stroke="#eb5454"></path>
<path d="M427.5 199.6L427.5 201.9" fill="#eb5454" stroke="#eb5454"></path>
<path d="M429.5 199.1L429.5 201.8" fill="#47b262" stroke="#47b262"></path>
<path d="M431.5 197.5L431.5 201.9" fill="#eb5454" stroke="#eb5454"></path>
<path d="M433.5 194.7L433.5 197.7" fill="#eb5454" stroke="#eb5454"></path>
<path d="M435.5 193.1L435.5 196.6" fill="#47b262" stroke="#47b262"></path>
<path d="M437.5 193L437.5 196.5" fill="#eb5454" stroke="#eb5454"></path>
<path d="M439.5 191.9L439.5 201.3" fill="#47b262" stroke="#47b262"></path>
<path d="M441.5 195.7L441.5 200.4" fill="#eb5454" stroke="#eb5454"></path>
<path d="M443.5 193.2L443.5 196.4" fill="#eb5454" stroke="#eb5454"></path>
<path d="M445.5 191.4L445.5 194.2" fill="#47b262" stroke="#47b262"></path>
<path d="M447.5 192.2L447.5 197.8" fill="#eb5454" stroke="#eb5454"></path>
<path d="M449.5 192.3L449.5 196" fill="#47b262" stroke="#47b262"></path>
<path d="M450.5 193.7L450.5 196.3" fill="#47b262" stroke="#47b262"></path>
<path d="M452.5 193.4L452.5 197.1" fill="#eb5454" stroke="#eb5454"></path>
<path d="M454.5 194.8L454.5 198.3" fill="#47b262" stroke="#47b262"></path>
<path d="M456.5 197.1L456.5 199.4" fill="#47b262" stroke="#47b262"></path>
<path d="M458.5 191.3L458.5 198.2" fill="#eb5454" stroke="#eb5454"></path>
<path d="M460.5 184.7L460.5 191.5" fill="#eb5454" stroke="#eb5454"></path>
<path d="M462.5 184.2L462.5 188.7" fill="#eb5454" stroke="#eb5454"></path>
<path d="M464.5 180.2L464.5 184.6" fill="#eb5454" stroke="#eb5454"></path>
<path d="M466.5 180.4L466.5 183.6" fill="#eb5454" stroke="#eb5454"></path>
<path d="M468.5 181.2L468.5 183.7" fill="#eb5454" stroke="#eb5454"></path>
<path d="M470.5 180.9L470.5 183.8" fill="#47b262" stroke="#47b262"></path>
<path d="M472.5 182.3L472.5 185.8" fill="#47b262" stroke="#47b262"></path>
<path d="M474.5 183.6L474.5 188.2" fill="#eb5454" stroke="#eb5454"></path>
<path d="M476.5 180L476.5 184.1" fill="#47b262" stroke="#47b262"></path>
<path d="M478.5 183.1L478.5 186.1" fill="#47b262" stroke="#47b262"></path>
<path d="M480.5 183.1L480.5 186" fill="#eb5454" stroke="#eb5454"></path>
<path d="M482.5 181.9L482.5 183.6" fill="#eb5454" stroke="#eb5454"></path>
<path d="M484.5 181.2L484.5 184.1" fill="#47b262" stroke="#47b262"></path>
<path d="M486.5 183.1L486.5 185.9" fill="#eb5454" stroke="#eb5454"></path>
<path d="M488.5 181.5L488.5 183.6" fill="#eb5454" stroke="#eb5454"></path>
<path d="M489.5 180.5L489.5 182.5" fill="#47b262" stroke="#47b262"></path>
<path d="M491.5 182.9L491.5 193.7" fill="#47b262" stroke="#47b262"></path>
<path d="M493.5 190.7L493.5 198.1" fill="#eb5454" stroke="#eb5454"></path>
<path d="M495.5 190L495.5 193.4" fill="#eb5454" stroke="#eb5454"></path>
<path d="M497.5 187.2L497.5 192.9" fill="#eb5454" stroke="#eb5454"></path>
<path d="M499.5 184.4L499.5 188.3" fill="#eb5454" stroke="#eb5454"></path>
<path d="M501.5 185.6L501.5 188.6" fill="#47b262" stroke="#47b262"></path>
<path d="M503.5 186.9L503.5 188.8" fill="#eb5454" stroke="#eb5454"></path>
<path d="M505.5 188.2L505.5 190.9" fill="#47b262" stroke="#47b262"></path>
<path d="M507.5 189.4L507.5 191.5" fill="#eb5454" stroke="#eb5454"></path>
<path d="M509.5 189L509.5 191.9" fill="#47b262" stroke="#47b262"></path>
<path d="M511.5 191.5L511.5 193.8" fill="#47b262" stroke="#47b262"></path>
<path d="M513.5 188L513.5 194.4" fill="#eb5454" stroke="#eb5454"></path>
<path d="M515.5 187.6L515.5 189.3" fill="#47b262" stroke="#47b262"></path>
<path d="M517.5 187.2L517.5 188.8" fill="#47b262" stroke="#47b262"></path>
<path d="M519.5 184.9L519.5 187.4" fill="#eb5454" stroke="#eb5454"></path>
<path d="M521.5 183.2L521.5 185.6" fill="#eb5454" stroke="#eb5454"></path>
<path d="M523.5 181.4L523.5 185.8" fill="#eb5454" stroke="#eb5454"></path>
<path d="M525.5 181.3L525.5 183.1" fill="#eb5454" stroke="#eb5454"></path>
<path d="M527.5 179.6L527.5 182.3" fill="#47b262" stroke="#47b262"></path>
<path d="M529.5 181.9L529.5 185.4" fill="#47b262" stroke="#47b262"></path>
<path d="M530.5 182.2L530.5 183.9" fill="#eb5454" stroke="#eb5454"></path>
<path d="M532.5 181.9L532.5 187.4" fill="#47b262" stroke="#47b262"></path>
<path d="M534.5 185.9L534.5 188.4" fill="#eb5454" stroke="#eb5454"></path>
<path d="M536.5 185.4L536.5 187.2" fill="#eb5454" stroke="#eb5454"></path>
<path d="M538.5 185L538.5 187.2" fill="#47b262" stroke="#47b262"></path>
<g clip-path="url(#zr11-c0)">
<path d="M70.7 231.8C70.7 231.8 70.7 197.9 72.7 197.9C72.8 197.9 72.7 197.9 74.6 199.2C76.6 200.4 74.8 199.2 76.6 200.4C78.5 201.7 76.6 201.9 78.5 201.9C80.1 201.9 78.7 201.9 80.5 201.5C82.4 201 80.6 200.5 82.4 200.5C84.4 200.5 82.4 201 84.4 201.7C86.2 202.3 84.5 202.3 86.3 202.3C88.3 202.3 86.3 201.4 88.3 201.3C90 201.2 88.3 201.2 90.2 201.2C92.2 201.2 91.1 201.5 92.2 201.5C94.1 201.5 92.2 201.1 94.1 198.7C95.7 196.9 94.1 196.9 96.1 196.9C97.5 196.9 96.2 196.9 98 197.1C100 197.3 98.3 197.1 100 197.9C102 198.9 100.5 197.9 102 199.3C103.9 201.3 102 200 103.9 202C105.4 203.5 103.9 202.1 105.9 203.5C107.7 204.9 105.9 203.6 107.8 204.9C109.7 206.2 107.8 204.9 109.8 206.2C111.7 207.5 109.8 207.1 111.7 207.6C113.3 207.9 111.8 207.6 113.7 207.9C115.6 208.3 113.7 208.4 115.6 208.6C117.5 208.7 115.6 208.7 117.6 208.7C119.5 208.7 117.9 208.7 119.5 208.3C121.5 207.9 119.5 208.3 121.5 207C123.4 205.7 121.5 206.9 123.4 205.7C125.3 204.6 123.4 205.4 125.4 204.6C127.2 203.9 125.6 204.6 127.3 203.9C129.3 203.1 127.3 203.7 129.3 202.6C131.1 201.5 129.3 202.6 131.2 201.5C133.2 200.4 131.2 200.5 133.2 200.3C134.8 200.2 133.2 200.3 135.1 200.2C137.1 200 135.1 199.6 137.1 199.6C139 199.6 137.1 199.6 139 200.1C141 200.7 139 200.5 141 200.9C142.8 201.2 141 201.2 142.9 201.2C144.9 201.2 142.9 201.1 144.9 201C146.8 200.9 145.1 201 146.8 200.9C148.8 200.7 147 200.9 148.8 199.8C150.7 198.7 148.9 199.8 150.7 198.5C152.7 197 151.1 198.5 152.7 196.9C154.6 195.1 153 196.9 154.6 194.7C156.6 192 154.6 194.5 156.6 191.7C158.3 189.3 156.6 191.7 158.5 189.3C160.5 186.8 158.5 189.3 160.5 186.8C162.4 184.3 160.5 186.6 162.4 184.3C164.2 182.4 162.4 183.5 164.4 182.4C165.9 181.5 164.5 182.4 166.3 181.5C168.3 180.6 166.3 181.3 168.3 180.5C170.1 179.7 168.4 180.5 170.2 179.7C172.2 178.9 170.2 179.3 172.2 178.7C174 178.1 172.5 178.7 174.1 178.1C176.1 177.4 174.1 178.1 176.1 176.6C178 175.1 176.2 176.6 178 175.1C180 173.5 178.1 175.1 180 173.3C182 171.5 180.3 173.3 182 171.5C183.9 169.3 182 170.9 183.9 169C185.4 167.4 184.2 169 185.9 167.4C187.8 165.6 186.1 167.4 187.8 165.3C189.8 162.8 187.8 164.9 189.8 162.6C191.3 160.8 189.8 161.9 191.7 160.8C193.3 159.9 192.3 160.8 193.7 159.9C195.6 158.5 193.7 159.9 195.6 157.4C197.6 154.9 195.6 156.3 197.6 154.8C198.9 153.8 197.8 154.8 199.5 153.8C201.5 152.7 200.2 153.8 201.5 152.2C203.4 149.8 201.5 151.8 203.4 149C205 146.7 203.4 148.2 205.4 146.7C206.8 145.6 206.2 146.7 207.3 145.6C209.3 143.7 207.3 145 209.3 142.4C210.7 140.5 209.3 141.5 211.2 140.5C212.7 139.7 211.2 140 213.2 139.7C215 139.4 213.3 139.7 215.1 139.4C217.1 139.1 215.7 138.5 217.1 138.5C219 138.5 217.2 138.5 219 140.9C221 143.3 219.5 140.9 221 143.4C222.9 146.8 221 143.9 222.9 147.2C224.4 149.6 222.9 147.7 224.9 149.6C226.4 151.1 224.9 151.1 226.8 151.1C228.6 151.1 227 151.1 228.8 150.1C230.7 148.9 229.3 150.1 230.7 148.6C232.7 146.5 230.7 147.4 232.7 145.8C234 144.8 232.7 144.8 234.6 144.8C236.4 144.8 234.6 145.3 236.6 145.3C238.5 145.3 236.7 145.3 238.5 145.1C240.5 144.9 238.9 145.1 240.5 144.4C242.4 143.5 241.2 144.4 242.4 142.8C244.4 140.3 243 142.8 244.4 139.2C246.3 134.1 244.4 139.2 246.3 133.7C248.2 128.6 246.3 133.7 248.3 128.6C250.2 123.5 248.3 125.9 250.2 123.5C251 122.6 250.2 122.6 252.2 122.6C254 122.6 252.2 123 254.1 123C256 123 254.1 122.9 256.1 122.9C258 122.9 256.1 122.9 258 122.9C260 122.9 259 123.2 260 123.2C262 123.2 260.3 123.2 262 119.8C263.9 115.8 262 119.6 263.9 115.6C265.4 112.5 263.9 115.2 265.9 112.5C267.4 110.4 265.9 112.4 267.8 110.4C269.7 108.3 267.8 110.3 269.8 108.3C271.6 106.5 269.8 108.1 271.7 106.5C273.5 105.1 271.7 105.1 273.7 105.1C275.3 105.1 274.3 105.1 275.6 105.8C277.6 106.8 275.6 106.3 277.6 108.1C279.1 109.5 278.3 108.1 279.5 109.5C281.5 111.9 280.4 109.5 281.5 113C283.4 119.4 281.5 113.2 283.4 120.1C284.8 125.1 283.4 121.3 285.4 125.1C286.4 127.2 286.2 125.1 287.3 127.2C289.3 130.8 287.8 127.2 289.3 131.7C291.2 137.6 289.3 132 291.2 137.9C292.7 142.3 291.2 138.2 293.2 142.3C294.7 145.3 294.1 142.3 295.1 145.3C297.1 151.1 295.1 145.4 297.1 151.9C299 158.3 297.1 152 299 158.3C300.7 163.5 299 158.9 301 163.5C302.2 166.4 301.8 163.5 302.9 166.4C304.9 171.3 302.9 166.4 304.9 172.1C306.8 177.7 304.9 173.3 306.8 177.7C307.8 179.8 306.8 179.8 308.8 179.8C310.7 179.8 308.8 179.8 310.7 177.8C312.7 175.8 310.7 177.8 312.7 175.8C314.6 173.8 313.1 175.8 314.6 173.8C316.6 171.1 314.6 172.6 316.6 170.7C317.8 169.5 316.6 170.4 318.5 169.5C320.3 168.7 318.5 168.9 320.5 168.7C322.3 168.5 320.7 168.7 322.4 168.5C324.4 168.2 323 168.5 324.4 167.5C326.3 166.2 324.7 167.5 326.3 165.2C328.3 162.4 326.3 164 328.3 162.1C329.5 160.9 328.9 160.9 330.2 160.9C332.2 160.9 330.6 160.9 332.2 163.7C334.1 167.1 332.2 164.1 334.1 167.4C335.6 169.8 334.8 167.4 336.1 169.8C338 173.5 336.1 169.8 338 174.1C340 178.3 338 176.1 340 178.3C340.9 179.4 340 179.4 342 179.4C343.9 179.4 342 178.4 343.9 178.4C345.9 178.4 343.9 178.9 345.9 179.4C347.6 179.9 346 179.9 347.8 179.9C349.8 179.9 348.6 179.9 349.8 179C351.7 177.6 349.8 178.4 351.7 175.9C353.1 174.1 351.8 175.9 353.7 174.1C355.6 172.2 354.1 174.1 355.6 172.1C357.6 169.6 355.6 171.8 357.6 169.1C359.2 166.8 357.6 167.8 359.5 166.8C360.9 166.1 360 166.1 361.5 166.1C363.4 166.1 361.5 166.8 363.4 168C365 169 364.2 168 365.4 169C367.3 170.5 366 169 367.3 172C369.3 176.2 368.1 172 369.3 176.7C371.2 184.4 369.3 176.7 371.2 184.8C373.2 192.9 371.4 184.8 373.2 192.9C375.1 201.8 373.2 193.1 375.1 201.8C376.5 207.8 375.1 202.6 377.1 207.8C378.1 210.7 377.1 210.6 379 210.7C380.1 210.7 379.6 210.7 381 210.7C382.9 210.7 381.1 210.7 382.9 208.6C384.9 206.4 382.9 206.2 384.9 206.2C386.1 206.2 385 206.2 386.8 206.3C388.8 206.3 386.8 206.9 388.8 206.9C390.7 206.9 388.8 206.8 390.7 206.5C392.7 206.2 390.7 206.5 392.7 206.2C394.6 205.9 392.7 206.1 394.6 205.8C396.6 205.4 395.1 205.4 396.6 205.4C398.5 205.4 396.6 206 398.5 207.1C400.2 208.1 398.6 207.1 400.5 208.1C402.4 209.1 400.5 208.1 402.4 209.2C404.3 210.3 402.4 210.3 404.4 210.3C406.1 210.3 404.9 210.3 406.3 209.9C408.3 209.3 406.3 208 408.3 208C409.7 208 408.3 208.4 410.2 208.4C412.2 208.4 410.2 207.8 412.2 207.8C414.1 207.8 412.3 207.8 414.1 207.8C416.1 207.9 414.5 207.8 416.1 208.4C418 209.1 416.1 209.2 418 209.9C419.7 210.6 418 210.6 420 210.6C421.9 210.6 420.2 210.6 422 210.6C423.9 210.6 422.4 210.6 423.9 209.6C425.9 208.5 424.2 209.6 425.9 207.7C427.8 205.4 425.9 207.5 427.8 205.1C429.5 202.9 427.8 205 429.8 202.9C431.6 200.9 429.8 202.9 431.7 200.9C433.7 198.8 431.7 200.1 433.7 198.7C435.1 197.7 433.8 198.7 435.6 197.7C437.6 196.6 435.6 197.1 437.6 196.4C439.2 195.8 437.6 196.1 439.5 195.8C441.4 195.4 439.5 195.7 441.5 195.4C443.4 195.2 441.5 195.4 443.4 195.2C445.4 195 443.4 194.9 445.4 194.8C447.3 194.7 445.4 194.8 447.3 194.7C449.3 194.6 447.3 194.3 449.3 194.1C451.2 193.9 449.3 193.9 451.2 193.9C453.2 193.9 451.4 193.9 453.2 194.2C455.1 194.6 453.2 194.2 455.1 195.3C457.1 196.4 455.1 196.5 457.1 196.5C458.9 196.5 457.3 196.5 459 195.7C461 194.7 459.4 195.7 461 194.3C462.9 192.6 461.5 194.3 462.9 192.1C464.9 189.3 462.9 192.1 464.9 188.8C466.8 185.5 464.9 188.2 466.8 185.4C468.2 183.5 466.8 184.9 468.8 183.5C470.4 182.3 468.8 182.3 470.7 182.3C472.4 182.3 470.8 182.3 472.7 182.4C474.6 182.5 472.7 182.5 474.6 182.8C476.6 183.2 474.8 182.8 476.6 183.2C478.5 183.6 476.6 183.9 478.5 184.1C480.3 184.2 478.6 184.2 480.5 184.2C482.4 184.2 480.5 183.7 482.4 183.7C484.3 183.7 482.4 183.7 484.4 183.7C486.3 183.6 484.5 183.7 486.3 183.6C488.3 183.4 486.3 182.9 488.3 182.7C490.1 182.5 488.9 182.5 490.2 182.5C492.2 182.5 490.2 182.7 492.2 184.6C494 186.3 492.2 184.6 494.1 186.3C496.1 187.9 494.1 186.6 496.1 187.9C497.8 189.1 496.1 188.5 498 189.1C499.8 189.6 498.2 189.6 500 189.6C502 189.6 500 189.6 502 188.7C503.9 187.7 502 187.9 503.9 187.7C505.7 187.6 504 187.6 505.9 187.6C507.8 187.6 506.1 187.6 507.8 188.2C509.8 189 507.8 188.6 509.8 189.6C511.5 190.5 509.8 190.3 511.7 190.5C513.5 190.7 511.7 190.7 513.7 190.7C515.6 190.7 513.7 190.7 515.6 190.3C517.6 189.8 515.9 190.3 517.6 189.8C519.5 189.3 517.7 189.8 519.5 188.5C521.5 187.2 519.5 188.4 521.5 187C523.3 185.8 521.6 187 523.4 185.8C525.4 184.5 523.4 185.6 525.4 184.3C527.2 183.1 525.4 183.5 527.3 183.1C529 182.7 527.4 183.1 529.3 182.7C531.2 182.4 529.5 182.2 531.2 182.2C533.2 182.2 531.2 182.4 533.2 183.4C535 184.3 533.2 183.6 535.1 184.3C537 184.9 535.2 184.3 537.1 184.9C539 185.6 539 185.7 539 185.7" fill="none" stroke="#5470c6" stroke-linejoin="bevel"></path>
</g>
<g clip-path="url(#zr11-c1)">
<path d="M80.5 216.7C80.5 216.7 80.5 199.2 82.4 199.2C82.7 199.2 82.4 199.4 84.4 200.4C86.2 201.3 84.4 201.1 86.3 201.3C88.1 201.6 86.3 201.6 88.3 201.6C90.2 201.6 88.3 201.6 90.2 201.4C92.2 201.1 90.4 201.4 92.2 201C94.1 200.6 92.2 200.8 94.1 200.2C96 199.6 94.1 200 96.1 199.6C98 199.2 96.1 199.2 98 199.2C100 199.2 98.2 199.2 100 199.6C102 200 100 200.4 102 200.4C103.7 200.4 102 200.4 103.9 200.4C105.9 200.3 104 200.2 105.9 200.2C107.8 200.2 106 200.2 107.8 201C109.8 201.8 108 201 109.8 202C111.7 203.2 109.8 202 111.7 203.5C113.7 204.9 111.7 203.7 113.7 204.9C115.4 206 113.7 205.2 115.6 206C117.4 206.8 115.6 206.3 117.6 206.8C119.4 207.3 117.6 207.2 119.5 207.3C121.4 207.3 119.6 207.3 121.5 207.3C123.4 207.3 121.5 207 123.4 206.8C125.3 206.6 123.4 206.8 125.4 206.6C127.3 206.4 125.5 206.6 127.3 206.3C129.3 206 127.5 206.3 129.3 205.5C131.2 204.6 129.3 205.5 131.2 204.3C133.2 203 131.2 203.7 133.2 203C134.9 202.4 133.2 203 135.1 202.4C137.1 201.8 135.1 202.2 137.1 201.8C139 201.4 137.1 201.6 139 201.4C140.9 201.2 139.1 201.4 141 201.2C142.9 201 141 201 142.9 200.8C144.8 200.6 142.9 200.8 144.9 200.6C146.8 200.4 144.9 200.5 146.8 200.2C148.8 200 146.8 200.2 148.8 200C150.7 199.7 148.8 200 150.7 199.7C152.7 199.3 151 199.7 152.7 199.1C154.6 198.4 152.8 199.1 154.6 197.8C156.6 196.5 154.7 197.8 156.6 196.3C158.5 194.7 156.7 196.3 158.5 194.6C160.5 192.7 158.6 194.6 160.5 192.6C162.4 190.7 160.5 192.6 162.4 190.6C164.4 188.6 162.4 190.5 164.4 188.5C166.3 186.6 164.4 188.4 166.3 186.6C168.2 184.9 166.3 186.6 168.3 184.9C170.2 183.3 168.3 184.9 170.2 183.3C172.2 181.6 170.2 182.9 172.2 181.5C173.9 180.3 172.2 181.5 174.1 180.3C176.1 179.1 174.2 180.3 176.1 179.1C178 177.8 176.1 179.1 178 177.8C180 176.5 178.1 177.8 180 176.5C182 175.2 180.1 176.5 182 175.1C183.9 173.6 182 175.1 183.9 173.5C185.8 172 184 173.5 185.9 172C187.8 170.4 186 172 187.8 170.2C189.8 168.2 187.8 170 189.8 168C191.5 166.2 189.8 167.9 191.7 166.2C193.6 164.4 191.8 166.2 193.7 164.4C195.6 162.6 193.8 164.4 195.6 162.4C197.6 160.2 195.6 162.2 197.6 160C199.3 158.2 197.6 160 199.5 158.2C201.4 156.5 199.7 158.2 201.5 156.5C203.4 154.6 201.6 156.5 203.4 154.4C205.4 152.2 203.4 154.2 205.4 152.1C207.1 150.2 205.5 152.1 207.3 150.2C209.3 148.2 207.3 150 209.3 148.1C211.1 146.3 209.4 148.1 211.2 146.3C213.2 144.5 211.2 145.9 213.2 144.3C214.8 143 213.2 144.1 215.1 143C217 142 215.1 142.5 217.1 142C218.9 141.6 217.1 141.6 219 141.6C221 141.6 219.4 141.6 221 142C222.9 142.4 221 142.3 222.9 143.4C224.7 144.5 222.9 144.2 224.9 144.5C226.6 144.8 225 144.5 226.8 144.8C228.8 145.1 226.8 144.9 228.8 145.5C230.7 146 228.8 145.5 230.7 146C232.7 146.5 230.8 146 232.7 146.5C234.6 147 232.8 146.5 234.6 147.2C236.6 147.9 234.6 148.2 236.6 148.2C238.4 148.2 236.8 148.2 238.5 147.6C240.5 146.9 239 147.6 240.5 146.5C242.4 145 240.6 146.5 242.4 144.3C244.4 142.1 242.5 144.3 244.4 142C246.3 139.6 244.5 142 246.3 139.5C248.3 136.9 246.5 139.5 248.3 136.9C250.2 134 248.3 135.8 250.2 133.9C251.5 132.7 250.4 133.9 252.2 132.7C254.1 131.3 252.7 132.7 254.1 131.1C256.1 129 254.1 131 256.1 128.3C257.9 125.8 256.1 128.3 258 125.8C259.9 123.4 258 125.7 260 123.4C261.8 121.2 260 123.2 262 121.2C263.8 119.3 262 121.1 263.9 119.3C265.7 117.7 263.9 118.9 265.9 117.7C267.5 116.6 265.9 117.5 267.8 116.6C269.7 115.8 268.5 116.6 269.8 115.8C271.7 114.5 269.9 115.8 271.7 113.2C273.7 110.4 271.7 112.2 273.7 110.3C275 109.1 273.7 109.1 275.6 109.1C277.3 109.1 275.6 109.2 277.6 109.2C279.5 109.2 277.7 108.9 279.5 108.9C281.5 108.9 280.3 108.9 281.5 109.8C283.4 111.1 281.5 109.8 283.4 112.6C285.4 115.4 283.4 112.9 285.4 115.5C287 117.6 285.7 115.5 287.3 117.6C289.3 120.3 287.9 117.6 289.3 120.6C291.2 125 289.6 120.6 291.2 125.4C293.2 131.1 291.2 125.7 293.2 131.2C294.6 135.2 293.3 131.2 295.1 135.2C297.1 139.5 295.5 135.2 297.1 139.6C299 144.8 297.1 139.6 299 145C301 150.7 299 145.4 301 150.7C302.3 154.3 301.3 150.7 302.9 154.3C304.9 158.5 303.4 154.3 304.9 158.7C306.8 164.6 304.9 159 306.8 164.8C308.2 169 306.8 166.1 308.8 169C309.8 170.7 308.8 170.1 310.7 170.7C312.3 171.1 311.2 170.7 312.7 171.1C314.6 171.7 312.7 171.4 314.6 172.9C316.3 174.2 314.6 173.7 316.6 174.2C318.3 174.7 316.9 174.7 318.5 174.7C320.5 174.7 318.5 174.5 320.5 173.3C322.3 172.1 320.7 173.3 322.4 172.1C324.4 170.9 322.9 172.1 324.4 170.6C326.3 168.6 324.4 170.4 326.3 168C328 165.8 326.3 167.1 328.3 165.8C329.8 164.8 328.4 164.8 330.2 164.8C332.2 164.8 330.3 164.8 332.2 166.1C334.1 167.4 332.2 167.3 334.1 167.4C335.8 167.5 334.2 167.4 336.1 167.5C338 167.6 336.4 167.5 338 168.1C340 168.9 338.2 168.1 340 169.6C342 171.3 340 170 342 171.6C343.6 172.9 342.1 171.6 343.9 172.9C345.9 174.4 344.2 172.9 345.9 174.6C347.8 176.7 345.9 175 347.8 177C349.4 178.7 347.8 178.7 349.8 178.7C351.4 178.7 349.9 178.7 351.7 177.6C353.7 176.5 351.7 176.9 353.7 176.3C355.3 175.8 353.9 176.3 355.6 175.8C357.6 175.2 355.7 175.8 357.6 174.5C359.5 173.1 357.7 174.5 359.5 172.9C361.5 171.2 359.5 171 361.5 171C362.9 171 361.5 171.1 363.4 171.1C365.4 171.1 363.4 170.6 365.4 170.5C367.3 170.5 365.7 170.5 367.3 170.5C369.3 170.5 368.2 170.5 369.3 171.8C371.2 174 369.7 171.8 371.2 175.5C373.2 180.2 371.2 175.5 373.2 180.4C375.1 185.4 373.2 180.5 375.1 185.4C376.9 189.9 375.1 185.5 377.1 189.9C378.8 193.7 377.2 189.9 379 193.7C381 197.7 379 194 381 197.8C382.5 200.8 381.1 197.8 382.9 200.8C384.9 204 382.9 200.8 384.9 204C386.7 207 384.9 204.7 386.8 207C388.3 208.8 386.8 208.8 388.8 208.8C390.2 208.8 389.1 208.8 390.7 208.6C392.7 208.4 390.8 208.6 392.7 207.4C394.6 206.2 392.7 206.2 394.6 206C396.2 205.8 394.9 205.8 396.6 205.8C398.5 205.8 396.6 206.7 398.5 207C400.2 207.3 398.6 207 400.5 207.3C402.4 207.6 400.5 207.4 402.4 207.7C404.4 208 402.5 208 404.4 208C406.3 208 404.4 207.7 406.3 207.6C408.3 207.6 406.4 207.6 408.3 207.6C410.2 207.6 408.3 207.9 410.2 208.2C412.1 208.5 410.3 208.2 412.2 208.5C414.1 208.8 412.2 209 414.1 209.1C416 209.1 414.2 209.1 416.1 209.1C418 209.1 416.2 209 418 209C420 209 418 209.5 420 209.5C421.9 209.5 420 209.5 422 209.2C423.9 208.9 422 209.2 423.9 208.7C425.9 208.3 423.9 208.6 425.9 208.1C427.8 207.5 425.9 208.1 427.8 207.5C429.8 206.9 427.9 207.5 429.8 206.8C431.7 206 430 206.8 431.7 205.7C433.7 204.6 431.7 205.7 433.7 204.2C435.6 202.7 433.9 204.2 435.6 202.7C437.6 201 435.6 202.3 437.6 200.7C439.2 199.3 437.6 200.6 439.5 199.3C441.4 198.2 439.5 199.3 441.5 198.2C443.4 197 441.5 197.8 443.4 197C445.2 196.3 443.4 197 445.4 196.3C447.3 195.5 445.4 196.1 447.3 195.5C449.2 194.9 447.3 195.2 449.3 194.9C451.2 194.7 449.3 194.7 451.2 194.7C453.2 194.7 451.2 194.7 453.2 194.7C455.1 194.8 453.2 194.7 455.1 195.1C457.1 195.4 455.2 195.6 457.1 195.6C459 195.6 457.1 195.6 459 194.9C461 194.2 459.1 194.9 461 194.1C462.9 193.3 461.1 194.1 462.9 193.2C464.9 192.2 462.9 193.1 464.9 192.1C466.8 191 465 192.1 466.8 191C468.8 189.8 466.8 190.9 468.8 189.6C470.7 188.3 468.8 189.4 470.7 188.3C472.6 187.3 470.9 188.3 472.7 187.3C474.6 186.1 472.7 187.3 474.6 185.8C476.6 184.4 474.6 185 476.6 184.3C478.2 183.8 476.6 184.3 478.5 183.8C480.5 183.3 478.5 183.5 480.5 183.3C482.4 183.1 480.5 183.1 482.4 183.1C484.4 183.1 482.4 183.1 484.4 183.3C486.3 183.4 484.4 183.4 486.3 183.4C488.3 183.4 486.3 183.4 488.3 183.4C490.2 183.4 488.4 183.4 490.2 183.4C492.2 183.4 490.3 183.4 492.2 184.1C494.1 184.9 492.2 184.2 494.1 185C496.1 185.7 494.1 185.6 496.1 185.7C497.9 185.9 496.1 185.7 498 185.9C500 186.1 498.1 185.9 500 186.1C502 186.2 500 186.2 502 186.6C503.9 187 502 186.6 503.9 187C505.9 187.4 504 187 505.9 187.7C507.8 188.5 505.9 187.7 507.8 188.7C509.8 189.6 507.8 189.6 509.8 189.6C511.5 189.6 509.8 189.6 511.7 189.6C513.7 189.6 511.7 189.5 513.7 189.2C515.6 188.9 513.7 188.9 515.6 188.9C517.5 188.9 515.6 189 517.6 189C519.5 189.1 517.6 189.1 519.5 189.1C521.5 189.1 519.6 189.1 521.5 188.8C523.4 188.5 521.6 188.8 523.4 188.2C525.4 187.6 523.4 188.2 525.4 187.3C527.3 186.4 525.4 187.3 527.3 186.4C529.3 185.6 527.4 186.4 529.3 185.6C531.2 184.8 529.3 184.7 531.2 184.6C533 184.6 531.2 184.6 533.2 184.6C535.1 184.5 533.2 184.6 535.1 184.3C537.1 184 535.1 184 537.1 184C539 184 539 184.2 539 184.2" fill="none" stroke="#91cc75" stroke-linejoin="bevel"></path>
</g>
<g clip-path="url(#zr11-c2)">
<path d="M100 208.1C100 208.1 100 199.8 102 199.8C102.4 199.8 102 200 103.9 200.4C105.8 200.8 103.9 200.4 105.9 200.8C107.8 201.2 105.9 200.9 107.8 201.3C109.7 201.7 107.8 201.3 109.8 201.7C111.7 202.1 109.8 201.9 111.7 202.2C113.6 202.6 111.7 202.3 113.7 202.6C115.6 202.8 113.7 202.7 115.6 202.8C117.6 203 115.6 202.8 117.6 203C119.5 203.2 117.6 203 119.5 203.4C121.5 203.8 119.5 203.9 121.5 203.9C123.4 203.9 121.5 203.8 123.4 203.6C125.4 203.4 123.4 203.4 125.4 203.4C127.3 203.4 125.4 203.5 127.3 203.6C129.3 203.8 127.3 203.6 129.3 203.8C131.2 203.9 129.3 203.8 131.2 203.9C133.2 204 131.2 203.9 133.2 204C135.1 204.1 133.2 204.1 135.1 204.2C137.1 204.3 135.1 204.2 137.1 204.3C139 204.3 137.1 204.3 139 204.3C141 204.3 139.1 204.3 141 204.2C142.9 204.2 141 204 142.9 203.8C144.8 203.6 142.9 203.8 144.9 203.6C146.8 203.4 144.9 203.6 146.8 203.3C148.8 203 146.9 203.3 148.8 202.7C150.7 202.2 148.8 202.7 150.7 202C152.7 201.2 150.7 202 152.7 201C154.6 200.1 152.7 201 154.6 200.1C156.6 199.1 154.6 200.1 156.6 199C158.5 198 156.6 199 158.5 198C160.5 196.9 158.6 198 160.5 196.9C162.4 195.8 160.5 196.9 162.4 195.7C164.4 194.6 162.4 195.7 164.4 194.6C166.3 193.4 164.4 194.5 166.3 193.4C168.2 192.4 166.3 193.4 168.3 192.4C170.2 191.5 168.4 192.4 170.2 191.5C172.2 190.4 170.3 191.5 172.2 190.3C174.1 189.1 172.2 190.3 174.1 189C176.1 187.8 174.2 189 176.1 187.7C178 186.3 176.2 187.7 178 186.2C180 184.6 178.1 186.2 180 184.6C182 182.9 180.1 184.6 182 182.9C183.9 181.1 182 182.8 183.9 181C185.8 179.3 183.9 181 185.9 179.3C187.8 177.6 185.9 179.3 187.8 177.5C189.8 175.7 187.8 177.5 189.8 175.6C191.6 173.8 189.8 175.4 191.7 173.8C193.5 172.3 191.8 173.8 193.7 172.3C195.6 170.8 193.8 172.3 195.6 170.7C197.6 169.1 195.6 170.6 197.6 168.9C199.4 167.4 197.6 168.9 199.5 167.4C201.5 165.8 199.6 167.4 201.5 165.8C203.4 164.1 201.5 165.8 203.4 164C205.4 162.1 203.4 163.9 205.4 162C207.3 160.2 205.5 162 207.3 160.2C209.3 158.2 207.3 160 209.3 158C211 156.3 209.3 158 211.2 156.3C213.2 154.4 211.2 156.1 213.2 154.4C215 152.7 213.2 154.4 215.1 152.7C217.1 151.1 215.1 152.3 217.1 151C218.8 149.9 217.1 150.7 219 149.9C220.8 149.2 219 149.6 221 149.2C222.8 148.9 221.1 149.2 222.9 148.9C224.9 148.6 223 148.9 224.9 148.3C226.8 147.6 224.9 148.2 226.8 147.5C228.8 146.8 226.8 147.4 228.8 146.8C230.7 146.2 228.8 146.8 230.7 146.2C232.7 145.5 230.7 145.7 232.7 145.4C234.5 145.1 232.7 145.1 234.6 145.1C236.6 145.1 234.7 145.1 236.6 145.1C238.5 145.1 236.6 145 238.5 144.6C240.5 144.2 238.5 144.6 240.5 144.2C242.4 143.9 240.6 144.2 242.4 143.9C244.4 143.5 242.6 143.9 244.4 143.3C246.3 142.6 244.4 143.2 246.3 142.2C248.3 141.2 246.4 142.2 248.3 141.2C250.2 140.1 248.3 140.4 250.2 140C251.9 139.6 250.3 140 252.2 139.6C254.1 139.2 252.3 139.6 254.1 139.2C256.1 138.7 254.4 139.2 256.1 138.3C258 137.2 256.2 138.3 258 136.7C260 135 258.2 136.7 260 134.9C262 133 260 134.9 262 132.8C263.9 130.7 262 132.7 263.9 130.7C265.8 128.6 263.9 130.5 265.9 128.6C267.7 126.8 265.9 128.6 267.8 126.8C269.8 124.9 267.8 126.8 269.8 124.9C271.7 123 269.9 124.9 271.7 122.9C273.7 120.9 271.7 122.9 273.7 120.7C275.5 118.7 273.7 120.2 275.6 118.7C277.2 117.5 275.7 118.7 277.6 117.5C279.5 116.2 277.6 116.9 279.5 116.2C281.2 115.5 279.5 115.5 281.5 115.5C283.4 115.5 281.5 115.5 283.4 116C285.4 116.4 283.4 116 285.4 116.6C287.3 117.1 285.5 116.6 287.3 117.1C289.3 117.8 287.3 117.1 289.3 118.2C291.2 119.3 289.4 118.2 291.2 119.3C293.2 120.5 291.2 119.3 293.2 120.8C295.1 122.2 293.5 120.8 295.1 122.2C297.1 123.9 295.3 122.2 297.1 124.4C299 126.8 297.4 124.4 299 127C301 130 299 127 301 130.2C302.9 133.4 301.1 130.2 302.9 133.4C304.9 137 303.1 133.4 304.9 137.1C306.8 141.1 304.9 137.2 306.8 141.2C308.6 144.8 306.8 141.3 308.8 144.8C310.6 148 308.8 144.9 310.7 148C312.6 151.1 310.7 148.1 312.7 151.1C314.6 154.1 312.7 151.2 314.6 154.1C316.5 156.9 314.7 154.1 316.6 156.9C318.5 159.8 316.6 157.2 318.5 159.8C320.1 162 318.5 160.4 320.5 162C322.1 163.2 320.6 162 322.4 163.2C324.4 164.5 322.6 163.2 324.4 164.7C326.3 166.2 324.4 165.2 326.3 166.4C328 167.4 326.3 167.1 328.3 167.4C330 167.7 328.4 167.4 330.2 167.7C332.2 168.1 330.5 167.7 332.2 168.6C334.1 169.6 332.2 169.3 334.1 170.2C335.8 170.9 334.1 170.3 336.1 170.9C338 171.4 336.1 171.3 338 171.4C339.9 171.5 338.1 171.4 340 171.5C342 171.5 340 171.8 342 171.8C343.9 171.8 342 171.8 343.9 171.8C345.9 171.7 343.9 171.3 345.9 171.3C347.8 171.3 345.9 171.3 347.8 171.4C349.8 171.5 347.8 171.6 349.8 171.8C351.7 171.9 349.8 171.9 351.7 171.9C353.7 171.9 351.7 171.9 353.7 171.9C355.6 171.8 353.7 171.9 355.6 171.6C357.6 171.4 355.6 171.3 357.6 171.3C359.5 171.3 357.6 171.3 359.5 171.3C361.5 171.3 359.6 171.3 361.5 171.3C363.4 171.3 361.5 171.4 363.4 172C365.3 172.6 363.6 172 365.4 172.6C367.3 173.3 365.5 172.6 367.3 173.8C369.3 175 367.3 173.9 369.3 175.2C371.2 176.6 369.5 175.2 371.2 176.6C373.2 178.1 371.4 176.6 373.2 178.4C375.1 180.4 373.2 178.7 375.1 180.6C376.8 182.2 375.1 180.9 377.1 182.2C378.8 183.3 377.1 182.2 379 183.3C381 184.4 379.2 183.3 381 184.4C382.9 185.6 381 184.5 382.9 185.9C384.8 187.3 383 185.9 384.9 187.3C386.8 188.7 384.9 187.3 386.8 188.8C388.8 190.3 387 188.8 388.8 190.3C390.7 191.9 388.8 190.3 390.7 192C392.7 193.9 390.7 192.1 392.7 193.9C394.6 195.7 392.9 193.9 394.6 195.7C396.6 197.7 394.8 195.7 396.6 197.9C398.5 200.2 396.6 198 398.5 200.4C400.3 202.5 398.5 200.6 400.5 202.5C402.2 204.2 400.5 202.5 402.4 204.2C404.4 206 402.4 204.6 404.4 206C406.1 207.3 404.4 206.4 406.3 207.3C408.1 208.2 406.3 207.9 408.3 208.2C410.1 208.4 408.3 208.4 410.2 208.4C412.2 208.4 410.2 208.4 412.2 208C414.1 207.5 412.2 207.6 414.1 207.5C416.1 207.5 414.2 207.5 416.1 207.5C418 207.5 416.1 207.6 418 208C420 208.4 418 208.3 420 208.4C421.9 208.4 420 208.4 422 208.4C423.9 208.4 422 208.4 423.9 208.4C425.9 208.3 423.9 208.2 425.9 207.9C427.8 207.5 425.9 207.6 427.8 207.5C429.7 207.5 427.8 207.5 429.8 207.5C431.7 207.4 429.8 207.5 431.7 207.1C433.7 206.8 431.8 207.1 433.7 206.6C435.6 206.1 433.8 206.6 435.6 205.9C437.6 205.2 435.6 205.3 437.6 204.8C439.3 204.4 437.6 204.8 439.5 204.4C441.5 204 439.5 204.4 441.5 203.7C443.4 202.9 441.5 203.6 443.4 202.9C445.3 202.2 443.4 202.8 445.4 202.2C447.3 201.5 445.4 202.2 447.3 201.5C449.3 200.9 447.3 201.5 449.3 200.8C451.2 200.2 449.3 200.8 451.2 200.2C453.2 199.6 451.2 200.1 453.2 199.5C455.1 198.9 453.2 199.5 455.1 198.9C457.1 198.3 455.2 198.9 457.1 198.2C459 197.4 457.1 198.1 459 197.1C460.9 196.1 459.1 197.1 461 196.1C462.9 195.1 461 196 462.9 195.1C464.8 194.2 462.9 195.1 464.9 194.2C466.8 193.3 464.9 194.2 466.8 193.3C468.8 192.3 466.8 193.1 468.8 192.3C470.6 191.5 468.8 192 470.7 191.5C472.6 191 470.8 191.5 472.7 191C474.6 190.5 472.7 190.9 474.6 190.4C476.6 190 474.7 190.4 476.6 190C478.5 189.5 476.6 190 478.5 189.3C480.5 188.7 478.5 189.3 480.5 188.7C482.4 188.1 480.5 188.6 482.4 188.1C484.4 187.7 482.4 188.1 484.4 187.7C486.3 187.2 484.5 187.7 486.3 187.2C488.3 186.7 486.3 187.1 488.3 186.5C490.2 185.8 488.3 186 490.2 185.8C492.1 185.7 490.3 185.8 492.2 185.7C494.1 185.6 492.2 185.7 494.1 185.4C496.1 185.1 494.1 185.2 496.1 185C498 184.8 496.1 185 498 184.8C500 184.7 498 184.7 500 184.7C502 184.7 500 184.7 502 184.8C503.9 185 502 184.8 503.9 185.1C505.9 185.4 503.9 185.1 505.9 185.6C507.8 186 505.9 185.6 507.8 186C509.8 186.5 507.8 186.1 509.8 186.5C511.7 186.9 509.8 186.6 511.7 186.9C513.6 187.1 511.7 186.9 513.7 187.1C515.6 187.3 513.7 187.2 515.6 187.3C517.6 187.5 515.6 187.4 517.6 187.5C519.5 187.6 517.6 187.5 519.5 187.6C521.5 187.7 519.5 187.7 521.5 187.7C523.4 187.7 521.5 187.7 523.4 187.6C525.4 187.5 523.4 187.5 525.4 187.5C527.3 187.5 525.4 187.5 527.3 187.5C529.3 187.6 527.4 187.6 529.3 187.6C531.2 187.6 529.3 187.3 531.2 187.1C533.1 186.9 531.2 187.1 533.2 186.9C535.1 186.7 533.2 186.7 535.1 186.6C537.1 186.5 535.1 186.5 537.1 186.5C539 186.5 539 186.6 539 186.6" fill="none" stroke="#fac858" stroke-linejoin="bevel"></path>
</g>
<g clip-path="url(#zr11-c3)">
<path d="M119.5 207.8C119.5 207.8 119.5 202.3 121.5 202.3C122.1 202.3 121.5 202.3 123.4 202.5C125.4 202.7 123.4 202.5 125.4 202.7C127.3 202.9 125.4 203 127.3 203C129.3 203 127.3 203 129.3 203C131.2 202.9 129.3 203 131.2 202.9C133.2 202.9 131.2 202.8 133.2 202.7C135.1 202.7 133.2 202.7 135.1 202.7C137.1 202.6 135.1 202.6 137.1 202.6C139 202.6 137.1 202.6 139 202.7C141 202.9 139 203 141 203C142.9 203 141 202.8 142.9 202.6C144.9 202.4 142.9 202.4 144.9 202.4C146.8 202.4 144.9 202.5 146.8 202.5C148.8 202.5 146.8 202.5 148.8 202.5C150.7 202.5 148.8 202.5 150.7 202.5C152.7 202.4 150.7 202.5 152.7 202.3C154.6 202.2 152.7 202.3 154.6 202.1C156.6 201.8 154.7 202.1 156.6 201.6C158.5 201.1 156.6 201.6 158.5 201.1C160.5 200.5 158.6 201.1 160.5 200.4C162.4 199.6 160.5 200.3 162.4 199.4C164.3 198.6 162.4 199.4 164.4 198.6C166.3 197.7 164.4 198.6 166.3 197.7C168.3 196.9 166.4 197.7 168.3 196.8C170.2 195.8 168.3 196.8 170.2 195.7C172.2 194.6 170.2 195.6 172.2 194.5C174.1 193.5 172.2 194.5 174.1 193.5C176.1 192.4 174.1 193.5 176.1 192.4C178 191.2 176.1 192.4 178 191.2C180 190.1 178.1 191.2 180 190.1C182 188.9 180 190.1 182 188.8C183.9 187.6 182 188.8 183.9 187.5C185.8 186.3 183.9 187.5 185.9 186.3C187.8 185 185.9 186.3 187.8 185C189.8 183.7 187.8 185 189.8 183.6C191.7 182.3 189.8 183.6 191.7 182.3C193.7 180.9 191.8 182.3 193.7 180.8C195.6 179.4 193.8 180.8 195.6 179.3C197.6 177.6 195.6 179.2 197.6 177.5C199.5 175.8 197.6 177.5 199.5 175.8C201.5 174.1 199.6 175.8 201.5 174.1C203.4 172.3 201.5 174.1 203.4 172.2C205.4 170.2 203.4 172.1 205.4 170.2C207.3 168.4 205.5 170.2 207.3 168.4C209.3 166.5 207.3 168.3 209.3 166.4C211.1 164.7 209.3 166.4 211.2 164.7C213.1 163 211.2 164.6 213.2 163C215 161.5 213.2 163 215.1 161.5C217.1 160 215.1 161.2 217.1 160C218.9 158.8 217.1 159.8 219 158.8C220.9 157.9 219 158.6 221 157.9C222.9 157.1 221.1 157.9 222.9 157.1C224.9 156.4 223 157.1 224.9 156.2C226.8 155.2 224.9 156.2 226.8 155.1C228.8 153.9 226.8 154.9 228.8 153.8C230.6 152.8 228.8 153.8 230.7 152.8C232.7 151.8 230.7 152.6 232.7 151.7C234.5 150.9 232.7 151.7 234.6 150.9C236.6 150.1 234.7 150.9 236.6 150.1C238.5 149.3 236.6 150 238.5 149.1C240.4 148.3 238.6 149.1 240.5 148.3C242.4 147.5 240.6 148.3 242.4 147.4C244.4 146.4 242.5 147.4 244.4 146.2C246.3 144.9 244.4 146.2 246.3 144.8C248.3 143.5 246.4 144.8 248.3 143.5C250.2 142.1 248.3 143.1 250.2 142.1C252 141.2 250.2 141.9 252.2 141.2C254.1 140.5 252.3 141.2 254.1 140.5C256.1 139.7 254.3 140.5 256.1 139.5C258 138.5 256.1 139.4 258 138.3C259.9 137.3 258 138.2 260 137.3C261.9 136.3 260 137.3 262 136.3C263.9 135.4 262 136.3 263.9 135.3C265.9 134.2 263.9 135.1 265.9 134C267.7 133 265.9 134 267.8 133C269.8 132 267.8 133 269.8 131.9C271.7 130.8 269.8 131.9 271.7 130.8C273.7 129.7 271.7 130.6 273.7 129.6C275.5 128.5 273.7 129.6 275.6 128.5C277.6 127.5 275.7 128.5 277.6 127.5C279.5 126.5 277.6 127.5 279.5 126.3C281.4 125.1 279.5 125.6 281.5 125.1C283.2 124.6 281.5 125.1 283.4 124.6C285.4 124.2 283.4 124.6 285.4 124.2C287.3 123.8 285.4 124 287.3 123.7C289.2 123.5 287.3 123.5 289.3 123.5C291.2 123.5 289.3 123.5 291.2 123.8C293.2 124.1 291.2 124.2 293.2 124.2C295.1 124.2 293.3 124.2 295.1 124.2C297.1 124.2 295.2 124.2 297.1 124.9C299 125.5 297.3 124.9 299 125.8C301 126.8 299.1 125.8 301 127.2C302.9 128.7 301.1 127.2 302.9 128.7C304.9 130.4 303.2 128.7 304.9 130.6C306.8 132.8 304.9 130.7 306.8 133C308.6 135.2 306.8 133.6 308.8 135.2C310.4 136.4 308.8 135.3 310.7 136.4C312.6 137.5 310.9 136.4 312.7 137.5C314.6 138.8 312.8 137.5 314.6 139.1C316.6 140.8 314.6 139.1 316.6 141C318.5 142.9 316.6 141.1 318.5 142.9C320.4 144.6 318.6 142.9 320.5 144.6C322.4 146.3 320.6 144.6 322.4 146.3C324.4 148.2 322.4 146.4 324.4 148.3C326.3 150.1 324.4 148.4 326.3 150.1C328.2 151.8 326.4 150.1 328.3 151.8C330.2 153.6 328.6 151.8 330.2 153.6C332.2 155.8 330.2 153.7 332.2 156.1C334.1 158.5 332.2 156.4 334.1 158.5C335.9 160.4 334.3 158.5 336.1 160.4C338 162.5 336.1 160.5 338 162.6C339.9 164.5 338 162.9 340 164.5C341.7 166 340 164.6 342 166C343.9 167.4 342.1 166 343.9 167.4C345.9 168.9 343.9 167.6 345.9 169.1C347.7 170.6 345.9 169.7 347.8 170.6C349.5 171.4 347.8 171.2 349.8 171.4C351.6 171.6 349.8 171.4 351.7 171.6C353.7 171.8 351.7 171.9 353.7 172.2C355.5 172.5 353.7 172.5 355.6 172.5C357.5 172.5 355.7 172.5 357.6 172.4C359.5 172.4 357.6 172.3 359.5 171.9C361.4 171.6 359.5 171.6 361.5 171.6C363.4 171.5 361.5 171.6 363.4 171.5C365.4 171.5 363.4 171 365.4 171C367.3 171 365.5 171 367.3 171.1C369.3 171.2 367.6 171.1 369.3 171.8C371.2 172.5 369.4 171.8 371.2 173.1C373.2 174.5 371.2 173.2 373.2 174.7C375.1 176.2 373.2 174.9 375.1 176.2C377 177.5 375.1 176.2 377.1 177.5C379 178.8 377.1 177.5 379 178.8C381 180 379.1 178.8 381 180.1C382.9 181.5 381 180.1 382.9 181.6C384.9 183 383.1 181.6 384.9 183.1C386.8 184.7 384.9 183.2 386.8 184.9C388.7 186.4 386.8 185.4 388.8 186.4C390.4 187.2 388.8 186.4 390.7 187.2C392.7 188 390.8 187.2 392.7 188C394.6 188.9 392.7 188 394.6 189.1C396.6 190.1 394.7 189.1 396.6 190.1C398.5 191.1 396.6 190.3 398.5 191.2C400.4 192 398.7 191.2 400.5 192C402.4 192.9 400.5 192.1 402.4 193.2C404.3 194.2 402.4 193.3 404.4 194.2C406.3 195.1 404.4 194.2 406.3 195.1C408.3 196 406.5 195.1 408.3 196C410.2 197.1 408.3 196.1 410.2 197.4C412.2 198.8 410.3 197.4 412.2 198.8C414.1 200.1 412.2 198.8 414.1 200.2C416.1 201.6 414.2 200.2 416.1 201.6C418 203.1 416.1 201.6 418 203.2C420 204.8 418 203.6 420 204.8C421.7 205.9 420 204.8 422 205.9C423.9 206.9 422 206.2 423.9 206.9C425.7 207.6 423.9 207.2 425.9 207.6C427.7 208 425.9 208 427.8 208C429.7 208 427.9 208 429.8 207.9C431.7 207.8 429.8 207.9 431.7 207.2C433.7 206.6 431.7 207 433.7 206.4C435.5 205.9 433.7 206.2 435.6 205.9C437.5 205.6 435.6 205.8 437.6 205.6C439.5 205.4 437.6 205.6 439.5 205.4C441.5 205.2 439.5 205.4 441.5 205C443.4 204.7 441.5 205 443.4 204.6C445.4 204.1 443.4 204.4 445.4 204C447.3 203.5 445.4 203.8 447.3 203.5C449.2 203.3 447.3 203.5 449.3 203.3C451.2 203.1 449.3 203.3 451.2 203C453.2 202.7 451.2 203 453.2 202.7C455.1 202.3 453.2 202.7 455.1 202.3C457.1 201.9 455.1 202.3 457.1 201.8C459 201.2 457.1 201.8 459 201.2C461 200.7 459.1 201.2 461 200.5C462.9 199.7 461 200.5 462.9 199.6C464.9 198.8 462.9 199.6 464.9 198.8C466.8 198 464.9 198.8 466.8 198C468.8 197.2 466.8 197.9 468.8 197.1C470.7 196.2 468.8 197.1 470.7 196.2C472.7 195.4 470.7 196.2 472.7 195.4C474.6 194.6 472.7 195.4 474.6 194.5C476.6 193.6 474.6 194.5 476.6 193.6C478.5 192.7 476.6 193.5 478.5 192.7C480.5 191.9 478.5 192.6 480.5 191.9C482.4 191.1 480.5 191.7 482.4 191.1C484.3 190.5 482.4 191.1 484.4 190.5C486.3 190 484.4 190.5 486.3 190C488.3 189.4 486.3 189.8 488.3 189.3C490.2 188.8 488.3 188.9 490.2 188.8C492.1 188.7 490.2 188.8 492.2 188.7C494.1 188.6 492.2 188.7 494.1 188.6C496.1 188.6 494.2 188.6 496.1 188.6C498 188.5 496.1 188.6 498 188.2C500 187.8 498 188 500 187.8C501.9 187.6 500 187.8 502 187.6C503.9 187.4 502 187.5 503.9 187.4C505.8 187.4 503.9 187.4 505.9 187.4C507.8 187.3 505.9 187.3 507.8 187.2C509.8 187.1 507.8 187.2 509.8 187.1C511.7 187 509.8 187.1 511.7 187C513.7 186.9 511.7 187 513.7 186.7C515.6 186.3 513.7 186.4 515.6 186.3C517.5 186.2 515.6 186.3 517.6 186.2C519.5 186.1 517.6 186.1 519.5 186.1C521.5 186.1 519.5 186.1 521.5 186.2C523.4 186.2 521.5 186.2 523.4 186.2C525.4 186.2 523.4 186.1 525.4 186.1C527.3 186.1 525.4 186.1 527.3 186.2C529.3 186.2 527.3 186.2 529.3 186.2C531.2 186.2 529.3 186.1 531.2 186.1C533.2 186.1 531.2 186.2 533.2 186.2C535.1 186.3 533.2 186.3 535.1 186.3C537.1 186.3 535.1 186.3 537.1 186.3C539 186.3 539 186.4 539 186.4" fill="none" stroke="#ee6666" stroke-linejoin="bevel"></path>
</g>
<path d="M0 0l480 0l0 30l-480 0Z" transform="matrix(1,0,0,-1,62.8,442.5)" fill="rgb(47,69,84)" fill-opacity="0"></path>
<g clip-path="url(#zr11-c4)">
<polygon points="480 0 0 0 0 5.6 2 5.6 3.9 17.4 5.9 17.7 7.8 17.7 9.8 17.8 11.8 17.5 13.7 17.4 15.7 17.3 17.6 17.4 19.6 17.3 21.6 17.7 23.5 17.2 25.5 16.9 27.4 17.2 29.4 17.7 31.3 17.8 33.3 17.8 35.3 17.9 37.2 17.7 39.2 17.4 41.1 17.5 43.1 17 45.1 17.1 47 17.3 49 17.4 50.9 16.9 52.9 16.7 54.9 16.8 56.8 17 58.8 17.1 60.7 17.2 62.7 17.2 64.7 17.3 66.6 17.4 68.6 17.3 70.5 17.6 72.5 17.7 74.4 17.6 76.4 17.5 78.4 17.5 80.3 17.4 82.3 17.3 84.2 17.5 86.2 17.5 88.2 17.6 90.1 17.8 92.1 17.9 94 18.2 96 18.3 98 18.6 99.9 18.6 101.9 18.8 103.8 19 105.8 19 107.8 18.8 109.7 19 111.7 19.1 113.6 19.5 115.6 19.2 117.6 19.5 119.5 19.4 121.5 19.8 123.4 20 125.4 20.1 127.3 19.9 129.3 20.4 131.3 20.6 133.2 20.6 135.2 20.3 137.1 21 139.1 21.2 141.1 20.9 143 21.2 145 21.6 146.9 21.4 148.9 21.7 150.9 22 152.8 21.7 154.8 21.9 156.7 21.7 158.7 21.9 160.7 21.2 162.6 20.8 164.6 20.7 166.5 21 168.5 21.4 170.4 21.6 172.4 21.5 174.4 21.4 176.3 21.1 178.3 21.2 180.2 21.7 182.2 21.8 184.2 22.2 186.1 22.5 188.1 23.2 190 23.5 192 23.5 194 22.3 195.9 22.4 197.9 23.2 199.8 23.5 201.8 23.4 203.8 23.8 205.7 23.9 207.7 24.3 209.6 23.9 211.6 24.1 213.6 24.3 215.5 24.4 217.5 23.8 219.4 23.3 221.4 23.5 223.3 22.6 225.3 21.8 227.3 22.3 229.2 22.7 231.2 21.6 233.1 21.2 235.1 20.1 237.1 20.9 239 20.3 241 19.4 242.9 20 244.9 18.9 246.9 18.2 248.8 18.1 250.8 19.1 252.7 19.8 254.7 20 256.7 19.7 258.6 19.2 260.6 19.5 262.5 19.9 264.5 19.9 266.4 20.1 268.4 20.2 270.4 20.6 272.3 20.1 274.3 18.6 276.2 19 278.2 19.3 280.2 18.9 282.1 18.7 284.1 18.7 286 19.2 288 18.8 290 19 291.9 19.3 293.9 19.9 295.8 19.7 297.8 19.6 299.8 20 301.7 19.9 303.7 20.1 305.6 18.8 307.6 19.2 309.6 18.7 311.5 17.8 313.5 16.5 315.4 16.4 317.4 16.4 319.3 16.9 321.3 17.2 323.3 17.1 325.2 16.6 327.2 17 329.1 16.7 331.1 17.2 333.1 17.2 335 17.2 337 17.3 338.9 16.7 340.9 16.5 342.9 17 344.8 16.9 346.8 16.8 348.7 17.1 350.7 17 352.7 17 354.6 17 356.6 16.8 358.5 16.7 360.5 16.7 362.4 17.1 364.4 17 366.4 17.2 368.3 17.4 370.3 17.5 372.2 17.4 374.2 17.8 376.2 18 378.1 17.9 380.1 18 382 17.6 384 17.9 386 18.1 387.9 18 389.9 18 391.8 17.9 393.8 17.9 395.8 17.7 397.7 17.7 399.7 17.7 401.6 18.2 403.6 18.4 405.6 18.6 407.5 18.7 409.5 18.8 411.4 18.9 413.4 18.7 415.3 18.4 417.3 18.8 419.3 18.7 421.2 18.6 423.2 18.7 425.1 18.8 427.1 18.7 429.1 18.7 431 18.9 433 18.7 434.9 18.1 436.9 18.1 438.9 18.1 440.8 18.4 442.8 18.5 444.7 18.4 446.7 18.4 448.7 18.2 450.6 18.2 452.6 18.1 454.5 18 456.5 18.4 458.4 18.4 460.4 18.4 462.4 18.6 464.3 18.6 466.3 18.8 468.2 18.9 470.2 18.8 472.2 18.7 474.1 18.8 476.1 18.4 478 18.5 480 18.6" transform="matrix(1,0,0,-1,62.8,442.5)" fill="#8392A5" fill-opacity="0.2"></polygon>
</g>
<g clip-path="url(#zr11-c5)">
<polygon points="480 0 0 0 0 5.6 2 5.6 3.9 17.4 5.9 17.7 7.8 17.7 9.8 17.8 11.8 17.5 13.7 17.4 15.7 17.3 17.6 17.4 19.6 17.3 21.6 17.7 23.5 17.2 25.5 16.9 27.4 17.2 29.4 17.7 31.3 17.8 33.3 17.8 35.3 17.9 37.2 17.7 39.2 17.4 41.1 17.5 43.1 17 45.1 17.1 47 17.3 49 17.4 50.9 16.9 52.9 16.7 54.9 16.8 56.8 17 58.8 17.1 60.7 17.2 62.7 17.2 64.7 17.3 66.6 17.4 68.6 17.3 70.5 17.6 72.5 17.7 74.4 17.6 76.4 17.5 78.4 17.5 80.3 17.4 82.3 17.3 84.2 17.5 86.2 17.5 88.2 17.6 90.1 17.8 92.1 17.9 94 18.2 96 18.3 98 18.6 99.9 18.6 101.9 18.8 103.8 19 105.8 19 107.8 18.8 109.7 19 111.7 19.1 113.6 19.5 115.6 19.2 117.6 19.5 119.5 19.4 121.5 19.8 123.4 20 125.4 20.1 127.3 19.9 129.3 20.4 131.3 20.6 133.2 20.6 135.2 20.3 137.1 21 139.1 21.2 141.1 20.9 143 21.2 145 21.6 146.9 21.4 148.9 21.7 150.9 22 152.8 21.7 154.8 21.9 156.7 21.7 158.7 21.9 160.7 21.2 162.6 20.8 164.6 20.7 166.5 21 168.5 21.4 170.4 21.6 172.4 21.5 174.4 21.4 176.3 21.1 178.3 21.2 180.2 21.7 182.2 21.8 184.2 22.2 186.1 22.5 188.1 23.2 190 23.5 192 23.5 194 22.3 195.9 22.4 197.9 23.2 199.8 23.5 201.8 23.4 203.8 23.8 205.7 23.9 207.7 24.3 209.6 23.9 211.6 24.1 213.6 24.3 215.5 24.4 217.5 23.8 219.4 23.3 221.4 23.5 223.3 22.6 225.3 21.8 227.3 22.3 229.2 22.7 231.2 21.6 233.1 21.2 235.1 20.1 237.1 20.9 239 20.3 241 19.4 242.9 20 244.9 18.9 246.9 18.2 248.8 18.1 250.8 19.1 252.7 19.8 254.7 20 256.7 19.7 258.6 19.2 260.6 19.5 262.5 19.9 264.5 19.9 266.4 20.1 268.4 20.2 270.4 20.6 272.3 20.1 274.3 18.6 276.2 19 278.2 19.3 280.2 18.9 282.1 18.7 284.1 18.7 286 19.2 288 18.8 290 19 291.9 19.3 293.9 19.9 295.8 19.7 297.8 19.6 299.8 20 301.7 19.9 303.7 20.1 305.6 18.8 307.6 19.2 309.6 18.7 311.5 17.8 313.5 16.5 315.4 16.4 317.4 16.4 319.3 16.9 321.3 17.2 323.3 17.1 325.2 16.6 327.2 17 329.1 16.7 331.1 17.2 333.1 17.2 335 17.2 337 17.3 338.9 16.7 340.9 16.5 342.9 17 344.8 16.9 346.8 16.8 348.7 17.1 350.7 17 352.7 17 354.6 17 356.6 16.8 358.5 16.7 360.5 16.7 362.4 17.1 364.4 17 366.4 17.2 368.3 17.4 370.3 17.5 372.2 17.4 374.2 17.8 376.2 18 378.1 17.9 380.1 18 382 17.6 384 17.9 386 18.1 387.9 18 389.9 18 391.8 17.9 393.8 17.9 395.8 17.7 397.7 17.7 399.7 17.7 401.6 18.2 403.6 18.4 405.6 18.6 407.5 18.7 409.5 18.8 411.4 18.9 413.4 18.7 415.3 18.4 417.3 18.8 419.3 18.7 421.2 18.6 423.2 18.7 425.1 18.8 427.1 18.7 429.1 18.7 431 18.9 433 18.7 434.9 18.1 436.9 18.1 438.9 18.1 440.8 18.4 442.8 18.5 444.7 18.4 446.7 18.4 448.7 18.2 450.6 18.2 452.6 18.1 454.5 18 456.5 18.4 458.4 18.4 460.4 18.4 462.4 18.6 464.3 18.6 466.3 18.8 468.2 18.9 470.2 18.8 472.2 18.7 474.1 18.8 476.1 18.4 478 18.5 480 18.6" transform="matrix(1,0,0,-1,62.8,442.5)" fill="#8fb0f7" fill-opacity="0.2"></polygon>
</g>
<g clip-path="url(#zr11-c6)">
<polygon points="480 0 0 0 0 5.6 2 5.6 3.9 17.4 5.9 17.7 7.8 17.7 9.8 17.8 11.8 17.5 13.7 17.4 15.7 17.3 17.6 17.4 19.6 17.3 21.6 17.7 23.5 17.2 25.5 16.9 27.4 17.2 29.4 17.7 31.3 17.8 33.3 17.8 35.3 17.9 37.2 17.7 39.2 17.4 41.1 17.5 43.1 17 45.1 17.1 47 17.3 49 17.4 50.9 16.9 52.9 16.7 54.9 16.8 56.8 17 58.8 17.1 60.7 17.2 62.7 17.2 64.7 17.3 66.6 17.4 68.6 17.3 70.5 17.6 72.5 17.7 74.4 17.6 76.4 17.5 78.4 17.5 80.3 17.4 82.3 17.3 84.2 17.5 86.2 17.5 88.2 17.6 90.1 17.8 92.1 17.9 94 18.2 96 18.3 98 18.6 99.9 18.6 101.9 18.8 103.8 19 105.8 19 107.8 18.8 109.7 19 111.7 19.1 113.6 19.5 115.6 19.2 117.6 19.5 119.5 19.4 121.5 19.8 123.4 20 125.4 20.1 127.3 19.9 129.3 20.4 131.3 20.6 133.2 20.6 135.2 20.3 137.1 21 139.1 21.2 141.1 20.9 143 21.2 145 21.6 146.9 21.4 148.9 21.7 150.9 22 152.8 21.7 154.8 21.9 156.7 21.7 158.7 21.9 160.7 21.2 162.6 20.8 164.6 20.7 166.5 21 168.5 21.4 170.4 21.6 172.4 21.5 174.4 21.4 176.3 21.1 178.3 21.2 180.2 21.7 182.2 21.8 184.2 22.2 186.1 22.5 188.1 23.2 190 23.5 192 23.5 194 22.3 195.9 22.4 197.9 23.2 199.8 23.5 201.8 23.4 203.8 23.8 205.7 23.9 207.7 24.3 209.6 23.9 211.6 24.1 213.6 24.3 215.5 24.4 217.5 23.8 219.4 23.3 221.4 23.5 223.3 22.6 225.3 21.8 227.3 22.3 229.2 22.7 231.2 21.6 233.1 21.2 235.1 20.1 237.1 20.9 239 20.3 241 19.4 242.9 20 244.9 18.9 246.9 18.2 248.8 18.1 250.8 19.1 252.7 19.8 254.7 20 256.7 19.7 258.6 19.2 260.6 19.5 262.5 19.9 264.5 19.9 266.4 20.1 268.4 20.2 270.4 20.6 272.3 20.1 274.3 18.6 276.2 19 278.2 19.3 280.2 18.9 282.1 18.7 284.1 18.7 286 19.2 288 18.8 290 19 291.9 19.3 293.9 19.9 295.8 19.7 297.8 19.6 299.8 20 301.7 19.9 303.7 20.1 305.6 18.8 307.6 19.2 309.6 18.7 311.5 17.8 313.5 16.5 315.4 16.4 317.4 16.4 319.3 16.9 321.3 17.2 323.3 17.1 325.2 16.6 327.2 17 329.1 16.7 331.1 17.2 333.1 17.2 335 17.2 337 17.3 338.9 16.7 340.9 16.5 342.9 17 344.8 16.9 346.8 16.8 348.7 17.1 350.7 17 352.7 17 354.6 17 356.6 16.8 358.5 16.7 360.5 16.7 362.4 17.1 364.4 17 366.4 17.2 368.3 17.4 370.3 17.5 372.2 17.4 374.2 17.8 376.2 18 378.1 17.9 380.1 18 382 17.6 384 17.9 386 18.1 387.9 18 389.9 18 391.8 17.9 393.8 17.9 395.8 17.7 397.7 17.7 399.7 17.7 401.6 18.2 403.6 18.4 405.6 18.6 407.5 18.7 409.5 18.8 411.4 18.9 413.4 18.7 415.3 18.4 417.3 18.8 419.3 18.7 421.2 18.6 423.2 18.7 425.1 18.8 427.1 18.7 429.1 18.7 431 18.9 433 18.7 434.9 18.1 436.9 18.1 438.9 18.1 440.8 18.4 442.8 18.5 444.7 18.4 446.7 18.4 448.7 18.2 450.6 18.2 452.6 18.1 454.5 18 456.5 18.4 458.4 18.4 460.4 18.4 462.4 18.6 464.3 18.6 466.3 18.8 468.2 18.9 470.2 18.8 472.2 18.7 474.1 18.8 476.1 18.4 478 18.5 480 18.6" transform="matrix(1,0,0,-1,62.8,442.5)" fill="#8392A5" fill-opacity="0.2"></polygon>
</g>
<g clip-path="url(#zr11-c4)">
<polyline points="0 5.6 2 5.6 3.9 17.4 5.9 17.7 7.8 17.7 9.8 17.8 11.8 17.5 13.7 17.4 15.7 17.3 17.6 17.4 19.6 17.3 21.6 17.7 23.5 17.2 25.5 16.9 27.4 17.2 29.4 17.7 31.3 17.8 33.3 17.8 35.3 17.9 37.2 17.7 39.2 17.4 41.1 17.5 43.1 17 45.1 17.1 47 17.3 49 17.4 50.9 16.9 52.9 16.7 54.9 16.8 56.8 17 58.8 17.1 60.7 17.2 62.7 17.2 64.7 17.3 66.6 17.4 68.6 17.3 70.5 17.6 72.5 17.7 74.4 17.6 76.4 17.5 78.4 17.5 80.3 17.4 82.3 17.3 84.2 17.5 86.2 17.5 88.2 17.6 90.1 17.8 92.1 17.9 94 18.2 96 18.3 98 18.6 99.9 18.6 101.9 18.8 103.8 19 105.8 19 107.8 18.8 109.7 19 111.7 19.1 113.6 19.5 115.6 19.2 117.6 19.5 119.5 19.4 121.5 19.8 123.4 20 125.4 20.1 127.3 19.9 129.3 20.4 131.3 20.6 133.2 20.6 135.2 20.3 137.1 21 139.1 21.2 141.1 20.9 143 21.2 145 21.6 146.9 21.4 148.9 21.7 150.9 22 152.8 21.7 154.8 21.9 156.7 21.7 158.7 21.9 160.7 21.2 162.6 20.8 164.6 20.7 166.5 21 168.5 21.4 170.4 21.6 172.4 21.5 174.4 21.4 176.3 21.1 178.3 21.2 180.2 21.7 182.2 21.8 184.2 22.2 186.1 22.5 188.1 23.2 190 23.5 192 23.5 194 22.3 195.9 22.4 197.9 23.2 199.8 23.5 201.8 23.4 203.8 23.8 205.7 23.9 207.7 24.3 209.6 23.9 211.6 24.1 213.6 24.3 215.5 24.4 217.5 23.8 219.4 23.3 221.4 23.5 223.3 22.6 225.3 21.8 227.3 22.3 229.2 22.7 231.2 21.6 233.1 21.2 235.1 20.1 237.1 20.9 239 20.3 241 19.4 242.9 20 244.9 18.9 246.9 18.2 248.8 18.1 250.8 19.1 252.7 19.8 254.7 20 256.7 19.7 258.6 19.2 260.6 19.5 262.5 19.9 264.5 19.9 266.4 20.1 268.4 20.2 270.4 20.6 272.3 20.1 274.3 18.6 276.2 19 278.2 19.3 280.2 18.9 282.1 18.7 284.1 18.7 286 19.2 288 18.8 290 19 291.9 19.3 293.9 19.9 295.8 19.7 297.8 19.6 299.8 20 301.7 19.9 303.7 20.1 305.6 18.8 307.6 19.2 309.6 18.7 311.5 17.8 313.5 16.5 315.4 16.4 317.4 16.4 319.3 16.9 321.3 17.2 323.3 17.1 325.2 16.6 327.2 17 329.1 16.7 331.1 17.2 333.1 17.2 335 17.2 337 17.3 338.9 16.7 340.9 16.5 342.9 17 344.8 16.9 346.8 16.8 348.7 17.1 350.7 17 352.7 17 354.6 17 356.6 16.8 358.5 16.7 360.5 16.7 362.4 17.1 364.4 17 366.4 17.2 368.3 17.4 370.3 17.5 372.2 17.4 374.2 17.8 376.2 18 378.1 17.9 380.1 18 382 17.6 384 17.9 386 18.1 387.9 18 389.9 18 391.8 17.9 393.8 17.9 395.8 17.7 397.7 17.7 399.7 17.7 401.6 18.2 403.6 18.4 405.6 18.6 407.5 18.7 409.5 18.8 411.4 18.9 413.4 18.7 415.3 18.4 417.3 18.8 419.3 18.7 421.2 18.6 423.2 18.7 425.1 18.8 427.1 18.7 429.1 18.7 431 18.9 433 18.7 434.9 18.1 436.9 18.1 438.9 18.1 440.8 18.4 442.8 18.5 444.7 18.4 446.7 18.4 448.7 18.2 450.6 18.2 452.6 18.1 454.5 18 456.5 18.4 458.4 18.4 460.4 18.4 462.4 18.6 464.3 18.6 466.3 18.8 468.2 18.9 470.2 18.8 472.2 18.7 474.1 18.8 476.1 18.4 478 18.5 480 18.6" transform="matrix(1,0,0,-1,62.8,442.5)" fill="none" stroke="#8392A5" stroke-width="0.5" stroke-opacity="0.8"></polyline>
</g>
<g clip-path="url(#zr11-c5)">
<polyline points="0 5.6 2 5.6 3.9 17.4 5.9 17.7 7.8 17.7 9.8 17.8 11.8 17.5 13.7 17.4 15.7 17.3 17.6 17.4 19.6 17.3 21.6 17.7 23.5 17.2 25.5 16.9 27.4 17.2 29.4 17.7 31.3 17.8 33.3 17.8 35.3 17.9 37.2 17.7 39.2 17.4 41.1 17.5 43.1 17 45.1 17.1 47 17.3 49 17.4 50.9 16.9 52.9 16.7 54.9 16.8 56.8 17 58.8 17.1 60.7 17.2 62.7 17.2 64.7 17.3 66.6 17.4 68.6 17.3 70.5 17.6 72.5 17.7 74.4 17.6 76.4 17.5 78.4 17.5 80.3 17.4 82.3 17.3 84.2 17.5 86.2 17.5 88.2 17.6 90.1 17.8 92.1 17.9 94 18.2 96 18.3 98 18.6 99.9 18.6 101.9 18.8 103.8 19 105.8 19 107.8 18.8 109.7 19 111.7 19.1 113.6 19.5 115.6 19.2 117.6 19.5 119.5 19.4 121.5 19.8 123.4 20 125.4 20.1 127.3 19.9 129.3 20.4 131.3 20.6 133.2 20.6 135.2 20.3 137.1 21 139.1 21.2 141.1 20.9 143 21.2 145 21.6 146.9 21.4 148.9 21.7 150.9 22 152.8 21.7 154.8 21.9 156.7 21.7 158.7 21.9 160.7 21.2 162.6 20.8 164.6 20.7 166.5 21 168.5 21.4 170.4 21.6 172.4 21.5 174.4 21.4 176.3 21.1 178.3 21.2 180.2 21.7 182.2 21.8 184.2 22.2 186.1 22.5 188.1 23.2 190 23.5 192 23.5 194 22.3 195.9 22.4 197.9 23.2 199.8 23.5 201.8 23.4 203.8 23.8 205.7 23.9 207.7 24.3 209.6 23.9 211.6 24.1 213.6 24.3 215.5 24.4 217.5 23.8 219.4 23.3 221.4 23.5 223.3 22.6 225.3 21.8 227.3 22.3 229.2 22.7 231.2 21.6 233.1 21.2 235.1 20.1 237.1 20.9 239 20.3 241 19.4 242.9 20 244.9 18.9 246.9 18.2 248.8 18.1 250.8 19.1 252.7 19.8 254.7 20 256.7 19.7 258.6 19.2 260.6 19.5 262.5 19.9 264.5 19.9 266.4 20.1 268.4 20.2 270.4 20.6 272.3 20.1 274.3 18.6 276.2 19 278.2 19.3 280.2 18.9 282.1 18.7 284.1 18.7 286 19.2 288 18.8 290 19 291.9 19.3 293.9 19.9 295.8 19.7 297.8 19.6 299.8 20 301.7 19.9 303.7 20.1 305.6 18.8 307.6 19.2 309.6 18.7 311.5 17.8 313.5 16.5 315.4 16.4 317.4 16.4 319.3 16.9 321.3 17.2 323.3 17.1 325.2 16.6 327.2 17 329.1 16.7 331.1 17.2 333.1 17.2 335 17.2 337 17.3 338.9 16.7 340.9 16.5 342.9 17 344.8 16.9 346.8 16.8 348.7 17.1 350.7 17 352.7 17 354.6 17 356.6 16.8 358.5 16.7 360.5 16.7 362.4 17.1 364.4 17 366.4 17.2 368.3 17.4 370.3 17.5 372.2 17.4 374.2 17.8 376.2 18 378.1 17.9 380.1 18 382 17.6 384 17.9 386 18.1 387.9 18 389.9 18 391.8 17.9 393.8 17.9 395.8 17.7 397.7 17.7 399.7 17.7 401.6 18.2 403.6 18.4 405.6 18.6 407.5 18.7 409.5 18.8 411.4 18.9 413.4 18.7 415.3 18.4 417.3 18.8 419.3 18.7 421.2 18.6 423.2 18.7 425.1 18.8 427.1 18.7 429.1 18.7 431 18.9 433 18.7 434.9 18.1 436.9 18.1 438.9 18.1 440.8 18.4 442.8 18.5 444.7 18.4 446.7 18.4 448.7 18.2 450.6 18.2 452.6 18.1 454.5 18 456.5 18.4 458.4 18.4 460.4 18.4 462.4 18.6 464.3 18.6 466.3 18.8 468.2 18.9 470.2 18.8 472.2 18.7 474.1 18.8 476.1 18.4 478 18.5 480 18.6" transform="matrix(1,0,0,-1,62.8,442.5)" fill="none" stroke="#8fb0f7" stroke-width="0.5"></polyline>
</g>
<g clip-path="url(#zr11-c6)">
<polyline points="0 5.6 2 5.6 3.9 17.4 5.9 17.7 7.8 17.7 9.8 17.8 11.8 17.5 13.7 17.4 15.7 17.3 17.6 17.4 19.6 17.3 21.6 17.7 23.5 17.2 25.5 16.9 27.4 17.2 29.4 17.7 31.3 17.8 33.3 17.8 35.3 17.9 37.2 17.7 39.2 17.4 41.1 17.5 43.1 17 45.1 17.1 47 17.3 49 17.4 50.9 16.9 52.9 16.7 54.9 16.8 56.8 17 58.8 17.1 60.7 17.2 62.7 17.2 64.7 17.3 66.6 17.4 68.6 17.3 70.5 17.6 72.5 17.7 74.4 17.6 76.4 17.5 78.4 17.5 80.3 17.4 82.3 17.3 84.2 17.5 86.2 17.5 88.2 17.6 90.1 17.8 92.1 17.9 94 18.2 96 18.3 98 18.6 99.9 18.6 101.9 18.8 103.8 19 105.8 19 107.8 18.8 109.7 19 111.7 19.1 113.6 19.5 115.6 19.2 117.6 19.5 119.5 19.4 121.5 19.8 123.4 20 125.4 20.1 127.3 19.9 129.3 20.4 131.3 20.6 133.2 20.6 135.2 20.3 137.1 21 139.1 21.2 141.1 20.9 143 21.2 145 21.6 146.9 21.4 148.9 21.7 150.9 22 152.8 21.7 154.8 21.9 156.7 21.7 158.7 21.9 160.7 21.2 162.6 20.8 164.6 20.7 166.5 21 168.5 21.4 170.4 21.6 172.4 21.5 174.4 21.4 176.3 21.1 178.3 21.2 180.2 21.7 182.2 21.8 184.2 22.2 186.1 22.5 188.1 23.2 190 23.5 192 23.5 194 22.3 195.9 22.4 197.9 23.2 199.8 23.5 201.8 23.4 203.8 23.8 205.7 23.9 207.7 24.3 209.6 23.9 211.6 24.1 213.6 24.3 215.5 24.4 217.5 23.8 219.4 23.3 221.4 23.5 223.3 22.6 225.3 21.8 227.3 22.3 229.2 22.7 231.2 21.6 233.1 21.2 235.1 20.1 237.1 20.9 239 20.3 241 19.4 242.9 20 244.9 18.9 246.9 18.2 248.8 18.1 250.8 19.1 252.7 19.8 254.7 20 256.7 19.7 258.6 19.2 260.6 19.5 262.5 19.9 264.5 19.9 266.4 20.1 268.4 20.2 270.4 20.6 272.3 20.1 274.3 18.6 276.2 19 278.2 19.3 280.2 18.9 282.1 18.7 284.1 18.7 286 19.2 288 18.8 290 19 291.9 19.3 293.9 19.9 295.8 19.7 297.8 19.6 299.8 20 301.7 19.9 303.7 20.1 305.6 18.8 307.6 19.2 309.6 18.7 311.5 17.8 313.5 16.5 315.4 16.4 317.4 16.4 319.3 16.9 321.3 17.2 323.3 17.1 325.2 16.6 327.2 17 329.1 16.7 331.1 17.2 333.1 17.2 335 17.2 337 17.3 338.9 16.7 340.9 16.5 342.9 17 344.8 16.9 346.8 16.8 348.7 17.1 350.7 17 352.7 17 354.6 17 356.6 16.8 358.5 16.7 360.5 16.7 362.4 17.1 364.4 17 366.4 17.2 368.3 17.4 370.3 17.5 372.2 17.4 374.2 17.8 376.2 18 378.1 17.9 380.1 18 382 17.6 384 17.9 386 18.1 387.9 18 389.9 18 391.8 17.9 393.8 17.9 395.8 17.7 397.7 17.7 399.7 17.7 401.6 18.2 403.6 18.4 405.6 18.6 407.5 18.7 409.5 18.8 411.4 18.9 413.4 18.7 415.3 18.4 417.3 18.8 419.3 18.7 421.2 18.6 423.2 18.7 425.1 18.8 427.1 18.7 429.1 18.7 431 18.9 433 18.7 434.9 18.1 436.9 18.1 438.9 18.1 440.8 18.4 442.8 18.5 444.7 18.4 446.7 18.4 448.7 18.2 450.6 18.2 452.6 18.1 454.5 18 456.5 18.4 458.4 18.4 460.4 18.4 462.4 18.6 464.3 18.6 466.3 18.8 468.2 18.9 470.2 18.8 472.2 18.7 474.1 18.8 476.1 18.4 478 18.5 480 18.6" transform="matrix(1,0,0,-1,62.8,442.5)" fill="none" stroke="#8392A5" stroke-width="0.5" stroke-opacity="0.8"></polyline>
</g>
<path d="M-5 -5l283 0l0 23.2l-283 0Z" transform="translate(163.48 5)" fill="rgb(0,0,0)" fill-opacity="0" stroke="#ccc" stroke-width="0"></path>
<path d="M0 7L25 7" transform="translate(164.48 4.6)" fill="#000" stroke="#5470c6" stroke-width="2" stroke-linecap="butt" stroke-miterlimit="10"></path>
<path d="M18.1 7A5.6 5.6 0 1 1 18.1 6.4A5.6 5.6 0 0 1 18.1 7" transform="translate(164.48 4.6)" fill="#fff" stroke="#5470c6" stroke-width="2" stroke-linecap="butt" stroke-miterlimit="10"></path>
<text dominant-baseline="central" text-anchor="start" style="font-size:12px;font-family:sans-serif;" x="30" y="7" transform="translate(164.48 4.6)" fill="#333">MA5</text>
<path d="M0 7L25 7" transform="translate(230.2 4.6)" fill="#000" stroke="#91cc75" stroke-width="2" stroke-linecap="butt" stroke-miterlimit="10"></path>
<path d="M18.1 7A5.6 5.6 0 1 1 18.1 6.4A5.6 5.6 0 0 1 18.1 7" transform="translate(230.2 4.6)" fill="#fff" stroke="#91cc75" stroke-width="2" stroke-linecap="butt" stroke-miterlimit="10"></path>
<text dominant-baseline="central" text-anchor="start" style="font-size:12px;font-family:sans-serif;" x="30" y="7" transform="translate(230.2 4.6)" fill="#333">MA10</text>
<path d="M0 7L25 7" transform="translate(302.64 4.6)" fill="#000" stroke="#fac858" stroke-width="2" stroke-linecap="butt" stroke-miterlimit="10"></path>
<path d="M18.1 7A5.6 5.6 0 1 1 18.1 6.4A5.6 5.6 0 0 1 18.1 7" transform="translate(302.64 4.6)" fill="#fff" stroke="#fac858" stroke-width="2" stroke-linecap="butt" stroke-miterlimit="10"></path>
<text dominant-baseline="central" text-anchor="start" style="font-size:12px;font-family:sans-serif;" x="30" y="7" transform="translate(302.64 4.6)" fill="#333">MA20</text>
<path d="M0 7L25 7" transform="translate(375.08 4.6)" fill="#000" stroke="#ee6666" stroke-width="2" stroke-linecap="butt" stroke-miterlimit="10"></path>
<path d="M18.1 7A5.6 5.6 0 1 1 18.1 6.4A5.6 5.6 0 0 1 18.1 7" transform="translate(375.08 4.6)" fill="#fff" stroke="#ee6666" stroke-width="2" stroke-linecap="butt" stroke-miterlimit="10"></path>
<text dominant-baseline="central" text-anchor="start" style="font-size:12px;font-family:sans-serif;" x="30" y="7" transform="translate(375.08 4.6)" fill="#333">MA30</text>
<path d="M0 0l480 0l0 30l-480 0Z" transform="matrix(1,0,0,-1,62.8,442.5)" fill="none"></path>
<path d="M0 0l480 0l0 30l-480 0Z" transform="matrix(1,0,0,-1,62.8,442.5)" fill="rgb(135,175,255)" fill-opacity="0.2"></path>
<path d="M3.5 0.5L476.5 0.5A3 3 0 0 1 479.5 3.5L479.5 26.5A3 3 0 0 1 476.5 29.5L3.5 29.5A3 3 0 0 1 0.5 26.5L0.5 3.5A3 3 0 0 1 3.5 0.5" transform="matrix(1,0,0,-1,62.8,442.5)" fill="rgb(0,0,0)" fill-opacity="0" stroke="#d2dbee"></path>
<path d="M0 29.5L480 29.5L480 34.5A2 2 0 0 1 478 36.5L2 36.5A2 2 0 0 1 0 34.5L0 29.5" transform="matrix(1,0,0,-1,62.8,442.5)" fill="#D2DBEE" fill-opacity="0.7"></path>
<path d="M-2.2 -1.7C-1.9 -1.7 -1.7 -1.5 -1.7 -1.1L-1.7 1.1C-1.7 1.5 -1.9 1.7 -2.2 1.7C-2.6 1.7 -2.8 1.5 -2.8 1.1L-2.8 -1.1C-2.8 -1.5 -2.6 -1.7 -2.2 -1.7ZM0 -1.7C0.4 -1.7 0.6 -1.5 0.6 -1.1L0.6 1.1C0.6 1.5 0.4 1.7 0 1.7C-0.4 1.7 -0.6 1.5 -0.6 1.1L-0.6 -1.1C-0.6 -1.5 -0.4 -1.7 0 -1.7ZM2.2 -1.7C2.6 -1.7 2.8 -1.5 2.8 -1.1L2.8 1.1C2.8 1.5 2.6 1.7 2.2 1.7C1.9 1.7 1.7 1.5 1.7 1.1L1.7 -1.1C1.7 -1.5 1.9 -1.7 2.2 -1.7Z" transform="matrix(1,0,0,-1,302.8,409.5)" fill="#fff"></path>
<path d="M0.07 0.12L0.07 0L-0.06 0L-0.06 0.12C-0.52 0.15 -0.88 0.53 -0.88 1C-0.88 1.47 -0.52 1.85 -0.06 1.88L-0.06 2L0.06 2L0.06 1.88C0.52 1.85 0.88 1.47 0.88 1C0.89 0.53 0.53 0.15 0.07 0.12ZM0.31 1.29L-0.3 1.29L-0.3 1.16L0.31 1.16L0.31 1.29ZM0.31 0.84L-0.3 0.84L-0.3 0.71L0.31 0.71L0.31 0.84Z" transform="matrix(15,0,0,-15,63.8,442.5)" fill="#fff" stroke="#ACB8D1" stroke-width="0.06666666666666667"></path>
<path d="M0.07 0.12L0.07 0L-0.06 0L-0.06 0.12C-0.52 0.15 -0.88 0.53 -0.88 1C-0.88 1.47 -0.52 1.85 -0.06 1.88L-0.06 2L0.06 2L0.06 1.88C0.52 1.85 0.88 1.47 0.88 1C0.89 0.53 0.53 0.15 0.07 0.12ZM0.31 1.29L-0.3 1.29L-0.3 1.16L0.31 1.16L0.31 1.29ZM0.31 0.84L-0.3 0.84L-0.3 0.71L0.31 0.71L0.31 0.84Z" transform="matrix(15,0,0,-15,541.8,442.5)" fill="#fff" stroke="#ACB8D1" stroke-width="0.06666666666666667"></path>
<defs >
<clipPath id="zr11-c0">
<path d="M59 59.5l481 0l0 311l-481 0Z" fill="#000"></path>
</clipPath>
<clipPath id="zr11-c1">
<path d="M59 59.5l481 0l0 311l-481 0Z" fill="#000"></path>
</clipPath>
<clipPath id="zr11-c2">
<path d="M59 59.5l481 0l0 311l-481 0Z" fill="#000"></path>
</clipPath>
<clipPath id="zr11-c3">
<path d="M59 59.5l481 0l0 311l-481 0Z" fill="#000"></path>
</clipPath>
<clipPath id="zr11-c4">
<path d="M0 0l0 0l0 30l0 0Z" transform="matrix(1,0,0,-1,62.8,442.5)" fill="#000"></path>
</clipPath>
<clipPath id="zr11-c5">
<path d="M0 0l480 0l0 30l-480 0Z" transform="matrix(1,0,0,-1,62.8,442.5)" fill="#000"></path>
</clipPath>
<clipPath id="zr11-c6">
<path d="M480 0l0 0l0 30l0 0Z" transform="matrix(1,0,0,-1,62.8,442.5)" fill="#000"></path>
</clipPath>
</defs>
</svg>