<svg width="600" height="450" xmlns="http://www.w3.org/2000/svg" xmlns:xlink="http://www.w3.org/1999/xlink" version="1.1" baseProfile="full" viewBox="0 0 600 450">
<rect width="600" height="450" x="0" y="0" fill="none"></rect>
<path d="M60 370.5L540 370.5" fill="transparent" stroke="#6E7079" stroke-linecap="round" class="zr16-cls-57"></path>
<path d="M60.5 370L60.5 375" fill="transparent" stroke="#6E7079" class="zr16-cls-57"></path>
<path d="M140.5 370L140.5 375" fill="transparent" stroke="#6E7079" class="zr16-cls-57"></path>
<path d="M220.5 370L220.5 375" fill="transparent" stroke="#6E7079" class="zr16-cls-57"></path>
<path d="M300.5 370L300.5 375" fill="transparent" stroke="#6E7079" class="zr16-cls-57"></path>
<path d="M380.5 370L380.5 375" fill="transparent" stroke="#6E7079" class="zr16-cls-57"></path>
<path d="M460.5 370L460.5 375" fill="transparent" stroke="#6E7079" class="zr16-cls-57"></path>
<path d="M540.5 370L540.5 375" fill="transparent" stroke="#6E7079" class="zr16-cls-57"></path>
<text dominant-baseline="central" text-anchor="end" style="font-size:12px;font-family:sans-serif;" transform="translate(52 370)" fill="#6E7079">0</text>
<text dominant-baseline="central" text-anchor="end" style="font-size:12px;font-family:sans-serif;" transform="translate(52 318.3333)" fill="#6E7079">1,000</text>
<text dominant-baseline="central" text-anchor="end" style="font-size:12px;font-family:sans-serif;" transform="translate(52 266.6667)" fill="#6E7079">2,000</text>
<text dominant-baseline="central" text-anchor="end" style="font-size:12px;font-family:sans-serif;" transform="translate(52 215)" fill="#6E7079">3,000</text>
<text dominant-baseline="central" text-anchor="end" style="font-size:12px;font-family:sans-serif;" transform="translate(52 163.3333)" fill="#6E7079">4,000</text>
<text dominant-baseline="central" text-anchor="end" style="font-size:12px;font-family:sans-serif;" transform="translate(52 111.6667)" fill="#6E7079">5,000</text>
<text dominant-baseline="central" text-anchor="end" style="font-size:12px;font-family:sans-serif;" transform="translate(52 60)" fill="#6E7079">6,000</text>
<text dominant-baseline="central" text-anchor="middle" style="font-size:12px;font-family:sans-serif;" y="6" transform="translate(140.9756 378)" fill="#6E7079">2015/3/6</text>
<text dominant-baseline="central" text-anchor="middle" style="font-size:12px;font-family:sans-serif;" y="6" transform="translate(220.9756 378)" fill="#6E7079">2015/5/6</text>
<text dominant-baseline="central" text-anchor="middle" style="font-size:12px;font-family:sans-serif;" y="6" transform="translate(300.9756 378)" fill="#6E7079">2015/7/3</text>
<text dominant-baseline="central" text-anchor="middle" style="font-size:12px;font-family:sans-serif;" y="6" transform="translate(380.9756 378)" fill="#6E7079">2015/8/31</text>
<text dominant-baseline="central" text-anchor="middle" style="font-size:12px;font-family:sans-serif;" y="6" transform="translate(460.9756 378)" fill="#6E7079">2015/11/5</text>
<path d="M60.5 370" fill="#eb5454" stroke="#eb5454" ecmeta_series_index="0" ecmeta_data_index="0" ecmeta_ssr_type="chart" class="zr16-cls-58"></path>
<path d="M62.5 370" fill="#eb5454" stroke="#eb5454" ecmeta_series_index="0" ecmeta_data_index="1" ecmeta_ssr_type="chart" class="zr16-cls-58"></path>
<path d="M64.5 195.9L64.5 201.9" fill="#eb5454" stroke="#eb5454" ecmeta_series_index="0" ecmeta_data_index="2" ecmeta_ssr_type="chart" class="zr16-cls-58"></path>
<path d="M66.5 194.6L66.5 199.3" fill="#eb5454" stroke="#eb5454" ecmeta_series_index="0" ecmeta_data_index="3" ecmeta_ssr_type="chart" class="zr16-cls-58"></path>
<path d="M68.5 195.6L68.5 198.9" fill="#eb5454" stroke="#eb5454" ecmeta_series_index="0" ecmeta_data_index="4" ecmeta_ssr_type="chart" class="zr16-cls-58"></path>
<path d="M70.5 195.3L70.5 200.3" fill="#47b262" stroke="#47b262" ecmeta_series_index="0" ecmeta_data_index="5" ecmeta_ssr_type="chart" class="zr16-cls-59"></path>
<path d="M72.5 194.1L72.5 201.2" fill="#eb5454" stroke="#eb5454" ecmeta_series_index="0" ecmeta_data_index="6" ecmeta_ssr_type="chart" class="zr16-cls-58"></path>
<path d="M74.5 200.8L74.5 205.1" fill="#47b262" stroke="#47b262" ecmeta_series_index="0" ecmeta_data_index="7" ecmeta_ssr_type="chart" class="zr16-cls-59"></path>
<path d="M76.5 201.6L76.5 203.9" fill="#eb5454" stroke="#eb5454" ecmeta_series_index="0" ecmeta_data_index="8" ecmeta_ssr_type="chart" class="zr16-cls-58"></path>
<path d="M78.5 201.1L78.5 205" fill="#47b262" stroke="#47b262" ecmeta_series_index="0" ecmeta_data_index="9" ecmeta_ssr_type="chart" class="zr16-cls-59"></path>
<path d="M80.5 197.6L80.5 204.3" fill="#eb5454" stroke="#eb5454" ecmeta_series_index="0" ecmeta_data_index="10" ecmeta_ssr_type="chart" class="zr16-cls-58"></path>
<path d="M82.5 194.3L82.5 197.4" fill="#eb5454" stroke="#eb5454" ecmeta_series_index="0" ecmeta_data_index="11" ecmeta_ssr_type="chart" class="zr16-cls-58"></path>
<path d="M84.5 201.5L84.5 210.1" fill="#47b262" stroke="#47b262" ecmeta_series_index="0" ecmeta_data_index="12" ecmeta_ssr_type="chart" class="zr16-cls-59"></path>
<path d="M86.5 205.2L86.5 209.8" fill="#eb5454" stroke="#eb5454" ecmeta_series_index="0" ecmeta_data_index="13" ecmeta_ssr_type="chart" class="zr16-cls-58"></path>
<path d="M88.5 197.6L88.5 205.8" fill="#eb5454" stroke="#eb5454" ecmeta_series_index="0" ecmeta_data_index="14" ecmeta_ssr_type="chart" class="zr16-cls-58"></path>
<path d="M89.5 196.8L89.5 199.8" fill="#eb5454" stroke="#eb5454" ecmeta_series_index="0" ecmeta_data_index="15" ecmeta_ssr_type="chart" class="zr16-cls-58"></path>
<path d="M91.5 194L91.5 198" fill="#47b262" stroke="#47b262" ecmeta_series_index="0" ecmeta_data_index="16" ecmeta_ssr_type="chart" class="zr16-cls-59"></path>
<path d="M93.5 195.1L93.5 198.4" fill="#eb5454" stroke="#eb5454" ecmeta_series_index="0" ecmeta_data_index="17" ecmeta_ssr_type="chart" class="zr16-cls-58"></path>
<path d="M95.5 194.8L95.5 200" fill="#47b262" stroke="#47b262" ecmeta_series_index="0" ecmeta_data_index="18" ecmeta_ssr_type="chart" class="zr16-cls-59"></path>
<path d="M97.5 196.7L97.5 199.8" fill="#47b262" stroke="#47b262" ecmeta_series_index="0" ecmeta_data_index="19" ecmeta_ssr_type="chart" class="zr16-cls-59"></path>
<path d="M99.5 200.2L99.5 202.9" fill="#eb5454" stroke="#eb5454" ecmeta_series_index="0" ecmeta_data_index="20" ecmeta_ssr_type="chart" class="zr16-cls-58"></path>
<path d="M101.5 200.1L101.5 204.1" fill="#47b262" stroke="#47b262" ecmeta_series_index="0" ecmeta_data_index="21" ecmeta_ssr_type="chart" class="zr16-cls-59"></path>
<path d="M103.5 206L103.5 208.7" fill="#47b262" stroke="#47b262" ecmeta_series_index="0" ecmeta_data_index="22" ecmeta_ssr_type="chart" class="zr16-cls-59"></path>
<path d="M105.5 204.3L105.5 208.3" fill="#eb5454" stroke="#eb5454" ecmeta_series_index="0" ecmeta_data_index="23" ecmeta_ssr_type="chart" class="zr16-cls-58"></path>
<path d="M107.5 202.7L107.5 206.2" fill="#47b262" stroke="#47b262" ecmeta_series_index="0" ecmeta_data_index="24" ecmeta_ssr_type="chart" class="zr16-cls-59"></path>
<path d="M109.5 202L109.5 208" fill="#47b262" stroke="#47b262" ecmeta_series_index="0" ecmeta_data_index="25" ecmeta_ssr_type="chart" class="zr16-cls-59"></path>
<path d="M111.5 208.3L111.5 212.3" fill="#47b262" stroke="#47b262" ecmeta_series_index="0" ecmeta_data_index="26" ecmeta_ssr_type="chart" class="zr16-cls-59"></path>
<path d="M113.5 208.9L113.5 212.5" fill="#eb5454" stroke="#eb5454" ecmeta_series_index="0" ecmeta_data_index="27" ecmeta_ssr_type="chart" class="zr16-cls-58"></path>
<path d="M115.5 207.7L115.5 210.6" fill="#eb5454" stroke="#eb5454" ecmeta_series_index="0" ecmeta_data_index="28" ecmeta_ssr_type="chart" class="zr16-cls-58"></path>
<path d="M117.5 206.4L117.5 207.8" fill="#eb5454" stroke="#eb5454" ecmeta_series_index="0" ecmeta_data_index="29" ecmeta_ssr_type="chart" class="zr16-cls-58"></path>
<path d="M119.5 205.6L119.5 208.1" fill="#eb5454" stroke="#eb5454" ecmeta_series_index="0" ecmeta_data_index="30" ecmeta_ssr_type="chart" class="zr16-cls-58"></path>
<path d="M121.5 202.7L121.5 205.6" fill="#eb5454" stroke="#eb5454" ecmeta_series_index="0" ecmeta_data_index="31" ecmeta_ssr_type="chart" class="zr16-cls-58"></path>
<path d="M123.5 203.2L123.5 204.9" fill="#eb5454" stroke="#eb5454" ecmeta_series_index="0" ecmeta_data_index="32" ecmeta_ssr_type="chart" class="zr16-cls-58"></path>
<path d="M125.5 201.8L125.5 203.1" fill="#eb5454" stroke="#eb5454" ecmeta_series_index="0" ecmeta_data_index="33" ecmeta_ssr_type="chart" class="zr16-cls-58"></path>
<path d="M127.5 201.7L127.5 203.9" fill="#47b262" stroke="#47b262" ecmeta_series_index="0" ecmeta_data_index="34" ecmeta_ssr_type="chart" class="zr16-cls-59"></path>
<path d="M129.5 199.5L129.5 204.6" fill="#eb5454" stroke="#eb5454" ecmeta_series_index="0" ecmeta_data_index="35" ecmeta_ssr_type="chart" class="zr16-cls-58"></path>
<path d="M130.5 198.2L130.5 200" fill="#eb5454" stroke="#eb5454" ecmeta_series_index="0" ecmeta_data_index="36" ecmeta_ssr_type="chart" class="zr16-cls-58"></path>
<path d="M132.5 197.6L132.5 199.6" fill="#eb5454" stroke="#eb5454" ecmeta_series_index="0" ecmeta_data_index="37" ecmeta_ssr_type="chart" class="zr16-cls-58"></path>
<path d="M134.5 198.6L134.5 201.5" fill="#47b262" stroke="#47b262" ecmeta_series_index="0" ecmeta_data_index="38" ecmeta_ssr_type="chart" class="zr16-cls-59"></path>
<path d="M136.5 200.2L136.5 202.1" fill="#eb5454" stroke="#eb5454" ecmeta_series_index="0" ecmeta_data_index="39" ecmeta_ssr_type="chart" class="zr16-cls-58"></path>
<path d="M138.5 201.2L138.5 203.5" fill="#47b262" stroke="#47b262" ecmeta_series_index="0" ecmeta_data_index="40" ecmeta_ssr_type="chart" class="zr16-cls-59"></path>
<path d="M140.5 201.2L140.5 202.9" fill="#47b262" stroke="#47b262" ecmeta_series_index="0" ecmeta_data_index="41" ecmeta_ssr_type="chart" class="zr16-cls-59"></path>
<path d="M142.5 199.1L142.5 204.8" fill="#eb5454" stroke="#eb5454" ecmeta_series_index="0" ecmeta_data_index="42" ecmeta_ssr_type="chart" class="zr16-cls-58"></path>
<path d="M144.5 199L144.5 200.7" fill="#47b262" stroke="#47b262" ecmeta_series_index="0" ecmeta_data_index="43" ecmeta_ssr_type="chart" class="zr16-cls-59"></path>
<path d="M146.5 198.2L146.5 200.6" fill="#eb5454" stroke="#eb5454" ecmeta_series_index="0" ecmeta_data_index="44" ecmeta_ssr_type="chart" class="zr16-cls-58"></path>
<path d="M148.5 196.4L148.5 199.5" fill="#eb5454" stroke="#eb5454" ecmeta_series_index="0" ecmeta_data_index="45" ecmeta_ssr_type="chart" class="zr16-cls-58"></path>
<path d="M150.5 194.8L150.5 196.8" fill="#eb5454" stroke="#eb5454" ecmeta_series_index="0" ecmeta_data_index="46" ecmeta_ssr_type="chart" class="zr16-cls-58"></path>
<path d="M152.5 191.8L152.5 195.5" fill="#eb5454" stroke="#eb5454" ecmeta_series_index="0" ecmeta_data_index="47" ecmeta_ssr_type="chart" class="zr16-cls-58"></path>
<path d="M154.5 189L154.5 191.2" fill="#eb5454" stroke="#eb5454" ecmeta_series_index="0" ecmeta_data_index="48" ecmeta_ssr_type="chart" class="zr16-cls-58"></path>
<path d="M156.5 185.2L156.5 189" fill="#eb5454" stroke="#eb5454" ecmeta_series_index="0" ecmeta_data_index="49" ecmeta_ssr_type="chart" class="zr16-cls-58"></path>
<path d="M158.5 184L158.5 186.7" fill="#eb5454" stroke="#eb5454" ecmeta_series_index="0" ecmeta_data_index="50" ecmeta_ssr_type="chart" class="zr16-cls-58"></path>
<path d="M160.5 182.3L160.5 185.6" fill="#eb5454" stroke="#eb5454" ecmeta_series_index="0" ecmeta_data_index="51" ecmeta_ssr_type="chart" class="zr16-cls-58"></path>
<path d="M162.5 179.4L162.5 182.2" fill="#eb5454" stroke="#eb5454" ecmeta_series_index="0" ecmeta_data_index="52" ecmeta_ssr_type="chart" class="zr16-cls-58"></path>
<path d="M164.5 178L164.5 184" fill="#47b262" stroke="#47b262" ecmeta_series_index="0" ecmeta_data_index="53" ecmeta_ssr_type="chart" class="zr16-cls-59"></path>
<path d="M166.5 179.2L166.5 182.2" fill="#47b262" stroke="#47b262" ecmeta_series_index="0" ecmeta_data_index="54" ecmeta_ssr_type="chart" class="zr16-cls-59"></path>
<path d="M168.5 178.5L168.5 183.2" fill="#eb5454" stroke="#eb5454" ecmeta_series_index="0" ecmeta_data_index="55" ecmeta_ssr_type="chart" class="zr16-cls-58"></path>
<path d="M169.5 178.3L169.5 181.1" fill="#eb5454" stroke="#eb5454" ecmeta_series_index="0" ecmeta_data_index="56" ecmeta_ssr_type="chart" class="zr16-cls-58"></path>
<path d="M171.5 173.9L171.5 178.3" fill="#eb5454" stroke="#eb5454" ecmeta_series_index="0" ecmeta_data_index="57" ecmeta_ssr_type="chart" class="zr16-cls-58"></path>
<path d="M173.5 171.8L173.5 176.9" fill="#47b262" stroke="#47b262" ecmeta_series_index="0" ecmeta_data_index="58" ecmeta_ssr_type="chart" class="zr16-cls-59"></path>
<path d="M175.5 172.8L175.5 176.7" fill="#eb5454" stroke="#eb5454" ecmeta_series_index="0" ecmeta_data_index="59" ecmeta_ssr_type="chart" class="zr16-cls-58"></path>
<path d="M177.5 171.8L177.5 174.9" fill="#47b262" stroke="#47b262" ecmeta_series_index="0" ecmeta_data_index="60" ecmeta_ssr_type="chart" class="zr16-cls-59"></path>
<path d="M179.5 170.3L179.5 174.1" fill="#eb5454" stroke="#eb5454" ecmeta_series_index="0" ecmeta_data_index="61" ecmeta_ssr_type="chart" class="zr16-cls-58"></path>
<path d="M181.5 165.3L181.5 168.9" fill="#eb5454" stroke="#eb5454" ecmeta_series_index="0" ecmeta_data_index="62" ecmeta_ssr_type="chart" class="zr16-cls-58"></path>
<path d="M183.5 163.3L183.5 168.3" fill="#eb5454" stroke="#eb5454" ecmeta_series_index="0" ecmeta_data_index="63" ecmeta_ssr_type="chart" class="zr16-cls-58"></path>
<path d="M185.5 162.5L185.5 168.5" fill="#47b262" stroke="#47b262" ecmeta_series_index="0" ecmeta_data_index="64" ecmeta_ssr_type="chart" class="zr16-cls-59"></path>
<path d="M187.5 161.2L187.5 167" fill="#eb5454" stroke="#eb5454" ecmeta_series_index="0" ecmeta_data_index="65" ecmeta_ssr_type="chart" class="zr16-cls-58"></path>
<path d="M189.5 156.7L189.5 160.4" fill="#eb5454" stroke="#eb5454" ecmeta_series_index="0" ecmeta_data_index="66" ecmeta_ssr_type="chart" class="zr16-cls-58"></path>
<path d="M191.5 154.6L191.5 158.6" fill="#eb5454" stroke="#eb5454" ecmeta_series_index="0" ecmeta_data_index="67" ecmeta_ssr_type="chart" class="zr16-cls-58"></path>
<path d="M193.5 154.3L193.5 159.8" fill="#47b262" stroke="#47b262" ecmeta_series_index="0" ecmeta_data_index="68" ecmeta_ssr_type="chart" class="zr16-cls-59"></path>
<path d="M195.5 153.2L195.5 161.7" fill="#eb5454" stroke="#eb5454" ecmeta_series_index="0" ecmeta_data_index="69" ecmeta_ssr_type="chart" class="zr16-cls-58"></path>
<path d="M197.5 146.9L197.5 151" fill="#eb5454" stroke="#eb5454" ecmeta_series_index="0" ecmeta_data_index="70" ecmeta_ssr_type="chart" class="zr16-cls-58"></path>
<path d="M199.5 144.9L199.5 153.5" fill="#47b262" stroke="#47b262" ecmeta_series_index="0" ecmeta_data_index="71" ecmeta_ssr_type="chart" class="zr16-cls-59"></path>
<path d="M201.5 148.1L201.5 153.6" fill="#eb5454" stroke="#eb5454" ecmeta_series_index="0" ecmeta_data_index="72" ecmeta_ssr_type="chart" class="zr16-cls-58"></path>
<path d="M203.5 142.7L203.5 147.9" fill="#eb5454" stroke="#eb5454" ecmeta_series_index="0" ecmeta_data_index="73" ecmeta_ssr_type="chart" class="zr16-cls-58"></path>
<path d="M205.5 140.4L205.5 144.8" fill="#eb5454" stroke="#eb5454" ecmeta_series_index="0" ecmeta_data_index="74" ecmeta_ssr_type="chart" class="zr16-cls-58"></path>
<path d="M207.5 141.8L207.5 146.9" fill="#eb5454" stroke="#eb5454" ecmeta_series_index="0" ecmeta_data_index="75" ecmeta_ssr_type="chart" class="zr16-cls-58"></path>
<path d="M209.5 136L209.5 140.5" fill="#eb5454" stroke="#eb5454" ecmeta_series_index="0" ecmeta_data_index="76" ecmeta_ssr_type="chart" class="zr16-cls-58"></path>
<path d="M210.5 133.8L210.5 141" fill="#47b262" stroke="#47b262" ecmeta_series_index="0" ecmeta_data_index="77" ecmeta_ssr_type="chart" class="zr16-cls-59"></path>
<path d="M212.5 137.5L212.5 142.7" fill="#eb5454" stroke="#eb5454" ecmeta_series_index="0" ecmeta_data_index="78" ecmeta_ssr_type="chart" class="zr16-cls-58"></path>
<path d="M214.5 137.1L214.5 140.5" fill="#47b262" stroke="#47b262" ecmeta_series_index="0" ecmeta_data_index="79" ecmeta_ssr_type="chart" class="zr16-cls-59"></path>
<path d="M216.5 138.1L216.5 143.3" fill="#eb5454" stroke="#eb5454" ecmeta_series_index="0" ecmeta_data_index="80" ecmeta_ssr_type="chart" class="zr16-cls-58"></path>
<path d="M218.5 138.1L218.5 148.8" fill="#47b262" stroke="#47b262" ecmeta_series_index="0" ecmeta_data_index="81" ecmeta_ssr_type="chart" class="zr16-cls-59"></path>
<path d="M220.5 143.9L220.5 153.7" fill="#47b262" stroke="#47b262" ecmeta_series_index="0" ecmeta_data_index="82" ecmeta_ssr_type="chart" class="zr16-cls-59"></path>
<path d="M222.5 152.3L222.5 157.8" fill="#47b262" stroke="#47b262" ecmeta_series_index="0" ecmeta_data_index="83" ecmeta_ssr_type="chart" class="zr16-cls-59"></path>
<path d="M224.5 152.6L224.5 158.2" fill="#eb5454" stroke="#eb5454" ecmeta_series_index="0" ecmeta_data_index="84" ecmeta_ssr_type="chart" class="zr16-cls-58"></path>
<path d="M226.5 146L226.5 153.6" fill="#eb5454" stroke="#eb5454" ecmeta_series_index="0" ecmeta_data_index="85" ecmeta_ssr_type="chart" class="zr16-cls-58"></path>
<path d="M228.5 142.5L228.5 146.9" fill="#eb5454" stroke="#eb5454" ecmeta_series_index="0" ecmeta_data_index="86" ecmeta_ssr_type="chart" class="zr16-cls-58"></path>
<path d="M230.5 141.9L230.5 145.6" fill="#47b262" stroke="#47b262" ecmeta_series_index="0" ecmeta_data_index="87" ecmeta_ssr_type="chart" class="zr16-cls-59"></path>
<path d="M232.5 142.8L232.5 146.3" fill="#eb5454" stroke="#eb5454" ecmeta_series_index="0" ecmeta_data_index="88" ecmeta_ssr_type="chart" class="zr16-cls-58"></path>
<path d="M234.5 144.4L234.5 148.9" fill="#47b262" stroke="#47b262" ecmeta_series_index="0" ecmeta_data_index="89" ecmeta_ssr_type="chart" class="zr16-cls-59"></path>
<path d="M236.5 146.6L236.5 149.9" fill="#eb5454" stroke="#eb5454" ecmeta_series_index="0" ecmeta_data_index="90" ecmeta_ssr_type="chart" class="zr16-cls-58"></path>
<path d="M238.5 141.7L238.5 148.6" fill="#eb5454" stroke="#eb5454" ecmeta_series_index="0" ecmeta_data_index="91" ecmeta_ssr_type="chart" class="zr16-cls-58"></path>
<path d="M240.5 136.4L240.5 141" fill="#eb5454" stroke="#eb5454" ecmeta_series_index="0" ecmeta_data_index="92" ecmeta_ssr_type="chart" class="zr16-cls-58"></path>
<path d="M242.5 135.9L242.5 140.7" fill="#eb5454" stroke="#eb5454" ecmeta_series_index="0" ecmeta_data_index="93" ecmeta_ssr_type="chart" class="zr16-cls-58"></path>
<path d="M244.5 129.3L244.5 134.2" fill="#eb5454" stroke="#eb5454" ecmeta_series_index="0" ecmeta_data_index="94" ecmeta_ssr_type="chart" class="zr16-cls-58"></path>
<path d="M246.5 121.2L246.5 129.4" fill="#eb5454" stroke="#eb5454" ecmeta_series_index="0" ecmeta_data_index="95" ecmeta_ssr_type="chart" class="zr16-cls-58"></path>
<path d="M248.5 116.2L248.5 123.1" fill="#eb5454" stroke="#eb5454" ecmeta_series_index="0" ecmeta_data_index="96" ecmeta_ssr_type="chart" class="zr16-cls-58"></path>
<path d="M249.5 113.8L249.5 119.1" fill="#eb5454" stroke="#eb5454" ecmeta_series_index="0" ecmeta_data_index="97" ecmeta_ssr_type="chart" class="zr16-cls-58"></path>
<path d="M251.5 112.4L251.5 131.6" fill="#47b262" stroke="#47b262" ecmeta_series_index="0" ecmeta_data_index="98" ecmeta_ssr_type="chart" class="zr16-cls-59"></path>
<path d="M253.5 127.3L253.5 141" fill="#eb5454" stroke="#eb5454" ecmeta_series_index="0" ecmeta_data_index="99" ecmeta_ssr_type="chart" class="zr16-cls-58"></path>
<path d="M255.5 120.5L255.5 131.5" fill="#eb5454" stroke="#eb5454" ecmeta_series_index="0" ecmeta_data_index="100" ecmeta_ssr_type="chart" class="zr16-cls-58"></path>
<path d="M257.5 116.2L257.5 122.1" fill="#eb5454" stroke="#eb5454" ecmeta_series_index="0" ecmeta_data_index="101" ecmeta_ssr_type="chart" class="zr16-cls-58"></path>
<path d="M259.5 114.7L259.5 120.8" fill="#47b262" stroke="#47b262" ecmeta_series_index="0" ecmeta_data_index="102" ecmeta_ssr_type="chart" class="zr16-cls-59"></path>
<path d="M261.5 114.4L261.5 129.9" fill="#eb5454" stroke="#eb5454" ecmeta_series_index="0" ecmeta_data_index="103" ecmeta_ssr_type="chart" class="zr16-cls-58"></path>
<path d="M263.5 109L263.5 116.9" fill="#eb5454" stroke="#eb5454" ecmeta_series_index="0" ecmeta_data_index="104" ecmeta_ssr_type="chart" class="zr16-cls-58"></path>
<path d="M265.5 104.1L265.5 111.8" fill="#eb5454" stroke="#eb5454" ecmeta_series_index="0" ecmeta_data_index="105" ecmeta_ssr_type="chart" class="zr16-cls-58"></path>
<path d="M267.5 104L267.5 109.4" fill="#47b262" stroke="#47b262" ecmeta_series_index="0" ecmeta_data_index="106" ecmeta_ssr_type="chart" class="zr16-cls-59"></path>
<path d="M269.5 103.2L269.5 111.6" fill="#eb5454" stroke="#eb5454" ecmeta_series_index="0" ecmeta_data_index="107" ecmeta_ssr_type="chart" class="zr16-cls-58"></path>
<path d="M271.5 105.3L271.5 109" fill="#eb5454" stroke="#eb5454" ecmeta_series_index="0" ecmeta_data_index="108" ecmeta_ssr_type="chart" class="zr16-cls-58"></path>
<path d="M273.5 102.5L273.5 106.3" fill="#eb5454" stroke="#eb5454" ecmeta_series_index="0" ecmeta_data_index="109" ecmeta_ssr_type="chart" class="zr16-cls-58"></path>
<path d="M275.5 102.5L275.5 109.1" fill="#47b262" stroke="#47b262" ecmeta_series_index="0" ecmeta_data_index="110" ecmeta_ssr_type="chart" class="zr16-cls-59"></path>
<path d="M277.5 110.1L277.5 119.8" fill="#47b262" stroke="#47b262" ecmeta_series_index="0" ecmeta_data_index="111" ecmeta_ssr_type="chart" class="zr16-cls-59"></path>
<path d="M279.5 112.5L279.5 123.7" fill="#eb5454" stroke="#eb5454" ecmeta_series_index="0" ecmeta_data_index="112" ecmeta_ssr_type="chart" class="zr16-cls-58"></path>
<path d="M281.5 113.4L281.5 123" fill="#47b262" stroke="#47b262" ecmeta_series_index="0" ecmeta_data_index="113" ecmeta_ssr_type="chart" class="zr16-cls-59"></path>
<path d="M283.5 124.9L283.5 138.7" fill="#47b262" stroke="#47b262" ecmeta_series_index="0" ecmeta_data_index="114" ecmeta_ssr_type="chart" class="zr16-cls-59"></path>
<path d="M285.5 133.5L285.5 149.7" fill="#eb5454" stroke="#eb5454" ecmeta_series_index="0" ecmeta_data_index="115" ecmeta_ssr_type="chart" class="zr16-cls-58"></path>
<path d="M287.5 127.6L287.5 134.8" fill="#eb5454" stroke="#eb5454" ecmeta_series_index="0" ecmeta_data_index="116" ecmeta_ssr_type="chart" class="zr16-cls-58"></path>
<path d="M289.5 126.1L289.5 138.3" fill="#47b262" stroke="#47b262" ecmeta_series_index="0" ecmeta_data_index="117" ecmeta_ssr_type="chart" class="zr16-cls-59"></path>
<path d="M290.5 139.7L290.5 156.1" fill="#47b262" stroke="#47b262" ecmeta_series_index="0" ecmeta_data_index="118" ecmeta_ssr_type="chart" class="zr16-cls-59"></path>
<path d="M292.5 148L292.5 169.8" fill="#47b262" stroke="#47b262" ecmeta_series_index="0" ecmeta_data_index="119" ecmeta_ssr_type="chart" class="zr16-cls-59"></path>
<path d="M294.5 148.9L294.5 171.2" fill="#eb5454" stroke="#eb5454" ecmeta_series_index="0" ecmeta_data_index="120" ecmeta_ssr_type="chart" class="zr16-cls-58"></path>
<path d="M296.5 147L296.5 161.1" fill="#47b262" stroke="#47b262" ecmeta_series_index="0" ecmeta_data_index="121" ecmeta_ssr_type="chart" class="zr16-cls-59"></path>
<path d="M298.5 159.2L298.5 173.9" fill="#47b262" stroke="#47b262" ecmeta_series_index="0" ecmeta_data_index="122" ecmeta_ssr_type="chart" class="zr16-cls-59"></path>
<path d="M300.5 167.1L300.5 182.5" fill="#47b262" stroke="#47b262" ecmeta_series_index="0" ecmeta_data_index="123" ecmeta_ssr_type="chart" class="zr16-cls-59"></path>
<path d="M302.5 164.6L302.5 181.3" fill="#47b262" stroke="#47b262" ecmeta_series_index="0" ecmeta_data_index="124" ecmeta_ssr_type="chart" class="zr16-cls-59"></path>
<path d="M304.5 176.2L304.5 184.8" fill="#eb5454" stroke="#eb5454" ecmeta_series_index="0" ecmeta_data_index="125" ecmeta_ssr_type="chart" class="zr16-cls-58"></path>
<path d="M306.5 184L306.5 193.2" fill="#eb5454" stroke="#eb5454" ecmeta_series_index="0" ecmeta_data_index="126" ecmeta_ssr_type="chart" class="zr16-cls-58"></path>
<path d="M308.5 176.3L308.5 195.7" fill="#eb5454" stroke="#eb5454" ecmeta_series_index="0" ecmeta_data_index="127" ecmeta_ssr_type="chart" class="zr16-cls-58"></path>
<path d="M310.5 165.4L310.5 180" fill="#eb5454" stroke="#eb5454" ecmeta_series_index="0" ecmeta_data_index="128" ecmeta_ssr_type="chart" class="zr16-cls-58"></path>
<path d="M312.5 161.8L312.5 170.6" fill="#eb5454" stroke="#eb5454" ecmeta_series_index="0" ecmeta_data_index="129" ecmeta_ssr_type="chart" class="zr16-cls-58"></path>
<path d="M314.5 161.5L314.5 170.8" fill="#47b262" stroke="#47b262" ecmeta_series_index="0" ecmeta_data_index="130" ecmeta_ssr_type="chart" class="zr16-cls-59"></path>
<path d="M316.5 167.8L316.5 176.7" fill="#47b262" stroke="#47b262" ecmeta_series_index="0" ecmeta_data_index="131" ecmeta_ssr_type="chart" class="zr16-cls-59"></path>
<path d="M318.5 169.7L318.5 179.4" fill="#eb5454" stroke="#eb5454" ecmeta_series_index="0" ecmeta_data_index="132" ecmeta_ssr_type="chart" class="zr16-cls-58"></path>
<path d="M320.5 163.6L320.5 172.9" fill="#eb5454" stroke="#eb5454" ecmeta_series_index="0" ecmeta_data_index="133" ecmeta_ssr_type="chart" class="zr16-cls-58"></path>
<path d="M322.5 162.2L322.5 167.1" fill="#eb5454" stroke="#eb5454" ecmeta_series_index="0" ecmeta_data_index="134" ecmeta_ssr_type="chart" class="zr16-cls-58"></path>
<path d="M324.5 161.2L324.5 167.8" fill="#eb5454" stroke="#eb5454" ecmeta_series_index="0" ecmeta_data_index="135" ecmeta_ssr_type="chart" class="zr16-cls-58"></path>
<path d="M326.5 161.1L326.5 165.4" fill="#eb5454" stroke="#eb5454" ecmeta_series_index="0" ecmeta_data_index="136" ecmeta_ssr_type="chart" class="zr16-cls-58"></path>
<path d="M328.5 156.5L328.5 162.3" fill="#eb5454" stroke="#eb5454" ecmeta_series_index="0" ecmeta_data_index="137" ecmeta_ssr_type="chart" class="zr16-cls-58"></path>
<path d="M329.5 153.8L329.5 161" fill="#47b262" stroke="#47b262" ecmeta_series_index="0" ecmeta_data_index="138" ecmeta_ssr_type="chart" class="zr16-cls-59"></path>
<path d="M331.5 160.7L331.5 177.8" fill="#47b262" stroke="#47b262" ecmeta_series_index="0" ecmeta_data_index="139" ecmeta_ssr_type="chart" class="zr16-cls-59"></path>
<path d="M333.5 175.6L333.5 187.2" fill="#eb5454" stroke="#eb5454" ecmeta_series_index="0" ecmeta_data_index="140" ecmeta_ssr_type="chart" class="zr16-cls-58"></path>
<path d="M335.5 174.1L335.5 183.4" fill="#eb5454" stroke="#eb5454" ecmeta_series_index="0" ecmeta_data_index="141" ecmeta_ssr_type="chart" class="zr16-cls-58"></path>
<path d="M337.5 171.4L337.5 179.6" fill="#47b262" stroke="#47b262" ecmeta_series_index="0" ecmeta_data_index="142" ecmeta_ssr_type="chart" class="zr16-cls-59"></path>
<path d="M339.5 177.3L339.5 183" fill="#eb5454" stroke="#eb5454" ecmeta_series_index="0" ecmeta_data_index="143" ecmeta_ssr_type="chart" class="zr16-cls-58"></path>
<path d="M341.5 181.5L341.5 186.6" fill="#eb5454" stroke="#eb5454" ecmeta_series_index="0" ecmeta_data_index="144" ecmeta_ssr_type="chart" class="zr16-cls-58"></path>
<path d="M343.5 175.9L343.5 183.9" fill="#eb5454" stroke="#eb5454" ecmeta_series_index="0" ecmeta_data_index="145" ecmeta_ssr_type="chart" class="zr16-cls-58"></path>
<path d="M345.5 174.6L345.5 180.1" fill="#47b262" stroke="#47b262" ecmeta_series_index="0" ecmeta_data_index="146" ecmeta_ssr_type="chart" class="zr16-cls-59"></path>
<path d="M347.5 178.3L347.5 183.2" fill="#eb5454" stroke="#eb5454" ecmeta_series_index="0" ecmeta_data_index="147" ecmeta_ssr_type="chart" class="zr16-cls-58"></path>
<path d="M349.5 175.9L349.5 179.5" fill="#eb5454" stroke="#eb5454" ecmeta_series_index="0" ecmeta_data_index="148" ecmeta_ssr_type="chart" class="zr16-cls-58"></path>
<path d="M351.5 166.2L351.5 174.9" fill="#eb5454" stroke="#eb5454" ecmeta_series_index="0" ecmeta_data_index="149" ecmeta_ssr_type="chart" class="zr16-cls-58"></path>
<path d="M353.5 164.9L353.5 169" fill="#47b262" stroke="#47b262" ecmeta_series_index="0" ecmeta_data_index="150" ecmeta_ssr_type="chart" class="zr16-cls-59"></path>
<path d="M355.5 166.5L355.5 170" fill="#eb5454" stroke="#eb5454" ecmeta_series_index="0" ecmeta_data_index="151" ecmeta_ssr_type="chart" class="zr16-cls-58"></path>
<path d="M357.5 165.6L357.5 171.7" fill="#eb5454" stroke="#eb5454" ecmeta_series_index="0" ecmeta_data_index="152" ecmeta_ssr_type="chart" class="zr16-cls-58"></path>
<path d="M359.5 163.3L359.5 166.4" fill="#47b262" stroke="#47b262" ecmeta_series_index="0" ecmeta_data_index="153" ecmeta_ssr_type="chart" class="zr16-cls-59"></path>
<path d="M361.5 163.6L361.5 168.1" fill="#eb5454" stroke="#eb5454" ecmeta_series_index="0" ecmeta_data_index="154" ecmeta_ssr_type="chart" class="zr16-cls-58"></path>
<path d="M363.5 163L363.5 176.6" fill="#47b262" stroke="#47b262" ecmeta_series_index="0" ecmeta_data_index="155" ecmeta_ssr_type="chart" class="zr16-cls-59"></path>
<path d="M365.5 173.1L365.5 186.2" fill="#eb5454" stroke="#eb5454" ecmeta_series_index="0" ecmeta_data_index="156" ecmeta_ssr_type="chart" class="zr16-cls-58"></path>
<path d="M367.5 174.3L367.5 180.7" fill="#47b262" stroke="#47b262" ecmeta_series_index="0" ecmeta_data_index="157" ecmeta_ssr_type="chart" class="zr16-cls-59"></path>
<path d="M369.5 181.3L369.5 189.7" fill="#47b262" stroke="#47b262" ecmeta_series_index="0" ecmeta_data_index="158" ecmeta_ssr_type="chart" class="zr16-cls-59"></path>
<path d="M370.5 194.9L370.5 205.1" fill="#47b262" stroke="#47b262" ecmeta_series_index="0" ecmeta_data_index="159" ecmeta_ssr_type="chart" class="zr16-cls-59"></path>
<path d="M372.5 208.6L372.5 217.7" fill="#47b262" stroke="#47b262" ecmeta_series_index="0" ecmeta_data_index="160" ecmeta_ssr_type="chart" class="zr16-cls-59"></path>
<path d="M374.5 210.2L374.5 222.7" fill="#47b262" stroke="#47b262" ecmeta_series_index="0" ecmeta_data_index="161" ecmeta_ssr_type="chart" class="zr16-cls-59"></path>
<path d="M376.5 210.6L376.5 219.8" fill="#eb5454" stroke="#eb5454" ecmeta_series_index="0" ecmeta_data_index="162" ecmeta_ssr_type="chart" class="zr16-cls-58"></path>
<path d="M378.5 202.8L378.5 209.7" fill="#eb5454" stroke="#eb5454" ecmeta_series_index="0" ecmeta_data_index="163" ecmeta_ssr_type="chart" class="zr16-cls-58"></path>
<path d="M380.5 204.3L380.5 209.4" fill="#eb5454" stroke="#eb5454" ecmeta_series_index="0" ecmeta_data_index="164" ecmeta_ssr_type="chart" class="zr16-cls-58"></path>
<path d="M382.5 205.7L382.5 212.2" fill="#eb5454" stroke="#eb5454" ecmeta_series_index="0" ecmeta_data_index="165" ecmeta_ssr_type="chart" class="zr16-cls-58"></path>
<path d="M384.5 205L384.5 214" fill="#eb5454" stroke="#eb5454" ecmeta_series_index="0" ecmeta_data_index="166" ecmeta_ssr_type="chart" class="zr16-cls-58"></path>
<path d="M386.5 203.8L386.5 211.6" fill="#47b262" stroke="#47b262" ecmeta_series_index="0" ecmeta_data_index="167" ecmeta_ssr_type="chart" class="zr16-cls-59"></path>
<path d="M388.5 206L388.5 214.4" fill="#eb5454" stroke="#eb5454" ecmeta_series_index="0" ecmeta_data_index="168" ecmeta_ssr_type="chart" class="zr16-cls-58"></path>
<path d="M390.5 201.7L390.5 206.4" fill="#eb5454" stroke="#eb5454" ecmeta_series_index="0" ecmeta_data_index="169" ecmeta_ssr_type="chart" class="zr16-cls-58"></path>
<path d="M392.5 202.4L392.5 205.8" fill="#eb5454" stroke="#eb5454" ecmeta_series_index="0" ecmeta_data_index="170" ecmeta_ssr_type="chart" class="zr16-cls-58"></path>
<path d="M394.5 203.4L394.5 206.6" fill="#eb5454" stroke="#eb5454" ecmeta_series_index="0" ecmeta_data_index="171" ecmeta_ssr_type="chart" class="zr16-cls-58"></path>
<path d="M396.5 203.1L396.5 212.5" fill="#47b262" stroke="#47b262" ecmeta_series_index="0" ecmeta_data_index="172" ecmeta_ssr_type="chart" class="zr16-cls-59"></path>
<path d="M398.5 210.8L398.5 215.8" fill="#47b262" stroke="#47b262" ecmeta_series_index="0" ecmeta_data_index="173" ecmeta_ssr_type="chart" class="zr16-cls-59"></path>
<path d="M400.5 205.5L400.5 215.9" fill="#eb5454" stroke="#eb5454" ecmeta_series_index="0" ecmeta_data_index="174" ecmeta_ssr_type="chart" class="zr16-cls-58"></path>
<path d="M402.5 204.4L402.5 210.6" fill="#47b262" stroke="#47b262" ecmeta_series_index="0" ecmeta_data_index="175" ecmeta_ssr_type="chart" class="zr16-cls-59"></path>
<path d="M404.5 208.7L404.5 211.4" fill="#47b262" stroke="#47b262" ecmeta_series_index="0" ecmeta_data_index="176" ecmeta_ssr_type="chart" class="zr16-cls-59"></path>
<path d="M406.5 206.7L406.5 211.9" fill="#eb5454" stroke="#eb5454" ecmeta_series_index="0" ecmeta_data_index="177" ecmeta_ssr_type="chart" class="zr16-cls-58"></path>
<path d="M408.5 204L408.5 207.1" fill="#eb5454" stroke="#eb5454" ecmeta_series_index="0" ecmeta_data_index="178" ecmeta_ssr_type="chart" class="zr16-cls-58"></path>
<path d="M409.5 206.5L409.5 209.6" fill="#47b262" stroke="#47b262" ecmeta_series_index="0" ecmeta_data_index="179" ecmeta_ssr_type="chart" class="zr16-cls-59"></path>
<path d="M411.5 207.2L411.5 209.3" fill="#eb5454" stroke="#eb5454" ecmeta_series_index="0" ecmeta_data_index="180" ecmeta_ssr_type="chart" class="zr16-cls-58"></path>
<path d="M413.5 207.3L413.5 211.7" fill="#47b262" stroke="#47b262" ecmeta_series_index="0" ecmeta_data_index="181" ecmeta_ssr_type="chart" class="zr16-cls-59"></path>
<path d="M415.5 209.7L415.5 212.8" fill="#eb5454" stroke="#eb5454" ecmeta_series_index="0" ecmeta_data_index="182" ecmeta_ssr_type="chart" class="zr16-cls-58"></path>
<path d="M417.5 211.5L417.5 213.9" fill="#47b262" stroke="#47b262" ecmeta_series_index="0" ecmeta_data_index="183" ecmeta_ssr_type="chart" class="zr16-cls-59"></path>
<path d="M419.5 211.2L419.5 212.9" fill="#47b262" stroke="#47b262" ecmeta_series_index="0" ecmeta_data_index="184" ecmeta_ssr_type="chart" class="zr16-cls-59"></path>
<path d="M421.5 206.1L421.5 208.1" fill="#47b262" stroke="#47b262" ecmeta_series_index="0" ecmeta_data_index="185" ecmeta_ssr_type="chart" class="zr16-cls-59"></path>
<path d="M423.5 205L423.5 207.9" fill="#eb5454" stroke="#eb5454" ecmeta_series_index="0" ecmeta_data_index="186" ecmeta_ssr_type="chart" class="zr16-cls-58"></path>
<path d="M425.5 198.5L425.5 205.3" fill="#eb5454" stroke="#eb5454" ecmeta_series_index="0" ecmeta_data_index="187" ecmeta_ssr_type="chart" class="zr16-cls-58"></path>
<path d="M427.5 199.6L427.5 201.9" fill="#eb5454" stroke="#eb5454" ecmeta_series_index="0" ecmeta_data_index="188" ecmeta_ssr_type="chart" class="zr16-cls-58"></path>
<path d="M429.5 199.1L429.5 201.8" fill="#47b262" stroke="#47b262" ecmeta_series_index="0" ecmeta_data_index="189" ecmeta_ssr_type="chart" class="zr16-cls-59"></path>
<path d="M431.5 197.5L431.5 201.9" fill="#eb5454" stroke="#eb5454" ecmeta_series_index="0" ecmeta_data_index="190" ecmeta_ssr_type="chart" class="zr16-cls-58"></path>
<path d="M433.5 194.7L433.5 197.7" fill="#eb5454" stroke="#eb5454" ecmeta_series_index="0" ecmeta_data_index="191" ecmeta_ssr_type="chart" class="zr16-cls-58"></path>
<path d="M435.5 193.1L435.5 196.6" fill="#47b262" stroke="#47b262" ecmeta_series_index="0" ecmeta_data_index="192" ecmeta_ssr_type="chart" class="zr16-cls-59"></path>
<path d="M437.5 193L437.5 196.5" fill="#eb5454" stroke="#eb5454" ecmeta_series_index="0" ecmeta_data_index="193" ecmeta_ssr_type="chart" class="zr16-cls-58"></path>
<path d="M439.5 191.9L439.5 201.3" fill="#47b262" stroke="#47b262" ecmeta_series_index="0" ecmeta_data_index="194" ecmeta_ssr_type="chart" class="zr16-cls-59"></path>
<path d="M441.5 195.7L441.5 200.4" fill="#eb5454" stroke="#eb5454" ecmeta_series_index="0" ecmeta_data_index="195" ecmeta_ssr_type="chart" class="zr16-cls-58"></path>
<path d="M443.5 193.2L443.5 196.4" fill="#eb5454" stroke="#eb5454" ecmeta_series_index="0" ecmeta_data_index="196" ecmeta_ssr_type="chart" class="zr16-cls-58"></path>
<path d="M445.5 191.4L445.5 194.2" fill="#47b262" stroke="#47b262" ecmeta_series_index="0" ecmeta_data_index="197" ecmeta_ssr_type="chart" class="zr16-cls-59"></path>
<path d="M447.5 192.2L447.5 197.8" fill="#eb5454" stroke="#eb5454" ecmeta_series_index="0" ecmeta_data_index="198" ecmeta_ssr_type="chart" class="zr16-cls-58"></path>
<path d="M449.5 192.3L449.5 196" fill="#47b262" stroke="#47b262" ecmeta_series_index="0" ecmeta_data_index="199" ecmeta_ssr_type="chart" class="zr16-cls-59"></path>
<path d="M450.5 193.7L450.5 196.3" fill="#47b262" stroke="#47b262" ecmeta_series_index="0" ecmeta_data_index="200" ecmeta_ssr_type="chart" class="zr16-cls-59"></path>
<path d="M452.5 193.4L452.5 197.1" fill="#eb5454" stroke="#eb5454" ecmeta_series_index="0" ecmeta_data_index="201" ecmeta_ssr_type="chart" class="zr16-cls-58"></path>
<path d="M454.5 194.8L454.5 198.3" fill="#47b262" stroke="#47b262" ecmeta_series_index="0" ecmeta_data_index="202" ecmeta_ssr_type="chart" class="zr16-cls-59"></path>
<path d="M456.5 197.1L456.5 199.4" fill="#47b262" stroke="#47b262" ecmeta_series_index="0" ecmeta_data_index="203" ecmeta_ssr_type="chart" class="zr16-cls-59"></path>
<path d="M458.5 191.3L458.5 198.2" fill="#eb5454" stroke="#eb5454" ecmeta_series_index="0" ecmeta_data_index="204" ecmeta_ssr_type="chart" class="zr16-cls-58"></path>
<path d="M460.5 184.7L460.5 191.5" fill="#eb5454" stroke="#eb5454" ecmeta_series_index="0" ecmeta_data_index="205" ecmeta_ssr_type="chart" class="zr16-cls-58"></path>
<path d="M462.5 184.2L462.5 188.7" fill="#eb5454" stroke="#eb5454" ecmeta_series_index="0" ecmeta_data_index="206" ecmeta_ssr_type="chart" class="zr16-cls-58"></path>
<path d="M464.5 180.2L464.5 184.6" fill="#eb5454" stroke="#eb5454" ecmeta_series_index="0" ecmeta_data_index="207" ecmeta_ssr_type="chart" class="zr16-cls-58"></path>
<path d="M466.5 180.4L466.5 183.6" fill="#eb5454" stroke="#eb5454" ecmeta_series_index="0" ecmeta_data_index="208" ecmeta_ssr_type="chart" class="zr16-cls-58"></path>
<path d="M468.5 181.2L468.5 183.7" fill="#eb5454" stroke="#eb5454" ecmeta_series_index="0" ecmeta_data_index="209" ecmeta_ssr_type="chart" class="zr16-cls-58"></path>
<path d="M470.5 180.9L470.5 183.8" fill="#47b262" stroke="#47b262" ecmeta_series_index="0" ecmeta_data_index="210" ecmeta_ssr_type="chart" class="zr16-cls-59"></path>
<path d="M472.5 182.3L472.5 185.8" fill="#47b262" stroke="#47b262" ecmeta_series_index="0" ecmeta_data_index="211" ecmeta_ssr_type="chart" class="zr16-cls-59"></path>
<path d="M474.5 183.6L474.5 188.2" fill="#eb5454" stroke="#eb5454" ecmeta_series_index="0" ecmeta_data_index="212" ecmeta_ssr_type="chart" class="zr16-cls-58"></path>
<path d="M476.5 180L476.5 184.1" fill="#47b262" stroke="#47b262" ecmeta_series_index="0" ecmeta_data_index="213" ecmeta_ssr_type="chart" class="zr16-cls-59"></path>
<path d="M478.5 183.1L478.5 186.1" fill="#47b262" stroke="#47b262" ecmeta_series_index="0" ecmeta_data_index="214" ecmeta_ssr_type="chart" class="zr16-cls-59"></path>
<path d="M480.5 183.1L480.5 186" fill="#eb5454" stroke="#eb5454" ecmeta_series_index="0" ecmeta_data_index="215" ecmeta_ssr_type="chart" class="zr16-cls-58"></path>
<path d="M482.5 181.9L482.5 183.6" fill="#eb5454" stroke="#eb5454" ecmeta_series_index="0" ecmeta_data_index="216" ecmeta_ssr_type="chart" class="zr16-cls-58"></path>
<path d="M484.5 181.2L484.5 184.1" fill="#47b262" stroke="#47b262" ecmeta_series_index="0" ecmeta_data_index="217" ecmeta_ssr_type="chart" class="zr16-cls-59"></path>
<path d="M486.5 183.1L486.5 185.9" fill="#eb5454" stroke="#eb5454" ecmeta_series_index="0" ecmeta_data_index="218" ecmeta_ssr_type="chart" class="zr16-cls-58"></path>
<path d="M488.5 181.5L488.5 183.6" fill="#eb5454" stroke="#eb5454" ecmeta_series_index="0" ecmeta_data_index="219" ecmeta_ssr_type="chart" class="zr16-cls-58"></path>
<path d="M489.5 180.5L489.5 182.5" fill="#47b262" stroke="#47b262" ecmeta_series_index="0" ecmeta_data_index="220" ecmeta_ssr_type="chart" class="zr16-cls-59"></path>
<path d="M491.5 182.9L491.5 193.7" fill="#47b262" stroke="#47b262" ecmeta_series_index="0" ecmeta_data_index="221" ecmeta_ssr_type="chart" class="zr16-cls-59"></path>
<path d="M493.5 190.7L493.5 198.1" fill="#eb5454" stroke="#eb5454" ecmeta_series_index="0" ecmeta_data_index="222" ecmeta_ssr_type="chart" class="zr16-cls-58"></path>
<path d="M495.5 190L495.5 193.4" fill="#eb5454" stroke="#eb5454" ecmeta_series_index="0" ecmeta_data_index="223" ecmeta_ssr_type="chart" class="zr16-cls-58"></path>
<path d="M497.5 187.2L497.5 192.9" fill="#eb5454" stroke="#eb5454" ecmeta_series_index="0" ecmeta_data_index="224" ecmeta_ssr_type="chart" class="zr16-cls-58"></path>
<path d="M499.5 184.4L499.5 188.3" fill="#eb5454" stroke="#eb5454" ecmeta_series_index="0" ecmeta_data_index="225" ecmeta_ssr_type="chart" class="zr16-cls-58"></path>
<path d="M501.5 185.6L501.5 188.6" fill="#47b262" stroke="#47b262" ecmeta_series_index="0" ecmeta_data_index="226" ecmeta_ssr_type="chart" class="zr16-cls-59"></path>
<path d="M503.5 186.9L503.5 188.8" fill="#eb5454" stroke="#eb5454" ecmeta_series_index="0" ecmeta_data_index="227" ecmeta_ssr_type="chart" class="zr16-cls-58"></path>
<path d="M505.5 188.2L505.5 190.9" fill="#47b262" stroke="#47b262" ecmeta_series_index="0" ecmeta_data_index="228" ecmeta_ssr_type="chart" class="zr16-cls-59"></path>
<path d="M507.5 189.4L507.5 191.5" fill="#eb5454" stroke="#eb5454" ecmeta_series_index="0" ecmeta_data_index="229" ecmeta_ssr_type="chart" class="zr16-cls-58"></path>
<path d="M509.5 189L509.5 191.9" fill="#47b262" stroke="#47b262" ecmeta_series_index="0" ecmeta_data_index="230" ecmeta_ssr_type="chart" class="zr16-cls-59"></path>
<path d="M511.5 191.5L511.5 193.8" fill="#47b262" stroke="#47b262" ecmeta_series_index="0" ecmeta_data_index="231" ecmeta_ssr_type="chart" class="zr16-cls-59"></path>
<path d="M513.5 188L513.5 194.4" fill="#eb5454" stroke="#eb5454" ecmeta_series_index="0" ecmeta_data_index="232" ecmeta_ssr_type="chart" class="zr16-cls-58"></path>
<path d="M515.5 187.6L515.5 189.3" fill="#47b262" stroke="#47b262" ecmeta_series_index="0" ecmeta_data_index="233" ecmeta_ssr_type="chart" class="zr16-cls-59"></path>
<path d="M517.5 187.2L517.5 188.8" fill="#47b262" stroke="#47b262" ecmeta_series_index="0" ecmeta_data_index="234" ecmeta_ssr_type="chart" class="zr16-cls-59"></path>
<path d="M519.5 184.9L519.5 187.4" fill="#eb5454" stroke="#eb5454" ecmeta_series_index="0" ecmeta_data_index="235" ecmeta_ssr_type="chart" class="zr16-cls-58"></path>
<path d="M521.5 183.2L521.5 185.6" fill="#eb5454" stroke="#eb5454" ecmeta_series_index="0" ecmeta_data_index="236" ecmeta_ssr_type="chart" class="zr16-cls-58"></path>
<path d="M523.5 181.4L523.5 185.8" fill="#eb5454" stroke="#eb5454" ecmeta_series_index="0" ecmeta_data_index="237" ecmeta_ssr_type="chart" class="zr16-cls-58"></path>
<path d="M525.5 181.3L525.5 183.1" fill="#eb5454" stroke="#eb5454" ecmeta_series_index="0" ecmeta_data_index="238" ecmeta_ssr_type="chart" class="zr16-cls-58"></path>
<path d="M527.5 179.6L527.5 182.3" fill="#47b262" stroke="#47b262" ecmeta_series_index="0" ecmeta_data_index="239" ecmeta_ssr_type="chart" class="zr16-cls-59"></path>
<path d="M529.5 181.9L529.5 185.4" fill="#47b262" stroke="#47b262" ecmeta_series_index="0" ecmeta_data_index="240" ecmeta_ssr_type="chart" class="zr16-cls-59"></path>
<path d="M530.5 182.2L530.5 183.9" fill="#eb5454" stroke="#eb5454" ecmeta_series_index="0" ecmeta_data_index="241" ecmeta_ssr_type="chart" class="zr16-cls-58"></path>
<path d="M532.5 181.9L532.5 187.4" fill="#47b262" stroke="#47b262" ecmeta_series_index="0" ecmeta_data_index="242" ecmeta_ssr_type="chart" class="zr16-cls-59"></path>
<path d="M534.5 185.9L534.5 188.4" fill="#eb5454" stroke="#eb5454" ecmeta_series_index="0" ecmeta_data_index="243" ecmeta_ssr_type="chart" class="zr16-cls-58"></path>
<path d="M536.5 185.4L536.5 187.2" fill="#eb5454" stroke="#eb5454" ecmeta_series_index="0" ecmeta_data_index="244" ecmeta_ssr_type="chart" class="zr16-cls-58"></path>
<path d="M538.5 185L538.5 187.2" fill="#47b262" stroke="#47b262" ecmeta_series_index="0" ecmeta_data_index="245" ecmeta_ssr_type="chart" class="zr16-cls-59"></path>
<g clip-path="url(#zr16-c0)">
<path d="M70.7 231.8C70.7 231.8 70.9 197.9 72.7 197.9C72.8 197.9 73.7 198.5 74.6 199.2C75.6 199.8 75.7 199.7 76.6 200.4C77.6 201.1 77.5 201.9 78.5 201.9C79.4 201.9 79.6 201.8 80.5 201.5C81.5 201.1 81.5 200.5 82.4 200.5C83.4 200.5 83.4 201.2 84.4 201.7C85.3 202.1 85.4 202.3 86.3 202.3C87.4 202.3 87.3 201.4 88.3 201.3C89.2 201.2 89.3 201.2 90.2 201.2C91.2 201.2 91.5 201.5 92.2 201.5C93.4 201.5 93.1 200 94.1 198.7C95 197.7 95 196.9 96.1 196.9C96.9 196.9 97.1 196.9 98 197.1C99.1 197.3 99.1 197.4 100 197.9C101 198.5 101.1 198.5 102 199.3C103.1 200.5 102.8 200.8 103.9 202C104.7 202.9 104.9 202.8 105.9 203.5C106.8 204.2 106.8 204.2 107.8 204.9C108.8 205.5 108.8 205.5 109.8 206.2C110.7 206.9 110.6 207.1 111.7 207.6C112.6 207.9 112.7 207.7 113.7 207.9C114.7 208.2 114.6 208.4 115.6 208.6C116.6 208.7 116.6 208.7 117.6 208.7C118.5 208.7 118.6 208.7 119.5 208.3C120.6 207.9 120.5 207.7 121.5 207C122.4 206.4 122.4 206.3 123.4 205.7C124.4 205.1 124.4 205.1 125.4 204.6C126.3 204.2 126.4 204.4 127.3 203.9C128.3 203.4 128.3 203.2 129.3 202.6C130.2 202 130.3 202.1 131.2 201.5C132.2 200.9 132.1 200.5 133.2 200.3C134.1 200.2 134.2 200.3 135.1 200.2C136.1 200 136.1 199.6 137.1 199.6C138 199.6 138.1 199.8 139 200.1C140 200.5 140 200.6 141 200.9C141.9 201.1 141.9 201.2 142.9 201.2C143.9 201.2 143.9 201.1 144.9 201C145.9 200.9 145.9 201 146.8 200.9C147.9 200.7 147.8 200.4 148.8 199.8C149.8 199.2 149.8 199.2 150.7 198.5C151.7 197.7 151.8 197.8 152.7 196.9C153.7 195.9 153.7 195.9 154.6 194.7C155.7 193.3 155.5 193.2 156.6 191.7C157.5 190.5 157.6 190.5 158.5 189.3C159.5 188.1 159.5 188.1 160.5 186.8C161.5 185.6 161.4 185.5 162.4 184.3C163.4 183.3 163.3 183.2 164.4 182.4C165.2 181.8 165.4 182 166.3 181.5C167.3 181 167.3 181 168.3 180.5C169.2 180.1 169.3 180.2 170.2 179.7C171.2 179.3 171.2 179.1 172.2 178.7C173.1 178.3 173.3 178.6 174.1 178.1C175.2 177.5 175.1 177.3 176.1 176.6C177.1 175.8 177.1 175.9 178 175.1C179.1 174.2 179 174.2 180 173.3C181 172.4 181.1 172.5 182 171.5C183 170.3 182.8 170.1 183.9 169C184.8 168.1 185 168.3 185.9 167.4C186.9 166.4 186.9 166.4 187.8 165.3C188.8 164 188.7 163.8 189.8 162.6C190.6 161.6 190.6 161.6 191.7 160.8C192.6 160.2 192.9 160.6 193.7 159.9C194.8 158.9 194.7 158.7 195.6 157.4C196.6 156.1 196.4 155.9 197.6 154.8C198.3 154.1 198.6 154.4 199.5 153.8C200.6 153.1 200.7 153.2 201.5 152.2C202.6 150.7 202.3 150.5 203.4 149C204.3 147.7 204.2 147.7 205.4 146.7C206.2 146 206.6 146.4 207.3 145.6C208.5 144.2 208.1 143.9 209.3 142.4C210.1 141.3 210.1 141.3 211.2 140.5C212.1 139.9 212.2 140 213.2 139.7C214.1 139.4 214.2 139.7 215.1 139.4C216.1 139.1 216.3 138.5 217.1 138.5C218.2 138.5 218.1 139.7 219 140.9C220 142.1 220.1 142.1 221 143.4C222.1 145.2 221.8 145.4 222.9 147.2C223.8 148.5 223.8 148.5 224.9 149.6C225.7 150.5 225.8 151.1 226.8 151.1C227.8 151.1 227.9 150.7 228.8 150.1C229.8 149.4 229.9 149.5 230.7 148.6C231.9 147.3 231.5 147 232.7 145.8C233.5 145.1 233.6 144.8 234.6 144.8C235.6 144.8 235.6 145.3 236.6 145.3C237.5 145.3 237.6 145.3 238.5 145.1C239.5 144.9 239.6 144.9 240.5 144.4C241.6 143.8 241.7 143.8 242.4 142.8C243.7 141.2 243.6 141.1 244.4 139.2C245.5 136.5 245.3 136.5 246.3 133.7C247.3 131.2 247.3 131.2 248.3 128.6C249.3 126.1 248.8 125.7 250.2 123.5C250.8 122.7 251.2 122.6 252.2 122.6C253.1 122.6 253.2 123 254.1 123C255.1 123 255.1 122.9 256.1 122.9C257.1 122.9 257.1 122.9 258 122.9C259 122.9 259.3 123.2 260 123.2C261.3 123.2 261.1 121.6 262 119.8C263 117.8 262.8 117.7 263.9 115.6C264.8 114 264.8 113.9 265.9 112.5C266.7 111.3 266.8 111.4 267.8 110.4C268.8 109.3 268.8 109.3 269.8 108.3C270.7 107.4 270.7 107.4 271.7 106.5C272.6 105.8 272.6 105.1 273.7 105.1C274.6 105.1 274.8 105.2 275.6 105.8C276.8 106.7 276.5 107.1 277.6 108.1C278.4 108.9 278.8 108.6 279.5 109.5C280.7 111.1 280.8 111.2 281.5 113C282.7 116.4 282.3 116.6 283.4 120.1C284.2 122.7 284.1 122.8 285.4 125.1C286 126.4 286.6 126 287.3 127.2C288.6 129.3 288.4 129.4 289.3 131.7C290.4 134.7 290.1 134.8 291.2 137.9C292.1 140.1 292.1 140.1 293.2 142.3C294 143.9 294.4 143.7 295.1 145.3C296.4 148.5 296.1 148.6 297.1 151.9C298 155.1 298 155.1 299 158.3C299.9 160.9 299.8 161 301 163.5C301.7 165.1 302.2 164.8 302.9 166.4C304.2 169.1 303.9 169.2 304.9 172.1C305.9 174.9 305.5 175.1 306.8 177.7C307.5 179 307.8 179.8 308.8 179.8C309.7 179.8 309.8 178.8 310.7 177.8C311.7 176.8 311.7 176.8 312.7 175.8C313.7 174.8 313.8 174.9 314.6 173.8C315.7 172.3 315.4 172 316.6 170.7C317.3 169.9 317.5 170 318.5 169.5C319.5 169 319.5 168.9 320.5 168.7C321.4 168.5 321.5 168.7 322.4 168.5C323.5 168.2 323.6 168.2 324.4 167.5C325.5 166.6 325.5 166.4 326.3 165.2C327.4 163.7 327.1 163.4 328.3 162.1C329 161.3 329.5 160.9 330.2 160.9C331.4 160.9 331.3 162.3 332.2 163.7C333.3 165.5 333 165.6 334.1 167.4C335 168.7 335.3 168.5 336.1 169.8C337.3 171.9 337.1 172 338 174.1C339 176.2 338.7 176.6 340 178.3C340.6 179.2 341 179.4 342 179.4C342.9 179.4 342.9 178.4 343.9 178.4C344.9 178.4 344.8 179 345.9 179.4C346.8 179.8 346.9 179.9 347.8 179.9C348.8 179.9 349 179.8 349.8 179C351 177.8 350.6 177.3 351.7 175.9C352.5 174.9 352.7 175 353.7 174.1C354.7 173.2 354.8 173.2 355.6 172.1C356.7 170.7 356.5 170.6 357.6 169.1C358.4 167.9 358.4 167.7 359.5 166.8C360.3 166.2 360.6 166.1 361.5 166.1C362.6 166.1 362.3 167.2 363.4 168C364.3 168.6 364.6 168.2 365.4 169C366.6 170.2 366.5 170.4 367.3 172C368.5 174.2 368.5 174.2 369.3 176.7C370.5 180.7 370.2 180.7 371.2 184.8C372.2 188.8 372.2 188.8 373.2 192.9C374.2 197.3 374 197.4 375.1 201.8C375.9 204.9 375.8 205 377.1 207.8C377.8 209.4 377.8 210.6 379 210.7C379.7 210.7 380.2 210.7 381 210.7C382.1 210.7 382 209.7 382.9 208.6C383.9 207.5 383.7 206.2 384.9 206.2C385.6 206.2 385.9 206.2 386.8 206.3C387.8 206.3 387.8 206.9 388.8 206.9C389.7 206.9 389.8 206.7 390.7 206.5C391.7 206.3 391.7 206.4 392.7 206.2C393.7 206 393.7 206 394.6 205.8C395.6 205.6 395.7 205.4 396.6 205.4C397.7 205.4 397.5 206.4 398.5 207.1C399.4 207.7 399.5 207.6 400.5 208.1C401.5 208.6 401.5 208.7 402.4 209.2C403.4 209.8 403.4 210.3 404.4 210.3C405.3 210.3 405.5 210.3 406.3 209.9C407.5 209.3 407.2 208 408.3 208C409.1 208 409.3 208.4 410.2 208.4C411.2 208.4 411.2 207.8 412.2 207.8C413.1 207.8 413.2 207.8 414.1 207.8C415.1 207.9 415.2 207.9 416.1 208.4C417.2 209 417 209.3 418 209.9C418.9 210.4 419 210.6 420 210.6C420.9 210.6 421 210.6 422 210.6C423 210.6 423 210.3 423.9 209.6C425 208.8 425 208.8 425.9 207.7C426.9 206.5 426.8 206.3 427.8 205.1C428.7 203.9 428.8 204 429.8 202.9C430.7 201.9 430.7 201.9 431.7 200.9C432.7 199.8 432.5 199.7 433.7 198.7C434.5 198.1 434.7 198.3 435.6 197.7C436.6 197.1 436.5 196.9 437.6 196.4C438.5 195.9 438.5 196 439.5 195.8C440.5 195.5 440.5 195.6 441.5 195.4C442.4 195.3 442.4 195.4 443.4 195.2C444.4 195.1 444.4 194.9 445.4 194.8C446.3 194.7 446.4 194.8 447.3 194.7C448.3 194.6 448.3 194.3 449.3 194.1C450.2 193.9 450.2 193.9 451.2 193.9C452.2 193.9 452.3 193.9 453.2 194.2C454.2 194.6 454.2 194.8 455.1 195.3C456.1 195.9 456.1 196.5 457.1 196.5C458 196.5 458.1 196.2 459 195.7C460.1 195.1 460.1 195.1 461 194.3C462 193.3 462.1 193.3 462.9 192.1C464 190.6 463.9 190.5 464.9 188.8C465.9 187.1 465.7 187 466.8 185.4C467.6 184.3 467.7 184.3 468.8 183.5C469.7 182.8 469.7 182.3 470.7 182.3C471.6 182.3 471.7 182.3 472.7 182.4C473.7 182.5 473.7 182.7 474.6 182.8C475.6 183 475.6 182.9 476.6 183.2C477.6 183.5 477.5 183.9 478.5 184.1C479.5 184.2 479.5 184.2 480.5 184.2C481.5 184.2 481.4 183.7 482.4 183.7C483.4 183.7 483.4 183.7 484.4 183.7C485.4 183.6 485.4 183.7 486.3 183.6C487.4 183.4 487.3 182.9 488.3 182.7C489.2 182.5 489.4 182.5 490.2 182.5C491.4 182.5 491.2 183.6 492.2 184.6C493.1 185.4 493.2 185.4 494.1 186.3C495.1 187.1 495.1 187.2 496.1 187.9C497 188.6 497 188.6 498 189.1C499 189.5 499.1 189.6 500 189.6C501 189.6 501 189.1 502 188.7C502.9 188.2 502.9 187.9 503.9 187.7C504.8 187.6 504.9 187.6 505.9 187.6C506.9 187.6 506.9 187.8 507.8 188.2C508.8 188.8 508.7 189 509.8 189.6C510.7 190.1 510.7 190.3 511.7 190.5C512.6 190.7 512.7 190.7 513.7 190.7C514.6 190.7 514.6 190.5 515.6 190.3C516.6 190 516.7 190.2 517.6 189.8C518.6 189.3 518.6 189.2 519.5 188.5C520.5 187.8 520.5 187.7 521.5 187C522.4 186.4 522.5 186.4 523.4 185.8C524.4 185.1 524.4 185 525.4 184.3C526.3 183.7 526.3 183.5 527.3 183.1C528.2 182.7 528.3 183 529.3 182.7C530.3 182.5 530.3 182.2 531.2 182.2C532.2 182.2 532.2 182.8 533.2 183.4C534.1 183.9 534.1 183.9 535.1 184.3C536.1 184.7 536.1 184.6 537.1 184.9C538.1 185.3 539 185.7 539 185.7" fill="transparent" stroke="#5470c6" stroke-linejoin="bevel" class="zr16-cls-61"></path>
</g>
<g clip-path="url(#zr16-c1)">
<path d="M80.5 216.7C80.5 216.7 80.7 199.2 82.4 199.2C82.7 199.2 83.4 199.9 84.4 200.4C85.3 200.9 85.3 201.1 86.3 201.3C87.3 201.6 87.3 201.6 88.3 201.6C89.3 201.6 89.3 201.5 90.2 201.4C91.2 201.2 91.2 201.3 92.2 201C93.2 200.7 93.2 200.6 94.1 200.2C95.1 199.9 95.1 199.9 96.1 199.6C97.1 199.3 97.1 199.2 98 199.2C99 199.2 99.1 199.3 100 199.6C101 199.9 100.9 200.4 102 200.4C102.9 200.4 102.9 200.4 103.9 200.4C104.9 200.3 104.9 200.2 105.9 200.2C106.9 200.2 106.9 200.5 107.8 201C108.8 201.4 108.8 201.4 109.8 202C110.8 202.7 110.7 202.7 111.7 203.5C112.7 204.2 112.6 204.3 113.7 204.9C114.6 205.6 114.6 205.6 115.6 206C116.6 206.5 116.6 206.5 117.6 206.8C118.5 207.1 118.5 207.2 119.5 207.3C120.5 207.3 120.5 207.3 121.5 207.3C122.5 207.3 122.4 207 123.4 206.8C124.4 206.6 124.4 206.7 125.4 206.6C126.3 206.5 126.4 206.6 127.3 206.3C128.3 206 128.3 206 129.3 205.5C130.3 204.9 130.2 204.9 131.2 204.3C132.2 203.6 132.1 203.5 133.2 203C134.1 202.6 134.1 202.7 135.1 202.4C136.1 202.1 136.1 202 137.1 201.8C138 201.5 138 201.5 139 201.4C140 201.2 140 201.3 141 201.2C142 201 141.9 200.9 142.9 200.8C143.9 200.6 143.9 200.7 144.9 200.6C145.9 200.4 145.9 200.4 146.8 200.2C147.8 200.1 147.8 200.1 148.8 200C149.8 199.8 149.8 199.9 150.7 199.7C151.7 199.4 151.8 199.5 152.7 199.1C153.7 198.6 153.7 198.5 154.6 197.8C155.6 197.1 155.6 197.1 156.6 196.3C157.6 195.5 157.6 195.5 158.5 194.6C159.5 193.6 159.5 193.6 160.5 192.6C161.5 191.6 161.5 191.6 162.4 190.6C163.4 189.6 163.4 189.6 164.4 188.5C165.3 187.6 165.3 187.6 166.3 186.6C167.3 185.7 167.3 185.8 168.3 184.9C169.3 184.1 169.3 184.1 170.2 183.3C171.2 182.4 171.2 182.3 172.2 181.5C173.1 180.8 173.2 180.9 174.1 180.3C175.1 179.6 175.1 179.7 176.1 179.1C177.1 178.4 177.1 178.4 178 177.8C179 177.2 179 177.2 180 176.5C181 175.8 181 175.8 182 175.1C182.9 174.3 182.9 174.3 183.9 173.5C184.9 172.8 184.9 172.8 185.9 172C186.9 171.1 186.9 171.1 187.8 170.2C188.8 169.1 188.7 169 189.8 168C190.7 167 190.7 167.1 191.7 166.2C192.7 165.3 192.7 165.3 193.7 164.4C194.7 163.5 194.7 163.5 195.6 162.4C196.6 161.3 196.5 161.2 197.6 160C198.5 159.1 198.5 159.1 199.5 158.2C200.5 157.4 200.5 157.4 201.5 156.5C202.5 155.5 202.5 155.5 203.4 154.4C204.4 153.3 204.3 153.2 205.4 152.1C206.3 151.1 206.4 151.2 207.3 150.2C208.3 149.2 208.3 149.1 209.3 148.1C210.2 147.2 210.3 147.3 211.2 146.3C212.2 145.4 212.1 145.2 213.2 144.3C214.1 143.6 214.1 143.6 215.1 143C216.1 142.5 216.1 142.4 217.1 142C218 141.7 218 141.6 219 141.6C220 141.6 220.1 141.6 221 142C222.1 142.4 221.9 142.8 222.9 143.4C223.9 144 223.8 144.2 224.9 144.5C225.8 144.8 225.9 144.6 226.8 144.8C227.8 145.1 227.8 145.2 228.8 145.5C229.7 145.8 229.8 145.7 230.7 146C231.7 146.3 231.7 146.2 232.7 146.5C233.7 146.8 233.7 146.8 234.6 147.2C235.6 147.6 235.6 148.2 236.6 148.2C237.5 148.2 237.6 148 238.5 147.6C239.6 147.1 239.6 147.2 240.5 146.5C241.6 145.6 241.5 145.4 242.4 144.3C243.4 143.2 243.4 143.2 244.4 142C245.4 140.8 245.4 140.8 246.3 139.5C247.3 138.2 247.4 138.2 248.3 136.9C249.3 135.4 249.1 135.2 250.2 133.9C251 133.1 251.3 133.4 252.2 132.7C253.2 132 253.3 132.1 254.1 131.1C255.3 129.9 255.1 129.7 256.1 128.3C257 127 257.1 127 258 125.8C259 124.6 259 124.5 260 123.4C260.9 122.3 260.9 122.3 262 121.2C262.9 120.2 262.9 120.2 263.9 119.3C264.8 118.5 264.8 118.4 265.9 117.7C266.8 117.1 266.8 117.1 267.8 116.6C268.8 116.2 269 116.5 269.8 115.8C270.9 114.7 270.8 114.5 271.7 113.2C272.7 111.8 272.5 111.6 273.7 110.3C274.4 109.5 274.6 109.1 275.6 109.1C276.5 109.1 276.6 109.2 277.6 109.2C278.5 109.2 278.6 108.9 279.5 108.9C280.5 108.9 280.7 109.1 281.5 109.8C282.7 110.9 282.4 111.2 283.4 112.6C284.4 114 284.3 114.1 285.4 115.5C286.3 116.6 286.4 116.5 287.3 117.6C288.4 119.1 288.5 119 289.3 120.6C290.4 122.9 290.3 123 291.2 125.4C292.3 128.3 292.1 128.4 293.2 131.2C294 133.3 294.2 133.2 295.1 135.2C296.1 137.4 296.2 137.4 297.1 139.6C298.1 142.2 298.1 142.3 299 145C300 147.8 299.8 147.9 301 150.7C301.8 152.6 302 152.5 302.9 154.3C304 156.5 304 156.4 304.9 158.7C306 161.7 305.7 161.8 306.8 164.8C307.6 167 307.5 167.1 308.8 169C309.5 170.1 309.6 170.1 310.7 170.7C311.6 171.1 311.8 170.7 312.7 171.1C313.8 171.7 313.6 172.1 314.6 172.9C315.5 173.6 315.5 173.7 316.6 174.2C317.5 174.6 317.6 174.7 318.5 174.7C319.6 174.7 319.5 173.9 320.5 173.3C321.4 172.7 321.5 172.8 322.4 172.1C323.5 171.5 323.6 171.5 324.4 170.6C325.5 169.4 325.3 169.2 326.3 168C327.3 166.8 327.2 166.7 328.3 165.8C329.1 165.1 329.3 164.8 330.2 164.8C331.2 164.8 331.2 165.4 332.2 166.1C333.2 166.7 333.1 167.3 334.1 167.4C335 167.5 335.1 167.4 336.1 167.5C337.1 167.6 337.2 167.7 338 168.1C339.1 168.7 339.1 168.8 340 169.6C341 170.5 340.9 170.7 342 171.6C342.9 172.3 343 172.2 343.9 172.9C344.9 173.7 345 173.7 345.9 174.6C346.9 175.7 346.7 175.9 347.8 177C348.7 177.9 348.7 178.7 349.8 178.7C350.7 178.7 350.8 178.2 351.7 177.6C352.7 177 352.6 176.8 353.7 176.3C354.6 175.8 354.7 176.2 355.6 175.8C356.7 175.3 356.6 175.2 357.6 174.5C358.6 173.8 358.6 173.8 359.5 172.9C360.5 172 360.3 171 361.5 171C362.3 171 362.5 171.1 363.4 171.1C364.4 171.1 364.4 170.6 365.4 170.5C366.3 170.5 366.4 170.5 367.3 170.5C368.4 170.5 368.6 170.9 369.3 171.8C370.5 173.3 370.4 173.6 371.2 175.5C372.3 177.9 372.2 178 373.2 180.4C374.1 182.9 374.1 182.9 375.1 185.4C376.1 187.7 376 187.7 377.1 189.9C378 191.8 378.1 191.8 379 193.7C380 195.7 379.9 195.8 381 197.8C381.8 199.3 382 199.2 382.9 200.8C383.9 202.4 383.9 202.4 384.9 204C385.8 205.6 385.7 205.7 386.8 207C387.7 208.1 387.7 208.8 388.8 208.8C389.6 208.8 389.8 208.8 390.7 208.6C391.8 208.4 391.7 208.1 392.7 207.4C393.7 206.7 393.6 206.2 394.6 206C395.5 205.8 395.7 205.8 396.6 205.8C397.6 205.8 397.5 206.7 398.5 207C399.4 207.3 399.5 207.1 400.5 207.3C401.5 207.5 401.5 207.5 402.4 207.7C403.4 207.9 403.4 208 404.4 208C405.4 208 405.4 207.7 406.3 207.6C407.3 207.6 407.3 207.6 408.3 207.6C409.3 207.6 409.2 208 410.2 208.2C411.2 208.4 411.2 208.3 412.2 208.5C413.2 208.7 413.2 209 414.1 209.1C415.1 209.1 415.1 209.1 416.1 209.1C417.1 209.1 417.1 209 418 209C419 209 419 209.5 420 209.5C421 209.5 421 209.4 422 209.2C422.9 209 422.9 209 423.9 208.7C424.9 208.5 424.9 208.4 425.9 208.1C426.8 207.8 426.8 207.8 427.8 207.5C428.8 207.2 428.8 207.2 429.8 206.8C430.8 206.3 430.8 206.3 431.7 205.7C432.7 205.1 432.7 205 433.7 204.2C434.6 203.4 434.7 203.5 435.6 202.7C436.6 201.8 436.5 201.6 437.6 200.7C438.5 199.9 438.5 200 439.5 199.3C440.5 198.7 440.5 198.8 441.5 198.2C442.4 197.6 442.4 197.5 443.4 197C444.3 196.5 444.4 196.6 445.4 196.3C446.3 195.9 446.3 195.9 447.3 195.5C448.3 195.2 448.3 195.2 449.3 194.9C450.2 194.7 450.2 194.7 451.2 194.7C452.2 194.7 452.2 194.7 453.2 194.7C454.2 194.8 454.2 194.8 455.1 195.1C456.1 195.3 456.1 195.6 457.1 195.6C458.1 195.6 458.1 195.3 459 194.9C460 194.5 460 194.5 461 194.1C462 193.7 462 193.7 462.9 193.2C463.9 192.7 463.9 192.6 464.9 192.1C465.8 191.5 465.9 191.6 466.8 191C467.8 190.3 467.8 190.3 468.8 189.6C469.7 188.9 469.7 188.9 470.7 188.3C471.7 187.7 471.8 187.9 472.7 187.3C473.7 186.6 473.7 186.6 474.6 185.8C475.6 185.1 475.5 184.9 476.6 184.3C477.5 183.9 477.6 184 478.5 183.8C479.5 183.5 479.5 183.5 480.5 183.3C481.5 183.1 481.5 183.1 482.4 183.1C483.4 183.1 483.4 183.2 484.4 183.3C485.4 183.3 485.4 183.4 486.3 183.4C487.3 183.4 487.3 183.4 488.3 183.4C489.3 183.4 489.3 183.4 490.2 183.4C491.3 183.4 491.2 183.7 492.2 184.1C493.2 184.5 493.2 184.6 494.1 185C495.1 185.4 495.1 185.6 496.1 185.7C497 185.9 497.1 185.8 498 185.9C499 186 499 185.9 500 186.1C501 186.2 501 186.4 502 186.6C502.9 186.8 503 186.7 503.9 187C504.9 187.3 504.9 187.3 505.9 187.7C506.8 188.2 506.8 188.2 507.8 188.7C508.8 189.1 508.7 189.6 509.8 189.6C510.7 189.6 510.7 189.6 511.7 189.6C512.7 189.6 512.7 189.4 513.7 189.2C514.6 189 514.6 188.9 515.6 188.9C516.6 188.9 516.6 189 517.6 189C518.5 189.1 518.5 189.1 519.5 189.1C520.5 189.1 520.5 189 521.5 188.8C522.5 188.6 522.5 188.6 523.4 188.2C524.4 187.8 524.4 187.7 525.4 187.3C526.3 186.8 526.3 186.9 527.3 186.4C528.3 186 528.3 186.1 529.3 185.6C530.3 185.2 530.2 184.7 531.2 184.6C532.1 184.6 532.2 184.6 533.2 184.6C534.2 184.5 534.1 184.4 535.1 184.3C536.1 184.2 536.1 184 537.1 184C538 184 539 184.2 539 184.2" fill="transparent" stroke="#91cc75" stroke-linejoin="bevel" class="zr16-cls-61"></path>
</g>
<g clip-path="url(#zr16-c2)">
<path d="M100 208.1C100 208.1 100.4 199.8 102 199.8C102.3 199.8 102.9 200.1 103.9 200.4C104.9 200.6 104.9 200.5 105.9 200.8C106.8 201 106.8 201.1 107.8 201.3C108.8 201.5 108.8 201.5 109.8 201.7C110.7 201.9 110.7 202 111.7 202.2C112.7 202.5 112.7 202.4 113.7 202.6C114.6 202.7 114.6 202.7 115.6 202.8C116.6 202.9 116.6 202.8 117.6 203C118.5 203.1 118.5 203.2 119.5 203.4C120.5 203.6 120.5 203.9 121.5 203.9C122.4 203.9 122.4 203.7 123.4 203.6C124.4 203.5 124.4 203.4 125.4 203.4C126.3 203.4 126.3 203.5 127.3 203.6C128.3 203.7 128.3 203.7 129.3 203.8C130.2 203.8 130.2 203.8 131.2 203.9C132.2 203.9 132.2 203.9 133.2 204C134.1 204.1 134.1 204.1 135.1 204.2C136.1 204.3 136.1 204.3 137.1 204.3C138 204.3 138 204.3 139 204.3C140 204.3 140 204.3 141 204.2C142 204.2 141.9 204 142.9 203.8C143.9 203.6 143.9 203.7 144.9 203.6C145.9 203.4 145.9 203.5 146.8 203.3C147.8 203.1 147.8 203 148.8 202.7C149.8 202.4 149.8 202.4 150.7 202C151.7 201.5 151.7 201.5 152.7 201C153.7 200.6 153.7 200.6 154.6 200.1C155.6 199.6 155.6 199.6 156.6 199C157.6 198.5 157.6 198.5 158.5 198C159.5 197.4 159.5 197.5 160.5 196.9C161.5 196.3 161.5 196.3 162.4 195.7C163.4 195.1 163.4 195.1 164.4 194.6C165.4 194 165.4 194 166.3 193.4C167.3 192.9 167.3 192.9 168.3 192.4C169.3 192 169.3 192 170.2 191.5C171.2 190.9 171.2 190.9 172.2 190.3C173.2 189.7 173.2 189.7 174.1 189C175.1 188.4 175.1 188.4 176.1 187.7C177.1 186.9 177.1 186.9 178 186.2C179 185.4 179 185.4 180 184.6C181 183.7 181 183.7 182 182.9C182.9 182 182.9 181.9 183.9 181C184.9 180.2 184.9 180.2 185.9 179.3C186.8 178.4 186.8 178.5 187.8 177.5C188.8 176.6 188.8 176.6 189.8 175.6C190.7 174.7 190.7 174.7 191.7 173.8C192.6 173.1 192.7 173.1 193.7 172.3C194.6 171.6 194.7 171.6 195.6 170.7C196.6 169.9 196.6 169.8 197.6 168.9C198.5 168.1 198.5 168.2 199.5 167.4C200.5 166.6 200.5 166.6 201.5 165.8C202.5 164.9 202.5 164.9 203.4 164C204.4 163 204.4 163 205.4 162C206.3 161.1 206.4 161.2 207.3 160.2C208.3 159.2 208.2 159.1 209.3 158C210.2 157.1 210.3 157.2 211.2 156.3C212.2 155.3 212.2 155.3 213.2 154.4C214.1 153.5 214.2 153.6 215.1 152.7C216.1 151.9 216 151.8 217.1 151C218 150.4 218 150.4 219 149.9C220 149.5 220 149.5 221 149.2C221.9 149 222 149.2 222.9 148.9C223.9 148.7 223.9 148.6 224.9 148.3C225.9 147.9 225.8 147.9 226.8 147.5C227.8 147.1 227.8 147.1 228.8 146.8C229.7 146.5 229.8 146.5 230.7 146.2C231.7 145.8 231.7 145.7 232.7 145.4C233.6 145.2 233.7 145.1 234.6 145.1C235.6 145.1 235.6 145.1 236.6 145.1C237.6 145.1 237.6 144.8 238.5 144.6C239.5 144.4 239.5 144.4 240.5 144.2C241.5 144 241.5 144.1 242.4 143.9C243.4 143.6 243.5 143.7 244.4 143.3C245.4 142.8 245.4 142.7 246.3 142.2C247.3 141.7 247.3 141.7 248.3 141.2C249.3 140.6 249.2 140.4 250.2 140C251.1 139.6 251.2 139.8 252.2 139.6C253.2 139.4 253.2 139.5 254.1 139.2C255.2 138.8 255.2 138.8 256.1 138.3C257.1 137.6 257.1 137.5 258 136.7C259 135.8 259.1 135.9 260 134.9C261 133.9 261 133.8 262 132.8C262.9 131.7 262.9 131.7 263.9 130.7C264.9 129.6 264.9 129.6 265.9 128.6C266.8 127.6 266.8 127.7 267.8 126.8C268.8 125.8 268.8 125.8 269.8 124.9C270.7 123.9 270.8 123.9 271.7 122.9C272.7 121.9 272.7 121.8 273.7 120.7C274.6 119.7 274.5 119.6 275.6 118.7C276.5 118 276.6 118.1 277.6 117.5C278.6 116.9 278.5 116.7 279.5 116.2C280.4 115.7 280.5 115.5 281.5 115.5C282.4 115.5 282.4 115.7 283.4 116C284.4 116.2 284.4 116.3 285.4 116.6C286.3 116.9 286.4 116.7 287.3 117.1C288.3 117.6 288.3 117.7 289.3 118.2C290.2 118.8 290.3 118.7 291.2 119.3C292.2 120 292.2 120 293.2 120.8C294.1 121.5 294.2 121.4 295.1 122.2C296.2 123.2 296.1 123.3 297.1 124.4C298.1 125.6 298.1 125.6 299 127C300.1 128.5 300 128.6 301 130.2C301.9 131.8 302 131.8 302.9 133.4C303.9 135.2 304 135.2 304.9 137.1C305.9 139.1 305.8 139.2 306.8 141.2C307.8 143.1 307.8 143.1 308.8 144.8C309.7 146.5 309.7 146.5 310.7 148C311.7 149.6 311.7 149.6 312.7 151.1C313.6 152.6 313.6 152.6 314.6 154.1C315.6 155.5 315.6 155.5 316.6 156.9C317.6 158.3 317.5 158.4 318.5 159.8C319.4 161 319.4 161 320.5 162C321.4 162.7 321.5 162.6 322.4 163.2C323.4 163.9 323.4 163.9 324.4 164.7C325.4 165.5 325.3 165.6 326.3 166.4C327.2 167 327.3 167.1 328.3 167.4C329.2 167.7 329.3 167.5 330.2 167.7C331.3 168 331.3 168 332.2 168.6C333.3 169.2 333.1 169.6 334.1 170.2C335 170.7 335.1 170.6 336.1 170.9C337.1 171.2 337.1 171.3 338 171.4C339 171.5 339 171.4 340 171.5C341 171.5 341 171.8 342 171.8C342.9 171.8 342.9 171.8 343.9 171.8C344.9 171.7 344.9 171.3 345.9 171.3C346.8 171.3 346.8 171.3 347.8 171.4C348.8 171.5 348.8 171.6 349.8 171.8C350.7 171.9 350.7 171.9 351.7 171.9C352.7 171.9 352.7 171.9 353.7 171.9C354.6 171.8 354.6 171.8 355.6 171.6C356.6 171.5 356.6 171.3 357.6 171.3C358.5 171.3 358.5 171.3 359.5 171.3C360.5 171.3 360.5 171.3 361.5 171.3C362.5 171.3 362.4 171.7 363.4 172C364.4 172.3 364.4 172.2 365.4 172.6C366.4 173.1 366.4 173.1 367.3 173.8C368.3 174.4 368.3 174.5 369.3 175.2C370.2 175.9 370.3 175.8 371.2 176.6C372.3 177.4 372.2 177.4 373.2 178.4C374.2 179.4 374.1 179.6 375.1 180.6C376 181.5 376 181.5 377.1 182.2C378 182.8 378 182.8 379 183.3C380 183.9 380.1 183.8 381 184.4C382 185.1 381.9 185.2 382.9 185.9C383.9 186.6 383.9 186.6 384.9 187.3C385.9 188 385.9 188 386.8 188.8C387.8 189.5 387.8 189.5 388.8 190.3C389.8 191.1 389.8 191.1 390.7 192C391.7 193 391.7 193 392.7 193.9C393.6 194.8 393.7 194.8 394.6 195.7C395.7 196.7 395.6 196.8 396.6 197.9C397.6 199.1 397.5 199.1 398.5 200.4C399.5 201.5 399.5 201.5 400.5 202.5C401.4 203.4 401.5 203.4 402.4 204.2C403.4 205.1 403.4 205.2 404.4 206C405.3 206.8 405.3 206.8 406.3 207.3C407.3 207.9 407.3 207.9 408.3 208.2C409.2 208.4 409.3 208.4 410.2 208.4C411.2 208.4 411.2 208.2 412.2 208C413.2 207.7 413.2 207.6 414.1 207.5C415.1 207.5 415.1 207.5 416.1 207.5C417.1 207.5 417.1 207.8 418 208C419 208.2 419 208.3 420 208.4C421 208.4 421 208.4 422 208.4C422.9 208.4 422.9 208.4 423.9 208.4C424.9 208.3 424.9 208.1 425.9 207.9C426.8 207.6 426.8 207.6 427.8 207.5C428.8 207.5 428.8 207.5 429.8 207.5C430.7 207.4 430.7 207.3 431.7 207.1C432.7 206.9 432.7 206.9 433.7 206.6C434.6 206.3 434.7 206.4 435.6 205.9C436.6 205.5 436.5 205.2 437.6 204.8C438.5 204.5 438.6 204.7 439.5 204.4C440.5 204.1 440.5 204.1 441.5 203.7C442.4 203.3 442.4 203.2 443.4 202.9C444.4 202.5 444.4 202.5 445.4 202.2C446.3 201.8 446.3 201.8 447.3 201.5C448.3 201.2 448.3 201.2 449.3 200.8C450.2 200.5 450.3 200.6 451.2 200.2C452.2 199.9 452.2 199.8 453.2 199.5C454.1 199.1 454.2 199.2 455.1 198.9C456.1 198.6 456.1 198.6 457.1 198.2C458.1 197.7 458 197.6 459 197.1C460 196.6 460 196.6 461 196.1C462 195.6 461.9 195.6 462.9 195.1C463.9 194.6 463.9 194.6 464.9 194.2C465.9 193.7 465.9 193.7 466.8 193.3C467.8 192.8 467.8 192.7 468.8 192.3C469.7 191.8 469.7 191.8 470.7 191.5C471.7 191.2 471.7 191.3 472.7 191C473.7 190.7 473.7 190.7 474.6 190.4C475.6 190.2 475.6 190.2 476.6 190C477.6 189.7 477.6 189.7 478.5 189.3C479.5 189 479.5 189 480.5 188.7C481.5 188.4 481.5 188.4 482.4 188.1C483.4 187.9 483.4 187.9 484.4 187.7C485.4 187.4 485.4 187.5 486.3 187.2C487.3 186.9 487.3 186.8 488.3 186.5C489.3 186.2 489.2 186 490.2 185.8C491.2 185.7 491.2 185.8 492.2 185.7C493.2 185.6 493.2 185.6 494.1 185.4C495.1 185.2 495.1 185.2 496.1 185C497.1 184.9 497.1 184.9 498 184.8C499 184.7 499 184.7 500 184.7C501 184.7 501 184.7 502 184.8C502.9 185 502.9 184.9 503.9 185.1C504.9 185.3 504.9 185.3 505.9 185.6C506.8 185.8 506.8 185.8 507.8 186C508.8 186.3 508.8 186.3 509.8 186.5C510.7 186.7 510.7 186.7 511.7 186.9C512.7 187 512.7 187 513.7 187.1C514.6 187.2 514.6 187.2 515.6 187.3C516.6 187.4 516.6 187.4 517.6 187.5C518.5 187.5 518.5 187.5 519.5 187.6C520.5 187.6 520.5 187.7 521.5 187.7C522.4 187.7 522.4 187.7 523.4 187.6C524.4 187.6 524.4 187.5 525.4 187.5C526.3 187.5 526.3 187.5 527.3 187.5C528.3 187.6 528.3 187.6 529.3 187.6C530.3 187.6 530.2 187.3 531.2 187.1C532.2 186.9 532.2 187 533.2 186.9C534.1 186.8 534.1 186.7 535.1 186.6C536.1 186.5 536.1 186.5 537.1 186.5C538 186.5 539 186.6 539 186.6" fill="transparent" stroke="#fac858" stroke-linejoin="bevel" class="zr16-cls-61"></path>
</g>
<g clip-path="url(#zr16-c3)">
<path d="M119.5 207.8C119.5 207.8 120 202.3 121.5 202.3C122 202.3 122.4 202.4 123.4 202.5C124.4 202.6 124.4 202.6 125.4 202.7C126.3 202.8 126.3 203 127.3 203C128.3 203 128.3 203 129.3 203C130.2 202.9 130.2 203 131.2 202.9C132.2 202.9 132.2 202.8 133.2 202.7C134.1 202.7 134.1 202.7 135.1 202.7C136.1 202.6 136.1 202.6 137.1 202.6C138 202.6 138.1 202.6 139 202.7C140 202.8 140 203 141 203C142 203 141.9 202.8 142.9 202.6C143.9 202.5 143.9 202.4 144.9 202.4C145.9 202.4 145.9 202.5 146.8 202.5C147.8 202.5 147.8 202.5 148.8 202.5C149.8 202.5 149.8 202.5 150.7 202.5C151.7 202.4 151.7 202.4 152.7 202.3C153.7 202.3 153.7 202.3 154.6 202.1C155.6 201.9 155.6 201.9 156.6 201.6C157.6 201.4 157.6 201.4 158.5 201.1C159.5 200.8 159.5 200.8 160.5 200.4C161.5 199.9 161.5 199.9 162.4 199.4C163.4 199 163.4 199 164.4 198.6C165.4 198.1 165.4 198.2 166.3 197.7C167.3 197.3 167.3 197.3 168.3 196.8C169.3 196.3 169.3 196.3 170.2 195.7C171.2 195.2 171.2 195.1 172.2 194.5C173.2 194 173.2 194 174.1 193.5C175.1 192.9 175.1 192.9 176.1 192.4C177.1 191.8 177.1 191.8 178 191.2C179 190.7 179 190.7 180 190.1C181 189.5 181 189.5 182 188.8C182.9 188.2 182.9 188.2 183.9 187.5C184.9 186.9 184.9 186.9 185.9 186.3C186.8 185.7 186.8 185.7 187.8 185C188.8 184.3 188.8 184.3 189.8 183.6C190.7 182.9 190.7 182.9 191.7 182.3C192.7 181.5 192.7 181.6 193.7 180.8C194.7 180.1 194.7 180.1 195.6 179.3C196.6 178.4 196.6 178.4 197.6 177.5C198.5 176.6 198.5 176.6 199.5 175.8C200.5 174.9 200.5 175 201.5 174.1C202.5 173.2 202.4 173.1 203.4 172.2C204.4 171.2 204.4 171.2 205.4 170.2C206.3 169.3 206.4 169.4 207.3 168.4C208.3 167.5 208.3 167.4 209.3 166.4C210.2 165.5 210.2 165.5 211.2 164.7C212.2 163.8 212.2 163.8 213.2 163C214.1 162.2 214.2 162.3 215.1 161.5C216.1 160.7 216.1 160.7 217.1 160C218 159.3 218 159.3 219 158.8C220 158.3 220 158.3 221 157.9C221.9 157.5 222 157.5 222.9 157.1C223.9 156.7 223.9 156.7 224.9 156.2C225.9 155.7 225.9 155.7 226.8 155.1C227.8 154.5 227.8 154.4 228.8 153.8C229.7 153.3 229.8 153.4 230.7 152.8C231.7 152.3 231.7 152.2 232.7 151.7C233.6 151.3 233.7 151.3 234.6 150.9C235.6 150.5 235.6 150.5 236.6 150.1C237.6 149.7 237.5 149.6 238.5 149.1C239.5 148.7 239.5 148.7 240.5 148.3C241.5 147.9 241.5 147.9 242.4 147.4C243.4 146.8 243.4 146.8 244.4 146.2C245.4 145.5 245.4 145.5 246.3 144.8C247.3 144.2 247.3 144.2 248.3 143.5C249.3 142.8 249.2 142.7 250.2 142.1C251.2 141.5 251.2 141.6 252.2 141.2C253.2 140.8 253.2 140.9 254.1 140.5C255.1 140 255.1 140 256.1 139.5C257.1 139 257.1 138.9 258 138.3C259 137.8 259 137.8 260 137.3C261 136.8 261 136.8 262 136.3C262.9 135.8 263 135.8 263.9 135.3C264.9 134.7 264.8 134.6 265.9 134C266.8 133.5 266.8 133.5 267.8 133C268.8 132.5 268.8 132.5 269.8 131.9C270.7 131.4 270.7 131.4 271.7 130.8C272.7 130.2 272.7 130.1 273.7 129.6C274.6 129 274.6 129.1 275.6 128.5C276.6 128 276.6 128.1 277.6 127.5C278.6 126.9 278.5 126.9 279.5 126.3C280.5 125.7 280.4 125.5 281.5 125.1C282.4 124.7 282.4 124.9 283.4 124.6C284.4 124.4 284.4 124.4 285.4 124.2C286.3 124 286.3 123.9 287.3 123.7C288.3 123.5 288.3 123.5 289.3 123.5C290.2 123.5 290.2 123.6 291.2 123.8C292.2 124 292.2 124.2 293.2 124.2C294.1 124.2 294.2 124.2 295.1 124.2C296.1 124.2 296.1 124.5 297.1 124.9C298.1 125.2 298.1 125.2 299 125.8C300.1 126.4 300 126.5 301 127.2C302 128 302 127.9 302.9 128.7C303.9 129.6 304 129.6 304.9 130.6C305.9 131.8 305.8 131.9 306.8 133C307.8 134.1 307.7 134.2 308.8 135.2C309.7 135.9 309.7 135.8 310.7 136.4C311.7 137 311.8 136.9 312.7 137.5C313.7 138.2 313.7 138.3 314.6 139.1C315.7 140 315.6 140 316.6 141C317.6 141.9 317.5 142 318.5 142.9C319.5 143.7 319.5 143.7 320.5 144.6C321.5 145.4 321.5 145.4 322.4 146.3C323.4 147.3 323.4 147.3 324.4 148.3C325.4 149.2 325.3 149.2 326.3 150.1C327.3 151 327.3 151 328.3 151.8C329.3 152.7 329.4 152.7 330.2 153.6C331.3 154.8 331.2 154.9 332.2 156.1C333.2 157.3 333.1 157.4 334.1 158.5C335.1 159.5 335.2 159.4 336.1 160.4C337.1 161.5 337 161.5 338 162.6C339 163.6 339 163.6 340 164.5C340.9 165.3 341 165.3 342 166C342.9 166.7 343 166.7 343.9 167.4C344.9 168.2 344.9 168.3 345.9 169.1C346.8 169.9 346.8 170 347.8 170.6C348.7 171.1 348.7 171.2 349.8 171.4C350.7 171.6 350.8 171.4 351.7 171.6C352.7 171.8 352.7 172 353.7 172.2C354.6 172.4 354.6 172.5 355.6 172.5C356.6 172.5 356.6 172.5 357.6 172.4C358.6 172.4 358.5 172.2 359.5 171.9C360.5 171.7 360.5 171.6 361.5 171.6C362.4 171.5 362.5 171.6 363.4 171.5C364.4 171.5 364.4 171 365.4 171C366.3 171 366.4 171 367.3 171.1C368.3 171.2 368.4 171.3 369.3 171.8C370.3 172.3 370.3 172.4 371.2 173.1C372.2 173.8 372.2 173.9 373.2 174.7C374.1 175.5 374.1 175.5 375.1 176.2C376.1 176.9 376.1 176.9 377.1 177.5C378 178.1 378.1 178.1 379 178.8C380 179.4 380 179.4 381 180.1C382 180.8 382 180.8 382.9 181.6C383.9 182.3 383.9 182.3 384.9 183.1C385.9 183.9 385.8 184 386.8 184.9C387.8 185.7 387.7 185.8 388.8 186.4C389.7 187 389.8 186.8 390.7 187.2C391.7 187.7 391.7 187.6 392.7 188C393.7 188.5 393.7 188.6 394.6 189.1C395.6 189.6 395.6 189.5 396.6 190.1C397.6 190.6 397.5 190.7 398.5 191.2C399.5 191.7 399.5 191.5 400.5 192C401.5 192.5 401.4 192.6 402.4 193.2C403.4 193.7 403.4 193.7 404.4 194.2C405.4 194.7 405.4 194.6 406.3 195.1C407.3 195.5 407.4 195.5 408.3 196C409.3 196.7 409.3 196.7 410.2 197.4C411.2 198.1 411.2 198.1 412.2 198.8C413.2 199.5 413.2 199.5 414.1 200.2C415.1 200.9 415.1 200.9 416.1 201.6C417.1 202.4 417.1 202.4 418 203.2C419 204 419 204.1 420 204.8C420.9 205.5 421 205.4 422 205.9C422.9 206.4 422.9 206.5 423.9 206.9C424.8 207.3 424.9 207.3 425.9 207.6C426.8 207.8 426.8 208 427.8 208C428.8 208 428.8 208 429.8 207.9C430.8 207.8 430.7 207.6 431.7 207.2C432.7 206.9 432.7 206.8 433.7 206.4C434.6 206.1 434.6 206.1 435.6 205.9C436.6 205.7 436.6 205.7 437.6 205.6C438.5 205.4 438.5 205.5 439.5 205.4C440.5 205.2 440.5 205.2 441.5 205C442.4 204.8 442.4 204.8 443.4 204.6C444.4 204.3 444.4 204.3 445.4 204C446.3 203.7 446.3 203.7 447.3 203.5C448.3 203.4 448.3 203.4 449.3 203.3C450.2 203.2 450.2 203.1 451.2 203C452.2 202.8 452.2 202.8 453.2 202.7C454.1 202.5 454.2 202.5 455.1 202.3C456.1 202.1 456.1 202 457.1 201.8C458 201.5 458.1 201.6 459 201.2C460 200.9 460 200.9 461 200.5C462 200.1 462 200.1 462.9 199.6C463.9 199.2 463.9 199.2 464.9 198.8C465.8 198.4 465.9 198.4 466.8 198C467.8 197.6 467.8 197.5 468.8 197.1C469.7 196.6 469.8 196.7 470.7 196.2C471.7 195.8 471.7 195.8 472.7 195.4C473.7 195 473.7 195 474.6 194.5C475.6 194.1 475.6 194 476.6 193.6C477.6 193.1 477.6 193.1 478.5 192.7C479.5 192.2 479.5 192.2 480.5 191.9C481.5 191.5 481.4 191.4 482.4 191.1C483.4 190.8 483.4 190.8 484.4 190.5C485.4 190.2 485.4 190.3 486.3 190C487.3 189.7 487.3 189.6 488.3 189.3C489.3 189 489.3 188.9 490.2 188.8C491.2 188.7 491.2 188.8 492.2 188.7C493.2 188.7 493.2 188.7 494.1 188.6C495.1 188.6 495.1 188.6 496.1 188.6C497.1 188.5 497.1 188.4 498 188.2C499 188 499 188 500 187.8C501 187.7 501 187.7 502 187.6C502.9 187.5 502.9 187.5 503.9 187.4C504.9 187.4 504.9 187.4 505.9 187.4C506.8 187.3 506.8 187.3 507.8 187.2C508.8 187.1 508.8 187.1 509.8 187.1C510.7 187 510.7 187.1 511.7 187C512.7 186.9 512.7 186.8 513.7 186.7C514.6 186.5 514.6 186.4 515.6 186.3C516.6 186.2 516.6 186.3 517.6 186.2C518.5 186.2 518.5 186.1 519.5 186.1C520.5 186.1 520.5 186.1 521.5 186.2C522.4 186.2 522.4 186.2 523.4 186.2C524.4 186.2 524.4 186.1 525.4 186.1C526.3 186.1 526.3 186.2 527.3 186.2C528.3 186.2 528.3 186.2 529.3 186.2C530.2 186.2 530.2 186.1 531.2 186.1C532.2 186.1 532.2 186.2 533.2 186.2C534.1 186.3 534.1 186.3 535.1 186.3C536.1 186.3 536.1 186.3 537.1 186.3C538 186.3 539 186.4 539 186.4" fill="transparent" stroke="#ee6666" stroke-linejoin="bevel" class="zr16-cls-61"></path>
</g>
<path d="M0 0l480 0l0 30l-480 0Z" transform="matrix(1,0,0,-1,62.8,442.5)" fill="rgb(47,69,84)" fill-opacity="0" class="zr16-cls-57"></path>
<g clip-path="url(#zr16-c4)">
<polygon points="480 0 0 0 0 5.6 2 5.6 3.9 17.4 5.9 17.7 7.8 17.7 9.8 17.8 11.8 17.5 13.7 17.4 15.7 17.3 17.6 17.4 19.6 17.3 21.6 17.7 23.5 17.2 25.5 16.9 27.4 17.2 29.4 17.7 31.3 17.8 33.3 17.8 35.3 17.9 37.2 17.7 39.2 17.4 41.1 17.5 43.1 17 45.1 17.1 47 17.3 49 17.4 50.9 16.9 52.9 16.7 54.9 16.8 56.8 17 58.8 17.1 60.7 17.2 62.7 17.2 64.7 17.3 66.6 17.4 68.6 17.3 70.5 17.6 72.5 17.7 74.4 17.6 76.4 17.5 78.4 17.5 80.3 17.4 82.3 17.3 84.2 17.5 86.2 17.5 88.2 17.6 90.1 17.8 92.1 17.9 94 18.2 96 18.3 98 18.6 99.9 18.6 101.9 18.8 103.8 19 105.8 19 107.8 18.8 109.7 19 111.7 19.1 113.6 19.5 115.6 19.2 117.6 19.5 119.5 19.4 121.5 19.8 123.4 20 125.4 20.1 127.3 19.9 129.3 20.4 131.3 20.6 133.2 20.6 135.2 20.3 137.1 21 139.1 21.2 141.1 20.9 143 21.2 145 21.6 146.9 21.4 148.9 21.7 150.9 22 152.8 21.7 154.8 21.9 156.7 21.7 158.7 21.9 160.7 21.2 162.6 20.8 164.6 20.7 166.5 21 168.5 21.4 170.4 21.6 172.4 21.5 174.4 21.4 176.3 21.1 178.3 21.2 180.2 21.7 182.2 21.8 184.2 22.2 186.1 22.5 188.1 23.2 190 23.5 192 23.5 194 22.3 195.9 22.4 197.9 23.2 199.8 23.5 201.8 23.4 203.8 23.8 205.7 23.9 207.7 24.3 209.6 23.9 211.6 24.1 213.6 24.3 215.5 24.4 217.5 23.8 219.4 23.3 221.4 23.5 223.3 22.6 225.3 21.8 227.3 22.3 229.2 22.7 231.2 21.6 233.1 21.2 235.1 20.1 237.1 20.9 239 20.3 241 19.4 242.9 20 244.9 18.9 246.9 18.2 248.8 18.1 250.8 19.1 252.7 19.8 254.7 20 256.7 19.7 258.6 19.2 260.6 19.5 262.5 19.9 264.5 19.9 266.4 20.1 268.4 20.2 270.4 20.6 272.3 20.1 274.3 18.6 276.2 19 278.2 19.3 280.2 18.9 282.1 18.7 284.1 18.7 286 19.2 288 18.8 290 19 291.9 19.3 293.9 19.9 295.8 19.7 297.8 19.6 299.8 20 301.7 19.9 303.7 20.1 305.6 18.8 307.6 19.2 309.6 18.7 311.5 17.8 313.5 16.5 315.4 16.4 317.4 16.4 319.3 16.9 321.3 17.2 323.3 17.1 325.2 16.6 327.2 17 329.1 16.7 331.1 17.2 333.1 17.2 335 17.2 337 17.3 338.9 16.7 340.9 16.5 342.9 17 344.8 16.9 346.8 16.8 348.7 17.1 350.7 17 352.7 17 354.6 17 356.6 16.8 358.5 16.7 360.5 16.7 362.4 17.1 364.4 17 366.4 17.2 368.3 17.4 370.3 17.5 372.2 17.4 374.2 17.8 376.2 18 378.1 17.9 380.1 18 382 17.6 384 17.9 386 18.1 387.9 18 389.9 18 391.8 17.9 393.8 17.9 395.8 17.7 397.7 17.7 399.7 17.7 401.6 18.2 403.6 18.4 405.6 18.6 407.5 18.7 409.5 18.8 411.4 18.9 413.4 18.7 415.3 18.4 417.3 18.8 419.3 18.7 421.2 18.6 423.2 18.7 425.1 18.8 427.1 18.7 429.1 18.7 431 18.9 433 18.7 434.9 18.1 436.9 18.1 438.9 18.1 440.8 18.4 442.8 18.5 444.7 18.4 446.7 18.4 448.7 18.2 450.6 18.2 452.6 18.1 454.5 18 456.5 18.4 458.4 18.4 460.4 18.4 462.4 18.6 464.3 18.6 466.3 18.8 468.2 18.9 470.2 18.8 472.2 18.7 474.1 18.8 476.1 18.4 478 18.5 480 18.6" transform="matrix(1,0,0,-1,62.8,442.5)" fill="#8392A5" fill-opacity="0.2" class="zr16-cls-57"></polygon>
</g>
<g clip-path="url(#zr16-c5)">
<polygon points="480 0 0 0 0 5.6 2 5.6 3.9 17.4 5.9 17.7 7.8 17.7 9.8 17.8 11.8 17.5 13.7 17.4 15.7 17.3 17.6 17.4 19.6 17.3 21.6 17.7 23.5 17.2 25.5 16.9 27.4 17.2 29.4 17.7 31.3 17.8 33.3 17.8 35.3 17.9 37.2 17.7 39.2 17.4 41.1 17.5 43.1 17 45.1 17.1 47 17.3 49 17.4 50.9 16.9 52.9 16.7 54.9 16.8 56.8 17 58.8 17.1 60.7 17.2 62.7 17.2 64.7 17.3 66.6 17.4 68.6 17.3 70.5 17.6 72.5 17.7 74.4 17.6 76.4 17.5 78.4 17.5 80.3 17.4 82.3 17.3 84.2 17.5 86.2 17.5 88.2 17.6 90.1 17.8 92.1 17.9 94 18.2 96 18.3 98 18.6 99.9 18.6 101.9 18.8 103.8 19 105.8 19 107.8 18.8 109.7 19 111.7 19.1 113.6 19.5 115.6 19.2 117.6 19.5 119.5 19.4 121.5 19.8 123.4 20 125.4 20.1 127.3 19.9 129.3 20.4 131.3 20.6 133.2 20.6 135.2 20.3 137.1 21 139.1 21.2 141.1 20.9 143 21.2 145 21.6 146.9 21.4 148.9 21.7 150.9 22 152.8 21.7 154.8 21.9 156.7 21.7 158.7 21.9 160.7 21.2 162.6 20.8 164.6 20.7 166.5 21 168.5 21.4 170.4 21.6 172.4 21.5 174.4 21.4 176.3 21.1 178.3 21.2 180.2 21.7 182.2 21.8 184.2 22.2 186.1 22.5 188.1 23.2 190 23.5 192 23.5 194 22.3 195.9 22.4 197.9 23.2 199.8 23.5 201.8 23.4 203.8 23.8 205.7 23.9 207.7 24.3 209.6 23.9 211.6 24.1 213.6 24.3 215.5 24.4 217.5 23.8 219.4 23.3 221.4 23.5 223.3 22.6 225.3 21.8 227.3 22.3 229.2 22.7 231.2 21.6 233.1 21.2 235.1 20.1 237.1 20.9 239 20.3 241 19.4 242.9 20 244.9 18.9 246.9 18.2 248.8 18.1 250.8 19.1 252.7 19.8 254.7 20 256.7 19.7 258.6 19.2 260.6 19.5 262.5 19.9 264.5 19.9 266.4 20.1 268.4 20.2 270.4 20.6 272.3 20.1 274.3 18.6 276.2 19 278.2 19.3 280.2 18.9 282.1 18.7 284.1 18.7 286 19.2 288 18.8 290 19 291.9 19.3 293.9 19.9 295.8 19.7 297.8 19.6 299.8 20 301.7 19.9 303.7 20.1 305.6 18.8 307.6 19.2 309.6 18.7 311.5 17.8 313.5 16.5 315.4 16.4 317.4 16.4 319.3 16.9 321.3 17.2 323.3 17.1 325.2 16.6 327.2 17 329.1 16.7 331.1 17.2 333.1 17.2 335 17.2 337 17.3 338.9 16.7 340.9 16.5 342.9 17 344.8 16.9 346.8 16.8 348.7 17.1 350.7 17 352.7 17 354.6 17 356.6 16.8 358.5 16.7 360.5 16.7 362.4 17.1 364.4 17 366.4 17.2 368.3 17.4 370.3 17.5 372.2 17.4 374.2 17.8 376.2 18 378.1 17.9 380.1 18 382 17.6 384 17.9 386 18.1 387.9 18 389.9 18 391.8 17.9 393.8 17.9 395.8 17.7 397.7 17.7 399.7 17.7 401.6 18.2 403.6 18.4 405.6 18.6 407.5 18.7 409.5 18.8 411.4 18.9 413.4 18.7 415.3 18.4 417.3 18.8 419.3 18.7 421.2 18.6 423.2 18.7 425.1 18.8 427.1 18.7 429.1 18.7 431 18.9 433 18.7 434.9 18.1 436.9 18.1 438.9 18.1 440.8 18.4 442.8 18.5 444.7 18.4 446.7 18.4 448.7 18.2 450.6 18.2 452.6 18.1 454.5 18 456.5 18.4 458.4 18.4 460.4 18.4 462.4 18.6 464.3 18.6 466.3 18.8 468.2 18.9 470.2 18.8 472.2 18.7 474.1 18.8 476.1 18.4 478 18.5 480 18.6" transform="matrix(1,0,0,-1,62.8,442.5)" fill="#8fb0f7" fill-opacity="0.2" class="zr16-cls-57"></polygon>
</g>
<g clip-path="url(#zr16-c6)">
<polygon points="480 0 0 0 0 5.6 2 5.6 3.9 17.4 5.9 17.7 7.8 17.7 9.8 17.8 11.8 17.5 13.7 17.4 15.7 17.3 17.6 17.4 19.6 17.3 21.6 17.7 23.5 17.2 25.5 16.9 27.4 17.2 29.4 17.7 31.3 17.8 33.3 17.8 35.3 17.9 37.2 17.7 39.2 17.4 41.1 17.5 43.1 17 45.1 17.1 47 17.3 49 17.4 50.9 16.9 52.9 16.7 54.9 16.8 56.8 17 58.8 17.1 60.7 17.2 62.7 17.2 64.7 17.3 66.6 17.4 68.6 17.3 70.5 17.6 72.5 17.7 74.4 17.6 76.4 17.5 78.4 17.5 80.3 17.4 82.3 17.3 84.2 17.5 86.2 17.5 88.2 17.6 90.1 17.8 92.1 17.9 94 18.2 96 18.3 98 18.6 99.9 18.6 101.9 18.8 103.8 19 105.8 19 107.8 18.8 109.7 19 111.7 19.1 113.6 19.5 115.6 19.2 117.6 19.5 119.5 19.4 121.5 19.8 123.4 20 125.4 20.1 127.3 19.9 129.3 20.4 131.3 20.6 133.2 20.6 135.2 20.3 137.1 21 139.1 21.2 141.1 20.9 143 21.2 145 21.6 146.9 21.4 148.9 21.7 150.9 22 152.8 21.7 154.8 21.9 156.7 21.7 158.7 21.9 160.7 21.2 162.6 20.8 164.6 20.7 166.5 21 168.5 21.4 170.4 21.6 172.4 21.5 174.4 21.4 176.3 21.1 178.3 21.2 180.2 21.7 182.2 21.8 184.2 22.2 186.1 22.5 188.1 23.2 190 23.5 192 23.5 194 22.3 195.9 22.4 197.9 23.2 199.8 23.5 201.8 23.4 203.8 23.8 205.7 23.9 207.7 24.3 209.6 23.9 211.6 24.1 213.6 24.3 215.5 24.4 217.5 23.8 219.4 23.3 221.4 23.5 223.3 22.6 225.3 21.8 227.3 22.3 229.2 22.7 231.2 21.6 233.1 21.2 235.1 20.1 237.1 20.9 239 20.3 241 19.4 242.9 20 244.9 18.9 246.9 18.2 248.8 18.1 250.8 19.1 252.7 19.8 254.7 20 256.7 19.7 258.6 19.2 260.6 19.5 262.5 19.9 264.5 19.9 266.4 20.1 268.4 20.2 270.4 20.6 272.3 20.1 274.3 18.6 276.2 19 278.2 19.3 280.2 18.9 282.1 18.7 284.1 18.7 286 19.2 288 18.8 290 19 291.9 19.3 293.9 19.9 295.8 19.7 297.8 19.6 299.8 20 301.7 19.9 303.7 20.1 305.6 18.8 307.6 19.2 309.6 18.7 311.5 17.8 313.5 16.5 315.4 16.4 317.4 16.4 319.3 16.9 321.3 17.2 323.3 17.1 325.2 16.6 327.2 17 329.1 16.7 331.1 17.2 333.1 17.2 335 17.2 337 17.3 338.9 16.7 340.9 16.5 342.9 17 344.8 16.9 346.8 16.8 348.7 17.1 350.7 17 352.7 17 354.6 17 356.6 16.8 358.5 16.7 360.5 16.7 362.4 17.1 364.4 17 366.4 17.2 368.3 17.4 370.3 17.5 372.2 17.4 374.2 17.8 376.2 18 378.1 17.9 380.1 18 382 17.6 384 17.9 386 18.1 387.9 18 389.9 18 391.8 17.9 393.8 17.9 395.8 17.7 397.7 17.7 399.7 17.7 401.6 18.2 403.6 18.4 405.6 18.6 407.5 18.7 409.5 18.8 411.4 18.9 413.4 18.7 415.3 18.4 417.3 18.8 419.3 18.7 421.2 18.6 423.2 18.7 425.1 18.8 427.1 18.7 429.1 18.7 431 18.9 433 18.7 434.9 18.1 436.9 18.1 438.9 18.1 440.8 18.4 442.8 18.5 444.7 18.4 446.7 18.4 448.7 18.2 450.6 18.2 452.6 18.1 454.5 18 456.5 18.4 458.4 18.4 460.4 18.4 462.4 18.6 464.3 18.6 466.3 18.8 468.2 18.9 470.2 18.8 472.2 18.7 474.1 18.8 476.1 18.4 478 18.5 480 18.6" transform="matrix(1,0,0,-1,62.8,442.5)" fill="#8392A5" fill-opacity="0.2" class="zr16-cls-57"></polygon>
</g>
<g clip-path="url(#zr16-c4)">
<polyline points="0 5.6 2 5.6 3.9 17.4 5.9 17.7 7.8 17.7 9.8 17.8 11.8 17.5 13.7 17.4 15.7 17.3 17.6 17.4 19.6 17.3 21.6 17.7 23.5 17.2 25.5 16.9 27.4 17.2 29.4 17.7 31.3 17.8 33.3 17.8 35.3 17.9 37.2 17.7 39.2 17.4 41.1 17.5 43.1 17 45.1 17.1 47 17.3 49 17.4 50.9 16.9 52.9 16.7 54.9 16.8 56.8 17 58.8 17.1 60.7 17.2 62.7 17.2 64.7 17.3 66.6 17.4 68.6 17.3 70.5 17.6 72.5 17.7 74.4 17.6 76.4 17.5 78.4 17.5 80.3 17.4 82.3 17.3 84.2 17.5 86.2 17.5 88.2 17.6 90.1 17.8 92.1 17.9 94 18.2 96 18.3 98 18.6 99.9 18.6 101.9 18.8 103.8 19 105.8 19 107.8 18.8 109.7 19 111.7 19.1 113.6 19.5 115.6 19.2 117.6 19.5 119.5 19.4 121.5 19.8 123.4 20 125.4 20.1 127.3 19.9 129.3 20.4 131.3 20.6 133.2 20.6 135.2 20.3 137.1 21 139.1 21.2 141.1 20.9 143 21.2 145 21.6 146.9 21.4 148.9 21.7 150.9 22 152.8 21.7 154.8 21.9 156.7 21.7 158.7 21.9 160.7 21.2 162.6 20.8 164.6 20.7 166.5 21 168.5 21.4 170.4 21.6 172.4 21.5 174.4 21.4 176.3 21.1 178.3 21.2 180.2 21.7 182.2 21.8 184.2 22.2 186.1 22.5 188.1 23.2 190 23.5 192 23.5 194 22.3 195.9 22.4 197.9 23.2 199.8 23.5 201.8 23.4 203.8 23.8 205.7 23.9 207.7 24.3 209.6 23.9 211.6 24.1 213.6 24.3 215.5 24.4 217.5 23.8 219.4 23.3 221.4 23.5 223.3 22.6 225.3 21.8 227.3 22.3 229.2 22.7 231.2 21.6 233.1 21.2 235.1 20.1 237.1 20.9 239 20.3 241 19.4 242.9 20 244.9 18.9 246.9 18.2 248.8 18.1 250.8 19.1 252.7 19.8 254.7 20 256.7 19.7 258.6 19.2 260.6 19.5 262.5 19.9 264.5 19.9 266.4 20.1 268.4 20.2 270.4 20.6 272.3 20.1 274.3 18.6 276.2 19 278.2 19.3 280.2 18.9 282.1 18.7 284.1 18.7 286 19.2 288 18.8 290 19 291.9 19.3 293.9 19.9 295.8 19.7 297.8 19.6 299.8 20 301.7 19.9 303.7 20.1 305.6 18.8 307.6 19.2 309.6 18.7 311.5 17.8 313.5 16.5 315.4 16.4 317.4 16.4 319.3 16.9 321.3 17.2 323.3 17.1 325.2 16.6 327.2 17 329.1 16.7 331.1 17.2 333.1 17.2 335 17.2 337 17.3 338.9 16.7 340.9 16.5 342.9 17 344.8 16.9 346.8 16.8 348.7 17.1 350.7 17 352.7 17 354.6 17 356.6 16.8 358.5 16.7 360.5 16.7 362.4 17.1 364.4 17 366.4 17.2 368.3 17.4 370.3 17.5 372.2 17.4 374.2 17.8 376.2 18 378.1 17.9 380.1 18 382 17.6 384 17.9 386 18.1 387.9 18 389.9 18 391.8 17.9 393.8 17.9 395.8 17.7 397.7 17.7 399.7 17.7 401.6 18.2 403.6 18.4 405.6 18.6 407.5 18.7 409.5 18.8 411.4 18.9 413.4 18.7 415.3 18.4 417.3 18.8 419.3 18.7 421.2 18.6 423.2 18.7 425.1 18.8 427.1 18.7 429.1 18.7 431 18.9 433 18.7 434.9 18.1 436.9 18.1 438.9 18.1 440.8 18.4 442.8 18.5 444.7 18.4 446.7 18.4 448.7 18.2 450.6 18.2 452.6 18.1 454.5 18 456.5 18.4 458.4 18.4 460.4 18.4 462.4 18.6 464.3 18.6 466.3 18.8 468.2 18.9 470.2 18.8 472.2 18.7 474.1 18.8 476.1 18.4 478 18.5 480 18.6" transform="matrix(1,0,0,-1,62.8,442.5)" fill="transparent" stroke="#8392A5" stroke-width="0.5" stroke-opacity="0.8" class="zr16-cls-57"></polyline>
</g>
<g clip-path="url(#zr16-c5)">
<polyline points="0 5.6 2 5.6 3.9 17.4 5.9 17.7 7.8 17.7 9.8 17.8 11.8 17.5 13.7 17.4 15.7 17.3 17.6 17.4 19.6 17.3 21.6 17.7 23.5 17.2 25.5 16.9 27.4 17.2 29.4 17.7 31.3 17.8 33.3 17.8 35.3 17.9 37.2 17.7 39.2 17.4 41.1 17.5 43.1 17 45.1 17.1 47 17.3 49 17.4 50.9 16.9 52.9 16.7 54.9 16.8 56.8 17 58.8 17.1 60.7 17.2 62.7 17.2 64.7 17.3 66.6 17.4 68.6 17.3 70.5 17.6 72.5 17.7 74.4 17.6 76.4 17.5 78.4 17.5 80.3 17.4 82.3 17.3 84.2 17.5 86.2 17.5 88.2 17.6 90.1 17.8 92.1 17.9 94 18.2 96 18.3 98 18.6 99.9 18.6 101.9 18.8 103.8 19 105.8 19 107.8 18.8 109.7 19 111.7 19.1 113.6 19.5 115.6 19.2 117.6 19.5 119.5 19.4 121.5 19.8 123.4 20 125.4 20.1 127.3 19.9 129.3 20.4 131.3 20.6 133.2 20.6 135.2 20.3 137.1 21 139.1 21.2 141.1 20.9 143 21.2 145 21.6 146.9 21.4 148.9 21.7 150.9 22 152.8 21.7 154.8 21.9 156.7 21.7 158.7 21.9 160.7 21.2 162.6 20.8 164.6 20.7 166.5 21 168.5 21.4 170.4 21.6 172.4 21.5 174.4 21.4 176.3 21.1 178.3 21.2 180.2 21.7 182.2 21.8 184.2 22.2 186.1 22.5 188.1 23.2 190 23.5 192 23.5 194 22.3 195.9 22.4 197.9 23.2 199.8 23.5 201.8 23.4 203.8 23.8 205.7 23.9 207.7 24.3 209.6 23.9 211.6 24.1 213.6 24.3 215.5 24.4 217.5 23.8 219.4 23.3 221.4 23.5 223.3 22.6 225.3 21.8 227.3 22.3 229.2 22.7 231.2 21.6 233.1 21.2 235.1 20.1 237.1 20.9 239 20.3 241 19.4 242.9 20 244.9 18.9 246.9 18.2 248.8 18.1 250.8 19.1 252.7 19.8 254.7 20 256.7 19.7 258.6 19.2 260.6 19.5 262.5 19.9 264.5 19.9 266.4 20.1 268.4 20.2 270.4 20.6 272.3 20.1 274.3 18.6 276.2 19 278.2 19.3 280.2 18.9 282.1 18.7 284.1 18.7 286 19.2 288 18.8 290 19 291.9 19.3 293.9 19.9 295.8 19.7 297.8 19.6 299.8 20 301.7 19.9 303.7 20.1 305.6 18.8 307.6 19.2 309.6 18.7 311.5 17.8 313.5 16.5 315.4 16.4 317.4 16.4 319.3 16.9 321.3 17.2 323.3 17.1 325.2 16.6 327.2 17 329.1 16.7 331.1 17.2 333.1 17.2 335 17.2 337 17.3 338.9 16.7 340.9 16.5 342.9 17 344.8 16.9 346.8 16.8 348.7 17.1 350.7 17 352.7 17 354.6 17 356.6 16.8 358.5 16.7 360.5 16.7 362.4 17.1 364.4 17 366.4 17.2 368.3 17.4 370.3 17.5 372.2 17.4 374.2 17.8 376.2 18 378.1 17.9 380.1 18 382 17.6 384 17.9 386 18.1 387.9 18 389.9 18 391.8 17.9 393.8 17.9 395.8 17.7 397.7 17.7 399.7 17.7 401.6 18.2 403.6 18.4 405.6 18.6 407.5 18.7 409.5 18.8 411.4 18.9 413.4 18.7 415.3 18.4 417.3 18.8 419.3 18.7 421.2 18.6 423.2 18.7 425.1 18.8 427.1 18.7 429.1 18.7 431 18.9 433 18.7 434.9 18.1 436.9 18.1 438.9 18.1 440.8 18.4 442.8 18.5 444.7 18.4 446.7 18.4 448.7 18.2 450.6 18.2 452.6 18.1 454.5 18 456.5 18.4 458.4 18.4 460.4 18.4 462.4 18.6 464.3 18.6 466.3 18.8 468.2 18.9 470.2 18.8 472.2 18.7 474.1 18.8 476.1 18.4 478 18.5 480 18.6" transform="matrix(1,0,0,-1,62.8,442.5)" fill="transparent" stroke="#8fb0f7" stroke-width="0.5" class="zr16-cls-57"></polyline>
</g>
<g clip-path="url(#zr16-c6)">
<polyline points="0 5.6 2 5.6 3.9 17.4 5.9 17.7 7.8 17.7 9.8 17.8 11.8 17.5 13.7 17.4 15.7 17.3 17.6 17.4 19.6 17.3 21.6 17.7 23.5 17.2 25.5 16.9 27.4 17.2 29.4 17.7 31.3 17.8 33.3 17.8 35.3 17.9 37.2 17.7 39.2 17.4 41.1 17.5 43.1 17 45.1 17.1 47 17.3 49 17.4 50.9 16.9 52.9 16.7 54.9 16.8 56.8 17 58.8 17.1 60.7 17.2 62.7 17.2 64.7 17.3 66.6 17.4 68.6 17.3 70.5 17.6 72.5 17.7 74.4 17.6 76.4 17.5 78.4 17.5 80.3 17.4 82.3 17.3 84.2 17.5 86.2 17.5 88.2 17.6 90.1 17.8 92.1 17.9 94 18.2 96 18.3 98 18.6 99.9 18.6 101.9 18.8 103.8 19 105.8 19 107.8 18.8 109.7 19 111.7 19.1 113.6 19.5 115.6 19.2 117.6 19.5 119.5 19.4 121.5 19.8 123.4 20 125.4 20.1 127.3 19.9 129.3 20.4 131.3 20.6 133.2 20.6 135.2 20.3 137.1 21 139.1 21.2 141.1 20.9 143 21.2 145 21.6 146.9 21.4 148.9 21.7 150.9 22 152.8 21.7 154.8 21.9 156.7 21.7 158.7 21.9 160.7 21.2 162.6 20.8 164.6 20.7 166.5 21 168.5 21.4 170.4 21.6 172.4 21.5 174.4 21.4 176.3 21.1 178.3 21.2 180.2 21.7 182.2 21.8 184.2 22.2 186.1 22.5 188.1 23.2 190 23.5 192 23.5 194 22.3 195.9 22.4 197.9 23.2 199.8 23.5 201.8 23.4 203.8 23.8 205.7 23.9 207.7 24.3 209.6 23.9 211.6 24.1 213.6 24.3 215.5 24.4 217.5 23.8 219.4 23.3 221.4 23.5 223.3 22.6 225.3 21.8 227.3 22.3 229.2 22.7 231.2 21.6 233.1 21.2 235.1 20.1 237.1 20.9 239 20.3 241 19.4 242.9 20 244.9 18.9 246.9 18.2 248.8 18.1 250.8 19.1 252.7 19.8 254.7 20 256.7 19.7 258.6 19.2 260.6 19.5 262.5 19.9 264.5 19.9 266.4 20.1 268.4 20.2 270.4 20.6 272.3 20.1 274.3 18.6 276.2 19 278.2 19.3 280.2 18.9 282.1 18.7 284.1 18.7 286 19.2 288 18.8 290 19 291.9 19.3 293.9 19.9 295.8 19.7 297.8 19.6 299.8 20 301.7 19.9 303.7 20.1 305.6 18.8 307.6 19.2 309.6 18.7 311.5 17.8 313.5 16.5 315.4 16.4 317.4 16.4 319.3 16.9 321.3 17.2 323.3 17.1 325.2 16.6 327.2 17 329.1 16.7 331.1 17.2 333.1 17.2 335 17.2 337 17.3 338.9 16.7 340.9 16.5 342.9 17 344.8 16.9 346.8 16.8 348.7 17.1 350.7 17 352.7 17 354.6 17 356.6 16.8 358.5 16.7 360.5 16.7 362.4 17.1 364.4 17 366.4 17.2 368.3 17.4 370.3 17.5 372.2 17.4 374.2 17.8 376.2 18 378.1 17.9 380.1 18 382 17.6 384 17.9 386 18.1 387.9 18 389.9 18 391.8 17.9 393.8 17.9 395.8 17.7 397.7 17.7 399.7 17.7 401.6 18.2 403.6 18.4 405.6 18.6 407.5 18.7 409.5 18.8 411.4 18.9 413.4 18.7 415.3 18.4 417.3 18.8 419.3 18.7 421.2 18.6 423.2 18.7 425.1 18.8 427.1 18.7 429.1 18.7 431 18.9 433 18.7 434.9 18.1 436.9 18.1 438.9 18.1 440.8 18.4 442.8 18.5 444.7 18.4 446.7 18.4 448.7 18.2 450.6 18.2 452.6 18.1 454.5 18 456.5 18.4 458.4 18.4 460.4 18.4 462.4 18.6 464.3 18.6 466.3 18.8 468.2 18.9 470.2 18.8 472.2 18.7 474.1 18.8 476.1 18.4 478 18.5 480 18.6" transform="matrix(1,0,0,-1,62.8,442.5)" fill="transparent" stroke="#8392A5" stroke-width="0.5" stroke-opacity="0.8" class="zr16-cls-57"></polyline>
</g>
<path d="M-5 -5l283 0l0 23.2l-283 0Z" transform="translate(163.48 5)" fill="rgb(0,0,0)" fill-opacity="0" stroke="#ccc" stroke-width="0" class="zr16-cls-57"></path>
<path d="M0 7L25 7" transform="translate(164.48 4.6)" fill="#000" stroke="#5470c6" stroke-width="2" stroke-linecap="butt" stroke-miterlimit="10" class="zr16-cls-57"></path>
<path d="M18.1 7A5.6 5.6 0 1 1 18.1 6.4A5.6 5.6 0 0 1 18.1 7" transform="translate(164.48 4.6)" fill="#fff" stroke="#5470c6" stroke-width="2" stroke-linecap="butt" stroke-miterlimit="10" class="zr16-cls-57"></path>
<text dominant-baseline="central" text-anchor="start" style="font-size:12px;font-family:sans-serif;" x="30" y="7" transform="translate(164.48 4.6)" fill="#333">MA5</text>
<path d="M-1 0.4l55.7 0l0 13.2l-55.7 0Z" transform="translate(164.48 4.6)" fill="transparent" ecmeta_series_index="1" ecmeta_data_index="1" ecmeta_ssr_type="legend" class="zr16-cls-62"></path>
<path d="M0 7L25 7" transform="translate(230.2 4.6)" fill="#000" stroke="#91cc75" stroke-width="2" stroke-linecap="butt" stroke-miterlimit="10" class="zr16-cls-57"></path>
<path d="M18.1 7A5.6 5.6 0 1 1 18.1 6.4A5.6 5.6 0 0 1 18.1 7" transform="translate(230.2 4.6)" fill="#fff" stroke="#91cc75" stroke-width="2" stroke-linecap="butt" stroke-miterlimit="10" class="zr16-cls-57"></path>
<text dominant-baseline="central" text-anchor="start" style="font-size:12px;font-family:sans-serif;" x="30" y="7" transform="translate(230.2 4.6)" fill="#333">MA10</text>
<path d="M-1 0.4l62.4 0l0 13.2l-62.4 0Z" transform="translate(230.2 4.6)" fill="transparent" ecmeta_series_index="2" ecmeta_data_index="2" ecmeta_ssr_type="legend" class="zr16-cls-62"></path>
<path d="M0 7L25 7" transform="translate(302.64 4.6)" fill="#000" stroke="#fac858" stroke-width="2" stroke-linecap="butt" stroke-miterlimit="10" class="zr16-cls-57"></path>
<path d="M18.1 7A5.6 5.6 0 1 1 18.1 6.4A5.6 5.6 0 0 1 18.1 7" transform="translate(302.64 4.6)" fill="#fff" stroke="#fac858" stroke-width="2" stroke-linecap="butt" stroke-miterlimit="10" class="zr16-cls-57"></path>
<text dominant-baseline="central" text-anchor="start" style="font-size:12px;font-family:sans-serif;" x="30" y="7" transform="translate(302.64 4.6)" fill="#333">MA20</text>
<path d="M-1 0.4l62.4 0l0 13.2l-62.4 0Z" transform="translate(302.64 4.6)" fill="transparent" ecmeta_series_index="3" ecmeta_data_index="3" ecmeta_ssr_type="legend" class="zr16-cls-62"></path>
<path d="M0 7L25 7" transform="translate(375.08 4.6)" fill="#000" stroke="#ee6666" stroke-width="2" stroke-linecap="butt" stroke-miterlimit="10" class="zr16-cls-57"></path>
<path d="M18.1 7A5.6 5.6 0 1 1 18.1 6.4A5.6 5.6 0 0 1 18.1 7" transform="translate(375.08 4.6)" fill="#fff" stroke="#ee6666" stroke-width="2" stroke-linecap="butt" stroke-miterlimit="10" class="zr16-cls-57"></path>
<text dominant-baseline="central" text-anchor="start" style="font-size:12px;font-family:sans-serif;" x="30" y="7" transform="translate(375.08 4.6)" fill="#333">MA30</text>
<path d="M-1 0.4l62.4 0l0 13.2l-62.4 0Z" transform="translate(375.08 4.6)" fill="transparent" ecmeta_series_index="4" ecmeta_data_index="4" ecmeta_ssr_type="legend" class="zr16-cls-62"></path>
<path d="M0 0l480 0l0 30l-480 0Z" transform="matrix(1,0,0,-1,62.8,442.5)" fill="transparent" class="zr16-cls-62"></path>
<path d="M0 0l480 0l0 30l-480 0Z" transform="matrix(1,0,0,-1,62.8,442.5)" fill="rgb(135,175,255)" fill-opacity="0.2" class="zr16-cls-57"></path>
<path d="M3.5 0.5L476.5 0.5A3 3 0 0 1 479.5 3.5L479.5 26.5A3 3 0 0 1 476.5 29.5L3.5 29.5A3 3 0 0 1 0.5 26.5L0.5 3.5A3 3 0 0 1 3.5 0.5" transform="matrix(1,0,0,-1,62.8,442.5)" fill="rgb(0,0,0)" fill-opacity="0" stroke="#d2dbee" class="zr16-cls-57"></path>
<path d="M0 29.5L480 29.5L480 34.5A2 2 0 0 1 478 36.5L2 36.5A2 2 0 0 1 0 34.5L0 29.5" transform="matrix(1,0,0,-1,62.8,442.5)" fill="#D2DBEE" fill-opacity="0.7" class="zr16-cls-57"></path>
<path d="M-2.2 -1.7C-1.9 -1.7 -1.7 -1.5 -1.7 -1.1L-1.7 1.1C-1.7 1.5 -1.9 1.7 -2.2 1.7C-2.6 1.7 -2.8 1.5 -2.8 1.1L-2.8 -1.1C-2.8 -1.5 -2.6 -1.7 -2.2 -1.7ZM0 -1.7C0.4 -1.7 0.6 -1.5 0.6 -1.1L0.6 1.1C0.6 1.5 0.4 1.7 0 1.7C-0.4 1.7 -0.6 1.5 -0.6 1.1L-0.6 -1.1C-0.6 -1.5 -0.4 -1.7 0 -1.7ZM2.2 -1.7C2.6 -1.7 2.8 -1.5 2.8 -1.1L2.8 1.1C2.8 1.5 2.6 1.7 2.2 1.7C1.9 1.7 1.7 1.5 1.7 1.1L1.7 -1.1C1.7 -1.5 1.9 -1.7 2.2 -1.7Z" transform="matrix(1,0,0,-1,302.8,409.5)" fill="#fff" class="zr16-cls-57"></path>
<path d="M0.07 0.12L0.07 0L-0.06 0L-0.06 0.12C-0.52 0.15 -0.88 0.53 -0.88 1C-0.88 1.47 -0.52 1.85 -0.06 1.88L-0.06 2L0.06 2L0.06 1.88C0.52 1.85 0.88 1.47 0.88 1C0.89 0.53 0.53 0.15 0.07 0.12ZM0.31 1.29L-0.3 1.29L-0.3 1.16L0.31 1.16L0.31 1.29ZM0.31 0.84L-0.3 0.84L-0.3 0.71L0.31 0.71L0.31 0.84Z" transform="matrix(15,0,0,-15,63.8,442.5)" fill="#fff" stroke="#ACB8D1" stroke-width="0.06666666666666667" class="zr16-cls-63"></path>
<path d="M0.07 0.12L0.07 0L-0.06 0L-0.06 0.12C-0.52 0.15 -0.88 0.53 -0.88 1C-0.88 1.47 -0.52 1.85 -0.06 1.88L-0.06 2L0.06 2L0.06 1.88C0.52 1.85 0.88 1.47 0.88 1C0.89 0.53 0.53 0.15 0.07 0.12ZM0.31 1.29L-0.3 1.29L-0.3 1.16L0.31 1.16L0.31 1.29ZM0.31 0.84L-0.3 0.84L-0.3 0.71L0.31 0.71L0.31 0.84Z" transform="matrix(15,0,0,-15,541.8,442.5)" fill="#fff" stroke="#ACB8D1" stroke-width="0.06666666666666667" class="zr16-cls-63"></path>
<defs >
<clipPath id="zr16-c0">
<path d="M59 59.5l482 0l0 311l-482 0Z" fill="#000" class="zr16-cls-60"></path>
</clipPath>
<clipPath id="zr16-c1">
<path d="M59 59.5l482 0l0 311l-482 0Z" fill="#000" class="zr16-cls-60"></path>
</clipPath>
<clipPath id="zr16-c2">
<path d="M59 59.5l482 0l0 311l-482 0Z" fill="#000" class="zr16-cls-60"></path>
</clipPath>
<clipPath id="zr16-c3">
<path d="M59 59.5l482 0l0 311l-482 0Z" fill="#000" class="zr16-cls-60"></path>
</clipPath>
<clipPath id="zr16-c4">
<path d="M0 0l0 0l0 30l0 0Z" transform="matrix(1,0,0,-1,62.8,442.5)" fill="#000" class="zr16-cls-60"></path>
</clipPath>
<clipPath id="zr16-c5">
<path d="M0 0l480 0l0 30l-480 0Z" transform="matrix(1,0,0,-1,62.8,442.5)" fill="#000" class="zr16-cls-60"></path>
</clipPath>
<clipPath id="zr16-c6">
<path d="M480 0l0 0l0 30l0 0Z" transform="matrix(1,0,0,-1,62.8,442.5)" fill="#000" class="zr16-cls-60"></path>
</clipPath>
</defs>
<style ><![CDATA[
.zr16-cls-57:hover {
pointer-events:none;
}
.zr16-cls-58:hover {
cursor:pointer;
fill:rgba(255,92,92,1);
stroke-width:2;
}
.zr16-cls-59:hover {
cursor:pointer;
fill:rgba(78,195,107,1);
stroke-width:2;
}
.zr16-cls-60:hover {
cursor:pointer;
fill:rgba(0,0,0,1);
}
.zr16-cls-61:hover {
cursor:pointer;
}
.zr16-cls-62:hover {
cursor:pointer;
fill:rgba(0,0,0,0);
}
.zr16-cls-63:hover {
cursor:pointer;
fill:rgba(255,255,255,1);
stroke:#8FB0F7;
}

]]>

</style>
</svg>