<svg width="650" height="400" xmlns="http://www.w3.org/2000/svg" xmlns:xlink="http://www.w3.org/1999/xlink" version="1.1" baseProfile="full" viewBox="0 0 650 400">
<rect width="650" height="400" x="0" y="0" fill="rgb(252,252,252)" fill-opacity="0"></rect>
<path d="M65 320.5L585 320.5" fill="transparent" stroke="#eeeeee" class="zr0-cls-0"></path>
<path d="M65 255.5L585 255.5" fill="transparent" stroke="#eeeeee" class="zr0-cls-0"></path>
<path d="M65 190.5L585 190.5" fill="transparent" stroke="#eeeeee" class="zr0-cls-0"></path>
<path d="M65 125.5L585 125.5" fill="transparent" stroke="#eeeeee" class="zr0-cls-0"></path>
<path d="M65 60.5L585 60.5" fill="transparent" stroke="#eeeeee" class="zr0-cls-0"></path>
<path d="M65 60.5L585 60.5" fill="transparent" stroke="#eeeeee" class="zr0-cls-0"></path>
<path d="M65 125.5L585 125.5" fill="transparent" stroke="#eeeeee" class="zr0-cls-0"></path>
<path d="M65 190.5L585 190.5" fill="transparent" stroke="#eeeeee" class="zr0-cls-0"></path>
<path d="M65 255.5L585 255.5" fill="transparent" stroke="#eeeeee" class="zr0-cls-0"></path>
<path d="M65 320.5L585 320.5" fill="transparent" stroke="#eeeeee" class="zr0-cls-0"></path>
<path d="M127.5 60L127.5 320" fill="transparent" stroke="#eeeeee" class="zr0-cls-0"></path>
<path d="M197.5 60L197.5 320" fill="transparent" stroke="#eeeeee" class="zr0-cls-0"></path>
<path d="M268.5 60L268.5 320" fill="transparent" stroke="#eeeeee" class="zr0-cls-0"></path>
<path d="M338.5 60L338.5 320" fill="transparent" stroke="#eeeeee" class="zr0-cls-0"></path>
<path d="M408.5 60L408.5 320" fill="transparent" stroke="#eeeeee" class="zr0-cls-0"></path>
<path d="M478.5 60L478.5 320" fill="transparent" stroke="#eeeeee" class="zr0-cls-0"></path>
<path d="M548.5 60L548.5 320" fill="transparent" stroke="#eeeeee" class="zr0-cls-0"></path>
<path d="M65.5 320L65.5 60" fill="transparent" stroke="#cccccc" stroke-linecap="round" class="zr0-cls-0"></path>
<text dominant-baseline="central" text-anchor="middle" style="font-size:12px;font-family:sans-serif;" y="-6" transform="translate(65 45)" fill="#cccccc">Flow(m³/s)</text>
<path d="M585.5 60L585.5 320" fill="transparent" stroke="#cccccc" stroke-linecap="round" class="zr0-cls-0"></path>
<text dominant-baseline="central" text-anchor="middle" style="font-size:12px;font-family:sans-serif;" y="-6" transform="translate(585 45)" fill="#cccccc">Rainfall(mm)</text>
<path d="M65 320.5L585 320.5" fill="transparent" stroke="#cccccc" stroke-linecap="round" class="zr0-cls-0"></path>
<text dominant-baseline="central" text-anchor="end" style="font-size:12px;font-family:sans-serif;" transform="translate(57 320)" fill="#999999">0</text>
<text dominant-baseline="central" text-anchor="end" style="font-size:12px;font-family:sans-serif;" transform="translate(57 255)" fill="#999999">100</text>
<text dominant-baseline="central" text-anchor="end" style="font-size:12px;font-family:sans-serif;" transform="translate(57 190)" fill="#999999">200</text>
<text dominant-baseline="central" text-anchor="end" style="font-size:12px;font-family:sans-serif;" transform="translate(57 125)" fill="#999999">300</text>
<text dominant-baseline="central" text-anchor="end" style="font-size:12px;font-family:sans-serif;" transform="translate(57 60)" fill="#999999">400</text>
<text dominant-baseline="central" text-anchor="start" style="font-size:12px;font-family:sans-serif;" transform="translate(593 60)" fill="#999999">0</text>
<text dominant-baseline="central" text-anchor="start" style="font-size:12px;font-family:sans-serif;" transform="translate(593 125)" fill="#999999">1</text>
<text dominant-baseline="central" text-anchor="start" style="font-size:12px;font-family:sans-serif;" transform="translate(593 190)" fill="#999999">2</text>
<text dominant-baseline="central" text-anchor="start" style="font-size:12px;font-family:sans-serif;" transform="translate(593 255)" fill="#999999">3</text>
<text dominant-baseline="central" text-anchor="start" style="font-size:12px;font-family:sans-serif;" transform="translate(593 320)" fill="#999999">4</text>
<text dominant-baseline="central" text-anchor="middle" style="font-size:12px;font-family:sans-serif;" y="6" transform="translate(127.5691 328)" fill="#999999">2009/9/6</text>
<text dominant-baseline="central" text-anchor="middle" style="font-size:12px;font-family:sans-serif;" y="18" transform="translate(127.5691 328)" fill="#999999">13:00</text>
<text dominant-baseline="central" text-anchor="middle" style="font-size:12px;font-family:sans-serif;" y="6" transform="translate(197.748 328)" fill="#999999">2009/9/10</text>
<text dominant-baseline="central" text-anchor="middle" style="font-size:12px;font-family:sans-serif;" y="18" transform="translate(197.748 328)" fill="#999999">0:00</text>
<text dominant-baseline="central" text-anchor="middle" style="font-size:12px;font-family:sans-serif;" y="6" transform="translate(267.9268 328)" fill="#999999">2009/9/13</text>
<text dominant-baseline="central" text-anchor="middle" style="font-size:12px;font-family:sans-serif;" y="18" transform="translate(267.9268 328)" fill="#999999">11:00</text>
<text dominant-baseline="central" text-anchor="middle" style="font-size:12px;font-family:sans-serif;" y="6" transform="translate(338.1057 328)" fill="#999999">2009/9/16</text>
<text dominant-baseline="central" text-anchor="middle" style="font-size:12px;font-family:sans-serif;" y="18" transform="translate(338.1057 328)" fill="#999999">22:00</text>
<text dominant-baseline="central" text-anchor="middle" style="font-size:12px;font-family:sans-serif;" y="6" transform="translate(408.2846 328)" fill="#999999">2009/9/20</text>
<text dominant-baseline="central" text-anchor="middle" style="font-size:12px;font-family:sans-serif;" y="18" transform="translate(408.2846 328)" fill="#999999">9:00</text>
<text dominant-baseline="central" text-anchor="middle" style="font-size:12px;font-family:sans-serif;" y="6" transform="translate(478.4634 328)" fill="#999999">2009/9/23</text>
<text dominant-baseline="central" text-anchor="middle" style="font-size:12px;font-family:sans-serif;" y="18" transform="translate(478.4634 328)" fill="#999999">20:00</text>
<text dominant-baseline="central" text-anchor="middle" style="font-size:12px;font-family:sans-serif;" y="6" transform="translate(548.6423 328)" fill="#999999">2009/9/27</text>
<text dominant-baseline="central" text-anchor="middle" style="font-size:12px;font-family:sans-serif;" y="18" transform="translate(548.6423 328)" fill="#999999">7:00</text>
<polygon points="244.3 320 447.2 320 447.2 60 244.3 60" fill="rgb(63,177,227)" fill-opacity="0.12" stroke="#3fb1e3" stroke-width="0" stroke-opacity="0.3" ecmeta_series_index="0" ecmeta_data_index="0" ecmeta_ssr_type="chart" ecmeta_silent="true" class="zr0-cls-0"></polygon>
<polygon points="244.3 60 447.2 60 447.2 320 244.3 320" fill="rgb(107,230,193)" fill-opacity="0.12" stroke="#6be6c1" stroke-width="0" stroke-opacity="0.3" ecmeta_series_index="1" ecmeta_data_index="0" ecmeta_ssr_type="chart" ecmeta_silent="true" class="zr0-cls-0"></polygon>
<g clip-path="url(#zr0-c0)">
<path d="M65 316.8L65.8 316.9L66.7 316.9L67.5 317L68.4 317.1L69.2 317.1L70.1 317.2L70.9 317.3L71.8 317.3L72.6 317.4L73.5 317.4L74.3 317.5L75.1 317.6L76 317.7L76.8 317.8L77.7 317.8L78.5 317.9L79.4 318L80.2 318L81.1 318.1L81.9 318.1L82.8 318.1L83.6 318.1L84.4 318.1L85.3 318.1L86.1 318.1L87 318.1L87.8 318.1L88.7 318.1L89.5 318.1L90.4 318.1L91.2 318.1L92.1 318.1L92.9 318.1L93.7 318.1L94.6 318.1L95.4 318.2L96.3 318.2L97.1 318.3L98 318.4L98.8 318.4L99.7 318.5L100.5 318.5L101.4 318.6L102.2 318.6L103 318.6L103.9 318.6L104.7 318.6L105.6 318.6L106.4 318.6L107.3 318.6L108.1 318.6L109 318.6L109.8 318.6L110.7 318.6L111.5 318.6L112.3 318.6L113.2 318.6L114 318.6L114.9 318.7L115.7 318.7L116.6 318.8L117.4 318.8L118.3 318.9L119.1 319L120 319L120.8 319.1L121.7 319.1L122.5 319.2L123.3 319.2L124.2 319.2L125 319.3L125.9 319.3L126.7 319.3L127.6 319.3L128.4 319.4L129.3 319.4L130.1 319.4L131 319.4L131.8 319.4L132.6 319.4L133.5 319.5L134.3 319.5L135.2 319.5L136 319.5L136.9 319.5L137.7 319.6L138.6 319.6L139.4 319.6L140.3 319.6L141.1 319.6L141.9 319.6L142.8 319.6L143.6 319.6L144.5 319.6L145.3 319.7L146.2 319.7L147 319.7L147.9 319.7L148.7 319.7L149.6 319.7L150.4 319.7L151.2 319.7L152.1 319.7L152.9 319.7L153.8 319.7L154.6 319.7L155.5 319.7L156.3 319.7L157.2 319.7L158 319.6L158.9 319.6L159.7 319.6L160.5 319.6L161.4 319.6L162.2 319.6L163.1 319.5L163.9 319.5L164.8 319.5L165.6 319.5L166.5 319.5L167.3 319.5L168.2 319.5L169 319.5L169.8 319.6L170.7 319.6L171.5 319.6L172.4 319.6L173.2 319.6L174.1 319.6L174.9 319.6L175.8 319.6L176.6 319.6L177.5 319.6L178.3 319.6L179.1 319.6L180 319.6L180.8 319.6L181.7 319.6L182.5 319.6L183.4 319.6L184.2 319.6L185.1 319.6L185.9 319.6L186.8 319.6L187.6 319.6L188.4 319.6L189.3 319.6L190.1 319.6L191 319.6L191.8 319.6L192.7 319.6L193.5 319.6L194.4 319.6L195.2 319.6L196.1 319.6L196.9 319.6L197.7 319.6L198.6 319.6L199.4 319.6L200.3 319.6L201.1 319.6L202 319.6L202.8 319.6L203.7 319.6L204.5 319.6L205.4 319.6L206.2 319.6L207 319.6L207.9 319.6L208.7 319.6L209.6 319.6L210.4 319.6L211.3 319.6L212.1 319.6L213 319.6L213.8 319.6L214.7 319.6L215.5 319.6L216.3 319.6L217.2 319.6L218 319.6L218.9 319.6L219.7 319.6L220.6 319.6L221.4 319.6L222.3 319.6L223.1 319.6L224 319.6L224.8 319.6L225.7 319.6L226.5 319.5L227.3 319.5L228.2 319.5L229 319.5L229.9 319.5L230.7 319.5L231.6 319.5L232.4 319.5L233.3 319.5L234.1 319.5L235 319.4L235.8 319.4L236.6 319.4L237.5 319.4L238.3 319.4L239.2 319.4L240 319.4L240.9 319.3L241.7 319.3L242.6 319.3L243.4 319.3L244.3 319.3L245.1 319.2L245.9 319.1L246.8 318.9L247.6 318.6L248.5 318.1L249.3 317.4L250.2 316.7L251 315.8L251.9 314.7L252.7 313.6L253.6 312.3L254.4 310.8L255.2 309.2L256.1 305.5L256.9 305.2L257.8 304.1L258.6 300.3L259.5 296.8L260.3 292.4L261.2 282.9L262 258.9L262.9 246.6L263.7 239.8L264.5 235.2L265.4 235.5L266.2 242.4L267.1 241.5L267.9 244.1L268.8 243.2L269.6 242.4L270.5 238.9L271.3 226.7L272.2 187.4L273 128.9L273.8 112.5L274.7 106.5L275.5 82.8L276.4 92L277.2 94.1L278.1 94.1L278.9 108.8L279.8 104.5L280.6 112.5L281.5 119.8L282.3 119.8L283.1 119.8L284 119.8L284.8 127.1L285.7 125L286.5 137.4L287.4 139L288.2 144.1L289.1 143.9L289.9 155.2L290.8 168.2L291.6 177.5L292.4 184.9L293.3 186.2L294.1 187.4L295 196.8L295.8 203.8L296.7 207.3L297.5 216L298.4 219.6L299.2 225.1L300.1 225.8L300.9 228.7L301.7 235.2L302.6 238L303.4 244.1L304.3 246.6L305.1 250.8L306 254L306.8 256L307.7 266.3L308.5 276.3L309.4 268L310.2 270.5L311 273L311.9 273.8L312.7 274.6L313.6 276.3L314.4 276.3L315.3 275.4L316.1 282.6L317 273.8L317.8 277.1L318.7 281.6L319.5 282.9L320.3 284.1L321.2 284.1L322 286.1L322.9 286.1L323.7 286.7L324.6 288.4L325.4 291.3L326.3 292L327.1 290.2L328 287.9L328.8 291.3L329.7 296.3L330.5 296.8L331.3 297.3L332.2 299L333 295.8L333.9 299L334.7 299L335.6 299L336.4 298.1L337.3 299L338.1 299.4L339 296.8L339.8 300.7L340.6 299L341.5 300.3L342.3 300.7L343.2 301.5L344 301.5L344.9 301.5L345.7 302.3L346.6 303.4L347.4 303.7L348.3 304.5L349.1 305.5L349.9 305.8L350.8 305.8L351.6 305.8L352.5 305.2L353.3 305.8L354.2 303.4L355 305.2L355.9 305.2L356.7 308.4L357.6 309.6L358.4 309.6L359.2 309.6L360.1 309.6L360.9 309.6L361.8 309.6L362.6 309.6L363.5 309.6L364.3 309.6L365.2 309.6L366 310.2L366.9 310.9L367.7 310.9L368.5 310.8L369.4 310.7L370.2 310.6L371.1 310.4L371.9 310.2L372.8 310L373.6 309.6L374.5 309.3L375.3 308.9L376.2 308.4L377 307.9L377.8 307.3L378.7 306.6L379.5 305.9L380.4 305.1L381.2 304.3L382.1 303.4L382.9 302.4L383.8 301.3L384.6 300.2L385.5 299L386.3 297.7L387.1 296.3L388 294.9L388.8 293.3L389.7 291.7L390.5 290L391.4 288.1L392.2 286.2L393.1 284.2L393.9 282.1L394.8 279.9L395.6 277.6L396.4 275.2L397.3 272.7L398.1 262.7L399 251.8L399.8 251.3L400.7 248.3L401.5 247.5L402.4 248.3L403.2 250.8L404.1 251.3L404.9 252.9L405.7 255L406.6 256.9L407.4 255.8L408.3 260.8L409.1 265.4L410 262.7L410.8 267.1L411.7 268.8L412.5 269.7L413.4 269.7L414.2 272.2L415 271.4L415.9 272.8L416.7 275.4L417.6 276.8L418.4 275.4L419.3 274.6L420.1 276.3L421 277.9L421.8 280.3L422.7 281.6L423.5 283.5L424.3 285.4L425.2 287.3L426 287.9L426.9 291.3L427.7 296.3L428.6 292.4L429.4 295.3L430.3 295.8L431.1 298.1L432 296.3L432.8 296.8L433.7 297.3L434.5 297.3L435.3 295.8L436.2 295.8L437 294.4L437.9 298.8L438.7 297.5L439.6 296.3L440.4 296.8L441.3 297.7L442.1 298.1L443 298.5L443.8 299.8L444.6 300.7L445.5 300.7L446.3 300.7L447.2 303L448 303.4L448.9 300.7L449.7 308.1L450.6 305.5L451.4 306.2L452.3 305.8L453.1 305.8L453.9 306.8L454.8 306.5L455.6 303.7L456.5 303.7L457.3 303.4L458.2 303.4L459 303.7L459.9 303.4L460.7 303.7L461.6 303.4L462.4 304.5L463.2 303.7L464.1 306.2L464.9 305.8L465.8 305.5L466.6 305.8L467.5 306.5L468.3 309.5L469.2 306.8L470 308.1L470.9 311.4L471.7 307.5L472.5 307.5L473.4 308.1L474.2 310.6L475.1 311L475.9 311.3L476.8 311.6L477.6 311.9L478.5 312.1L479.3 312.4L480.2 312.6L481 312.8L481.8 312.9L482.7 313.1L483.5 313.2L484.4 313.3L485.2 313.4L486.1 313.5L486.9 313.5L487.8 313.6L488.6 313.6L489.5 313.7L490.3 313.7L491.1 313.7L492 313.7L492.8 313.7L493.7 312.1L494.5 314.4L495.4 312.4L496.2 312.6L497.1 313.1L497.9 313.6L498.8 313.9L499.6 314.1L500.4 314.2L501.3 314.4L502.1 314.5L503 314.6L503.8 314.7L504.7 314.7L505.5 314.8L506.4 314.9L507.2 315L508.1 315.1L508.9 315.1L509.7 315.2L510.6 315.4L511.4 315.5L512.3 315.6L513.1 315.7L514 315.8L514.8 316L515.7 316.1L516.5 316.2L517.4 316.4L518.2 316.5L519 316.6L519.9 316.7L520.7 316.9L521.6 317L522.4 317.1L523.3 317.2L524.1 317.2L525 317.3L525.8 317.4L526.7 317.4L527.5 317.5L528.3 317.5L529.2 317.5L530 317.1L530.9 316.2L531.7 315.2L532.6 314.3L533.4 313.9L534.3 314L535.1 314.1L536 314.2L536.8 314.2L537.7 314.3L538.5 314.3L539.3 314.3L540.2 314.4L541 314.4L541.9 314.4L542.7 314.4L543.6 314.5L544.4 314.5L545.3 314.5L546.1 314.5L547 314.5L547.8 314.5L548.6 314.5L549.5 314.6L550.3 314.6L551.2 314.6L552 314.6L552.9 314.6L553.7 314.6L554.6 314.4L555.4 313.7L556.3 313.7L557.1 313.8L557.9 313.9L558.8 314L559.6 314.2L560.5 314.3L561.3 314.5L562.2 314.8L563 315L563.9 315.3L564.7 315.5L565.6 315.8L566.4 316.1L567.2 316.4L568.1 316.7L568.9 316.9L569.8 317.2L570.6 317.5L571.5 317.8L572.3 318L573.2 318.3L574 318.5L574.9 318.7L575.7 318.9L576.5 319.1L577.4 319.2L578.2 319.3L579.1 319.4L579.9 319.4L580.8 319.4L581.6 319.4L582.5 319.4L583.3 319.4L584.2 319.4L585 319.5L585 320L584.2 320L583.3 320L582.5 320L581.6 320L580.8 320L579.9 320L579.1 320L578.2 320L577.4 320L576.5 320L575.7 320L574.9 320L574 320L573.2 320L572.3 320L571.5 320L570.6 320L569.8 320L568.9 320L568.1 320L567.2 320L566.4 320L565.6 320L564.7 320L563.9 320L563 320L562.2 320L561.3 320L560.5 320L559.6 320L558.8 320L557.9 320L557.1 320L556.3 320L555.4 320L554.6 320L553.7 320L552.9 320L552 320L551.2 320L550.3 320L549.5 320L548.6 320L547.8 320L547 320L546.1 320L545.3 320L544.4 320L543.6 320L542.7 320L541.9 320L541 320L540.2 320L539.3 320L538.5 320L537.7 320L536.8 320L536 320L535.1 320L534.3 320L533.4 320L532.6 320L531.7 320L530.9 320L530 320L529.2 320L528.3 320L527.5 320L526.7 320L525.8 320L525 320L524.1 320L523.3 320L522.4 320L521.6 320L520.7 320L519.9 320L519 320L518.2 320L517.4 320L516.5 320L515.7 320L514.8 320L514 320L513.1 320L512.3 320L511.4 320L510.6 320L509.7 320L508.9 320L508.1 320L507.2 320L506.4 320L505.5 320L504.7 320L503.8 320L503 320L502.1 320L501.3 320L500.4 320L499.6 320L498.8 320L497.9 320L497.1 320L496.2 320L495.4 320L494.5 320L493.7 320L492.8 320L492 320L491.1 320L490.3 320L489.5 320L488.6 320L487.8 320L486.9 320L486.1 320L485.2 320L484.4 320L483.5 320L482.7 320L481.8 320L481 320L480.2 320L479.3 320L478.5 320L477.6 320L476.8 320L475.9 320L475.1 320L474.2 320L473.4 320L472.5 320L471.7 320L470.9 320L470 320L469.2 320L468.3 320L467.5 320L466.6 320L465.8 320L464.9 320L464.1 320L463.2 320L462.4 320L461.6 320L460.7 320L459.9 320L459 320L458.2 320L457.3 320L456.5 320L455.6 320L454.8 320L453.9 320L453.1 320L452.3 320L451.4 320L450.6 320L449.7 320L448.9 320L448 320L447.2 320L446.3 320L445.5 320L444.6 320L443.8 320L443 320L442.1 320L441.3 320L440.4 320L439.6 320L438.7 320L437.9 320L437 320L436.2 320L435.3 320L434.5 320L433.7 320L432.8 320L432 320L431.1 320L430.3 320L429.4 320L428.6 320L427.7 320L426.9 320L426 320L425.2 320L424.3 320L423.5 320L422.7 320L421.8 320L421 320L420.1 320L419.3 320L418.4 320L417.6 320L416.7 320L415.9 320L415 320L414.2 320L413.4 320L412.5 320L411.7 320L410.8 320L410 320L409.1 320L408.3 320L407.4 320L406.6 320L405.7 320L404.9 320L404.1 320L403.2 320L402.4 320L401.5 320L400.7 320L399.8 320L399 320L398.1 320L397.3 320L396.4 320L395.6 320L394.8 320L393.9 320L393.1 320L392.2 320L391.4 320L390.5 320L389.7 320L388.8 320L388 320L387.1 320L386.3 320L385.5 320L384.6 320L383.8 320L382.9 320L382.1 320L381.2 320L380.4 320L379.5 320L378.7 320L377.8 320L377 320L376.2 320L375.3 320L374.5 320L373.6 320L372.8 320L371.9 320L371.1 320L370.2 320L369.4 320L368.5 320L367.7 320L366.9 320L366 320L365.2 320L364.3 320L363.5 320L362.6 320L361.8 320L360.9 320L360.1 320L359.2 320L358.4 320L357.6 320L356.7 320L355.9 320L355 320L354.2 320L353.3 320L352.5 320L351.6 320L350.8 320L349.9 320L349.1 320L348.3 320L347.4 320L346.6 320L345.7 320L344.9 320L344 320L343.2 320L342.3 320L341.5 320L340.6 320L339.8 320L339 320L338.1 320L337.3 320L336.4 320L335.6 320L334.7 320L333.9 320L333 320L332.2 320L331.3 320L330.5 320L329.7 320L328.8 320L328 320L327.1 320L326.3 320L325.4 320L324.6 320L323.7 320L322.9 320L322 320L321.2 320L320.3 320L319.5 320L318.7 320L317.8 320L317 320L316.1 320L315.3 320L314.4 320L313.6 320L312.7 320L311.9 320L311 320L310.2 320L309.4 320L308.5 320L307.7 320L306.8 320L306 320L305.1 320L304.3 320L303.4 320L302.6 320L301.7 320L300.9 320L300.1 320L299.2 320L298.4 320L297.5 320L296.7 320L295.8 320L295 320L294.1 320L293.3 320L292.4 320L291.6 320L290.8 320L289.9 320L289.1 320L288.2 320L287.4 320L286.5 320L285.7 320L284.8 320L284 320L283.1 320L282.3 320L281.5 320L280.6 320L279.8 320L278.9 320L278.1 320L277.2 320L276.4 320L275.5 320L274.7 320L273.8 320L273 320L272.2 320L271.3 320L270.5 320L269.6 320L268.8 320L267.9 320L267.1 320L266.2 320L265.4 320L264.5 320L263.7 320L262.9 320L262 320L261.2 320L260.3 320L259.5 320L258.6 320L257.8 320L256.9 320L256.1 320L255.2 320L254.4 320L253.6 320L252.7 320L251.9 320L251 320L250.2 320L249.3 320L248.5 320L247.6 320L246.8 320L245.9 320L245.1 320L244.3 320L243.4 320L242.6 320L241.7 320L240.9 320L240 320L239.2 320L238.3 320L237.5 320L236.6 320L235.8 320L235 320L234.1 320L233.3 320L232.4 320L231.6 320L230.7 320L229.9 320L229 320L228.2 320L227.3 320L226.5 320L225.7 320L224.8 320L224 320L223.1 320L222.3 320L221.4 320L220.6 320L219.7 320L218.9 320L218 320L217.2 320L216.3 320L215.5 320L214.7 320L213.8 320L213 320L212.1 320L211.3 320L210.4 320L209.6 320L208.7 320L207.9 320L207 320L206.2 320L205.4 320L204.5 320L203.7 320L202.8 320L202 320L201.1 320L200.3 320L199.4 320L198.6 320L197.7 320L196.9 320L196.1 320L195.2 320L194.4 320L193.5 320L192.7 320L191.8 320L191 320L190.1 320L189.3 320L188.4 320L187.6 320L186.8 320L185.9 320L185.1 320L184.2 320L183.4 320L182.5 320L181.7 320L180.8 320L180 320L179.1 320L178.3 320L177.5 320L176.6 320L175.8 320L174.9 320L174.1 320L173.2 320L172.4 320L171.5 320L170.7 320L169.8 320L169 320L168.2 320L167.3 320L166.5 320L165.6 320L164.8 320L163.9 320L163.1 320L162.2 320L161.4 320L160.5 320L159.7 320L158.9 320L158 320L157.2 320L156.3 320L155.5 320L154.6 320L153.8 320L152.9 320L152.1 320L151.2 320L150.4 320L149.6 320L148.7 320L147.9 320L147 320L146.2 320L145.3 320L144.5 320L143.6 320L142.8 320L141.9 320L141.1 320L140.3 320L139.4 320L138.6 320L137.7 320L136.9 320L136 320L135.2 320L134.3 320L133.5 320L132.6 320L131.8 320L131 320L130.1 320L129.3 320L128.4 320L127.6 320L126.7 320L125.9 320L125 320L124.2 320L123.3 320L122.5 320L121.7 320L120.8 320L120 320L119.1 320L118.3 320L117.4 320L116.6 320L115.7 320L114.9 320L114 320L113.2 320L112.3 320L111.5 320L110.7 320L109.8 320L109 320L108.1 320L107.3 320L106.4 320L105.6 320L104.7 320L103.9 320L103 320L102.2 320L101.4 320L100.5 320L99.7 320L98.8 320L98 320L97.1 320L96.3 320L95.4 320L94.6 320L93.7 320L92.9 320L92.1 320L91.2 320L90.4 320L89.5 320L88.7 320L87.8 320L87 320L86.1 320L85.3 320L84.4 320L83.6 320L82.8 320L81.9 320L81.1 320L80.2 320L79.4 320L78.5 320L77.7 320L76.8 320L76 320L75.1 320L74.3 320L73.5 320L72.6 320L71.8 320L70.9 320L70.1 320L69.2 320L68.4 320L67.5 320L66.7 320L65.8 320L65 320Z" fill="#3fb1e3" fill-opacity="0.7" class="zr0-cls-2"></path>
</g>
<g clip-path="url(#zr0-c1)">
<path d="M65 60L65.8 60L66.7 60L67.5 60L68.4 60L69.2 60L70.1 60L70.9 60L71.8 60L72.6 60L73.5 60L74.3 60L75.1 60L76 60L76.8 60L77.7 60.7L78.5 61.1L79.4 61.6L80.2 61.7L81.1 64L81.9 71.2L82.8 73.4L83.6 73.8L84.4 77.4L85.3 93.2L86.1 103.4L87 70.2L87.8 61.1L88.7 61.1L89.5 61.1L90.4 63L91.2 63.5L92.1 60L92.9 60L93.7 60L94.6 60L95.4 60L96.3 60L97.1 60L98 60L98.8 60L99.7 60L100.5 60L101.4 60L102.2 60L103 60L103.9 60L104.7 60.1L105.6 61.1L106.4 61.1L107.3 61.1L108.1 61.1L109 61L109.8 60L110.7 60L111.5 60L112.3 60L113.2 60L114 60L114.9 60L115.7 60L116.6 60L117.4 60.7L118.3 61.1L119.1 61.1L120 61.1L120.8 61.1L121.7 60.8L122.5 61.1L123.3 61.1L124.2 61.1L125 61.1L125.9 60.8L126.7 60L127.6 60L128.4 60L129.3 60L130.1 60L131 60.2L131.8 62L132.6 64.3L133.5 66L134.3 67.3L135.2 67.9L136 73.1L136.9 64.4L137.7 62.7L138.6 61.4L139.4 60.7L140.3 60L141.1 60L141.9 60L142.8 60L143.6 60L144.5 60L145.3 60L146.2 60L147 60L147.9 60L148.7 60L149.6 60.1L150.4 60.3L151.2 60.8L152.1 61.4L152.9 61.4L153.8 61.2L154.6 62.1L155.5 62L156.3 61.7L157.2 61.7L158 62.2L158.9 66.2L159.7 61.6L160.5 61.6L161.4 61.6L162.2 61.5L163.1 61.2L163.9 61.2L164.8 61.2L165.6 61.2L166.5 60.7L167.3 62L168.2 62.9L169 62.9L169.8 62.9L170.7 62.9L171.5 61.4L172.4 60.6L173.2 61.6L174.1 62.1L174.9 62.1L175.8 62.1L176.6 61.6L177.5 60.6L178.3 60L179.1 60L180 60L180.8 60L181.7 60L182.5 60L183.4 60.2L184.2 61.1L185.1 61.1L185.9 61.1L186.8 61.1L187.6 60.9L188.4 60L189.3 60L190.1 60L191 60L191.8 60L192.7 62.1L193.5 62.1L194.4 62.1L195.2 62.1L196.1 62.1L196.9 60.3L197.7 60.5L198.6 60.6L199.4 60.9L200.3 60.9L201.1 60.6L202 60.3L202.8 60.3L203.7 60L204.5 60L205.4 60L206.2 60L207 60L207.9 60L208.7 60L209.6 60L210.4 60L211.3 60L212.1 60L213 60L213.8 60L214.7 60L215.5 60L216.3 60L217.2 60L218 60.5L218.9 60.6L219.7 60.6L220.6 60.6L221.4 60.6L222.3 62.8L223.1 64.1L224 65.5L224.8 66.4L225.7 66.6L226.5 73.8L227.3 81.7L228.2 84.9L229 87.9L229.9 89.1L230.7 93.2L231.6 112.1L232.4 114.3L233.3 166.7L234.1 164.9L235 157.2L235.8 157.2L236.6 155.9L237.5 129.4L238.3 91.3L239.2 74.3L240 67.7L240.9 66.4L241.7 64.6L242.6 64.7L243.4 64.1L244.3 64.9L245.1 69.1L245.9 73.3L246.8 78.2L247.6 79.3L248.5 79.5L249.3 91.1L250.2 117L251 131.4L251.9 164.7L252.7 165.9L253.6 169.6L254.4 169.6L255.2 166L256.1 159.3L256.9 181L257.8 170.7L258.6 159.5L259.5 202.7L260.3 85.7L261.2 87L262 89.4L262.9 107.3L263.7 119.6L264.5 124.1L265.4 136.1L266.2 201.1L267.1 255.7L267.9 249.1L268.8 274.6L269.6 149.5L270.5 110.6L271.3 111.9L272.2 121.6L273 127.5L273.8 117.1L274.7 109.4L275.5 149.2L276.4 168.8L277.2 168.8L278.1 169.2L278.9 178.5L279.8 176.5L280.6 135.5L281.5 110.9L282.3 74L283.1 69.9L284 69.9L284.8 69.9L285.7 63.2L286.5 60L287.4 60L288.2 60L289.1 67.6L289.9 68.3L290.8 68.3L291.6 68.3L292.4 68.3L293.3 68.3L294.1 60L295 60L295.8 60L296.7 60L297.5 60L298.4 60L299.2 60L300.1 60L300.9 60L301.7 60L302.6 60L303.4 60L304.3 60L305.1 60L306 60L306.8 60L307.7 60L308.5 60L309.4 60L310.2 60L311 60.2L311.9 60.3L312.7 60.3L313.6 60.3L314.4 60.3L315.3 60.2L316.1 60L317 60L317.8 60L318.7 60L319.5 60L320.3 60L321.2 60L322 60L322.9 60L323.7 60L324.6 60L325.4 60L326.3 60L327.1 60L328 60L328.8 60L329.7 60L330.5 60L331.3 60L332.2 60L333 60L333.9 60L334.7 60L335.6 60L336.4 60L337.3 60L338.1 60L339 60L339.8 60L340.6 60L341.5 60L342.3 60L343.2 60L344 60L344.9 60L345.7 60L346.6 60L347.4 60L348.3 60L349.1 60L349.9 60L350.8 60L351.6 60L352.5 60L353.3 60L354.2 60L355 60L355.9 60L356.7 60L357.6 60L358.4 60L359.2 60L360.1 60L360.9 60L361.8 60L362.6 60L363.5 60L364.3 60L365.2 60L366 60L366.9 60L367.7 60L368.5 60L369.4 80.1L370.2 83.7L371.1 83.7L371.9 83.7L372.8 83.7L373.6 64.1L374.5 60.7L375.3 60.7L376.2 60.7L377 60.8L377.8 61L378.7 61L379.5 67.2L380.4 95.8L381.2 113.6L382.1 113.6L382.9 113.9L383.8 150.4L384.6 152.9L385.5 147.2L386.3 152.9L387.1 166.3L388 171.6L388.8 198.8L389.7 203.2L390.5 267.4L391.4 256.4L392.2 163.3L393.1 115.9L393.9 112.5L394.8 101.9L395.6 98.7L396.4 98.2L397.3 96.2L398.1 95.9L399 142.6L399.8 106L400.7 104L401.5 100.9L402.4 106.4L403.2 73.2L404.1 68.6L404.9 64L405.7 64L406.6 61.2L407.4 60L408.3 60L409.1 60L410 60L410.8 60L411.7 60L412.5 60L413.4 60L414.2 60L415 60L415.9 60L416.7 60L417.6 60L418.4 60L419.3 60L420.1 60L421 60L421.8 60L422.7 60L423.5 60L424.3 60L425.2 60L426 60L426.9 60L427.7 60L428.6 60L429.4 60L430.3 60L431.1 60L432 60L432.8 60L433.7 60L434.5 60L435.3 60L436.2 60L437 60L437.9 60L438.7 60L439.6 60L440.4 60L441.3 60L442.1 60L443 60L443.8 60L444.6 60L445.5 60L446.3 60L447.2 60L448 60L448.9 60L449.7 60L450.6 60L451.4 60L452.3 60L453.1 60L453.9 60L454.8 60L455.6 60L456.5 60L457.3 60L458.2 60L459 60L459.9 60L460.7 60L461.6 60L462.4 60L463.2 60L464.1 60L464.9 60L465.8 60L466.6 60L467.5 60L468.3 60L469.2 60L470 60L470.9 60L471.7 60L472.5 60L473.4 60L474.2 60L475.1 60L475.9 60L476.8 60L477.6 60L478.5 60L479.3 60L480.2 60L481 60L481.8 60L482.7 60L483.5 60L484.4 60L485.2 60L486.1 60L486.9 60L487.8 60L488.6 60L489.5 60L490.3 60L491.1 60L492 60L492.8 60L493.7 60L494.5 60L495.4 60L496.2 60L497.1 60L497.9 60L498.8 60L499.6 60L500.4 60L501.3 60L502.1 60L503 60L503.8 60L504.7 60L505.5 60L506.4 60L507.2 60L508.1 60L508.9 60L509.7 60L510.6 60L511.4 60L512.3 60L513.1 60L514 60L514.8 60L515.7 60L516.5 60L517.4 60L518.2 60L519 60L519.9 60L520.7 60L521.6 60L522.4 60L523.3 60L524.1 60L525 60L525.8 60L526.7 60L527.5 60L528.3 60L529.2 60L530 60L530.9 60L531.7 60L532.6 60L533.4 60L534.3 60L535.1 60L536 60L536.8 60L537.7 60L538.5 60L539.3 60L540.2 60L541 60L541.9 60L542.7 60L543.6 60L544.4 60L545.3 60L546.1 60L547 60L547.8 60L548.6 60L549.5 60L550.3 60L551.2 60L552 60L552.9 60L553.7 60L554.6 60L555.4 60L556.3 60L557.1 60L557.9 60L558.8 60L559.6 60L560.5 60L561.3 60L562.2 60L563 60L563.9 60L564.7 60L565.6 60L566.4 60L567.2 60L568.1 60L568.9 60L569.8 60L570.6 60L571.5 60L572.3 60L573.2 60L574 60L574.9 60L575.7 60L576.5 60L577.4 60L578.2 60L579.1 60L579.9 60L580.8 60L581.6 60L582.5 60L583.3 60L584.2 60L585 60L584.2 60L583.3 60L582.5 60L581.6 60L580.8 60L579.9 60L579.1 60L578.2 60L577.4 60L576.5 60L575.7 60L574.9 60L574 60L573.2 60L572.3 60L571.5 60L570.6 60L569.8 60L568.9 60L568.1 60L567.2 60L566.4 60L565.6 60L564.7 60L563.9 60L563 60L562.2 60L561.3 60L560.5 60L559.6 60L558.8 60L557.9 60L557.1 60L556.3 60L555.4 60L554.6 60L553.7 60L552.9 60L552 60L551.2 60L550.3 60L549.5 60L548.6 60L547.8 60L547 60L546.1 60L545.3 60L544.4 60L543.6 60L542.7 60L541.9 60L541 60L540.2 60L539.3 60L538.5 60L537.7 60L536.8 60L536 60L535.1 60L534.3 60L533.4 60L532.6 60L531.7 60L530.9 60L530 60L529.2 60L528.3 60L527.5 60L526.7 60L525.8 60L525 60L524.1 60L523.3 60L522.4 60L521.6 60L520.7 60L519.9 60L519 60L518.2 60L517.4 60L516.5 60L515.7 60L514.8 60L514 60L513.1 60L512.3 60L511.4 60L510.6 60L509.7 60L508.9 60L508.1 60L507.2 60L506.4 60L505.5 60L504.7 60L503.8 60L503 60L502.1 60L501.3 60L500.4 60L499.6 60L498.8 60L497.9 60L497.1 60L496.2 60L495.4 60L494.5 60L493.7 60L492.8 60L492 60L491.1 60L490.3 60L489.5 60L488.6 60L487.8 60L486.9 60L486.1 60L485.2 60L484.4 60L483.5 60L482.7 60L481.8 60L481 60L480.2 60L479.3 60L478.5 60L477.6 60L476.8 60L475.9 60L475.1 60L474.2 60L473.4 60L472.5 60L471.7 60L470.9 60L470 60L469.2 60L468.3 60L467.5 60L466.6 60L465.8 60L464.9 60L464.1 60L463.2 60L462.4 60L461.6 60L460.7 60L459.9 60L459 60L458.2 60L457.3 60L456.5 60L455.6 60L454.8 60L453.9 60L453.1 60L452.3 60L451.4 60L450.6 60L449.7 60L448.9 60L448 60L447.2 60L446.3 60L445.5 60L444.6 60L443.8 60L443 60L442.1 60L441.3 60L440.4 60L439.6 60L438.7 60L437.9 60L437 60L436.2 60L435.3 60L434.5 60L433.7 60L432.8 60L432 60L431.1 60L430.3 60L429.4 60L428.6 60L427.7 60L426.9 60L426 60L425.2 60L424.3 60L423.5 60L422.7 60L421.8 60L421 60L420.1 60L419.3 60L418.4 60L417.6 60L416.7 60L415.9 60L415 60L414.2 60L413.4 60L412.5 60L411.7 60L410.8 60L410 60L409.1 60L408.3 60L407.4 60L406.6 60L405.7 60L404.9 60L404.1 60L403.2 60L402.4 60L401.5 60L400.7 60L399.8 60L399 60L398.1 60L397.3 60L396.4 60L395.6 60L394.8 60L393.9 60L393.1 60L392.2 60L391.4 60L390.5 60L389.7 60L388.8 60L388 60L387.1 60L386.3 60L385.5 60L384.6 60L383.8 60L382.9 60L382.1 60L381.2 60L380.4 60L379.5 60L378.7 60L377.8 60L377 60L376.2 60L375.3 60L374.5 60L373.6 60L372.8 60L371.9 60L371.1 60L370.2 60L369.4 60L368.5 60L367.7 60L366.9 60L366 60L365.2 60L364.3 60L363.5 60L362.6 60L361.8 60L360.9 60L360.1 60L359.2 60L358.4 60L357.6 60L356.7 60L355.9 60L355 60L354.2 60L353.3 60L352.5 60L351.6 60L350.8 60L349.9 60L349.1 60L348.3 60L347.4 60L346.6 60L345.7 60L344.9 60L344 60L343.2 60L342.3 60L341.5 60L340.6 60L339.8 60L339 60L338.1 60L337.3 60L336.4 60L335.6 60L334.7 60L333.9 60L333 60L332.2 60L331.3 60L330.5 60L329.7 60L328.8 60L328 60L327.1 60L326.3 60L325.4 60L324.6 60L323.7 60L322.9 60L322 60L321.2 60L320.3 60L319.5 60L318.7 60L317.8 60L317 60L316.1 60L315.3 60L314.4 60L313.6 60L312.7 60L311.9 60L311 60L310.2 60L309.4 60L308.5 60L307.7 60L306.8 60L306 60L305.1 60L304.3 60L303.4 60L302.6 60L301.7 60L300.9 60L300.1 60L299.2 60L298.4 60L297.5 60L296.7 60L295.8 60L295 60L294.1 60L293.3 60L292.4 60L291.6 60L290.8 60L289.9 60L289.1 60L288.2 60L287.4 60L286.5 60L285.7 60L284.8 60L284 60L283.1 60L282.3 60L281.5 60L280.6 60L279.8 60L278.9 60L278.1 60L277.2 60L276.4 60L275.5 60L274.7 60L273.8 60L273 60L272.2 60L271.3 60L270.5 60L269.6 60L268.8 60L267.9 60L267.1 60L266.2 60L265.4 60L264.5 60L263.7 60L262.9 60L262 60L261.2 60L260.3 60L259.5 60L258.6 60L257.8 60L256.9 60L256.1 60L255.2 60L254.4 60L253.6 60L252.7 60L251.9 60L251 60L250.2 60L249.3 60L248.5 60L247.6 60L246.8 60L245.9 60L245.1 60L244.3 60L243.4 60L242.6 60L241.7 60L240.9 60L240 60L239.2 60L238.3 60L237.5 60L236.6 60L235.8 60L235 60L234.1 60L233.3 60L232.4 60L231.6 60L230.7 60L229.9 60L229 60L228.2 60L227.3 60L226.5 60L225.7 60L224.8 60L224 60L223.1 60L222.3 60L221.4 60L220.6 60L219.7 60L218.9 60L218 60L217.2 60L216.3 60L215.5 60L214.7 60L213.8 60L213 60L212.1 60L211.3 60L210.4 60L209.6 60L208.7 60L207.9 60L207 60L206.2 60L205.4 60L204.5 60L203.7 60L202.8 60L202 60L201.1 60L200.3 60L199.4 60L198.6 60L197.7 60L196.9 60L196.1 60L195.2 60L194.4 60L193.5 60L192.7 60L191.8 60L191 60L190.1 60L189.3 60L188.4 60L187.6 60L186.8 60L185.9 60L185.1 60L184.2 60L183.4 60L182.5 60L181.7 60L180.8 60L180 60L179.1 60L178.3 60L177.5 60L176.6 60L175.8 60L174.9 60L174.1 60L173.2 60L172.4 60L171.5 60L170.7 60L169.8 60L169 60L168.2 60L167.3 60L166.5 60L165.6 60L164.8 60L163.9 60L163.1 60L162.2 60L161.4 60L160.5 60L159.7 60L158.9 60L158 60L157.2 60L156.3 60L155.5 60L154.6 60L153.8 60L152.9 60L152.1 60L151.2 60L150.4 60L149.6 60L148.7 60L147.9 60L147 60L146.2 60L145.3 60L144.5 60L143.6 60L142.8 60L141.9 60L141.1 60L140.3 60L139.4 60L138.6 60L137.7 60L136.9 60L136 60L135.2 60L134.3 60L133.5 60L132.6 60L131.8 60L131 60L130.1 60L129.3 60L128.4 60L127.6 60L126.7 60L125.9 60L125 60L124.2 60L123.3 60L122.5 60L121.7 60L120.8 60L120 60L119.1 60L118.3 60L117.4 60L116.6 60L115.7 60L114.9 60L114 60L113.2 60L112.3 60L111.5 60L110.7 60L109.8 60L109 60L108.1 60L107.3 60L106.4 60L105.6 60L104.7 60L103.9 60L103 60L102.2 60L101.4 60L100.5 60L99.7 60L98.8 60L98 60L97.1 60L96.3 60L95.4 60L94.6 60L93.7 60L92.9 60L92.1 60L91.2 60L90.4 60L89.5 60L88.7 60L87.8 60L87 60L86.1 60L85.3 60L84.4 60L83.6 60L82.8 60L81.9 60L81.1 60L80.2 60L79.4 60L78.5 60L77.7 60L76.8 60L76 60L75.1 60L74.3 60L73.5 60L72.6 60L71.8 60L70.9 60L70.1 60L69.2 60L68.4 60L67.5 60L66.7 60L65.8 60L65 60Z" fill="#6be6c1" fill-opacity="0.7" class="zr0-cls-3"></path>
</g>
<g clip-path="url(#zr0-c0)">
<path d="M65 316.8L65.8 316.9L66.7 316.9L67.5 317L68.4 317.1L69.2 317.1L70.1 317.2L70.9 317.3L71.8 317.3L72.6 317.4L73.5 317.4L74.3 317.5L75.1 317.6L76 317.7L76.8 317.8L77.7 317.8L78.5 317.9L79.4 318L80.2 318L81.1 318.1L81.9 318.1L82.8 318.1L83.6 318.1L84.4 318.1L85.3 318.1L86.1 318.1L87 318.1L87.8 318.1L88.7 318.1L89.5 318.1L90.4 318.1L91.2 318.1L92.1 318.1L92.9 318.1L93.7 318.1L94.6 318.1L95.4 318.2L96.3 318.2L97.1 318.3L98 318.4L98.8 318.4L99.7 318.5L100.5 318.5L101.4 318.6L102.2 318.6L103 318.6L103.9 318.6L104.7 318.6L105.6 318.6L106.4 318.6L107.3 318.6L108.1 318.6L109 318.6L109.8 318.6L110.7 318.6L111.5 318.6L112.3 318.6L113.2 318.6L114 318.6L114.9 318.7L115.7 318.7L116.6 318.8L117.4 318.8L118.3 318.9L119.1 319L120 319L120.8 319.1L121.7 319.1L122.5 319.2L123.3 319.2L124.2 319.2L125 319.3L125.9 319.3L126.7 319.3L127.6 319.3L128.4 319.4L129.3 319.4L130.1 319.4L131 319.4L131.8 319.4L132.6 319.4L133.5 319.5L134.3 319.5L135.2 319.5L136 319.5L136.9 319.5L137.7 319.6L138.6 319.6L139.4 319.6L140.3 319.6L141.1 319.6L141.9 319.6L142.8 319.6L143.6 319.6L144.5 319.6L145.3 319.7L146.2 319.7L147 319.7L147.9 319.7L148.7 319.7L149.6 319.7L150.4 319.7L151.2 319.7L152.1 319.7L152.9 319.7L153.8 319.7L154.6 319.7L155.5 319.7L156.3 319.7L157.2 319.7L158 319.6L158.9 319.6L159.7 319.6L160.5 319.6L161.4 319.6L162.2 319.6L163.1 319.5L163.9 319.5L164.8 319.5L165.6 319.5L166.5 319.5L167.3 319.5L168.2 319.5L169 319.5L169.8 319.6L170.7 319.6L171.5 319.6L172.4 319.6L173.2 319.6L174.1 319.6L174.9 319.6L175.8 319.6L176.6 319.6L177.5 319.6L178.3 319.6L179.1 319.6L180 319.6L180.8 319.6L181.7 319.6L182.5 319.6L183.4 319.6L184.2 319.6L185.1 319.6L185.9 319.6L186.8 319.6L187.6 319.6L188.4 319.6L189.3 319.6L190.1 319.6L191 319.6L191.8 319.6L192.7 319.6L193.5 319.6L194.4 319.6L195.2 319.6L196.1 319.6L196.9 319.6L197.7 319.6L198.6 319.6L199.4 319.6L200.3 319.6L201.1 319.6L202 319.6L202.8 319.6L203.7 319.6L204.5 319.6L205.4 319.6L206.2 319.6L207 319.6L207.9 319.6L208.7 319.6L209.6 319.6L210.4 319.6L211.3 319.6L212.1 319.6L213 319.6L213.8 319.6L214.7 319.6L215.5 319.6L216.3 319.6L217.2 319.6L218 319.6L218.9 319.6L219.7 319.6L220.6 319.6L221.4 319.6L222.3 319.6L223.1 319.6L224 319.6L224.8 319.6L225.7 319.6L226.5 319.5L227.3 319.5L228.2 319.5L229 319.5L229.9 319.5L230.7 319.5L231.6 319.5L232.4 319.5L233.3 319.5L234.1 319.5L235 319.4L235.8 319.4L236.6 319.4L237.5 319.4L238.3 319.4L239.2 319.4L240 319.4L240.9 319.3L241.7 319.3L242.6 319.3L243.4 319.3L244.3 319.3L245.1 319.2L245.9 319.1L246.8 318.9L247.6 318.6L248.5 318.1L249.3 317.4L250.2 316.7L251 315.8L251.9 314.7L252.7 313.6L253.6 312.3L254.4 310.8L255.2 309.2L256.1 305.5L256.9 305.2L257.8 304.1L258.6 300.3L259.5 296.8L260.3 292.4L261.2 282.9L262 258.9L262.9 246.6L263.7 239.8L264.5 235.2L265.4 235.5L266.2 242.4L267.1 241.5L267.9 244.1L268.8 243.2L269.6 242.4L270.5 238.9L271.3 226.7L272.2 187.4L273 128.9L273.8 112.5L274.7 106.5L275.5 82.8L276.4 92L277.2 94.1L278.1 94.1L278.9 108.8L279.8 104.5L280.6 112.5L281.5 119.8L282.3 119.8L283.1 119.8L284 119.8L284.8 127.1L285.7 125L286.5 137.4L287.4 139L288.2 144.1L289.1 143.9L289.9 155.2L290.8 168.2L291.6 177.5L292.4 184.9L293.3 186.2L294.1 187.4L295 196.8L295.8 203.8L296.7 207.3L297.5 216L298.4 219.6L299.2 225.1L300.1 225.8L300.9 228.7L301.7 235.2L302.6 238L303.4 244.1L304.3 246.6L305.1 250.8L306 254L306.8 256L307.7 266.3L308.5 276.3L309.4 268L310.2 270.5L311 273L311.9 273.8L312.7 274.6L313.6 276.3L314.4 276.3L315.3 275.4L316.1 282.6L317 273.8L317.8 277.1L318.7 281.6L319.5 282.9L320.3 284.1L321.2 284.1L322 286.1L322.9 286.1L323.7 286.7L324.6 288.4L325.4 291.3L326.3 292L327.1 290.2L328 287.9L328.8 291.3L329.7 296.3L330.5 296.8L331.3 297.3L332.2 299L333 295.8L333.9 299L334.7 299L335.6 299L336.4 298.1L337.3 299L338.1 299.4L339 296.8L339.8 300.7L340.6 299L341.5 300.3L342.3 300.7L343.2 301.5L344 301.5L344.9 301.5L345.7 302.3L346.6 303.4L347.4 303.7L348.3 304.5L349.1 305.5L349.9 305.8L350.8 305.8L351.6 305.8L352.5 305.2L353.3 305.8L354.2 303.4L355 305.2L355.9 305.2L356.7 308.4L357.6 309.6L358.4 309.6L359.2 309.6L360.1 309.6L360.9 309.6L361.8 309.6L362.6 309.6L363.5 309.6L364.3 309.6L365.2 309.6L366 310.2L366.9 310.9L367.7 310.9L368.5 310.8L369.4 310.7L370.2 310.6L371.1 310.4L371.9 310.2L372.8 310L373.6 309.6L374.5 309.3L375.3 308.9L376.2 308.4L377 307.9L377.8 307.3L378.7 306.6L379.5 305.9L380.4 305.1L381.2 304.3L382.1 303.4L382.9 302.4L383.8 301.3L384.6 300.2L385.5 299L386.3 297.7L387.1 296.3L388 294.9L388.8 293.3L389.7 291.7L390.5 290L391.4 288.1L392.2 286.2L393.1 284.2L393.9 282.1L394.8 279.9L395.6 277.6L396.4 275.2L397.3 272.7L398.1 262.7L399 251.8L399.8 251.3L400.7 248.3L401.5 247.5L402.4 248.3L403.2 250.8L404.1 251.3L404.9 252.9L405.7 255L406.6 256.9L407.4 255.8L408.3 260.8L409.1 265.4L410 262.7L410.8 267.1L411.7 268.8L412.5 269.7L413.4 269.7L414.2 272.2L415 271.4L415.9 272.8L416.7 275.4L417.6 276.8L418.4 275.4L419.3 274.6L420.1 276.3L421 277.9L421.8 280.3L422.7 281.6L423.5 283.5L424.3 285.4L425.2 287.3L426 287.9L426.9 291.3L427.7 296.3L428.6 292.4L429.4 295.3L430.3 295.8L431.1 298.1L432 296.3L432.8 296.8L433.7 297.3L434.5 297.3L435.3 295.8L436.2 295.8L437 294.4L437.9 298.8L438.7 297.5L439.6 296.3L440.4 296.8L441.3 297.7L442.1 298.1L443 298.5L443.8 299.8L444.6 300.7L445.5 300.7L446.3 300.7L447.2 303L448 303.4L448.9 300.7L449.7 308.1L450.6 305.5L451.4 306.2L452.3 305.8L453.1 305.8L453.9 306.8L454.8 306.5L455.6 303.7L456.5 303.7L457.3 303.4L458.2 303.4L459 303.7L459.9 303.4L460.7 303.7L461.6 303.4L462.4 304.5L463.2 303.7L464.1 306.2L464.9 305.8L465.8 305.5L466.6 305.8L467.5 306.5L468.3 309.5L469.2 306.8L470 308.1L470.9 311.4L471.7 307.5L472.5 307.5L473.4 308.1L474.2 310.6L475.1 311L475.9 311.3L476.8 311.6L477.6 311.9L478.5 312.1L479.3 312.4L480.2 312.6L481 312.8L481.8 312.9L482.7 313.1L483.5 313.2L484.4 313.3L485.2 313.4L486.1 313.5L486.9 313.5L487.8 313.6L488.6 313.6L489.5 313.7L490.3 313.7L491.1 313.7L492 313.7L492.8 313.7L493.7 312.1L494.5 314.4L495.4 312.4L496.2 312.6L497.1 313.1L497.9 313.6L498.8 313.9L499.6 314.1L500.4 314.2L501.3 314.4L502.1 314.5L503 314.6L503.8 314.7L504.7 314.7L505.5 314.8L506.4 314.9L507.2 315L508.1 315.1L508.9 315.1L509.7 315.2L510.6 315.4L511.4 315.5L512.3 315.6L513.1 315.7L514 315.8L514.8 316L515.7 316.1L516.5 316.2L517.4 316.4L518.2 316.5L519 316.6L519.9 316.7L520.7 316.9L521.6 317L522.4 317.1L523.3 317.2L524.1 317.2L525 317.3L525.8 317.4L526.7 317.4L527.5 317.5L528.3 317.5L529.2 317.5L530 317.1L530.9 316.2L531.7 315.2L532.6 314.3L533.4 313.9L534.3 314L535.1 314.1L536 314.2L536.8 314.2L537.7 314.3L538.5 314.3L539.3 314.3L540.2 314.4L541 314.4L541.9 314.4L542.7 314.4L543.6 314.5L544.4 314.5L545.3 314.5L546.1 314.5L547 314.5L547.8 314.5L548.6 314.5L549.5 314.6L550.3 314.6L551.2 314.6L552 314.6L552.9 314.6L553.7 314.6L554.6 314.4L555.4 313.7L556.3 313.7L557.1 313.8L557.9 313.9L558.8 314L559.6 314.2L560.5 314.3L561.3 314.5L562.2 314.8L563 315L563.9 315.3L564.7 315.5L565.6 315.8L566.4 316.1L567.2 316.4L568.1 316.7L568.9 316.9L569.8 317.2L570.6 317.5L571.5 317.8L572.3 318L573.2 318.3L574 318.5L574.9 318.7L575.7 318.9L576.5 319.1L577.4 319.2L578.2 319.3L579.1 319.4L579.9 319.4L580.8 319.4L581.6 319.4L582.5 319.4L583.3 319.4L584.2 319.4L585 319.5" fill="transparent" stroke="#3fb1e3" stroke-linejoin="bevel" class="zr0-cls-4"></path>
</g>
<g clip-path="url(#zr0-c1)">
<path d="M65 60L65.8 60L66.7 60L67.5 60L68.4 60L69.2 60L70.1 60L70.9 60L71.8 60L72.6 60L73.5 60L74.3 60L75.1 60L76 60L76.8 60L77.7 60.7L78.5 61.1L79.4 61.6L80.2 61.7L81.1 64L81.9 71.2L82.8 73.4L83.6 73.8L84.4 77.4L85.3 93.2L86.1 103.4L87 70.2L87.8 61.1L88.7 61.1L89.5 61.1L90.4 63L91.2 63.5L92.1 60L92.9 60L93.7 60L94.6 60L95.4 60L96.3 60L97.1 60L98 60L98.8 60L99.7 60L100.5 60L101.4 60L102.2 60L103 60L103.9 60L104.7 60.1L105.6 61.1L106.4 61.1L107.3 61.1L108.1 61.1L109 61L109.8 60L110.7 60L111.5 60L112.3 60L113.2 60L114 60L114.9 60L115.7 60L116.6 60L117.4 60.7L118.3 61.1L119.1 61.1L120 61.1L120.8 61.1L121.7 60.8L122.5 61.1L123.3 61.1L124.2 61.1L125 61.1L125.9 60.8L126.7 60L127.6 60L128.4 60L129.3 60L130.1 60L131 60.2L131.8 62L132.6 64.3L133.5 66L134.3 67.3L135.2 67.9L136 73.1L136.9 64.4L137.7 62.7L138.6 61.4L139.4 60.7L140.3 60L141.1 60L141.9 60L142.8 60L143.6 60L144.5 60L145.3 60L146.2 60L147 60L147.9 60L148.7 60L149.6 60.1L150.4 60.3L151.2 60.8L152.1 61.4L152.9 61.4L153.8 61.2L154.6 62.1L155.5 62L156.3 61.7L157.2 61.7L158 62.2L158.9 66.2L159.7 61.6L160.5 61.6L161.4 61.6L162.2 61.5L163.1 61.2L163.9 61.2L164.8 61.2L165.6 61.2L166.5 60.7L167.3 62L168.2 62.9L169 62.9L169.8 62.9L170.7 62.9L171.5 61.4L172.4 60.6L173.2 61.6L174.1 62.1L174.9 62.1L175.8 62.1L176.6 61.6L177.5 60.6L178.3 60L179.1 60L180 60L180.8 60L181.7 60L182.5 60L183.4 60.2L184.2 61.1L185.1 61.1L185.9 61.1L186.8 61.1L187.6 60.9L188.4 60L189.3 60L190.1 60L191 60L191.8 60L192.7 62.1L193.5 62.1L194.4 62.1L195.2 62.1L196.1 62.1L196.9 60.3L197.7 60.5L198.6 60.6L199.4 60.9L200.3 60.9L201.1 60.6L202 60.3L202.8 60.3L203.7 60L204.5 60L205.4 60L206.2 60L207 60L207.9 60L208.7 60L209.6 60L210.4 60L211.3 60L212.1 60L213 60L213.8 60L214.7 60L215.5 60L216.3 60L217.2 60L218 60.5L218.9 60.6L219.7 60.6L220.6 60.6L221.4 60.6L222.3 62.8L223.1 64.1L224 65.5L224.8 66.4L225.7 66.6L226.5 73.8L227.3 81.7L228.2 84.9L229 87.9L229.9 89.1L230.7 93.2L231.6 112.1L232.4 114.3L233.3 166.7L234.1 164.9L235 157.2L235.8 157.2L236.6 155.9L237.5 129.4L238.3 91.3L239.2 74.3L240 67.7L240.9 66.4L241.7 64.6L242.6 64.7L243.4 64.1L244.3 64.9L245.1 69.1L245.9 73.3L246.8 78.2L247.6 79.3L248.5 79.5L249.3 91.1L250.2 117L251 131.4L251.9 164.7L252.7 165.9L253.6 169.6L254.4 169.6L255.2 166L256.1 159.3L256.9 181L257.8 170.7L258.6 159.5L259.5 202.7L260.3 85.7L261.2 87L262 89.4L262.9 107.3L263.7 119.6L264.5 124.1L265.4 136.1L266.2 201.1L267.1 255.7L267.9 249.1L268.8 274.6L269.6 149.5L270.5 110.6L271.3 111.9L272.2 121.6L273 127.5L273.8 117.1L274.7 109.4L275.5 149.2L276.4 168.8L277.2 168.8L278.1 169.2L278.9 178.5L279.8 176.5L280.6 135.5L281.5 110.9L282.3 74L283.1 69.9L284 69.9L284.8 69.9L285.7 63.2L286.5 60L287.4 60L288.2 60L289.1 67.6L289.9 68.3L290.8 68.3L291.6 68.3L292.4 68.3L293.3 68.3L294.1 60L295 60L295.8 60L296.7 60L297.5 60L298.4 60L299.2 60L300.1 60L300.9 60L301.7 60L302.6 60L303.4 60L304.3 60L305.1 60L306 60L306.8 60L307.7 60L308.5 60L309.4 60L310.2 60L311 60.2L311.9 60.3L312.7 60.3L313.6 60.3L314.4 60.3L315.3 60.2L316.1 60L317 60L317.8 60L318.7 60L319.5 60L320.3 60L321.2 60L322 60L322.9 60L323.7 60L324.6 60L325.4 60L326.3 60L327.1 60L328 60L328.8 60L329.7 60L330.5 60L331.3 60L332.2 60L333 60L333.9 60L334.7 60L335.6 60L336.4 60L337.3 60L338.1 60L339 60L339.8 60L340.6 60L341.5 60L342.3 60L343.2 60L344 60L344.9 60L345.7 60L346.6 60L347.4 60L348.3 60L349.1 60L349.9 60L350.8 60L351.6 60L352.5 60L353.3 60L354.2 60L355 60L355.9 60L356.7 60L357.6 60L358.4 60L359.2 60L360.1 60L360.9 60L361.8 60L362.6 60L363.5 60L364.3 60L365.2 60L366 60L366.9 60L367.7 60L368.5 60L369.4 80.1L370.2 83.7L371.1 83.7L371.9 83.7L372.8 83.7L373.6 64.1L374.5 60.7L375.3 60.7L376.2 60.7L377 60.8L377.8 61L378.7 61L379.5 67.2L380.4 95.8L381.2 113.6L382.1 113.6L382.9 113.9L383.8 150.4L384.6 152.9L385.5 147.2L386.3 152.9L387.1 166.3L388 171.6L388.8 198.8L389.7 203.2L390.5 267.4L391.4 256.4L392.2 163.3L393.1 115.9L393.9 112.5L394.8 101.9L395.6 98.7L396.4 98.2L397.3 96.2L398.1 95.9L399 142.6L399.8 106L400.7 104L401.5 100.9L402.4 106.4L403.2 73.2L404.1 68.6L404.9 64L405.7 64L406.6 61.2L407.4 60L408.3 60L409.1 60L410 60L410.8 60L411.7 60L412.5 60L413.4 60L414.2 60L415 60L415.9 60L416.7 60L417.6 60L418.4 60L419.3 60L420.1 60L421 60L421.8 60L422.7 60L423.5 60L424.3 60L425.2 60L426 60L426.9 60L427.7 60L428.6 60L429.4 60L430.3 60L431.1 60L432 60L432.8 60L433.7 60L434.5 60L435.3 60L436.2 60L437 60L437.9 60L438.7 60L439.6 60L440.4 60L441.3 60L442.1 60L443 60L443.8 60L444.6 60L445.5 60L446.3 60L447.2 60L448 60L448.9 60L449.7 60L450.6 60L451.4 60L452.3 60L453.1 60L453.9 60L454.8 60L455.6 60L456.5 60L457.3 60L458.2 60L459 60L459.9 60L460.7 60L461.6 60L462.4 60L463.2 60L464.1 60L464.9 60L465.8 60L466.6 60L467.5 60L468.3 60L469.2 60L470 60L470.9 60L471.7 60L472.5 60L473.4 60L474.2 60L475.1 60L475.9 60L476.8 60L477.6 60L478.5 60L479.3 60L480.2 60L481 60L481.8 60L482.7 60L483.5 60L484.4 60L485.2 60L486.1 60L486.9 60L487.8 60L488.6 60L489.5 60L490.3 60L491.1 60L492 60L492.8 60L493.7 60L494.5 60L495.4 60L496.2 60L497.1 60L497.9 60L498.8 60L499.6 60L500.4 60L501.3 60L502.1 60L503 60L503.8 60L504.7 60L505.5 60L506.4 60L507.2 60L508.1 60L508.9 60L509.7 60L510.6 60L511.4 60L512.3 60L513.1 60L514 60L514.8 60L515.7 60L516.5 60L517.4 60L518.2 60L519 60L519.9 60L520.7 60L521.6 60L522.4 60L523.3 60L524.1 60L525 60L525.8 60L526.7 60L527.5 60L528.3 60L529.2 60L530 60L530.9 60L531.7 60L532.6 60L533.4 60L534.3 60L535.1 60L536 60L536.8 60L537.7 60L538.5 60L539.3 60L540.2 60L541 60L541.9 60L542.7 60L543.6 60L544.4 60L545.3 60L546.1 60L547 60L547.8 60L548.6 60L549.5 60L550.3 60L551.2 60L552 60L552.9 60L553.7 60L554.6 60L555.4 60L556.3 60L557.1 60L557.9 60L558.8 60L559.6 60L560.5 60L561.3 60L562.2 60L563 60L563.9 60L564.7 60L565.6 60L566.4 60L567.2 60L568.1 60L568.9 60L569.8 60L570.6 60L571.5 60L572.3 60L573.2 60L574 60L574.9 60L575.7 60L576.5 60L577.4 60L578.2 60L579.1 60L579.9 60L580.8 60L581.6 60L582.5 60L583.3 60L584.2 60L585 60" fill="transparent" stroke="#6be6c1" stroke-linejoin="bevel" class="zr0-cls-4"></path>
</g>
<path d="M1 0A1 1 0 1 1 1 -0.1A1 1 0 0 1 1 0" transform="matrix(4,0,0,4,127.5691,319.3305)" fill="#fff" stroke="#3fb1e3" stroke-width="0.5" ecmeta_series_index="0" ecmeta_data_index="74" ecmeta_ssr_type="chart" class="zr0-cls-5"></path>
<path d="M1 0A1 1 0 1 1 1 -0.1A1 1 0 0 1 1 0" transform="matrix(4,0,0,4,197.748,319.584)" fill="#fff" stroke="#3fb1e3" stroke-width="0.5" ecmeta_series_index="0" ecmeta_data_index="157" ecmeta_ssr_type="chart" class="zr0-cls-5"></path>
<path d="M1 0A1 1 0 1 1 1 -0.1A1 1 0 0 1 1 0" transform="matrix(4,0,0,4,267.9268,244.08)" fill="#fff" stroke="#3fb1e3" stroke-width="0.5" ecmeta_series_index="0" ecmeta_data_index="240" ecmeta_ssr_type="chart" class="zr0-cls-5"></path>
<path d="M1 0A1 1 0 1 1 1 -0.1A1 1 0 0 1 1 0" transform="matrix(4,0,0,4,338.1057,299.395)" fill="#fff" stroke="#3fb1e3" stroke-width="0.5" ecmeta_series_index="0" ecmeta_data_index="323" ecmeta_ssr_type="chart" class="zr0-cls-5"></path>
<path d="M1 0A1 1 0 1 1 1 -0.1A1 1 0 0 1 1 0" transform="matrix(4,0,0,4,408.2845,260.8045)" fill="#fff" stroke="#3fb1e3" stroke-width="0.5" ecmeta_series_index="0" ecmeta_data_index="406" ecmeta_ssr_type="chart" class="zr0-cls-5"></path>
<path d="M1 0A1 1 0 1 1 1 -0.1A1 1 0 0 1 1 0" transform="matrix(4,0,0,4,478.4634,312.135)" fill="#fff" stroke="#3fb1e3" stroke-width="0.5" ecmeta_series_index="0" ecmeta_data_index="489" ecmeta_ssr_type="chart" class="zr0-cls-5"></path>
<path d="M1 0A1 1 0 1 1 1 -0.1A1 1 0 0 1 1 0" transform="matrix(4,0,0,4,548.6423,314.5465)" fill="#fff" stroke="#3fb1e3" stroke-width="0.5" ecmeta_series_index="0" ecmeta_data_index="572" ecmeta_ssr_type="chart" class="zr0-cls-5"></path>
<path d="M1 0A1 1 0 1 1 1 -0.1A1 1 0 0 1 1 0" transform="matrix(4,0,0,4,127.5691,60)" fill="#fff" stroke="#6be6c1" stroke-width="0.5" ecmeta_series_index="1" ecmeta_data_index="74" ecmeta_ssr_type="chart" class="zr0-cls-5"></path>
<path d="M1 0A1 1 0 1 1 1 -0.1A1 1 0 0 1 1 0" transform="matrix(4,0,0,4,197.748,60.52)" fill="#fff" stroke="#6be6c1" stroke-width="0.5" ecmeta_series_index="1" ecmeta_data_index="157" ecmeta_ssr_type="chart" class="zr0-cls-5"></path>
<path d="M1 0A1 1 0 1 1 1 -0.1A1 1 0 0 1 1 0" transform="matrix(4,0,0,4,267.9268,249.085)" fill="#fff" stroke="#6be6c1" stroke-width="0.5" ecmeta_series_index="1" ecmeta_data_index="240" ecmeta_ssr_type="chart" class="zr0-cls-5"></path>
<path d="M1 0A1 1 0 1 1 1 -0.1A1 1 0 0 1 1 0" transform="matrix(4,0,0,4,338.1057,60)" fill="#fff" stroke="#6be6c1" stroke-width="0.5" ecmeta_series_index="1" ecmeta_data_index="323" ecmeta_ssr_type="chart" class="zr0-cls-5"></path>
<path d="M1 0A1 1 0 1 1 1 -0.1A1 1 0 0 1 1 0" transform="matrix(4,0,0,4,408.2845,60)" fill="#fff" stroke="#6be6c1" stroke-width="0.5" ecmeta_series_index="1" ecmeta_data_index="406" ecmeta_ssr_type="chart" class="zr0-cls-5"></path>
<path d="M1 0A1 1 0 1 1 1 -0.1A1 1 0 0 1 1 0" transform="matrix(4,0,0,4,478.4634,60)" fill="#fff" stroke="#6be6c1" stroke-width="0.5" ecmeta_series_index="1" ecmeta_data_index="489" ecmeta_ssr_type="chart" class="zr0-cls-5"></path>
<path d="M1 0A1 1 0 1 1 1 -0.1A1 1 0 0 1 1 0" transform="matrix(4,0,0,4,548.6423,60)" fill="#fff" stroke="#6be6c1" stroke-width="0.5" ecmeta_series_index="1" ecmeta_data_index="572" ecmeta_ssr_type="chart" class="zr0-cls-5"></path>
<path d="M0 0l520 0l0 30l-520 0Z" transform="matrix(1,0,0,-1,67.8,392.5)" fill="rgb(255,255,255)" fill-opacity="0" class="zr0-cls-0"></path>
<g clip-path="url(#zr0-c2)">
<polygon points="520 0 0 0 0 5.7 1 5.7 2 5.7 3 5.7 4.1 5.7 5.1 5.7 6.1 5.7 7.1 5.7 8.1 5.7 9.1 5.7 10.1 5.7 11.2 5.7 12.2 5.7 13.2 5.7 14.2 5.7 15.2 5.7 16.2 5.7 17.2 5.7 18.2 5.7 19.3 5.7 20.3 5.7 21.3 5.7 22.3 5.7 23.3 5.6 24.3 5.6 25.3 5.6 26.4 5.6 27.4 5.6 28.4 5.7 29.4 5.7 30.4 5.7 31.4 5.7 32.4 5.7 33.5 5.7 34.5 5.7 35.5 5.7 36.5 5.7 37.5 5.7 38.5 5.7 39.5 5.7 40.5 5.7 41.6 5.7 42.6 5.7 43.6 5.7 44.6 5.7 45.6 5.7 46.6 5.7 47.6 5.7 48.7 5.7 49.7 5.6 50.7 5.6 51.7 5.6 52.7 5.6 53.7 5.6 54.7 5.6 55.8 5.6 56.8 5.6 57.8 5.6 58.8 5.6 59.8 5.6 60.8 5.6 61.8 5.6 62.8 5.6 63.9 5.6 64.9 5.6 65.9 5.6 66.9 5.6 67.9 5.6 68.9 5.6 69.9 5.6 71 5.6 72 5.6 73 5.6 74 5.6 75 5.6 76 5.6 77 5.6 78.1 5.6 79.1 5.6 80.1 5.6 81.1 5.6 82.1 5.6 83.1 5.6 84.1 5.6 85.1 5.6 86.2 5.6 87.2 5.6 88.2 5.6 89.2 5.7 90.2 5.8 91.2 5.8 92.2 5.8 93.3 5.7 94.3 5.7 95.3 5.7 96.3 5.7 97.3 5.7 98.3 5.7 99.3 5.7 100.4 5.7 101.4 5.7 102.4 5.6 103.4 5.6 104.4 5.6 105.4 5.6 106.4 5.6 107.4 5.6 108.5 5.6 109.5 5.6 110.5 5.6 111.5 5.6 112.5 5.6 113.5 5.6 114.5 5.6 115.6 5.6 116.6 5.6 117.6 5.6 118.6 5.6 119.6 5.6 120.6 5.6 121.6 5.6 122.7 5.6 123.7 5.6 124.7 5.6 125.7 5.6 126.7 5.6 127.7 5.6 128.7 5.6 129.7 5.6 130.8 5.6 131.8 5.6 132.8 5.6 133.8 5.6 134.8 5.6 135.8 5.6 136.8 5.6 137.9 5.6 138.9 5.6 139.9 5.6 140.9 5.6 141.9 5.6 142.9 5.6 143.9 5.6 145 5.6 146 5.6 147 5.7 148 5.7 149 5.7 150 5.7 151 5.6 152 5.6 153.1 5.6 154.1 5.6 155.1 5.6 156.1 5.6 157.1 5.6 158.1 5.6 159.1 5.6 160.2 5.6 161.2 5.6 162.2 5.6 163.2 5.6 164.2 5.6 165.2 5.6 166.2 5.6 167.3 5.6 168.3 5.6 169.3 5.6 170.3 5.6 171.3 5.6 172.3 5.6 173.3 5.6 174.3 5.6 175.4 5.6 176.4 5.6 177.4 5.6 178.4 5.6 179.4 5.6 180.4 5.6 181.4 5.6 182.5 5.6 183.5 5.7 184.5 5.7 185.5 5.7 186.5 5.7 187.5 5.7 188.5 5.7 189.6 5.7 190.6 5.6 191.6 5.6 192.6 5.6 193.6 5.6 194.6 5.6 195.6 5.6 196.6 5.7 197.7 5.7 198.7 5.7 199.7 5.7 200.7 5.7 201.7 5.7 202.7 5.7 203.7 5.7 204.8 5.7 205.8 5.8 206.8 5.8 207.8 5.9 208.8 5.9 209.8 6 210.8 6.1 211.9 6.2 212.9 13.1 213.9 16.5 214.9 12.1 215.9 10.8 216.9 8.7 217.9 8 218.9 7.4 220 6.9 221 6.9 222 6.9 223 6.6 224 6.3 225 6.4 226 6.4 227.1 6.5 228.1 6.5 229.1 6.2 230.1 5.8 231.1 5.7 232.1 5.7 233.1 5.7 234.2 5.7 235.2 5.7 236.2 5.7 237.2 5.7 238.2 5.7 239.2 5.7 240.2 5.7 241.2 5.7 242.3 5.7 243.3 5.7 244.3 5.7 245.3 5.6 246.3 5.6 247.3 5.6 248.3 5.6 249.4 5.6 250.4 5.6 251.4 5.6 252.4 5.6 253.4 5.6 254.4 5.6 255.4 5.6 256.5 5.6 257.5 5.6 258.5 5.6 259.5 5.6 260.5 5.6 261.5 5.6 262.5 5.6 263.5 5.6 264.6 5.6 265.6 5.6 266.6 5.7 267.6 5.8 268.6 5.9 269.6 7 270.6 8 271.7 7.4 272.7 6.8 273.7 6.8 274.7 7 275.7 8.1 276.7 16.5 277.7 14.4 278.8 13 279.8 10.7 280.8 9 281.8 8.2 282.8 11.2 283.8 11.8 284.8 10.7 285.8 10.7 286.9 10.7 287.9 15.2 288.9 12.6 289.9 11.3 290.9 10.4 291.9 9.7 292.9 9 294 8.5 295 8.1 296 7.4 297 7 298 7 299 7 300 6.9 301.1 6.8 302.1 6.7 303.1 6.6 304.1 6.6 305.1 6.5 306.1 6.5 307.1 6.4 308.1 6.3 309.2 6.3 310.2 6.2 311.2 6.2 312.2 6.1 313.2 6 314.2 6 315.2 6 316.3 6.4 317.3 7 318.3 7.3 319.3 7.5 320.3 7.6 321.3 7.7 322.3 7.5 323.4 7.1 324.4 6.7 325.4 6.5 326.4 6.5 327.4 6.5 328.4 6.4 329.4 6.3 330.4 6.2 331.5 6.1 332.5 6.1 333.5 6 334.5 6 335.5 5.9 336.5 5.9 337.5 5.9 338.6 5.8 339.6 5.8 340.6 5.8 341.6 5.8 342.6 5.8 343.6 5.8 344.6 5.7 345.7 5.7 346.7 5.7 347.7 5.7 348.7 5.7 349.7 5.7 350.7 5.7 351.7 5.6 352.7 5.6 353.8 5.6 354.8 5.6 355.8 5.6 356.8 5.6 357.8 5.6 358.8 5.6 359.8 5.6 360.9 5.6 361.9 5.6 362.9 5.6 363.9 5.6 364.9 5.6 365.9 5.6 366.9 5.6 368 5.6 369 5.6 370 5.6 371 5.6 372 5.6 373 5.7 374 5.7 375 5.9 376.1 6.5 377.1 7.8 378.1 12.3 379.1 12 380.1 24.4 381.1 22 382.1 21 383.2 17.6 384.2 14.8 385.2 12.8 386.2 10.8 387.2 9.3 388.2 8.6 389.2 8.4 390.3 7.8 391.3 7.4 392.3 7.3 393.3 7.2 394.3 6.9 395.3 6.7 396.3 6.5 397.3 6.4 398.4 6.3 399.4 6.4 400.4 6.6 401.4 6.9 402.4 7.5 403.4 8.3 404.4 9.3 405.5 11.3 406.5 10.7 407.5 9.6 408.5 9 409.5 8.6 410.5 7.5 411.5 7.4 412.6 7.3 413.6 7.3 414.6 6.9 415.6 6.7 416.6 6.9 417.6 6.9 418.6 6.4 419.6 6.5 420.7 6.2 421.7 6.1 422.7 6.1 423.7 6.2 424.7 6.1 425.7 6 426.7 6 427.8 5.9 428.8 5.9 429.8 5.8 430.8 5.8 431.8 6.1 432.8 6.1 433.8 6 434.9 6 435.9 6.1 436.9 6.1 437.9 6 438.9 5.8 439.9 5.7 440.9 5.7 441.9 5.6 443 5.6 444 5.6 445 5.6 446 5.6 447 5.6 448 5.6 449 5.6 450.1 5.6 451.1 5.6 452.1 5.6 453.1 5.6 454.1 5.6 455.1 5.6 456.1 5.6 457.2 5.6 458.2 5.6 459.2 5.6 460.2 5.6 461.2 5.6 462.2 5.6 463.2 5.6 464.2 5.6 465.3 5.6 466.3 5.6 467.3 5.6 468.3 5.6 469.3 5.6 470.3 5.6 471.3 5.6 472.4 5.6 473.4 5.6 474.4 5.6 475.4 5.6 476.4 5.6 477.4 5.6 478.4 5.6 479.5 5.6 480.5 5.6 481.5 5.6 482.5 5.6 483.5 5.6 484.5 5.6 485.5 5.6 486.5 5.6 487.6 5.6 488.6 5.6 489.6 5.7 490.6 5.7 491.6 5.7 492.6 5.7 493.6 5.6 494.7 5.6 495.7 5.6 496.7 5.6 497.7 5.6 498.7 5.6 499.7 5.6 500.7 5.6 501.8 5.6 502.8 5.6 503.8 5.6 504.8 5.6 505.8 5.6 506.8 5.6 507.8 5.6 508.8 5.6 509.9 5.6 510.9 5.6 511.9 5.6 512.9 5.6 513.9 5.6 514.9 5.6 515.9 5.6 517 5.6 518 5.6 519 5.6 520 5.6" transform="matrix(1,0,0,-1,67.8,392.5)" fill="#d2dbee" fill-opacity="0.2" class="zr0-cls-0"></polygon>
</g>
<g clip-path="url(#zr0-c3)">
<polygon points="520 0 0 0 0 5.7 1 5.7 2 5.7 3 5.7 4.1 5.7 5.1 5.7 6.1 5.7 7.1 5.7 8.1 5.7 9.1 5.7 10.1 5.7 11.2 5.7 12.2 5.7 13.2 5.7 14.2 5.7 15.2 5.7 16.2 5.7 17.2 5.7 18.2 5.7 19.3 5.7 20.3 5.7 21.3 5.7 22.3 5.7 23.3 5.6 24.3 5.6 25.3 5.6 26.4 5.6 27.4 5.6 28.4 5.7 29.4 5.7 30.4 5.7 31.4 5.7 32.4 5.7 33.5 5.7 34.5 5.7 35.5 5.7 36.5 5.7 37.5 5.7 38.5 5.7 39.5 5.7 40.5 5.7 41.6 5.7 42.6 5.7 43.6 5.7 44.6 5.7 45.6 5.7 46.6 5.7 47.6 5.7 48.7 5.7 49.7 5.6 50.7 5.6 51.7 5.6 52.7 5.6 53.7 5.6 54.7 5.6 55.8 5.6 56.8 5.6 57.8 5.6 58.8 5.6 59.8 5.6 60.8 5.6 61.8 5.6 62.8 5.6 63.9 5.6 64.9 5.6 65.9 5.6 66.9 5.6 67.9 5.6 68.9 5.6 69.9 5.6 71 5.6 72 5.6 73 5.6 74 5.6 75 5.6 76 5.6 77 5.6 78.1 5.6 79.1 5.6 80.1 5.6 81.1 5.6 82.1 5.6 83.1 5.6 84.1 5.6 85.1 5.6 86.2 5.6 87.2 5.6 88.2 5.6 89.2 5.7 90.2 5.8 91.2 5.8 92.2 5.8 93.3 5.7 94.3 5.7 95.3 5.7 96.3 5.7 97.3 5.7 98.3 5.7 99.3 5.7 100.4 5.7 101.4 5.7 102.4 5.6 103.4 5.6 104.4 5.6 105.4 5.6 106.4 5.6 107.4 5.6 108.5 5.6 109.5 5.6 110.5 5.6 111.5 5.6 112.5 5.6 113.5 5.6 114.5 5.6 115.6 5.6 116.6 5.6 117.6 5.6 118.6 5.6 119.6 5.6 120.6 5.6 121.6 5.6 122.7 5.6 123.7 5.6 124.7 5.6 125.7 5.6 126.7 5.6 127.7 5.6 128.7 5.6 129.7 5.6 130.8 5.6 131.8 5.6 132.8 5.6 133.8 5.6 134.8 5.6 135.8 5.6 136.8 5.6 137.9 5.6 138.9 5.6 139.9 5.6 140.9 5.6 141.9 5.6 142.9 5.6 143.9 5.6 145 5.6 146 5.6 147 5.7 148 5.7 149 5.7 150 5.7 151 5.6 152 5.6 153.1 5.6 154.1 5.6 155.1 5.6 156.1 5.6 157.1 5.6 158.1 5.6 159.1 5.6 160.2 5.6 161.2 5.6 162.2 5.6 163.2 5.6 164.2 5.6 165.2 5.6 166.2 5.6 167.3 5.6 168.3 5.6 169.3 5.6 170.3 5.6 171.3 5.6 172.3 5.6 173.3 5.6 174.3 5.6 175.4 5.6 176.4 5.6 177.4 5.6 178.4 5.6 179.4 5.6 180.4 5.6 181.4 5.6 182.5 5.6 183.5 5.7 184.5 5.7 185.5 5.7 186.5 5.7 187.5 5.7 188.5 5.7 189.6 5.7 190.6 5.6 191.6 5.6 192.6 5.6 193.6 5.6 194.6 5.6 195.6 5.6 196.6 5.7 197.7 5.7 198.7 5.7 199.7 5.7 200.7 5.7 201.7 5.7 202.7 5.7 203.7 5.7 204.8 5.7 205.8 5.8 206.8 5.8 207.8 5.9 208.8 5.9 209.8 6 210.8 6.1 211.9 6.2 212.9 13.1 213.9 16.5 214.9 12.1 215.9 10.8 216.9 8.7 217.9 8 218.9 7.4 220 6.9 221 6.9 222 6.9 223 6.6 224 6.3 225 6.4 226 6.4 227.1 6.5 228.1 6.5 229.1 6.2 230.1 5.8 231.1 5.7 232.1 5.7 233.1 5.7 234.2 5.7 235.2 5.7 236.2 5.7 237.2 5.7 238.2 5.7 239.2 5.7 240.2 5.7 241.2 5.7 242.3 5.7 243.3 5.7 244.3 5.7 245.3 5.6 246.3 5.6 247.3 5.6 248.3 5.6 249.4 5.6 250.4 5.6 251.4 5.6 252.4 5.6 253.4 5.6 254.4 5.6 255.4 5.6 256.5 5.6 257.5 5.6 258.5 5.6 259.5 5.6 260.5 5.6 261.5 5.6 262.5 5.6 263.5 5.6 264.6 5.6 265.6 5.6 266.6 5.7 267.6 5.8 268.6 5.9 269.6 7 270.6 8 271.7 7.4 272.7 6.8 273.7 6.8 274.7 7 275.7 8.1 276.7 16.5 277.7 14.4 278.8 13 279.8 10.7 280.8 9 281.8 8.2 282.8 11.2 283.8 11.8 284.8 10.7 285.8 10.7 286.9 10.7 287.9 15.2 288.9 12.6 289.9 11.3 290.9 10.4 291.9 9.7 292.9 9 294 8.5 295 8.1 296 7.4 297 7 298 7 299 7 300 6.9 301.1 6.8 302.1 6.7 303.1 6.6 304.1 6.6 305.1 6.5 306.1 6.5 307.1 6.4 308.1 6.3 309.2 6.3 310.2 6.2 311.2 6.2 312.2 6.1 313.2 6 314.2 6 315.2 6 316.3 6.4 317.3 7 318.3 7.3 319.3 7.5 320.3 7.6 321.3 7.7 322.3 7.5 323.4 7.1 324.4 6.7 325.4 6.5 326.4 6.5 327.4 6.5 328.4 6.4 329.4 6.3 330.4 6.2 331.5 6.1 332.5 6.1 333.5 6 334.5 6 335.5 5.9 336.5 5.9 337.5 5.9 338.6 5.8 339.6 5.8 340.6 5.8 341.6 5.8 342.6 5.8 343.6 5.8 344.6 5.7 345.7 5.7 346.7 5.7 347.7 5.7 348.7 5.7 349.7 5.7 350.7 5.7 351.7 5.6 352.7 5.6 353.8 5.6 354.8 5.6 355.8 5.6 356.8 5.6 357.8 5.6 358.8 5.6 359.8 5.6 360.9 5.6 361.9 5.6 362.9 5.6 363.9 5.6 364.9 5.6 365.9 5.6 366.9 5.6 368 5.6 369 5.6 370 5.6 371 5.6 372 5.6 373 5.7 374 5.7 375 5.9 376.1 6.5 377.1 7.8 378.1 12.3 379.1 12 380.1 24.4 381.1 22 382.1 21 383.2 17.6 384.2 14.8 385.2 12.8 386.2 10.8 387.2 9.3 388.2 8.6 389.2 8.4 390.3 7.8 391.3 7.4 392.3 7.3 393.3 7.2 394.3 6.9 395.3 6.7 396.3 6.5 397.3 6.4 398.4 6.3 399.4 6.4 400.4 6.6 401.4 6.9 402.4 7.5 403.4 8.3 404.4 9.3 405.5 11.3 406.5 10.7 407.5 9.6 408.5 9 409.5 8.6 410.5 7.5 411.5 7.4 412.6 7.3 413.6 7.3 414.6 6.9 415.6 6.7 416.6 6.9 417.6 6.9 418.6 6.4 419.6 6.5 420.7 6.2 421.7 6.1 422.7 6.1 423.7 6.2 424.7 6.1 425.7 6 426.7 6 427.8 5.9 428.8 5.9 429.8 5.8 430.8 5.8 431.8 6.1 432.8 6.1 433.8 6 434.9 6 435.9 6.1 436.9 6.1 437.9 6 438.9 5.8 439.9 5.7 440.9 5.7 441.9 5.6 443 5.6 444 5.6 445 5.6 446 5.6 447 5.6 448 5.6 449 5.6 450.1 5.6 451.1 5.6 452.1 5.6 453.1 5.6 454.1 5.6 455.1 5.6 456.1 5.6 457.2 5.6 458.2 5.6 459.2 5.6 460.2 5.6 461.2 5.6 462.2 5.6 463.2 5.6 464.2 5.6 465.3 5.6 466.3 5.6 467.3 5.6 468.3 5.6 469.3 5.6 470.3 5.6 471.3 5.6 472.4 5.6 473.4 5.6 474.4 5.6 475.4 5.6 476.4 5.6 477.4 5.6 478.4 5.6 479.5 5.6 480.5 5.6 481.5 5.6 482.5 5.6 483.5 5.6 484.5 5.6 485.5 5.6 486.5 5.6 487.6 5.6 488.6 5.6 489.6 5.7 490.6 5.7 491.6 5.7 492.6 5.7 493.6 5.6 494.7 5.6 495.7 5.6 496.7 5.6 497.7 5.6 498.7 5.6 499.7 5.6 500.7 5.6 501.8 5.6 502.8 5.6 503.8 5.6 504.8 5.6 505.8 5.6 506.8 5.6 507.8 5.6 508.8 5.6 509.9 5.6 510.9 5.6 511.9 5.6 512.9 5.6 513.9 5.6 514.9 5.6 515.9 5.6 517 5.6 518 5.6 519 5.6 520 5.6" transform="matrix(1,0,0,-1,67.8,392.5)" fill="#8fb0f7" fill-opacity="0.2" class="zr0-cls-0"></polygon>
</g>
<g clip-path="url(#zr0-c4)">
<polygon points="520 0 0 0 0 5.7 1 5.7 2 5.7 3 5.7 4.1 5.7 5.1 5.7 6.1 5.7 7.1 5.7 8.1 5.7 9.1 5.7 10.1 5.7 11.2 5.7 12.2 5.7 13.2 5.7 14.2 5.7 15.2 5.7 16.2 5.7 17.2 5.7 18.2 5.7 19.3 5.7 20.3 5.7 21.3 5.7 22.3 5.7 23.3 5.6 24.3 5.6 25.3 5.6 26.4 5.6 27.4 5.6 28.4 5.7 29.4 5.7 30.4 5.7 31.4 5.7 32.4 5.7 33.5 5.7 34.5 5.7 35.5 5.7 36.5 5.7 37.5 5.7 38.5 5.7 39.5 5.7 40.5 5.7 41.6 5.7 42.6 5.7 43.6 5.7 44.6 5.7 45.6 5.7 46.6 5.7 47.6 5.7 48.7 5.7 49.7 5.6 50.7 5.6 51.7 5.6 52.7 5.6 53.7 5.6 54.7 5.6 55.8 5.6 56.8 5.6 57.8 5.6 58.8 5.6 59.8 5.6 60.8 5.6 61.8 5.6 62.8 5.6 63.9 5.6 64.9 5.6 65.9 5.6 66.9 5.6 67.9 5.6 68.9 5.6 69.9 5.6 71 5.6 72 5.6 73 5.6 74 5.6 75 5.6 76 5.6 77 5.6 78.1 5.6 79.1 5.6 80.1 5.6 81.1 5.6 82.1 5.6 83.1 5.6 84.1 5.6 85.1 5.6 86.2 5.6 87.2 5.6 88.2 5.6 89.2 5.7 90.2 5.8 91.2 5.8 92.2 5.8 93.3 5.7 94.3 5.7 95.3 5.7 96.3 5.7 97.3 5.7 98.3 5.7 99.3 5.7 100.4 5.7 101.4 5.7 102.4 5.6 103.4 5.6 104.4 5.6 105.4 5.6 106.4 5.6 107.4 5.6 108.5 5.6 109.5 5.6 110.5 5.6 111.5 5.6 112.5 5.6 113.5 5.6 114.5 5.6 115.6 5.6 116.6 5.6 117.6 5.6 118.6 5.6 119.6 5.6 120.6 5.6 121.6 5.6 122.7 5.6 123.7 5.6 124.7 5.6 125.7 5.6 126.7 5.6 127.7 5.6 128.7 5.6 129.7 5.6 130.8 5.6 131.8 5.6 132.8 5.6 133.8 5.6 134.8 5.6 135.8 5.6 136.8 5.6 137.9 5.6 138.9 5.6 139.9 5.6 140.9 5.6 141.9 5.6 142.9 5.6 143.9 5.6 145 5.6 146 5.6 147 5.7 148 5.7 149 5.7 150 5.7 151 5.6 152 5.6 153.1 5.6 154.1 5.6 155.1 5.6 156.1 5.6 157.1 5.6 158.1 5.6 159.1 5.6 160.2 5.6 161.2 5.6 162.2 5.6 163.2 5.6 164.2 5.6 165.2 5.6 166.2 5.6 167.3 5.6 168.3 5.6 169.3 5.6 170.3 5.6 171.3 5.6 172.3 5.6 173.3 5.6 174.3 5.6 175.4 5.6 176.4 5.6 177.4 5.6 178.4 5.6 179.4 5.6 180.4 5.6 181.4 5.6 182.5 5.6 183.5 5.7 184.5 5.7 185.5 5.7 186.5 5.7 187.5 5.7 188.5 5.7 189.6 5.7 190.6 5.6 191.6 5.6 192.6 5.6 193.6 5.6 194.6 5.6 195.6 5.6 196.6 5.7 197.7 5.7 198.7 5.7 199.7 5.7 200.7 5.7 201.7 5.7 202.7 5.7 203.7 5.7 204.8 5.7 205.8 5.8 206.8 5.8 207.8 5.9 208.8 5.9 209.8 6 210.8 6.1 211.9 6.2 212.9 13.1 213.9 16.5 214.9 12.1 215.9 10.8 216.9 8.7 217.9 8 218.9 7.4 220 6.9 221 6.9 222 6.9 223 6.6 224 6.3 225 6.4 226 6.4 227.1 6.5 228.1 6.5 229.1 6.2 230.1 5.8 231.1 5.7 232.1 5.7 233.1 5.7 234.2 5.7 235.2 5.7 236.2 5.7 237.2 5.7 238.2 5.7 239.2 5.7 240.2 5.7 241.2 5.7 242.3 5.7 243.3 5.7 244.3 5.7 245.3 5.6 246.3 5.6 247.3 5.6 248.3 5.6 249.4 5.6 250.4 5.6 251.4 5.6 252.4 5.6 253.4 5.6 254.4 5.6 255.4 5.6 256.5 5.6 257.5 5.6 258.5 5.6 259.5 5.6 260.5 5.6 261.5 5.6 262.5 5.6 263.5 5.6 264.6 5.6 265.6 5.6 266.6 5.7 267.6 5.8 268.6 5.9 269.6 7 270.6 8 271.7 7.4 272.7 6.8 273.7 6.8 274.7 7 275.7 8.1 276.7 16.5 277.7 14.4 278.8 13 279.8 10.7 280.8 9 281.8 8.2 282.8 11.2 283.8 11.8 284.8 10.7 285.8 10.7 286.9 10.7 287.9 15.2 288.9 12.6 289.9 11.3 290.9 10.4 291.9 9.7 292.9 9 294 8.5 295 8.1 296 7.4 297 7 298 7 299 7 300 6.9 301.1 6.8 302.1 6.7 303.1 6.6 304.1 6.6 305.1 6.5 306.1 6.5 307.1 6.4 308.1 6.3 309.2 6.3 310.2 6.2 311.2 6.2 312.2 6.1 313.2 6 314.2 6 315.2 6 316.3 6.4 317.3 7 318.3 7.3 319.3 7.5 320.3 7.6 321.3 7.7 322.3 7.5 323.4 7.1 324.4 6.7 325.4 6.5 326.4 6.5 327.4 6.5 328.4 6.4 329.4 6.3 330.4 6.2 331.5 6.1 332.5 6.1 333.5 6 334.5 6 335.5 5.9 336.5 5.9 337.5 5.9 338.6 5.8 339.6 5.8 340.6 5.8 341.6 5.8 342.6 5.8 343.6 5.8 344.6 5.7 345.7 5.7 346.7 5.7 347.7 5.7 348.7 5.7 349.7 5.7 350.7 5.7 351.7 5.6 352.7 5.6 353.8 5.6 354.8 5.6 355.8 5.6 356.8 5.6 357.8 5.6 358.8 5.6 359.8 5.6 360.9 5.6 361.9 5.6 362.9 5.6 363.9 5.6 364.9 5.6 365.9 5.6 366.9 5.6 368 5.6 369 5.6 370 5.6 371 5.6 372 5.6 373 5.7 374 5.7 375 5.9 376.1 6.5 377.1 7.8 378.1 12.3 379.1 12 380.1 24.4 381.1 22 382.1 21 383.2 17.6 384.2 14.8 385.2 12.8 386.2 10.8 387.2 9.3 388.2 8.6 389.2 8.4 390.3 7.8 391.3 7.4 392.3 7.3 393.3 7.2 394.3 6.9 395.3 6.7 396.3 6.5 397.3 6.4 398.4 6.3 399.4 6.4 400.4 6.6 401.4 6.9 402.4 7.5 403.4 8.3 404.4 9.3 405.5 11.3 406.5 10.7 407.5 9.6 408.5 9 409.5 8.6 410.5 7.5 411.5 7.4 412.6 7.3 413.6 7.3 414.6 6.9 415.6 6.7 416.6 6.9 417.6 6.9 418.6 6.4 419.6 6.5 420.7 6.2 421.7 6.1 422.7 6.1 423.7 6.2 424.7 6.1 425.7 6 426.7 6 427.8 5.9 428.8 5.9 429.8 5.8 430.8 5.8 431.8 6.1 432.8 6.1 433.8 6 434.9 6 435.9 6.1 436.9 6.1 437.9 6 438.9 5.8 439.9 5.7 440.9 5.7 441.9 5.6 443 5.6 444 5.6 445 5.6 446 5.6 447 5.6 448 5.6 449 5.6 450.1 5.6 451.1 5.6 452.1 5.6 453.1 5.6 454.1 5.6 455.1 5.6 456.1 5.6 457.2 5.6 458.2 5.6 459.2 5.6 460.2 5.6 461.2 5.6 462.2 5.6 463.2 5.6 464.2 5.6 465.3 5.6 466.3 5.6 467.3 5.6 468.3 5.6 469.3 5.6 470.3 5.6 471.3 5.6 472.4 5.6 473.4 5.6 474.4 5.6 475.4 5.6 476.4 5.6 477.4 5.6 478.4 5.6 479.5 5.6 480.5 5.6 481.5 5.6 482.5 5.6 483.5 5.6 484.5 5.6 485.5 5.6 486.5 5.6 487.6 5.6 488.6 5.6 489.6 5.7 490.6 5.7 491.6 5.7 492.6 5.7 493.6 5.6 494.7 5.6 495.7 5.6 496.7 5.6 497.7 5.6 498.7 5.6 499.7 5.6 500.7 5.6 501.8 5.6 502.8 5.6 503.8 5.6 504.8 5.6 505.8 5.6 506.8 5.6 507.8 5.6 508.8 5.6 509.9 5.6 510.9 5.6 511.9 5.6 512.9 5.6 513.9 5.6 514.9 5.6 515.9 5.6 517 5.6 518 5.6 519 5.6 520 5.6" transform="matrix(1,0,0,-1,67.8,392.5)" fill="#d2dbee" fill-opacity="0.2" class="zr0-cls-0"></polygon>
</g>
<g clip-path="url(#zr0-c2)">
<polyline points="0 5.7 1 5.7 2 5.7 3 5.7 4.1 5.7 5.1 5.7 6.1 5.7 7.1 5.7 8.1 5.7 9.1 5.7 10.1 5.7 11.2 5.7 12.2 5.7 13.2 5.7 14.2 5.7 15.2 5.7 16.2 5.7 17.2 5.7 18.2 5.7 19.3 5.7 20.3 5.7 21.3 5.7 22.3 5.7 23.3 5.6 24.3 5.6 25.3 5.6 26.4 5.6 27.4 5.6 28.4 5.7 29.4 5.7 30.4 5.7 31.4 5.7 32.4 5.7 33.5 5.7 34.5 5.7 35.5 5.7 36.5 5.7 37.5 5.7 38.5 5.7 39.5 5.7 40.5 5.7 41.6 5.7 42.6 5.7 43.6 5.7 44.6 5.7 45.6 5.7 46.6 5.7 47.6 5.7 48.7 5.7 49.7 5.6 50.7 5.6 51.7 5.6 52.7 5.6 53.7 5.6 54.7 5.6 55.8 5.6 56.8 5.6 57.8 5.6 58.8 5.6 59.8 5.6 60.8 5.6 61.8 5.6 62.8 5.6 63.9 5.6 64.9 5.6 65.9 5.6 66.9 5.6 67.9 5.6 68.9 5.6 69.9 5.6 71 5.6 72 5.6 73 5.6 74 5.6 75 5.6 76 5.6 77 5.6 78.1 5.6 79.1 5.6 80.1 5.6 81.1 5.6 82.1 5.6 83.1 5.6 84.1 5.6 85.1 5.6 86.2 5.6 87.2 5.6 88.2 5.6 89.2 5.7 90.2 5.8 91.2 5.8 92.2 5.8 93.3 5.7 94.3 5.7 95.3 5.7 96.3 5.7 97.3 5.7 98.3 5.7 99.3 5.7 100.4 5.7 101.4 5.7 102.4 5.6 103.4 5.6 104.4 5.6 105.4 5.6 106.4 5.6 107.4 5.6 108.5 5.6 109.5 5.6 110.5 5.6 111.5 5.6 112.5 5.6 113.5 5.6 114.5 5.6 115.6 5.6 116.6 5.6 117.6 5.6 118.6 5.6 119.6 5.6 120.6 5.6 121.6 5.6 122.7 5.6 123.7 5.6 124.7 5.6 125.7 5.6 126.7 5.6 127.7 5.6 128.7 5.6 129.7 5.6 130.8 5.6 131.8 5.6 132.8 5.6 133.8 5.6 134.8 5.6 135.8 5.6 136.8 5.6 137.9 5.6 138.9 5.6 139.9 5.6 140.9 5.6 141.9 5.6 142.9 5.6 143.9 5.6 145 5.6 146 5.6 147 5.7 148 5.7 149 5.7 150 5.7 151 5.6 152 5.6 153.1 5.6 154.1 5.6 155.1 5.6 156.1 5.6 157.1 5.6 158.1 5.6 159.1 5.6 160.2 5.6 161.2 5.6 162.2 5.6 163.2 5.6 164.2 5.6 165.2 5.6 166.2 5.6 167.3 5.6 168.3 5.6 169.3 5.6 170.3 5.6 171.3 5.6 172.3 5.6 173.3 5.6 174.3 5.6 175.4 5.6 176.4 5.6 177.4 5.6 178.4 5.6 179.4 5.6 180.4 5.6 181.4 5.6 182.5 5.6 183.5 5.7 184.5 5.7 185.5 5.7 186.5 5.7 187.5 5.7 188.5 5.7 189.6 5.7 190.6 5.6 191.6 5.6 192.6 5.6 193.6 5.6 194.6 5.6 195.6 5.6 196.6 5.7 197.7 5.7 198.7 5.7 199.7 5.7 200.7 5.7 201.7 5.7 202.7 5.7 203.7 5.7 204.8 5.7 205.8 5.8 206.8 5.8 207.8 5.9 208.8 5.9 209.8 6 210.8 6.1 211.9 6.2 212.9 13.1 213.9 16.5 214.9 12.1 215.9 10.8 216.9 8.7 217.9 8 218.9 7.4 220 6.9 221 6.9 222 6.9 223 6.6 224 6.3 225 6.4 226 6.4 227.1 6.5 228.1 6.5 229.1 6.2 230.1 5.8 231.1 5.7 232.1 5.7 233.1 5.7 234.2 5.7 235.2 5.7 236.2 5.7 237.2 5.7 238.2 5.7 239.2 5.7 240.2 5.7 241.2 5.7 242.3 5.7 243.3 5.7 244.3 5.7 245.3 5.6 246.3 5.6 247.3 5.6 248.3 5.6 249.4 5.6 250.4 5.6 251.4 5.6 252.4 5.6 253.4 5.6 254.4 5.6 255.4 5.6 256.5 5.6 257.5 5.6 258.5 5.6 259.5 5.6 260.5 5.6 261.5 5.6 262.5 5.6 263.5 5.6 264.6 5.6 265.6 5.6 266.6 5.7 267.6 5.8 268.6 5.9 269.6 7 270.6 8 271.7 7.4 272.7 6.8 273.7 6.8 274.7 7 275.7 8.1 276.7 16.5 277.7 14.4 278.8 13 279.8 10.7 280.8 9 281.8 8.2 282.8 11.2 283.8 11.8 284.8 10.7 285.8 10.7 286.9 10.7 287.9 15.2 288.9 12.6 289.9 11.3 290.9 10.4 291.9 9.7 292.9 9 294 8.5 295 8.1 296 7.4 297 7 298 7 299 7 300 6.9 301.1 6.8 302.1 6.7 303.1 6.6 304.1 6.6 305.1 6.5 306.1 6.5 307.1 6.4 308.1 6.3 309.2 6.3 310.2 6.2 311.2 6.2 312.2 6.1 313.2 6 314.2 6 315.2 6 316.3 6.4 317.3 7 318.3 7.3 319.3 7.5 320.3 7.6 321.3 7.7 322.3 7.5 323.4 7.1 324.4 6.7 325.4 6.5 326.4 6.5 327.4 6.5 328.4 6.4 329.4 6.3 330.4 6.2 331.5 6.1 332.5 6.1 333.5 6 334.5 6 335.5 5.9 336.5 5.9 337.5 5.9 338.6 5.8 339.6 5.8 340.6 5.8 341.6 5.8 342.6 5.8 343.6 5.8 344.6 5.7 345.7 5.7 346.7 5.7 347.7 5.7 348.7 5.7 349.7 5.7 350.7 5.7 351.7 5.6 352.7 5.6 353.8 5.6 354.8 5.6 355.8 5.6 356.8 5.6 357.8 5.6 358.8 5.6 359.8 5.6 360.9 5.6 361.9 5.6 362.9 5.6 363.9 5.6 364.9 5.6 365.9 5.6 366.9 5.6 368 5.6 369 5.6 370 5.6 371 5.6 372 5.6 373 5.7 374 5.7 375 5.9 376.1 6.5 377.1 7.8 378.1 12.3 379.1 12 380.1 24.4 381.1 22 382.1 21 383.2 17.6 384.2 14.8 385.2 12.8 386.2 10.8 387.2 9.3 388.2 8.6 389.2 8.4 390.3 7.8 391.3 7.4 392.3 7.3 393.3 7.2 394.3 6.9 395.3 6.7 396.3 6.5 397.3 6.4 398.4 6.3 399.4 6.4 400.4 6.6 401.4 6.9 402.4 7.5 403.4 8.3 404.4 9.3 405.5 11.3 406.5 10.7 407.5 9.6 408.5 9 409.5 8.6 410.5 7.5 411.5 7.4 412.6 7.3 413.6 7.3 414.6 6.9 415.6 6.7 416.6 6.9 417.6 6.9 418.6 6.4 419.6 6.5 420.7 6.2 421.7 6.1 422.7 6.1 423.7 6.2 424.7 6.1 425.7 6 426.7 6 427.8 5.9 428.8 5.9 429.8 5.8 430.8 5.8 431.8 6.1 432.8 6.1 433.8 6 434.9 6 435.9 6.1 436.9 6.1 437.9 6 438.9 5.8 439.9 5.7 440.9 5.7 441.9 5.6 443 5.6 444 5.6 445 5.6 446 5.6 447 5.6 448 5.6 449 5.6 450.1 5.6 451.1 5.6 452.1 5.6 453.1 5.6 454.1 5.6 455.1 5.6 456.1 5.6 457.2 5.6 458.2 5.6 459.2 5.6 460.2 5.6 461.2 5.6 462.2 5.6 463.2 5.6 464.2 5.6 465.3 5.6 466.3 5.6 467.3 5.6 468.3 5.6 469.3 5.6 470.3 5.6 471.3 5.6 472.4 5.6 473.4 5.6 474.4 5.6 475.4 5.6 476.4 5.6 477.4 5.6 478.4 5.6 479.5 5.6 480.5 5.6 481.5 5.6 482.5 5.6 483.5 5.6 484.5 5.6 485.5 5.6 486.5 5.6 487.6 5.6 488.6 5.6 489.6 5.7 490.6 5.7 491.6 5.7 492.6 5.7 493.6 5.6 494.7 5.6 495.7 5.6 496.7 5.6 497.7 5.6 498.7 5.6 499.7 5.6 500.7 5.6 501.8 5.6 502.8 5.6 503.8 5.6 504.8 5.6 505.8 5.6 506.8 5.6 507.8 5.6 508.8 5.6 509.9 5.6 510.9 5.6 511.9 5.6 512.9 5.6 513.9 5.6 514.9 5.6 515.9 5.6 517 5.6 518 5.6 519 5.6 520 5.6" transform="matrix(1,0,0,-1,67.8,392.5)" fill="transparent" stroke="#d2dbee" stroke-width="0.5" class="zr0-cls-0"></polyline>
</g>
<g clip-path="url(#zr0-c3)">
<polyline points="0 5.7 1 5.7 2 5.7 3 5.7 4.1 5.7 5.1 5.7 6.1 5.7 7.1 5.7 8.1 5.7 9.1 5.7 10.1 5.7 11.2 5.7 12.2 5.7 13.2 5.7 14.2 5.7 15.2 5.7 16.2 5.7 17.2 5.7 18.2 5.7 19.3 5.7 20.3 5.7 21.3 5.7 22.3 5.7 23.3 5.6 24.3 5.6 25.3 5.6 26.4 5.6 27.4 5.6 28.4 5.7 29.4 5.7 30.4 5.7 31.4 5.7 32.4 5.7 33.5 5.7 34.5 5.7 35.5 5.7 36.5 5.7 37.5 5.7 38.5 5.7 39.5 5.7 40.5 5.7 41.6 5.7 42.6 5.7 43.6 5.7 44.6 5.7 45.6 5.7 46.6 5.7 47.6 5.7 48.7 5.7 49.7 5.6 50.7 5.6 51.7 5.6 52.7 5.6 53.7 5.6 54.7 5.6 55.8 5.6 56.8 5.6 57.8 5.6 58.8 5.6 59.8 5.6 60.8 5.6 61.8 5.6 62.8 5.6 63.9 5.6 64.9 5.6 65.9 5.6 66.9 5.6 67.9 5.6 68.9 5.6 69.9 5.6 71 5.6 72 5.6 73 5.6 74 5.6 75 5.6 76 5.6 77 5.6 78.1 5.6 79.1 5.6 80.1 5.6 81.1 5.6 82.1 5.6 83.1 5.6 84.1 5.6 85.1 5.6 86.2 5.6 87.2 5.6 88.2 5.6 89.2 5.7 90.2 5.8 91.2 5.8 92.2 5.8 93.3 5.7 94.3 5.7 95.3 5.7 96.3 5.7 97.3 5.7 98.3 5.7 99.3 5.7 100.4 5.7 101.4 5.7 102.4 5.6 103.4 5.6 104.4 5.6 105.4 5.6 106.4 5.6 107.4 5.6 108.5 5.6 109.5 5.6 110.5 5.6 111.5 5.6 112.5 5.6 113.5 5.6 114.5 5.6 115.6 5.6 116.6 5.6 117.6 5.6 118.6 5.6 119.6 5.6 120.6 5.6 121.6 5.6 122.7 5.6 123.7 5.6 124.7 5.6 125.7 5.6 126.7 5.6 127.7 5.6 128.7 5.6 129.7 5.6 130.8 5.6 131.8 5.6 132.8 5.6 133.8 5.6 134.8 5.6 135.8 5.6 136.8 5.6 137.9 5.6 138.9 5.6 139.9 5.6 140.9 5.6 141.9 5.6 142.9 5.6 143.9 5.6 145 5.6 146 5.6 147 5.7 148 5.7 149 5.7 150 5.7 151 5.6 152 5.6 153.1 5.6 154.1 5.6 155.1 5.6 156.1 5.6 157.1 5.6 158.1 5.6 159.1 5.6 160.2 5.6 161.2 5.6 162.2 5.6 163.2 5.6 164.2 5.6 165.2 5.6 166.2 5.6 167.3 5.6 168.3 5.6 169.3 5.6 170.3 5.6 171.3 5.6 172.3 5.6 173.3 5.6 174.3 5.6 175.4 5.6 176.4 5.6 177.4 5.6 178.4 5.6 179.4 5.6 180.4 5.6 181.4 5.6 182.5 5.6 183.5 5.7 184.5 5.7 185.5 5.7 186.5 5.7 187.5 5.7 188.5 5.7 189.6 5.7 190.6 5.6 191.6 5.6 192.6 5.6 193.6 5.6 194.6 5.6 195.6 5.6 196.6 5.7 197.7 5.7 198.7 5.7 199.7 5.7 200.7 5.7 201.7 5.7 202.7 5.7 203.7 5.7 204.8 5.7 205.8 5.8 206.8 5.8 207.8 5.9 208.8 5.9 209.8 6 210.8 6.1 211.9 6.2 212.9 13.1 213.9 16.5 214.9 12.1 215.9 10.8 216.9 8.7 217.9 8 218.9 7.4 220 6.9 221 6.9 222 6.9 223 6.6 224 6.3 225 6.4 226 6.4 227.1 6.5 228.1 6.5 229.1 6.2 230.1 5.8 231.1 5.7 232.1 5.7 233.1 5.7 234.2 5.7 235.2 5.7 236.2 5.7 237.2 5.7 238.2 5.7 239.2 5.7 240.2 5.7 241.2 5.7 242.3 5.7 243.3 5.7 244.3 5.7 245.3 5.6 246.3 5.6 247.3 5.6 248.3 5.6 249.4 5.6 250.4 5.6 251.4 5.6 252.4 5.6 253.4 5.6 254.4 5.6 255.4 5.6 256.5 5.6 257.5 5.6 258.5 5.6 259.5 5.6 260.5 5.6 261.5 5.6 262.5 5.6 263.5 5.6 264.6 5.6 265.6 5.6 266.6 5.7 267.6 5.8 268.6 5.9 269.6 7 270.6 8 271.7 7.4 272.7 6.8 273.7 6.8 274.7 7 275.7 8.1 276.7 16.5 277.7 14.4 278.8 13 279.8 10.7 280.8 9 281.8 8.2 282.8 11.2 283.8 11.8 284.8 10.7 285.8 10.7 286.9 10.7 287.9 15.2 288.9 12.6 289.9 11.3 290.9 10.4 291.9 9.7 292.9 9 294 8.5 295 8.1 296 7.4 297 7 298 7 299 7 300 6.9 301.1 6.8 302.1 6.7 303.1 6.6 304.1 6.6 305.1 6.5 306.1 6.5 307.1 6.4 308.1 6.3 309.2 6.3 310.2 6.2 311.2 6.2 312.2 6.1 313.2 6 314.2 6 315.2 6 316.3 6.4 317.3 7 318.3 7.3 319.3 7.5 320.3 7.6 321.3 7.7 322.3 7.5 323.4 7.1 324.4 6.7 325.4 6.5 326.4 6.5 327.4 6.5 328.4 6.4 329.4 6.3 330.4 6.2 331.5 6.1 332.5 6.1 333.5 6 334.5 6 335.5 5.9 336.5 5.9 337.5 5.9 338.6 5.8 339.6 5.8 340.6 5.8 341.6 5.8 342.6 5.8 343.6 5.8 344.6 5.7 345.7 5.7 346.7 5.7 347.7 5.7 348.7 5.7 349.7 5.7 350.7 5.7 351.7 5.6 352.7 5.6 353.8 5.6 354.8 5.6 355.8 5.6 356.8 5.6 357.8 5.6 358.8 5.6 359.8 5.6 360.9 5.6 361.9 5.6 362.9 5.6 363.9 5.6 364.9 5.6 365.9 5.6 366.9 5.6 368 5.6 369 5.6 370 5.6 371 5.6 372 5.6 373 5.7 374 5.7 375 5.9 376.1 6.5 377.1 7.8 378.1 12.3 379.1 12 380.1 24.4 381.1 22 382.1 21 383.2 17.6 384.2 14.8 385.2 12.8 386.2 10.8 387.2 9.3 388.2 8.6 389.2 8.4 390.3 7.8 391.3 7.4 392.3 7.3 393.3 7.2 394.3 6.9 395.3 6.7 396.3 6.5 397.3 6.4 398.4 6.3 399.4 6.4 400.4 6.6 401.4 6.9 402.4 7.5 403.4 8.3 404.4 9.3 405.5 11.3 406.5 10.7 407.5 9.6 408.5 9 409.5 8.6 410.5 7.5 411.5 7.4 412.6 7.3 413.6 7.3 414.6 6.9 415.6 6.7 416.6 6.9 417.6 6.9 418.6 6.4 419.6 6.5 420.7 6.2 421.7 6.1 422.7 6.1 423.7 6.2 424.7 6.1 425.7 6 426.7 6 427.8 5.9 428.8 5.9 429.8 5.8 430.8 5.8 431.8 6.1 432.8 6.1 433.8 6 434.9 6 435.9 6.1 436.9 6.1 437.9 6 438.9 5.8 439.9 5.7 440.9 5.7 441.9 5.6 443 5.6 444 5.6 445 5.6 446 5.6 447 5.6 448 5.6 449 5.6 450.1 5.6 451.1 5.6 452.1 5.6 453.1 5.6 454.1 5.6 455.1 5.6 456.1 5.6 457.2 5.6 458.2 5.6 459.2 5.6 460.2 5.6 461.2 5.6 462.2 5.6 463.2 5.6 464.2 5.6 465.3 5.6 466.3 5.6 467.3 5.6 468.3 5.6 469.3 5.6 470.3 5.6 471.3 5.6 472.4 5.6 473.4 5.6 474.4 5.6 475.4 5.6 476.4 5.6 477.4 5.6 478.4 5.6 479.5 5.6 480.5 5.6 481.5 5.6 482.5 5.6 483.5 5.6 484.5 5.6 485.5 5.6 486.5 5.6 487.6 5.6 488.6 5.6 489.6 5.7 490.6 5.7 491.6 5.7 492.6 5.7 493.6 5.6 494.7 5.6 495.7 5.6 496.7 5.6 497.7 5.6 498.7 5.6 499.7 5.6 500.7 5.6 501.8 5.6 502.8 5.6 503.8 5.6 504.8 5.6 505.8 5.6 506.8 5.6 507.8 5.6 508.8 5.6 509.9 5.6 510.9 5.6 511.9 5.6 512.9 5.6 513.9 5.6 514.9 5.6 515.9 5.6 517 5.6 518 5.6 519 5.6 520 5.6" transform="matrix(1,0,0,-1,67.8,392.5)" fill="transparent" stroke="#8fb0f7" stroke-width="0.5" class="zr0-cls-0"></polyline>
</g>
<g clip-path="url(#zr0-c4)">
<polyline points="0 5.7 1 5.7 2 5.7 3 5.7 4.1 5.7 5.1 5.7 6.1 5.7 7.1 5.7 8.1 5.7 9.1 5.7 10.1 5.7 11.2 5.7 12.2 5.7 13.2 5.7 14.2 5.7 15.2 5.7 16.2 5.7 17.2 5.7 18.2 5.7 19.3 5.7 20.3 5.7 21.3 5.7 22.3 5.7 23.3 5.6 24.3 5.6 25.3 5.6 26.4 5.6 27.4 5.6 28.4 5.7 29.4 5.7 30.4 5.7 31.4 5.7 32.4 5.7 33.5 5.7 34.5 5.7 35.5 5.7 36.5 5.7 37.5 5.7 38.5 5.7 39.5 5.7 40.5 5.7 41.6 5.7 42.6 5.7 43.6 5.7 44.6 5.7 45.6 5.7 46.6 5.7 47.6 5.7 48.7 5.7 49.7 5.6 50.7 5.6 51.7 5.6 52.7 5.6 53.7 5.6 54.7 5.6 55.8 5.6 56.8 5.6 57.8 5.6 58.8 5.6 59.8 5.6 60.8 5.6 61.8 5.6 62.8 5.6 63.9 5.6 64.9 5.6 65.9 5.6 66.9 5.6 67.9 5.6 68.9 5.6 69.9 5.6 71 5.6 72 5.6 73 5.6 74 5.6 75 5.6 76 5.6 77 5.6 78.1 5.6 79.1 5.6 80.1 5.6 81.1 5.6 82.1 5.6 83.1 5.6 84.1 5.6 85.1 5.6 86.2 5.6 87.2 5.6 88.2 5.6 89.2 5.7 90.2 5.8 91.2 5.8 92.2 5.8 93.3 5.7 94.3 5.7 95.3 5.7 96.3 5.7 97.3 5.7 98.3 5.7 99.3 5.7 100.4 5.7 101.4 5.7 102.4 5.6 103.4 5.6 104.4 5.6 105.4 5.6 106.4 5.6 107.4 5.6 108.5 5.6 109.5 5.6 110.5 5.6 111.5 5.6 112.5 5.6 113.5 5.6 114.5 5.6 115.6 5.6 116.6 5.6 117.6 5.6 118.6 5.6 119.6 5.6 120.6 5.6 121.6 5.6 122.7 5.6 123.7 5.6 124.7 5.6 125.7 5.6 126.7 5.6 127.7 5.6 128.7 5.6 129.7 5.6 130.8 5.6 131.8 5.6 132.8 5.6 133.8 5.6 134.8 5.6 135.8 5.6 136.8 5.6 137.9 5.6 138.9 5.6 139.9 5.6 140.9 5.6 141.9 5.6 142.9 5.6 143.9 5.6 145 5.6 146 5.6 147 5.7 148 5.7 149 5.7 150 5.7 151 5.6 152 5.6 153.1 5.6 154.1 5.6 155.1 5.6 156.1 5.6 157.1 5.6 158.1 5.6 159.1 5.6 160.2 5.6 161.2 5.6 162.2 5.6 163.2 5.6 164.2 5.6 165.2 5.6 166.2 5.6 167.3 5.6 168.3 5.6 169.3 5.6 170.3 5.6 171.3 5.6 172.3 5.6 173.3 5.6 174.3 5.6 175.4 5.6 176.4 5.6 177.4 5.6 178.4 5.6 179.4 5.6 180.4 5.6 181.4 5.6 182.5 5.6 183.5 5.7 184.5 5.7 185.5 5.7 186.5 5.7 187.5 5.7 188.5 5.7 189.6 5.7 190.6 5.6 191.6 5.6 192.6 5.6 193.6 5.6 194.6 5.6 195.6 5.6 196.6 5.7 197.7 5.7 198.7 5.7 199.7 5.7 200.7 5.7 201.7 5.7 202.7 5.7 203.7 5.7 204.8 5.7 205.8 5.8 206.8 5.8 207.8 5.9 208.8 5.9 209.8 6 210.8 6.1 211.9 6.2 212.9 13.1 213.9 16.5 214.9 12.1 215.9 10.8 216.9 8.7 217.9 8 218.9 7.4 220 6.9 221 6.9 222 6.9 223 6.6 224 6.3 225 6.4 226 6.4 227.1 6.5 228.1 6.5 229.1 6.2 230.1 5.8 231.1 5.7 232.1 5.7 233.1 5.7 234.2 5.7 235.2 5.7 236.2 5.7 237.2 5.7 238.2 5.7 239.2 5.7 240.2 5.7 241.2 5.7 242.3 5.7 243.3 5.7 244.3 5.7 245.3 5.6 246.3 5.6 247.3 5.6 248.3 5.6 249.4 5.6 250.4 5.6 251.4 5.6 252.4 5.6 253.4 5.6 254.4 5.6 255.4 5.6 256.5 5.6 257.5 5.6 258.5 5.6 259.5 5.6 260.5 5.6 261.5 5.6 262.5 5.6 263.5 5.6 264.6 5.6 265.6 5.6 266.6 5.7 267.6 5.8 268.6 5.9 269.6 7 270.6 8 271.7 7.4 272.7 6.8 273.7 6.8 274.7 7 275.7 8.1 276.7 16.5 277.7 14.4 278.8 13 279.8 10.7 280.8 9 281.8 8.2 282.8 11.2 283.8 11.8 284.8 10.7 285.8 10.7 286.9 10.7 287.9 15.2 288.9 12.6 289.9 11.3 290.9 10.4 291.9 9.7 292.9 9 294 8.5 295 8.1 296 7.4 297 7 298 7 299 7 300 6.9 301.1 6.8 302.1 6.7 303.1 6.6 304.1 6.6 305.1 6.5 306.1 6.5 307.1 6.4 308.1 6.3 309.2 6.3 310.2 6.2 311.2 6.2 312.2 6.1 313.2 6 314.2 6 315.2 6 316.3 6.4 317.3 7 318.3 7.3 319.3 7.5 320.3 7.6 321.3 7.7 322.3 7.5 323.4 7.1 324.4 6.7 325.4 6.5 326.4 6.5 327.4 6.5 328.4 6.4 329.4 6.3 330.4 6.2 331.5 6.1 332.5 6.1 333.5 6 334.5 6 335.5 5.9 336.5 5.9 337.5 5.9 338.6 5.8 339.6 5.8 340.6 5.8 341.6 5.8 342.6 5.8 343.6 5.8 344.6 5.7 345.7 5.7 346.7 5.7 347.7 5.7 348.7 5.7 349.7 5.7 350.7 5.7 351.7 5.6 352.7 5.6 353.8 5.6 354.8 5.6 355.8 5.6 356.8 5.6 357.8 5.6 358.8 5.6 359.8 5.6 360.9 5.6 361.9 5.6 362.9 5.6 363.9 5.6 364.9 5.6 365.9 5.6 366.9 5.6 368 5.6 369 5.6 370 5.6 371 5.6 372 5.6 373 5.7 374 5.7 375 5.9 376.1 6.5 377.1 7.8 378.1 12.3 379.1 12 380.1 24.4 381.1 22 382.1 21 383.2 17.6 384.2 14.8 385.2 12.8 386.2 10.8 387.2 9.3 388.2 8.6 389.2 8.4 390.3 7.8 391.3 7.4 392.3 7.3 393.3 7.2 394.3 6.9 395.3 6.7 396.3 6.5 397.3 6.4 398.4 6.3 399.4 6.4 400.4 6.6 401.4 6.9 402.4 7.5 403.4 8.3 404.4 9.3 405.5 11.3 406.5 10.7 407.5 9.6 408.5 9 409.5 8.6 410.5 7.5 411.5 7.4 412.6 7.3 413.6 7.3 414.6 6.9 415.6 6.7 416.6 6.9 417.6 6.9 418.6 6.4 419.6 6.5 420.7 6.2 421.7 6.1 422.7 6.1 423.7 6.2 424.7 6.1 425.7 6 426.7 6 427.8 5.9 428.8 5.9 429.8 5.8 430.8 5.8 431.8 6.1 432.8 6.1 433.8 6 434.9 6 435.9 6.1 436.9 6.1 437.9 6 438.9 5.8 439.9 5.7 440.9 5.7 441.9 5.6 443 5.6 444 5.6 445 5.6 446 5.6 447 5.6 448 5.6 449 5.6 450.1 5.6 451.1 5.6 452.1 5.6 453.1 5.6 454.1 5.6 455.1 5.6 456.1 5.6 457.2 5.6 458.2 5.6 459.2 5.6 460.2 5.6 461.2 5.6 462.2 5.6 463.2 5.6 464.2 5.6 465.3 5.6 466.3 5.6 467.3 5.6 468.3 5.6 469.3 5.6 470.3 5.6 471.3 5.6 472.4 5.6 473.4 5.6 474.4 5.6 475.4 5.6 476.4 5.6 477.4 5.6 478.4 5.6 479.5 5.6 480.5 5.6 481.5 5.6 482.5 5.6 483.5 5.6 484.5 5.6 485.5 5.6 486.5 5.6 487.6 5.6 488.6 5.6 489.6 5.7 490.6 5.7 491.6 5.7 492.6 5.7 493.6 5.6 494.7 5.6 495.7 5.6 496.7 5.6 497.7 5.6 498.7 5.6 499.7 5.6 500.7 5.6 501.8 5.6 502.8 5.6 503.8 5.6 504.8 5.6 505.8 5.6 506.8 5.6 507.8 5.6 508.8 5.6 509.9 5.6 510.9 5.6 511.9 5.6 512.9 5.6 513.9 5.6 514.9 5.6 515.9 5.6 517 5.6 518 5.6 519 5.6 520 5.6" transform="matrix(1,0,0,-1,67.8,392.5)" fill="transparent" stroke="#d2dbee" stroke-width="0.5" class="zr0-cls-0"></polyline>
</g>
<path d="M-5 -5l147.4 0l0 23.2l-147.4 0Z" transform="translate(15 5)" fill="rgb(0,0,0)" fill-opacity="0" stroke="#ccc" stroke-width="0" class="zr0-cls-0"></path>
<path d="M0 7L25 7" transform="translate(16 4.6)" fill="#000" stroke="#3fb1e3" stroke-width="2" stroke-linecap="butt" stroke-miterlimit="10" class="zr0-cls-0"></path>
<path d="M18.1 7A5.6 5.6 0 1 1 18.1 6.4A5.6 5.6 0 0 1 18.1 7" transform="translate(16 4.6)" fill="#fff" stroke="#3fb1e3" stroke-width="2" stroke-linecap="butt" stroke-miterlimit="10" class="zr0-cls-0"></path>
<text dominant-baseline="central" text-anchor="start" style="font-size:12px;font-family:sans-serif;" x="30" y="7" transform="translate(16 4.6)" fill="#999999">Flow</text>
<path d="M-1 0.4l56.3 0l0 13.2l-56.3 0Z" transform="translate(16 4.6)" fill="transparent" ecmeta_series_index="0" ecmeta_data_index="0" ecmeta_ssr_type="legend" class="zr0-cls-6"></path>
<path d="M0 7L25 7" transform="translate(82.32 4.6)" fill="#000" stroke="#6be6c1" stroke-width="2" stroke-linecap="butt" stroke-miterlimit="10" class="zr0-cls-0"></path>
<path d="M18.1 7A5.6 5.6 0 1 1 18.1 6.4A5.6 5.6 0 0 1 18.1 7" transform="translate(82.32 4.6)" fill="#fff" stroke="#6be6c1" stroke-width="2" stroke-linecap="butt" stroke-miterlimit="10" class="zr0-cls-0"></path>
<text dominant-baseline="central" text-anchor="start" style="font-size:12px;font-family:sans-serif;" x="30" y="7" transform="translate(82.32 4.6)" fill="#999999">Rainfall</text>
<path d="M-1 0.4l71.1 0l0 13.2l-71.1 0Z" transform="translate(82.32 4.6)" fill="transparent" ecmeta_series_index="1" ecmeta_data_index="1" ecmeta_ssr_type="legend" class="zr0-cls-6"></path>
<path d="M0 0l520 0l0 30l-520 0Z" transform="matrix(1,0,0,-1,67.8,392.5)" fill="transparent" class="zr0-cls-6"></path>
<path d="M338 0l104 0l0 30l-104 0Z" transform="matrix(1,0,0,-1,67.8,392.5)" fill="rgb(114,230,212)" fill-opacity="0.25" class="zr0-cls-0"></path>
<path d="M3.5 0.5L516.5 0.5A3 3 0 0 1 519.5 3.5L519.5 26.5A3 3 0 0 1 516.5 29.5L3.5 29.5A3 3 0 0 1 0.5 26.5L0.5 3.5A3 3 0 0 1 3.5 0.5" transform="matrix(1,0,0,-1,67.8,392.5)" fill="rgb(0,0,0)" fill-opacity="0" stroke="rgb(222,222,222)" class="zr0-cls-0"></path>
<path d="M338 29.5L442 29.5L442 34.5A2 2 0 0 1 440 36.5L340 36.5A2 2 0 0 1 338 34.5L338 29.5" transform="matrix(1,0,0,-1,67.8,392.5)" fill="#D2DBEE" fill-opacity="0.7" class="zr0-cls-0"></path>
<path d="M-2.2 -1.7C-1.9 -1.7 -1.7 -1.5 -1.7 -1.1L-1.7 1.1C-1.7 1.5 -1.9 1.7 -2.2 1.7C-2.6 1.7 -2.8 1.5 -2.8 1.1L-2.8 -1.1C-2.8 -1.5 -2.6 -1.7 -2.2 -1.7ZM0 -1.7C0.4 -1.7 0.6 -1.5 0.6 -1.1L0.6 1.1C0.6 1.5 0.4 1.7 0 1.7C-0.4 1.7 -0.6 1.5 -0.6 1.1L-0.6 -1.1C-0.6 -1.5 -0.4 -1.7 0 -1.7ZM2.2 -1.7C2.6 -1.7 2.8 -1.5 2.8 -1.1L2.8 1.1C2.8 1.5 2.6 1.7 2.2 1.7C1.9 1.7 1.7 1.5 1.7 1.1L1.7 -1.1C1.7 -1.5 1.9 -1.7 2.2 -1.7Z" transform="matrix(1,0,0,-1,457.8,359.5)" fill="#fff" class="zr0-cls-0"></path>
<path d="M0 1.63L0 2M0 0L0 0.38M-0.1 0.38L0.1 0.38A0.1 0.1 0 0 1 0.2 0.47L0.2 1.52A0.1 0.1 0 0 1 0.1 1.62L-0.1 1.63A0.1 0.1 0 0 1 -0.2 1.52L-0.2 0.47A0.1 0.1 0 0 1 -0.1 0.37Z" transform="matrix(15,0,0,-15,406.8,392.5)" fill="#cccccc" stroke="#ACB8D1" stroke-width="0.06666666666666667" class="zr0-cls-7"></path>
<path d="M0 1.63L0 2M0 0L0 0.38M-0.1 0.38L0.1 0.38A0.1 0.1 0 0 1 0.2 0.47L0.2 1.52A0.1 0.1 0 0 1 0.1 1.62L-0.1 1.63A0.1 0.1 0 0 1 -0.2 1.52L-0.2 0.47A0.1 0.1 0 0 1 -0.1 0.37Z" transform="matrix(15,0,0,-15,508.8,392.5)" fill="#cccccc" stroke="#ACB8D1" stroke-width="0.06666666666666667" class="zr0-cls-7"></path>
<path d="M-14 -15l108.8 0l0 30l-108.8 0Z" transform="translate(555.2009 15)" fill="transparent" stroke="#ccc" stroke-width="0" class="zr0-cls-0"></path>
<path d="M-126.4 -5l252.8 0l0 28l-252.8 0Z" transform="translate(325 5)" fill="rgb(0,0,0)" fill-opacity="0" stroke="#ccc" stroke-width="0" class="zr0-cls-0"></path>
<path d="M-6.5 -1.6L-0.1 4.3L6.5 -1.4M-6.5 3.8L-6.5 7.5L6.2 7.5L6.2 3.8M-0.1 4.2L-0.1 -7.5" transform="translate(555.2009 15)" fill="transparent" stroke="#999999" class="zr0-cls-8"></path>
<path d="M-7 0.9M4.5 -3L7.2 -3L7.2 -5.7M7 -2.6C5.9 -5.6 2.8 -7.9 -0.9 -7.5C-4.6 -7 -7.6 -3.7 -7.5 0.2M-4.5 3L-7.2 3L-7.2 5.7M-7 2.6C-5.9 5.6 -2.8 7.9 0.9 7.5C4.6 7 7.6 3.7 7.5 -0.2" transform="translate(582.1373 15)" fill="transparent" stroke="#999999" class="zr0-cls-8"></path>
<path d="M-7.5 -4L-0.5 -4M-4 -0.5L-4 -7.5M0.8 -4L7.5 -4L7.5 7.5L-4 7.5L-4 0.8" transform="translate(610.0952 15)" fill="transparent" stroke="#999999" class="zr0-cls-8"></path>
<path d="M-2.8 -7.5L-6 -4.3L-2.7 -1M-5.8 -4.3L6 -4.3L6 7.5L-5.8 7.5L-5.8 0.6" transform="translate(636.5476 15)" fill="transparent" stroke="#999999" class="zr0-cls-8"></path>
<text dominant-baseline="central" text-anchor="middle" style="font-size:18px;font-family:sans-serif;font-weight:bold;" xml:space="preserve" y="9" transform="translate(325 5)" fill="#666666">Rainfall and Flow Relationship</text>
<defs >
<clipPath id="zr0-c0">
<path d="M64 59.5l522 0l0 261l-522 0Z" fill="#000" class="zr0-cls-1"></path>
</clipPath>
<clipPath id="zr0-c1">
<path d="M64 59.5l522 0l0 261l-522 0Z" fill="#000" class="zr0-cls-1"></path>
</clipPath>
<clipPath id="zr0-c2">
<path d="M0 0l338 0l0 30l-338 0Z" transform="matrix(1,0,0,-1,67.8,392.5)" fill="#000" class="zr0-cls-1"></path>
</clipPath>
<clipPath id="zr0-c3">
<path d="M338 0l104 0l0 30l-104 0Z" transform="matrix(1,0,0,-1,67.8,392.5)" fill="#000" class="zr0-cls-1"></path>
</clipPath>
<clipPath id="zr0-c4">
<path d="M442 0l78 0l0 30l-78 0Z" transform="matrix(1,0,0,-1,67.8,392.5)" fill="#000" class="zr0-cls-1"></path>
</clipPath>
</defs>
<style ><![CDATA[
.zr0-cls-0:hover {
pointer-events:none;
}
.zr0-cls-1:hover {
cursor:pointer;
fill:rgba(0,0,0,1);
}
.zr0-cls-2:hover {
cursor:pointer;
fill:rgba(69,194,249,1);
}
.zr0-cls-3:hover {
cursor:pointer;
fill:rgba(117,253,212,1);
}
.zr0-cls-4:hover {
cursor:pointer;
}
.zr0-cls-5:hover {
cursor:pointer;
fill:rgba(255,255,255,1);
}
.zr0-cls-6:hover {
cursor:pointer;
fill:rgba(0,0,0,0);
}
.zr0-cls-7:hover {
cursor:pointer;
fill:rgba(224,224,224,1);
stroke:#8FB0F7;
}
.zr0-cls-8:hover {
cursor:pointer;
stroke:#666666;
}

]]>

</style>
</svg>