<svg width="600" height="450" xmlns="http://www.w3.org/2000/svg" xmlns:xlink="http://www.w3.org/1999/xlink" version="1.1" baseProfile="full" viewBox="0 0 600 450">
<rect width="600" height="450" x="0" y="0" id="0" fill="none"></rect>
<path d="M30.5 22.5L30.5 427.5M115.5 22.5L115.5 427.5M200.5 22.5L200.5 427.5M286.5 22.5L286.5 427.5M371.5 22.5L371.5 427.5M456.5 22.5L456.5 427.5M541.5 22.5L541.5 427.5M570.5 22.5L570.5 427.5" fill="#000" fill-opacity="0.2" stroke="#E0E6F1" stroke-opacity="0.2" stroke-dasharray="4,2"></path>
<path d="M30 427.5L570 427.5" fill="none" stroke="#6E7079" stroke-linecap="round"></path>
<path d="M30.5 427.5L30.5 433.5" fill="none" stroke="#6E7079"></path>
<path d="M115.5 427.5L115.5 433.5" fill="none" stroke="#6E7079"></path>
<path d="M200.5 427.5L200.5 433.5" fill="none" stroke="#6E7079"></path>
<path d="M286.5 427.5L286.5 433.5" fill="none" stroke="#6E7079"></path>
<path d="M371.5 427.5L371.5 433.5" fill="none" stroke="#6E7079"></path>
<path d="M456.5 427.5L456.5 433.5" fill="none" stroke="#6E7079"></path>
<path d="M541.5 427.5L541.5 433.5" fill="none" stroke="#6E7079"></path>
<path d="M570.5 427.5L570.5 433.5" fill="none" stroke="#6E7079"></path>
<text dominant-baseline="central" text-anchor="middle" style="font-size:12px;font-family:sans-serif;" y="6" transform="translate(30 435.5)" fill="#6E7079">0</text>
<text dominant-baseline="central" text-anchor="middle" style="font-size:12px;font-family:sans-serif;" y="6" transform="translate(115.2632 435.5)" fill="#6E7079">3</text>
<text dominant-baseline="central" text-anchor="middle" style="font-size:12px;font-family:sans-serif;" y="6" transform="translate(200.5263 435.5)" fill="#6E7079">6</text>
<text dominant-baseline="central" text-anchor="middle" style="font-size:12px;font-family:sans-serif;" y="6" transform="translate(285.7895 435.5)" fill="#6E7079">9</text>
<text dominant-baseline="central" text-anchor="middle" style="font-size:12px;font-family:sans-serif;" y="6" transform="translate(371.0526 435.5)" fill="#6E7079">12</text>
<text dominant-baseline="central" text-anchor="middle" style="font-size:12px;font-family:sans-serif;" y="6" transform="translate(456.3158 435.5)" fill="#6E7079">15</text>
<text dominant-baseline="central" text-anchor="middle" style="font-size:12px;font-family:sans-serif;" y="6" transform="translate(541.5789 435.5)" fill="#6E7079">18</text>
<text dominant-baseline="central" text-anchor="middle" style="font-size:12px;font-family:sans-serif;" y="6" transform="translate(570 435.5)" fill="#6E7079">19</text>
<path d="M30 121.4C30 121.4 42 0 58.4 0C64.7 0 77 22 86.8 38.3C99.8 59.8 102.2 94.5 115.3 94.5C125 94.5 132.9 57.3 143.7 57.3C155.7 57.3 157.8 86.9 172.1 100.9C180.6 109.2 192.5 104.4 200.5 113.1C215.2 128.9 220 162 228.9 162C242.7 162 240.3 79.7 257.4 79.7C263 79.7 275.8 79.7 285.8 84.2C298.5 90 302 99.5 314.2 107.4C324.7 114.2 333.7 121 342.6 121C356.4 121 358.4 81.6 371.1 81.6C381.1 81.6 387.3 98.3 399.5 107.7C410 115.9 418.4 125.6 427.9 125.6C441.2 125.6 442.3 88 456.3 88C465.1 88 478 88 484.7 96C500.7 114.7 497 152.9 513.2 159.3C519.8 162 531.6 162 541.6 162C554.4 162 570 138.9 570 138.9C570 138.9 554.4 162 541.6 162C531.6 162 519.8 162 513.2 159.3C497 152.9 500.7 114.7 484.7 96C478 88 465.1 88 456.3 88C442.3 88 441.2 125.6 427.9 125.6C418.4 125.6 410 115.9 399.5 107.7C387.3 98.3 381.1 81.6 371.1 81.6C358.4 81.6 356.4 121 342.6 121C333.7 121 324.7 114.2 314.2 107.4C302 99.5 298.5 90 285.8 84.2C275.8 79.7 263 79.7 257.4 79.7C240.3 79.7 242.7 162 228.9 162C220 162 215.2 128.9 200.5 113.1C192.5 104.4 180.6 109.2 172.1 100.9C157.8 86.9 155.7 57.3 143.7 57.3C132.9 57.3 125 94.5 115.3 94.5C102.2 94.5 99.8 59.8 86.8 38.3C77 22 64.7 0 58.4 0C42 0 30 121.4 30 121.4Z" transform="translate(0 63)" fill="#5470c6"></path>
<path d="M30 121.4C30 121.4 42 0 58.4 0C64.7 0 77 22 86.8 38.3C99.8 59.8 102.2 94.5 115.3 94.5C125 94.5 132.9 57.3 143.7 57.3C155.7 57.3 157.8 86.9 172.1 100.9C180.6 109.2 192.5 104.4 200.5 113.1C215.2 128.9 220 162 228.9 162C242.7 162 240.3 79.7 257.4 79.7C263 79.7 275.8 79.7 285.8 84.2C298.5 90 302 99.5 314.2 107.4C324.7 114.2 333.7 121 342.6 121C356.4 121 358.4 81.6 371.1 81.6C381.1 81.6 387.3 98.3 399.5 107.7C410 115.9 418.4 125.6 427.9 125.6C441.2 125.6 442.3 88 456.3 88C465.1 88 478 88 484.7 96C500.7 114.7 497 152.9 513.2 159.3C519.8 162 531.6 162 541.6 162C554.4 162 570 138.9 570 138.9C570 138.9 554.4 162 541.6 162C531.6 162 521.1 162 513.2 159.3C498.4 154.4 497.8 131.3 484.7 115C475 102.8 466.6 88 456.3 88C443.8 88 441.2 126.3 427.9 126.3C418.5 126.3 410.4 116.2 399.5 108.5C387.7 100.2 380.8 86.1 371.1 86.1C358.1 86.1 356.6 124.8 342.6 124.8C333.9 124.8 323.8 121.7 314.2 115C301.1 105.7 299.2 92.6 285.8 85C276.4 79.7 263 79.7 257.4 79.7C240.3 79.7 244 162 228.9 162C221.2 162 214 138.5 200.5 127.5C191.2 119.8 179.5 124.4 172.1 115.3C156.7 96.3 155.8 57.3 143.7 57.3C133 57.3 129.6 106.6 115.3 106.6C106.9 106.6 95 99.2 86.8 89.2C72.3 71.4 67.5 37.2 58.4 37.2C44.8 37.2 30 121.4 30 121.4Z" transform="translate(0 63)" fill="#91cc75"></path>
<path d="M30 121.4C30 121.4 44.8 37.2 58.4 37.2C67.5 37.2 72.3 71.4 86.8 89.2C95 99.2 106.9 106.6 115.3 106.6C129.6 106.6 133 57.3 143.7 57.3C155.8 57.3 156.7 96.3 172.1 115.3C179.5 124.4 191.2 119.8 200.5 127.5C214 138.5 221.2 162 228.9 162C244 162 240.3 79.7 257.4 79.7C263 79.7 276.4 79.7 285.8 85C299.2 92.6 301.1 105.7 314.2 115C323.8 121.7 333.9 124.8 342.6 124.8C356.6 124.8 358.1 86.1 371.1 86.1C380.8 86.1 387.7 100.2 399.5 108.5C410.4 116.2 418.5 126.3 427.9 126.3C441.2 126.3 443.8 88 456.3 88C466.6 88 475 102.8 484.7 115C497.8 131.3 498.4 154.4 513.2 159.3C521.1 162 531.6 162 541.6 162C554.4 162 570 138.9 570 138.9C570 138.9 554.4 162 541.6 162C531.6 162 521 162 513.2 160.9C498.3 158.7 498.1 131.7 484.7 115C475.3 103.1 466.6 89.5 456.3 89.5C443.8 89.5 440.5 112.7 427.9 126.3C417.7 137.3 407.4 151 399.5 151C384.7 151 384.6 86.9 371.1 86.9C361.9 86.9 356.8 124.8 342.6 124.8C334 124.8 323.2 124.8 314.2 119.5C300.5 111.4 299.5 95 285.8 85.7C276.8 79.7 263.1 79.7 257.4 79.7C240.3 79.7 244 162 228.9 162C221.3 162 214.4 129.4 200.5 128.2C191.6 127.5 178.3 128.2 172.1 127.5C155.6 125.5 154.7 57.3 143.7 57.3C132 57.3 129.3 132.4 115.3 132.4C106.6 132.4 97.4 108.3 86.8 91.4C74.7 72 67.6 41.7 58.4 41.7C44.9 41.7 30 121.4 30 121.4Z" transform="translate(0 63)" fill="#fac858"></path>
<path d="M30 121.4C30 121.4 44.9 41.7 58.4 41.7C67.6 41.7 74.7 72 86.8 91.4C97.4 108.3 106.6 132.4 115.3 132.4C129.3 132.4 132 57.3 143.7 57.3C154.7 57.3 155.6 125.5 172.1 127.5C178.3 128.2 191.6 127.5 200.5 128.2C214.4 129.4 221.3 162 228.9 162C244 162 240.3 79.7 257.4 79.7C263.1 79.7 276.8 79.7 285.8 85.7C299.5 95 300.5 111.4 314.2 119.5C323.2 124.8 334 124.8 342.6 124.8C356.8 124.8 361.9 86.9 371.1 86.9C384.6 86.9 384.7 151 399.5 151C407.4 151 417.7 137.3 427.9 126.3C440.5 112.7 443.8 89.5 456.3 89.5C466.6 89.5 475.3 103.1 484.7 115C498.1 131.7 498.3 158.7 513.2 160.9C521 162 531.6 162 541.6 162C554.4 162 570 138.9 570 138.9L570 139.6C570 139.6 554.3 162 541.6 162C531.6 162 520.9 162 513.2 161.6C498.2 160.9 498.1 131.9 484.7 115C475.4 103.1 466.1 89.5 456.3 89.5C443.4 89.5 441.3 116.4 427.9 130.9C418.6 141 407 151 399.5 151C384.3 151 384.5 86.9 371.1 86.9C361.8 86.9 356.8 125.6 342.6 125.6C334.1 125.6 323.3 125.6 314.2 119.5C300.6 110.4 299.4 96 285.8 86.5C276.7 80.1 263.1 79.7 257.4 79.7C240.3 79.7 245.5 162 228.9 162C222.7 162 212.4 151 200.5 145.7C189.7 140.8 178.1 145.7 172.1 136.6C155.3 110.9 154.6 57.3 143.7 57.3C131.9 57.3 129.8 143.8 115.3 143.8C107.1 143.8 97.2 118.9 86.8 101.3C74.5 80.5 68.3 47.8 58.4 47.8C45.6 47.8 30 121.4 30 121.4Z" transform="translate(0 63)" fill="#ee6666"></path>
<path d="M30 121.4C30 121.4 45.6 47.8 58.4 47.8C68.3 47.8 74.5 80.5 86.8 101.3C97.2 118.9 107.1 143.8 115.3 143.8C129.8 143.8 131.9 57.3 143.7 57.3C154.6 57.3 155.3 110.9 172.1 136.6C178.1 145.7 189.7 140.8 200.5 145.7C212.4 151 222.7 162 228.9 162C245.5 162 240.3 79.7 257.4 79.7C263.1 79.7 276.7 80.1 285.8 86.5C299.4 96 300.6 110.4 314.2 119.5C323.3 125.6 334.1 125.6 342.6 125.6C356.8 125.6 361.8 86.9 371.1 86.9C384.5 86.9 384.3 151 399.5 151C407 151 418.6 141 427.9 130.9C441.3 116.4 443.4 89.5 456.3 89.5C466.1 89.5 475.4 103.1 484.7 115C498.1 131.9 498.2 160.9 513.2 161.6C520.9 162 531.6 162 541.6 162C554.3 162 570 139.6 570 139.6C570 139.6 554.3 162 541.6 162C531.6 162 521 162 513.2 161.6C498.3 160.9 498 132.5 484.7 115.7C475.3 103.7 465.2 89.5 456.3 89.5C442.4 89.5 442.8 125.2 427.9 143C420 152.5 406.2 157.8 399.5 157.8C383.5 157.8 383.8 86.9 371.1 86.9C361.1 86.9 357.4 139.2 342.6 139.2C334.7 139.2 323.3 133.3 314.2 124.8C300.6 112.2 299.9 97.6 285.8 86.5C277.2 79.7 263.1 79.7 257.4 79.7C240.3 79.7 245.5 162 228.9 162C222.8 162 212.5 150.9 200.5 146.4C189.8 142.5 182.9 144.9 172.1 141.1C160.2 136.9 154.8 126.3 143.7 126.3C132.1 126.3 126.3 143.8 115.3 143.8C103.5 143.8 94.2 134.1 86.8 122.5C71.5 98.5 69.9 54.6 58.4 54.6C47.1 54.6 30 121.4 30 121.4Z" transform="translate(0 63)" fill="#73c0de"></path>
<path d="M30 121.4C30 121.4 47.1 54.6 58.4 54.6C69.9 54.6 71.5 98.5 86.8 122.5C94.2 134.1 103.5 143.8 115.3 143.8C126.3 143.8 132.1 126.3 143.7 126.3C154.8 126.3 160.2 136.9 172.1 141.1C182.9 144.9 189.8 142.5 200.5 146.4C212.5 150.9 222.8 162 228.9 162C245.5 162 240.3 79.7 257.4 79.7C263.1 79.7 277.2 79.7 285.8 86.5C299.9 97.6 300.6 112.2 314.2 124.8C323.3 133.3 334.7 139.2 342.6 139.2C357.4 139.2 361.1 86.9 371.1 86.9C383.8 86.9 383.5 157.8 399.5 157.8C406.2 157.8 420 152.5 427.9 143C442.8 125.2 442.4 89.5 456.3 89.5C465.2 89.5 475.3 103.7 484.7 115.7C498 132.5 498.3 160.9 513.2 161.6C521 162 531.6 162 541.6 162C554.3 162 570 139.6 570 139.6C570 139.6 554.3 161.5 541.6 162C531.6 162.4 524.4 162.4 513.2 162.4C501.7 162.4 495 162.1 484.7 157.4C472.2 151.8 468.6 136.6 456.3 136.6C445.9 136.6 439.1 141.7 427.9 146.1C416.3 150.5 407.5 158.6 399.5 158.6C384.8 158.6 383.1 109.6 371.1 109.6C360.3 109.6 355.5 151.4 342.6 151.4C332.7 151.4 324.4 136.5 314.2 124.8C301.7 110.5 299.9 97.6 285.8 86.5C277.2 79.7 263.1 79.7 257.4 79.7C240.3 79.7 245.6 162 228.9 162C222.8 162 212.4 151.6 200.5 147.2C189.7 143.2 183.6 141.1 172.1 141.1C160.9 141.1 153.1 141.1 143.7 142.3C130.3 143.9 127.8 171.1 115.3 171.1C105.1 171.1 92.4 165.6 86.8 154.4C69.7 119.9 71.8 56.9 58.4 56.9C49.1 56.9 30 121.4 30 121.4Z" transform="translate(0 63)" fill="#3ba272"></path>
<path d="M30 121.4C30 121.4 49.1 56.9 58.4 56.9C71.8 56.9 69.7 119.9 86.8 154.4C92.4 165.6 105.1 171.1 115.3 171.1C127.8 171.1 130.3 143.9 143.7 142.3C153.1 141.1 160.9 141.1 172.1 141.1C183.6 141.1 189.7 143.2 200.5 147.2C212.4 151.6 222.8 162 228.9 162C245.6 162 240.3 79.7 257.4 79.7C263.1 79.7 277.2 79.7 285.8 86.5C299.9 97.6 301.7 110.5 314.2 124.8C324.4 136.5 332.7 151.4 342.6 151.4C355.5 151.4 360.3 109.6 371.1 109.6C383.1 109.6 384.8 158.6 399.5 158.6C407.5 158.6 416.3 150.5 427.9 146.1C439.1 141.7 445.9 136.6 456.3 136.6C468.6 136.6 472.2 151.8 484.7 157.4C495 162.1 501.7 162.4 513.2 162.4C524.4 162.4 531.6 162.4 541.6 162C554.3 161.5 570 139.6 570 139.6C570 139.6 554.3 161.5 541.6 162C531.6 162.4 524.5 162.4 513.2 162.4C501.7 162.4 495.2 158.2 484.7 158.2C472.4 158.2 466.6 176.8 456.3 176.8C443.8 176.8 440.9 146.8 427.9 146.8C418.1 146.8 411.3 155.7 399.5 159.3C388.5 162.7 382.1 164.3 371.1 164.3C359.4 164.3 353.6 158.8 342.6 153.7C330.9 148.2 322.8 147 314.2 137.7C300.1 122.6 300.1 107.2 285.8 92.6C277.4 84 263.4 79.7 257.4 79.7C240.6 79.7 245.6 162 228.9 162C222.8 162 212.6 149.8 200.5 147.2C189.8 144.9 180 144.9 172.1 144.9C157.2 144.9 158.2 190.8 143.7 190.8C135.5 190.8 126.2 185.3 115.3 180.2C103.5 174.7 92.2 175.4 86.8 164.3C69.5 128.2 72.5 62.2 58.4 62.2C49.7 62.2 30 121.4 30 121.4Z" transform="translate(0 63)" fill="#fc8452"></path>
<path d="M30 121.4C30 121.4 49.7 62.2 58.4 62.2C72.5 62.2 69.5 128.2 86.8 164.3C92.2 175.4 103.5 174.7 115.3 180.2C126.2 185.3 135.5 190.8 143.7 190.8C158.2 190.8 157.2 144.9 172.1 144.9C180 144.9 189.8 144.9 200.5 147.2C212.6 149.8 222.8 162 228.9 162C245.6 162 240.6 79.7 257.4 79.7C263.4 79.7 277.4 84 285.8 92.6C300.1 107.2 300.1 122.6 314.2 137.7C322.8 147 330.9 148.2 342.6 153.7C353.6 158.8 359.4 164.3 371.1 164.3C382.1 164.3 388.5 162.7 399.5 159.3C411.3 155.7 418.1 146.8 427.9 146.8C440.9 146.8 443.8 176.8 456.3 176.8C466.6 176.8 472.4 158.2 484.7 158.2C495.2 158.2 501.7 162.4 513.2 162.4C524.5 162.4 531.6 162.4 541.6 162C554.3 161.5 570 139.6 570 139.6C570 139.6 554.3 160.6 541.6 162C531.6 163.1 524.1 162 513.2 163.1C501.4 164.4 495.8 169 484.7 174.1C473 179.6 465.6 189.7 456.3 189.7C442.8 189.7 441.5 152.1 427.9 152.1C418.8 152.1 409.1 157.7 399.5 165.4C386.3 175.9 381.7 197.7 371.1 197.7C359 197.7 356.7 170.4 342.6 158.2C333.9 150.7 321.6 156.8 314.2 148.3C298.9 130.9 300.9 111.4 285.8 93.3C278.2 84.2 263.4 80.4 257.4 80.4C240.7 80.4 245.8 162 228.9 162C223.1 162 212.2 154.1 200.5 152.5C189.4 151 180 151 172.1 151C157.2 151 158.2 196.9 143.7 196.9C135.5 196.9 126.6 190.1 115.3 185.5C103.9 181 92 184.3 86.8 174.1C69.2 139.2 73.2 72.8 58.4 72.8C50.4 72.8 30 122.2 30 122.2Z" transform="translate(0 63)" fill="#9a60b4"></path>
<path d="M30 122.2C30 122.2 50.4 72.8 58.4 72.8C73.2 72.8 69.2 139.2 86.8 174.1C92 184.3 103.9 181 115.3 185.5C126.6 190.1 135.5 196.9 143.7 196.9C158.2 196.9 157.2 151 172.1 151C180 151 189.4 151 200.5 152.5C212.2 154.1 223.1 162 228.9 162C245.8 162 240.7 80.4 257.4 80.4C263.4 80.4 278.2 84.2 285.8 93.3C300.9 111.4 298.9 130.9 314.2 148.3C321.6 156.8 333.9 150.7 342.6 158.2C356.7 170.4 359 197.7 371.1 197.7C381.7 197.7 386.3 175.9 399.5 165.4C409.1 157.7 418.8 152.1 427.9 152.1C441.5 152.1 442.8 189.7 456.3 189.7C465.6 189.7 473 179.6 484.7 174.1C495.8 169 501.4 164.4 513.2 163.1C524.1 162 531.6 163.1 541.6 162C554.3 160.6 570 139.6 570 139.6C570 139.6 554.3 160.6 541.6 162C531.6 163.1 524.1 162 513.2 163.1C501.4 164.4 495.6 168.7 484.7 174.1C472.8 180.2 466 192 456.3 192C443.3 192 440.8 156.7 427.9 156.7C418 156.7 410.3 168 399.5 176.8C387.5 186.5 380.8 203 371.1 203C358 203 357 173.2 342.6 159.7C334.3 151.9 321.5 158.4 314.2 149.9C298.8 131.9 301 111.9 285.8 93.3C278.3 84.2 263.4 80.4 257.4 80.4C240.7 80.4 245.8 162 228.9 162C223.1 162 212.2 153.3 200.5 152.5C189.5 151.8 179.2 151.8 172.1 151.8C156.5 151.8 158.3 207.5 143.7 207.5C135.5 207.5 127.8 189.8 115.3 187C105.1 184.8 91.5 187 86.8 184.8C68.7 175.9 73.8 77.4 58.4 77.4C51.1 77.4 30 122.2 30 122.2Z" transform="translate(0 63)" fill="#ea7ccc"></path>
<path d="M30 122.2C30 122.2 51.1 77.4 58.4 77.4C73.8 77.4 68.7 175.9 86.8 184.8C91.5 187 105.1 184.8 115.3 187C127.8 189.8 135.5 207.5 143.7 207.5C158.3 207.5 156.5 151.8 172.1 151.8C179.2 151.8 189.5 151.8 200.5 152.5C212.2 153.3 223.1 162 228.9 162C245.8 162 240.7 80.4 257.4 80.4C263.4 80.4 278.3 84.2 285.8 93.3C301 111.9 298.8 131.9 314.2 149.9C321.5 158.4 334.3 151.9 342.6 159.7C357 173.2 358 203 371.1 203C380.8 203 387.5 186.5 399.5 176.8C410.3 168 418 156.7 427.9 156.7C440.8 156.7 443.3 192 456.3 192C466 192 472.8 180.2 484.7 174.1C495.6 168.7 501.4 164.4 513.2 163.1C524.1 162 531.6 163.1 541.6 162C554.3 160.6 570 139.6 570 139.6C570 139.6 554.3 159.6 541.6 162C531.6 163.9 524.1 162 513.2 163.9C501.4 165.9 494.8 168.9 484.7 175.7C472.1 184.1 466.3 201.8 456.3 201.8C443.6 201.8 441.6 162 427.9 162C418.8 162 409.8 169.9 399.5 177.6C387.1 186.6 380.8 203.7 371.1 203.7C358 203.7 357 174.1 342.6 160.5C334.2 152.5 321.7 158.5 314.2 149.9C299 132.2 301.3 103 285.8 94.8C278.6 91.1 263.6 91.1 257.4 91.1C240.8 91.1 245.3 162 228.9 162C222.5 162 212.1 152.5 200.5 152.5C189.4 152.5 179.7 152.5 172.1 157.8C157 168.3 158 207.5 143.7 207.5C135.3 207.5 127.6 189.3 115.3 189.3C104.8 189.3 91.5 193.1 86.8 193.1C68.7 193.1 74.4 84.2 58.4 84.2C51.7 84.2 30 122.2 30 122.2Z" transform="translate(0 63)" fill="#5470c6"></path>
<path d="M30 122.2C30 122.2 51.7 84.2 58.4 84.2C74.4 84.2 68.7 193.1 86.8 193.1C91.5 193.1 104.8 189.3 115.3 189.3C127.6 189.3 135.3 207.5 143.7 207.5C158 207.5 157 168.3 172.1 157.8C179.7 152.5 189.4 152.5 200.5 152.5C212.1 152.5 222.5 162 228.9 162C245.3 162 240.8 91.1 257.4 91.1C263.6 91.1 278.6 91.1 285.8 94.8C301.3 103 299 132.2 314.2 149.9C321.7 158.5 334.2 152.5 342.6 160.5C357 174.1 358 203.7 371.1 203.7C380.8 203.7 387.1 186.6 399.5 177.6C409.8 169.9 418.8 162 427.9 162C441.6 162 443.6 201.8 456.3 201.8C466.3 201.8 472.1 184.1 484.7 175.7C494.8 168.9 501.4 165.9 513.2 163.9C524.1 162 531.6 163.9 541.6 162C554.3 159.6 570 139.6 570 139.6L570 144.9C570 144.9 553.8 158.9 541.6 162C531.1 164.7 523.9 162 513.2 164.7C501.2 167.6 495.2 171.7 484.7 178.7C472.5 186.9 466.4 202.6 456.3 202.6C443.7 202.6 441.5 165.8 427.9 165.8C418.8 165.8 409.2 171 399.5 178.3C386.5 188 382 208.3 371.1 208.3C359.3 208.3 355.1 186.7 342.6 174.1C332.4 163.9 322.6 162.9 314.2 151.4C299.8 131.5 294.6 95.6 285.8 95.6C271.9 95.6 273.6 189.7 257.4 189.7C250.8 189.7 241.9 170.5 228.9 162C219.2 155.6 210.9 152.5 200.5 152.5C188.2 152.5 181.7 163.5 172.1 173.8C158.9 187.9 157.3 213.6 143.7 213.6C134.5 213.6 127.5 196.9 115.3 196.9C104.7 196.9 91.5 196.9 86.8 196.9C68.7 196.9 74.8 89.5 58.4 89.5C52 89.5 30 122.2 30 122.2Z" transform="translate(0 63)" fill="#91cc75"></path>
<path d="M30 122.2C30 122.2 52 89.5 58.4 89.5C74.8 89.5 68.7 196.9 86.8 196.9C91.5 196.9 104.7 196.9 115.3 196.9C127.5 196.9 134.5 213.6 143.7 213.6C157.3 213.6 158.9 187.9 172.1 173.8C181.7 163.5 188.2 152.5 200.5 152.5C210.9 152.5 219.2 155.6 228.9 162C241.9 170.5 250.8 189.7 257.4 189.7C273.6 189.7 271.9 95.6 285.8 95.6C294.6 95.6 299.8 131.5 314.2 151.4C322.6 162.9 332.4 163.9 342.6 174.1C355.1 186.7 359.3 208.3 371.1 208.3C382 208.3 386.5 188 399.5 178.3C409.2 171 418.8 165.8 427.9 165.8C441.5 165.8 443.7 202.6 456.3 202.6C466.4 202.6 472.5 186.9 484.7 178.7C495.2 171.7 501.2 167.6 513.2 164.7C523.9 162 531.1 164.7 541.6 162C553.8 158.9 570 144.9 570 144.9L570 151.8C570 151.8 553.3 159.3 541.6 162C530.5 164.5 522.7 162 513.2 164.7C500 168.3 497.5 182.9 484.7 191.6C474.7 198.4 465.5 203.4 456.3 203.4C442.8 203.4 441.5 168.1 427.9 168.1C418.8 168.1 408.9 171.9 399.5 179.1C386.2 189.2 381.9 211.3 371.1 211.3C359.2 211.3 355.4 187.6 342.6 174.1C332.7 163.6 322.6 162.9 314.2 151.4C299.8 131.5 294.4 95.6 285.8 95.6C271.7 95.6 273.4 194.2 257.4 194.2C250.7 194.2 242.3 171.8 228.9 162C219.6 155.1 210.6 152.5 200.5 152.5C187.8 152.5 182 166.2 172.1 177.6C159.3 192.2 157 217.4 143.7 217.4C134.3 217.4 127.4 197.7 115.3 197.7C104.6 197.7 91.4 208.3 86.8 208.3C68.7 208.3 75.3 91.1 58.4 91.1C52.5 91.1 30 122.2 30 122.2Z" transform="translate(0 63)" fill="#fac858"></path>
<path d="M30 122.2C30 122.2 52.5 91.1 58.4 91.1C75.3 91.1 68.7 208.3 86.8 208.3C91.4 208.3 104.6 197.7 115.3 197.7C127.4 197.7 134.3 217.4 143.7 217.4C157 217.4 159.3 192.2 172.1 177.6C182 166.2 187.8 152.5 200.5 152.5C210.6 152.5 219.6 155.1 228.9 162C242.3 171.8 250.7 194.2 257.4 194.2C273.4 194.2 271.7 95.6 285.8 95.6C294.4 95.6 299.8 131.5 314.2 151.4C322.6 162.9 332.7 163.6 342.6 174.1C355.4 187.6 359.2 211.3 371.1 211.3C381.9 211.3 386.2 189.2 399.5 179.1C408.9 171.9 418.8 168.1 427.9 168.1C441.5 168.1 442.8 203.4 456.3 203.4C465.5 203.4 474.7 198.4 484.7 191.6C497.5 182.9 500 168.3 513.2 164.7C522.7 162 530.5 164.5 541.6 162C553.3 159.3 570 151.8 570 151.8C570 151.8 553.3 159.3 541.6 162C530.5 164.5 522.7 162 513.2 164.7C500 168.3 497.5 182.9 484.7 191.6C474.7 198.4 465.5 203.4 456.3 203.4C442.8 203.4 441.5 168.1 427.9 168.1C418.8 168.1 408.9 171.9 399.5 179.1C386.2 189.2 381.9 211.3 371.1 211.3C359.2 211.3 355.4 187.6 342.6 174.1C332.7 163.6 322.6 162.9 314.2 151.4C299.8 131.5 294.4 95.6 285.8 95.6C271.7 95.6 273.4 194.2 257.4 194.2C250.7 194.2 242.3 171.8 228.9 162C219.6 155.1 210.6 152.5 200.5 152.5C187.8 152.5 182 166.2 172.1 177.6C159.3 192.2 157 217.4 143.7 217.4C134.3 217.4 127.4 197.7 115.3 197.7C104.6 197.7 91.4 208.3 86.8 208.3C68.7 208.3 75.3 91.1 58.4 91.1C52.5 91.1 30 122.2 30 122.2Z" transform="translate(0 63)" fill="#ee6666"></path>
<path d="M30 122.2C30 122.2 52.5 91.1 58.4 91.1C75.3 91.1 68.7 208.3 86.8 208.3C91.4 208.3 104.6 197.7 115.3 197.7C127.4 197.7 134.3 217.4 143.7 217.4C157 217.4 159.3 192.2 172.1 177.6C182 166.2 187.8 152.5 200.5 152.5C210.6 152.5 219.6 155.1 228.9 162C242.3 171.8 250.7 194.2 257.4 194.2C273.4 194.2 271.7 95.6 285.8 95.6C294.4 95.6 299.8 131.5 314.2 151.4C322.6 162.9 332.7 163.6 342.6 174.1C355.4 187.6 359.2 211.3 371.1 211.3C381.9 211.3 386.2 189.2 399.5 179.1C408.9 171.9 418.8 168.1 427.9 168.1C441.5 168.1 442.8 203.4 456.3 203.4C465.5 203.4 474.7 198.4 484.7 191.6C497.5 182.9 500 168.3 513.2 164.7C522.7 162 530.5 164.5 541.6 162C553.3 159.3 570 151.8 570 151.8C570 151.8 553.3 159.3 541.6 162C530.5 164.5 522.7 162 513.2 164.7C499.9 168.3 497.1 182.5 484.7 192.4C474.3 200.7 465.4 210.2 456.3 210.2C442.6 210.2 442.1 168.1 427.9 168.1C419.4 168.1 408.8 171.8 399.5 179.1C386 189.7 382 212.8 371.1 212.8C359.3 212.8 355.5 188.6 342.6 174.9C332.8 164.4 322.5 163.7 314.2 152.1C299.8 132 294.5 95.6 285.8 95.6C271.7 95.6 273.4 194.2 257.4 194.2C250.7 194.2 242.4 171.7 228.9 162C219.7 155.3 209.8 153.3 200.5 153.3C187 153.3 183.6 173 172.1 185.9C160.8 198.6 156.3 217.4 143.7 217.4C133.5 217.4 125.6 198.4 115.3 198.4C102.9 198.4 92.6 228 86.8 228C69.9 228 76.3 111.5 58.4 111.5C53.6 111.5 30 126.7 30 126.7Z" transform="translate(0 63)" fill="#73c0de"></path>
<path d="M30 126.7C30 126.7 53.6 111.5 58.4 111.5C76.3 111.5 69.9 228 86.8 228C92.6 228 102.9 198.4 115.3 198.4C125.6 198.4 133.5 217.4 143.7 217.4C156.3 217.4 160.8 198.6 172.1 185.9C183.6 173 187 153.3 200.5 153.3C209.8 153.3 219.7 155.3 228.9 162C242.4 171.7 250.7 194.2 257.4 194.2C273.4 194.2 271.7 95.6 285.8 95.6C294.5 95.6 299.8 132 314.2 152.1C322.5 163.7 332.8 164.4 342.6 174.9C355.5 188.6 359.3 212.8 371.1 212.8C382 212.8 386 189.7 399.5 179.1C408.8 171.8 419.4 168.1 427.9 168.1C442.1 168.1 442.6 210.2 456.3 210.2C465.4 210.2 474.3 200.7 484.7 192.4C497.1 182.5 499.9 168.3 513.2 164.7C522.7 162 530.5 164.5 541.6 162C553.3 159.3 570 151.8 570 151.8L570 160.9C570 160.9 552.9 161.2 541.6 162C530.2 162.8 521.7 162 513.2 164.7C498.9 169.1 498.7 191.2 484.7 203C476 210.4 464.6 212.5 456.3 212.5C441.8 212.5 442.2 168.1 427.9 168.1C419.5 168.1 408.8 172.9 399.5 180.6C386.1 191.7 381.9 215.1 371.1 215.1C359.1 215.1 355.7 189.4 342.6 174.9C333 164.2 322.5 163.7 314.2 152.1C299.8 132 294.5 95.6 285.8 95.6C271.7 95.6 273.4 194.2 257.4 194.2C250.7 194.2 242.4 171.7 228.9 162C219.7 155.3 209.8 153.3 200.5 153.3C187 153.3 182.8 172.3 172.1 185.9C160 201.3 156.7 225.7 143.7 225.7C134 225.7 125.6 203 115.3 203C102.8 203 95.6 236.4 86.8 236.4C72.9 236.4 73.3 195.6 58.4 173C50.6 161.2 30 150.2 30 150.2Z" transform="translate(0 63)" fill="#3ba272"></path>
<path d="M30 150.2C30 150.2 50.6 161.2 58.4 173C73.3 195.6 72.9 236.4 86.8 236.4C95.6 236.4 102.8 203 115.3 203C125.6 203 134 225.7 143.7 225.7C156.7 225.7 160 201.3 172.1 185.9C182.8 172.3 187 153.3 200.5 153.3C209.8 153.3 219.7 155.3 228.9 162C242.4 171.7 250.7 194.2 257.4 194.2C273.4 194.2 271.7 95.6 285.8 95.6C294.5 95.6 299.8 132 314.2 152.1C322.5 163.7 333 164.2 342.6 174.9C355.7 189.4 359.1 215.1 371.1 215.1C381.9 215.1 386.1 191.7 399.5 180.6C408.8 172.9 419.5 168.1 427.9 168.1C442.2 168.1 441.8 212.5 456.3 212.5C464.6 212.5 476 210.4 484.7 203C498.7 191.2 498.9 169.1 513.2 164.7C521.7 162 530.2 162.8 541.6 162C552.9 161.2 570 160.9 570 160.9L570 164.7C570 164.7 552.9 162 541.6 162C530.2 162 521.5 162 513.2 164.7C498.8 169.2 497.8 190.2 484.7 204.5C475.1 215.1 465.4 226.9 456.3 226.9C442.7 226.9 442.7 181 427.9 181C420 181 408.5 181 399.5 185.9C385.8 193.3 381.9 218.9 371.1 218.9C359.1 218.9 356.8 180.2 342.6 180.2C334.1 180.2 324.1 184.8 314.2 184.8C301.4 184.8 294.2 160.9 285.8 160.9C271.5 160.9 268.8 217 257.4 217C246.1 217 243.6 162 228.9 162C220.8 162 212.8 175.5 200.5 181.3C190 186.3 180.9 182.1 172.1 188.9C158.2 199.8 157.6 225.7 143.7 225.7C134.9 225.7 125.4 218.1 115.3 218.1C102.7 218.1 97.7 240.9 86.8 240.9C75 240.9 67.8 225.8 58.4 213.2C45.1 195.3 30 164.7 30 164.7Z" transform="translate(0 63)" fill="#fc8452"></path>
<path d="M30 164.7C30 164.7 45.1 195.3 58.4 213.2C67.8 225.8 75 240.9 86.8 240.9C97.7 240.9 102.7 218.1 115.3 218.1C125.4 218.1 134.9 225.7 143.7 225.7C157.6 225.7 158.2 199.8 172.1 188.9C180.9 182.1 190 186.3 200.5 181.3C212.8 175.5 220.8 162 228.9 162C243.6 162 246.1 217 257.4 217C268.8 217 271.5 160.9 285.8 160.9C294.2 160.9 301.4 184.8 314.2 184.8C324.1 184.8 334.1 180.2 342.6 180.2C356.8 180.2 359.1 218.9 371.1 218.9C381.9 218.9 385.8 193.3 399.5 185.9C408.5 181 420 181 427.9 181C442.7 181 442.7 226.9 456.3 226.9C465.4 226.9 475.1 215.1 484.7 204.5C497.8 190.2 498.8 169.2 513.2 164.7C521.5 162 530.2 162 541.6 162C552.9 162 570 164.7 570 164.7L570 165.4C570 165.4 553 162 541.6 162C530.2 162 521 162 513.2 164.7C498.3 169.7 498.8 195 484.7 210.6C476.1 220.1 465.4 227.6 456.3 227.6C442.6 227.6 440.7 186.3 427.9 186.3C418 186.3 411.8 203.3 399.5 212.5C389 220.3 379.5 228.8 371.1 228.8C356.8 228.8 357.5 181.7 342.6 181.7C334.7 181.7 325.3 188.6 314.2 188.6C302.6 188.6 293.7 176.8 285.8 176.8C271 176.8 267.6 226.9 257.4 226.9C244.8 226.9 243 162 228.9 162C220.3 162 213.8 184.4 200.5 195C191.1 202.5 182.2 200.3 172.1 207.1C159.5 215.7 156.4 233.3 143.7 233.3C133.7 233.3 125 222.7 115.3 222.7C102.3 222.7 98.9 251.5 86.8 251.5C76.2 251.5 66 241.5 58.4 229.9C43.3 206.8 30 164.7 30 164.7Z" transform="translate(0 63)" fill="#9a60b4"></path>
<path d="M30 164.7C30 164.7 43.3 206.8 58.4 229.9C66 241.5 76.2 251.5 86.8 251.5C98.9 251.5 102.3 222.7 115.3 222.7C125 222.7 133.7 233.3 143.7 233.3C156.4 233.3 159.5 215.7 172.1 207.1C182.2 200.3 191.1 202.5 200.5 195C213.8 184.4 220.3 162 228.9 162C243 162 244.8 226.9 257.4 226.9C267.6 226.9 271 176.8 285.8 176.8C293.7 176.8 302.6 188.6 314.2 188.6C325.3 188.6 334.7 181.7 342.6 181.7C357.5 181.7 356.8 228.8 371.1 228.8C379.5 228.8 389 220.3 399.5 212.5C411.8 203.3 418 186.3 427.9 186.3C440.7 186.3 442.6 227.6 456.3 227.6C465.4 227.6 476.1 220.1 484.7 210.6C498.8 195 498.3 169.7 513.2 164.7C521 162 530.2 162 541.6 162C553 162 570 165.4 570 165.4L570 171.5C570 171.5 553.2 162 541.6 162C530.5 162 521 162 513.2 164.7C498.3 169.7 498.6 194.6 484.7 210.6C475.9 220.7 465.4 229.9 456.3 229.9C442.6 229.9 440.9 186.3 427.9 186.3C418.2 186.3 411.3 202.5 399.5 212.5C388.6 221.6 380.7 234.1 371.1 234.1C357.9 234.1 356.9 204.8 342.6 194.6C334.1 188.6 325.6 188.6 314.2 188.6C302.8 188.6 294.5 188.6 285.8 195C271.8 205.4 266.1 232.2 257.4 232.2C243.3 232.2 243.4 162 228.9 162C220.6 162 213.8 184.4 200.5 195C191.1 202.5 182.2 200.3 172.1 207.1C159.5 215.7 156.4 233.3 143.7 233.3C133.7 233.3 124.6 222.7 115.3 222.7C101.9 222.7 99.7 244.1 86.8 255.3C77 264 63.6 272.4 58.4 272.4C40.9 272.4 30 164.7 30 164.7Z" transform="translate(0 63)" fill="#ea7ccc"></path>
<path d="M30 164.7C30 164.7 40.9 272.4 58.4 272.4C63.6 272.4 77 264 86.8 255.3C99.7 244.1 101.9 222.7 115.3 222.7C124.6 222.7 133.7 233.3 143.7 233.3C156.4 233.3 159.5 215.7 172.1 207.1C182.2 200.3 191.1 202.5 200.5 195C213.8 184.4 220.6 162 228.9 162C243.4 162 243.3 232.2 257.4 232.2C266.1 232.2 271.8 205.4 285.8 195C294.5 188.6 302.8 188.6 314.2 188.6C325.6 188.6 334.1 188.6 342.6 194.6C356.9 204.8 357.9 234.1 371.1 234.1C380.7 234.1 388.6 221.6 399.5 212.5C411.3 202.5 418.2 186.3 427.9 186.3C440.9 186.3 442.6 229.9 456.3 229.9C465.4 229.9 475.9 220.7 484.7 210.6C498.6 194.6 498.3 169.7 513.2 164.7C521 162 530.5 162 541.6 162C553.2 162 570 171.5 570 171.5L570 172.2C570 172.2 553.3 162 541.6 162C530.5 162 521 162 513.2 164.7C498.3 169.7 498.1 193.8 484.7 210.6C475.3 222.4 466.3 236 456.3 236C443.5 236 441.3 196.1 427.9 196.1C418.6 196.1 410.6 206.9 399.5 214.7C387.8 223 380.5 236.4 371.1 236.4C357.7 236.4 355.9 194.6 342.6 194.6C333.2 194.6 326.6 209.6 314.2 216.6C303.8 222.5 296.9 222.1 285.8 226.9C274.1 231.9 263.6 241.3 257.4 241.3C240.9 241.3 242.9 162 228.9 162C220.2 162 215.3 205 200.5 206.4C192.6 207.1 180.9 206.4 172.1 207.1C158.2 208.3 157 241.7 143.7 241.7C134.2 241.7 125.1 227.3 115.3 227.3C102.4 227.3 97.6 244.9 86.8 257.6C74.8 271.8 64.8 294.4 58.4 294.4C42.1 294.4 30 178.3 30 178.3Z" transform="translate(0 63)" fill="#5470c6"></path>
<path d="M30 178.3C30 178.3 42.1 294.4 58.4 294.4C64.8 294.4 74.8 271.8 86.8 257.6C97.6 244.9 102.4 227.3 115.3 227.3C125.1 227.3 134.2 241.7 143.7 241.7C157 241.7 158.2 208.3 172.1 207.1C180.9 206.4 192.6 207.1 200.5 206.4C215.3 205 220.2 162 228.9 162C242.9 162 240.9 241.3 257.4 241.3C263.6 241.3 274.1 231.9 285.8 226.9C296.9 222.1 303.8 222.5 314.2 216.6C326.6 209.6 333.2 194.6 342.6 194.6C355.9 194.6 357.7 236.4 371.1 236.4C380.5 236.4 387.8 223 399.5 214.7C410.6 206.9 418.6 196.1 427.9 196.1C441.3 196.1 443.5 236 456.3 236C466.3 236 475.3 222.4 484.7 210.6C498.1 193.8 498.3 169.7 513.2 164.7C521 162 530.5 162 541.6 162C553.3 162 570 172.2 570 172.2L570 185.1C570 185.1 554.4 162 541.6 162C531.6 162 519.8 162 513.2 164.7C497 171.1 500.7 209.3 484.7 228C478 236 465.1 236 456.3 236C442.3 236 441.2 198.4 427.9 198.4C418.4 198.4 410 208.1 399.5 216.3C387.3 225.7 381.1 242.4 371.1 242.4C358.4 242.4 356.4 203 342.6 203C333.7 203 324.7 209.8 314.2 216.6C302 224.5 298.5 234 285.8 239.8C275.8 244.3 263 244.3 257.4 244.3C240.3 244.3 242.7 162 228.9 162C220 162 215.2 195.1 200.5 210.9C192.5 219.6 180.6 214.8 172.1 223.1C157.8 237.1 155.7 266.7 143.7 266.7C132.9 266.7 125 229.5 115.3 229.5C102.2 229.5 99.8 264.2 86.8 285.7C77 302 64.7 324 58.4 324C42 324 30 202.6 30 202.6Z" transform="translate(0 63)" fill="#91cc75"></path>
</svg>