<svg width="600" height="450" xmlns="http://www.w3.org/2000/svg" xmlns:xlink="http://www.w3.org/1999/xlink" version="1.1" baseProfile="full" viewBox="0 0 600 450">
<rect width="600" height="450" x="0" y="0" id="0" fill="none"></rect>
<path d="M601.6 79.5Q148.4 19.1 604.9 43.9" transform="matrix(0.354,0,0,0.354,265.3415,219.8934)" fill="none" stroke="#5470c6" stroke-width="2.8221737222222223" stroke-opacity="0.5"></path>
<path d="M599 97Q148.2 20 604.9 43.9" transform="matrix(0.354,0,0,0.354,265.3415,219.8934)" fill="none" stroke="#91cc75" stroke-width="2.8221737222222223" stroke-opacity="0.5"></path>
<path d="M594.8 119.5Q148 21.1 604.9 43.9" transform="matrix(0.354,0,0,0.354,265.3415,219.8934)" fill="none" stroke="#91cc75" stroke-width="2.8221737222222223" stroke-opacity="0.5"></path>
<path d="M594.8 119.5Q147.7 23.8 599 97" transform="matrix(0.354,0,0,0.354,265.3415,219.8934)" fill="none" stroke="#91cc75" stroke-width="2.8221737222222223" stroke-opacity="0.5"></path>
<path d="M590.9 136.7Q147.8 22 604.9 43.9" transform="matrix(0.354,0,0,0.354,265.3415,219.8934)" fill="none" stroke="#5470c6" stroke-width="2.8221737222222223" stroke-opacity="0.5"></path>
<path d="M587.7 148.8Q147.7 22.6 604.9 43.9" transform="matrix(0.354,0,0,0.354,265.3415,219.8934)" fill="none" stroke="#5470c6" stroke-width="2.8221737222222223" stroke-opacity="0.5"></path>
<path d="M584.2 160.9Q147.5 23.2 604.9 43.9" transform="matrix(0.354,0,0,0.354,265.3415,219.8934)" fill="none" stroke="#5470c6" stroke-width="2.8221737222222223" stroke-opacity="0.5"></path>
<path d="M580.5 172.8Q147.3 23.8 604.9 43.9" transform="matrix(0.354,0,0,0.354,265.3415,219.8934)" fill="none" stroke="#5470c6" stroke-width="2.8221737222222223" stroke-opacity="0.5"></path>
<path d="M576.4 184.7Q147.1 24.4 604.9 43.9" transform="matrix(0.354,0,0,0.354,265.3415,219.8934)" fill="none" stroke="#5470c6" stroke-width="2.8221737222222223" stroke-opacity="0.5"></path>
<path d="M572.1 196.4Q146.9 25 604.9 43.9" transform="matrix(0.354,0,0,0.354,265.3415,219.8934)" fill="none" stroke="#5470c6" stroke-width="2.8221737222222223" stroke-opacity="0.5"></path>
<path d="M518.6 299Q144.2 30.1 604.9 43.9" transform="matrix(0.354,0,0,0.354,265.3415,219.8934)" fill="none" stroke="#91cc75" stroke-width="2.8221737222222223" stroke-opacity="0.5"></path>
<path d="M518.6 299Q143.9 32.8 599 97" transform="matrix(0.354,0,0,0.354,265.3415,219.8934)" fill="none" stroke="#91cc75" stroke-width="2.8221737222222223" stroke-opacity="0.5"></path>
<path d="M518.6 299Q143.7 33.9 594.8 119.5" transform="matrix(0.354,0,0,0.354,265.3415,219.8934)" fill="none" stroke="#91cc75" stroke-width="2.8221737222222223" stroke-opacity="0.5"></path>
<path d="M518.6 299Q142.3 38.3 567.4 208.1" transform="matrix(0.354,0,0,0.354,265.3415,219.8934)" fill="none" stroke="#91cc75" stroke-width="2.8221737222222223" stroke-opacity="0.5"></path>
<path d="M450.5 380Q136.5 46.9 518.6 299" transform="matrix(0.354,0,0,0.354,265.3415,219.8934)" fill="none" stroke="#91cc75" stroke-width="2.8221737222222223" stroke-opacity="0.5"></path>
<path d="M439.5 390.3Q135.9 47.4 518.6 299" transform="matrix(0.354,0,0,0.354,265.3415,219.8934)" fill="none" stroke="#91cc75" stroke-width="2.8221737222222223" stroke-opacity="0.5"></path>
<path d="M430.1 398.6Q135.5 47.9 518.6 299" transform="matrix(0.354,0,0,0.354,265.3415,219.8934)" fill="none" stroke="#91cc75" stroke-width="2.8221737222222223" stroke-opacity="0.5"></path>
<path d="M420.5 406.7Q135 48.3 518.6 299" transform="matrix(0.354,0,0,0.354,265.3415,219.8934)" fill="none" stroke="#91cc75" stroke-width="2.8221737222222223" stroke-opacity="0.5"></path>
<path d="M353.4 453.4Q125.4 57 394.3 426.9" transform="matrix(0.354,0,0,0.354,265.3415,219.8934)" fill="none" stroke="#fac858" stroke-width="2.8221737222222223" stroke-opacity="0.5"></path>
<path d="M314.9 473.7Q123.5 58 394.3 426.9" transform="matrix(0.354,0,0,0.354,265.3415,219.8934)" fill="none" stroke="#fac858" stroke-width="2.8221737222222223" stroke-opacity="0.5"></path>
<path d="M314.9 473.7Q121.4 59.3 353.4 453.4" transform="matrix(0.354,0,0,0.354,265.3415,219.8934)" fill="none" stroke="#fac858" stroke-width="2.8221737222222223" stroke-opacity="0.5"></path>
<path d="M274.9 490.5Q121.5 58.8 394.3 426.9" transform="matrix(0.354,0,0,0.354,265.3415,219.8934)" fill="none" stroke="#fac858" stroke-width="2.8221737222222223" stroke-opacity="0.5"></path>
<path d="M274.9 490.5Q119.4 60.2 353.4 453.4" transform="matrix(0.354,0,0,0.354,265.3415,219.8934)" fill="none" stroke="#fac858" stroke-width="2.8221737222222223" stroke-opacity="0.5"></path>
<path d="M274.9 490.5Q117.5 61.2 314.9 473.7" transform="matrix(0.354,0,0,0.354,265.3415,219.8934)" fill="none" stroke="#fac858" stroke-width="2.8221737222222223" stroke-opacity="0.5"></path>
<path d="M233.5 503.9Q119.4 59.5 394.3 426.9" transform="matrix(0.354,0,0,0.354,265.3415,219.8934)" fill="none" stroke="#fac858" stroke-width="2.8221737222222223" stroke-opacity="0.5"></path>
<path d="M233.5 503.9Q117.4 60.8 353.4 453.4" transform="matrix(0.354,0,0,0.354,265.3415,219.8934)" fill="none" stroke="#fac858" stroke-width="2.8221737222222223" stroke-opacity="0.5"></path>
<path d="M233.5 503.9Q115.5 61.9 314.9 473.7" transform="matrix(0.354,0,0,0.354,265.3415,219.8934)" fill="none" stroke="#fac858" stroke-width="2.8221737222222223" stroke-opacity="0.5"></path>
<path d="M233.5 503.9Q113.4 62.7 274.9 490.5" transform="matrix(0.354,0,0,0.354,265.3415,219.8934)" fill="none" stroke="#fac858" stroke-width="2.8221737222222223" stroke-opacity="0.5"></path>
<path d="M191.1 513.8Q117.3 60 394.3 426.9" transform="matrix(0.354,0,0,0.354,265.3415,219.8934)" fill="none" stroke="#fac858" stroke-width="2.8221737222222223" stroke-opacity="0.5"></path>
<path d="M191.1 513.8Q115.3 61.3 353.4 453.4" transform="matrix(0.354,0,0,0.354,265.3415,219.8934)" fill="none" stroke="#fac858" stroke-width="2.8221737222222223" stroke-opacity="0.5"></path>
<path d="M191.1 513.8Q113.3 62.3 314.9 473.7" transform="matrix(0.354,0,0,0.354,265.3415,219.8934)" fill="none" stroke="#fac858" stroke-width="2.8221737222222223" stroke-opacity="0.5"></path>
<path d="M191.1 513.8Q111.3 63.2 274.9 490.5" transform="matrix(0.354,0,0,0.354,265.3415,219.8934)" fill="none" stroke="#fac858" stroke-width="2.8221737222222223" stroke-opacity="0.5"></path>
<path d="M191.1 513.8Q109.3 63.9 233.5 503.9" transform="matrix(0.354,0,0,0.354,265.3415,219.8934)" fill="none" stroke="#fac858" stroke-width="2.8221737222222223" stroke-opacity="0.5"></path>
<path d="M148.1 519.9Q115.1 60.3 394.3 426.9" transform="matrix(0.354,0,0,0.354,265.3415,219.8934)" fill="none" stroke="#fac858" stroke-width="2.8221737222222223" stroke-opacity="0.5"></path>
<path d="M148.1 519.9Q113.1 61.6 353.4 453.4" transform="matrix(0.354,0,0,0.354,265.3415,219.8934)" fill="none" stroke="#fac858" stroke-width="2.8221737222222223" stroke-opacity="0.5"></path>
<path d="M148.1 519.9Q111.2 62.6 314.9 473.7" transform="matrix(0.354,0,0,0.354,265.3415,219.8934)" fill="none" stroke="#fac858" stroke-width="2.8221737222222223" stroke-opacity="0.5"></path>
<path d="M148.1 519.9Q109.2 63.5 274.9 490.5" transform="matrix(0.354,0,0,0.354,265.3415,219.8934)" fill="none" stroke="#fac858" stroke-width="2.8221737222222223" stroke-opacity="0.5"></path>
<path d="M148.1 519.9Q107.1 64.2 233.5 503.9" transform="matrix(0.354,0,0,0.354,265.3415,219.8934)" fill="none" stroke="#fac858" stroke-width="2.8221737222222223" stroke-opacity="0.5"></path>
<path d="M148.1 519.9Q105 64.7 191.1 513.8" transform="matrix(0.354,0,0,0.354,265.3415,219.8934)" fill="none" stroke="#fac858" stroke-width="2.8221737222222223" stroke-opacity="0.5"></path>
<path d="M84 522.2Q118.2 54 518.6 299" transform="matrix(0.354,0,0,0.354,265.3415,219.8934)" fill="none" stroke="#fac858" stroke-width="2.8221737222222223" stroke-opacity="0.5"></path>
<path d="M84 522.2Q114.8 58.1 450.5 380" transform="matrix(0.354,0,0,0.354,265.3415,219.8934)" fill="none" stroke="#fac858" stroke-width="2.8221737222222223" stroke-opacity="0.5"></path>
<path d="M84 522.2Q111.9 60.4 394.3 426.9" transform="matrix(0.354,0,0,0.354,265.3415,219.8934)" fill="none" stroke="#fac858" stroke-width="2.8221737222222223" stroke-opacity="0.5"></path>
<path d="M84 522.2Q109.9 61.8 353.4 453.4" transform="matrix(0.354,0,0,0.354,265.3415,219.8934)" fill="none" stroke="#fac858" stroke-width="2.8221737222222223" stroke-opacity="0.5"></path>
<path d="M84 522.2Q108 62.8 314.9 473.7" transform="matrix(0.354,0,0,0.354,265.3415,219.8934)" fill="none" stroke="#fac858" stroke-width="2.8221737222222223" stroke-opacity="0.5"></path>
<path d="M84 522.2Q106 63.6 274.9 490.5" transform="matrix(0.354,0,0,0.354,265.3415,219.8934)" fill="none" stroke="#fac858" stroke-width="2.8221737222222223" stroke-opacity="0.5"></path>
<path d="M84 522.2Q103.9 64.3 233.5 503.9" transform="matrix(0.354,0,0,0.354,265.3415,219.8934)" fill="none" stroke="#fac858" stroke-width="2.8221737222222223" stroke-opacity="0.5"></path>
<path d="M84 522.2Q101.8 64.8 191.1 513.8" transform="matrix(0.354,0,0,0.354,265.3415,219.8934)" fill="none" stroke="#fac858" stroke-width="2.8221737222222223" stroke-opacity="0.5"></path>
<path d="M84 522.2Q99.6 65.1 148.1 519.9" transform="matrix(0.354,0,0,0.354,265.3415,219.8934)" fill="none" stroke="#fac858" stroke-width="2.8221737222222223" stroke-opacity="0.5"></path>
<path d="M9.9 514.7Q114.5 53.7 518.6 299" transform="matrix(0.354,0,0,0.354,265.3415,219.8934)" fill="none" stroke="#9a60b4" stroke-width="2.8221737222222223" stroke-opacity="0.5"></path>
<path d="M9.9 514.7Q92.7 64.8 84 522.2" transform="matrix(0.354,0,0,0.354,265.3415,219.8934)" fill="none" stroke="#9a60b4" stroke-width="2.8221737222222223" stroke-opacity="0.5"></path>
<path d="M-64.7 495.7Q110.7 52.7 518.6 299" transform="matrix(0.354,0,0,0.354,265.3415,219.8934)" fill="none" stroke="#9a60b4" stroke-width="2.8221737222222223" stroke-opacity="0.5"></path>
<path d="M-64.7 495.7Q89 63.9 84 522.2" transform="matrix(0.354,0,0,0.354,265.3415,219.8934)" fill="none" stroke="#9a60b4" stroke-width="2.8221737222222223" stroke-opacity="0.5"></path>
<path d="M-64.7 495.7Q85.3 63.5 9.9 514.7" transform="matrix(0.354,0,0,0.354,265.3415,219.8934)" fill="none" stroke="#9a60b4" stroke-width="2.8221737222222223" stroke-opacity="0.5"></path>
<path d="M-135.6 465.6Q107.2 51.2 518.6 299" transform="matrix(0.354,0,0,0.354,265.3415,219.8934)" fill="none" stroke="#fc8452" stroke-width="2.8221737222222223" stroke-opacity="0.5"></path>
<path d="M-135.6 465.6Q101 57.6 394.3 426.9" transform="matrix(0.354,0,0,0.354,265.3415,219.8934)" fill="none" stroke="#fc8452" stroke-width="2.8221737222222223" stroke-opacity="0.5"></path>
<path d="M-135.6 465.6Q81.7 62 9.9 514.7" transform="matrix(0.354,0,0,0.354,265.3415,219.8934)" fill="none" stroke="#fc8452" stroke-width="2.8221737222222223" stroke-opacity="0.5"></path>
<path d="M-135.6 465.6Q78 61 -64.7 495.7" transform="matrix(0.354,0,0,0.354,265.3415,219.8934)" fill="none" stroke="#fc8452" stroke-width="2.8221737222222223" stroke-opacity="0.5"></path>
<path d="M-203.3 423.6Q103.8 49.1 518.6 299" transform="matrix(0.354,0,0,0.354,265.3415,219.8934)" fill="none" stroke="#9a60b4" stroke-width="2.8221737222222223" stroke-opacity="0.5"></path>
<path d="M-203.3 423.6Q82.1 60.3 84 522.2" transform="matrix(0.354,0,0,0.354,265.3415,219.8934)" fill="none" stroke="#9a60b4" stroke-width="2.8221737222222223" stroke-opacity="0.5"></path>
<path d="M-203.3 423.6Q78.4 59.9 9.9 514.7" transform="matrix(0.354,0,0,0.354,265.3415,219.8934)" fill="none" stroke="#9a60b4" stroke-width="2.8221737222222223" stroke-opacity="0.5"></path>
<path d="M-203.3 423.6Q74.6 58.9 -64.7 495.7" transform="matrix(0.354,0,0,0.354,265.3415,219.8934)" fill="none" stroke="#9a60b4" stroke-width="2.8221737222222223" stroke-opacity="0.5"></path>
<path d="M-203.3 423.6Q71.1 57.4 -135.6 465.6" transform="matrix(0.354,0,0,0.354,265.3415,219.8934)" fill="none" stroke="#9a60b4" stroke-width="2.8221737222222223" stroke-opacity="0.5"></path>
<path d="M-250.6 384.1Q101.4 47.1 518.6 299" transform="matrix(0.354,0,0,0.354,265.3415,219.8934)" fill="none" stroke="#73c0de" stroke-width="2.8221737222222223" stroke-opacity="0.5"></path>
<path d="M-250.6 384.1Q65.3 53.4 -203.3 423.6" transform="matrix(0.354,0,0,0.354,265.3415,219.8934)" fill="none" stroke="#73c0de" stroke-width="2.8221737222222223" stroke-opacity="0.5"></path>
<path d="M-277.5 356.8Q100.1 45.8 518.6 299" transform="matrix(0.354,0,0,0.354,265.3415,219.8934)" fill="none" stroke="#ee6666" stroke-width="2.8221737222222223" stroke-opacity="0.5"></path>
<path d="M-277.5 356.8Q78.4 56.9 84 522.2" transform="matrix(0.354,0,0,0.354,265.3415,219.8934)" fill="none" stroke="#ee6666" stroke-width="2.8221737222222223" stroke-opacity="0.5"></path>
<path d="M-277.5 356.8Q64 52 -203.3 423.6" transform="matrix(0.354,0,0,0.354,265.3415,219.8934)" fill="none" stroke="#ee6666" stroke-width="2.8221737222222223" stroke-opacity="0.5"></path>
<path d="M-299 331.6Q77.3 55.7 84 522.2" transform="matrix(0.354,0,0,0.354,265.3415,219.8934)" fill="none" stroke="#fac858" stroke-width="2.8221737222222223" stroke-opacity="0.5"></path>
<path d="M-312.9 313.4Q98.3 43.6 518.6 299" transform="matrix(0.354,0,0,0.354,265.3415,219.8934)" fill="none" stroke="#fac858" stroke-width="2.8221737222222223" stroke-opacity="0.5"></path>
<path d="M-312.9 313.4Q76.6 54.8 84 522.2" transform="matrix(0.354,0,0,0.354,265.3415,219.8934)" fill="none" stroke="#fac858" stroke-width="2.8221737222222223" stroke-opacity="0.5"></path>
<path d="M-312.9 313.4Q62.2 49.8 -203.3 423.6" transform="matrix(0.354,0,0,0.354,265.3415,219.8934)" fill="none" stroke="#fac858" stroke-width="2.8221737222222223" stroke-opacity="0.5"></path>
<path d="M-312.9 313.4Q57.4 45.2 -299 331.6" transform="matrix(0.354,0,0,0.354,265.3415,219.8934)" fill="none" stroke="#fac858" stroke-width="2.8221737222222223" stroke-opacity="0.5"></path>
<path d="M-324.5 296.8Q97.7 42.8 518.6 299" transform="matrix(0.354,0,0,0.354,265.3415,219.8934)" fill="none" stroke="#91cc75" stroke-width="2.8221737222222223" stroke-opacity="0.5"></path>
<path d="M-332.7 284.1Q97.3 42.1 518.6 299" transform="matrix(0.354,0,0,0.354,265.3415,219.8934)" fill="none" stroke="#91cc75" stroke-width="2.8221737222222223" stroke-opacity="0.5"></path>
<path d="M-332.7 284.1Q61.2 48.4 -203.3 423.6" transform="matrix(0.354,0,0,0.354,265.3415,219.8934)" fill="none" stroke="#91cc75" stroke-width="2.8221737222222223" stroke-opacity="0.5"></path>
<path d="M-346.9 260Q96.6 40.9 518.6 299" transform="matrix(0.354,0,0,0.354,265.3415,219.8934)" fill="none" stroke="#ee6666" stroke-width="2.8221737222222223" stroke-opacity="0.5"></path>
<path d="M-346.9 260Q56.8 43.8 -277.5 356.8" transform="matrix(0.354,0,0,0.354,265.3415,219.8934)" fill="none" stroke="#ee6666" stroke-width="2.8221737222222223" stroke-opacity="0.5"></path>
<path d="M-364.1 225.7Q95.8 39.2 518.6 299" transform="matrix(0.354,0,0,0.354,265.3415,219.8934)" fill="none" stroke="#ee6666" stroke-width="2.8221737222222223" stroke-opacity="0.5"></path>
<path d="M-364.1 225.7Q56 42.1 -277.5 356.8" transform="matrix(0.354,0,0,0.354,265.3415,219.8934)" fill="none" stroke="#ee6666" stroke-width="2.8221737222222223" stroke-opacity="0.5"></path>
<path d="M-364.1 225.7Q52.5 37.3 -346.9 260" transform="matrix(0.354,0,0,0.354,265.3415,219.8934)" fill="none" stroke="#ee6666" stroke-width="2.8221737222222223" stroke-opacity="0.5"></path>
<path d="M-378.8 190.3Q95 37.4 518.6 299" transform="matrix(0.354,0,0,0.354,265.3415,219.8934)" fill="none" stroke="#ee6666" stroke-width="2.8221737222222223" stroke-opacity="0.5"></path>
<path d="M-378.8 190.3Q55.2 40.3 -277.5 356.8" transform="matrix(0.354,0,0,0.354,265.3415,219.8934)" fill="none" stroke="#ee6666" stroke-width="2.8221737222222223" stroke-opacity="0.5"></path>
<path d="M-378.8 190.3Q51.7 35.5 -346.9 260" transform="matrix(0.354,0,0,0.354,265.3415,219.8934)" fill="none" stroke="#ee6666" stroke-width="2.8221737222222223" stroke-opacity="0.5"></path>
<path d="M-378.8 190.3Q50.9 33.8 -364.1 225.7" transform="matrix(0.354,0,0,0.354,265.3415,219.8934)" fill="none" stroke="#ee6666" stroke-width="2.8221737222222223" stroke-opacity="0.5"></path>
<path d="M-390.7 153.9Q94.4 35.6 518.6 299" transform="matrix(0.354,0,0,0.354,265.3415,219.8934)" fill="none" stroke="#ee6666" stroke-width="2.8221737222222223" stroke-opacity="0.5"></path>
<path d="M-390.7 153.9Q54.6 38.5 -277.5 356.8" transform="matrix(0.354,0,0,0.354,265.3415,219.8934)" fill="none" stroke="#ee6666" stroke-width="2.8221737222222223" stroke-opacity="0.5"></path>
<path d="M-390.7 153.9Q51.2 33.7 -346.9 260" transform="matrix(0.354,0,0,0.354,265.3415,219.8934)" fill="none" stroke="#ee6666" stroke-width="2.8221737222222223" stroke-opacity="0.5"></path>
<path d="M-390.7 153.9Q50.3 31.9 -364.1 225.7" transform="matrix(0.354,0,0,0.354,265.3415,219.8934)" fill="none" stroke="#ee6666" stroke-width="2.8221737222222223" stroke-opacity="0.5"></path>
<path d="M-390.7 153.9Q49.6 30.2 -378.8 190.3" transform="matrix(0.354,0,0,0.354,265.3415,219.8934)" fill="none" stroke="#ee6666" stroke-width="2.8221737222222223" stroke-opacity="0.5"></path>
<path d="M-399.8 116.6Q94 33.8 518.6 299" transform="matrix(0.354,0,0,0.354,265.3415,219.8934)" fill="none" stroke="#ee6666" stroke-width="2.8221737222222223" stroke-opacity="0.5"></path>
<path d="M-399.8 116.6Q54.2 36.6 -277.5 356.8" transform="matrix(0.354,0,0,0.354,265.3415,219.8934)" fill="none" stroke="#ee6666" stroke-width="2.8221737222222223" stroke-opacity="0.5"></path>
<path d="M-399.8 116.6Q50.7 31.8 -346.9 260" transform="matrix(0.354,0,0,0.354,265.3415,219.8934)" fill="none" stroke="#ee6666" stroke-width="2.8221737222222223" stroke-opacity="0.5"></path>
<path d="M-399.8 116.6Q49.8 30.1 -364.1 225.7" transform="matrix(0.354,0,0,0.354,265.3415,219.8934)" fill="none" stroke="#ee6666" stroke-width="2.8221737222222223" stroke-opacity="0.5"></path>
<path d="M-399.8 116.6Q49.1 28.3 -378.8 190.3" transform="matrix(0.354,0,0,0.354,265.3415,219.8934)" fill="none" stroke="#ee6666" stroke-width="2.8221737222222223" stroke-opacity="0.5"></path>
<path d="M-399.8 116.6Q48.5 26.5 -390.7 153.9" transform="matrix(0.354,0,0,0.354,265.3415,219.8934)" fill="none" stroke="#ee6666" stroke-width="2.8221737222222223" stroke-opacity="0.5"></path>
<path d="M-405 86.5Q64.5 42.1 -64.7 495.7" transform="matrix(0.354,0,0,0.354,265.3415,219.8934)" fill="none" stroke="#fc8452" stroke-width="2.8221737222222223" stroke-opacity="0.5"></path>
<path d="M-407.2 68.9Q64.4 41.2 -64.7 495.7" transform="matrix(0.354,0,0,0.354,265.3415,219.8934)" fill="none" stroke="#9a60b4" stroke-width="2.8221737222222223" stroke-opacity="0.5"></path>
<path d="M-409.9 30.7Q68 40.2 9.9 514.7" transform="matrix(0.354,0,0,0.354,265.3415,219.8934)" fill="none" stroke="#9a60b4" stroke-width="2.8221737222222223" stroke-opacity="0.5"></path>
<path d="M-409.9 30.7Q64.3 39.3 -64.7 495.7" transform="matrix(0.354,0,0,0.354,265.3415,219.8934)" fill="none" stroke="#9a60b4" stroke-width="2.8221737222222223" stroke-opacity="0.5"></path>
<path d="M-409.4 -12.8Q68.1 38.1 9.9 514.7" transform="matrix(0.354,0,0,0.354,265.3415,219.8934)" fill="none" stroke="#9a60b4" stroke-width="2.8221737222222223" stroke-opacity="0.5"></path>
<path d="M-409.4 -12.8Q64.3 37.1 -64.7 495.7" transform="matrix(0.354,0,0,0.354,265.3415,219.8934)" fill="none" stroke="#9a60b4" stroke-width="2.8221737222222223" stroke-opacity="0.5"></path>
<path d="M-409.4 -12.8Q47.1 13.9 -409.9 30.7" transform="matrix(0.354,0,0,0.354,265.3415,219.8934)" fill="none" stroke="#9a60b4" stroke-width="2.8221737222222223" stroke-opacity="0.5"></path>
<path d="M-407.7 -35.6Q93.6 26.1 518.6 299" transform="matrix(0.354,0,0,0.354,265.3415,219.8934)" fill="none" stroke="#fc8452" stroke-width="2.8221737222222223" stroke-opacity="0.5"></path>
<path d="M-407.7 -35.6Q60.9 34.5 -135.6 465.6" transform="matrix(0.354,0,0,0.354,265.3415,219.8934)" fill="none" stroke="#fc8452" stroke-width="2.8221737222222223" stroke-opacity="0.5"></path>
<path d="M-407.7 -35.6Q57.5 32.4 -203.3 423.6" transform="matrix(0.354,0,0,0.354,265.3415,219.8934)" fill="none" stroke="#fc8452" stroke-width="2.8221737222222223" stroke-opacity="0.5"></path>
<path d="M-405.3 -55.7Q93.7 25.1 518.6 299" transform="matrix(0.354,0,0,0.354,265.3415,219.8934)" fill="none" stroke="#73c0de" stroke-width="2.8221737222222223" stroke-opacity="0.5"></path>
<path d="M-405.3 -55.7Q55.2 29.4 -250.6 384.1" transform="matrix(0.354,0,0,0.354,265.3415,219.8934)" fill="none" stroke="#73c0de" stroke-width="2.8221737222222223" stroke-opacity="0.5"></path>
<path d="M-403 -70.7Q55.4 28.6 -250.6 384.1" transform="matrix(0.354,0,0,0.354,265.3415,219.8934)" fill="none" stroke="#73c0de" stroke-width="2.8221737222222223" stroke-opacity="0.5"></path>
<path d="M-397.6 -97.8Q48.1 3.9 -400.8 -83" transform="matrix(0.354,0,0,0.354,265.3415,219.8934)" fill="none" stroke="#3ba272" stroke-width="2.8221737222222223" stroke-opacity="0.5"></path>
<path d="M-377.7 -164.2Q95.1 19.7 518.6 299" transform="matrix(0.354,0,0,0.354,265.3415,219.8934)" fill="none" stroke="#ea7ccc" stroke-width="2.8221737222222223" stroke-opacity="0.5"></path>
<path d="M-377.7 -164.2Q65.9 29.5 -64.7 495.7" transform="matrix(0.354,0,0,0.354,265.3415,219.8934)" fill="none" stroke="#ea7ccc" stroke-width="2.8221737222222223" stroke-opacity="0.5"></path>
<path d="M-377.7 -164.2Q59 25.9 -203.3 423.6" transform="matrix(0.354,0,0,0.354,265.3415,219.8934)" fill="none" stroke="#ea7ccc" stroke-width="2.8221737222222223" stroke-opacity="0.5"></path>
<path d="M-377.7 -164.2Q49.3 -0.1 -397.6 -97.8" transform="matrix(0.354,0,0,0.354,265.3415,219.8934)" fill="none" stroke="#ea7ccc" stroke-width="2.8221737222222223" stroke-opacity="0.5"></path>
<path d="M-342.7 -238.6Q96.8 16 518.6 299" transform="matrix(0.354,0,0,0.354,265.3415,219.8934)" fill="none" stroke="#fc8452" stroke-width="2.8221737222222223" stroke-opacity="0.5"></path>
<path d="M-342.7 -238.6Q64.1 24.3 -135.6 465.6" transform="matrix(0.354,0,0,0.354,265.3415,219.8934)" fill="none" stroke="#fc8452" stroke-width="2.8221737222222223" stroke-opacity="0.5"></path>
<path d="M-326.6 -264.7Q72.2 25.5 9.9 514.7" transform="matrix(0.354,0,0,0.354,265.3415,219.8934)" fill="none" stroke="#fc8452" stroke-width="2.8221737222222223" stroke-opacity="0.5"></path>
<path d="M-326.6 -264.7Q54.6 -12.2 -342.7 -238.6" transform="matrix(0.354,0,0,0.354,265.3415,219.8934)" fill="none" stroke="#fc8452" stroke-width="2.8221737222222223" stroke-opacity="0.5"></path>
<path d="M-309.1 -289.7Q98.5 13.4 518.6 299" transform="matrix(0.354,0,0,0.354,265.3415,219.8934)" fill="none" stroke="#fc8452" stroke-width="2.8221737222222223" stroke-opacity="0.5"></path>
<path d="M-309.1 -289.7Q65.8 21.8 -135.6 465.6" transform="matrix(0.354,0,0,0.354,265.3415,219.8934)" fill="none" stroke="#fc8452" stroke-width="2.8221737222222223" stroke-opacity="0.5"></path>
<path d="M-309.1 -289.7Q55.4 -13.4 -342.7 -238.6" transform="matrix(0.354,0,0,0.354,265.3415,219.8934)" fill="none" stroke="#fc8452" stroke-width="2.8221737222222223" stroke-opacity="0.5"></path>
<path d="M-290 -313.7Q53.3 1.6 -405 86.5" transform="matrix(0.354,0,0,0.354,265.3415,219.8934)" fill="none" stroke="#fc8452" stroke-width="2.8221737222222223" stroke-opacity="0.5"></path>
<path d="M-290 -313.7Q58.1 -17.2 -309.1 -289.7" transform="matrix(0.354,0,0,0.354,265.3415,219.8934)" fill="none" stroke="#fc8452" stroke-width="2.8221737222222223" stroke-opacity="0.5"></path>
<path d="M-280.1 -325.1Q58.6 -17.8 -309.1 -289.7" transform="matrix(0.354,0,0,0.354,265.3415,219.8934)" fill="none" stroke="#fc8452" stroke-width="2.8221737222222223" stroke-opacity="0.5"></path>
<path d="M-266.2 -339.9Q67.9 19.3 -135.6 465.6" transform="matrix(0.354,0,0,0.354,265.3415,219.8934)" fill="none" stroke="#fc8452" stroke-width="2.8221737222222223" stroke-opacity="0.5"></path>
<path d="M-266.2 -339.9Q57.6 -16 -342.7 -238.6" transform="matrix(0.354,0,0,0.354,265.3415,219.8934)" fill="none" stroke="#fc8452" stroke-width="2.8221737222222223" stroke-opacity="0.5"></path>
<path d="M-266.2 -339.9Q59.3 -18.5 -309.1 -289.7" transform="matrix(0.354,0,0,0.354,265.3415,219.8934)" fill="none" stroke="#fc8452" stroke-width="2.8221737222222223" stroke-opacity="0.5"></path>
<path d="M-216.6 -384.6Q103.1 8.7 518.6 299" transform="matrix(0.354,0,0,0.354,265.3415,219.8934)" fill="none" stroke="#fc8452" stroke-width="2.8221737222222223" stroke-opacity="0.5"></path>
<path d="M-216.6 -384.6Q96.9 15.1 394.3 426.9" transform="matrix(0.354,0,0,0.354,265.3415,219.8934)" fill="none" stroke="#fc8452" stroke-width="2.8221737222222223" stroke-opacity="0.5"></path>
<path d="M-216.6 -384.6Q74 18.5 -64.7 495.7" transform="matrix(0.354,0,0,0.354,265.3415,219.8934)" fill="none" stroke="#fc8452" stroke-width="2.8221737222222223" stroke-opacity="0.5"></path>
<path d="M-216.6 -384.6Q70.4 17 -135.6 465.6" transform="matrix(0.354,0,0,0.354,265.3415,219.8934)" fill="none" stroke="#fc8452" stroke-width="2.8221737222222223" stroke-opacity="0.5"></path>
<path d="M-216.6 -384.6Q56.9 -1.9 -405 86.5" transform="matrix(0.354,0,0,0.354,265.3415,219.8934)" fill="none" stroke="#fc8452" stroke-width="2.8221737222222223" stroke-opacity="0.5"></path>
<path d="M-216.6 -384.6Q56.7 -4.7 -409.9 30.7" transform="matrix(0.354,0,0,0.354,265.3415,219.8934)" fill="none" stroke="#fc8452" stroke-width="2.8221737222222223" stroke-opacity="0.5"></path>
<path d="M-216.6 -384.6Q58.3 -14.5 -377.7 -164.2" transform="matrix(0.354,0,0,0.354,265.3415,219.8934)" fill="none" stroke="#fc8452" stroke-width="2.8221737222222223" stroke-opacity="0.5"></path>
<path d="M-216.6 -384.6Q60.1 -18.2 -342.7 -238.6" transform="matrix(0.354,0,0,0.354,265.3415,219.8934)" fill="none" stroke="#fc8452" stroke-width="2.8221737222222223" stroke-opacity="0.5"></path>
<path d="M-216.6 -384.6Q61.7 -20.7 -309.1 -289.7" transform="matrix(0.354,0,0,0.354,265.3415,219.8934)" fill="none" stroke="#fc8452" stroke-width="2.8221737222222223" stroke-opacity="0.5"></path>
<path d="M-216.6 -384.6Q63.9 -23.3 -266.2 -339.9" transform="matrix(0.354,0,0,0.354,265.3415,219.8934)" fill="none" stroke="#fc8452" stroke-width="2.8221737222222223" stroke-opacity="0.5"></path>
<path d="M-166 -419.7Q62.6 -19.9 -342.7 -238.6" transform="matrix(0.354,0,0,0.354,265.3415,219.8934)" fill="none" stroke="#fc8452" stroke-width="2.8221737222222223" stroke-opacity="0.5"></path>
<path d="M-166 -419.7Q68.9 -27.2 -216.6 -384.6" transform="matrix(0.354,0,0,0.354,265.3415,219.8934)" fill="none" stroke="#fc8452" stroke-width="2.8221737222222223" stroke-opacity="0.5"></path>
<path d="M-130.2 -439.5Q61 -7.5 -409.9 30.7" transform="matrix(0.354,0,0,0.354,265.3415,219.8934)" fill="none" stroke="#ea7ccc" stroke-width="2.8221737222222223" stroke-opacity="0.5"></path>
<path d="M-130.2 -439.5Q62.6 -17.2 -377.7 -164.2" transform="matrix(0.354,0,0,0.354,265.3415,219.8934)" fill="none" stroke="#ea7ccc" stroke-width="2.8221737222222223" stroke-opacity="0.5"></path>
<path d="M-130.2 -439.5Q70.7 -28.2 -216.6 -384.6" transform="matrix(0.354,0,0,0.354,265.3415,219.8934)" fill="none" stroke="#ea7ccc" stroke-width="2.8221737222222223" stroke-opacity="0.5"></path>
<path d="M-61.5 -468Q110.9 4.5 518.6 299" transform="matrix(0.354,0,0,0.354,265.3415,219.8934)" fill="none" stroke="#ea7ccc" stroke-width="2.8221737222222223" stroke-opacity="0.5"></path>
<path d="M-61.5 -468Q74.8 10.8 -203.3 423.6" transform="matrix(0.354,0,0,0.354,265.3415,219.8934)" fill="none" stroke="#ea7ccc" stroke-width="2.8221737222222223" stroke-opacity="0.5"></path>
<path d="M-61.5 -468Q66.1 -18.6 -377.7 -164.2" transform="matrix(0.354,0,0,0.354,265.3415,219.8934)" fill="none" stroke="#ea7ccc" stroke-width="2.8221737222222223" stroke-opacity="0.5"></path>
<path d="M-61.5 -468Q74.1 -29.7 -216.6 -384.6" transform="matrix(0.354,0,0,0.354,265.3415,219.8934)" fill="none" stroke="#ea7ccc" stroke-width="2.8221737222222223" stroke-opacity="0.5"></path>
<path d="M-61.5 -468Q78.4 -32.4 -130.2 -439.5" transform="matrix(0.354,0,0,0.354,265.3415,219.8934)" fill="none" stroke="#ea7ccc" stroke-width="2.8221737222222223" stroke-opacity="0.5"></path>
<path d="M10.8 -486.1Q69.7 -19.5 -377.7 -164.2" transform="matrix(0.354,0,0,0.354,265.3415,219.8934)" fill="none" stroke="#ea7ccc" stroke-width="2.8221737222222223" stroke-opacity="0.5"></path>
<path d="M10.8 -486.1Q77.7 -30.6 -216.6 -384.6" transform="matrix(0.354,0,0,0.354,265.3415,219.8934)" fill="none" stroke="#ea7ccc" stroke-width="2.8221737222222223" stroke-opacity="0.5"></path>
<path d="M10.8 -486.1Q82.1 -33.3 -130.2 -439.5" transform="matrix(0.354,0,0,0.354,265.3415,219.8934)" fill="none" stroke="#ea7ccc" stroke-width="2.8221737222222223" stroke-opacity="0.5"></path>
<path d="M10.8 -486.1Q85.5 -34.7 -61.5 -468" transform="matrix(0.354,0,0,0.354,265.3415,219.8934)" fill="none" stroke="#ea7ccc" stroke-width="2.8221737222222223" stroke-opacity="0.5"></path>
<path d="M69.4 -492.8Q72.6 -19.9 -377.7 -164.2" transform="matrix(0.354,0,0,0.354,265.3415,219.8934)" fill="none" stroke="#ea7ccc" stroke-width="2.8221737222222223" stroke-opacity="0.5"></path>
<path d="M69.4 -492.8Q88.4 -35.1 -61.5 -468" transform="matrix(0.354,0,0,0.354,265.3415,219.8934)" fill="none" stroke="#ea7ccc" stroke-width="2.8221737222222223" stroke-opacity="0.5"></path>
<path d="M69.4 -492.8Q92 -36 10.8 -486.1" transform="matrix(0.354,0,0,0.354,265.3415,219.8934)" fill="none" stroke="#ea7ccc" stroke-width="2.8221737222222223" stroke-opacity="0.5"></path>
<path d="M128.3 -492.7Q75.6 -19.9 -377.7 -164.2" transform="matrix(0.354,0,0,0.354,265.3415,219.8934)" fill="none" stroke="#ea7ccc" stroke-width="2.8221737222222223" stroke-opacity="0.5"></path>
<path d="M128.3 -492.7Q83.6 -30.9 -216.6 -384.6" transform="matrix(0.354,0,0,0.354,265.3415,219.8934)" fill="none" stroke="#ea7ccc" stroke-width="2.8221737222222223" stroke-opacity="0.5"></path>
<path d="M128.3 -492.7Q87.9 -33.6 -130.2 -439.5" transform="matrix(0.354,0,0,0.354,265.3415,219.8934)" fill="none" stroke="#ea7ccc" stroke-width="2.8221737222222223" stroke-opacity="0.5"></path>
<path d="M128.3 -492.7Q91.4 -35.1 -61.5 -468" transform="matrix(0.354,0,0,0.354,265.3415,219.8934)" fill="none" stroke="#ea7ccc" stroke-width="2.8221737222222223" stroke-opacity="0.5"></path>
<path d="M128.3 -492.7Q95 -36 10.8 -486.1" transform="matrix(0.354,0,0,0.354,265.3415,219.8934)" fill="none" stroke="#ea7ccc" stroke-width="2.8221737222222223" stroke-opacity="0.5"></path>
<path d="M128.3 -492.7Q97.9 -36.3 69.4 -492.8" transform="matrix(0.354,0,0,0.354,265.3415,219.8934)" fill="none" stroke="#ea7ccc" stroke-width="2.8221737222222223" stroke-opacity="0.5"></path>
<path d="M197 -483.8Q77.4 -9.7 -409.9 30.7" transform="matrix(0.354,0,0,0.354,265.3415,219.8934)" fill="none" stroke="#ea7ccc" stroke-width="2.8221737222222223" stroke-opacity="0.5"></path>
<path d="M197 -483.8Q79 -19.4 -377.7 -164.2" transform="matrix(0.354,0,0,0.354,265.3415,219.8934)" fill="none" stroke="#ea7ccc" stroke-width="2.8221737222222223" stroke-opacity="0.5"></path>
<path d="M197 -483.8Q87.1 -30.4 -216.6 -384.6" transform="matrix(0.354,0,0,0.354,265.3415,219.8934)" fill="none" stroke="#ea7ccc" stroke-width="2.8221737222222223" stroke-opacity="0.5"></path>
<path d="M197 -483.8Q91.4 -33.2 -130.2 -439.5" transform="matrix(0.354,0,0,0.354,265.3415,219.8934)" fill="none" stroke="#ea7ccc" stroke-width="2.8221737222222223" stroke-opacity="0.5"></path>
<path d="M197 -483.8Q94.8 -34.6 -61.5 -468" transform="matrix(0.354,0,0,0.354,265.3415,219.8934)" fill="none" stroke="#ea7ccc" stroke-width="2.8221737222222223" stroke-opacity="0.5"></path>
<path d="M197 -483.8Q98.4 -35.5 10.8 -486.1" transform="matrix(0.354,0,0,0.354,265.3415,219.8934)" fill="none" stroke="#ea7ccc" stroke-width="2.8221737222222223" stroke-opacity="0.5"></path>
<path d="M197 -483.8Q101.4 -35.9 69.4 -492.8" transform="matrix(0.354,0,0,0.354,265.3415,219.8934)" fill="none" stroke="#ea7ccc" stroke-width="2.8221737222222223" stroke-opacity="0.5"></path>
<path d="M197 -483.8Q104.3 -35.9 128.3 -492.7" transform="matrix(0.354,0,0,0.354,265.3415,219.8934)" fill="none" stroke="#ea7ccc" stroke-width="2.8221737222222223" stroke-opacity="0.5"></path>
<path d="M266.4 -464.8Q82.5 -18.5 -377.7 -164.2" transform="matrix(0.354,0,0,0.354,265.3415,219.8934)" fill="none" stroke="#ea7ccc" stroke-width="2.8221737222222223" stroke-opacity="0.5"></path>
<path d="M266.4 -464.8Q90.5 -29.5 -216.6 -384.6" transform="matrix(0.354,0,0,0.354,265.3415,219.8934)" fill="none" stroke="#ea7ccc" stroke-width="2.8221737222222223" stroke-opacity="0.5"></path>
<path d="M266.4 -464.8Q94.8 -32.2 -130.2 -439.5" transform="matrix(0.354,0,0,0.354,265.3415,219.8934)" fill="none" stroke="#ea7ccc" stroke-width="2.8221737222222223" stroke-opacity="0.5"></path>
<path d="M266.4 -464.8Q98.3 -33.7 -61.5 -468" transform="matrix(0.354,0,0,0.354,265.3415,219.8934)" fill="none" stroke="#ea7ccc" stroke-width="2.8221737222222223" stroke-opacity="0.5"></path>
<path d="M266.4 -464.8Q101.9 -34.6 10.8 -486.1" transform="matrix(0.354,0,0,0.354,265.3415,219.8934)" fill="none" stroke="#ea7ccc" stroke-width="2.8221737222222223" stroke-opacity="0.5"></path>
<path d="M266.4 -464.8Q104.8 -34.9 69.4 -492.8" transform="matrix(0.354,0,0,0.354,265.3415,219.8934)" fill="none" stroke="#ea7ccc" stroke-width="2.8221737222222223" stroke-opacity="0.5"></path>
<path d="M266.4 -464.8Q107.8 -34.9 128.3 -492.7" transform="matrix(0.354,0,0,0.354,265.3415,219.8934)" fill="none" stroke="#ea7ccc" stroke-width="2.8221737222222223" stroke-opacity="0.5"></path>
<path d="M266.4 -464.8Q111.2 -34.5 197 -483.8" transform="matrix(0.354,0,0,0.354,265.3415,219.8934)" fill="none" stroke="#ea7ccc" stroke-width="2.8221737222222223" stroke-opacity="0.5"></path>
<path d="M332.3 -436.2Q130.6 6.1 518.6 299" transform="matrix(0.354,0,0,0.354,265.3415,219.8934)" fill="none" stroke="#ea7ccc" stroke-width="2.8221737222222223" stroke-opacity="0.5"></path>
<path d="M332.3 -436.2Q85.8 -17.1 -377.7 -164.2" transform="matrix(0.354,0,0,0.354,265.3415,219.8934)" fill="none" stroke="#ea7ccc" stroke-width="2.8221737222222223" stroke-opacity="0.5"></path>
<path d="M332.3 -436.2Q93.8 -28.1 -216.6 -384.6" transform="matrix(0.354,0,0,0.354,265.3415,219.8934)" fill="none" stroke="#ea7ccc" stroke-width="2.8221737222222223" stroke-opacity="0.5"></path>
<path d="M332.3 -436.2Q98.1 -30.8 -130.2 -439.5" transform="matrix(0.354,0,0,0.354,265.3415,219.8934)" fill="none" stroke="#ea7ccc" stroke-width="2.8221737222222223" stroke-opacity="0.5"></path>
<path d="M332.3 -436.2Q101.6 -32.2 -61.5 -468" transform="matrix(0.354,0,0,0.354,265.3415,219.8934)" fill="none" stroke="#ea7ccc" stroke-width="2.8221737222222223" stroke-opacity="0.5"></path>
<path d="M332.3 -436.2Q105.2 -33.1 10.8 -486.1" transform="matrix(0.354,0,0,0.354,265.3415,219.8934)" fill="none" stroke="#ea7ccc" stroke-width="2.8221737222222223" stroke-opacity="0.5"></path>
<path d="M332.3 -436.2Q108.1 -33.5 69.4 -492.8" transform="matrix(0.354,0,0,0.354,265.3415,219.8934)" fill="none" stroke="#ea7ccc" stroke-width="2.8221737222222223" stroke-opacity="0.5"></path>
<path d="M332.3 -436.2Q111.1 -33.5 128.3 -492.7" transform="matrix(0.354,0,0,0.354,265.3415,219.8934)" fill="none" stroke="#ea7ccc" stroke-width="2.8221737222222223" stroke-opacity="0.5"></path>
<path d="M332.3 -436.2Q114.5 -33 197 -483.8" transform="matrix(0.354,0,0,0.354,265.3415,219.8934)" fill="none" stroke="#ea7ccc" stroke-width="2.8221737222222223" stroke-opacity="0.5"></path>
<path d="M332.3 -436.2Q118 -32.1 266.4 -464.8" transform="matrix(0.354,0,0,0.354,265.3415,219.8934)" fill="none" stroke="#ea7ccc" stroke-width="2.8221737222222223" stroke-opacity="0.5"></path>
<path d="M393.5 -398.6Q88.8 -15.2 -377.7 -164.2" transform="matrix(0.354,0,0,0.354,265.3415,219.8934)" fill="none" stroke="#ea7ccc" stroke-width="2.8221737222222223" stroke-opacity="0.5"></path>
<path d="M393.5 -398.6Q96.9 -26.2 -216.6 -384.6" transform="matrix(0.354,0,0,0.354,265.3415,219.8934)" fill="none" stroke="#ea7ccc" stroke-width="2.8221737222222223" stroke-opacity="0.5"></path>
<path d="M393.5 -398.6Q101.2 -28.9 -130.2 -439.5" transform="matrix(0.354,0,0,0.354,265.3415,219.8934)" fill="none" stroke="#ea7ccc" stroke-width="2.8221737222222223" stroke-opacity="0.5"></path>
<path d="M393.5 -398.6Q104.6 -30.4 -61.5 -468" transform="matrix(0.354,0,0,0.354,265.3415,219.8934)" fill="none" stroke="#ea7ccc" stroke-width="2.8221737222222223" stroke-opacity="0.5"></path>
<path d="M393.5 -398.6Q108.2 -31.3 10.8 -486.1" transform="matrix(0.354,0,0,0.354,265.3415,219.8934)" fill="none" stroke="#ea7ccc" stroke-width="2.8221737222222223" stroke-opacity="0.5"></path>
<path d="M393.5 -398.6Q111.2 -31.6 69.4 -492.8" transform="matrix(0.354,0,0,0.354,265.3415,219.8934)" fill="none" stroke="#ea7ccc" stroke-width="2.8221737222222223" stroke-opacity="0.5"></path>
<path d="M393.5 -398.6Q114.1 -31.6 128.3 -492.7" transform="matrix(0.354,0,0,0.354,265.3415,219.8934)" fill="none" stroke="#ea7ccc" stroke-width="2.8221737222222223" stroke-opacity="0.5"></path>
<path d="M393.5 -398.6Q117.6 -31.2 197 -483.8" transform="matrix(0.354,0,0,0.354,265.3415,219.8934)" fill="none" stroke="#ea7ccc" stroke-width="2.8221737222222223" stroke-opacity="0.5"></path>
<path d="M393.5 -398.6Q121 -30.2 266.4 -464.8" transform="matrix(0.354,0,0,0.354,265.3415,219.8934)" fill="none" stroke="#ea7ccc" stroke-width="2.8221737222222223" stroke-opacity="0.5"></path>
<path d="M393.5 -398.6Q124.3 -28.8 332.3 -436.2" transform="matrix(0.354,0,0,0.354,265.3415,219.8934)" fill="none" stroke="#ea7ccc" stroke-width="2.8221737222222223" stroke-opacity="0.5"></path>
<path d="M443.2 -358.1Q91.3 -13.1 -377.7 -164.2" transform="matrix(0.354,0,0,0.354,265.3415,219.8934)" fill="none" stroke="#ea7ccc" stroke-width="2.8221737222222223" stroke-opacity="0.5"></path>
<path d="M443.2 -358.1Q107.1 -28.3 -61.5 -468" transform="matrix(0.354,0,0,0.354,265.3415,219.8934)" fill="none" stroke="#ea7ccc" stroke-width="2.8221737222222223" stroke-opacity="0.5"></path>
<path d="M443.2 -358.1Q110.7 -29.2 10.8 -486.1" transform="matrix(0.354,0,0,0.354,265.3415,219.8934)" fill="none" stroke="#ea7ccc" stroke-width="2.8221737222222223" stroke-opacity="0.5"></path>
<path d="M443.2 -358.1Q113.7 -29.6 69.4 -492.8" transform="matrix(0.354,0,0,0.354,265.3415,219.8934)" fill="none" stroke="#ea7ccc" stroke-width="2.8221737222222223" stroke-opacity="0.5"></path>
<path d="M443.2 -358.1Q116.6 -29.6 128.3 -492.7" transform="matrix(0.354,0,0,0.354,265.3415,219.8934)" fill="none" stroke="#ea7ccc" stroke-width="2.8221737222222223" stroke-opacity="0.5"></path>
<path d="M443.2 -358.1Q120 -29.1 197 -483.8" transform="matrix(0.354,0,0,0.354,265.3415,219.8934)" fill="none" stroke="#ea7ccc" stroke-width="2.8221737222222223" stroke-opacity="0.5"></path>
<path d="M443.2 -358.1Q123.5 -28.2 266.4 -464.8" transform="matrix(0.354,0,0,0.354,265.3415,219.8934)" fill="none" stroke="#ea7ccc" stroke-width="2.8221737222222223" stroke-opacity="0.5"></path>
<path d="M443.2 -358.1Q126.8 -26.7 332.3 -436.2" transform="matrix(0.354,0,0,0.354,265.3415,219.8934)" fill="none" stroke="#ea7ccc" stroke-width="2.8221737222222223" stroke-opacity="0.5"></path>
<path d="M443.2 -358.1Q129.9 -24.9 393.5 -398.6" transform="matrix(0.354,0,0,0.354,265.3415,219.8934)" fill="none" stroke="#ea7ccc" stroke-width="2.8221737222222223" stroke-opacity="0.5"></path>
<path d="M468.6 -332.9Q104.9 -25.6 -130.2 -439.5" transform="matrix(0.354,0,0,0.354,265.3415,219.8934)" fill="none" stroke="#ea7ccc" stroke-width="2.8221737222222223" stroke-opacity="0.5"></path>
<path d="M492.1 -305.9Q138.6 12.6 518.6 299" transform="matrix(0.354,0,0,0.354,265.3415,219.8934)" fill="none" stroke="#9a60b4" stroke-width="2.8221737222222223" stroke-opacity="0.5"></path>
<path d="M492.1 -305.9Q113.1 23.4 9.9 514.7" transform="matrix(0.354,0,0,0.354,265.3415,219.8934)" fill="none" stroke="#9a60b4" stroke-width="2.8221737222222223" stroke-opacity="0.5"></path>
<path d="M492.1 -305.9Q109.4 22.5 -64.7 495.7" transform="matrix(0.354,0,0,0.354,265.3415,219.8934)" fill="none" stroke="#9a60b4" stroke-width="2.8221737222222223" stroke-opacity="0.5"></path>
<path d="M492.1 -305.9Q102.5 18.9 -203.3 423.6" transform="matrix(0.354,0,0,0.354,265.3415,219.8934)" fill="none" stroke="#9a60b4" stroke-width="2.8221737222222223" stroke-opacity="0.5"></path>
<path d="M492.1 -305.9Q92.1 -0.8 -409.9 30.7" transform="matrix(0.354,0,0,0.354,265.3415,219.8934)" fill="none" stroke="#9a60b4" stroke-width="2.8221737222222223" stroke-opacity="0.5"></path>
<path d="M492.1 -305.9Q93.7 -10.5 -377.7 -164.2" transform="matrix(0.354,0,0,0.354,265.3415,219.8934)" fill="none" stroke="#9a60b4" stroke-width="2.8221737222222223" stroke-opacity="0.5"></path>
<path d="M526.5 -258.1Q140.3 15 518.6 299" transform="matrix(0.354,0,0,0.354,265.3415,219.8934)" fill="none" stroke="#9a60b4" stroke-width="2.8221737222222223" stroke-opacity="0.5"></path>
<path d="M526.5 -258.1Q114.9 25.8 9.9 514.7" transform="matrix(0.354,0,0,0.354,265.3415,219.8934)" fill="none" stroke="#9a60b4" stroke-width="2.8221737222222223" stroke-opacity="0.5"></path>
<path d="M526.5 -258.1Q111.1 24.9 -64.7 495.7" transform="matrix(0.354,0,0,0.354,265.3415,219.8934)" fill="none" stroke="#9a60b4" stroke-width="2.8221737222222223" stroke-opacity="0.5"></path>
<path d="M526.5 -258.1Q104.2 21.2 -203.3 423.6" transform="matrix(0.354,0,0,0.354,265.3415,219.8934)" fill="none" stroke="#9a60b4" stroke-width="2.8221737222222223" stroke-opacity="0.5"></path>
<path d="M526.5 -258.1Q93.9 1.6 -409.9 30.7" transform="matrix(0.354,0,0,0.354,265.3415,219.8934)" fill="none" stroke="#9a60b4" stroke-width="2.8221737222222223" stroke-opacity="0.5"></path>
<path d="M526.5 -258.1Q95.5 -8.1 -377.7 -164.2" transform="matrix(0.354,0,0,0.354,265.3415,219.8934)" fill="none" stroke="#9a60b4" stroke-width="2.8221737222222223" stroke-opacity="0.5"></path>
<path d="M526.5 -258.1Q139 -15.2 492.1 -305.9" transform="matrix(0.354,0,0,0.354,265.3415,219.8934)" fill="none" stroke="#9a60b4" stroke-width="2.8221737222222223" stroke-opacity="0.5"></path>
<path d="M555.2 -206.5Q141.7 17.6 518.6 299" transform="matrix(0.354,0,0,0.354,265.3415,219.8934)" fill="none" stroke="#9a60b4" stroke-width="2.8221737222222223" stroke-opacity="0.5"></path>
<path d="M555.2 -206.5Q116.3 28.4 9.9 514.7" transform="matrix(0.354,0,0,0.354,265.3415,219.8934)" fill="none" stroke="#9a60b4" stroke-width="2.8221737222222223" stroke-opacity="0.5"></path>
<path d="M555.2 -206.5Q112.6 27.4 -64.7 495.7" transform="matrix(0.354,0,0,0.354,265.3415,219.8934)" fill="none" stroke="#9a60b4" stroke-width="2.8221737222222223" stroke-opacity="0.5"></path>
<path d="M555.2 -206.5Q105.6 23.8 -203.3 423.6" transform="matrix(0.354,0,0,0.354,265.3415,219.8934)" fill="none" stroke="#9a60b4" stroke-width="2.8221737222222223" stroke-opacity="0.5"></path>
<path d="M555.2 -206.5Q95.3 4.2 -409.9 30.7" transform="matrix(0.354,0,0,0.354,265.3415,219.8934)" fill="none" stroke="#9a60b4" stroke-width="2.8221737222222223" stroke-opacity="0.5"></path>
<path d="M555.2 -206.5Q112.7 -20.8 -61.5 -468" transform="matrix(0.354,0,0,0.354,265.3415,219.8934)" fill="none" stroke="#9a60b4" stroke-width="2.8221737222222223" stroke-opacity="0.5"></path>
<path d="M555.2 -206.5Q140.4 -12.7 492.1 -305.9" transform="matrix(0.354,0,0,0.354,265.3415,219.8934)" fill="none" stroke="#9a60b4" stroke-width="2.8221737222222223" stroke-opacity="0.5"></path>
<path d="M555.2 -206.5Q142.1 -10.3 526.5 -258.1" transform="matrix(0.354,0,0,0.354,265.3415,219.8934)" fill="none" stroke="#9a60b4" stroke-width="2.8221737222222223" stroke-opacity="0.5"></path>
<path d="M576.9 -154.5Q142.8 20.2 518.6 299" transform="matrix(0.354,0,0,0.354,265.3415,219.8934)" fill="none" stroke="#9a60b4" stroke-width="2.8221737222222223" stroke-opacity="0.5"></path>
<path d="M576.9 -154.5Q113.6 30 -64.7 495.7" transform="matrix(0.354,0,0,0.354,265.3415,219.8934)" fill="none" stroke="#9a60b4" stroke-width="2.8221737222222223" stroke-opacity="0.5"></path>
<path d="M576.9 -154.5Q106.7 26.4 -203.3 423.6" transform="matrix(0.354,0,0,0.354,265.3415,219.8934)" fill="none" stroke="#9a60b4" stroke-width="2.8221737222222223" stroke-opacity="0.5"></path>
<path d="M576.9 -154.5Q96.4 6.8 -409.9 30.7" transform="matrix(0.354,0,0,0.354,265.3415,219.8934)" fill="none" stroke="#9a60b4" stroke-width="2.8221737222222223" stroke-opacity="0.5"></path>
<path d="M576.9 -154.5Q98 -3 -377.7 -164.2" transform="matrix(0.354,0,0,0.354,265.3415,219.8934)" fill="none" stroke="#9a60b4" stroke-width="2.8221737222222223" stroke-opacity="0.5"></path>
<path d="M576.9 -154.5Q141.5 -10 492.1 -305.9" transform="matrix(0.354,0,0,0.354,265.3415,219.8934)" fill="none" stroke="#9a60b4" stroke-width="2.8221737222222223" stroke-opacity="0.5"></path>
<path d="M576.9 -154.5Q143.2 -7.7 526.5 -258.1" transform="matrix(0.354,0,0,0.354,265.3415,219.8934)" fill="none" stroke="#9a60b4" stroke-width="2.8221737222222223" stroke-opacity="0.5"></path>
<path d="M576.9 -154.5Q144.6 -5.1 555.2 -206.5" transform="matrix(0.354,0,0,0.354,265.3415,219.8934)" fill="none" stroke="#9a60b4" stroke-width="2.8221737222222223" stroke-opacity="0.5"></path>
<path d="M588.3 -117.9Q143.4 22 518.6 299" transform="matrix(0.354,0,0,0.354,265.3415,219.8934)" fill="none" stroke="#91cc75" stroke-width="2.8221737222222223" stroke-opacity="0.5"></path>
<path d="M588.3 -117.9Q110.7 30.4 -135.6 465.6" transform="matrix(0.354,0,0,0.354,265.3415,219.8934)" fill="none" stroke="#91cc75" stroke-width="2.8221737222222223" stroke-opacity="0.5"></path>
<path d="M588.3 -117.9Q107.3 28.3 -203.3 423.6" transform="matrix(0.354,0,0,0.354,265.3415,219.8934)" fill="none" stroke="#91cc75" stroke-width="2.8221737222222223" stroke-opacity="0.5"></path>
<path d="M593.2 -98.2Q98.8 -0.2 -377.7 -164.2" transform="matrix(0.354,0,0,0.354,265.3415,219.8934)" fill="none" stroke="#ea7ccc" stroke-width="2.8221737222222223" stroke-opacity="0.5"></path>
<path d="M596.8 -80.9Q99 0.7 -377.7 -164.2" transform="matrix(0.354,0,0,0.354,265.3415,219.8934)" fill="none" stroke="#ea7ccc" stroke-width="2.8221737222222223" stroke-opacity="0.5"></path>
<path d="M596.8 -80.9Q147.5 4 593.2 -98.2" transform="matrix(0.354,0,0,0.354,265.3415,219.8934)" fill="none" stroke="#ea7ccc" stroke-width="2.8221737222222223" stroke-opacity="0.5"></path>
<path d="M601.6 -50.7Q114.9 35.2 -64.7 495.7" transform="matrix(0.354,0,0,0.354,265.3415,219.8934)" fill="none" stroke="#9a60b4" stroke-width="2.8221737222222223" stroke-opacity="0.5"></path>
<path d="M601.6 -50.7Q97.6 12 -409.9 30.7" transform="matrix(0.354,0,0,0.354,265.3415,219.8934)" fill="none" stroke="#9a60b4" stroke-width="2.8221737222222223" stroke-opacity="0.5"></path>
<path d="M601.6 -50.7Q99.2 2.2 -377.7 -164.2" transform="matrix(0.354,0,0,0.354,265.3415,219.8934)" fill="none" stroke="#9a60b4" stroke-width="2.8221737222222223" stroke-opacity="0.5"></path>
<path d="M601.6 -50.7Q142.7 -4.9 492.1 -305.9" transform="matrix(0.354,0,0,0.354,265.3415,219.8934)" fill="none" stroke="#9a60b4" stroke-width="2.8221737222222223" stroke-opacity="0.5"></path>
<path d="M601.6 -50.7Q144.4 -2.5 526.5 -258.1" transform="matrix(0.354,0,0,0.354,265.3415,219.8934)" fill="none" stroke="#9a60b4" stroke-width="2.8221737222222223" stroke-opacity="0.5"></path>
<path d="M601.6 -50.7Q145.9 0.1 555.2 -206.5" transform="matrix(0.354,0,0,0.354,265.3415,219.8934)" fill="none" stroke="#9a60b4" stroke-width="2.8221737222222223" stroke-opacity="0.5"></path>
<path d="M601.6 -50.7Q147 2.7 576.9 -154.5" transform="matrix(0.354,0,0,0.354,265.3415,219.8934)" fill="none" stroke="#9a60b4" stroke-width="2.8221737222222223" stroke-opacity="0.5"></path>
<path d="M605.3 -7.3Q99.4 4.4 -377.7 -164.2" transform="matrix(0.354,0,0,0.354,265.3415,219.8934)" fill="none" stroke="#ea7ccc" stroke-width="2.8221737222222223" stroke-opacity="0.5"></path>
<path d="M605.3 -7.3Q115.2 -10.8 -61.5 -468" transform="matrix(0.354,0,0,0.354,265.3415,219.8934)" fill="none" stroke="#ea7ccc" stroke-width="2.8221737222222223" stroke-opacity="0.5"></path>
<path d="M605.3 -7.3Q128.2 -11.6 197 -483.8" transform="matrix(0.354,0,0,0.354,265.3415,219.8934)" fill="none" stroke="#ea7ccc" stroke-width="2.8221737222222223" stroke-opacity="0.5"></path>
<path d="M605.3 -7.3Q131.6 -10.6 266.4 -464.8" transform="matrix(0.354,0,0,0.354,265.3415,219.8934)" fill="none" stroke="#ea7ccc" stroke-width="2.8221737222222223" stroke-opacity="0.5"></path>
<path d="M605.3 -7.3Q134.9 -9.2 332.3 -436.2" transform="matrix(0.354,0,0,0.354,265.3415,219.8934)" fill="none" stroke="#ea7ccc" stroke-width="2.8221737222222223" stroke-opacity="0.5"></path>
<path d="M605.3 -7.3Q138 -7.3 393.5 -398.6" transform="matrix(0.354,0,0,0.354,265.3415,219.8934)" fill="none" stroke="#ea7ccc" stroke-width="2.8221737222222223" stroke-opacity="0.5"></path>
<path d="M605.3 -7.3Q140.5 -5.3 443.2 -358.1" transform="matrix(0.354,0,0,0.354,265.3415,219.8934)" fill="none" stroke="#ea7ccc" stroke-width="2.8221737222222223" stroke-opacity="0.5"></path>
<path d="M1 0A1 1 0 1 1 1 -0.1A1 1 0 0 1 1 0" transform="matrix(9.562,0,0,9.562,479.6965,235.4475)" fill="#5470c6"></path>
<path d="M1 0A1 1 0 1 1 1 -0.1A1 1 0 0 1 1 0" transform="matrix(1.333,0,0,1.333,478.5163,248.0636)" fill="#5470c6"></path>
<path d="M1 0A1 1 0 1 1 1 -0.1A1 1 0 0 1 1 0" transform="matrix(3.162,0,0,3.162,477.6049,254.266)" fill="#91cc75"></path>
<path d="M1 0A1 1 0 1 1 1 -0.1A1 1 0 0 1 1 0" transform="matrix(3.162,0,0,3.162,476.109,262.2241)" fill="#91cc75"></path>
<path d="M1 0A1 1 0 1 1 1 -0.1A1 1 0 0 1 1 0" transform="matrix(1.333,0,0,1.333,474.7059,268.3341)" fill="#5470c6"></path>
<path d="M1 0A1 1 0 1 1 1 -0.1A1 1 0 0 1 1 0" transform="matrix(1.333,0,0,1.333,473.5838,272.6306)" fill="#5470c6"></path>
<path d="M1 0A1 1 0 1 1 1 -0.1A1 1 0 0 1 1 0" transform="matrix(1.333,0,0,1.333,472.356,276.8981)" fill="#5470c6"></path>
<path d="M1 0A1 1 0 1 1 1 -0.1A1 1 0 0 1 1 0" transform="matrix(1.333,0,0,1.333,471.0233,281.1339)" fill="#5470c6"></path>
<path d="M1 0A1 1 0 1 1 1 -0.1A1 1 0 0 1 1 0" transform="matrix(1.333,0,0,1.333,469.5866,285.3356)" fill="#5470c6"></path>
<path d="M1 0A1 1 0 1 1 1 -0.1A1 1 0 0 1 1 0" transform="matrix(1.333,0,0,1.333,468.0466,289.5006)" fill="#5470c6"></path>
<path d="M1 0A1 1 0 1 1 1 -0.1A1 1 0 0 1 1 0" transform="matrix(1.333,0,0,1.333,466.4044,293.6264)" fill="#91cc75"></path>
<path d="M1 0A1 1 0 1 1 1 -0.01" transform="matrix(33.333,0,0,33.333,449.0991,325.8438)" fill="#91cc75"></path>
<path d="M1 0A1 1 0 1 1 1 -0.1A1 1 0 0 1 1 0" transform="matrix(2.248,0,0,2.248,424.9827,354.535)" fill="#91cc75"></path>
<path d="M1 0A1 1 0 1 1 1 -0.1A1 1 0 0 1 1 0" transform="matrix(1.333,0,0,1.333,421.0743,358.1954)" fill="#91cc75"></path>
<path d="M1 0A1 1 0 1 1 1 -0.1A1 1 0 0 1 1 0" transform="matrix(1.333,0,0,1.333,417.7518,361.1415)" fill="#91cc75"></path>
<path d="M1 0A1 1 0 1 1 1 -0.1A1 1 0 0 1 1 0" transform="matrix(1.333,0,0,1.333,414.3576,364.0048)" fill="#91cc75"></path>
<path d="M1 0A1 1 0 1 1 1 -0.1A1 1 0 0 1 1 0" transform="matrix(8.648,0,0,8.648,405.0399,371.1733)" fill="#fac858"></path>
<path d="M1 0A1 1 0 1 1 1 -0.1A1 1 0 0 1 1 0" transform="matrix(6.819,0,0,6.819,390.5748,380.5513)" fill="#fac858"></path>
<path d="M1 0A1 1 0 1 1 1 -0.1A1 1 0 0 1 1 0" transform="matrix(6.819,0,0,6.819,376.9376,387.7286)" fill="#fac858"></path>
<path d="M1 0A1 1 0 1 1 1 -0.1A1 1 0 0 1 1 0" transform="matrix(6.819,0,0,6.819,362.7365,393.7132)" fill="#fac858"></path>
<path d="M1 0A1 1 0 1 1 1 -0.1A1 1 0 0 1 1 0" transform="matrix(6.819,0,0,6.819,348.0755,398.4611)" fill="#fac858"></path>
<path d="M1 0A1 1 0 1 1 1 -0.1A1 1 0 0 1 1 0" transform="matrix(6.819,0,0,6.819,333.0621,401.9376)" fill="#fac858"></path>
<path d="M1 0A1 1 0 1 1 1 -0.1A1 1 0 0 1 1 0" transform="matrix(6.819,0,0,6.819,317.8064,404.1171)" fill="#fac858"></path>
<path d="M1 0A1 1 0 1 1 1 -0.01" transform="matrix(14.133,0,0,14.133,295.0936,404.9331)" fill="#fac858"></path>
<path d="M1 0A1 1 0 1 1 1 -0.01" transform="matrix(10.476,0,0,10.476,268.8466,402.2836)" fill="#9a60b4"></path>
<path d="M1 0A1 1 0 1 1 1 -0.01" transform="matrix(15.048,0,0,15.048,242.399,395.5348)" fill="#9a60b4"></path>
<path d="M1 0A1 1 0 1 1 1 -0.01" transform="matrix(10.476,0,0,10.476,217.2759,384.8647)" fill="#fc8452"></path>
<path d="M1 0A1 1 0 1 1 1 -0.01" transform="matrix(15.962,0,0,15.962,193.3145,369.9766)" fill="#9a60b4"></path>
<path d="M1 0A1 1 0 1 1 1 -0.1A1 1 0 0 1 1 0" transform="matrix(4.076,0,0,4.076,176.5563,356.0025)" fill="#73c0de"></path>
<path d="M1 0A1 1 0 1 1 1 -0.1A1 1 0 0 1 1 0" transform="matrix(7.733,0,0,7.733,167.0292,346.3209)" fill="#ee6666"></path>
<path d="M1 0A1 1 0 1 1 1 -0.1A1 1 0 0 1 1 0" transform="matrix(2.248,0,0,2.248,159.3938,337.3829)" fill="#fac858"></path>
<path d="M1 0A1 1 0 1 1 1 -0.1A1 1 0 0 1 1 0" transform="matrix(4.076,0,0,4.076,154.4817,330.9454)" fill="#fac858"></path>
<path d="M1 0A1 1 0 1 1 1 -0.1A1 1 0 0 1 1 0" transform="matrix(1.333,0,0,1.333,150.3704,325.0549)" fill="#91cc75"></path>
<path d="M1 0A1 1 0 1 1 1 -0.1A1 1 0 0 1 1 0" transform="matrix(2.248,0,0,2.248,147.4604,320.5598)" fill="#91cc75"></path>
<path d="M1 0A1 1 0 1 1 1 -0.1A1 1 0 0 1 1 0" transform="matrix(5.905,0,0,5.905,142.4246,312.0058)" fill="#ee6666"></path>
<path d="M1 0A1 1 0 1 1 1 -0.1A1 1 0 0 1 1 0" transform="matrix(5.905,0,0,5.905,136.3127,299.8763)" fill="#ee6666"></path>
<path d="M1 0A1 1 0 1 1 1 -0.1A1 1 0 0 1 1 0" transform="matrix(5.905,0,0,5.905,131.1327,287.3204)" fill="#ee6666"></path>
<path d="M1 0A1 1 0 1 1 1 -0.1A1 1 0 0 1 1 0" transform="matrix(5.905,0,0,5.905,126.9142,274.4097)" fill="#ee6666"></path>
<path d="M1 0A1 1 0 1 1 1 -0.1A1 1 0 0 1 1 0" transform="matrix(5.905,0,0,5.905,123.6813,261.2177)" fill="#ee6666"></path>
<path d="M1 0A1 1 0 1 1 1 -0.1A1 1 0 0 1 1 0" transform="matrix(3.162,0,0,3.162,121.8209,250.5383)" fill="#fc8452"></path>
<path d="M1 0A1 1 0 1 1 1 -0.1A1 1 0 0 1 1 0" transform="matrix(1.333,0,0,1.333,121.0396,244.318)" fill="#9a60b4"></path>
<path d="M1 0A1 1 0 1 1 1 -0.01" transform="matrix(10.476,0,0,10.476,120.0923,230.7649)" fill="#9a60b4"></path>
<path d="M1 0A1 1 0 1 1 1 -0.1A1 1 0 0 1 1 0" transform="matrix(3.162,0,0,3.162,120.2587,215.3523)" fill="#9a60b4"></path>
<path d="M1 0A1 1 0 1 1 1 -0.1A1 1 0 0 1 1 0" transform="matrix(3.162,0,0,3.162,120.8745,207.2783)" fill="#fc8452"></path>
<path d="M1 0A1 1 0 1 1 1 -0.1A1 1 0 0 1 1 0" transform="matrix(2.248,0,0,2.248,121.7242,200.1455)" fill="#73c0de"></path>
<path d="M1 0A1 1 0 1 1 1 -0.1A1 1 0 0 1 1 0" transform="matrix(1.333,0,0,1.333,122.5424,194.8536)" fill="#73c0de"></path>
<path d="M1 0A1 1 0 1 1 1 -0.1A1 1 0 0 1 1 0" transform="matrix(1.333,0,0,1.333,123.3401,190.4853)" fill="#3ba272"></path>
<path d="M1 0A1 1 0 1 1 1 -0.1A1 1 0 0 1 1 0" transform="matrix(2.248,0,0,2.248,124.4449,185.2457)" fill="#3ba272"></path>
<path d="M1 0A1 1 0 1 1 1 -0.01" transform="matrix(20.533,0,0,20.533,131.498,161.6986)" fill="#ea7ccc"></path>
<path d="M1 0A1 1 0 1 1 1 -0.1A1 1 0 0 1 1 0" transform="matrix(6.819,0,0,6.819,143.9206,135.3383)" fill="#fc8452"></path>
<path d="M1 0A1 1 0 1 1 1 -0.1A1 1 0 0 1 1 0" transform="matrix(2.248,0,0,2.248,149.6012,126.1051)" fill="#fc8452"></path>
<path d="M1 0A1 1 0 1 1 1 -0.1A1 1 0 0 1 1 0" transform="matrix(6.819,0,0,6.819,155.8273,117.2306)" fill="#fc8452"></path>
<path d="M1 0A1 1 0 1 1 1 -0.1A1 1 0 0 1 1 0" transform="matrix(2.248,0,0,2.248,162.5764,108.747)" fill="#fc8452"></path>
<path d="M1 0A1 1 0 1 1 1 -0.1A1 1 0 0 1 1 0" transform="matrix(1.333,0,0,1.333,166.0952,104.7107)" fill="#fc8452"></path>
<path d="M1 0A1 1 0 1 1 1 -0.1A1 1 0 0 1 1 0" transform="matrix(4.076,0,0,4.076,171.0014,99.4637)" fill="#fc8452"></path>
<path d="M1 0A1 1 0 1 1 1 -0.01" transform="matrix(17.79,0,0,17.79,188.5757,83.633)" fill="#fc8452"></path>
<path d="M1 0A1 1 0 1 1 1 -0.1A1 1 0 0 1 1 0" transform="matrix(2.248,0,0,2.248,206.5064,71.1854)" fill="#fc8452"></path>
<path d="M1 0A1 1 0 1 1 1 -0.01" transform="matrix(10.476,0,0,10.476,219.1902,64.1592)" fill="#ea7ccc"></path>
<path d="M1 0A1 1 0 1 1 1 -0.01" transform="matrix(14.133,0,0,14.133,243.567,54.0751)" fill="#ea7ccc"></path>
<path d="M1 0A1 1 0 1 1 1 -0.01" transform="matrix(10.476,0,0,10.476,269.1561,47.6623)" fill="#ea7ccc"></path>
<path d="M1 0A1 1 0 1 1 1 -0.1A1 1 0 0 1 1 0" transform="matrix(8.648,0,0,8.648,289.9154,45.2827)" fill="#ea7ccc"></path>
<path d="M1 0A1 1 0 1 1 1 -0.01" transform="matrix(10.476,0,0,10.476,310.8107,45.3249)" fill="#ea7ccc"></path>
<path d="M1 0A1 1 0 1 1 1 -0.01" transform="matrix(12.305,0,0,12.305,335.1601,48.4674)" fill="#ea7ccc"></path>
<path d="M1 0A1 1 0 1 1 1 -0.01" transform="matrix(11.39,0,0,11.39,359.7203,55.1958)" fill="#ea7ccc"></path>
<path d="M1 0A1 1 0 1 1 1 -0.01" transform="matrix(12.305,0,0,12.305,383.0853,65.3227)" fill="#ea7ccc"></path>
<path d="M1 0A1 1 0 1 1 1 -0.01" transform="matrix(11.39,0,0,11.39,404.7873,78.6455)" fill="#ea7ccc"></path>
<path d="M1 0A1 1 0 1 1 1 -0.1A1 1 0 0 1 1 0" transform="matrix(9.562,0,0,9.562,422.3914,93.0138)" fill="#ea7ccc"></path>
<path d="M1 0A1 1 0 1 1 1 -0.1A1 1 0 0 1 1 0" transform="matrix(1.333,0,0,1.333,431.3735,101.9512)" fill="#ea7ccc"></path>
<path d="M1 0A1 1 0 1 1 1 -0.1A1 1 0 0 1 1 0" transform="matrix(9.562,0,0,9.562,439.7047,111.4984)" fill="#9a60b4"></path>
<path d="M1 0A1 1 0 1 1 1 -0.1A1 1 0 0 1 1 0" transform="matrix(9.562,0,0,9.562,451.9169,128.4533)" fill="#9a60b4"></path>
<path d="M1 0A1 1 0 1 1 1 -0.1A1 1 0 0 1 1 0" transform="matrix(9.562,0,0,9.562,462.0819,146.7091)" fill="#9a60b4"></path>
<path d="M1 0A1 1 0 1 1 1 -0.1A1 1 0 0 1 1 0" transform="matrix(8.648,0,0,8.648,469.7606,165.1558)" fill="#9a60b4"></path>
<path d="M1 0A1 1 0 1 1 1 -0.1A1 1 0 0 1 1 0" transform="matrix(3.162,0,0,3.162,473.7902,178.1281)" fill="#91cc75"></path>
<path d="M1 0A1 1 0 1 1 1 -0.1A1 1 0 0 1 1 0" transform="matrix(2.248,0,0,2.248,475.5219,185.0995)" fill="#ea7ccc"></path>
<path d="M1 0A1 1 0 1 1 1 -0.1A1 1 0 0 1 1 0" transform="matrix(2.248,0,0,2.248,476.8049,191.2358)" fill="#ea7ccc"></path>
<path d="M1 0A1 1 0 1 1 1 -0.1A1 1 0 0 1 1 0" transform="matrix(6.819,0,0,6.819,478.5168,201.9405)" fill="#9a60b4"></path>
<path d="M1 0A1 1 0 1 1 1 -0.1A1 1 0 0 1 1 0" transform="matrix(6.819,0,0,6.819,479.835,217.2947)" fill="#ea7ccc"></path>
<text dominant-baseline="central" text-anchor="start" style="font-size:12px;font-family:sans-serif;" transform="matrix(0.828,0.56,-0.56,0.828,480.8516,347.3198)" fill="#333" stroke="rgb(255,255,255)" stroke-width="2" paint-order="stroke" stroke-miterlimit="2">Valjean</text>
<text dominant-baseline="central" text-anchor="end" style="font-size:12px;font-family:sans-serif;" transform="matrix(0.32,-0.947,0.947,0.32,235.9837,414.5283)" fill="#333" stroke="rgb(255,255,255)" stroke-width="2" paint-order="stroke" stroke-miterlimit="2">Thenardier</text>
<text dominant-baseline="central" text-anchor="end" style="font-size:12px;font-family:sans-serif;" transform="matrix(0.593,-0.805,0.805,0.593,180.8905,386.8598)" fill="#333" stroke="rgb(255,255,255)" stroke-width="2" paint-order="stroke" stroke-miterlimit="2">Javert</text>
<text dominant-baseline="central" text-anchor="end" style="font-size:12px;font-family:sans-serif;" transform="matrix(0.936,0.352,-0.352,0.936,107.5956,152.7192)" fill="#333" stroke="rgb(255,255,255)" stroke-width="2" paint-order="stroke" stroke-miterlimit="2">Gavroche</text>
<text dominant-baseline="central" text-anchor="end" style="font-size:12px;font-family:sans-serif;" transform="matrix(0.619,0.785,-0.785,0.619,174.4678,65.734)" fill="#333" stroke="rgb(255,255,255)" stroke-width="2" paint-order="stroke" stroke-miterlimit="2">Marius</text>
<path d="M-5 -5l430.1 0l0 24l-430.1 0Z" transform="translate(89.96 5)" fill="rgb(0,0,0)" fill-opacity="0" stroke="#ccc" stroke-width="0"></path>
<path d="M3.5 0L21.5 0A3.5 3.5 0 0 1 25 3.5L25 10.5A3.5 3.5 0 0 1 21.5 14L3.5 14A3.5 3.5 0 0 1 0 10.5L0 3.5A3.5 3.5 0 0 1 3.5 0" transform="translate(89.96 5)" fill="#5470c6"></path>
<text dominant-baseline="central" text-anchor="start" style="font-size:12px;font-family:sans-serif;" x="30" y="7" transform="translate(89.96 5)" fill="#333">A</text>
<path d="M3.5 0L21.5 0A3.5 3.5 0 0 1 25 3.5L25 10.5A3.5 3.5 0 0 1 21.5 14L3.5 14A3.5 3.5 0 0 1 0 10.5L0 3.5A3.5 3.5 0 0 1 3.5 0" transform="translate(138 5)" fill="#91cc75"></path>
<text dominant-baseline="central" text-anchor="start" style="font-size:12px;font-family:sans-serif;" x="30" y="7" transform="translate(138 5)" fill="#333">B</text>
<path d="M3.5 0L21.5 0A3.5 3.5 0 0 1 25 3.5L25 10.5A3.5 3.5 0 0 1 21.5 14L3.5 14A3.5 3.5 0 0 1 0 10.5L0 3.5A3.5 3.5 0 0 1 3.5 0" transform="translate(186.04 5)" fill="#fac858"></path>
<text dominant-baseline="central" text-anchor="start" style="font-size:12px;font-family:sans-serif;" x="30" y="7" transform="translate(186.04 5)" fill="#333">C</text>
<path d="M3.5 0L21.5 0A3.5 3.5 0 0 1 25 3.5L25 10.5A3.5 3.5 0 0 1 21.5 14L3.5 14A3.5 3.5 0 0 1 0 10.5L0 3.5A3.5 3.5 0 0 1 3.5 0" transform="translate(234.68 5)" fill="#ee6666"></path>
<text dominant-baseline="central" text-anchor="start" style="font-size:12px;font-family:sans-serif;" x="30" y="7" transform="translate(234.68 5)" fill="#333">D</text>
<path d="M3.5 0L21.5 0A3.5 3.5 0 0 1 25 3.5L25 10.5A3.5 3.5 0 0 1 21.5 14L3.5 14A3.5 3.5 0 0 1 0 10.5L0 3.5A3.5 3.5 0 0 1 3.5 0" transform="translate(283.32 5)" fill="#73c0de"></path>
<text dominant-baseline="central" text-anchor="start" style="font-size:12px;font-family:sans-serif;" x="30" y="7" transform="translate(283.32 5)" fill="#333">E</text>
<path d="M3.5 0L21.5 0A3.5 3.5 0 0 1 25 3.5L25 10.5A3.5 3.5 0 0 1 21.5 14L3.5 14A3.5 3.5 0 0 1 0 10.5L0 3.5A3.5 3.5 0 0 1 3.5 0" transform="translate(331.36 5)" fill="#3ba272"></path>
<text dominant-baseline="central" text-anchor="start" style="font-size:12px;font-family:sans-serif;" x="30" y="7" transform="translate(331.36 5)" fill="#333">F</text>
<path d="M3.5 0L21.5 0A3.5 3.5 0 0 1 25 3.5L25 10.5A3.5 3.5 0 0 1 21.5 14L3.5 14A3.5 3.5 0 0 1 0 10.5L0 3.5A3.5 3.5 0 0 1 3.5 0" transform="translate(378.68 5)" fill="#fc8452"></path>
<text dominant-baseline="central" text-anchor="start" style="font-size:12px;font-family:sans-serif;" x="30" y="7" transform="translate(378.68 5)" fill="#333">G</text>
<path d="M3.5 0L21.5 0A3.5 3.5 0 0 1 25 3.5L25 10.5A3.5 3.5 0 0 1 21.5 14L3.5 14A3.5 3.5 0 0 1 0 10.5L0 3.5A3.5 3.5 0 0 1 3.5 0" transform="translate(428.04 5)" fill="#9a60b4"></path>
<text dominant-baseline="central" text-anchor="start" style="font-size:12px;font-family:sans-serif;" x="30" y="7" transform="translate(428.04 5)" fill="#333">H</text>
<path d="M3.5 0L21.5 0A3.5 3.5 0 0 1 25 3.5L25 10.5A3.5 3.5 0 0 1 21.5 14L3.5 14A3.5 3.5 0 0 1 0 10.5L0 3.5A3.5 3.5 0 0 1 3.5 0" transform="translate(476.68 5)" fill="#ea7ccc"></path>
<text dominant-baseline="central" text-anchor="start" style="font-size:12px;font-family:sans-serif;" x="30" y="7" transform="translate(476.68 5)" fill="#333">I</text>
<path d="M-126.3 -23l131.3 0l0 56l-131.3 0Z" transform="translate(595 445)" fill="rgb(0,0,0)" fill-opacity="0" stroke="#ccc" stroke-width="0"></path>
<text dominant-baseline="central" text-anchor="end" style="font-size:18px;font-family:sans-serif;font-weight:bold;" xml:space="preserve" y="-9" transform="translate(595 445)" fill="#464646">Les Miserables</text>
<text dominant-baseline="central" text-anchor="end" style="font-size:12px;font-family:sans-serif;" xml:space="preserve" y="22" transform="translate(595 445)" fill="#6E7079">Circular layout</text>
</svg>