<svg width="600" height="450" xmlns="http://www.w3.org/2000/svg" xmlns:xlink="http://www.w3.org/1999/xlink" version="1.1" baseProfile="full" viewBox="0 0 600 450">
<rect width="600" height="450" x="0" y="0" id="0" fill="none"></rect>
<path d="M300 146.3A78.8 78.8 0 0 1 322.9 149.7L309.8 192.7A33.8 33.8 0 0 0 300 191.3Z" fill="#da0d68" stroke="white" stroke-width="2" stroke-linejoin="bevel"></path>
<path d="M300 67.5A157.5 157.5 0 0 1 311.6 67.9L305.8 146.5A78.8 78.8 0 0 0 300 146.3Z" fill="#975e6d" stroke="white" stroke-linejoin="bevel"></path>
<path d="M311.6 67.9A157.5 157.5 0 0 1 345.9 74.3L322.9 149.7A78.8 78.8 0 0 0 305.8 146.5Z" fill="#e0719c" stroke="white" stroke-linejoin="bevel"></path>
<path d="M312 63.4A162 162 0 0 1 323.9 64.8L323.2 69.2A157.5 157.5 0 0 0 311.6 67.9Z" fill="#f99e1c" stroke="white" stroke-width="3" stroke-linejoin="bevel"></path>
<path d="M323.9 64.8A162 162 0 0 1 335.6 67L334.6 71.4A157.5 157.5 0 0 0 323.2 69.2Z" fill="#ef5a78" stroke="white" stroke-width="3" stroke-linejoin="bevel"></path>
<path d="M335.6 67A162 162 0 0 1 347.2 70L345.9 74.3A157.5 157.5 0 0 0 334.6 71.4Z" fill="#f7f1bd" stroke="white" stroke-width="3" stroke-linejoin="bevel"></path>
<path d="M322.9 149.7A78.8 78.8 0 0 1 378.6 229.4L333.7 226.9A33.8 33.8 0 0 0 309.8 192.7Z" fill="#da1d23" stroke="white" stroke-width="2" stroke-linejoin="bevel"></path>
<path d="M345.9 74.3A157.5 157.5 0 0 1 387.8 94.2L343.9 159.6A78.8 78.8 0 0 0 322.9 149.7Z" fill="#dd4c51" stroke="white" stroke-linejoin="bevel"></path>
<path d="M347.2 70A162 162 0 0 1 358.5 73.9L356.9 78.1A157.5 157.5 0 0 0 345.9 74.3Z" fill="#3e0317" stroke="white" stroke-width="3" stroke-linejoin="bevel"></path>
<path d="M358.5 73.9A162 162 0 0 1 369.5 78.7L367.6 82.7A157.5 157.5 0 0 0 356.9 78.1Z" fill="#e62969" stroke="white" stroke-width="3" stroke-linejoin="bevel"></path>
<path d="M369.5 78.7A162 162 0 0 1 380.1 84.2L377.9 88.1A157.5 157.5 0 0 0 367.6 82.7Z" fill="#6569b0" stroke="white" stroke-width="3" stroke-linejoin="bevel"></path>
<path d="M380.1 84.2A162 162 0 0 1 390.3 90.5L387.8 94.2A157.5 157.5 0 0 0 377.9 88.1Z" fill="#ef2d36" stroke="white" stroke-width="3" stroke-linejoin="bevel"></path>
<path d="M387.8 94.2A157.5 157.5 0 0 1 406.1 108.6L353.1 166.8A78.8 78.8 0 0 0 343.9 159.6Z" fill="#c94a44" stroke="white" stroke-linejoin="bevel"></path>
<path d="M390.3 90.5A162 162 0 0 1 400 97.5L397.2 101.1A157.5 157.5 0 0 0 387.8 94.2Z" fill="#b53b54" stroke="white" stroke-width="3" stroke-linejoin="bevel"></path>
<path d="M400 97.5A162 162 0 0 1 409.1 105.3L406.1 108.6A157.5 157.5 0 0 0 397.2 101.1Z" fill="#a5446f" stroke="white" stroke-width="3" stroke-linejoin="bevel"></path>
<path d="M406.1 108.6A157.5 157.5 0 0 1 453 187.5L376.5 206.3A78.8 78.8 0 0 0 353.1 166.8Z" fill="#dd4c51" stroke="white" stroke-linejoin="bevel"></path>
<path d="M409.1 105.3A162 162 0 0 1 417.7 113.7L414.4 116.8A157.5 157.5 0 0 0 406.1 108.6Z" fill="#f2684b" stroke="white" stroke-width="3" stroke-linejoin="bevel"></path>
<path d="M417.7 113.7A162 162 0 0 1 425.6 122.7L422.1 125.5A157.5 157.5 0 0 0 414.4 116.8Z" fill="#e73451" stroke="white" stroke-width="3" stroke-linejoin="bevel"></path>
<path d="M425.6 122.7A162 162 0 0 1 432.8 132.2L429.1 134.8A157.5 157.5 0 0 0 422.1 125.5Z" fill="#e65656" stroke="white" stroke-width="3" stroke-linejoin="bevel"></path>
<path d="M432.8 132.2A162 162 0 0 1 439.3 142.3L435.4 144.6A157.5 157.5 0 0 0 429.1 134.8Z" fill="#f89a1c" stroke="white" stroke-width="3" stroke-linejoin="bevel"></path>
<path d="M439.3 142.3A162 162 0 0 1 445 152.8L441 154.8A157.5 157.5 0 0 0 435.4 144.6Z" fill="#aeb92c" stroke="white" stroke-width="3" stroke-linejoin="bevel"></path>
<path d="M445 152.8A162 162 0 0 1 450 163.7L445.8 165.4A157.5 157.5 0 0 0 441 154.8Z" fill="#4eb849" stroke="white" stroke-width="3" stroke-linejoin="bevel"></path>
<path d="M450 163.7A162 162 0 0 1 454.1 174.9L449.8 176.3A157.5 157.5 0 0 0 445.8 165.4Z" fill="#f68a5c" stroke="white" stroke-width="3" stroke-linejoin="bevel"></path>
<path d="M454.1 174.9A162 162 0 0 1 457.3 186.5L453 187.5A157.5 157.5 0 0 0 449.8 176.3Z" fill="#baa635" stroke="white" stroke-width="3" stroke-linejoin="bevel"></path>
<path d="M453 187.5A157.5 157.5 0 0 1 457.3 233.7L378.6 229.4A78.8 78.8 0 0 0 376.5 206.3Z" fill="#f7a128" stroke="white" stroke-linejoin="bevel"></path>
<path d="M457.3 186.5A162 162 0 0 1 459.8 198.2L455.3 198.9A157.5 157.5 0 0 0 453 187.5Z" fill="#f26355" stroke="white" stroke-width="3" stroke-linejoin="bevel"></path>
<path d="M459.8 198.2A162 162 0 0 1 461.3 210.1L456.8 210.5A157.5 157.5 0 0 0 455.3 198.9Z" fill="#e2631e" stroke="white" stroke-width="3" stroke-linejoin="bevel"></path>
<path d="M461.3 210.1A162 162 0 0 1 462 222L457.5 222.1A157.5 157.5 0 0 0 456.8 210.5Z" fill="#fde404" stroke="white" stroke-width="3" stroke-linejoin="bevel"></path>
<path d="M462 222A162 162 0 0 1 461.8 234L457.3 233.7A157.5 157.5 0 0 0 457.5 222.1Z" fill="#7eb138" stroke="white" stroke-width="3" stroke-linejoin="bevel"></path>
<path d="M378.6 229.4A78.8 78.8 0 0 1 355.2 281.2L323.6 249.1A33.8 33.8 0 0 0 333.7 226.9Z" fill="#ebb40f" stroke="white" stroke-width="2" stroke-linejoin="bevel"></path>
<path d="M457.3 233.7A157.5 157.5 0 0 1 438.3 300.4L369.1 262.7A78.8 78.8 0 0 0 378.6 229.4Z" fill="#e1c315" stroke="white" stroke-linejoin="bevel"></path>
<path d="M461.8 234A162 162 0 0 1 460.6 245.9L456.2 245.3A157.5 157.5 0 0 0 457.3 233.7Z" fill="#9ea718" stroke="white" stroke-width="3" stroke-linejoin="bevel"></path>
<path d="M460.6 245.9A162 162 0 0 1 458.7 257.7L454.3 256.8A157.5 157.5 0 0 0 456.2 245.3Z" fill="#94a76f" stroke="white" stroke-width="3" stroke-linejoin="bevel"></path>
<path d="M458.7 257.7A162 162 0 0 1 455.8 269.3L451.5 268.1A157.5 157.5 0 0 0 454.3 256.8Z" fill="#d0b24f" stroke="white" stroke-width="3" stroke-linejoin="bevel"></path>
<path d="M455.8 269.3A162 162 0 0 1 452.1 280.7L447.9 279.2A157.5 157.5 0 0 0 451.5 268.1Z" fill="#8eb646" stroke="white" stroke-width="3" stroke-linejoin="bevel"></path>
<path d="M452.1 280.7A162 162 0 0 1 447.6 291.8L443.5 289.9A157.5 157.5 0 0 0 447.9 279.2Z" fill="#faef07" stroke="white" stroke-width="3" stroke-linejoin="bevel"></path>
<path d="M447.6 291.8A162 162 0 0 1 442.2 302.5L438.3 300.4A157.5 157.5 0 0 0 443.5 289.9Z" fill="#c1ba07" stroke="white" stroke-width="3" stroke-linejoin="bevel"></path>
<path d="M438.3 300.4A157.5 157.5 0 0 1 410.3 337.4L355.2 281.2A78.8 78.8 0 0 0 369.1 262.7Z" fill="#b09733" stroke="white" stroke-linejoin="bevel"></path>
<path d="M442.2 302.5A162 162 0 0 1 436.1 312.8L432.4 310.4A157.5 157.5 0 0 0 438.3 300.4Z" fill="#8f1c53" stroke="white" stroke-width="3" stroke-linejoin="bevel"></path>
<path d="M436.1 312.8A162 162 0 0 1 429.3 322.6L425.7 319.9A157.5 157.5 0 0 0 432.4 310.4Z" fill="#b34039" stroke="white" stroke-width="3" stroke-linejoin="bevel"></path>
<path d="M429.3 322.6A162 162 0 0 1 421.7 331.9L418.3 328.9A157.5 157.5 0 0 0 425.7 319.9Z" fill="#ba9232" stroke="white" stroke-width="3" stroke-linejoin="bevel"></path>
<path d="M421.7 331.9A162 162 0 0 1 413.5 340.6L410.3 337.4A157.5 157.5 0 0 0 418.3 328.9Z" fill="#8b6439" stroke="white" stroke-width="3" stroke-linejoin="bevel"></path>
<path d="M355.2 281.2A78.8 78.8 0 0 1 302.9 303.7L301.2 258.7A33.8 33.8 0 0 0 323.6 249.1Z" fill="#187a2f" stroke="white" stroke-width="2" stroke-linejoin="bevel"></path>
<path d="M410.3 337.4A157.5 157.5 0 0 1 401.7 345.2L350.9 285.1A78.8 78.8 0 0 0 355.2 281.2Z" fill="#a2b029" stroke="white" stroke-linejoin="bevel"></path>
<path d="M401.7 345.2A157.5 157.5 0 0 1 392.6 352.4L346.3 288.7A78.8 78.8 0 0 0 350.9 285.1Z" fill="#718933" stroke="white" stroke-linejoin="bevel"></path>
<path d="M392.6 352.4A157.5 157.5 0 0 1 317.4 381.5L308.7 303.3A78.8 78.8 0 0 0 346.3 288.7Z" fill="#3aa255" stroke="white" stroke-linejoin="bevel"></path>
<path d="M395.2 356.1A162 162 0 0 1 385.3 362.7L382.9 358.9A157.5 157.5 0 0 0 392.6 352.4Z" fill="#a2bb2b" stroke="white" stroke-width="3" stroke-linejoin="bevel"></path>
<path d="M385.3 362.7A162 162 0 0 1 374.9 368.7L372.8 364.7A157.5 157.5 0 0 0 382.9 358.9Z" fill="#62aa3c" stroke="white" stroke-width="3" stroke-linejoin="bevel"></path>
<path d="M374.9 368.7A162 162 0 0 1 364.1 373.8L362.3 369.7A157.5 157.5 0 0 0 372.8 364.7Z" fill="#03a653" stroke="white" stroke-width="3" stroke-linejoin="bevel"></path>
<path d="M364.1 373.8A162 162 0 0 1 352.9 378.1L351.4 373.9A157.5 157.5 0 0 0 362.3 369.7Z" fill="#038549" stroke="white" stroke-width="3" stroke-linejoin="bevel"></path>
<path d="M352.9 378.1A162 162 0 0 1 341.4 381.6L340.3 377.3A157.5 157.5 0 0 0 351.4 373.9Z" fill="#28b44b" stroke="white" stroke-width="3" stroke-linejoin="bevel"></path>
<path d="M341.4 381.6A162 162 0 0 1 329.8 384.2L328.9 379.8A157.5 157.5 0 0 0 340.3 377.3Z" fill="#a3a830" stroke="white" stroke-width="3" stroke-linejoin="bevel"></path>
<path d="M329.8 384.2A162 162 0 0 1 317.9 386L317.4 381.5A157.5 157.5 0 0 0 328.9 379.8Z" fill="#7ac141" stroke="white" stroke-width="3" stroke-linejoin="bevel"></path>
<path d="M317.4 381.5A157.5 157.5 0 0 1 305.8 382.4L302.9 303.7A78.8 78.8 0 0 0 308.7 303.3Z" fill="#5e9a80" stroke="white" stroke-linejoin="bevel"></path>
<path d="M302.9 303.7A78.8 78.8 0 0 1 228.3 257.5L269.3 238.9A33.8 33.8 0 0 0 301.2 258.7Z" fill="#0aa3b5" stroke="white" stroke-width="2" stroke-linejoin="bevel"></path>
<path d="M305.8 382.4A157.5 157.5 0 0 1 198.3 345.2L249.1 285.1A78.8 78.8 0 0 0 302.9 303.7Z" fill="#9db2b7" stroke="white" stroke-linejoin="bevel"></path>
<path d="M306 386.9A162 162 0 0 1 294 386.9L294.2 382.4A157.5 157.5 0 0 0 305.8 382.4Z" fill="#8b8c90" stroke="white" stroke-width="3" stroke-linejoin="bevel"></path>
<path d="M294 386.9A162 162 0 0 1 282.1 386L282.6 381.5A157.5 157.5 0 0 0 294.2 382.4Z" fill="#beb276" stroke="white" stroke-width="3" stroke-linejoin="bevel"></path>
<path d="M282.1 386A162 162 0 0 1 270.2 384.2L271.1 379.8A157.5 157.5 0 0 0 282.6 381.5Z" fill="#fefef4" stroke="white" stroke-width="3" stroke-linejoin="bevel"></path>
<path d="M270.2 384.2A162 162 0 0 1 258.6 381.6L259.7 377.3A157.5 157.5 0 0 0 271.1 379.8Z" fill="#744e03" stroke="white" stroke-width="3" stroke-linejoin="bevel"></path>
<path d="M258.6 381.6A162 162 0 0 1 247.1 378.1L248.6 373.9A157.5 157.5 0 0 0 259.7 377.3Z" fill="#a3a36f" stroke="white" stroke-width="3" stroke-linejoin="bevel"></path>
<path d="M247.1 378.1A162 162 0 0 1 235.9 373.8L237.7 369.7A157.5 157.5 0 0 0 248.6 373.9Z" fill="#c9b583" stroke="white" stroke-width="3" stroke-linejoin="bevel"></path>
<path d="M235.9 373.8A162 162 0 0 1 225.1 368.7L227.2 364.7A157.5 157.5 0 0 0 237.7 369.7Z" fill="#978847" stroke="white" stroke-width="3" stroke-linejoin="bevel"></path>
<path d="M225.1 368.7A162 162 0 0 1 214.7 362.7L217.1 358.9A157.5 157.5 0 0 0 227.2 364.7Z" fill="#9d977f" stroke="white" stroke-width="3" stroke-linejoin="bevel"></path>
<path d="M214.7 362.7A162 162 0 0 1 204.8 356.1L207.4 352.4A157.5 157.5 0 0 0 217.1 358.9Z" fill="#cc7b6a" stroke="white" stroke-width="3" stroke-linejoin="bevel"></path>
<path d="M204.8 356.1A162 162 0 0 1 195.4 348.7L198.3 345.2A157.5 157.5 0 0 0 207.4 352.4Z" fill="#db646a" stroke="white" stroke-width="3" stroke-linejoin="bevel"></path>
<path d="M198.3 345.2A157.5 157.5 0 0 1 156.5 289.9L228.3 257.5A78.8 78.8 0 0 0 249.1 285.1Z" fill="#76c0cb" stroke="white" stroke-linejoin="bevel"></path>
<path d="M195.4 348.7A162 162 0 0 1 186.5 340.6L189.7 337.4A157.5 157.5 0 0 0 198.3 345.2Z" fill="#80a89d" stroke="white" stroke-width="3" stroke-linejoin="bevel"></path>
<path d="M186.5 340.6A162 162 0 0 1 178.3 331.9L181.7 328.9A157.5 157.5 0 0 0 189.7 337.4Z" fill="#def2fd" stroke="white" stroke-width="3" stroke-linejoin="bevel"></path>
<path d="M178.3 331.9A162 162 0 0 1 170.7 322.6L174.3 319.9A157.5 157.5 0 0 0 181.7 328.9Z" fill="#7a9bae" stroke="white" stroke-width="3" stroke-linejoin="bevel"></path>
<path d="M170.7 322.6A162 162 0 0 1 163.9 312.8L167.6 310.4A157.5 157.5 0 0 0 174.3 319.9Z" fill="#039fb8" stroke="white" stroke-width="3" stroke-linejoin="bevel"></path>
<path d="M163.9 312.8A162 162 0 0 1 157.8 302.5L161.7 300.4A157.5 157.5 0 0 0 167.6 310.4Z" fill="#5e777b" stroke="white" stroke-width="3" stroke-linejoin="bevel"></path>
<path d="M157.8 302.5A162 162 0 0 1 152.4 291.8L156.5 289.9A157.5 157.5 0 0 0 161.7 300.4Z" fill="#120c0c" stroke="white" stroke-width="3" stroke-linejoin="bevel"></path>
<path d="M228.3 257.5A78.8 78.8 0 0 1 222.3 212L266.7 219.4A33.8 33.8 0 0 0 269.3 238.9Z" fill="#c94930" stroke="white" stroke-width="2" stroke-linejoin="bevel"></path>
<path d="M156.5 289.9A157.5 157.5 0 0 1 152.1 279.2L226.1 252.1A78.8 78.8 0 0 0 228.3 257.5Z" fill="#caa465" stroke="white" stroke-linejoin="bevel"></path>
<path d="M152.1 279.2A157.5 157.5 0 0 1 148.5 268.1L224.3 246.6A78.8 78.8 0 0 0 226.1 252.1Z" fill="#dfbd7e" stroke="white" stroke-linejoin="bevel"></path>
<path d="M148.5 268.1A157.5 157.5 0 0 1 142.5 222.1L221.3 223.5A78.8 78.8 0 0 0 224.3 246.6Z" fill="#be8663" stroke="white" stroke-linejoin="bevel"></path>
<path d="M144.2 269.3A162 162 0 0 1 141.3 257.7L145.7 256.8A157.5 157.5 0 0 0 148.5 268.1Z" fill="#b9a449" stroke="white" stroke-width="3" stroke-linejoin="bevel"></path>
<path d="M141.3 257.7A162 162 0 0 1 139.4 245.9L143.8 245.3A157.5 157.5 0 0 0 145.7 256.8Z" fill="#899893" stroke="white" stroke-width="3" stroke-linejoin="bevel"></path>
<path d="M139.4 245.9A162 162 0 0 1 138.2 234L142.7 233.7A157.5 157.5 0 0 0 143.8 245.3Z" fill="#a1743b" stroke="white" stroke-width="3" stroke-linejoin="bevel"></path>
<path d="M138.2 234A162 162 0 0 1 138 222L142.5 222.1A157.5 157.5 0 0 0 142.7 233.7Z" fill="#894810" stroke="white" stroke-width="3" stroke-linejoin="bevel"></path>
<path d="M142.5 222.1A157.5 157.5 0 0 1 144.7 198.9L222.3 212A78.8 78.8 0 0 0 221.3 223.5Z" fill="#ddaf61" stroke="white" stroke-linejoin="bevel"></path>
<path d="M138 222A162 162 0 0 1 138.7 210.1L143.2 210.5A157.5 157.5 0 0 0 142.5 222.1Z" fill="#b7906f" stroke="white" stroke-width="3" stroke-linejoin="bevel"></path>
<path d="M138.7 210.1A162 162 0 0 1 140.2 198.2L144.7 198.9A157.5 157.5 0 0 0 143.2 210.5Z" fill="#eb9d5f" stroke="white" stroke-width="3" stroke-linejoin="bevel"></path>
<path d="M222.3 212A78.8 78.8 0 0 1 235.4 179.9L272.3 205.7A33.8 33.8 0 0 0 266.7 219.4Z" fill="#ad213e" stroke="white" stroke-width="2" stroke-linejoin="bevel"></path>
<path d="M144.7 198.9A157.5 157.5 0 0 1 147 187.5L223.5 206.3A78.8 78.8 0 0 0 222.3 212Z" fill="#794752" stroke="white" stroke-linejoin="bevel"></path>
<path d="M147 187.5A157.5 157.5 0 0 1 150.2 176.3L225.1 200.7A78.8 78.8 0 0 0 223.5 206.3Z" fill="#cc3d41" stroke="white" stroke-linejoin="bevel"></path>
<path d="M150.2 176.3A157.5 157.5 0 0 1 170.9 134.8L235.4 179.9A78.8 78.8 0 0 0 225.1 200.7Z" fill="#b14d57" stroke="white" stroke-linejoin="bevel"></path>
<path d="M145.9 174.9A162 162 0 0 1 150 163.7L154.2 165.4A157.5 157.5 0 0 0 150.2 176.3Z" fill="#c78936" stroke="white" stroke-width="3" stroke-linejoin="bevel"></path>
<path d="M150 163.7A162 162 0 0 1 155 152.8L159 154.8A157.5 157.5 0 0 0 154.2 165.4Z" fill="#8c292c" stroke="white" stroke-width="3" stroke-linejoin="bevel"></path>
<path d="M155 152.8A162 162 0 0 1 160.7 142.3L164.6 144.6A157.5 157.5 0 0 0 159 154.8Z" fill="#e5762e" stroke="white" stroke-width="3" stroke-linejoin="bevel"></path>
<path d="M160.7 142.3A162 162 0 0 1 167.2 132.2L170.9 134.8A157.5 157.5 0 0 0 164.6 144.6Z" fill="#a16c5a" stroke="white" stroke-width="3" stroke-linejoin="bevel"></path>
<path d="M235.4 179.9A78.8 78.8 0 0 1 256.1 159.6L281.2 197A33.8 33.8 0 0 0 272.3 205.7Z" fill="#a87b64" stroke="white" stroke-width="2" stroke-linejoin="bevel"></path>
<path d="M170.9 134.8A157.5 157.5 0 0 1 193.9 108.6L246.9 166.8A78.8 78.8 0 0 0 235.4 179.9Z" fill="#c78869" stroke="white" stroke-linejoin="bevel"></path>
<path d="M167.2 132.2A162 162 0 0 1 174.4 122.7L177.9 125.5A157.5 157.5 0 0 0 170.9 134.8Z" fill="#d4ad12" stroke="white" stroke-width="3" stroke-linejoin="bevel"></path>
<path d="M174.4 122.7A162 162 0 0 1 182.3 113.7L185.6 116.8A157.5 157.5 0 0 0 177.9 125.5Z" fill="#9d5433" stroke="white" stroke-width="3" stroke-linejoin="bevel"></path>
<path d="M182.3 113.7A162 162 0 0 1 190.9 105.3L193.9 108.6A157.5 157.5 0 0 0 185.6 116.8Z" fill="#c89f83" stroke="white" stroke-width="3" stroke-linejoin="bevel"></path>
<path d="M193.9 108.6A157.5 157.5 0 0 1 212.2 94.2L256.1 159.6A78.8 78.8 0 0 0 246.9 166.8Z" fill="#bb764c" stroke="white" stroke-linejoin="bevel"></path>
<path d="M190.9 105.3A162 162 0 0 1 200 97.5L202.8 101.1A157.5 157.5 0 0 0 193.9 108.6Z" fill="#692a19" stroke="white" stroke-width="3" stroke-linejoin="bevel"></path>
<path d="M200 97.5A162 162 0 0 1 209.7 90.5L212.2 94.2A157.5 157.5 0 0 0 202.8 101.1Z" fill="#470604" stroke="white" stroke-width="3" stroke-linejoin="bevel"></path>
<path d="M256.1 159.6A78.8 78.8 0 0 1 300 146.3L300 191.3A33.8 33.8 0 0 0 281.2 197Z" fill="#e65832" stroke="white" stroke-width="2" stroke-linejoin="bevel"></path>
<path d="M212.2 94.2A157.5 157.5 0 0 1 254.1 74.3L277.1 149.7A78.8 78.8 0 0 0 256.1 159.6Z" fill="#d45a59" stroke="white" stroke-linejoin="bevel"></path>
<path d="M209.7 90.5A162 162 0 0 1 219.9 84.2L222.1 88.1A157.5 157.5 0 0 0 212.2 94.2Z" fill="#310d0f" stroke="white" stroke-width="3" stroke-linejoin="bevel"></path>
<path d="M219.9 84.2A162 162 0 0 1 230.5 78.7L232.4 82.7A157.5 157.5 0 0 0 222.1 88.1Z" fill="#ae341f" stroke="white" stroke-width="3" stroke-linejoin="bevel"></path>
<path d="M230.5 78.7A162 162 0 0 1 241.5 73.9L243.1 78.1A157.5 157.5 0 0 0 232.4 82.7Z" fill="#d78823" stroke="white" stroke-width="3" stroke-linejoin="bevel"></path>
<path d="M241.5 73.9A162 162 0 0 1 252.8 70L254.1 74.3A157.5 157.5 0 0 0 243.1 78.1Z" fill="#da5c1f" stroke="white" stroke-width="3" stroke-linejoin="bevel"></path>
<path d="M254.1 74.3A157.5 157.5 0 0 1 265.4 71.4L282.7 148.2A78.8 78.8 0 0 0 277.1 149.7Z" fill="#f89a80" stroke="white" stroke-linejoin="bevel"></path>
<path d="M265.4 71.4A157.5 157.5 0 0 1 276.8 69.2L288.4 147.1A78.8 78.8 0 0 0 282.7 148.2Z" fill="#f37674" stroke="white" stroke-linejoin="bevel"></path>
<path d="M276.8 69.2A157.5 157.5 0 0 1 288.4 67.9L294.2 146.5A78.8 78.8 0 0 0 288.4 147.1Z" fill="#e75b68" stroke="white" stroke-linejoin="bevel"></path>
<path d="M288.4 67.9A157.5 157.5 0 0 1 300 67.5L300 146.3A78.8 78.8 0 0 0 294.2 146.5Z" fill="#d0545f" stroke="white" stroke-linejoin="bevel"></path>
<text dominant-baseline="central" text-anchor="middle" style="font-size:12px;font-family:sans-serif;" transform="matrix(0.989,0.147,-0.147,0.989,308.2857,169.3636)" fill="#eee" stroke="#da0d68" stroke-width="2" paint-order="stroke" stroke-miterlimit="2">Flora</text>
<text dominant-baseline="central" text-anchor="end" style="font-size:12px;font-family:sans-serif;" xml:space="preserve" transform="matrix(0.037,-0.999,0.999,0.037,305.6351,72.6041)" fill="#eee" stroke="#975e6d" stroke-width="2" paint-order="stroke" stroke-miterlimit="2">Black Tea</text>
<text dominant-baseline="central" text-anchor="end" style="font-size:12px;font-family:sans-serif;" transform="matrix(0.184,-0.983,0.983,0.184,328.0218,75.0966)" fill="#333">Floral</text>
<text dominant-baseline="central" text-anchor="start" style="font-size:12px;font-family:sans-serif;" x="3" transform="matrix(0.111,-0.994,0.994,0.111,318.479,59.0255)" fill="#333" stroke="rgb(255,255,255)" stroke-width="2" paint-order="stroke" stroke-miterlimit="2">Chamomile</text>
<text dominant-baseline="central" text-anchor="start" style="font-size:12px;font-family:sans-serif;" x="3" transform="matrix(0.184,-0.983,0.983,0.184,330.6862,60.8435)" fill="#333" stroke="rgb(255,255,255)" stroke-width="2" paint-order="stroke" stroke-miterlimit="2">Rose</text>
<text dominant-baseline="central" text-anchor="start" style="font-size:12px;font-family:sans-serif;" x="3" transform="matrix(0.256,-0.967,0.967,0.256,342.7257,63.558)" fill="#333" stroke="rgb(255,255,255)" stroke-width="2" paint-order="stroke" stroke-miterlimit="2">Jasmine</text>
<text dominant-baseline="central" text-anchor="middle" style="font-size:12px;font-family:sans-serif;" transform="matrix(0.573,0.82,-0.82,0.573,346.1104,192.7836)" fill="#eee" stroke="#da1d23" stroke-width="2" paint-order="stroke" stroke-miterlimit="2">Fruity</text>
<text dominant-baseline="central" text-anchor="end" style="font-size:12px;font-family:sans-serif;" transform="matrix(0.429,-0.903,0.903,0.429,365.4409,87.2548)" fill="#eee" stroke="#dd4c51" stroke-width="2" paint-order="stroke" stroke-miterlimit="2">Berry</text>
<text dominant-baseline="central" text-anchor="start" style="font-size:12px;font-family:sans-serif;" x="3" transform="matrix(0.327,-0.945,0.945,0.327,354.532,67.1543)" fill="#333" stroke="rgb(255,255,255)" stroke-width="2" paint-order="stroke" stroke-miterlimit="2">Blackberry</text>
<text dominant-baseline="central" text-anchor="start" style="font-size:12px;font-family:sans-serif;" x="3" transform="matrix(0.395,-0.918,0.918,0.395,366.0404,71.6127)" fill="#333" stroke="rgb(255,255,255)" stroke-width="2" paint-order="stroke" stroke-miterlimit="2">Raspberry</text>
<text dominant-baseline="central" text-anchor="start" style="font-size:12px;font-family:sans-serif;" x="3" transform="matrix(0.462,-0.887,0.887,0.462,377.188,76.9088)" fill="#333" stroke="rgb(255,255,255)" stroke-width="2" paint-order="stroke" stroke-miterlimit="2">Blueberry</text>
<text dominant-baseline="central" text-anchor="start" style="font-size:12px;font-family:sans-serif;" x="3" transform="matrix(0.526,-0.85,0.85,0.526,387.9142,83.0137)" fill="#333" stroke="rgb(255,255,255)" stroke-width="2" paint-order="stroke" stroke-miterlimit="2">Strawberry</text>
<text dominant-baseline="central" text-anchor="end" style="font-size:12px;font-family:sans-serif;" xml:space="preserve" transform="matrix(0.617,-0.787,0.787,0.617,394.1349,105.0214)" fill="#eee" stroke="#c94a44" stroke-width="2" paint-order="stroke" stroke-miterlimit="2">Dried Fruit</text>
<text dominant-baseline="central" text-anchor="start" style="font-size:12px;font-family:sans-serif;" x="3" transform="matrix(0.588,-0.809,0.809,0.588,398.1601,89.8942)" fill="#333" stroke="rgb(255,255,255)" stroke-width="2" paint-order="stroke" stroke-miterlimit="2">Raisin</text>
<text dominant-baseline="central" text-anchor="start" style="font-size:12px;font-family:sans-serif;" x="3" transform="matrix(0.646,-0.763,0.763,0.646,407.87,97.5125)" fill="#333" stroke="rgb(255,255,255)" stroke-width="2" paint-order="stroke" stroke-miterlimit="2">Prune</text>
<text dominant-baseline="central" text-anchor="end" style="font-size:12px;font-family:sans-serif;" xml:space="preserve" transform="matrix(0.86,-0.511,0.511,0.86,431.1195,147.1287)" fill="#eee" stroke="#dd4c51" stroke-width="2" paint-order="stroke" stroke-miterlimit="2">Other Fruit</text>
<text dominant-baseline="central" text-anchor="start" style="font-size:12px;font-family:sans-serif;" x="3" transform="matrix(0.701,-0.714,0.714,0.701,416.9907,105.8271)" fill="#333" stroke="rgb(255,255,255)" stroke-width="2" paint-order="stroke" stroke-miterlimit="2">Coconut</text>
<text dominant-baseline="central" text-anchor="start" style="font-size:12px;font-family:sans-serif;" x="3" transform="matrix(0.751,-0.66,0.66,0.751,425.4724,114.7926)" fill="#333" stroke="rgb(255,255,255)" stroke-width="2" paint-order="stroke" stroke-miterlimit="2">Cherry</text>
<text dominant-baseline="central" text-anchor="start" style="font-size:12px;font-family:sans-serif;" x="3" transform="matrix(0.798,-0.603,0.603,0.798,433.2689,124.36)" fill="#333" stroke="rgb(255,255,255)" stroke-width="2" paint-order="stroke" stroke-miterlimit="2">Pomegranate</text>
<text dominant-baseline="central" text-anchor="start" style="font-size:12px;font-family:sans-serif;" x="3" transform="matrix(0.84,-0.542,0.542,0.84,440.3375,134.4771)" fill="#333" stroke="rgb(255,255,255)" stroke-width="2" paint-order="stroke" stroke-miterlimit="2">Pineapple</text>
<text dominant-baseline="central" text-anchor="start" style="font-size:12px;font-family:sans-serif;" x="3" transform="matrix(0.878,-0.479,0.479,0.878,446.6396,145.0886)" fill="#333" stroke="rgb(255,255,255)" stroke-width="2" paint-order="stroke" stroke-miterlimit="2">Grape</text>
<text dominant-baseline="central" text-anchor="start" style="font-size:12px;font-family:sans-serif;" x="3" transform="matrix(0.911,-0.412,0.412,0.911,452.1408,156.1365)" fill="#333" stroke="rgb(255,255,255)" stroke-width="2" paint-order="stroke" stroke-miterlimit="2">Apple</text>
<text dominant-baseline="central" text-anchor="start" style="font-size:12px;font-family:sans-serif;" x="3" transform="matrix(0.939,-0.344,0.344,0.939,456.8111,167.5605)" fill="#333" stroke="rgb(255,255,255)" stroke-width="2" paint-order="stroke" stroke-miterlimit="2">Peach</text>
<text dominant-baseline="central" text-anchor="start" style="font-size:12px;font-family:sans-serif;" x="3" transform="matrix(0.962,-0.274,0.274,0.962,460.6249,179.2983)" fill="#333" stroke="rgb(255,255,255)" stroke-width="2" paint-order="stroke" stroke-miterlimit="2">Pear</text>
<text dominant-baseline="central" text-anchor="end" style="font-size:12px;font-family:sans-serif;" xml:space="preserve" transform="matrix(0.996,-0.092,0.092,0.996,451.8495,210.9291)" fill="#333">Citrus Fruit</text>
<text dominant-baseline="central" text-anchor="start" style="font-size:12px;font-family:sans-serif;" x="3" transform="matrix(0.979,-0.202,0.202,0.979,463.5614,191.2856)" fill="#333" stroke="rgb(255,255,255)" stroke-width="2" paint-order="stroke" stroke-miterlimit="2">Grapefruit</text>
<text dominant-baseline="central" text-anchor="start" style="font-size:12px;font-family:sans-serif;" x="3" transform="matrix(0.992,-0.129,0.129,0.992,465.6047,203.4571)" fill="#333" stroke="rgb(255,255,255)" stroke-width="2" paint-order="stroke" stroke-miterlimit="2">Orange</text>
<text dominant-baseline="central" text-anchor="start" style="font-size:12px;font-family:sans-serif;" x="3" transform="matrix(0.998,-0.055,0.055,0.998,466.7434,215.7463)" fill="#333" stroke="rgb(255,255,255)" stroke-width="2" paint-order="stroke" stroke-miterlimit="2">Lemon</text>
<text dominant-baseline="central" text-anchor="start" style="font-size:12px;font-family:sans-serif;" x="3" transform="matrix(1,0.018,-0.018,1,466.9715,228.086)" fill="#333" stroke="rgb(255,255,255)" stroke-width="2" paint-order="stroke" stroke-miterlimit="2">Lime</text>
<text dominant-baseline="central" text-anchor="middle" style="font-size:12px;font-family:sans-serif;" y="-6" transform="matrix(0.412,-0.911,0.911,0.412,351.245,248.195)" fill="#333">Sour/</text>
<text dominant-baseline="central" text-anchor="middle" style="font-size:12px;font-family:sans-serif;" y="6" transform="matrix(0.412,-0.911,0.911,0.412,351.245,248.195)" fill="#333">Fermented</text>
<text dominant-baseline="central" text-anchor="end" style="font-size:12px;font-family:sans-serif;" transform="matrix(0.962,0.274,-0.274,0.962,446.6784,266.7336)" fill="#333">Sour</text>
<text dominant-baseline="central" text-anchor="start" style="font-size:12px;font-family:sans-serif;" xml:space="preserve" x="3" transform="matrix(0.996,0.092,-0.092,0.996,466.2876,240.4088)" fill="#333" stroke="rgb(255,255,255)" stroke-width="2" paint-order="stroke" stroke-miterlimit="2">Sour Aromatics</text>
<text dominant-baseline="central" text-anchor="start" style="font-size:12px;font-family:sans-serif;" xml:space="preserve" x="3" transform="matrix(0.986,0.166,-0.166,0.986,464.6955,252.6475)" fill="#333" stroke="rgb(255,255,255)" stroke-width="2" paint-order="stroke" stroke-miterlimit="2">Acetic Acid</text>
<text dominant-baseline="central" text-anchor="start" style="font-size:12px;font-family:sans-serif;" xml:space="preserve" x="3" transform="matrix(0.971,0.238,-0.238,0.971,462.2039,264.7352)" fill="#333" stroke="rgb(255,255,255)" stroke-width="2" paint-order="stroke" stroke-miterlimit="2">Butyric Acid</text>
<text dominant-baseline="central" text-anchor="start" style="font-size:12px;font-family:sans-serif;" xml:space="preserve" x="3" transform="matrix(0.951,0.309,-0.309,0.951,458.8264,276.6058)" fill="#333" stroke="rgb(255,255,255)" stroke-width="2" paint-order="stroke" stroke-miterlimit="2">Isovaleric Acid</text>
<text dominant-baseline="central" text-anchor="start" style="font-size:12px;font-family:sans-serif;" xml:space="preserve" x="3" transform="matrix(0.926,0.378,-0.378,0.926,454.5815,288.1946)" fill="#333" stroke="rgb(255,255,255)" stroke-width="2" paint-order="stroke" stroke-miterlimit="2">Citric Acid</text>
<text dominant-baseline="central" text-anchor="start" style="font-size:12px;font-family:sans-serif;" xml:space="preserve" x="3" transform="matrix(0.895,0.446,-0.446,0.895,449.4923,299.4383)" fill="#333" stroke="rgb(255,255,255)" stroke-width="2" paint-order="stroke" stroke-miterlimit="2">Malic Acid</text>
<text dominant-baseline="central" text-anchor="end" style="font-size:12px;font-family:sans-serif;" y="-6" transform="matrix(0.798,0.603,-0.603,0.798,421.6976,316.9018)" fill="#333">Alcohol/</text>
<text dominant-baseline="central" text-anchor="end" style="font-size:12px;font-family:sans-serif;" y="6" transform="matrix(0.798,0.603,-0.603,0.798,421.6976,316.9018)" fill="#333">Fremented</text>
<text dominant-baseline="central" text-anchor="start" style="font-size:12px;font-family:sans-serif;" x="3" transform="matrix(0.86,0.511,-0.511,0.86,443.5866,310.2754)" fill="#333" stroke="rgb(255,255,255)" stroke-width="2" paint-order="stroke" stroke-miterlimit="2">Winey</text>
<text dominant-baseline="central" text-anchor="start" style="font-size:12px;font-family:sans-serif;" x="3" transform="matrix(0.82,0.573,-0.573,0.82,436.8967,320.6468)" fill="#333" stroke="rgb(255,255,255)" stroke-width="2" paint-order="stroke" stroke-miterlimit="2">Whiskey</text>
<text dominant-baseline="central" text-anchor="start" style="font-size:12px;font-family:sans-serif;" x="3" transform="matrix(0.775,0.632,-0.632,0.775,429.4591,330.4957)" fill="#333" stroke="rgb(255,255,255)" stroke-width="2" paint-order="stroke" stroke-miterlimit="2">Fremented</text>
<text dominant-baseline="central" text-anchor="start" style="font-size:12px;font-family:sans-serif;" x="3" transform="matrix(0.726,0.687,-0.687,0.726,421.3144,339.7685)" fill="#333" stroke="rgb(255,255,255)" stroke-width="2" paint-order="stroke" stroke-miterlimit="2">Overripe</text>
<text dominant-baseline="central" text-anchor="middle" style="font-size:12px;font-family:sans-serif;" y="-6" transform="matrix(0.918,-0.395,0.395,0.918,322.2441,276.6649)" fill="#eee" stroke="#187a2f" stroke-width="2" paint-order="stroke" stroke-miterlimit="2">Green/</text>
<text dominant-baseline="central" text-anchor="middle" style="font-size:12px;font-family:sans-serif;" y="6" transform="matrix(0.918,-0.395,0.395,0.918,322.2441,276.6649)" fill="#eee" stroke="#187a2f" stroke-width="2" paint-order="stroke" stroke-miterlimit="2">Vegetative</text>
<text dominant-baseline="central" text-anchor="end" style="font-size:12px;font-family:sans-serif;" xml:space="preserve" transform="matrix(0.674,0.739,-0.739,0.674,402.7386,337.6989)" fill="#333">Olive Oil</text>
<text dominant-baseline="central" text-anchor="end" style="font-size:12px;font-family:sans-serif;" transform="matrix(0.617,0.787,-0.787,0.617,394.1349,344.9786)" fill="#eee" stroke="#718933" stroke-width="2" paint-order="stroke" stroke-miterlimit="2">Raw</text>
<text dominant-baseline="central" text-anchor="end" style="font-size:12px;font-family:sans-serif;" y="-6" transform="matrix(0.361,0.932,-0.932,0.361,355.0894,367.202)" fill="#eee" stroke="#3aa255" stroke-width="2" paint-order="stroke" stroke-miterlimit="2">Green/</text>
<text dominant-baseline="central" text-anchor="end" style="font-size:12px;font-family:sans-serif;" y="6" transform="matrix(0.361,0.932,-0.932,0.361,355.0894,367.202)" fill="#eee" stroke="#3aa255" stroke-width="2" paint-order="stroke" stroke-miterlimit="2">Vegetative</text>
<text dominant-baseline="central" text-anchor="start" style="font-size:12px;font-family:sans-serif;" x="3" transform="matrix(0.557,0.83,-0.83,0.557,393.1007,363.6407)" fill="#333" stroke="rgb(255,255,255)" stroke-width="2" paint-order="stroke" stroke-miterlimit="2">Under-ripe</text>
<text dominant-baseline="central" text-anchor="start" style="font-size:12px;font-family:sans-serif;" x="3" transform="matrix(0.495,0.869,-0.869,0.495,382.6075,370.1379)" fill="#333" stroke="rgb(255,255,255)" stroke-width="2" paint-order="stroke" stroke-miterlimit="2">Peapod</text>
<text dominant-baseline="central" text-anchor="start" style="font-size:12px;font-family:sans-serif;" x="3" transform="matrix(0.429,0.903,-0.903,0.429,371.6631,375.8423)" fill="#333" stroke="rgb(255,255,255)" stroke-width="2" paint-order="stroke" stroke-miterlimit="2">Fresh</text>
<text dominant-baseline="central" text-anchor="start" style="font-size:12px;font-family:sans-serif;" xml:space="preserve" x="3" transform="matrix(0.361,0.932,-0.932,0.361,360.3274,380.7229)" fill="#333" stroke="rgb(255,255,255)" stroke-width="2" paint-order="stroke" stroke-miterlimit="2">Dark Green</text>
<text dominant-baseline="central" text-anchor="start" style="font-size:12px;font-family:sans-serif;" x="3" transform="matrix(0.291,0.957,-0.957,0.291,348.6621,384.7529)" fill="#333" stroke="rgb(255,255,255)" stroke-width="2" paint-order="stroke" stroke-miterlimit="2">Vegetative</text>
<text dominant-baseline="central" text-anchor="start" style="font-size:12px;font-family:sans-serif;" x="3" transform="matrix(0.22,0.976,-0.976,0.22,336.731,387.9105)" fill="#333" stroke="rgb(255,255,255)" stroke-width="2" paint-order="stroke" stroke-miterlimit="2">Hay-like</text>
<text dominant-baseline="central" text-anchor="start" style="font-size:12px;font-family:sans-serif;" x="3" transform="matrix(0.147,0.989,-0.989,0.147,324.5994,390.1783)" fill="#333" stroke="rgb(255,255,255)" stroke-width="2" paint-order="stroke" stroke-miterlimit="2">Herb-like</text>
<text dominant-baseline="central" text-anchor="end" style="font-size:12px;font-family:sans-serif;" transform="matrix(0.074,0.997,-0.997,0.074,311.2625,377.0835)" fill="#333">Beany</text>
<text dominant-baseline="central" text-anchor="middle" style="font-size:12px;font-family:sans-serif;" transform="matrix(0.85,0.526,-0.526,0.85,270.3882,272.8247)" fill="#eee" stroke="#0aa3b5" stroke-width="2" paint-order="stroke" stroke-miterlimit="2">Other</text>
<text dominant-baseline="central" text-anchor="start" style="font-size:12px;font-family:sans-serif;" transform="matrix(0.327,-0.945,0.945,0.327,250.2028,369.1405)" fill="#333">Papery/Musty</text>
<text dominant-baseline="central" text-anchor="start" style="font-size:12px;font-family:sans-serif;" x="3" transform="matrix(0,1,-1,0,300,392)" fill="#333" stroke="rgb(255,255,255)" stroke-width="2" paint-order="stroke" stroke-miterlimit="2">Stale</text>
<text dominant-baseline="central" text-anchor="end" style="font-size:12px;font-family:sans-serif;" x="-3" transform="matrix(0.074,-0.997,0.997,0.074,287.6666,391.544)" fill="#333" stroke="rgb(255,255,255)" stroke-width="2" paint-order="stroke" stroke-miterlimit="2">Cardboard</text>
<text dominant-baseline="central" text-anchor="end" style="font-size:12px;font-family:sans-serif;" x="-3" transform="matrix(0.147,-0.989,0.989,0.147,275.4006,390.1783)" fill="#333" stroke="rgb(255,255,255)" stroke-width="2" paint-order="stroke" stroke-miterlimit="2">Papery</text>
<text dominant-baseline="central" text-anchor="end" style="font-size:12px;font-family:sans-serif;" x="-3" transform="matrix(0.22,-0.976,0.976,0.22,263.269,387.9105)" fill="#333" stroke="rgb(255,255,255)" stroke-width="2" paint-order="stroke" stroke-miterlimit="2">Woody</text>
<text dominant-baseline="central" text-anchor="end" style="font-size:12px;font-family:sans-serif;" x="-3" transform="matrix(0.291,-0.957,0.957,0.291,251.3379,384.7529)" fill="#333" stroke="rgb(255,255,255)" stroke-width="2" paint-order="stroke" stroke-miterlimit="2">Moldy/Damp</text>
<text dominant-baseline="central" text-anchor="end" style="font-size:12px;font-family:sans-serif;" x="-3" transform="matrix(0.361,-0.932,0.932,0.361,239.6726,380.7229)" fill="#333" stroke="rgb(255,255,255)" stroke-width="2" paint-order="stroke" stroke-miterlimit="2">Musty/Dusty</text>
<text dominant-baseline="central" text-anchor="end" style="font-size:12px;font-family:sans-serif;" x="-3" transform="matrix(0.429,-0.903,0.903,0.429,228.3369,375.8423)" fill="#333" stroke="rgb(255,255,255)" stroke-width="2" paint-order="stroke" stroke-miterlimit="2">Musty/Earthy</text>
<text dominant-baseline="central" text-anchor="end" style="font-size:12px;font-family:sans-serif;" x="-3" transform="matrix(0.495,-0.869,0.869,0.495,217.3925,370.1379)" fill="#333" stroke="rgb(255,255,255)" stroke-width="2" paint-order="stroke" stroke-miterlimit="2">Animalic</text>
<text dominant-baseline="central" text-anchor="end" style="font-size:12px;font-family:sans-serif;" xml:space="preserve" x="-3" transform="matrix(0.557,-0.83,0.83,0.557,206.8993,363.6407)" fill="#333" stroke="rgb(255,255,255)" stroke-width="2" paint-order="stroke" stroke-miterlimit="2">Meaty Brothy</text>
<text dominant-baseline="central" text-anchor="end" style="font-size:12px;font-family:sans-serif;" x="-3" transform="matrix(0.617,-0.787,0.787,0.617,196.9145,356.3864)" fill="#333" stroke="rgb(255,255,255)" stroke-width="2" paint-order="stroke" stroke-miterlimit="2">Phenolic</text>
<text dominant-baseline="central" text-anchor="start" style="font-size:12px;font-family:sans-serif;" transform="matrix(0.798,-0.603,0.603,0.798,178.3024,316.9018)" fill="#333">Chemical</text>
<text dominant-baseline="central" text-anchor="end" style="font-size:12px;font-family:sans-serif;" x="-3" transform="matrix(0.674,-0.739,0.739,0.674,187.4928,348.4145)" fill="#333" stroke="rgb(255,255,255)" stroke-width="2" paint-order="stroke" stroke-miterlimit="2">Bitter</text>
<text dominant-baseline="central" text-anchor="end" style="font-size:12px;font-family:sans-serif;" x="-3" transform="matrix(0.726,-0.687,0.687,0.726,178.6856,339.7685)" fill="#333" stroke="rgb(255,255,255)" stroke-width="2" paint-order="stroke" stroke-miterlimit="2">Salty</text>
<text dominant-baseline="central" text-anchor="end" style="font-size:12px;font-family:sans-serif;" x="-3" transform="matrix(0.775,-0.632,0.632,0.775,170.5409,330.4957)" fill="#333" stroke="rgb(255,255,255)" stroke-width="2" paint-order="stroke" stroke-miterlimit="2">Medicinal</text>
<text dominant-baseline="central" text-anchor="end" style="font-size:12px;font-family:sans-serif;" x="-3" transform="matrix(0.82,-0.573,0.573,0.82,163.1033,320.6468)" fill="#333" stroke="rgb(255,255,255)" stroke-width="2" paint-order="stroke" stroke-miterlimit="2">Petroleum</text>
<text dominant-baseline="central" text-anchor="end" style="font-size:12px;font-family:sans-serif;" x="-3" transform="matrix(0.86,-0.511,0.511,0.86,156.4134,310.2754)" fill="#333" stroke="rgb(255,255,255)" stroke-width="2" paint-order="stroke" stroke-miterlimit="2">Skunky</text>
<text dominant-baseline="central" text-anchor="end" style="font-size:12px;font-family:sans-serif;" x="-3" transform="matrix(0.895,-0.446,0.446,0.895,150.5077,299.4383)" fill="#333" stroke="rgb(255,255,255)" stroke-width="2" paint-order="stroke" stroke-miterlimit="2">Rubber</text>
<text dominant-baseline="central" text-anchor="middle" style="font-size:12px;font-family:sans-serif;" transform="matrix(0.129,0.992,-0.992,0.129,244.22,232.2562)" fill="#eee" stroke="#c94930" stroke-width="2" paint-order="stroke" stroke-miterlimit="2">Roasted</text>
<text dominant-baseline="central" text-anchor="start" style="font-size:12px;font-family:sans-serif;" xml:space="preserve" transform="matrix(0.926,-0.378,0.378,0.926,158.8403,282.7077)" fill="#333">Pipe Tobacco</text>
<text dominant-baseline="central" text-anchor="start" style="font-size:12px;font-family:sans-serif;" transform="matrix(0.951,-0.309,0.309,0.951,154.9639,272.1251)" fill="#333">Tobacco</text>
<text dominant-baseline="central" text-anchor="start" style="font-size:12px;font-family:sans-serif;" transform="matrix(0.992,-0.129,0.129,0.992,148.7742,244.6724)" fill="#333">Burnt</text>
<text dominant-baseline="central" text-anchor="end" style="font-size:12px;font-family:sans-serif;" x="-3" transform="matrix(0.971,-0.238,0.238,0.971,137.7961,264.7352)" fill="#333" stroke="rgb(255,255,255)" stroke-width="2" paint-order="stroke" stroke-miterlimit="2">Acrid</text>
<text dominant-baseline="central" text-anchor="end" style="font-size:12px;font-family:sans-serif;" x="-3" transform="matrix(0.986,-0.166,0.166,0.986,135.3045,252.6475)" fill="#333" stroke="rgb(255,255,255)" stroke-width="2" paint-order="stroke" stroke-miterlimit="2">Ashy</text>
<text dominant-baseline="central" text-anchor="end" style="font-size:12px;font-family:sans-serif;" x="-3" transform="matrix(0.996,-0.092,0.092,0.996,133.7124,240.4088)" fill="#333" stroke="rgb(255,255,255)" stroke-width="2" paint-order="stroke" stroke-miterlimit="2">Smoky</text>
<text dominant-baseline="central" text-anchor="end" style="font-size:12px;font-family:sans-serif;" xml:space="preserve" x="-3" transform="matrix(1,-0.018,0.018,1,133.0285,228.086)" fill="#333" stroke="rgb(255,255,255)" stroke-width="2" paint-order="stroke" stroke-miterlimit="2">Brown, Roast</text>
<text dominant-baseline="central" text-anchor="start" style="font-size:12px;font-family:sans-serif;" transform="matrix(0.996,0.092,-0.092,0.996,148.1505,210.9291)" fill="#333">Cereal</text>
<text dominant-baseline="central" text-anchor="end" style="font-size:12px;font-family:sans-serif;" x="-3" transform="matrix(0.998,0.055,-0.055,0.998,133.2566,215.7463)" fill="#333" stroke="rgb(255,255,255)" stroke-width="2" paint-order="stroke" stroke-miterlimit="2">Grain</text>
<text dominant-baseline="central" text-anchor="end" style="font-size:12px;font-family:sans-serif;" x="-3" transform="matrix(0.992,0.129,-0.129,0.992,134.3953,203.4571)" fill="#333" stroke="rgb(255,255,255)" stroke-width="2" paint-order="stroke" stroke-miterlimit="2">Malt</text>
<text dominant-baseline="central" text-anchor="middle" style="font-size:12px;font-family:sans-serif;" transform="matrix(0.378,-0.926,0.926,0.378,247.9329,203.7144)" fill="#eee" stroke="#ad213e" stroke-width="2" paint-order="stroke" stroke-miterlimit="2">Spices</text>
<text dominant-baseline="central" text-anchor="start" style="font-size:12px;font-family:sans-serif;" transform="matrix(0.979,0.202,-0.202,0.979,150.64,194.2129)" fill="#eee" stroke="#794752" stroke-width="2" paint-order="stroke" stroke-miterlimit="2">Pungent</text>
<text dominant-baseline="central" text-anchor="start" style="font-size:12px;font-family:sans-serif;" transform="matrix(0.962,0.274,-0.274,0.962,153.3216,183.2664)" fill="#eee" stroke="#cc3d41" stroke-width="2" paint-order="stroke" stroke-miterlimit="2">Pepper</text>
<text dominant-baseline="central" text-anchor="start" style="font-size:12px;font-family:sans-serif;" xml:space="preserve" transform="matrix(0.895,0.446,-0.446,0.895,163.4876,157.0249)" fill="#eee" stroke="#b14d57" stroke-width="2" paint-order="stroke" stroke-miterlimit="2">Brown Spice</text>
<text dominant-baseline="central" text-anchor="end" style="font-size:12px;font-family:sans-serif;" x="-3" transform="matrix(0.939,0.344,-0.344,0.939,143.1889,167.5605)" fill="#333" stroke="rgb(255,255,255)" stroke-width="2" paint-order="stroke" stroke-miterlimit="2">Anise</text>
<text dominant-baseline="central" text-anchor="end" style="font-size:12px;font-family:sans-serif;" x="-3" transform="matrix(0.911,0.412,-0.412,0.911,147.8592,156.1365)" fill="#333" stroke="rgb(255,255,255)" stroke-width="2" paint-order="stroke" stroke-miterlimit="2">Nutmeg</text>
<text dominant-baseline="central" text-anchor="end" style="font-size:12px;font-family:sans-serif;" x="-3" transform="matrix(0.878,0.479,-0.479,0.878,153.3604,145.0886)" fill="#333" stroke="rgb(255,255,255)" stroke-width="2" paint-order="stroke" stroke-miterlimit="2">Cinnamon</text>
<text dominant-baseline="central" text-anchor="end" style="font-size:12px;font-family:sans-serif;" x="-3" transform="matrix(0.84,0.542,-0.542,0.84,159.6625,134.4771)" fill="#333" stroke="rgb(255,255,255)" stroke-width="2" paint-order="stroke" stroke-miterlimit="2">Clove</text>
<text dominant-baseline="central" text-anchor="middle" style="font-size:12px;font-family:sans-serif;" y="-6" transform="matrix(0.714,-0.701,0.701,0.714,260.5945,184.8594)" fill="#333">Nutty/</text>
<text dominant-baseline="central" text-anchor="middle" style="font-size:12px;font-family:sans-serif;" y="6" transform="matrix(0.714,-0.701,0.701,0.714,260.5945,184.8594)" fill="#333">Cocoa</text>
<text dominant-baseline="central" text-anchor="start" style="font-size:12px;font-family:sans-serif;" transform="matrix(0.751,0.66,-0.66,0.751,185.4219,124.3615)" fill="#333">Nutty</text>
<text dominant-baseline="central" text-anchor="end" style="font-size:12px;font-family:sans-serif;" x="-3" transform="matrix(0.798,0.603,-0.603,0.798,166.7311,124.36)" fill="#333" stroke="rgb(255,255,255)" stroke-width="2" paint-order="stroke" stroke-miterlimit="2">Peanuts</text>
<text dominant-baseline="central" text-anchor="end" style="font-size:12px;font-family:sans-serif;" x="-3" transform="matrix(0.751,0.66,-0.66,0.751,174.5276,114.7926)" fill="#333" stroke="rgb(255,255,255)" stroke-width="2" paint-order="stroke" stroke-miterlimit="2">Hazelnut</text>
<text dominant-baseline="central" text-anchor="end" style="font-size:12px;font-family:sans-serif;" x="-3" transform="matrix(0.701,0.714,-0.714,0.701,183.0093,105.8271)" fill="#333" stroke="rgb(255,255,255)" stroke-width="2" paint-order="stroke" stroke-miterlimit="2">Almond</text>
<text dominant-baseline="central" text-anchor="start" style="font-size:12px;font-family:sans-serif;" transform="matrix(0.617,0.787,-0.787,0.617,205.8651,105.0214)" fill="#333">Cocoa</text>
<text dominant-baseline="central" text-anchor="end" style="font-size:12px;font-family:sans-serif;" x="-3" transform="matrix(0.646,0.763,-0.763,0.646,192.13,97.5125)" fill="#333" stroke="rgb(255,255,255)" stroke-width="2" paint-order="stroke" stroke-miterlimit="2">Chocolate</text>
<text dominant-baseline="central" text-anchor="end" style="font-size:12px;font-family:sans-serif;" xml:space="preserve" x="-3" transform="matrix(0.588,0.809,-0.809,0.588,201.8399,89.8942)" fill="#333" stroke="rgb(255,255,255)" stroke-width="2" paint-order="stroke" stroke-miterlimit="2">Dark Chocolate</text>
<text dominant-baseline="central" text-anchor="middle" style="font-size:12px;font-family:sans-serif;" transform="matrix(0.957,-0.291,0.291,0.957,283.6093,171.191)" fill="#eee" stroke="#e65832" stroke-width="2" paint-order="stroke" stroke-miterlimit="2">Sweet</text>
<text dominant-baseline="central" text-anchor="start" style="font-size:12px;font-family:sans-serif;" xml:space="preserve" transform="matrix(0.429,0.903,-0.903,0.429,234.5591,87.2548)" fill="#eee" stroke="#d45a59" stroke-width="2" paint-order="stroke" stroke-miterlimit="2">Brown Sugar</text>
<text dominant-baseline="central" text-anchor="end" style="font-size:12px;font-family:sans-serif;" x="-3" transform="matrix(0.526,0.85,-0.85,0.526,212.0858,83.0137)" fill="#333" stroke="rgb(255,255,255)" stroke-width="2" paint-order="stroke" stroke-miterlimit="2">Molasses</text>
<text dominant-baseline="central" text-anchor="end" style="font-size:12px;font-family:sans-serif;" xml:space="preserve" x="-3" transform="matrix(0.462,0.887,-0.887,0.462,222.812,76.9088)" fill="#333" stroke="rgb(255,255,255)" stroke-width="2" paint-order="stroke" stroke-miterlimit="2">Maple Syrup</text>
<text dominant-baseline="central" text-anchor="end" style="font-size:12px;font-family:sans-serif;" x="-3" transform="matrix(0.395,0.918,-0.918,0.395,233.9596,71.6127)" fill="#333" stroke="rgb(255,255,255)" stroke-width="2" paint-order="stroke" stroke-miterlimit="2">Caramelized</text>
<text dominant-baseline="central" text-anchor="end" style="font-size:12px;font-family:sans-serif;" x="-3" transform="matrix(0.327,0.945,-0.945,0.327,245.468,67.1543)" fill="#333" stroke="rgb(255,255,255)" stroke-width="2" paint-order="stroke" stroke-miterlimit="2">Honey</text>
<text dominant-baseline="central" text-anchor="start" style="font-size:12px;font-family:sans-serif;" transform="matrix(0.256,0.967,-0.967,0.256,260.984,77.5754)" fill="#333">Vanilla</text>
<text dominant-baseline="central" text-anchor="start" style="font-size:12px;font-family:sans-serif;" transform="matrix(0.184,0.983,-0.983,0.184,271.9782,75.0966)" fill="#333">Vanillin</text>
<text dominant-baseline="central" text-anchor="start" style="font-size:12px;font-family:sans-serif;" xml:space="preserve" transform="matrix(0.111,0.994,-0.994,0.111,283.1255,73.4365)" fill="#333">Overall Sweet</text>
<text dominant-baseline="central" text-anchor="start" style="font-size:12px;font-family:sans-serif;" xml:space="preserve" transform="matrix(0.037,0.999,-0.999,0.037,294.3649,72.6041)" fill="#eee" stroke="#d0545f" stroke-width="2" paint-order="stroke" stroke-miterlimit="2">Sweet Aromatics</text>
<path d="M-5 -5l342.6 0l0 46l-342.6 0Z" transform="translate(5 5)" fill="rgb(0,0,0)" fill-opacity="0" stroke="#ccc" stroke-width="0"></path>
<text dominant-baseline="central" text-anchor="start" style="font-size:14px;font-family:sans-serif;font-weight:bold;" xml:space="preserve" y="7" transform="translate(5 5)" fill="#464646">WORLD COFFEE RESEARCH SENSORY LEXICON</text>
<text dominant-baseline="central" text-anchor="start" style="font-size:12px;font-family:sans-serif;" xml:space="preserve" y="30" transform="translate(5 5)" fill="#6E7079">Source: https://worldcoffeeresearch.org/work/sensory-lexicon/</text>
</svg>